<svg width="86" height="88" viewBox="0 0 86 88" fill="none" xmlns="http://www.w3.org/2000/svg">
<path d="M85.3012 36.6898C80.8351 15.3866 36.4201 32.9065 45.025 16.6081C48.4568 10.1079 47.6143 2.48561 39.9806 0.553555C9.69415 -7.11191 -22.023 67.5323 20.9016 57.8178C30.0071 55.757 35.3947 47.5553 38.0687 52.7213C43.386 62.994 29.0222 74.797 34.6857 84.1008C45.6883 102.176 88.5999 52.4236 85.3012 36.6898Z" fill="url(#paint0_linear_168_1233)"/>
<path d="M68.2109 21.5156C67.7362 21.5156 67.3516 21.131 67.3516 20.6563C67.3516 20.1351 66.9274 19.7109 66.4063 19.7109C65.9315 19.7109 65.5469 19.3263 65.5469 18.8516C65.5469 18.3768 65.9315 17.9922 66.4063 17.9922C66.9274 17.9922 67.3516 17.568 67.3516 17.0469C67.3516 16.5722 67.7362 16.1875 68.2109 16.1875C68.6857 16.1875 69.0703 16.5722 69.0703 17.0469C69.0703 17.568 69.4945 17.9922 70.0156 17.9922C70.4904 17.9922 70.875 18.3768 70.875 18.8516C70.875 19.3263 70.4904 19.7109 70.0156 19.7109C69.4945 19.7109 69.0703 20.1351 69.0703 20.6563C69.0703 21.1308 68.6857 21.5156 68.2109 21.5156Z" fill="#0A488A"/>
<path d="M15.6641 85.3281C15.1895 85.3281 14.8047 84.9435 14.8047 84.4688C14.8047 83.9476 14.3807 83.5234 13.8594 83.5234C13.3848 83.5234 13 83.1388 13 82.6641C13 82.1893 13.3848 81.8047 13.8594 81.8047C14.3807 81.8047 14.8047 81.3805 14.8047 80.8594C14.8047 80.3847 15.1895 80 15.6641 80C16.1386 80 16.5234 80.3847 16.5234 80.8594C16.5234 81.3805 16.9475 81.8047 17.4688 81.8047C17.9433 81.8047 18.3281 82.1893 18.3281 82.6641C18.3281 83.1388 17.9433 83.5234 17.4688 83.5234C16.9475 83.5234 16.5234 83.9476 16.5234 84.4688C16.5234 84.9435 16.1386 85.3281 15.6641 85.3281Z" fill="#0A488A"/>
<path d="M63.5703 12.6328C63.3504 12.6328 63.1303 12.5489 62.9627 12.381L61.158 10.5763C60.8223 10.2408 60.8223 9.69663 61.158 9.36113L62.9627 7.55644C63.298 7.22077 63.8425 7.22077 64.1778 7.55644L65.9825 9.36113C66.3182 9.69663 66.3182 10.2408 65.9825 10.5763L64.1778 12.381C64.0103 12.5489 63.7903 12.6328 63.5703 12.6328ZM62.9811 9.96871L63.5704 10.5581L64.1598 9.96871L63.5704 9.37935L62.9811 9.96871Z" fill="#0A488A"/>
<path d="M28.6642 83.3281C28.4442 83.3281 28.2244 83.2442 28.0564 83.0763L26.2518 81.2716C25.9161 80.9361 25.9161 80.3919 26.2518 80.0564L28.0564 78.2518C28.3921 77.9161 28.9361 77.9161 29.2718 78.2518L31.0765 80.0564C31.4121 80.3919 31.4121 80.9361 31.0765 81.2716L29.2718 83.0763C29.104 83.2442 28.8842 83.3281 28.6642 83.3281ZM28.0748 80.664L28.6642 81.2534L29.2536 80.664L28.6642 80.0747L28.0748 80.664Z" fill="#0A488A"/>
<g clip-path="url(#clip0_168_1233)">
<path d="M50.7734 69.2188C50.7734 71.3633 49.0391 73.0977 46.8945 73.0977C44.75 73.0977 43.0156 71.3633 43.0156 69.2188C43.0156 67.0742 44.75 65.3398 46.8945 65.3398C48.6172 65.3398 50.082 66.4648 50.5859 68.0117C50.7031 68.3867 50.7734 68.7969 50.7734 69.2188Z" fill="white"/>
<path d="M43.0039 14.9023C48.0898 14.9023 52.8125 16.4727 56.7148 19.1445V21.8047C56.7148 24.4883 54.5352 26.668 51.8516 26.668H34.1562C31.4727 26.668 29.293 24.4883 29.293 21.8047V19.1445C33.1953 16.4609 37.918 14.9023 43.0039 14.9023ZM19.5078 39.1602H17.9727C16.25 39.1602 14.8672 40.5547 14.8672 42.2773V53.2461C14.8672 54.9688 16.2617 56.3516 17.9727 56.3516H19.5195C21.2422 56.3516 22.625 54.957 22.625 53.2461V42.2773C22.625 40.5547 21.2305 39.1602 19.5078 39.1602ZM68.0352 39.1602H66.4883C64.7656 39.1602 63.3711 40.5547 63.3711 42.2773V53.2461C63.3711 54.9688 64.7656 56.3516 66.4883 56.3516H68.0352C69.7578 56.3516 71.1523 54.957 71.1523 53.2461V42.2773C71.1523 40.5547 69.7578 39.1602 68.0352 39.1602Z" fill="white"/>
<path d="M51.8555 37.2617H34.1602C31.4766 37.2617 29.2969 39.4414 29.2969 42.125V69.2188L40.4531 60.3008C42.1055 58.9766 44.168 58.2617 46.2891 58.2617H51.8555C54.5391 58.2617 56.7188 56.082 56.7188 53.3984V42.125C56.7188 39.4414 54.5391 37.2617 51.8555 37.2617Z" fill="#248EFF"/>
<path d="M68.1523 38.2461C67.8594 30.3008 63.8281 22.9297 57.2305 18.4062L57.2187 18.3945C53.0234 15.5234 48.1133 14 43.0039 14C37.8945 14 32.9844 15.5234 28.7891 18.3945L28.7773 18.4062C22.1797 22.9414 18.1484 30.3008 17.8555 38.2461C15.6992 38.3164 13.9531 40.0977 13.9531 42.2773V53.2344C13.9531 55.4492 15.7578 57.2656 17.9844 57.2656H19.5312C21.7578 57.2656 23.5625 55.4609 23.5625 53.2344V42.2773C23.5625 40.1094 21.8398 38.3398 19.6953 38.2578C19.9648 31.5078 23.1406 25.2148 28.3906 20.9844V21.8164C28.3906 25.0039 30.9805 27.5938 34.168 27.5938H51.8516C55.0391 27.5938 57.6289 25.0039 57.6289 21.8164V20.9844C62.8789 25.2031 66.0547 31.4961 66.3242 38.2578C64.1797 38.3398 62.457 40.1211 62.457 42.2773V53.2344C62.457 55.4023 64.1797 57.1836 66.3359 57.2539V60.9453C66.3359 64.9883 63.0547 68.2695 59.0117 68.2695H51.5937C51.5586 68.082 51.5117 67.8828 51.4414 67.6953C50.7969 65.7148 48.957 64.3906 46.8828 64.3906C44.2344 64.3906 42.0898 66.5469 42.0898 69.1836C42.0898 71.832 44.2461 73.9766 46.8828 73.9766C49.2148 73.9766 51.1602 72.3008 51.5937 70.0977H59.0117C64.0625 70.0977 68.1758 65.9844 68.1758 60.9336V57.2422C70.332 57.1602 72.0547 55.3906 72.0547 53.2227V42.2656C72.0547 40.0977 70.3086 38.3164 68.1523 38.2461ZM21.7227 42.2773V53.2344C21.7227 54.4414 20.7383 55.4258 19.5312 55.4258H17.9844C16.7773 55.4258 15.793 54.4414 15.793 53.2344V42.2773C15.793 41.0703 16.7773 40.0859 17.9844 40.0859H19.5312C20.7383 40.0859 21.7227 41.0703 21.7227 42.2773ZM55.7891 21.8164C55.7891 23.9961 54.0195 25.7539 51.8516 25.7539H34.168C31.9883 25.7539 30.2305 23.9844 30.2305 21.8164V19.6484C34.0273 17.1523 38.4336 15.8398 43.0156 15.8398C47.5859 15.8398 52.0039 17.1523 55.8008 19.6484V21.8164H55.7891ZM46.8828 72.1602C45.2539 72.1602 43.918 70.8359 43.918 69.1953C43.918 67.5664 45.2422 66.2305 46.8828 66.2305C48.1719 66.2305 49.2969 67.0508 49.6953 68.2695C49.7891 68.5742 49.8359 68.8789 49.8359 69.1953C49.8477 70.8359 48.5117 72.1602 46.8828 72.1602ZM70.2148 53.2344C70.2148 54.4414 69.2305 55.4258 68.0234 55.4258H66.4766C65.2695 55.4258 64.2852 54.4414 64.2852 53.2344V42.2773C64.2852 41.0703 65.2695 40.0859 66.4766 40.0859H68.0234C69.2305 40.0859 70.2148 41.0703 70.2148 42.2773V53.2344ZM51.8398 59.1641C55.0273 59.1641 57.6172 56.5742 57.6172 53.3867V42.125C57.6172 38.9375 55.0273 36.3477 51.8398 36.3477H34.168C30.9805 36.3477 28.3906 38.9375 28.3906 42.125V69.207C28.3906 69.5586 28.5898 69.8867 28.9062 70.0391C29.0352 70.0977 29.1641 70.1328 29.3047 70.1328C29.5039 70.1328 29.7148 70.0625 29.8789 69.9336L41.0234 61.0273C42.5117 59.8438 44.375 59.1875 46.2734 59.1875H51.8398V59.1641ZM39.875 59.5742L30.2187 67.2969V42.125C30.2187 39.9453 31.9883 38.1875 34.1562 38.1875H51.8398C54.0195 38.1875 55.7773 39.957 55.7773 42.125V53.3867C55.7773 55.5664 54.0078 57.3242 51.8398 57.3242H46.2734C43.9531 57.3359 41.6914 58.1328 39.875 59.5742ZM33.6875 44.5156C33.6875 44.0117 34.0977 43.6016 34.6016 43.6016H51.3711C51.875 43.6016 52.2852 44.0117 52.2852 44.5156C52.2852 45.0195 51.875 45.4297 51.3711 45.4297H34.6133C34.0977 45.4414 33.6875 45.0312 33.6875 44.5156ZM46.4023 50.9961C46.4023 51.5 45.9922 51.9102 45.4883 51.9102H34.625C34.1211 51.9102 33.7109 51.5 33.7109 50.9961C33.7109 50.4922 34.1211 50.082 34.625 50.082H45.4883C45.9805 50.0703 46.4023 50.4922 46.4023 50.9961ZM52.2969 50.9961C52.2969 51.5 51.8867 51.9102 51.3828 51.9102C50.8789 51.9102 50.4688 51.5 50.4688 50.9961C50.4688 50.4922 50.8789 50.082 51.3828 50.082C51.8867 50.0703 52.2969 50.4922 52.2969 50.9961Z" fill="#0A488A"/>
<path d="M17.6641 70.3281C17.1895 70.3281 16.8047 69.9435 16.8047 69.4688C16.8047 68.9476 16.3807 68.5234 15.8594 68.5234C15.3848 68.5234 15 68.1388 15 67.6641C15 67.1893 15.3848 66.8047 15.8594 66.8047C16.3807 66.8047 16.8047 66.3805 16.8047 65.8594C16.8047 65.3847 17.1895 65 17.6641 65C18.1386 65 18.5234 65.3847 18.5234 65.8594C18.5234 66.3805 18.9475 66.8047 19.4688 66.8047C19.9433 66.8047 20.3281 67.1893 20.3281 67.6641C20.3281 68.1388 19.9433 68.5234 19.4688 68.5234C18.9475 68.5234 18.5234 68.9476 18.5234 69.4688C18.5234 69.9435 18.1386 70.3281 17.6641 70.3281Z" fill="#0A488A"/>
</g>
<defs>
<linearGradient id="paint0_linear_168_1233" x1="3.85217e-05" y1="44" x2="85.4815" y2="44" gradientUnits="userSpaceOnUse">
<stop stop-color="#D1DDFF" stop-opacity="0"/>
<stop offset="1" stop-color="#248EFF" stop-opacity="0.26"/>
</linearGradient>
<clipPath id="clip0_168_1233">
<rect width="60" height="60" fill="white" transform="translate(13 14)"/>
</clipPath>
</defs>
</svg>
