<svg width="27" height="27" viewBox="0 0 27 27" fill="none" xmlns="http://www.w3.org/2000/svg">
<path d="M22.5217 8.52174H4.26087C1.9113 8.52174 0 6.61043 0 4.26087C0 1.9113 1.9113 0 4.26087 0H22.5217C24.8713 0 26.7826 1.9113 26.7826 4.26087C26.7826 6.61043 24.8713 8.52174 22.5217 8.52174ZM4.26087 1.82609C2.91809 1.82609 1.82609 2.91809 1.82609 4.26087C1.82609 5.60365 2.91809 6.69565 4.26087 6.69565H22.5217C23.8645 6.69565 24.9565 5.60365 24.9565 4.26087C24.9565 2.91809 23.8645 1.82609 22.5217 1.82609H4.26087Z" fill="#1276DF"/>
<path d="M6.08849 5.47385C6.76083 5.47385 7.30588 4.9288 7.30588 4.25645C7.30588 3.58411 6.76083 3.03906 6.08849 3.03906C5.41614 3.03906 4.87109 3.58411 4.87109 4.25645C4.87109 4.9288 5.41614 5.47385 6.08849 5.47385Z" fill="#1276DF"/>
<path d="M10.9557 5.47385C11.628 5.47385 12.1731 4.9288 12.1731 4.25645C12.1731 3.58411 11.628 3.03906 10.9557 3.03906C10.2833 3.03906 9.73828 3.58411 9.73828 4.25645C9.73828 4.9288 10.2833 5.47385 10.9557 5.47385Z" fill="#1276DF"/>
<path d="M12.0157 15.2171H4.26087C1.9113 15.2171 0 13.3057 0 10.9562C0 9.82523 0.458957 8.72714 1.25878 7.94192C2.03183 7.15427 3.12991 6.69531 4.26087 6.69531H22.5217C24.4489 6.69531 26.1386 7.99062 26.6304 9.84592C26.7595 10.3329 26.4697 10.8332 25.9828 10.9623C25.497 11.0974 24.9955 10.8016 24.8664 10.3146C24.5852 9.25792 23.621 8.5214 22.5217 8.5214H4.26087C3.60835 8.5214 3.00087 8.77462 2.55043 9.23357C2.0793 9.69618 1.82609 10.3037 1.82609 10.9562C1.82609 12.299 2.91809 13.391 4.26087 13.391H12.0157C12.5197 13.391 12.9287 13.8 12.9287 14.304C12.9287 14.808 12.5197 15.2171 12.0157 15.2171Z" fill="#1276DF"/>
<path d="M6.08849 12.177C6.76083 12.177 7.30588 11.6319 7.30588 10.9596C7.30588 10.2872 6.76083 9.74219 6.08849 9.74219C5.41614 9.74219 4.87109 10.2872 4.87109 10.9596C4.87109 11.6319 5.41614 12.177 6.08849 12.177Z" fill="#1276DF"/>
<path d="M10.9557 12.177C11.628 12.177 12.1731 11.6319 12.1731 10.9596C12.1731 10.2872 11.628 9.74219 10.9557 9.74219C10.2833 9.74219 9.73828 10.2872 9.73828 10.9596C9.73828 11.6319 10.2833 12.177 10.9557 12.177Z" fill="#1276DF"/>
<path d="M10.0435 21.9124H4.26087C1.9113 21.9124 0 20.0011 0 17.6515C0 16.5205 0.458957 15.4225 1.25878 14.6372C2.03183 13.8496 3.12991 13.3906 4.26087 13.3906C4.76487 13.3906 5.17391 13.7997 5.17391 14.3037C5.17391 14.8077 4.76487 15.2167 4.26087 15.2167C3.60835 15.2167 3.00087 15.4699 2.55043 15.9289C2.0793 16.3915 1.82609 16.999 1.82609 17.6515C1.82609 18.9943 2.91809 20.0863 4.26087 20.0863H10.0435C10.5475 20.0863 10.9565 20.4953 10.9565 20.9993C10.9565 21.5033 10.5475 21.9124 10.0435 21.9124Z" fill="#1276DF"/>
<path d="M6.08849 18.8723C6.76083 18.8723 7.30588 18.3272 7.30588 17.6549C7.30588 16.9825 6.76083 16.4375 6.08849 16.4375C5.41614 16.4375 4.87109 16.9825 4.87109 17.6549C4.87109 18.3272 5.41614 18.8723 6.08849 18.8723Z" fill="#1276DF"/>
<g clip-path="url(#clip0_497_654)">
<path d="M18.25 20H20.75C20.7832 20 20.8154 20.0127 20.8389 20.0361C20.8623 20.0596 20.875 20.0918 20.875 20.125C20.875 20.1582 20.8623 20.1904 20.8389 20.2139C20.8154 20.2373 20.7832 20.25 20.75 20.25H18.25C18.2168 20.25 18.1846 20.2373 18.1611 20.2139C18.1377 20.1904 18.125 20.1582 18.125 20.125C18.125 20.0918 18.1377 20.0596 18.1611 20.0361C18.1846 20.0127 18.2168 20 18.25 20Z" fill="#1276DF" stroke="#1276DF"/>
<path d="M18.25 17.5H20.75C20.7832 17.5 20.8154 17.5127 20.8389 17.5361C20.8623 17.5596 20.875 17.5918 20.875 17.625C20.875 17.6582 20.8623 17.6904 20.8389 17.7139C20.8154 17.7373 20.7832 17.75 20.75 17.75H18.25C18.2168 17.75 18.1846 17.7373 18.1611 17.7139C18.1377 17.6904 18.125 17.6582 18.125 17.625C18.125 17.5918 18.1377 17.5596 18.1611 17.5361C18.1728 17.5244 18.1872 17.516 18.2021 17.5098L18.25 17.5Z" fill="#1276DF" stroke="#1276DF"/>
<path d="M18.25 15H20.75C20.7832 15 20.8154 15.0127 20.8389 15.0361C20.8623 15.0596 20.875 15.0918 20.875 15.125C20.875 15.1582 20.8623 15.1904 20.8389 15.2139C20.8154 15.2373 20.7832 15.25 20.75 15.25H18.25C18.2168 15.25 18.1846 15.2373 18.1611 15.2139C18.1377 15.1904 18.125 15.1582 18.125 15.125C18.125 15.0918 18.1377 15.0596 18.1611 15.0361C18.1846 15.0127 18.2168 15 18.25 15Z" fill="#1276DF" stroke="#1276DF"/>
<path d="M23.25 11.8496L23.4014 11.8652C23.451 11.8751 23.4999 11.8897 23.5469 11.9092C23.6408 11.9481 23.726 12.0053 23.7979 12.0771C23.8697 12.149 23.9269 12.2342 23.9658 12.3281C24.0048 12.4222 24.0254 12.5232 24.0254 12.625V25.5996H24.5C24.7055 25.5996 24.9025 25.6818 25.0479 25.8271C25.1932 25.9725 25.2754 26.1695 25.2754 26.375C25.2754 26.5805 25.1932 26.7775 25.0479 26.9229C24.9025 27.0682 24.7055 27.1504 24.5 27.1504H14.5C14.2945 27.1504 14.0975 27.0682 13.9521 26.9229C13.8068 26.7775 13.7246 26.5805 13.7246 26.375C13.7246 26.1695 13.8068 25.9725 13.9521 25.8271C14.0975 25.6818 14.2945 25.5996 14.5 25.5996H14.9746V12.625C14.9746 12.5232 14.9952 12.4222 15.0342 12.3281C15.0731 12.2342 15.1303 12.149 15.2021 12.0771C15.274 12.0053 15.3592 11.9481 15.4531 11.9092C15.5472 11.8702 15.6482 11.8496 15.75 11.8496H23.25ZM16.5254 25.5996H17.4746V23.875C17.4746 23.3379 17.6886 22.8231 18.0684 22.4434C18.4481 22.0636 18.9629 21.8496 19.5 21.8496C20.0371 21.8496 20.5519 22.0636 20.9316 22.4434C21.3114 22.8231 21.5254 23.3379 21.5254 23.875V25.5996H22.4746V13.4004H16.5254V25.5996ZM19.5 23.4004C19.374 23.4004 19.2531 23.45 19.1641 23.5391C19.075 23.6281 19.0254 23.749 19.0254 23.875V25.5996H19.9746V23.875C19.9746 23.749 19.925 23.6281 19.8359 23.5391C19.7469 23.45 19.626 23.4004 19.5 23.4004Z" fill="#1276DF" stroke="#1276DF" stroke-width="0.3"/>
</g>
<defs>
<clipPath id="clip0_497_654">
<rect width="15" height="15" fill="white" transform="translate(12 12)"/>
</clipPath>
</defs>
</svg>
