<svg width="24" height="24" viewBox="0 0 24 24" fill="none" xmlns="http://www.w3.org/2000/svg">
<path fill-rule="evenodd" clip-rule="evenodd" d="M12 1.67442C6.29734 1.67442 1.67442 6.29734 1.67442 12C1.67442 17.7026 6.29734 22.3256 12 22.3256C12.3491 22.3256 12.6939 22.3083 13.0336 22.2746C13.4937 22.2289 13.9037 22.5648 13.9494 23.0249C13.9951 23.4851 13.6591 23.8951 13.199 23.9408C12.8044 23.98 12.4044 24 12 24C5.37258 24 0 18.6275 0 12C0 5.37258 5.37258 0 12 0C18.6275 0 24 5.37258 24 12C24 12.4044 23.98 12.8044 23.9408 13.199C23.8951 13.6591 23.4851 13.9951 23.0249 13.9494C22.5648 13.9037 22.2289 13.4937 22.2746 13.0336C22.3083 12.6939 22.3256 12.3491 22.3256 12C22.3256 6.29734 17.7026 1.67442 12 1.67442Z" fill="black"/>
<path d="M4.33301 15.0703C4.13912 15.0703 3.97293 15.0021 3.83443 14.8658C3.69594 14.7294 3.62776 14.5632 3.62989 14.3672C3.62776 14.1754 3.69594 14.0114 3.83443 13.875C3.97293 13.7386 4.13912 13.6705 4.33301 13.6705C4.52051 13.6705 4.68351 13.7386 4.822 13.875C4.96263 14.0114 5.03401 14.1754 5.03614 14.3672C5.03401 14.4972 4.99992 14.6154 4.93387 14.7219C4.86994 14.8285 4.78472 14.9137 4.67818 14.9776C4.57378 15.0394 4.45872 15.0703 4.33301 15.0703ZM7.28329 15.0991C6.97221 15.0991 6.69203 15.0437 6.44274 14.9329C6.19558 14.82 5.99956 14.6538 5.85467 14.4343C5.71192 14.2148 5.64054 13.9442 5.64054 13.6225C5.64054 13.3455 5.69167 13.1165 5.79395 12.9354C5.89622 12.7543 6.03578 12.6094 6.21263 12.5007C6.38947 12.392 6.58869 12.31 6.81028 12.2546C7.034 12.1971 7.26518 12.1555 7.50382 12.13C7.79146 12.1001 8.02477 12.0735 8.20375 12.0501C8.38273 12.0245 8.5127 11.9862 8.59366 11.935C8.67676 11.8817 8.71831 11.7997 8.71831 11.6889V11.6697C8.71831 11.429 8.64693 11.2425 8.50417 11.1104C8.36142 10.9783 8.15581 10.9123 7.88734 10.9123C7.60396 10.9123 7.37917 10.9741 7.21298 11.0977C7.04892 11.2212 6.93812 11.3672 6.88059 11.5355L5.80034 11.3821C5.88557 11.0838 6.02619 10.8345 6.22221 10.6342C6.41824 10.4318 6.65794 10.2805 6.94132 10.1804C7.2247 10.0781 7.53791 10.027 7.88095 10.027C8.11746 10.027 8.3529 10.0547 8.58727 10.1101C8.82165 10.1655 9.03578 10.2571 9.22967 10.3849C9.42356 10.5107 9.5791 10.6822 9.69629 10.8995C9.81561 11.1168 9.87527 11.3885 9.87527 11.7145V15H8.76305V14.3256H8.7247C8.65439 14.462 8.55531 14.5898 8.42747 14.7092C8.30176 14.8263 8.14302 14.9212 7.95126 14.9936C7.76163 15.0639 7.53898 15.0991 7.28329 15.0991ZM7.58372 14.2489C7.81596 14.2489 8.01731 14.2031 8.18777 14.1115C8.35822 14.0178 8.48926 13.8942 8.58088 13.7408C8.67463 13.5874 8.7215 13.4201 8.7215 13.239V12.6605C8.68528 12.6903 8.62349 12.718 8.53613 12.7436C8.45091 12.7692 8.35503 12.7915 8.24849 12.8107C8.14196 12.8299 8.03649 12.8469 7.93209 12.8619C7.82768 12.8768 7.73713 12.8896 7.66042 12.9002C7.48784 12.9237 7.33336 12.962 7.197 13.0153C7.06064 13.0685 6.95304 13.1431 6.8742 13.239C6.79537 13.3327 6.75595 13.4542 6.75595 13.6033C6.75595 13.8164 6.83372 13.9773 6.98926 14.0859C7.1448 14.1946 7.34295 14.2489 7.58372 14.2489ZM10.6786 16.8409V10.0909H11.8164V10.9027H11.8835C11.9432 10.7834 12.0273 10.6566 12.136 10.5224C12.2447 10.386 12.3917 10.2699 12.5771 10.174C12.7624 10.076 12.9989 10.027 13.2866 10.027C13.6658 10.027 14.0078 10.1239 14.3125 10.3178C14.6193 10.5096 14.8622 10.794 15.0412 11.1712C15.2223 11.5462 15.3129 12.0064 15.3129 12.5518C15.3129 13.0909 15.2244 13.549 15.0476 13.9261C14.8707 14.3033 14.63 14.5909 14.3253 14.7891C14.0206 14.9872 13.6754 15.0863 13.2898 15.0863C13.0085 15.0863 12.7752 15.0394 12.5898 14.9457C12.4045 14.8519 12.2553 14.739 12.1424 14.6069C12.0316 14.4727 11.9453 14.3459 11.8835 14.2266H11.8356V16.8409H10.6786ZM11.8132 12.5455C11.8132 12.8629 11.858 13.141 11.9474 13.3796C12.0391 13.6183 12.1701 13.8047 12.3406 13.9389C12.5131 14.071 12.7219 14.1371 12.967 14.1371C13.2227 14.1371 13.4368 14.0689 13.6094 13.9325C13.782 13.794 13.9119 13.6055 13.9993 13.3668C14.0888 13.1261 14.1335 12.8523 14.1335 12.5455C14.1335 12.2408 14.0898 11.9702 14.0025 11.7337C13.9151 11.4972 13.7852 11.3118 13.6126 11.1776C13.44 11.0433 13.2248 10.9762 12.967 10.9762C12.7198 10.9762 12.5099 11.0412 12.3374 11.1712C12.1648 11.3011 12.0337 11.4833 11.9442 11.7177C11.8569 11.9521 11.8132 12.228 11.8132 12.5455ZM15.9436 16.8409V10.0909H17.0814V10.9027H17.1485C17.2082 10.7834 17.2923 10.6566 17.401 10.5224C17.5097 10.386 17.6567 10.2699 17.8421 10.174C18.0274 10.076 18.2639 10.027 18.5516 10.027C18.9308 10.027 19.2728 10.1239 19.5775 10.3178C19.8843 10.5096 20.1272 10.794 20.3062 11.1712C20.4873 11.5462 20.5779 12.0064 20.5779 12.5518C20.5779 13.0909 20.4894 13.549 20.3126 13.9261C20.1357 14.3033 19.895 14.5909 19.5903 14.7891C19.2856 14.9872 18.9404 15.0863 18.5548 15.0863C18.2735 15.0863 18.0402 15.0394 17.8548 14.9457C17.6695 14.8519 17.5203 14.739 17.4074 14.6069C17.2966 14.4727 17.2103 14.3459 17.1485 14.2266H17.1006V16.8409H15.9436ZM17.0782 12.5455C17.0782 12.8629 17.123 13.141 17.2124 13.3796C17.3041 13.6183 17.4351 13.8047 17.6056 13.9389C17.7781 14.071 17.9869 14.1371 18.232 14.1371C18.4877 14.1371 18.7018 14.0689 18.8744 13.9325C19.047 13.794 19.1769 13.6055 19.2643 13.3668C19.3538 13.1261 19.3985 12.8523 19.3985 12.5455C19.3985 12.2408 19.3548 11.9702 19.2675 11.7337C19.1801 11.4972 19.0502 11.3118 18.8776 11.1776C18.705 11.0433 18.4898 10.9762 18.232 10.9762C17.9848 10.9762 17.7749 11.0412 17.6024 11.1712C17.4298 11.3011 17.2987 11.4833 17.2092 11.7177C17.1219 11.9521 17.0782 12.228 17.0782 12.5455Z" fill="black"/>
</svg>
