<svg width="166" height="166" viewBox="0 0 166 166" fill="none" xmlns="http://www.w3.org/2000/svg">
<path d="M123.167 138.358L30.1061 148.318C22.7367 149.098 16.0967 143.766 15.317 136.371L6.06124 50.1521L5.05518 40.846C4.27548 33.4766 9.6076 26.8366 17.0021 26.0318L110.063 16.0718C117.432 15.2921 124.072 20.6242 124.852 28.0188L125.858 37.3248L135.089 123.544C135.893 130.939 130.536 137.554 123.167 138.358Z" fill="#FDCD56"/>
<path d="M135.088 123.567L134.988 122.662C134.057 128.497 129.303 133.225 123.141 133.879L30.0807 143.839C22.7113 144.619 16.0713 139.287 15.2916 131.892L11.4937 96.3281C11.3428 96.4287 11.1919 96.5293 11.041 96.6299L15.2916 136.369C16.0713 143.739 22.7113 149.096 30.0807 148.316L123.141 138.356C130.536 137.577 135.893 130.937 135.088 123.567Z" fill="#E3B84D"/>
<path d="M28.6475 149.602C21.2529 149.602 14.8644 144.018 14.0847 136.498L3.87323 40.9721C3.01807 32.9236 8.85323 25.7051 16.9017 24.8248L109.962 14.8648C113.836 14.4624 117.659 15.5942 120.727 18.0339C123.77 20.4988 125.682 23.9948 126.084 27.8933L136.296 123.419C137.151 131.442 131.316 138.686 123.267 139.566L30.2069 149.526C29.7038 149.576 29.1757 149.602 28.6475 149.602ZM111.522 17.2291C111.094 17.2291 110.641 17.2542 110.214 17.3045L17.1532 27.2645C10.4629 27.9939 5.58353 34.0303 6.28777 40.7206L16.4993 136.246C17.2035 142.936 23.2399 147.816 29.9553 147.112L123.016 137.152C129.731 136.422 134.586 130.386 133.881 123.695L123.67 28.17C123.318 24.9254 121.733 22.0079 119.193 19.9706C116.98 18.1597 114.314 17.2291 111.522 17.2291Z" fill="#3E3E3E"/>
<path d="M27.8427 27.8672V114.564C27.8427 121.984 33.8539 127.995 41.2736 127.995H134.888C142.307 127.995 148.318 121.984 148.318 114.564V27.8672H27.8427Z" fill="#F4F6F8"/>
<path d="M148.319 109.711V114.59C148.319 122.01 142.307 128.021 134.888 128.021H41.2737C33.854 128.021 27.8428 122.01 27.8428 114.59V109.711C27.8428 117.131 33.854 123.142 41.2737 123.142H134.888C142.307 123.142 148.319 117.131 148.319 109.711Z" fill="#D7DADF"/>
<path d="M134.888 129.228H41.2736C33.1999 129.228 26.6102 122.663 26.6102 114.565V27.8674C26.6102 27.1883 27.1636 26.6602 27.8175 26.6602H148.293C148.972 26.6602 149.501 27.2135 149.501 27.8674V114.565C149.551 122.663 142.961 129.228 134.888 129.228ZM29.0499 29.0747V114.565C29.0499 121.305 34.533 126.788 41.2736 126.788H134.888C141.628 126.788 147.111 121.305 147.111 114.565V29.0747H29.0499Z" fill="#3E3E3E"/>
<path d="M27.8428 27.8693H148.319V16.199C148.319 10.062 143.339 5.08203 137.202 5.08203H38.9597C32.8228 5.08203 27.8428 10.062 27.8428 16.199V27.8693Z" fill="#8C9FFA"/>
<path d="M27.8427 23.3906H148.318V27.8676H27.8427V23.3906Z" fill="#6E7FED"/>
<path d="M148.319 29.0746H27.843C27.1639 29.0746 26.6357 28.5213 26.6357 27.8674V14.8137C26.6357 8.77735 31.5654 3.84766 37.6018 3.84766H138.585C144.621 3.84766 149.551 8.77735 149.551 14.8137V27.8674C149.551 28.5464 148.998 29.0746 148.319 29.0746ZM29.0503 26.6349H147.086V14.8137C147.086 10.1104 143.263 6.28735 138.56 6.28735H37.5766C32.8733 6.28735 29.0503 10.1104 29.0503 14.8137V26.6349Z" fill="#3E3E3E"/>
<path d="M46.6563 21.427H41.5757C40.2427 21.427 39.1611 20.3455 39.1611 19.0125V13.9067C39.1611 12.5737 40.2427 11.4922 41.5757 11.4922H46.6563C47.9893 11.4922 49.0708 12.5737 49.0708 13.9067V18.9873C49.0708 20.3455 47.9893 21.427 46.6563 21.427Z" fill="#F76C82"/>
<path d="M46.6563 22.6597H41.5757C39.5636 22.6597 37.9287 21.0249 37.9287 19.0127V13.9321C37.9287 11.92 39.5636 10.2852 41.5757 10.2852H46.6563C48.6684 10.2852 50.3033 11.92 50.3033 13.9321V18.9876C50.3033 20.9997 48.6684 22.6597 46.6563 22.6597ZM41.5757 12.6997C40.8966 12.6997 40.3684 13.253 40.3684 13.907V18.9624C40.3684 19.6415 40.9217 20.1697 41.5757 20.1697H46.6563C47.3354 20.1697 47.8636 19.6164 47.8636 18.9624V13.9321C47.8636 13.253 47.3102 12.7249 46.6563 12.7249H41.5757V12.6997Z" fill="#3E3E3E"/>
<path d="M63.7845 21.427H58.7039C57.3708 21.427 56.2893 20.3455 56.2893 19.0125V13.9067C56.2893 12.5737 57.3708 11.4922 58.7039 11.4922H63.7845C65.1175 11.4922 66.199 12.5737 66.199 13.9067V18.9873C66.2242 20.3455 65.1175 21.427 63.7845 21.427Z" fill="white"/>
<path d="M63.7845 22.6597H58.729C56.7169 22.6597 55.082 21.0249 55.082 19.0127V13.9321C55.082 11.92 56.7169 10.2852 58.729 10.2852H63.7845C65.7966 10.2852 67.4314 11.92 67.4314 13.9321V18.9876C67.4314 20.9997 65.7966 22.6597 63.7845 22.6597ZM58.7039 12.6997C58.0248 12.6997 57.4966 13.253 57.4966 13.907V18.9624C57.4966 19.6415 58.0499 20.1697 58.7039 20.1697H63.7593C64.4384 20.1697 64.9666 19.6164 64.9666 18.9624V13.9321C64.9666 13.253 64.4132 12.7249 63.7593 12.7249H58.7039V12.6997Z" fill="#3E3E3E"/>
<path d="M80.9124 21.427H75.8318C74.4987 21.427 73.4172 20.3455 73.4172 19.0125V13.9067C73.4172 12.5737 74.4987 11.4922 75.8318 11.4922H80.9124C82.2454 11.4922 83.3269 12.5737 83.3269 13.9067V18.9873C83.3521 20.3455 82.2706 21.427 80.9124 21.427Z" fill="#FDCD56"/>
<path d="M80.9124 22.6597H75.8569C73.8448 22.6597 72.21 21.0249 72.21 19.0127V13.9321C72.21 11.92 73.8448 10.2852 75.8569 10.2852H80.9124C82.9245 10.2852 84.5594 11.92 84.5594 13.9321V18.9876C84.5594 20.9997 82.9245 22.6597 80.9124 22.6597ZM75.8318 12.6997C75.1527 12.6997 74.6245 13.253 74.6245 13.907V18.9624C74.6245 19.6415 75.1778 20.1697 75.8318 20.1697H80.8872C81.5663 20.1697 82.0945 19.6164 82.0945 18.9624V13.9321C82.0945 13.253 81.5412 12.7249 80.8872 12.7249H75.8318V12.6997Z" fill="#3E3E3E"/>
<path d="M126.814 22.7864C126.512 22.7864 126.185 22.6606 125.959 22.4343C125.481 21.9564 125.481 21.1767 125.959 20.6988L136.171 10.4873C136.648 10.0094 137.428 10.0094 137.906 10.4873C138.384 10.9652 138.384 11.7449 137.906 12.2228L127.694 22.4343C127.443 22.6606 127.141 22.7864 126.814 22.7864Z" fill="#3E3E3E"/>
<path d="M126.814 22.7864C126.512 22.7864 126.185 22.6606 125.959 22.4343C125.481 21.9564 125.481 21.1767 125.959 20.6988L136.171 10.4873C136.648 10.0094 137.428 10.0094 137.906 10.4873C138.384 10.9652 138.384 11.7449 137.906 12.2228L127.694 22.4343C127.443 22.6606 127.141 22.7864 126.814 22.7864Z" fill="#3E3E3E"/>
<path d="M137.026 22.7864C136.724 22.7864 136.397 22.6606 136.171 22.4343L125.959 12.2228C125.481 11.7449 125.481 10.9652 125.959 10.4873C126.437 10.0094 127.217 10.0094 127.694 10.4873L137.906 20.6988C138.384 21.1767 138.384 21.9564 137.906 22.4343C137.654 22.6606 137.327 22.7864 137.026 22.7864Z" fill="#3E3E3E"/>
<path d="M137.026 22.7864C136.724 22.7864 136.397 22.6606 136.171 22.4343L125.959 12.2228C125.481 11.7449 125.481 10.9652 125.959 10.4873C126.437 10.0094 127.217 10.0094 127.694 10.4873L137.906 20.6988C138.384 21.1767 138.384 21.9564 137.906 22.4343C137.654 22.6606 137.327 22.7864 137.026 22.7864Z" fill="#3E3E3E"/>
<path d="M117.986 17.6802H107.901C107.222 17.6802 106.693 17.1268 106.693 16.4729C106.693 15.7938 107.247 15.2656 107.901 15.2656H117.986C118.665 15.2656 119.194 15.819 119.194 16.4729C119.194 17.1268 118.665 17.6802 117.986 17.6802Z" fill="#3E3E3E"/>
<path d="M72.1096 36.543H44.0405C40.0917 36.543 36.8975 39.7372 36.8975 43.686V71.7551C36.8975 75.7039 40.0917 78.8981 44.0405 78.8981H72.1096C76.0584 78.8981 79.2526 75.7039 79.2526 71.7551V43.686C79.2526 39.7372 76.0584 36.543 72.1096 36.543Z" fill="#8C9FFA"/>
<path d="M74.3732 80.1559H41.7517C38.3814 80.1559 35.665 77.4144 35.665 74.0693V41.4226C35.665 38.0523 38.4066 35.3359 41.7517 35.3359H74.3732C77.7435 35.3359 80.4599 38.0775 80.4599 41.4226V74.0441C80.485 77.4144 77.7435 80.1559 74.3732 80.1559ZM41.7517 37.7756C39.7396 37.7756 38.1047 39.4105 38.1047 41.4226V74.0441C38.1047 76.0562 39.7396 77.6911 41.7517 77.6911H74.3732C76.3853 77.6911 78.0202 76.0562 78.0202 74.0441V41.4226C78.0202 39.4105 76.3853 37.7756 74.3732 37.7756H41.7517Z" fill="#3E3E3E"/>
<path d="M138.66 41.4224V74.0439C138.66 75.4524 138.082 76.7099 137.126 77.5902C136.246 78.3951 135.089 78.9233 133.781 78.9233H94.4187C92.9348 78.9233 91.6017 78.2442 90.6963 77.213C89.992 76.3578 89.5393 75.2512 89.5393 74.0439V41.4224C89.5393 38.7311 91.7275 36.543 94.4187 36.543H133.806C136.497 36.543 138.66 38.7311 138.66 41.4224Z" fill="white"/>
<path d="M133.806 80.1559H94.4187C92.6329 80.1559 90.9478 79.3762 89.7657 78.0181C88.8351 76.8862 88.332 75.5029 88.332 74.0693V41.4226C88.332 38.0523 91.0736 35.3359 94.4187 35.3359H133.806C137.176 35.3359 139.893 38.0775 139.893 41.4226V74.0441C139.893 75.7544 139.214 77.3138 137.981 78.4708C136.824 79.5523 135.34 80.1559 133.806 80.1559ZM94.4187 37.7756C92.4066 37.7756 90.7717 39.4105 90.7717 41.4226V74.0441C90.7717 74.9244 91.0735 75.7293 91.6269 76.4335C92.306 77.2384 93.3372 77.7162 94.4187 77.7162H133.806C134.737 77.7162 135.617 77.3641 136.321 76.7102C137.051 76.0311 137.478 75.0753 137.478 74.0441V41.4226C137.478 39.4105 135.843 37.7756 133.831 37.7756H94.4187Z" fill="#3E3E3E"/>
<path d="M58.0744 71.9065C65.8949 71.9065 72.2347 65.5668 72.2347 57.7462C72.2347 49.9257 65.8949 43.5859 58.0744 43.5859C50.2538 43.5859 43.9141 49.9257 43.9141 57.7462C43.9141 65.5668 50.2538 71.9065 58.0744 71.9065Z" fill="white"/>
<path d="M58.0744 73.1136C49.5983 73.1136 42.6816 66.2221 42.6816 57.7209C42.6816 49.2196 49.5732 42.3281 58.0744 42.3281C66.5504 42.3281 73.4671 49.2196 73.4671 57.7209C73.4671 66.2221 66.5504 73.1136 58.0744 73.1136ZM58.0744 44.793C50.9313 44.793 45.1213 50.603 45.1213 57.746C45.1213 64.889 50.9313 70.699 58.0744 70.699C65.2174 70.699 71.0274 64.889 71.0274 57.746C71.0274 50.603 65.2174 44.793 58.0744 44.793Z" fill="#3E3E3E"/>
<path d="M62.7024 59.9842L58.3009 63.1785C56.4649 64.5115 53.8994 63.2036 53.8994 60.94V54.5515C53.8994 52.2879 56.4649 50.98 58.3009 52.313L62.7024 55.5072C64.2115 56.6139 64.2115 58.8776 62.7024 59.9842Z" fill="#F76C82"/>
<path d="M56.6915 64.94C56.0627 64.94 55.459 64.7891 54.8806 64.5125C53.5475 63.8334 52.6924 62.4752 52.6924 60.9661V54.5776C52.6924 53.0685 53.5224 51.7103 54.8806 51.0312C56.2387 50.3522 57.8233 50.4779 59.0306 51.3582L63.4321 54.5525C64.4633 55.307 65.0669 56.4891 65.0669 57.7719C65.0669 59.0546 64.4633 60.2367 63.4321 60.9912L59.0306 64.1855C58.3263 64.6634 57.4963 64.94 56.6915 64.94ZM56.6915 52.9679C56.44 52.9679 56.2136 53.0182 55.9872 53.144C55.459 53.4206 55.1321 53.9237 55.1321 54.5273V60.9158C55.1321 61.5194 55.459 62.0225 55.9872 62.2991C56.5154 62.5758 57.119 62.5255 57.5969 62.1734L61.9984 58.9791C62.4009 58.6773 62.6272 58.2246 62.6272 57.7216C62.6272 57.2185 62.4009 56.7658 61.9984 56.464L57.5969 53.2697C57.3203 53.0937 56.9933 52.9679 56.6915 52.9679Z" fill="#3E3E3E"/>
<path d="M137.126 77.5906C136.246 78.3955 135.089 78.9236 133.781 78.9236H109.484L116.2 70.1709L121.104 63.7573C122.463 61.9715 125.154 61.9715 126.512 63.7573L137.126 77.5906Z" fill="#F76C82"/>
<path d="M133.806 80.1561H109.51C109.057 80.1561 108.629 79.9046 108.428 79.477C108.227 79.0495 108.277 78.5716 108.554 78.1943L120.174 63.0531C121.054 61.8961 122.387 61.2422 123.846 61.2422C125.305 61.2422 126.638 61.8961 127.518 63.0531L138.132 76.8864C138.509 77.3895 138.459 78.0937 138.006 78.5213C136.824 79.5525 135.34 80.1561 133.806 80.1561ZM111.974 77.7164H133.806C134.359 77.7164 134.913 77.5907 135.416 77.3392L125.581 64.5119C125.154 63.9585 124.525 63.6567 123.846 63.6567C123.167 63.6567 122.513 63.9585 122.11 64.5119L111.974 77.7164Z" fill="#3E3E3E"/>
<path d="M122.915 78.9248H94.4187C92.9348 78.9248 91.6017 78.2457 90.6963 77.2145L103.448 60.5893C104.806 58.8036 107.497 58.8036 108.856 60.5893L116.225 70.172L122.915 78.9248Z" fill="#F76C82"/>
<path d="M122.915 80.159H94.4183C92.6325 80.159 90.9473 79.3793 89.7652 78.0211C89.388 77.5935 89.3628 76.9396 89.7149 76.4868L102.467 59.8617C103.347 58.7047 104.68 58.0508 106.139 58.0508C107.598 58.0508 108.931 58.7047 109.811 59.8617L123.871 78.1971C124.147 78.5744 124.198 79.0523 123.996 79.4799C123.795 79.8823 123.368 80.159 122.915 80.159ZM92.3307 77.0653C92.9343 77.4929 93.6637 77.7193 94.4183 77.7193H120.45L107.899 61.3456C107.472 60.7923 106.843 60.4905 106.164 60.4905C105.485 60.4905 104.831 60.7923 104.429 61.3456L92.3307 77.0653Z" fill="#3E3E3E"/>
<path d="M115.722 55.4838C119.028 55.4838 121.708 52.8038 121.708 49.4978C121.708 46.1918 119.028 43.5117 115.722 43.5117C112.416 43.5117 109.736 46.1918 109.736 49.4978C109.736 52.8038 112.416 55.4838 115.722 55.4838Z" fill="#FDCD56"/>
<path d="M115.722 56.7143C111.748 56.7143 108.504 53.4698 108.504 49.4958C108.504 45.5219 111.748 42.2773 115.722 42.2773C119.696 42.2773 122.941 45.5219 122.941 49.4958C122.916 53.4698 119.696 56.7143 115.722 56.7143ZM115.722 44.717C113.081 44.717 110.944 46.8549 110.944 49.4958C110.944 52.1367 113.081 54.2746 115.722 54.2746C118.363 54.2746 120.501 52.1367 120.501 49.4958C120.476 46.8549 118.338 44.717 115.722 44.717Z" fill="#3E3E3E"/>
<path d="M79.2526 89.5903H36.8723C36.1932 89.5903 35.665 89.037 35.665 88.3831C35.665 87.704 36.2184 87.1758 36.8723 87.1758H79.2526C79.9317 87.1758 80.4599 87.7291 80.4599 88.3831C80.485 89.037 79.9317 89.5903 79.2526 89.5903Z" fill="#3E3E3E"/>
<path d="M79.2526 98.9458H36.8723C36.1932 98.9458 35.665 98.3925 35.665 97.7385C35.665 97.0594 36.2184 96.5312 36.8723 96.5312H79.2526C79.9317 96.5312 80.4599 97.0846 80.4599 97.7385C80.485 98.3925 79.9317 98.9458 79.2526 98.9458Z" fill="#3E3E3E"/>
<path d="M79.2526 108.301H36.8723C36.1932 108.301 35.665 107.748 35.665 107.094C35.665 106.44 36.2184 105.887 36.8723 105.887H79.2526C79.9317 105.887 80.4599 106.44 80.4599 107.094C80.4599 107.748 79.9317 108.301 79.2526 108.301Z" fill="#3E3E3E"/>
<path d="M79.2526 117.657H36.8723C36.1932 117.657 35.665 117.103 35.665 116.449C35.665 115.77 36.2184 115.242 36.8723 115.242H79.2526C79.9317 115.242 80.4599 115.796 80.4599 116.449C80.485 117.103 79.9317 117.657 79.2526 117.657Z" fill="#3E3E3E"/>
<path d="M160.995 129.401V122.157C160.995 120.623 159.888 119.29 158.379 118.988L154.128 118.158C153.047 117.957 152.116 117.202 151.739 116.146C151.487 115.492 151.236 114.863 150.959 114.234C150.506 113.228 150.607 112.046 151.236 111.141L153.65 107.569C154.505 106.287 154.355 104.576 153.248 103.495L148.117 98.3639C147.035 97.2823 145.325 97.1063 144.042 97.9614L140.471 100.376C139.54 101.005 138.383 101.105 137.377 100.653C136.748 100.376 136.12 100.099 135.466 99.8729C134.435 99.4957 133.655 98.5651 133.454 97.4836L132.624 93.2329C132.322 91.7239 131.014 90.6172 129.455 90.6172H122.211C120.677 90.6172 119.344 91.7239 119.042 93.2329L118.212 97.4836C118.011 98.5651 117.256 99.4957 116.2 99.8729C115.546 100.124 114.917 100.376 114.288 100.653C113.282 101.105 112.1 101.005 111.195 100.376L107.623 97.9614C106.34 97.1063 104.63 97.2572 103.548 98.3639L98.4176 103.495C97.3361 104.576 97.16 106.287 98.0151 107.569L100.43 111.141C101.058 112.071 101.159 113.228 100.706 114.234C100.43 114.863 100.153 115.492 99.9267 116.146C99.5494 117.177 98.6188 117.957 97.5373 118.158L93.2867 118.988C91.7776 119.29 90.6709 120.598 90.6709 122.157V129.401C90.6709 130.935 91.7776 132.268 93.2867 132.57L97.5373 133.4C98.6188 133.601 99.5494 134.381 99.9267 135.412C100.178 136.066 100.43 136.695 100.706 137.324C101.159 138.33 101.058 139.512 100.43 140.417L98.0151 143.989C97.16 145.271 97.3109 146.982 98.4176 148.063L103.548 153.194C104.63 154.276 106.34 154.452 107.623 153.597L111.195 151.182C112.125 150.553 113.282 150.453 114.288 150.905C114.917 151.182 115.546 151.459 116.2 151.685C117.231 152.062 118.011 152.993 118.212 154.074L119.042 158.325C119.344 159.834 120.652 160.941 122.211 160.941H129.455C130.989 160.941 132.322 159.834 132.624 158.325L133.454 154.074C133.655 152.993 134.435 152.062 135.466 151.685C136.12 151.434 136.748 151.182 137.377 150.905C138.383 150.453 139.565 150.553 140.471 151.182L144.042 153.597C145.325 154.452 147.035 154.301 148.117 153.194L153.248 148.063C154.329 146.982 154.505 145.271 153.65 143.989L151.236 140.417C150.607 139.487 150.506 138.33 150.959 137.324C151.236 136.695 151.512 136.066 151.739 135.412C152.116 134.381 153.047 133.601 154.128 133.4L158.379 132.57C159.913 132.268 160.995 130.935 160.995 129.401Z" fill="#F76C82"/>
<path d="M129.48 162.15H122.236C120.124 162.15 118.288 160.641 117.885 158.553L117.055 154.303C116.929 153.624 116.451 153.07 115.823 152.819C115.144 152.567 114.464 152.291 113.811 151.989C113.207 151.712 112.478 151.762 111.899 152.165L108.328 154.579C106.567 155.762 104.203 155.535 102.694 154.051L97.5627 148.92C96.0536 147.411 95.8272 145.047 97.0345 143.286L99.449 139.715C99.8263 139.136 99.9017 138.407 99.6251 137.803C99.3233 137.149 99.0466 136.47 98.7951 135.791C98.5687 135.162 97.9902 134.685 97.3111 134.559L93.0605 133.754C90.973 133.352 89.4639 131.516 89.4639 129.403V122.159C89.4639 120.046 90.973 118.21 93.0605 117.808L97.3111 116.978C97.9902 116.852 98.5436 116.374 98.7951 115.746C99.0466 115.066 99.3233 114.387 99.6251 113.733C99.9017 113.13 99.8263 112.4 99.449 111.822L97.0345 108.25C95.8524 106.49 96.0787 104.126 97.5627 102.616L102.694 97.4855C104.203 95.9764 106.567 95.75 108.328 96.9573L111.899 99.3719C112.478 99.7491 113.207 99.8246 113.811 99.5479C114.464 99.2461 115.144 98.9694 115.823 98.7179C116.451 98.4916 116.929 97.9131 117.055 97.234L117.885 92.9834C118.288 90.8958 120.124 89.3867 122.236 89.3867H129.48C131.593 89.3867 133.429 90.8958 133.831 92.9834L134.661 97.234C134.787 97.9131 135.265 98.4664 135.894 98.7179C136.573 98.9694 137.252 99.2461 137.906 99.5479C138.509 99.8246 139.239 99.7743 139.817 99.3719L143.389 96.9573C145.149 95.7752 147.514 96.0016 149.023 97.4855L154.154 102.616C155.663 104.126 155.889 106.49 154.682 108.25L152.267 111.822C151.89 112.4 151.814 113.13 152.091 113.733C152.393 114.387 152.67 115.066 152.921 115.746C153.148 116.374 153.726 116.852 154.405 116.978L158.656 117.808C160.743 118.21 162.252 120.046 162.252 122.159V129.403C162.252 131.516 160.743 133.352 158.656 133.754L154.405 134.584C153.726 134.71 153.173 135.188 152.921 135.816C152.67 136.496 152.393 137.175 152.091 137.829C151.814 138.432 151.89 139.162 152.267 139.74L154.682 143.312C155.864 145.072 155.638 147.436 154.154 148.946L149.023 154.076C147.514 155.586 145.149 155.812 143.389 154.605L139.817 152.19C139.239 151.813 138.509 151.737 137.906 152.014C137.252 152.316 136.573 152.592 135.894 152.844C135.265 153.07 134.787 153.649 134.661 154.328L133.831 158.579C133.429 160.641 131.593 162.15 129.48 162.15ZM113.006 149.398C113.634 149.398 114.238 149.524 114.817 149.801C115.42 150.077 116.024 150.329 116.653 150.555C118.086 151.083 119.143 152.341 119.444 153.85L120.274 158.101C120.451 159.031 121.281 159.735 122.236 159.735H129.48C130.436 159.735 131.266 159.056 131.442 158.101L132.272 153.85C132.574 152.341 133.63 151.083 135.064 150.555C135.692 150.329 136.296 150.077 136.9 149.801C138.283 149.172 139.918 149.298 141.201 150.178L144.772 152.592C145.577 153.121 146.633 153.02 147.312 152.341L152.443 147.21C153.122 146.531 153.223 145.475 152.695 144.67L150.28 141.098C149.425 139.815 149.274 138.181 149.903 136.797C150.18 136.194 150.431 135.59 150.658 134.961C151.186 133.528 152.443 132.471 153.952 132.169L158.203 131.339C159.134 131.163 159.838 130.333 159.838 129.378V122.134C159.838 121.178 159.159 120.348 158.228 120.172L153.978 119.342C152.468 119.04 151.211 117.984 150.683 116.55C150.456 115.922 150.205 115.318 149.928 114.714C149.299 113.331 149.45 111.696 150.305 110.413L152.72 106.842C153.248 106.037 153.148 104.981 152.468 104.302L147.338 99.1707C146.658 98.4916 145.602 98.391 144.797 98.9191L141.226 101.334C139.968 102.189 138.308 102.34 136.925 101.711C136.321 101.434 135.718 101.183 135.089 100.956C133.655 100.428 132.599 99.1707 132.297 97.6616L131.467 93.411C131.291 92.4804 130.461 91.7761 129.505 91.7761H122.261C121.306 91.7761 120.476 92.4552 120.3 93.411L119.47 97.6616C119.168 99.1707 118.111 100.428 116.678 100.956C116.049 101.183 115.445 101.434 114.842 101.711C113.458 102.34 111.824 102.214 110.541 101.334L106.969 98.9191C106.19 98.391 105.108 98.4916 104.429 99.1707L99.2981 104.302C98.619 104.981 98.5184 106.037 99.0466 106.842L101.461 110.413C102.316 111.671 102.467 113.331 101.838 114.714C101.562 115.318 101.31 115.922 101.084 116.55C100.556 117.984 99.2981 119.04 97.789 119.342L93.5384 120.172C92.6078 120.348 91.9287 121.178 91.9287 122.134V129.378C91.9287 130.333 92.6078 131.163 93.5384 131.339L97.789 132.169C99.2981 132.471 100.556 133.528 101.084 134.961C101.31 135.59 101.562 136.194 101.838 136.797C102.467 138.181 102.316 139.815 101.461 141.098L99.0466 144.67C98.5184 145.475 98.619 146.531 99.2981 147.21L104.429 152.341C105.108 153.02 106.164 153.121 106.969 152.592L110.541 150.178C111.27 149.675 112.151 149.398 113.006 149.398Z" fill="#000102"/>
<path d="M125.833 144.419C115.571 144.419 107.195 136.069 107.195 125.782C107.195 115.52 115.546 107.145 125.833 107.145C136.12 107.145 144.47 115.495 144.47 125.782C144.47 136.069 136.12 144.419 125.833 144.419Z" fill="#F4F6F8"/>
<path d="M144.495 125.782C144.495 136.069 136.145 144.395 125.858 144.395C115.596 144.395 107.221 136.044 107.221 125.782C107.221 125.053 107.271 124.349 107.346 123.645C108.403 132.925 116.3 140.119 125.858 140.119C135.416 140.119 143.313 132.9 144.369 123.645C144.445 124.349 144.495 125.053 144.495 125.782Z" fill="#D7DADF"/>
<path d="M125.833 145.627C114.892 145.627 105.988 136.723 105.988 125.782C105.988 114.841 114.892 105.938 125.833 105.938C136.774 105.938 145.677 114.841 145.677 125.782C145.677 136.723 136.799 145.627 125.833 145.627ZM125.833 108.377C116.225 108.377 108.428 116.199 108.428 125.782C108.428 135.39 116.25 143.187 125.833 143.187C135.441 143.187 143.238 135.365 143.238 125.782C143.263 116.174 135.441 108.377 125.833 108.377Z" fill="#000102"/>
</svg>
