<svg width="86" height="88" viewBox="0 0 86 88" fill="none" xmlns="http://www.w3.org/2000/svg">
<path d="M85.3012 36.6898C80.8351 15.3866 36.4201 32.9065 45.025 16.6081C48.4568 10.1079 47.6143 2.48561 39.9806 0.553555C9.69415 -7.11191 -22.023 67.5323 20.9016 57.8178C30.0071 55.757 35.3947 47.5553 38.0687 52.7213C43.386 62.994 29.0222 74.797 34.6857 84.1008C45.6883 102.176 88.5999 52.4236 85.3012 36.6898Z" fill="url(#paint0_linear_168_1297)"/>
<path d="M10.3828 86.3789C9.90827 86.3789 9.52344 85.9943 9.52344 85.5195C9.52344 84.9984 9.09942 84.5742 8.57813 84.5742C8.10358 84.5742 7.71875 84.1896 7.71875 83.7148C7.71875 83.2401 8.10358 82.8555 8.57813 82.8555C9.09942 82.8555 9.52344 82.4313 9.52344 81.9102C9.52344 81.4354 9.90827 81.0508 10.3828 81.0508C10.8574 81.0508 11.2422 81.4354 11.2422 81.9102C11.2422 82.4313 11.6662 82.8555 12.1875 82.8555C12.6621 82.8555 13.0469 83.2401 13.0469 83.7148C13.0469 84.1896 12.6621 84.5742 12.1875 84.5742C11.6662 84.5742 11.2422 84.9984 11.2422 85.5195C11.2422 85.9943 10.8574 86.3789 10.3828 86.3789Z" fill="#0A488A"/>
<path d="M2.66407 44.5117C2.18952 44.5117 1.80469 44.1271 1.80469 43.6524C1.80469 43.1312 1.38067 42.707 0.859376 42.707C0.384829 42.707 0 42.3224 0 41.8477C0 41.3729 0.384829 40.9883 0.859376 40.9883C1.38067 40.9883 1.80469 40.5641 1.80469 40.043C1.80469 39.5683 2.18952 39.1836 2.66407 39.1836C3.13861 39.1836 3.52344 39.5683 3.52344 40.043C3.52344 40.5641 3.94746 40.9883 4.46876 40.9883C4.94331 40.9883 5.32813 41.3729 5.32813 41.8477C5.32813 42.3224 4.94331 42.707 4.46876 42.707C3.94746 42.707 3.52344 43.1312 3.52344 43.6524C3.52344 44.1271 3.13861 44.5117 2.66407 44.5117Z" fill="#0A488A"/>
<path d="M20.4454 82.5664C20.2254 82.5664 20.0056 82.4825 19.8377 82.3146L18.033 80.5099C17.6973 80.1744 17.6973 79.6302 18.033 79.2947L19.8377 77.49C20.1734 77.1544 20.7174 77.1544 21.053 77.49L22.8577 79.2947C23.1934 79.6302 23.1934 80.1744 22.8577 80.5099L21.053 82.3146C20.8853 82.4825 20.6654 82.5664 20.4454 82.5664ZM19.8561 79.9023L20.4454 80.4917L21.0348 79.9023L20.4454 79.3129L19.8561 79.9023Z" fill="#0A488A"/>
<path d="M29.3828 72.3789C28.9083 72.3789 28.5234 71.9943 28.5234 71.5195C28.5234 70.9984 28.0994 70.5742 27.5781 70.5742C27.1036 70.5742 26.7188 70.1896 26.7188 69.7148C26.7188 69.2401 27.1036 68.8555 27.5781 68.8555C28.0994 68.8555 28.5234 68.4313 28.5234 67.9102C28.5234 67.4354 28.9083 67.0508 29.3828 67.0508C29.8574 67.0508 30.2422 67.4354 30.2422 67.9102C30.2422 68.4313 30.6662 68.8555 31.1875 68.8555C31.6621 68.8555 32.0469 69.2401 32.0469 69.7148C32.0469 70.1896 31.6621 70.5742 31.1875 70.5742C30.6662 70.5742 30.2422 70.9984 30.2422 71.5195C30.2422 71.9943 29.8574 72.3789 29.3828 72.3789Z" fill="#0A488A"/>
<path d="M39.4454 68.5664C39.2254 68.5664 39.0056 68.4825 38.8377 68.3146L37.033 66.5099C36.6973 66.1744 36.6973 65.6302 37.033 65.2947L38.8377 63.49C39.1734 63.1544 39.7174 63.1544 40.053 63.49L41.8577 65.2947C42.1934 65.6302 42.1934 66.1744 41.8577 66.5099L40.053 68.3146C39.8853 68.4825 39.6654 68.5664 39.4454 68.5664ZM38.8561 65.9023L39.4454 66.4917L40.0348 65.9023L39.4454 65.3129L38.8561 65.9023Z" fill="#0A488A"/>
<g clip-path="url(#clip0_168_1297)">
<path d="M19.1406 28.6719H67.8575V63.6257H19.1406V28.6719Z" fill="white"/>
<path d="M62.6181 72.1451H24.3873C19.6904 72.1451 15.9766 68.3221 15.9766 63.7344H71.1381C71.1381 68.4313 67.315 72.1451 62.6181 72.1451Z" fill="white"/>
<path d="M43.498 60.3491C31.3734 57.6183 30.2811 41.8891 30.1719 36.8644L43.498 34.7891L56.8242 36.8644C56.715 41.8891 55.6226 57.6183 43.498 60.3491Z" fill="white"/>
<path d="M43.5 39.2656V55.7595C49.7262 53.6841 51.6923 45.8195 52.2385 40.5764L43.5 39.2656Z" fill="#1276DF"/>
<path d="M34.4375 66.793H36.6221V68.9776H34.4375V66.793Z" fill="#0A488A"/>
<path d="M42.4062 66.793H44.5909V68.9776H42.4062V66.793Z" fill="#0A488A"/>
<path d="M50.3828 66.793H52.5674V68.9776H50.3828V66.793Z" fill="#0A488A"/>
<path d="M68.952 27.5781H18.0505V62.532H14.8828V63.6243C14.8828 68.8674 19.1428 73.1274 24.3859 73.1274H62.6167C67.8597 73.1274 72.1197 68.8674 72.1197 63.6243V62.532H68.952V27.5781ZM20.2351 29.7627H66.7674V62.532H20.2351V29.7627ZM69.9351 64.8258C69.389 68.3212 66.3305 71.052 62.6167 71.052H24.3859C20.672 71.052 17.6136 68.3212 17.0674 64.8258H69.9351Z" fill="#0A488A"/>
<path d="M29.0859 35.9893V36.9724C29.1952 41.997 30.3967 58.6001 43.2859 61.4401H43.5044H43.7229C56.6121 58.6001 57.8136 41.997 57.9229 36.9724V35.9893L43.5044 33.8047L29.0859 35.9893ZM43.5044 59.2555C33.0182 56.7431 31.489 43.3078 31.2706 37.8462L43.5044 35.9893L55.7382 37.8462C55.5198 43.3078 53.8813 56.7431 43.5044 59.2555Z" fill="#0A488A"/>
<path d="M48.3076 17.0926L46.7784 15.5634L44.5938 17.748V4.42188H42.4092V17.748L40.2245 15.5634L38.6953 17.0926L43.5015 21.8988L48.3076 17.0926Z" fill="#0A488A"/>
<path d="M70.5915 20.4779L70.2638 18.2933L67.4238 18.7302L78.2376 5.07639L76.4899 3.76562L65.5669 17.5287L65.0207 14.4702L62.9453 14.7979L63.9284 21.461L70.5915 20.4779Z" fill="#0A488A"/>
<path d="M16.7395 18.2933L16.4118 20.4779L23.0749 21.461L24.0579 14.7979L21.9825 14.4702L21.4364 17.5287L10.5133 3.76562L8.76562 5.07639L19.5795 18.7302L16.7395 18.2933Z" fill="#0A488A"/>
</g>
<defs>
<linearGradient id="paint0_linear_168_1297" x1="3.85217e-05" y1="44" x2="85.4815" y2="44" gradientUnits="userSpaceOnUse">
<stop stop-color="#D1DDFF" stop-opacity="0"/>
<stop offset="1" stop-color="#248EFF" stop-opacity="0.26"/>
</linearGradient>
<clipPath id="clip0_168_1297">
<rect width="71" height="71" fill="white" transform="translate(8 3)"/>
</clipPath>
</defs>
</svg>
