<svg width="25" height="27" viewBox="0 0 25 27" fill="none" xmlns="http://www.w3.org/2000/svg">
<path d="M19.7791 27H4.7093C3.46083 26.9983 2.26396 26.5016 1.38116 25.6188C0.498352 24.736 0.00166131 23.5392 0 22.2907V4.7093C0.00166131 3.46083 0.498352 2.26396 1.38116 1.38116C2.26396 0.498352 3.46083 0.00166131 4.7093 0H19.7791C21.0275 0.00166131 22.2244 0.498352 23.1072 1.38116C23.99 2.26396 24.4867 3.46083 24.4884 4.7093V22.2907C24.4867 23.5392 23.99 24.736 23.1072 25.6188C22.2244 26.5016 21.0275 26.9983 19.7791 27ZM4.7093 1.88372C3.96022 1.88472 3.2421 2.18273 2.71242 2.71242C2.18273 3.2421 1.88472 3.96022 1.88372 4.7093V22.2907C1.88472 23.0398 2.18273 23.7579 2.71242 24.2876C3.2421 24.8173 3.96022 25.1153 4.7093 25.1163H19.7791C20.5282 25.1153 21.2463 24.8173 21.776 24.2876C22.3056 23.7579 22.6037 23.0398 22.6046 22.2907V4.7093C22.6037 3.96022 22.3056 3.2421 21.776 2.71242C21.2463 2.18273 20.5282 1.88472 19.7791 1.88372H4.7093Z" fill="#1276DF"/>
<path d="M9.10383 12.5581H6.59221C6.00955 12.5574 5.45095 12.3257 5.03895 11.9137C4.62695 11.5017 4.3952 10.9431 4.39453 10.3604V7.8488C4.3952 7.26614 4.62695 6.70754 5.03895 6.29554C5.45095 5.88354 6.00955 5.65179 6.59221 5.65112H9.10383C9.68649 5.65179 10.2451 5.88354 10.6571 6.29554C11.0691 6.70754 11.3008 7.26614 11.3015 7.8488V10.3604C11.3008 10.9431 11.0691 11.5017 10.6571 11.9137C10.2451 12.3257 9.68649 12.5574 9.10383 12.5581ZM6.59221 7.53484C6.50894 7.53484 6.42908 7.56792 6.37021 7.6268C6.31133 7.68568 6.27825 7.76553 6.27825 7.8488V10.3604C6.27825 10.4437 6.31133 10.5235 6.37021 10.5824C6.42908 10.6413 6.50894 10.6744 6.59221 10.6744H9.10383C9.1871 10.6744 9.26695 10.6413 9.32583 10.5824C9.38471 10.5235 9.41779 10.4437 9.41779 10.3604V7.8488C9.41779 7.76553 9.38471 7.68568 9.32583 7.6268C9.26695 7.56792 9.1871 7.53484 9.10383 7.53484H6.59221Z" fill="#1276DF"/>
<path d="M19.7795 8.16277H13.5005C13.2507 8.16277 13.0111 8.06354 12.8345 7.88691C12.6578 7.71028 12.5586 7.47071 12.5586 7.22091C12.5586 6.97112 12.6578 6.73155 12.8345 6.55492C13.0111 6.37828 13.2507 6.27905 13.5005 6.27905H19.7795C20.0293 6.27905 20.2689 6.37828 20.4455 6.55492C20.6222 6.73155 20.7214 6.97112 20.7214 7.22091C20.7214 7.47071 20.6222 7.71028 20.4455 7.88691C20.2689 8.06354 20.0293 8.16277 19.7795 8.16277Z" fill="#1276DF"/>
<path d="M17.2679 11.9301H13.5005C13.2507 11.9301 13.0111 11.8309 12.8345 11.6542C12.6578 11.4776 12.5586 11.238 12.5586 10.9882C12.5586 10.7385 12.6578 10.4989 12.8345 10.3223C13.0111 10.1456 13.2507 10.0464 13.5005 10.0464H17.2679C17.5177 10.0464 17.7573 10.1456 17.9339 10.3223C18.1105 10.4989 18.2098 10.7385 18.2098 10.9882C18.2098 11.238 18.1105 11.4776 17.9339 11.6542C17.7573 11.8309 17.5177 11.9301 17.2679 11.9301Z" fill="#1276DF"/>
<path d="M9.10383 21.3489H6.59221C6.00955 21.3482 5.45095 21.1165 5.03895 20.7045C4.62695 20.2925 4.3952 19.7339 4.39453 19.1512V16.6396C4.3952 16.0569 4.62695 15.4983 5.03895 15.0863C5.45095 14.6743 6.00955 14.4426 6.59221 14.4419H9.10383C9.68649 14.4426 10.2451 14.6743 10.6571 15.0863C11.0691 15.4983 11.3008 16.0569 11.3015 16.6396V19.1512C11.3008 19.7339 11.0691 20.2925 10.6571 20.7045C10.2451 21.1165 9.68649 21.3482 9.10383 21.3489ZM6.59221 16.3256C6.50894 16.3256 6.42908 16.3587 6.37021 16.4176C6.31133 16.4764 6.27825 16.5563 6.27825 16.6396V19.1512C6.27825 19.2345 6.31133 19.3143 6.37021 19.3732C6.42908 19.4321 6.50894 19.4652 6.59221 19.4652H9.10383C9.1871 19.4652 9.26695 19.4321 9.32583 19.3732C9.38471 19.3143 9.41779 19.2345 9.41779 19.1512V16.6396C9.41779 16.5563 9.38471 16.4764 9.32583 16.4176C9.26695 16.3587 9.1871 16.3256 9.10383 16.3256H6.59221Z" fill="#1276DF"/>
<path d="M19.7795 16.9535H13.5005C13.2507 16.9535 13.0111 16.8543 12.8345 16.6777C12.6578 16.501 12.5586 16.2615 12.5586 16.0117C12.5586 15.7619 12.6578 15.5223 12.8345 15.3457C13.0111 15.1691 13.2507 15.0698 13.5005 15.0698H19.7795C20.0293 15.0698 20.2689 15.1691 20.4455 15.3457C20.6222 15.5223 20.7214 15.7619 20.7214 16.0117C20.7214 16.2615 20.6222 16.501 20.4455 16.6777C20.2689 16.8543 20.0293 16.9535 19.7795 16.9535Z" fill="#1276DF"/>
<path d="M17.2679 20.7209H13.5005C13.2507 20.7209 13.0111 20.6216 12.8345 20.445C12.6578 20.2684 12.5586 20.0288 12.5586 19.779C12.5586 19.5292 12.6578 19.2897 12.8345 19.113C13.0111 18.9364 13.2507 18.8372 13.5005 18.8372H17.2679C17.5177 18.8372 17.7573 18.9364 17.9339 19.113C18.1105 19.2897 18.2098 19.5292 18.2098 19.779C18.2098 20.0288 18.1105 20.2684 17.9339 20.445C17.7573 20.6216 17.5177 20.7209 17.2679 20.7209Z" fill="#1276DF"/>
</svg>
