<svg width="30" height="30" viewBox="0 0 30 30" fill="none" xmlns="http://www.w3.org/2000/svg">
<path d="M22.3542 9.45833H4.22917C1.89708 9.45833 0 7.56125 0 5.22917C0 2.89708 1.89708 1 4.22917 1H22.3542C24.6863 1 26.5833 2.89708 26.5833 5.22917C26.5833 7.56125 24.6863 9.45833 22.3542 9.45833ZM4.22917 2.8125C2.89637 2.8125 1.8125 3.89637 1.8125 5.22917C1.8125 6.56196 2.89637 7.64583 4.22917 7.64583H22.3542C23.687 7.64583 24.7708 6.56196 24.7708 5.22917C24.7708 3.89637 23.687 2.8125 22.3542 2.8125H4.22917Z" fill="#1276DF"/>
<path d="M6.04036 6.43229C6.70771 6.43229 7.2487 5.8913 7.2487 5.22396C7.2487 4.55661 6.70771 4.01562 6.04036 4.01562C5.37302 4.01562 4.83203 4.55661 4.83203 5.22396C4.83203 5.8913 5.37302 6.43229 6.04036 6.43229Z" fill="#1276DF"/>
<path d="M10.8763 6.43229C11.5436 6.43229 12.0846 5.8913 12.0846 5.22396C12.0846 4.55661 11.5436 4.01562 10.8763 4.01562C10.209 4.01562 9.66797 4.55661 9.66797 5.22396C9.66797 5.8913 10.209 6.43229 10.8763 6.43229Z" fill="#1276DF"/>
<path d="M11.9263 16.099H4.22917C1.89708 16.099 0 14.2019 0 11.8698C0 10.7472 0.455542 9.65733 1.24942 8.87796C2.01671 8.09617 3.10663 7.64062 4.22917 7.64062H22.3542C24.267 7.64062 25.9441 8.92629 26.4323 10.7678C26.5604 11.2511 26.2728 11.7477 25.7895 11.8758C25.3073 12.01 24.8095 11.7163 24.6814 11.233C24.4023 10.1842 23.4453 9.45312 22.3542 9.45312H4.22917C3.5815 9.45312 2.97854 9.70446 2.53146 10.16C2.06383 10.6192 1.8125 11.2221 1.8125 11.8698C1.8125 13.2026 2.89637 14.2865 4.22917 14.2865H11.9263C12.4265 14.2865 12.8325 14.6925 12.8325 15.1927C12.8325 15.693 12.4265 16.099 11.9263 16.099Z" fill="#1276DF"/>
<path d="M6.04036 13.0807C6.70771 13.0807 7.2487 12.5397 7.2487 11.8724C7.2487 11.2051 6.70771 10.6641 6.04036 10.6641C5.37302 10.6641 4.83203 11.2051 4.83203 11.8724C4.83203 12.5397 5.37302 13.0807 6.04036 13.0807Z" fill="#1276DF"/>
<path d="M10.8763 13.0807C11.5436 13.0807 12.0846 12.5397 12.0846 11.8724C12.0846 11.2051 11.5436 10.6641 10.8763 10.6641C10.209 10.6641 9.66797 11.2051 9.66797 11.8724C9.66797 12.5397 10.209 13.0807 10.8763 13.0807Z" fill="#1276DF"/>
<path d="M9.96875 22.7474H4.22917C1.89708 22.7474 0 20.8503 0 18.5182C0 17.3957 0.455542 16.3058 1.24942 15.5264C2.01671 14.7446 3.10663 14.2891 4.22917 14.2891C4.72942 14.2891 5.13542 14.6951 5.13542 15.1953C5.13542 15.6956 4.72942 16.1016 4.22917 16.1016C3.5815 16.1016 2.97854 16.3529 2.53146 16.8084C2.06383 17.2676 1.8125 17.8706 1.8125 18.5182C1.8125 19.851 2.89637 20.9349 4.22917 20.9349H9.96875C10.469 20.9349 10.875 21.3409 10.875 21.8411C10.875 22.3414 10.469 22.7474 9.96875 22.7474Z" fill="#1276DF"/>
<path d="M6.04036 19.7292C6.70771 19.7292 7.2487 19.1882 7.2487 18.5208C7.2487 17.8535 6.70771 17.3125 6.04036 17.3125C5.37302 17.3125 4.83203 17.8535 4.83203 18.5208C4.83203 19.1882 5.37302 19.7292 6.04036 19.7292Z" fill="#1276DF"/>
<path d="M25 12.9004C25.8488 12.9006 26.5536 13.5347 26.5537 14.333V20.8984H27.5439C28.1858 20.8986 28.7572 21.2541 28.9932 21.8125C29.2297 22.3726 29.0666 22.9953 28.5869 23.3955L28.5859 23.3965L22.0352 28.7324L22.0361 28.7334C21.7418 28.9781 21.3717 29.0995 21.002 29.0996C20.6768 29.0996 20.3501 29.0056 20.0732 28.8154L19.958 28.7285L13.4209 23.4014L13.4199 23.4004C12.9341 22.9953 12.7701 22.373 13.0068 21.8125C13.2425 21.2539 13.8141 20.8984 14.4561 20.8984H15.4453V14.333C15.4454 13.5346 16.151 12.9004 17 12.9004H25ZM17.0996 20.999C17.0995 21.7974 16.3939 22.4316 15.5449 22.4316H14.7363L20.9932 27.5303L27.2656 22.4277L26.4541 22.4316C25.6051 22.4316 24.8995 21.7974 24.8994 20.999V14.4336H17.0996V20.999Z" fill="#1276DF" stroke="#1276DF" stroke-width="0.2"/>
<path d="M21.5714 23.4667V23.1214C22.3966 22.8911 23 22.1771 23 21.3333C23 20.304 22.1025 19.4667 21 19.4667C20.5275 19.4667 20.1429 19.1077 20.1429 18.6667C20.1429 18.2257 20.5275 17.8667 21 17.8667C21.4725 17.8667 21.8571 18.2257 21.8571 18.6667C21.8571 18.9611 22.1131 19.2 22.4286 19.2C22.744 19.2 23 18.9611 23 18.6667C23 17.8227 22.3966 17.1089 21.5714 16.8786V16.5333C21.5714 16.2389 21.3154 16 21 16C20.6846 16 20.4286 16.2389 20.4286 16.5333V16.8786C19.6037 17.1089 19 17.8229 19 18.6667C19 19.696 19.8975 20.5333 21 20.5333C21.4725 20.5333 21.8571 20.8923 21.8571 21.3333C21.8571 21.7743 21.4725 22.1333 21 22.1333C20.5275 22.1333 20.1429 21.7743 20.1429 21.3333C20.1429 21.0389 19.8869 20.8 19.5714 20.8C19.256 20.8 19 21.0389 19 21.3333C19 22.1773 19.6037 22.8911 20.4286 23.1214V23.4667C20.4286 23.7611 20.6846 24 21 24C21.3154 24 21.5714 23.7611 21.5714 23.4667Z" fill="#1276DF"/>
</svg>
