<svg width="30" height="29" viewBox="0 0 30 29" fill="none" xmlns="http://www.w3.org/2000/svg">
<path d="M26.2319 7.84566C25.7826 5.0389 23.3333 2.88915 20.4058 2.88915C19.8406 2.88915 19.2705 2.97127 18.7294 3.13069C16.9468 0.836006 13.8695 -0.362061 10.7488 0.0968763C6.53139 0.715233 3.45892 4.14035 3.47342 7.97127C0.960857 9.09977 -0.536244 11.894 0.178732 14.8123C0.752162 17.1544 2.75506 18.8268 5.0966 19.1795V16.7191C3.75602 16.3761 2.67293 15.3003 2.45699 13.8925C2.17873 12.078 3.31883 10.4114 5.03863 9.9761C5.63767 9.82634 6.02414 9.2418 5.93718 8.6331C5.51689 5.72006 7.8309 2.96644 11.1014 2.48335C11.4299 2.43504 11.7584 2.41572 12.0773 2.41572C14.2415 2.41572 16.2319 3.46886 17.2222 5.20315C17.541 5.76837 18.2464 5.9761 18.8212 5.68141C19.314 5.43021 19.8454 5.3046 20.4058 5.3046C22.3188 5.3046 23.884 6.86016 23.8937 8.76837C23.8937 9.36595 24.3367 9.87706 24.9367 9.95919C25.6483 10.0568 26.328 10.3529 26.7483 10.9355C28.5739 13.4684 27.1579 16.1954 24.9034 16.7336V19.1621C27.7251 18.6891 30.0092 16.251 30 13.3283C29.9922 10.8486 28.4821 8.70798 26.2319 7.84566Z" fill="#FFFFFF"/>
<path d="M19.5095 11.8701H10.4916C8.58244 11.8701 7.0293 13.4233 7.0293 15.332V25.4092C7.0293 27.3184 8.58244 28.8716 10.4916 28.8716H19.5095C21.4182 28.8716 22.9713 27.3184 22.9713 25.4092V15.332C22.9713 13.4233 21.4182 11.8701 19.5095 11.8701ZM10.4916 14.2856H19.5095C20.0863 14.2856 20.5559 14.7551 20.5559 15.332V19.1358H9.44475V15.332C9.44475 14.7551 9.91432 14.2856 10.4916 14.2856ZM19.5095 26.4566H10.4916C9.91432 26.4566 9.44475 25.987 9.44475 25.4097V21.5518H20.5559V25.4097C20.5559 25.987 20.0863 26.4566 19.5095 26.4566Z" fill="#FFFFFF"/>
<path d="M14.3544 22.791H12.1452C11.4781 22.791 10.9375 23.3316 10.9375 23.9987C10.9375 24.6659 11.4781 25.2065 12.1452 25.2065H14.3544C15.0216 25.2065 15.5621 24.6659 15.5621 23.9987C15.5621 23.3316 15.0216 22.791 14.3544 22.791Z" fill="#FFFFFF"/>
<path d="M17.8739 25.1606C18.5313 25.1606 19.0643 24.64 19.0643 23.9978C19.0643 23.3556 18.5313 22.835 17.8739 22.835C17.2165 22.835 16.6836 23.3556 16.6836 23.9978C16.6836 24.64 17.2165 25.1606 17.8739 25.1606Z" fill="#FFFFFF"/>
<path d="M14.3544 15.4788H12.1452C11.4781 15.4788 10.9375 16.0193 10.9375 16.6865C10.9375 17.3536 11.4781 17.8942 12.1452 17.8942H14.3544C15.0216 17.8942 15.5621 17.3536 15.5621 16.6865C15.5621 16.0193 15.0216 15.4788 14.3544 15.4788Z" fill="#FFFFFF"/>
<path d="M17.8739 17.8483C18.5313 17.8483 19.0643 17.3277 19.0643 16.6855C19.0643 16.0433 18.5313 15.5227 17.8739 15.5227C17.2165 15.5227 16.6836 16.0433 16.6836 16.6855C16.6836 17.3277 17.2165 17.8483 17.8739 17.8483Z" fill="#FFFFFF"/>
</svg>
