<svg width="27" height="26" viewBox="0 0 27 26" fill="none" xmlns="http://www.w3.org/2000/svg">
<path d="M13.8466 17.875C13.1884 17.2413 12.1169 17.2413 11.4587 17.875L10.9609 18.3544L7.93187 15.4375L8.42969 14.9582C9.08781 14.3244 9.08781 13.2925 8.42969 12.6588L6.24437 10.5544C5.58625 9.92066 4.51469 9.92066 3.85656 10.5544L2.91156 11.4644C2.11844 12.2282 1.67969 13.2519 1.67969 14.3407V14.9013C1.67969 15.9819 2.11844 17.0057 2.91156 17.7775L8.53094 23.1888C9.32406 23.9525 10.3872 24.375 11.5178 24.375H12.1C13.2306 24.375 14.2853 23.9525 15.0869 23.1888L16.0319 22.2788C16.69 21.645 16.69 20.6132 16.0319 19.9794L13.8466 17.875ZM13.8887 22.035C13.4078 22.4982 12.775 22.75 12.1 22.75H11.5178C10.8428 22.75 10.2016 22.4982 9.72906 22.035L4.10969 16.6238C3.63719 16.1688 3.36719 15.5432 3.36719 14.9013V14.3407C3.36719 13.6988 3.63719 13.0732 4.10969 12.6182L5.05469 11.7082L7.24 13.8125L6.15156 14.8607C5.8225 15.1775 5.8225 15.6894 6.15156 16.0063L10.3703 20.0688C10.6994 20.3857 11.2309 20.3857 11.56 20.0688L12.6484 19.0207L14.8337 21.125L13.8887 22.035Z" fill="#1276DF"/>
<path d="M23.625 1.625H3.375C2.44688 1.625 1.6875 2.35625 1.6875 3.25V8.78313C1.6875 9.23 2.06719 9.59563 2.53125 9.59563C2.99531 9.59563 3.375 9.23 3.375 8.78313V6.06938L9.07875 9.60375L8.68219 9.98563C8.35313 10.3025 8.35313 10.8144 8.68219 11.1312C8.85094 11.2937 9.06188 11.3669 9.28125 11.3669C9.50063 11.3669 9.71156 11.2856 9.88031 11.1312L10.5384 10.4975L13.0444 12.0494C13.1878 12.1388 13.3397 12.1794 13.5 12.1794C13.6603 12.1794 13.8206 12.1388 13.9556 12.0494L16.4616 10.4975L22.4269 16.2419H16.0228C15.5588 16.2419 15.1791 16.6075 15.1791 17.0544C15.1791 17.5013 15.5588 17.8669 16.0228 17.8669H23.6166C24.5447 17.8669 25.3041 17.1356 25.3041 16.2419V3.25C25.3041 2.35625 24.5447 1.625 23.6166 1.625H23.625ZM13.5 10.4081L3.375 4.13563V3.25H23.625V4.13563L13.5 10.4081ZM23.625 6.06938V15.0962L17.9213 9.60375L23.625 6.06938Z" fill="#1276DF"/>
</svg>
