<svg width="28" height="27" viewBox="0 0 28 27" fill="none" xmlns="http://www.w3.org/2000/svg">
<path d="M26.8333 11.3333L26.2206 6.43098C25.9802 4.50819 25.8601 3.54677 25.4075 2.82228C25.0089 2.18397 24.4329 1.67555 23.7501 1.35913C22.9751 1 22.0062 1 20.0684 1H7.76491C5.82714 1 4.85826 1 4.08323 1.35913C3.40041 1.67555 2.82448 2.18397 2.42582 2.82228C1.97332 3.54677 1.85315 4.50818 1.61279 6.43098L1 11.3333M5.52083 16.5H22.3125M5.52083 16.5C3.02404 16.5 1 14.476 1 11.9792C1 9.48237 3.02404 7.45833 5.52083 7.45833H22.3125C24.8093 7.45833 26.8333 9.48237 26.8333 11.9792C26.8333 14.476 24.8093 16.5 22.3125 16.5M5.52083 16.5C3.02404 16.5 1 18.524 1 21.0208C1 23.5176 3.02404 25.5417 5.52083 25.5417H22.3125C24.8093 25.5417 26.8333 23.5176 26.8333 21.0208C26.8333 18.524 24.8093 16.5 22.3125 16.5M6.16667 11.9792H6.17958M6.16667 21.0208H6.17958M13.9167 11.9792H21.6667M13.9167 21.0208H21.6667" stroke="#455C82" stroke-width="2" stroke-linecap="round" stroke-linejoin="round"/>
</svg>
