<svg width="26" height="26" viewBox="0 0 26 26" fill="none" xmlns="http://www.w3.org/2000/svg">
<path d="M12.1848 15.344H8.69816C8.16275 15.344 7.71875 14.9 7.71875 14.3646V8.48816C7.71875 7.23452 8.75039 6.20288 10.004 6.20288H12.1848C12.7203 6.20288 13.1643 6.64688 13.1643 7.18229V14.3646C13.1643 14.9 12.7203 15.344 12.1848 15.344ZM9.67756 13.3852H11.2054V8.1617H10.004C9.82121 8.1617 9.67756 8.30534 9.67756 8.48816V13.3852Z" fill="#1276DF"/>
<path d="M8.71024 15.3439H5.22355C4.68814 15.3439 4.24414 14.8999 4.24414 14.3645V10.4469C4.24414 9.19326 5.27578 8.16162 6.52942 8.16162H8.71024C9.24565 8.16162 9.68964 8.60562 9.68964 9.14103V14.3645C9.68964 14.8999 9.24565 15.3439 8.71024 15.3439ZM6.20296 13.3851H7.73083V10.1204H6.52942C6.3466 10.1204 6.20296 10.2641 6.20296 10.4469V13.3851Z" fill="#1276DF"/>
<path d="M15.6712 15.3441H12.1845C11.6491 15.3441 11.2051 14.9001 11.2051 14.3647V6.52942C11.2051 5.27578 12.2367 4.24414 13.4904 4.24414H14.3653C15.6189 4.24414 16.6506 5.27578 16.6506 6.52942V14.3647C16.6506 14.9001 16.2066 15.3441 15.6712 15.3441ZM13.1639 13.3853H14.6918V6.52942C14.6918 6.3466 14.5481 6.20296 14.3653 6.20296H13.4904C13.3075 6.20296 13.1639 6.3466 13.1639 6.52942V13.3853Z" fill="#1276DF"/>
<path d="M23.6767 18.6217L21.6265 17.5378C21.4306 17.4333 21.2217 17.3811 21.0127 17.3811C20.6732 17.3811 20.3337 17.5117 20.0856 17.7598L17.7611 20.0843C17.3563 20.4891 17.2649 21.1159 17.5261 21.6252L18.6099 23.6754C19.4065 25.1772 20.9213 25.9999 22.397 25.9999C23.3372 25.9999 24.2513 25.6734 24.9565 24.9682C26.7717 23.1531 26.1187 19.9276 23.6637 18.6217H23.6767ZM23.5853 23.584C23.2066 23.9627 22.7365 24.0541 22.41 24.0541C21.5743 24.0541 20.7646 23.5448 20.3468 22.7613L19.4849 21.142L21.1303 19.4966L22.7496 20.3585C23.4286 20.7241 23.9118 21.3771 24.0163 22.1084C24.0685 22.4479 24.0816 23.0878 23.5723 23.584H23.5853Z" fill="#1276DF"/>
<path d="M10.447 0C4.67504 0 0 4.67504 0 10.447C0 16.219 4.67504 20.894 10.447 20.894C16.219 20.894 20.894 16.219 20.894 10.447C20.894 4.67504 16.219 0 10.447 0ZM10.447 18.9352C5.77197 18.9352 1.95881 15.122 1.95881 10.447C1.95881 5.77197 5.77197 1.95881 10.447 1.95881C15.122 1.95881 18.9352 5.77197 18.9352 10.447C18.9352 15.122 15.122 18.9352 10.447 18.9352Z" fill="#1276DF"/>
</svg>
