<svg width="86" height="88" viewBox="0 0 86 88" fill="none" xmlns="http://www.w3.org/2000/svg">
<path d="M85.3012 36.6898C80.8351 15.3866 36.4201 32.9065 45.025 16.6081C48.4568 10.1079 47.6143 2.48561 39.9806 0.553555C9.69415 -7.11191 -22.023 67.5323 20.9016 57.8178C30.0071 55.757 35.3947 47.5553 38.0687 52.7213C43.386 62.994 29.0222 74.797 34.6857 84.1008C45.6883 102.176 88.5999 52.4236 85.3012 36.6898Z" fill="url(#paint0_linear_168_1108)"/>
<path d="M63.2813 29.2109C62.8065 29.2109 62.4219 28.8263 62.4219 28.3516C62.4219 27.8304 61.9977 27.4063 61.4766 27.4063C61.0018 27.4063 60.6172 27.0216 60.6172 26.5469C60.6172 26.0722 61.0018 25.6875 61.4766 25.6875C61.9977 25.6875 62.4219 25.2633 62.4219 24.7422C62.4219 24.2675 62.8065 23.8828 63.2813 23.8828C63.756 23.8828 64.1406 24.2675 64.1406 24.7422C64.1406 25.2633 64.5648 25.6875 65.0859 25.6875C65.5607 25.6875 65.9453 26.0722 65.9453 26.5469C65.9453 27.0216 65.5607 27.4063 65.0859 27.4063C64.5648 27.4063 64.1406 27.8304 64.1406 28.3516C64.1406 28.8261 63.756 29.2109 63.2813 29.2109Z" fill="#0A488A"/>
<path d="M10.3828 86.3789C9.90827 86.3789 9.52344 85.9943 9.52344 85.5195C9.52344 84.9984 9.09942 84.5742 8.57813 84.5742C8.10358 84.5742 7.71875 84.1896 7.71875 83.7148C7.71875 83.2401 8.10358 82.8555 8.57813 82.8555C9.09942 82.8555 9.52344 82.4313 9.52344 81.9102C9.52344 81.4354 9.90827 81.0508 10.3828 81.0508C10.8574 81.0508 11.2422 81.4354 11.2422 81.9102C11.2422 82.4313 11.6662 82.8555 12.1875 82.8555C12.6621 82.8555 13.0469 83.2401 13.0469 83.7148C13.0469 84.1896 12.6621 84.5742 12.1875 84.5742C11.6662 84.5742 11.2422 84.9984 11.2422 85.5195C11.2422 85.9943 10.8574 86.3789 10.3828 86.3789Z" fill="#0A488A"/>
<path d="M2.66407 44.5117C2.18952 44.5117 1.80469 44.1271 1.80469 43.6524C1.80469 43.1312 1.38067 42.707 0.859376 42.707C0.384829 42.707 0 42.3224 0 41.8477C0 41.3729 0.384829 40.9883 0.859376 40.9883C1.38067 40.9883 1.80469 40.5641 1.80469 40.043C1.80469 39.5683 2.18952 39.1836 2.66407 39.1836C3.13861 39.1836 3.52344 39.5683 3.52344 40.043C3.52344 40.5641 3.94746 40.9883 4.46876 40.9883C4.94331 40.9883 5.32813 41.3729 5.32813 41.8477C5.32813 42.3224 4.94331 42.707 4.46876 42.707C3.94746 42.707 3.52344 43.1312 3.52344 43.6524C3.52344 44.1271 3.13861 44.5117 2.66407 44.5117Z" fill="#0A488A"/>
<path d="M58.6406 20.3281C58.4208 20.3281 58.2006 20.2442 58.033 20.0763L56.2283 18.2716C55.8926 17.9361 55.8926 17.3919 56.2283 17.0564L58.033 15.2518C58.3683 14.9161 58.9128 14.9161 59.2482 15.2518L61.0529 17.0564C61.3885 17.3919 61.3885 17.9361 61.0529 18.2716L59.2482 20.0763C59.0806 20.2442 58.8606 20.3281 58.6406 20.3281ZM58.0514 17.664L58.6408 18.2534L59.2301 17.664L58.6408 17.0747L58.0514 17.664Z" fill="#0A488A"/>
<path d="M20.4454 82.5664C20.2254 82.5664 20.0056 82.4825 19.8377 82.3146L18.033 80.5099C17.6973 80.1744 17.6973 79.6302 18.033 79.2947L19.8377 77.49C20.1734 77.1544 20.7174 77.1544 21.053 77.49L22.8577 79.2947C23.1934 79.6302 23.1934 80.1744 22.8577 80.5099L21.053 82.3146C20.8853 82.4825 20.6654 82.5664 20.4454 82.5664ZM19.8561 79.9023L20.4454 80.4917L21.0348 79.9023L20.4454 79.3129L19.8561 79.9023Z" fill="#0A488A"/>
<path d="M82.2813 15.2109C81.8065 15.2109 81.4219 14.8263 81.4219 14.3516C81.4219 13.8304 80.9977 13.4063 80.4766 13.4063C80.0018 13.4063 79.6172 13.0216 79.6172 12.5469C79.6172 12.0722 80.0018 11.6875 80.4766 11.6875C80.9977 11.6875 81.4219 11.2633 81.4219 10.7422C81.4219 10.2675 81.8065 9.88281 82.2813 9.88281C82.756 9.88281 83.1406 10.2675 83.1406 10.7422C83.1406 11.2633 83.5648 11.6875 84.0859 11.6875C84.5607 11.6875 84.9453 12.0722 84.9453 12.5469C84.9453 13.0216 84.5607 13.4063 84.0859 13.4063C83.5648 13.4063 83.1406 13.8304 83.1406 14.3516C83.1406 14.8261 82.756 15.2109 82.2813 15.2109Z" fill="#0A488A"/>
<path d="M29.3828 72.3789C28.9083 72.3789 28.5234 71.9943 28.5234 71.5195C28.5234 70.9984 28.0994 70.5742 27.5781 70.5742C27.1036 70.5742 26.7188 70.1896 26.7188 69.7148C26.7188 69.2401 27.1036 68.8555 27.5781 68.8555C28.0994 68.8555 28.5234 68.4313 28.5234 67.9102C28.5234 67.4354 28.9083 67.0508 29.3828 67.0508C29.8574 67.0508 30.2422 67.4354 30.2422 67.9102C30.2422 68.4313 30.6662 68.8555 31.1875 68.8555C31.6621 68.8555 32.0469 69.2401 32.0469 69.7148C32.0469 70.1896 31.6621 70.5742 31.1875 70.5742C30.6662 70.5742 30.2422 70.9984 30.2422 71.5195C30.2422 71.9943 29.8574 72.3789 29.3828 72.3789Z" fill="#0A488A"/>
<path d="M21.6641 30.5117C21.1895 30.5117 20.8047 30.1271 20.8047 29.6524C20.8047 29.1312 20.3807 28.707 19.8594 28.707C19.3848 28.707 19 28.3224 19 27.8477C19 27.3729 19.3848 26.9883 19.8594 26.9883C20.3807 26.9883 20.8047 26.5641 20.8047 26.043C20.8047 25.5683 21.1895 25.1836 21.6641 25.1836C22.1386 25.1836 22.5234 25.5683 22.5234 26.043C22.5234 26.5641 22.9475 26.9883 23.4688 26.9883C23.9433 26.9883 24.3281 27.3729 24.3281 27.8477C24.3281 28.3224 23.9433 28.707 23.4688 28.707C22.9475 28.707 22.5234 29.1312 22.5234 29.6524C22.5234 30.1271 22.1386 30.5117 21.6641 30.5117Z" fill="#0A488A"/>
<path d="M77.6406 6.32809C77.4208 6.32809 77.2006 6.24422 77.033 6.07629L75.2283 4.2716C74.8926 3.9361 74.8926 3.39195 75.2283 3.05645L77.033 1.25175C77.3683 0.916082 77.9128 0.916082 78.2482 1.25175L80.0529 3.05645C80.3885 3.39195 80.3885 3.9361 80.0529 4.2716L78.2482 6.07629C78.0806 6.24422 77.8606 6.32809 77.6406 6.32809ZM77.0514 3.66402L77.6408 4.25338L78.2301 3.66402L77.6408 3.07466L77.0514 3.66402Z" fill="#0A488A"/>
<path d="M39.4454 68.5664C39.2254 68.5664 39.0056 68.4825 38.8377 68.3146L37.033 66.5099C36.6973 66.1744 36.6973 65.6302 37.033 65.2947L38.8377 63.49C39.1734 63.1544 39.7174 63.1544 40.053 63.49L41.8577 65.2947C42.1934 65.6302 42.1934 66.1744 41.8577 66.5099L40.053 68.3146C39.8853 68.4825 39.6654 68.5664 39.4454 68.5664ZM38.8561 65.9023L39.4454 66.4917L40.0348 65.9023L39.4454 65.3129L38.8561 65.9023Z" fill="#0A488A"/>
<path d="M77.606 17.7237V74.7749H12.3984V17.7237C12.3984 15.2345 14.4208 13.2344 16.8878 13.2344H73.1165C75.5836 13.2344 77.606 15.2345 77.606 17.7237Z" fill="white"/>
<path d="M77.6055 75.4539H12.398C12.0226 75.4539 11.7188 75.1501 11.7188 74.7746V17.7233C11.7188 14.8737 14.0377 12.5547 16.8874 12.5547H73.1162C75.9658 12.5547 78.2848 14.8737 78.2848 17.7233V74.7746C78.2848 75.1501 77.981 75.4539 77.6055 75.4539ZM13.0772 74.0954H76.9263V17.7233C76.9263 15.6219 75.2176 13.9132 73.1162 13.9132H16.8874C14.786 13.9132 13.0772 15.6219 13.0772 17.7233V74.0954Z" fill="#0A488A"/>
<path d="M77.593 17.7268V25.6116H67.708C66.958 25.6116 66.2464 25.2462 65.8041 24.65L63.8617 22.0731C63.4194 21.4769 62.7079 21.1115 61.9578 21.1115H51.9575C51.2075 21.1115 50.4959 21.4769 50.0536 22.0731L48.1112 24.65C47.6689 25.2462 46.9574 25.6116 46.2073 25.6116H12.3984V17.7268C12.3984 15.2267 14.4178 13.2266 16.8794 13.2266H73.112C75.5737 13.2266 77.593 15.2267 77.593 17.7268Z" fill="white"/>
<path d="M77.5923 26.291H67.7074C66.7482 26.291 65.8328 25.8293 65.2584 25.0545L63.3188 22.4808C62.9965 22.047 62.4884 21.791 61.9577 21.791H51.9561C51.4254 21.791 50.9173 22.047 50.5976 22.4782L48.6527 25.0585C48.0809 25.8293 47.1655 26.291 46.2064 26.291H12.398C12.0226 26.291 11.7188 25.9872 11.7188 25.6117V17.7261C11.7188 14.8698 14.0338 12.5469 16.8781 12.5469H73.1109C75.9565 12.5469 78.2715 14.8698 78.2715 17.7261V25.6117C78.2715 25.9872 77.9677 26.291 77.5923 26.291ZM51.9561 20.4325H61.9577C62.9155 20.4325 63.8309 20.8942 64.4067 21.6663L66.3463 24.2413C66.6686 24.6751 67.1767 24.9325 67.7074 24.9325H76.913V17.7261C76.913 15.6194 75.207 13.9054 73.1109 13.9054H16.8781C14.782 13.9054 13.0772 15.6194 13.0772 17.7261V24.9325H46.2064C46.737 24.9325 47.2451 24.6751 47.5649 24.2453L49.5097 21.6636C50.0828 20.8942 50.9982 20.4325 51.9561 20.4325Z" fill="#0A488A"/>
<path d="M20.4658 21.3066C21.2926 21.3066 21.9629 20.6364 21.9629 19.8096C21.9629 18.9828 21.2926 18.3125 20.4658 18.3125C19.639 18.3125 18.9688 18.9828 18.9688 19.8096C18.9688 20.6364 19.639 21.3066 20.4658 21.3066Z" fill="#0A488A"/>
<path d="M26.3877 21.3066C27.2145 21.3066 27.8847 20.6364 27.8847 19.8096C27.8847 18.9828 27.2145 18.3125 26.3877 18.3125C25.5609 18.3125 24.8906 18.9828 24.8906 19.8096C24.8906 20.6364 25.5609 21.3066 26.3877 21.3066Z" fill="#0A488A"/>
<path d="M32.3096 21.3066C33.1364 21.3066 33.8066 20.6364 33.8066 19.8096C33.8066 18.9828 33.1364 18.3125 32.3096 18.3125C31.4828 18.3125 30.8125 18.9828 30.8125 19.8096C30.8125 20.6364 31.4828 21.3066 32.3096 21.3066Z" fill="#0A488A"/>
<path d="M44.9989 56.0796C46.5602 56.0796 47.8259 54.8139 47.8259 53.2526C47.8259 51.6912 46.5602 50.4255 44.9989 50.4255C43.4376 50.4255 42.1719 51.6912 42.1719 53.2526C42.1719 54.8139 43.4376 56.0796 44.9989 56.0796Z" fill="#0A488A"/>
<path d="M24.9375 51.4661H33.5228C34.2295 45.7529 39.0925 41.3258 44.9968 41.3258V32.7656C34.3635 32.7656 25.6747 41.0203 24.9375 51.4661Z" fill="#248EFF"/>
<path d="M24.8672 52.8959C24.8672 58.5152 27.1776 63.5919 30.889 67.2505L36.8934 61.1411C34.7577 59.0405 33.4273 56.1169 33.4273 52.8959C33.4273 52.4103 33.4666 51.9348 33.5247 51.4648H24.9394C24.9061 51.9395 24.8672 52.4128 24.8672 52.8959Z" fill="#0A488A"/>
<path d="M45 32.7656V41.3258C50.9037 41.3258 55.7667 45.7529 56.4732 51.4661H65.0591C64.3221 41.0203 55.6325 32.7656 45 32.7656Z" fill="#248EFF"/>
<path d="M56.4698 51.4648C56.5279 51.9348 56.5677 52.4103 56.5677 52.8959C56.5677 56.1169 55.2372 59.0405 53.1016 61.1411L59.1059 67.2505C62.8173 63.5919 65.1282 58.5152 65.1282 52.8959C65.1282 52.4128 65.0893 51.9395 65.0557 51.4648H56.4698Z" fill="#0A488A"/>
<path d="M33.5235 52.1449H24.9374C24.749 52.1449 24.5686 52.0666 24.4399 51.9287C24.3125 51.7907 24.2462 51.6063 24.2595 51.4179C25.025 40.5778 34.1351 32.0859 44.9977 32.0859C45.3731 32.0859 45.6769 32.3897 45.6769 32.7652V41.3247C45.6769 41.7002 45.3731 42.004 44.9977 42.004C39.5146 42.004 34.8714 46.1073 34.1974 51.5492C34.155 51.8889 33.8658 52.1449 33.5235 52.1449ZM25.6803 50.7864H32.9384C33.9109 45.1866 38.6497 40.9772 44.3184 40.6641V33.4564C34.7095 33.792 26.7164 41.2292 25.6803 50.7864Z" fill="#0A488A"/>
<path d="M30.8884 67.9295C30.7093 67.9295 30.5382 67.8592 30.4121 67.7344C26.3977 63.7757 24.1875 58.5063 24.1875 52.8959C24.1875 52.4554 24.218 52.0216 24.2485 51.5891L24.2605 51.4166C24.2857 51.0611 24.5815 50.7852 24.9384 50.7852H33.5245C33.7195 50.7852 33.9052 50.8687 34.0339 51.0147C34.1626 51.1606 34.2223 51.3543 34.1984 51.548C34.144 51.9898 34.1055 52.4382 34.1055 52.8959C34.1055 55.8304 35.265 58.5859 37.3691 60.6568C37.6371 60.9194 37.6397 61.3493 37.3771 61.6173L31.3726 67.7265C31.2466 67.8552 31.0741 67.9281 30.8937 67.9295H30.8884ZM25.5725 52.1436C25.5566 52.3931 25.546 52.6425 25.546 52.8959C25.546 57.9133 27.4378 62.6401 30.8884 66.2804L35.9456 61.1357C33.8774 58.8711 32.7471 55.971 32.7471 52.8959C32.7471 52.6531 32.7563 52.405 32.7749 52.1436H25.5725Z" fill="#0A488A"/>
<path d="M65.0585 52.1449H56.4724C56.1302 52.1449 55.8409 51.8889 55.7985 51.5492C55.1246 46.1073 50.4826 42.004 44.9996 42.004C44.6241 42.004 44.3203 41.7002 44.3203 41.3247V32.7652C44.3203 32.3897 44.6241 32.0859 44.9996 32.0859C55.8622 32.0859 64.971 40.5778 65.7364 51.4179C65.7497 51.6063 65.6834 51.7907 65.556 51.9287C65.4273 52.0666 65.2469 52.1449 65.0585 52.1449ZM57.0575 50.7864H64.3156C63.2795 41.2292 55.2864 33.792 45.6788 33.4564V40.6641C51.3476 40.9772 56.0851 45.1866 57.0575 50.7864Z" fill="#0A488A"/>
<path d="M59.1056 67.9295C59.1042 67.9295 59.1016 67.9295 59.1003 67.9295C58.9198 67.9281 58.7474 67.8552 58.6213 67.7265L52.6169 61.6173C52.3542 61.3493 52.3569 60.9194 52.6249 60.6568C54.7289 58.5859 55.8884 55.8304 55.8884 52.8959C55.8884 52.4382 55.85 51.9898 55.7956 51.548C55.7717 51.3543 55.8314 51.1606 55.9601 51.0147C56.0888 50.8687 56.2745 50.7852 56.4695 50.7852H65.0556C65.4125 50.7852 65.7083 51.0611 65.7335 51.4166L65.7481 51.6183C65.7786 52.0415 65.8078 52.466 65.8078 52.8959C65.8078 58.5076 63.5963 63.777 59.5818 67.7344C59.4558 67.8592 59.2833 67.9295 59.1056 67.9295ZM54.0484 61.1357L59.1056 66.2804C62.5562 62.6414 64.4493 57.9146 64.4493 52.8959C64.4493 52.6425 64.4374 52.3931 64.4215 52.1436H57.2191C57.2376 52.405 57.2469 52.6531 57.2469 52.8959C57.2469 55.971 56.1166 58.8711 54.0484 61.1357Z" fill="#0A488A"/>
<path d="M44.9972 53.9305C44.7637 53.9305 44.5368 53.8098 44.4108 53.5936L36.4602 39.9901C36.2704 39.6664 36.3806 39.2511 36.7043 39.0614C37.0266 38.873 37.4432 38.9805 37.6329 39.3055L45.5835 52.909C45.7732 53.2327 45.6631 53.6479 45.3394 53.8377C45.232 53.9 45.1139 53.9305 44.9972 53.9305Z" fill="#0A488A"/>
<path d="M47.9553 64.5811H42.0464C41.671 64.5811 41.3672 64.2773 41.3672 63.9019C41.3672 63.5265 41.671 63.2227 42.0464 63.2227H47.9553C48.3308 63.2227 48.6346 63.5265 48.6346 63.9019C48.6346 64.2773 48.3308 64.5811 47.9553 64.5811Z" fill="#0A488A"/>
<path d="M46.3464 68.9522H43.648C43.2726 68.9522 42.9688 68.6484 42.9688 68.273C42.9688 67.8976 43.2726 67.5938 43.648 67.5938H46.3464C46.7218 67.5938 47.0256 67.8976 47.0256 68.273C47.0256 68.6484 46.7218 68.9522 46.3464 68.9522Z" fill="#0A488A"/>
<defs>
<linearGradient id="paint0_linear_168_1108" x1="3.85217e-05" y1="44" x2="85.4815" y2="44" gradientUnits="userSpaceOnUse">
<stop stop-color="#D1DDFF" stop-opacity="0"/>
<stop offset="1" stop-color="#248EFF" stop-opacity="0.26"/>
</linearGradient>
</defs>
</svg>
