<svg width="172" height="172" viewBox="0 0 172 172" fill="none" xmlns="http://www.w3.org/2000/svg">
<path fill-rule="evenodd" clip-rule="evenodd" d="M9.13379 155.929V53.0988C9.13379 50.1425 11.5458 47.7305 14.5021 47.7305H157.497C160.453 47.7305 162.866 50.1425 162.866 53.0988V155.929H9.13379Z" fill="#DBEDFF"/>
<path fill-rule="evenodd" clip-rule="evenodd" d="M5.48242 145.227H65.6287V147.242C65.6287 150.773 68.5177 153.662 72.0484 153.662H99.9548C103.485 153.662 106.375 150.773 106.375 147.242V145.227H166.521V155.919C166.521 161.802 161.71 166.612 155.828 166.612H16.1753C10.293 166.612 5.48242 161.802 5.48242 155.919V145.227Z" fill="#898890"/>
<path fill-rule="evenodd" clip-rule="evenodd" d="M20.6865 26.4232V9.39453C20.6865 7.17398 22.4972 5.36328 24.7178 5.36328H147.281C149.502 5.36328 151.312 7.17398 151.312 9.39453V26.4232H20.6865Z" fill="#FF5A5A"/>
<path fill-rule="evenodd" clip-rule="evenodd" d="M20.6865 26.4219H151.312V132.487H20.6865V26.4219Z" fill="#FBF3F3"/>
<path fill-rule="evenodd" clip-rule="evenodd" d="M94.9227 48.2937C97.3146 48.9757 99.5923 49.9298 101.722 51.1123C102.565 51.5826 103.57 51.465 104.285 50.8133L108.616 46.866C109.489 46.0698 110.833 46.1001 111.666 46.9366L118.516 53.7863C119.352 54.6228 119.382 55.9632 118.586 56.8366L114.639 61.1702C113.987 61.8858 113.873 62.8869 114.34 63.7334C115.526 65.8633 116.476 68.1409 117.158 70.5328C117.424 71.46 118.217 72.0882 119.181 72.1319L125.033 72.404C126.212 72.4577 127.139 73.432 127.139 74.6111V84.2962C127.139 85.4787 126.212 86.4495 125.033 86.5033L119.184 86.7754C118.22 86.8191 117.427 87.4473 117.162 88.3745C116.48 90.7663 115.526 93.044 114.343 95.1738C113.873 96.017 113.991 97.0215 114.642 97.737L118.586 102.074C119.382 102.947 119.352 104.291 118.516 105.124L111.666 111.974C110.829 112.811 109.489 112.841 108.616 112.045L104.282 108.097C103.566 107.446 102.565 107.331 101.719 107.798C99.5889 108.984 97.3112 109.935 94.9194 110.617C93.9922 110.882 93.364 111.675 93.3203 112.639L93.0482 118.491C92.9945 119.67 92.0236 120.598 90.8411 120.598H81.156C79.9735 120.598 79.0027 119.67 78.9489 118.491L78.6768 112.643C78.6331 111.678 78.0049 110.886 77.0777 110.62C74.6859 109.938 72.4082 108.984 70.2784 107.802C69.4352 107.331 68.4307 107.449 67.7152 108.101L63.3849 112.048C62.5115 112.844 61.1677 112.814 60.3346 111.977L53.4848 105.128C52.6484 104.291 52.6181 102.951 53.4143 102.077L57.3616 97.7437C58.0133 97.0316 58.1275 96.0271 57.6605 95.1805C56.4747 93.0507 55.524 90.773 54.842 88.3812C54.5766 87.454 53.7838 86.8258 52.8197 86.7821L46.9677 86.51C45.7885 86.4562 44.8613 85.4854 44.8613 84.3029V74.6178C44.8613 73.4353 45.7885 72.4645 46.9677 72.4107L52.8197 72.1386C53.7838 72.0949 54.5766 71.4667 54.842 70.5395C55.5273 68.1477 56.478 65.87 57.6605 63.7402C58.1309 62.897 58.0133 61.8925 57.3616 61.177L53.4143 56.84C52.6181 55.9666 52.6484 54.6228 53.4848 53.7897L60.3346 46.9399C61.1711 46.1034 62.5115 46.0732 63.3849 46.8694L67.7185 50.8166C68.4341 51.4684 69.4352 51.5826 70.2817 51.1156C72.4116 49.9298 74.6892 48.9791 77.0811 48.2971C78.0083 48.0317 78.6365 47.2389 78.6802 46.2748L78.9523 40.4227C79.006 39.2436 79.9769 38.3164 81.1594 38.3164H90.8445C92.027 38.3164 92.9978 39.2436 93.0516 40.4227L93.3237 46.2714C93.3673 47.2355 93.9955 48.0284 94.9227 48.2937Z" fill="#2FB1D4"/>
<path d="M86.0004 101.911C98.4033 101.911 108.458 91.8564 108.458 79.4535C108.458 67.0506 98.4033 56.9961 86.0004 56.9961C73.5975 56.9961 63.543 67.0506 63.543 79.4535C63.543 91.8564 73.5975 101.911 86.0004 101.911Z" fill="#E6E9ED"/>
<path fill-rule="evenodd" clip-rule="evenodd" d="M83.9809 79.4543V67.7099C83.9809 66.5946 84.888 65.6943 85.9999 65.6943C87.1119 65.6943 88.0189 66.5946 88.0189 67.7099V77.4387H93.9146C95.0266 77.4387 95.9336 78.3423 95.9336 79.4543C95.9336 80.5696 95.0266 81.4699 93.9146 81.4699H85.9999C84.888 81.4699 83.9809 80.5696 83.9809 79.4543ZM74.0876 62.8556C72.287 64.1557 70.6946 65.7413 69.4012 67.5453L70.6912 68.2911C71.652 68.8487 71.9812 70.0816 71.4202 71.0458C71.0507 71.6908 70.3755 72.0536 69.6767 72.0536C69.3341 72.0536 68.9914 71.9662 68.6723 71.7815L67.3823 71.0323C66.4752 73.0211 65.884 75.1745 65.6522 77.4387H67.1639C68.2759 77.4387 69.1694 78.3423 69.1694 79.4543C69.1694 80.5696 68.2759 81.4699 67.1639 81.4699H65.6522C65.8873 83.7341 66.4752 85.8909 67.3823 87.8796L68.6723 87.1271C69.633 86.5728 70.8693 86.902 71.4202 87.8662C71.9846 88.8303 71.6554 90.0632 70.6912 90.6209L69.4012 91.3666C70.6912 93.1706 72.287 94.7562 74.0876 96.053L74.83 94.763C75.3944 93.7988 76.6172 93.4663 77.5914 94.0239C78.5522 94.5816 78.8814 95.8145 78.3204 96.7786L77.578 98.0753C79.5701 98.979 81.7134 99.5736 83.9809 99.7987V98.2937C83.9809 97.1817 84.888 96.278 85.9999 96.278C87.1119 96.278 88.0189 97.1817 88.0189 98.2937V99.7987C90.273 99.5736 92.4298 98.979 94.4219 98.0753L93.666 96.7786C93.1151 95.8145 93.4477 94.5816 94.4084 94.0239C95.3692 93.4663 96.6055 93.7988 97.1564 94.763L97.9123 96.053C99.7129 94.7562 101.292 93.1706 102.599 91.3666L101.309 90.6209C100.348 90.0632 100.019 88.8303 100.566 87.8662C101.131 86.902 102.353 86.5728 103.328 87.1271L104.618 87.8796C105.525 85.8909 106.116 83.7341 106.334 81.4699H104.836C103.724 81.4699 102.817 80.5696 102.817 79.4543C102.817 78.3423 103.724 77.4387 104.836 77.4387H106.334C106.116 75.1745 105.525 73.0211 104.618 71.0323L103.328 71.7815C103.012 71.9662 102.656 72.0536 102.31 72.0536C101.624 72.0536 100.936 71.6908 100.566 71.0458C100.015 70.0816 100.348 68.8487 101.309 68.2911L102.599 67.5453C101.292 65.7413 99.7129 64.1557 97.9123 62.8556L97.1564 64.149C96.7869 64.7973 96.1116 65.1568 95.4129 65.1568C95.0702 65.1568 94.7242 65.0695 94.4084 64.888C93.4477 64.3304 93.1184 63.0975 93.666 62.1334L94.4219 60.8366C92.4298 59.933 90.273 59.335 88.0189 59.1133V60.6183C88.0189 61.7302 87.1119 62.6339 85.9999 62.6339C84.888 62.6339 83.9809 61.7302 83.9809 60.6183V59.1133C81.7134 59.335 79.5701 59.933 77.578 60.8366L78.3204 62.1334C78.8848 63.0975 78.5555 64.3304 77.5914 64.888C77.2756 65.0695 76.933 65.1568 76.587 65.1568C75.8848 65.1568 75.213 64.7973 74.8266 64.149L74.0876 62.8556ZM85.9999 103.931C99.4912 103.931 110.47 92.9489 110.47 79.4543C110.47 65.9597 99.4912 54.9813 85.9999 54.9813C72.5087 54.9813 61.5302 65.9597 61.5302 79.4543C61.5302 92.9489 72.5087 103.931 85.9999 103.931ZM46.8699 74.6134V84.2985C46.8699 84.4027 46.9539 84.4866 47.0614 84.4934L52.9134 84.7655C54.7544 84.8495 56.2661 86.0521 56.7734 87.8259C57.4049 90.0363 58.2985 92.1796 59.4105 94.1952C60.3175 95.8077 60.0823 97.7327 58.8461 99.0966L54.9022 103.43C54.8182 103.504 54.835 103.625 54.9022 103.696L61.7587 110.545C61.8259 110.619 61.9502 110.623 62.0207 110.552L66.3476 106.605C67.1572 105.869 68.1616 105.489 69.1795 105.489C69.8951 105.489 70.5938 105.671 71.2556 106.037C73.2612 107.156 75.4179 108.046 77.6317 108.678C79.4055 109.185 80.5981 110.703 80.6955 112.544L80.9575 118.396C80.9709 118.5 81.0549 118.581 81.149 118.581H90.8341C90.9449 118.581 91.0255 118.5 91.039 118.396L91.301 112.544C91.3984 110.703 92.591 109.185 94.3648 108.678C96.5752 108.046 98.7219 107.156 100.741 106.034C102.35 105.14 104.272 105.362 105.632 106.605L109.972 110.552C110.04 110.623 110.164 110.619 110.234 110.545L117.091 103.696C117.158 103.625 117.158 103.504 117.091 103.43L113.147 99.0966C111.911 97.7327 111.676 95.8111 112.569 94.1986C113.695 92.183 114.588 90.0363 115.22 87.8225C115.727 86.0521 117.239 84.8495 119.08 84.7655L124.932 84.4934C125.043 84.4866 125.123 84.4027 125.123 84.2985V74.6134C125.123 74.5093 125.039 74.422 124.932 74.4186L119.08 74.1465C117.239 74.0625 115.727 72.8598 115.22 71.0861C114.588 68.8756 113.695 66.7323 112.569 64.7134C111.676 63.1009 111.911 61.1793 113.147 59.8154L117.091 55.4818C117.158 55.4045 117.158 55.287 117.091 55.213L110.234 48.3633C110.167 48.2894 110.043 48.2894 109.972 48.3599L105.632 52.3038C104.272 53.5468 102.35 53.7719 100.741 52.8749C98.7219 51.7529 96.5786 50.866 94.3648 50.2311C92.591 49.7238 91.3984 48.2054 91.301 46.3645L91.039 40.5158C91.0255 40.4116 90.9416 40.3277 90.8341 40.3277H81.149C81.0516 40.3277 80.9709 40.4116 80.9575 40.5158L80.6955 46.3645C80.5981 48.2088 79.4055 49.7272 77.6317 50.2311C75.4212 50.866 73.2746 51.7562 71.2556 52.8749C69.6465 53.7719 67.7249 53.5502 66.3509 52.3072L62.0241 48.3599C61.9569 48.2894 61.8326 48.2894 61.762 48.3633L54.9055 55.213C54.8384 55.287 54.8216 55.4045 54.9055 55.4818L58.8494 59.8154C60.0857 61.1759 60.3209 63.1009 59.4138 64.7134C58.3019 66.7323 57.4083 68.8756 56.7767 71.0861C56.2695 72.8598 54.7577 74.0625 52.9168 74.1465L47.0648 74.4186C46.9505 74.422 46.8699 74.5093 46.8699 74.6134ZM46.8699 88.5179L52.722 88.79C52.8194 88.7967 52.8731 88.8337 52.9 88.9311C53.6155 91.4406 54.6301 93.8694 55.8966 96.1571C55.9503 96.2444 55.9369 96.3083 55.8697 96.3822L51.9258 100.712C50.4006 102.385 50.4544 104.949 52.0635 106.548L58.9066 113.397C60.4989 114.996 63.0688 115.057 64.7452 113.532L69.072 109.585C69.1392 109.517 69.2098 109.511 69.2904 109.561C71.5848 110.831 74.017 111.839 76.5164 112.554C76.6138 112.584 76.6541 112.631 76.6541 112.732L76.9296 118.584C77.0405 120.842 78.8948 122.612 81.149 122.612H90.8341C93.1016 122.612 94.956 120.842 95.0669 118.584L95.3289 112.732C95.3423 112.631 95.3827 112.581 95.4801 112.554C97.9795 111.839 100.412 110.831 102.693 109.558C102.79 109.511 102.844 109.517 102.928 109.585L107.255 113.532C108.931 115.057 111.487 114.996 113.093 113.397L119.936 106.548C121.545 104.949 121.599 102.385 120.074 100.712L116.13 96.3822C116.063 96.3083 116.046 96.2444 116.103 96.1571C117.366 93.8727 118.384 91.4406 119.1 88.9311C119.127 88.8337 119.184 88.7967 119.278 88.79L125.13 88.5179C127.384 88.4137 129.154 86.5594 129.154 84.2985V74.6134C129.154 72.3492 127.381 70.4948 125.13 70.3907L119.278 70.1186C119.18 70.1152 119.127 70.0749 119.1 69.9809C118.384 67.4714 117.37 65.0392 116.103 62.7548C116.05 62.6675 116.063 62.6037 116.13 62.5298L120.074 58.1962C121.599 56.5266 121.545 53.9634 119.936 52.3643L113.093 45.5145C111.484 43.9155 108.931 43.855 107.255 45.3802L102.928 49.3241C102.861 49.3946 102.79 49.4013 102.709 49.3509C100.415 48.0811 97.9828 47.0733 95.4834 46.3544C95.386 46.3275 95.3457 46.2771 95.3323 46.1797L95.0702 40.3277C94.9594 38.0668 93.105 36.2964 90.8374 36.2964H81.1523C78.8982 36.2964 77.0438 38.0668 76.933 40.3277L76.6575 46.1797C76.6575 46.2771 76.6172 46.3275 76.5198 46.3577C74.0204 47.0733 71.5882 48.0811 69.2938 49.3543C69.2098 49.4013 69.1426 49.3946 69.0754 49.3274L64.7485 45.3802C63.0722 43.855 60.5023 43.9121 58.9099 45.5145L52.0669 52.3643C50.4577 53.9634 50.404 56.5266 51.9291 58.1962L55.873 62.5298C55.9402 62.6037 55.957 62.6675 55.8999 62.7548C54.6368 65.0392 53.6189 67.4714 52.9034 69.9775C52.8765 70.0749 52.8194 70.1152 52.7253 70.1186L46.8733 70.3907C44.6191 70.4948 42.8488 72.3492 42.8488 74.6134V84.2985C42.842 86.5594 44.6158 88.4137 46.8699 88.5179ZM63.0117 15.8916C63.0117 14.7796 63.9053 13.8759 65.0173 13.8759H133.209C134.321 13.8759 135.228 14.7796 135.228 15.8916C135.228 17.0069 134.321 17.9072 133.209 17.9072H65.0206C63.9053 17.9072 63.0117 17.0069 63.0117 15.8916ZM49.9068 17.5545C49.4802 17.1312 49.2215 16.5433 49.2215 15.8916C49.2215 15.2432 49.4835 14.6553 49.9068 14.2287C50.3334 13.8054 50.9247 13.54 51.5697 13.54C52.2281 13.54 52.8059 13.8054 53.2326 14.2287C53.6592 14.6553 53.9347 15.2432 53.9347 15.8916C53.9347 16.5433 53.6592 17.1312 53.2326 17.5545C52.8059 17.9811 52.2281 18.2465 51.5697 18.2465C50.9213 18.2465 50.3301 17.9811 49.9068 17.5545ZM42.019 17.5545C41.5923 17.1312 41.3303 16.5433 41.3303 15.8916C41.3303 15.2432 41.5923 14.6553 42.019 14.2287C42.4456 13.8054 43.0369 13.54 43.6819 13.54C44.3269 13.54 44.9181 13.8054 45.3448 14.2287C45.7714 14.6553 46.0301 15.2432 46.0301 15.8916C46.0301 16.5433 45.768 17.1312 45.3448 17.5545C44.9181 17.9811 44.3269 18.2465 43.6819 18.2465C43.0369 18.2465 42.4456 17.9811 42.019 17.5545ZM34.1312 17.5545C33.7045 17.1312 33.4459 16.5433 33.4459 15.8916C33.4459 15.2432 33.7079 14.6553 34.1312 14.2287C34.5578 13.8054 35.1491 13.54 35.7941 13.54C36.4391 13.54 37.0303 13.8054 37.457 14.2287C37.8836 14.6553 38.1423 15.2432 38.1423 15.8916C38.1423 16.5433 37.8802 17.1312 37.457 17.5545C37.0303 17.9811 36.4391 18.2465 35.7941 18.2465C35.1491 18.2465 34.5578 17.9811 34.1312 17.5545ZM45.4254 154.019C45.9058 154.506 46.2081 155.178 46.2081 155.92C46.2081 156.663 45.9058 157.335 45.4254 157.822C44.9316 158.309 44.2563 158.608 43.5173 158.608C42.7748 158.608 42.103 158.309 41.6226 157.822C41.1422 157.335 40.8398 156.663 40.8398 155.92C40.8398 155.178 41.1422 154.506 41.6226 154.019C42.103 153.535 42.7782 153.233 43.5173 153.233C44.2597 153.233 44.9316 153.535 45.4254 154.019ZM36.3988 154.019C36.8926 154.506 37.1949 155.178 37.1949 155.92C37.1949 156.663 36.8926 157.335 36.3988 157.822C35.9184 158.309 35.2431 158.608 34.5041 158.608C33.7616 158.608 33.0898 158.309 32.6094 157.822C32.1155 157.335 31.8266 156.663 31.8266 155.92C31.8266 155.178 32.1155 154.506 32.6094 154.019C33.0898 153.535 33.765 153.233 34.5041 153.233C35.2465 153.233 35.9184 153.535 36.3988 154.019ZM27.3855 154.019C27.8794 154.506 28.1817 155.178 28.1817 155.92C28.1817 156.663 27.8794 157.335 27.3855 157.822C26.9052 158.309 26.2299 158.608 25.4909 158.608C24.7484 158.608 24.0766 158.309 23.5962 157.822C23.1023 157.335 22.8 156.663 22.8 155.92C22.8 155.178 23.1023 154.506 23.5962 154.019C24.0766 153.535 24.7518 153.233 25.4909 153.233C26.2333 153.233 26.9052 153.535 27.3855 154.019ZM144.614 157.822C144.12 157.335 143.818 156.663 143.818 155.92C143.818 155.178 144.12 154.506 144.614 154.019C145.095 153.535 145.77 153.233 146.509 153.233C147.251 153.233 147.923 153.535 148.404 154.019C148.898 154.506 149.186 155.178 149.186 155.92C149.186 156.663 148.898 157.335 148.404 157.822C147.923 158.309 147.248 158.608 146.509 158.608C145.767 158.608 145.095 158.309 144.614 157.822ZM135.588 157.822C135.107 157.335 134.805 156.663 134.805 155.92C134.805 155.178 135.107 154.506 135.588 154.019C136.081 153.535 136.757 153.233 137.499 153.233C138.242 153.233 138.913 153.535 139.394 154.019C139.874 154.506 140.177 155.178 140.177 155.92C140.177 156.663 139.874 157.335 139.394 157.822C138.913 158.309 138.238 158.608 137.499 158.608C136.753 158.608 136.081 158.309 135.588 157.822ZM126.574 157.822C126.094 157.335 125.792 156.663 125.792 155.92C125.792 155.178 126.094 154.506 126.574 154.019C127.068 153.535 127.744 153.233 128.486 153.233C129.228 153.233 129.9 153.535 130.381 154.019C130.861 154.506 131.163 155.178 131.163 155.92C131.163 156.663 130.861 157.335 130.381 157.822C129.9 158.309 129.225 158.608 128.486 158.608C127.74 158.608 127.068 158.309 126.574 157.822ZM164.495 155.92V147.243H108.383C108.383 151.896 104.604 155.679 99.9615 155.679H72.0417C67.3991 155.679 63.6198 151.896 63.6198 147.243H7.49133V155.92C7.49133 160.704 11.3949 164.598 16.1753 164.598H155.828C160.608 164.598 164.495 160.704 164.495 155.92ZM11.1463 53.1034V143.212H65.6253C66.7373 143.212 67.6443 144.116 67.6443 145.227V147.243C67.6443 149.672 69.623 151.647 72.0417 151.647H99.9615C102.38 151.647 104.359 149.672 104.359 147.243V145.227C104.359 144.116 105.266 143.212 106.378 143.212H160.857V53.1034C160.857 51.2523 159.345 49.7507 157.504 49.7507H153.329V132.489C153.329 133.601 152.421 134.504 151.31 134.504H20.6802C19.5683 134.504 18.6747 133.601 18.6747 132.489V49.7507H14.499C12.658 49.7507 11.1463 51.2523 11.1463 53.1034ZM149.301 28.4388H22.6992V130.473H149.297V28.4388H149.301ZM24.7216 7.37891C23.6096 7.37891 22.7026 8.28258 22.7026 9.39453V24.4076H149.301V9.39453C149.301 8.28258 148.394 7.37891 147.282 7.37891H24.7216ZM166.514 143.212H164.878V53.1034C164.878 49.0318 161.566 45.7195 157.501 45.7195H153.325V9.39453C153.325 6.06203 150.617 3.34766 147.278 3.34766H24.7216C21.3823 3.34766 18.6747 6.06203 18.6747 9.39453V45.7195H14.499C10.4308 45.7195 7.1218 49.0318 7.1218 53.1034V143.212H5.48578C4.37383 143.212 3.4668 144.116 3.4668 145.227V155.92C3.4668 162.928 9.16766 168.629 16.1753 168.629H155.828C162.836 168.629 168.536 162.928 168.536 155.92V145.227C168.536 144.116 167.629 143.212 166.514 143.212Z" fill="#3E3E3E"/>
</svg>
