<svg width="27" height="27" viewBox="0 0 27 27" fill="none" xmlns="http://www.w3.org/2000/svg">
<g clip-path="url(#clip0_503_811)">
<path d="M26.1562 21.9375H16.875C16.6512 21.9375 16.4367 22.0265 16.2785 22.1847L15.2904 23.1736C14.8147 23.6468 14.171 23.9124 13.5 23.9124C12.829 23.9124 12.1853 23.6468 11.7096 23.1736L10.7215 22.1847C10.5633 22.0265 10.3488 21.9375 10.125 21.9375H0.84375C0.619974 21.9375 0.405362 22.0264 0.247129 22.1846C0.0888949 22.3429 0 22.5575 0 22.7812C0.00133975 23.8997 0.446244 24.972 1.23712 25.7629C2.028 26.5538 3.10028 26.9987 4.21875 27H22.7812C23.8997 26.9987 24.972 26.5538 25.7629 25.7629C26.5538 24.972 26.9987 23.8997 27 22.7812C27 22.5575 26.9111 22.3429 26.7529 22.1846C26.5946 22.0264 26.38 21.9375 26.1562 21.9375ZM4.21875 25.3125C3.69539 25.3119 3.18505 25.1493 2.7577 24.8472C2.33035 24.5451 2.00693 24.1182 1.83178 23.625H9.77484L10.5165 24.3667C10.9283 24.7789 11.4214 25.101 11.9644 25.3125H4.21875ZM22.7812 25.3125H15.0348C15.5781 25.1012 16.0715 24.7791 16.4835 24.3667L17.2252 23.625H25.1682C24.9931 24.1182 24.6696 24.5451 24.2423 24.8472C23.815 25.1493 23.3046 25.3119 22.7812 25.3125Z" fill="#1276DF"/>
<path d="M0.84375 20.25H10.125C10.7963 20.25 11.4402 20.5167 11.9149 20.9914C12.3896 21.4661 12.6562 22.1099 12.6562 22.7812C12.6562 23.005 12.7451 23.2196 12.9034 23.3779C13.0616 23.5361 13.2762 23.625 13.5 23.625C13.7238 23.625 13.9384 23.5361 14.0966 23.3779C14.2549 23.2196 14.3438 23.005 14.3438 22.7812C14.3438 22.1099 14.6104 21.4661 15.0851 20.9914C15.5598 20.5167 16.2037 20.25 16.875 20.25H26.1562C26.38 20.25 26.5946 20.1611 26.7529 20.0029C26.9111 19.8446 27 19.63 27 19.4062C27 19.1825 26.9111 18.9679 26.7529 18.8096C26.5946 18.6514 26.38 18.5625 26.1562 18.5625H16.875C16.2176 18.5643 15.5698 18.7203 14.9837 19.018C14.3976 19.3156 13.8894 19.7465 13.5 20.2762C13.1106 19.7465 12.6024 19.3156 12.0163 19.018C11.4302 18.7203 10.7824 18.5643 10.125 18.5625H0.84375C0.619974 18.5625 0.405362 18.6514 0.247129 18.8096C0.0888949 18.9679 0 19.1825 0 19.4062C0 19.63 0.0888949 19.8446 0.247129 20.0029C0.405362 20.1611 0.619974 20.25 0.84375 20.25Z" fill="#1276DF"/>
<path d="M10.125 12.5888V13.5001C10.125 13.7239 10.2139 13.9385 10.3721 14.0967C10.5304 14.2549 10.745 14.3438 10.9688 14.3438H13.5C13.7238 14.3438 13.9384 14.2549 14.0966 14.0967C14.2549 13.9385 14.3438 13.7239 14.3438 13.5001V10.4744L15.784 9.03412C15.9377 8.87498 16.0228 8.66185 16.0209 8.44062C16.0189 8.21939 15.9302 8.00777 15.7738 7.85133C15.6173 7.69489 15.4057 7.60616 15.1845 7.60424C14.9632 7.60231 14.7501 7.68736 14.591 7.84105L13.5 8.93202L12.409 7.84105C12.2499 7.68736 12.0368 7.60231 11.8155 7.60424C11.5943 7.60616 11.3827 7.69489 11.2262 7.85133C11.0698 8.00777 10.9811 8.21939 10.9792 8.44062C10.9772 8.66185 11.0623 8.87498 11.216 9.03412L12.6563 10.4744V12.6563H11.8125V12.0801C11.8121 11.921 11.7667 11.7653 11.6816 11.631C11.5965 11.4966 11.4751 11.3891 11.3316 11.3207C10.2928 10.8283 9.45257 9.99704 8.94903 8.96366C8.44549 7.93027 8.30864 6.75627 8.56099 5.63477C8.81334 4.51327 9.43986 3.51104 10.3375 2.79294C11.2351 2.07483 12.3505 1.6836 13.5 1.6836C14.6495 1.6836 15.7649 2.07483 16.6625 2.79294C17.5601 3.51104 18.1867 4.51327 18.439 5.63477C18.6914 6.75627 18.5545 7.93027 18.051 8.96366C17.5474 9.99704 16.7072 10.8283 15.6684 11.3207C15.5249 11.3891 15.4035 11.4966 15.3184 11.631C15.2333 11.7653 15.188 11.921 15.1875 12.0801V13.5001C15.1875 13.7239 15.2764 13.9385 15.4346 14.0967C15.5929 14.2549 15.8075 14.3438 16.0313 14.3438C16.255 14.3438 16.4696 14.2549 16.6279 14.0967C16.7861 13.9385 16.875 13.7239 16.875 13.5001V12.5888C18.1618 11.8459 19.1676 10.6991 19.7362 9.32628C20.3048 7.95348 20.4046 6.43141 20.02 4.99614C19.6354 3.56086 18.788 2.29259 17.6091 1.38803C16.4303 0.483467 14.9859 -0.00683594 13.5 -0.00683594C12.0141 -0.00683594 10.5697 0.483467 9.39086 1.38803C8.21201 2.29259 7.36458 3.56086 6.98 4.99614C6.59542 6.43141 6.69518 7.95348 7.26382 9.32628C7.83245 10.6991 8.83817 11.8459 10.125 12.5888Z" fill="#1276DF"/>
<path d="M16.0312 15.1875H10.9688C10.745 15.1875 10.5304 15.2764 10.3721 15.4346C10.2139 15.5929 10.125 15.8075 10.125 16.0312C10.125 16.255 10.2139 16.4696 10.3721 16.6279C10.5304 16.7861 10.745 16.875 10.9688 16.875H16.0312C16.255 16.875 16.4696 16.7861 16.6279 16.6279C16.7861 16.4696 16.875 16.255 16.875 16.0312C16.875 15.8075 16.7861 15.5929 16.6279 15.4346C16.4696 15.2764 16.255 15.1875 16.0312 15.1875Z" fill="#1276DF"/>
</g>
<defs>
<clipPath id="clip0_503_811">
<rect width="27" height="27" fill="white"/>
</clipPath>
</defs>
</svg>
