<svg width="27" height="29" viewBox="0 0 27 29" fill="none" xmlns="http://www.w3.org/2000/svg">
<path d="M13.5 5C11.0147 5 9 7.01471 9 9.5C9 11.9853 11.0147 14 13.5 14C15.9853 14 18 11.9853 18 9.5C18 7.01471 15.9853 5 13.5 5ZM9.74998 9.5C9.74927 8.9963 9.85001 8.49765 10.0462 8.03375L11.8012 12.8413C10.5434 12.2021 9.75072 10.9109 9.74998 9.5ZM13.5 13.25C13.142 13.2495 12.7859 13.1978 12.4425 13.0963L13.5675 9.83377C13.5675 9.83377 14.58 12.605 14.7412 13.0363C14.3425 13.177 13.9228 13.2492 13.5 13.25ZM14.025 7.71126C14.2537 7.71126 14.46 7.67375 14.46 7.67375C14.547 7.66753 14.6125 7.59199 14.6062 7.50501C14.6 7.41803 14.5245 7.35255 14.4375 7.35877C14.4375 7.35877 13.8188 7.40752 13.4212 7.40752C13.0237 7.40752 12.4163 7.35877 12.4163 7.35877C12.3293 7.35255 12.2537 7.41803 12.2475 7.50501C12.2413 7.59199 12.3068 7.66756 12.3938 7.67375C12.3938 7.67375 12.5888 7.70001 12.795 7.71126L13.3875 9.33877L12.555 11.84L11.1675 7.71503C11.3962 7.71503 11.6025 7.67752 11.6025 7.67752C11.6894 7.6713 11.7549 7.59576 11.7487 7.50878C11.7425 7.4218 11.6669 7.35632 11.58 7.36254C11.58 7.36254 10.9612 7.41129 10.5637 7.41129H10.3875C11.5447 5.69371 13.8752 5.23951 15.5928 6.3968C15.7278 6.48774 15.8567 6.58736 15.9787 6.69506C15.6418 6.73412 15.3926 7.02748 15.4087 7.36631C15.4374 7.68857 15.5556 7.9964 15.75 8.25505C15.9502 8.5691 16.0593 8.93262 16.065 9.30506C16.0261 9.72765 15.9289 10.1428 15.7762 10.5388L15.4012 11.8101L14.025 7.71126ZM16.875 7.83501C17.1271 8.35354 17.2554 8.92347 17.25 9.5C17.2485 10.8071 16.5665 12.0191 15.45 12.6988L16.575 9.42875C16.7632 8.99772 16.8651 8.53397 16.875 8.06376C16.875 7.98126 16.875 7.91 16.875 7.83501Z" fill="#FFFFFF"/>
<mask id="path-2-outside-1_497_758" maskUnits="userSpaceOnUse" x="0" y="0" width="27" height="29" fill="black">
<rect fill="white" width="27" height="29"/>
<path d="M2.87523 7.30623C3.37467 7.30623 3.84491 7.50475 4.19942 7.86528C4.55445 8.2258 4.74995 8.70332 4.74995 9.20996V14.8645C5.50223 14.4992 6.43177 14.6305 7.05632 15.26L11.0529 19.2866C11.6003 19.8382 11.8234 20.6466 11.6978 21.6244L11.4798 23.3185L11.5049 23.3116C11.8979 23.2047 12.3035 23.4424 12.4088 23.8415L12.755 25.1539C12.8061 25.3472 12.7795 25.5489 12.681 25.7225C12.5825 25.8962 12.4234 26.02 12.2332 26.0719L5.24 27.9746C5.1764 27.9921 5.11227 28 5.04919 28C4.72336 28 4.42411 27.7787 4.33601 27.4441L3.98985 26.1317C3.88454 25.7326 4.11861 25.3207 4.5117 25.2138L4.74734 25.1497C4.85161 24.2121 4.64047 23.5276 4.05866 22.8923L1.88522 20.5185C1.29768 19.8769 1 19.1421 1 18.3337V9.20996C1.00052 8.16015 1.84143 7.30623 2.87523 7.30623ZM5.11749 27.1307L11.9251 25.2783L11.6284 24.1544L4.82085 26.0068L5.11749 27.1307ZM1.83465 18.3337C1.83465 18.9292 2.05101 19.4549 2.49675 19.9415L4.67018 22.3153C5.35522 23.0633 5.65289 23.8823 5.60337 24.9162L10.6082 23.5546L10.8709 21.5138C10.9632 20.798 10.8266 20.2506 10.4658 19.8869L6.46931 15.8603C6.00115 15.3891 5.24313 15.3918 4.77862 15.8672C4.31463 16.3426 4.31724 17.1123 4.7854 17.584L6.92026 19.735C7.08396 19.8996 7.085 20.168 6.92234 20.3337C6.75969 20.4994 6.49589 20.501 6.33271 20.3359L4.19785 18.1849C3.50865 17.4903 3.41377 16.414 3.91581 15.6141V9.2089C3.91581 8.92831 3.80738 8.66361 3.60979 8.46297C3.41221 8.26233 3.15154 8.15221 2.87523 8.15221C2.30124 8.15221 1.83465 8.62656 1.83465 9.2089V18.3337ZM14.5917 23.8405C14.6428 23.6473 14.7648 23.4858 14.9358 23.3857C15.1067 23.2857 15.3054 23.2587 15.4957 23.3106L15.5207 23.3174L15.3028 21.6234C15.1771 20.6456 15.3997 19.8377 15.9477 19.2855L19.9442 15.2589C20.5693 14.6294 21.4988 14.4987 22.2506 14.8634V9.2089C22.2506 8.15909 23.0915 7.30517 24.1253 7.30517C25.1591 7.30517 26 8.15909 26 9.2089V18.3326C26 19.1405 25.7023 19.8758 25.1148 20.5174L22.9413 22.8913C22.3595 23.5266 22.1489 24.2111 22.2527 25.1486L22.4883 25.2127C22.8814 25.3196 23.1155 25.7315 23.0102 26.1307L22.664 27.4431C22.5764 27.7782 22.2772 27.9995 21.9513 27.9995C21.8882 27.9995 21.8241 27.991 21.7605 27.9741L14.7674 26.0714C14.5771 26.0195 14.4181 25.8956 14.3195 25.722C14.221 25.5483 14.1944 25.3466 14.2455 25.1534L14.5917 23.8405ZM22.3309 22.3153L24.5043 19.9415C24.9495 19.4549 25.1664 18.9292 25.1664 18.3337V9.20996C25.1664 8.62708 24.6998 8.15327 24.1258 8.15327C23.5518 8.15327 23.0852 8.62708 23.0852 9.20996V15.6152C23.5873 16.4151 23.4929 17.4914 22.8032 18.186L20.6683 20.3369C20.5046 20.5016 20.2408 20.5005 20.0787 20.3348C19.9166 20.1686 19.9176 19.9007 20.0808 19.736L22.2156 17.5851C22.6838 17.1139 22.6864 16.3436 22.2224 15.8682C21.7579 15.3928 20.9999 15.3902 20.5317 15.8614L16.5352 19.8875C16.1744 20.2512 16.0378 20.7986 16.1301 21.5143L16.3929 23.5551L21.3977 24.9168C21.3487 23.8823 21.6463 23.0633 22.3309 22.3153ZM21.8836 27.1307L22.1802 26.0068L15.3726 24.1544L15.076 25.2783L21.8836 27.1307ZM21.0786 10.8267H20.1428C19.9807 11.48 19.7273 12.1015 19.3858 12.6807L20.0479 13.3531C20.2106 13.5182 20.2106 13.7866 20.0479 13.9518L18.2598 15.7677C18.1816 15.8471 18.0752 15.8915 17.9647 15.8915C17.8542 15.8915 17.7478 15.8471 17.6696 15.7677L17.0075 15.0953C16.4367 15.4421 15.8251 15.6994 15.1818 15.864V16.8143C15.1818 17.0483 14.9952 17.2378 14.7648 17.2378H12.2358C12.0053 17.2378 11.8187 17.0483 11.8187 16.8143V15.864C11.1749 15.6994 10.5633 15.4421 9.99299 15.0953L9.3309 15.7677C9.16824 15.9328 8.90393 15.9328 8.74127 15.7677L6.95258 13.9518C6.87438 13.8724 6.83059 13.7644 6.83059 13.6522C6.83059 13.5399 6.87438 13.4319 6.95258 13.3525L7.61467 12.6802C7.2732 12.1005 7.01983 11.4795 6.8577 10.8262H5.9219C5.69147 10.8262 5.50484 10.6367 5.50484 10.4027V7.83457C5.50484 7.60058 5.69147 7.41105 5.9219 7.41105H6.8577C7.01983 6.75724 7.2732 6.13625 7.61467 5.55709L6.95258 4.88475C6.78992 4.71957 6.78992 4.45117 6.95258 4.28599L8.74075 2.46962C8.81895 2.39021 8.92478 2.34574 9.03582 2.34574C9.14635 2.34574 9.2527 2.39021 9.3309 2.46962L9.99299 3.14196C10.5639 2.79573 11.1754 2.53791 11.8187 2.37327V1.42352C11.8187 1.18953 12.0053 1 12.2358 1H14.7648C14.9952 1 15.1818 1.18953 15.1818 1.42352V2.3738C15.8251 2.53844 16.4372 2.79573 17.0075 3.14249L17.6696 2.47015C17.8323 2.30497 18.0966 2.30497 18.2592 2.47015L20.0479 4.28599C20.1261 4.3654 20.1699 4.47287 20.1699 4.58564C20.1699 4.69787 20.1261 4.80587 20.0479 4.88528L19.3858 5.55762C19.7268 6.13731 19.9807 6.7583 20.1428 7.41158H21.0786C21.309 7.41158 21.4957 7.60111 21.4957 7.8351V10.4032C21.4957 10.6367 21.309 10.8267 21.0786 10.8267ZM20.6616 8.25809H19.8097C19.6105 8.25809 19.4395 8.11568 19.4004 7.91716C19.2467 7.13364 18.9464 6.39831 18.5084 5.73179C18.3979 5.56397 18.4198 5.34003 18.5606 5.19709L19.1632 4.58511L17.9647 3.36801L17.362 3.98C17.2213 4.12294 17.0008 4.14464 16.8355 4.03294C16.1797 3.58824 15.4555 3.28331 14.6834 3.12713C14.4884 3.08743 14.3477 2.91379 14.3477 2.71155V1.84704H12.6528V2.71208C12.6528 2.91432 12.5126 3.08796 12.3171 3.12766C11.5455 3.28384 10.8214 3.58877 10.165 4.03347C9.99977 4.1457 9.77925 4.12347 9.63849 3.98053L9.03582 3.36854L7.83728 4.58564L8.43994 5.19762C8.5807 5.34056 8.6026 5.56397 8.49207 5.73232C8.05416 6.39883 7.75387 7.13364 7.60007 7.91769C7.56097 8.11568 7.38998 8.25862 7.19083 8.25862H6.33897V9.97971H7.19083C7.38998 9.97971 7.56097 10.1221 7.60007 10.3206C7.75387 11.1042 8.05416 11.8395 8.49207 12.506C8.6026 12.6738 8.5807 12.8978 8.43994 13.0407L7.83728 13.6527L9.03582 14.8698L9.63849 14.2578C9.77925 14.1149 9.99977 14.0926 10.165 14.2049C10.8209 14.6496 11.545 14.9545 12.3171 15.1107C12.5121 15.1504 12.6528 15.324 12.6528 15.5262V16.3913H14.3477V15.5262C14.3477 15.324 14.4879 15.1504 14.6834 15.1107C15.455 14.9545 16.1791 14.6496 16.8355 14.2049C17.0008 14.0926 17.2213 14.1149 17.362 14.2578L17.9647 14.8698L19.1632 13.6527L18.5606 13.0407C18.4198 12.8978 18.3979 12.6744 18.5084 12.506C18.9464 11.8395 19.2467 11.1047 19.4004 10.3206C19.4395 10.1226 19.6105 9.97971 19.8097 9.97971H20.6616V8.25809Z"/>
</mask>
<path d="M2.87523 7.30623C3.37467 7.30623 3.84491 7.50475 4.19942 7.86528C4.55445 8.2258 4.74995 8.70332 4.74995 9.20996V14.8645C5.50223 14.4992 6.43177 14.6305 7.05632 15.26L11.0529 19.2866C11.6003 19.8382 11.8234 20.6466 11.6978 21.6244L11.4798 23.3185L11.5049 23.3116C11.8979 23.2047 12.3035 23.4424 12.4088 23.8415L12.755 25.1539C12.8061 25.3472 12.7795 25.5489 12.681 25.7225C12.5825 25.8962 12.4234 26.02 12.2332 26.0719L5.24 27.9746C5.1764 27.9921 5.11227 28 5.04919 28C4.72336 28 4.42411 27.7787 4.33601 27.4441L3.98985 26.1317C3.88454 25.7326 4.11861 25.3207 4.5117 25.2138L4.74734 25.1497C4.85161 24.2121 4.64047 23.5276 4.05866 22.8923L1.88522 20.5185C1.29768 19.8769 1 19.1421 1 18.3337V9.20996C1.00052 8.16015 1.84143 7.30623 2.87523 7.30623ZM5.11749 27.1307L11.9251 25.2783L11.6284 24.1544L4.82085 26.0068L5.11749 27.1307ZM1.83465 18.3337C1.83465 18.9292 2.05101 19.4549 2.49675 19.9415L4.67018 22.3153C5.35522 23.0633 5.65289 23.8823 5.60337 24.9162L10.6082 23.5546L10.8709 21.5138C10.9632 20.798 10.8266 20.2506 10.4658 19.8869L6.46931 15.8603C6.00115 15.3891 5.24313 15.3918 4.77862 15.8672C4.31463 16.3426 4.31724 17.1123 4.7854 17.584L6.92026 19.735C7.08396 19.8996 7.085 20.168 6.92234 20.3337C6.75969 20.4994 6.49589 20.501 6.33271 20.3359L4.19785 18.1849C3.50865 17.4903 3.41377 16.414 3.91581 15.6141V9.2089C3.91581 8.92831 3.80738 8.66361 3.60979 8.46297C3.41221 8.26233 3.15154 8.15221 2.87523 8.15221C2.30124 8.15221 1.83465 8.62656 1.83465 9.2089V18.3337ZM14.5917 23.8405C14.6428 23.6473 14.7648 23.4858 14.9358 23.3857C15.1067 23.2857 15.3054 23.2587 15.4957 23.3106L15.5207 23.3174L15.3028 21.6234C15.1771 20.6456 15.3997 19.8377 15.9477 19.2855L19.9442 15.2589C20.5693 14.6294 21.4988 14.4987 22.2506 14.8634V9.2089C22.2506 8.15909 23.0915 7.30517 24.1253 7.30517C25.1591 7.30517 26 8.15909 26 9.2089V18.3326C26 19.1405 25.7023 19.8758 25.1148 20.5174L22.9413 22.8913C22.3595 23.5266 22.1489 24.2111 22.2527 25.1486L22.4883 25.2127C22.8814 25.3196 23.1155 25.7315 23.0102 26.1307L22.664 27.4431C22.5764 27.7782 22.2772 27.9995 21.9513 27.9995C21.8882 27.9995 21.8241 27.991 21.7605 27.9741L14.7674 26.0714C14.5771 26.0195 14.4181 25.8956 14.3195 25.722C14.221 25.5483 14.1944 25.3466 14.2455 25.1534L14.5917 23.8405ZM22.3309 22.3153L24.5043 19.9415C24.9495 19.4549 25.1664 18.9292 25.1664 18.3337V9.20996C25.1664 8.62708 24.6998 8.15327 24.1258 8.15327C23.5518 8.15327 23.0852 8.62708 23.0852 9.20996V15.6152C23.5873 16.4151 23.4929 17.4914 22.8032 18.186L20.6683 20.3369C20.5046 20.5016 20.2408 20.5005 20.0787 20.3348C19.9166 20.1686 19.9176 19.9007 20.0808 19.736L22.2156 17.5851C22.6838 17.1139 22.6864 16.3436 22.2224 15.8682C21.7579 15.3928 20.9999 15.3902 20.5317 15.8614L16.5352 19.8875C16.1744 20.2512 16.0378 20.7986 16.1301 21.5143L16.3929 23.5551L21.3977 24.9168C21.3487 23.8823 21.6463 23.0633 22.3309 22.3153ZM21.8836 27.1307L22.1802 26.0068L15.3726 24.1544L15.076 25.2783L21.8836 27.1307ZM21.0786 10.8267H20.1428C19.9807 11.48 19.7273 12.1015 19.3858 12.6807L20.0479 13.3531C20.2106 13.5182 20.2106 13.7866 20.0479 13.9518L18.2598 15.7677C18.1816 15.8471 18.0752 15.8915 17.9647 15.8915C17.8542 15.8915 17.7478 15.8471 17.6696 15.7677L17.0075 15.0953C16.4367 15.4421 15.8251 15.6994 15.1818 15.864V16.8143C15.1818 17.0483 14.9952 17.2378 14.7648 17.2378H12.2358C12.0053 17.2378 11.8187 17.0483 11.8187 16.8143V15.864C11.1749 15.6994 10.5633 15.4421 9.99299 15.0953L9.3309 15.7677C9.16824 15.9328 8.90393 15.9328 8.74127 15.7677L6.95258 13.9518C6.87438 13.8724 6.83059 13.7644 6.83059 13.6522C6.83059 13.5399 6.87438 13.4319 6.95258 13.3525L7.61467 12.6802C7.2732 12.1005 7.01983 11.4795 6.8577 10.8262H5.9219C5.69147 10.8262 5.50484 10.6367 5.50484 10.4027V7.83457C5.50484 7.60058 5.69147 7.41105 5.9219 7.41105H6.8577C7.01983 6.75724 7.2732 6.13625 7.61467 5.55709L6.95258 4.88475C6.78992 4.71957 6.78992 4.45117 6.95258 4.28599L8.74075 2.46962C8.81895 2.39021 8.92478 2.34574 9.03582 2.34574C9.14635 2.34574 9.2527 2.39021 9.3309 2.46962L9.99299 3.14196C10.5639 2.79573 11.1754 2.53791 11.8187 2.37327V1.42352C11.8187 1.18953 12.0053 1 12.2358 1H14.7648C14.9952 1 15.1818 1.18953 15.1818 1.42352V2.3738C15.8251 2.53844 16.4372 2.79573 17.0075 3.14249L17.6696 2.47015C17.8323 2.30497 18.0966 2.30497 18.2592 2.47015L20.0479 4.28599C20.1261 4.3654 20.1699 4.47287 20.1699 4.58564C20.1699 4.69787 20.1261 4.80587 20.0479 4.88528L19.3858 5.55762C19.7268 6.13731 19.9807 6.7583 20.1428 7.41158H21.0786C21.309 7.41158 21.4957 7.60111 21.4957 7.8351V10.4032C21.4957 10.6367 21.309 10.8267 21.0786 10.8267ZM20.6616 8.25809H19.8097C19.6105 8.25809 19.4395 8.11568 19.4004 7.91716C19.2467 7.13364 18.9464 6.39831 18.5084 5.73179C18.3979 5.56397 18.4198 5.34003 18.5606 5.19709L19.1632 4.58511L17.9647 3.36801L17.362 3.98C17.2213 4.12294 17.0008 4.14464 16.8355 4.03294C16.1797 3.58824 15.4555 3.28331 14.6834 3.12713C14.4884 3.08743 14.3477 2.91379 14.3477 2.71155V1.84704H12.6528V2.71208C12.6528 2.91432 12.5126 3.08796 12.3171 3.12766C11.5455 3.28384 10.8214 3.58877 10.165 4.03347C9.99977 4.1457 9.77925 4.12347 9.63849 3.98053L9.03582 3.36854L7.83728 4.58564L8.43994 5.19762C8.5807 5.34056 8.6026 5.56397 8.49207 5.73232C8.05416 6.39883 7.75387 7.13364 7.60007 7.91769C7.56097 8.11568 7.38998 8.25862 7.19083 8.25862H6.33897V9.97971H7.19083C7.38998 9.97971 7.56097 10.1221 7.60007 10.3206C7.75387 11.1042 8.05416 11.8395 8.49207 12.506C8.6026 12.6738 8.5807 12.8978 8.43994 13.0407L7.83728 13.6527L9.03582 14.8698L9.63849 14.2578C9.77925 14.1149 9.99977 14.0926 10.165 14.2049C10.8209 14.6496 11.545 14.9545 12.3171 15.1107C12.5121 15.1504 12.6528 15.324 12.6528 15.5262V16.3913H14.3477V15.5262C14.3477 15.324 14.4879 15.1504 14.6834 15.1107C15.455 14.9545 16.1791 14.6496 16.8355 14.2049C17.0008 14.0926 17.2213 14.1149 17.362 14.2578L17.9647 14.8698L19.1632 13.6527L18.5606 13.0407C18.4198 12.8978 18.3979 12.6744 18.5084 12.506C18.9464 11.8395 19.2467 11.1047 19.4004 10.3206C19.4395 10.1226 19.6105 9.97971 19.8097 9.97971H20.6616V8.25809Z" fill="#FFFFFF"/>
<path d="M2.87523 7.30623C3.37467 7.30623 3.84491 7.50475 4.19942 7.86528C4.55445 8.2258 4.74995 8.70332 4.74995 9.20996V14.8645C5.50223 14.4992 6.43177 14.6305 7.05632 15.26L11.0529 19.2866C11.6003 19.8382 11.8234 20.6466 11.6978 21.6244L11.4798 23.3185L11.5049 23.3116C11.8979 23.2047 12.3035 23.4424 12.4088 23.8415L12.755 25.1539C12.8061 25.3472 12.7795 25.5489 12.681 25.7225C12.5825 25.8962 12.4234 26.02 12.2332 26.0719L5.24 27.9746C5.1764 27.9921 5.11227 28 5.04919 28C4.72336 28 4.42411 27.7787 4.33601 27.4441L3.98985 26.1317C3.88454 25.7326 4.11861 25.3207 4.5117 25.2138L4.74734 25.1497C4.85161 24.2121 4.64047 23.5276 4.05866 22.8923L1.88522 20.5185C1.29768 19.8769 1 19.1421 1 18.3337V9.20996C1.00052 8.16015 1.84143 7.30623 2.87523 7.30623ZM5.11749 27.1307L11.9251 25.2783L11.6284 24.1544L4.82085 26.0068L5.11749 27.1307ZM1.83465 18.3337C1.83465 18.9292 2.05101 19.4549 2.49675 19.9415L4.67018 22.3153C5.35522 23.0633 5.65289 23.8823 5.60337 24.9162L10.6082 23.5546L10.8709 21.5138C10.9632 20.798 10.8266 20.2506 10.4658 19.8869L6.46931 15.8603C6.00115 15.3891 5.24313 15.3918 4.77862 15.8672C4.31463 16.3426 4.31724 17.1123 4.7854 17.584L6.92026 19.735C7.08396 19.8996 7.085 20.168 6.92234 20.3337C6.75969 20.4994 6.49589 20.501 6.33271 20.3359L4.19785 18.1849C3.50865 17.4903 3.41377 16.414 3.91581 15.6141V9.2089C3.91581 8.92831 3.80738 8.66361 3.60979 8.46297C3.41221 8.26233 3.15154 8.15221 2.87523 8.15221C2.30124 8.15221 1.83465 8.62656 1.83465 9.2089V18.3337ZM14.5917 23.8405C14.6428 23.6473 14.7648 23.4858 14.9358 23.3857C15.1067 23.2857 15.3054 23.2587 15.4957 23.3106L15.5207 23.3174L15.3028 21.6234C15.1771 20.6456 15.3997 19.8377 15.9477 19.2855L19.9442 15.2589C20.5693 14.6294 21.4988 14.4987 22.2506 14.8634V9.2089C22.2506 8.15909 23.0915 7.30517 24.1253 7.30517C25.1591 7.30517 26 8.15909 26 9.2089V18.3326C26 19.1405 25.7023 19.8758 25.1148 20.5174L22.9413 22.8913C22.3595 23.5266 22.1489 24.2111 22.2527 25.1486L22.4883 25.2127C22.8814 25.3196 23.1155 25.7315 23.0102 26.1307L22.664 27.4431C22.5764 27.7782 22.2772 27.9995 21.9513 27.9995C21.8882 27.9995 21.8241 27.991 21.7605 27.9741L14.7674 26.0714C14.5771 26.0195 14.4181 25.8956 14.3195 25.722C14.221 25.5483 14.1944 25.3466 14.2455 25.1534L14.5917 23.8405ZM22.3309 22.3153L24.5043 19.9415C24.9495 19.4549 25.1664 18.9292 25.1664 18.3337V9.20996C25.1664 8.62708 24.6998 8.15327 24.1258 8.15327C23.5518 8.15327 23.0852 8.62708 23.0852 9.20996V15.6152C23.5873 16.4151 23.4929 17.4914 22.8032 18.186L20.6683 20.3369C20.5046 20.5016 20.2408 20.5005 20.0787 20.3348C19.9166 20.1686 19.9176 19.9007 20.0808 19.736L22.2156 17.5851C22.6838 17.1139 22.6864 16.3436 22.2224 15.8682C21.7579 15.3928 20.9999 15.3902 20.5317 15.8614L16.5352 19.8875C16.1744 20.2512 16.0378 20.7986 16.1301 21.5143L16.3929 23.5551L21.3977 24.9168C21.3487 23.8823 21.6463 23.0633 22.3309 22.3153ZM21.8836 27.1307L22.1802 26.0068L15.3726 24.1544L15.076 25.2783L21.8836 27.1307ZM21.0786 10.8267H20.1428C19.9807 11.48 19.7273 12.1015 19.3858 12.6807L20.0479 13.3531C20.2106 13.5182 20.2106 13.7866 20.0479 13.9518L18.2598 15.7677C18.1816 15.8471 18.0752 15.8915 17.9647 15.8915C17.8542 15.8915 17.7478 15.8471 17.6696 15.7677L17.0075 15.0953C16.4367 15.4421 15.8251 15.6994 15.1818 15.864V16.8143C15.1818 17.0483 14.9952 17.2378 14.7648 17.2378H12.2358C12.0053 17.2378 11.8187 17.0483 11.8187 16.8143V15.864C11.1749 15.6994 10.5633 15.4421 9.99299 15.0953L9.3309 15.7677C9.16824 15.9328 8.90393 15.9328 8.74127 15.7677L6.95258 13.9518C6.87438 13.8724 6.83059 13.7644 6.83059 13.6522C6.83059 13.5399 6.87438 13.4319 6.95258 13.3525L7.61467 12.6802C7.2732 12.1005 7.01983 11.4795 6.8577 10.8262H5.9219C5.69147 10.8262 5.50484 10.6367 5.50484 10.4027V7.83457C5.50484 7.60058 5.69147 7.41105 5.9219 7.41105H6.8577C7.01983 6.75724 7.2732 6.13625 7.61467 5.55709L6.95258 4.88475C6.78992 4.71957 6.78992 4.45117 6.95258 4.28599L8.74075 2.46962C8.81895 2.39021 8.92478 2.34574 9.03582 2.34574C9.14635 2.34574 9.2527 2.39021 9.3309 2.46962L9.99299 3.14196C10.5639 2.79573 11.1754 2.53791 11.8187 2.37327V1.42352C11.8187 1.18953 12.0053 1 12.2358 1H14.7648C14.9952 1 15.1818 1.18953 15.1818 1.42352V2.3738C15.8251 2.53844 16.4372 2.79573 17.0075 3.14249L17.6696 2.47015C17.8323 2.30497 18.0966 2.30497 18.2592 2.47015L20.0479 4.28599C20.1261 4.3654 20.1699 4.47287 20.1699 4.58564C20.1699 4.69787 20.1261 4.80587 20.0479 4.88528L19.3858 5.55762C19.7268 6.13731 19.9807 6.7583 20.1428 7.41158H21.0786C21.309 7.41158 21.4957 7.60111 21.4957 7.8351V10.4032C21.4957 10.6367 21.309 10.8267 21.0786 10.8267ZM20.6616 8.25809H19.8097C19.6105 8.25809 19.4395 8.11568 19.4004 7.91716C19.2467 7.13364 18.9464 6.39831 18.5084 5.73179C18.3979 5.56397 18.4198 5.34003 18.5606 5.19709L19.1632 4.58511L17.9647 3.36801L17.362 3.98C17.2213 4.12294 17.0008 4.14464 16.8355 4.03294C16.1797 3.58824 15.4555 3.28331 14.6834 3.12713C14.4884 3.08743 14.3477 2.91379 14.3477 2.71155V1.84704H12.6528V2.71208C12.6528 2.91432 12.5126 3.08796 12.3171 3.12766C11.5455 3.28384 10.8214 3.58877 10.165 4.03347C9.99977 4.1457 9.77925 4.12347 9.63849 3.98053L9.03582 3.36854L7.83728 4.58564L8.43994 5.19762C8.5807 5.34056 8.6026 5.56397 8.49207 5.73232C8.05416 6.39883 7.75387 7.13364 7.60007 7.91769C7.56097 8.11568 7.38998 8.25862 7.19083 8.25862H6.33897V9.97971H7.19083C7.38998 9.97971 7.56097 10.1221 7.60007 10.3206C7.75387 11.1042 8.05416 11.8395 8.49207 12.506C8.6026 12.6738 8.5807 12.8978 8.43994 13.0407L7.83728 13.6527L9.03582 14.8698L9.63849 14.2578C9.77925 14.1149 9.99977 14.0926 10.165 14.2049C10.8209 14.6496 11.545 14.9545 12.3171 15.1107C12.5121 15.1504 12.6528 15.324 12.6528 15.5262V16.3913H14.3477V15.5262C14.3477 15.324 14.4879 15.1504 14.6834 15.1107C15.455 14.9545 16.1791 14.6496 16.8355 14.2049C17.0008 14.0926 17.2213 14.1149 17.362 14.2578L17.9647 14.8698L19.1632 13.6527L18.5606 13.0407C18.4198 12.8978 18.3979 12.6744 18.5084 12.506C18.9464 11.8395 19.2467 11.1047 19.4004 10.3206C19.4395 10.1226 19.6105 9.97971 19.8097 9.97971H20.6616V8.25809Z" stroke="#FFFFFF" stroke-width="0.6" mask="url(#path-2-outside-1_497_758)"/>
</svg>
