<svg width="1920" height="694" viewBox="0 0 1920 694" fill="none" xmlns="http://www.w3.org/2000/svg">
<rect x="-2" width="1925" height="694" fill="url(#paint0_linear_467_862)"/>
<mask id="mask0_467_862" style="mask-type:alpha" maskUnits="userSpaceOnUse" x="3" y="0" width="1917" height="694">
<path d="M3 0H1920V694H3V0Z" fill="url(#paint1_linear_467_862)"/>
</mask>
<g mask="url(#mask0_467_862)">
<g style="mix-blend-mode:soft-light">
<path fill-rule="evenodd" clip-rule="evenodd" d="M430.523 161.599C430.524 161.971 430.636 162.334 430.845 162.643C431.054 162.952 431.35 163.192 431.696 163.334C432.042 163.475 432.422 163.512 432.789 163.438C433.156 163.365 433.493 163.185 433.757 162.921C434.021 162.658 434.2 162.322 434.273 161.957C434.345 161.592 434.307 161.214 434.164 160.87C434.021 160.526 433.778 160.233 433.467 160.026C433.156 159.819 432.79 159.709 432.416 159.709C431.913 159.711 431.432 159.91 431.077 160.265C430.722 160.619 430.523 161.099 430.523 161.599ZM430.523 146.977C430.524 147.349 430.636 147.713 430.845 148.022C431.054 148.33 431.35 148.571 431.696 148.712C432.042 148.854 432.422 148.89 432.789 148.817C433.156 148.743 433.493 148.563 433.757 148.3C434.021 148.036 434.2 147.701 434.273 147.335C434.345 146.97 434.307 146.592 434.164 146.248C434.021 145.905 433.778 145.611 433.467 145.404C433.156 145.198 432.79 145.087 432.416 145.087C431.913 145.089 431.432 145.289 431.077 145.642C430.723 145.996 430.523 146.476 430.523 146.976V146.977ZM430.523 132.355C430.524 132.728 430.636 133.091 430.845 133.4C431.054 133.709 431.35 133.949 431.696 134.091C432.042 134.232 432.422 134.268 432.789 134.195C433.156 134.122 433.493 133.942 433.757 133.678C434.021 133.415 434.2 133.079 434.273 132.714C434.345 132.349 434.307 131.97 434.164 131.627C434.021 131.283 433.778 130.989 433.467 130.783C433.156 130.576 432.79 130.466 432.416 130.466C431.913 130.467 431.432 130.667 431.077 131.021C430.723 131.375 430.523 131.854 430.523 132.354V132.355ZM430.523 117.77C430.524 118.27 430.724 118.748 431.08 119.101C431.435 119.454 431.917 119.651 432.419 119.65C432.921 119.649 433.402 119.45 433.757 119.096C434.111 118.743 434.31 118.263 434.309 117.764V117.717C434.308 117.218 434.108 116.739 433.752 116.386C433.397 116.034 432.915 115.836 432.413 115.837C431.911 115.838 431.43 116.037 431.075 116.391C430.721 116.744 430.522 117.224 430.523 117.723V117.77ZM445.167 161.599C445.168 161.971 445.28 162.334 445.489 162.643C445.698 162.952 445.994 163.192 446.34 163.334C446.686 163.475 447.066 163.512 447.433 163.438C447.8 163.365 448.136 163.185 448.401 162.921C448.665 162.658 448.844 162.322 448.917 161.957C448.989 161.592 448.951 161.214 448.808 160.87C448.664 160.526 448.422 160.233 448.111 160.026C447.8 159.819 447.434 159.709 447.06 159.709C446.557 159.711 446.076 159.91 445.721 160.265C445.366 160.619 445.167 161.099 445.167 161.599ZM445.167 146.977C445.168 147.349 445.28 147.713 445.489 148.022C445.698 148.33 445.994 148.571 446.34 148.712C446.686 148.854 447.066 148.89 447.433 148.817C447.8 148.743 448.136 148.563 448.401 148.3C448.665 148.036 448.844 147.701 448.917 147.335C448.989 146.97 448.951 146.592 448.808 146.248C448.664 145.905 448.422 145.611 448.111 145.404C447.8 145.198 447.434 145.087 447.06 145.087C446.557 145.089 446.076 145.289 445.721 145.642C445.366 145.996 445.167 146.476 445.167 146.976V146.977ZM445.167 132.355C445.168 132.728 445.28 133.091 445.489 133.4C445.698 133.709 445.994 133.949 446.34 134.091C446.686 134.232 447.066 134.268 447.433 134.195C447.8 134.122 448.136 133.942 448.401 133.678C448.665 133.415 448.844 133.079 448.917 132.714C448.989 132.349 448.951 131.97 448.808 131.627C448.664 131.283 448.422 130.989 448.111 130.783C447.8 130.576 447.434 130.466 447.06 130.466C446.557 130.467 446.076 130.667 445.721 131.021C445.366 131.375 445.167 131.854 445.167 132.354V132.355ZM445.167 117.768C445.168 118.268 445.368 118.746 445.724 119.099C446.08 119.451 446.562 119.648 447.064 119.647C447.566 119.646 448.047 119.447 448.401 119.093C448.755 118.739 448.954 118.26 448.953 117.76V117.722C448.953 117.223 448.753 116.744 448.398 116.391C448.043 116.037 447.562 115.839 447.06 115.839C446.558 115.839 446.076 116.037 445.721 116.391C445.366 116.744 445.167 117.223 445.167 117.722V117.769V117.768ZM459.811 161.599C459.812 161.971 459.924 162.334 460.133 162.643C460.342 162.952 460.638 163.192 460.984 163.334C461.33 163.475 461.71 163.512 462.077 163.438C462.444 163.365 462.78 163.185 463.044 162.921C463.308 162.658 463.488 162.322 463.561 161.957C463.633 161.592 463.595 161.214 463.452 160.87C463.308 160.526 463.066 160.233 462.754 160.026C462.443 159.819 462.078 159.709 461.703 159.709C461.201 159.711 460.719 159.91 460.365 160.265C460.01 160.619 459.811 161.099 459.811 161.599ZM459.811 146.977C459.812 147.349 459.924 147.713 460.133 148.022C460.342 148.33 460.638 148.571 460.984 148.712C461.33 148.854 461.71 148.89 462.077 148.817C462.444 148.743 462.78 148.563 463.044 148.3C463.308 148.036 463.488 147.701 463.561 147.335C463.633 146.97 463.595 146.592 463.452 146.248C463.308 145.905 463.066 145.611 462.754 145.404C462.443 145.198 462.078 145.087 461.703 145.087C461.201 145.089 460.72 145.289 460.365 145.642C460.01 145.996 459.811 146.476 459.811 146.976V146.977ZM459.811 132.355C459.812 132.728 459.924 133.091 460.133 133.4C460.342 133.709 460.638 133.949 460.984 134.091C461.33 134.232 461.71 134.268 462.077 134.195C462.444 134.122 462.78 133.942 463.044 133.678C463.308 133.415 463.488 133.079 463.561 132.714C463.633 132.349 463.595 131.97 463.452 131.627C463.308 131.283 463.066 130.989 462.754 130.783C462.443 130.576 462.078 130.466 461.703 130.466C461.201 130.467 460.72 130.667 460.365 131.021C460.01 131.375 459.811 131.854 459.811 132.354V132.355ZM459.811 117.768C459.811 118.268 460.011 118.746 460.367 119.099C460.722 119.452 461.204 119.65 461.706 119.649C462.208 119.649 462.689 119.45 463.044 119.096C463.398 118.742 463.597 118.263 463.596 117.764V117.717C463.596 117.218 463.395 116.739 463.04 116.387C462.684 116.034 462.202 115.836 461.7 115.837C461.198 115.838 460.717 116.037 460.363 116.391C460.008 116.745 459.81 117.224 459.811 117.723V117.767V117.768ZM474.454 161.599C474.456 161.97 474.568 162.333 474.777 162.642C474.986 162.95 475.282 163.19 475.627 163.331C475.973 163.472 476.353 163.508 476.719 163.435C477.085 163.362 477.422 163.182 477.685 162.919C477.949 162.655 478.129 162.32 478.201 161.956C478.274 161.591 478.236 161.213 478.093 160.87C477.95 160.526 477.707 160.233 477.397 160.026C477.086 159.82 476.721 159.709 476.347 159.709C476.098 159.709 475.852 159.759 475.622 159.854C475.392 159.949 475.183 160.088 475.007 160.264C474.832 160.439 474.692 160.647 474.597 160.877C474.503 161.106 474.454 161.351 474.454 161.599ZM474.454 146.977C474.456 147.349 474.568 147.712 474.777 148.02C474.986 148.328 475.282 148.568 475.627 148.709C475.973 148.851 476.353 148.887 476.719 148.813C477.085 148.74 477.422 148.56 477.685 148.297C477.949 148.034 478.129 147.699 478.201 147.334C478.274 146.969 478.236 146.591 478.093 146.248C477.95 145.905 477.707 145.611 477.397 145.405C477.086 145.198 476.721 145.088 476.347 145.087C475.845 145.088 475.363 145.288 475.008 145.642C474.653 145.996 474.454 146.475 474.454 146.976V146.977ZM474.454 132.355C474.456 132.727 474.568 133.09 474.777 133.398C474.986 133.707 475.282 133.947 475.627 134.088C475.973 134.229 476.353 134.265 476.719 134.192C477.085 134.118 477.422 133.939 477.685 133.675C477.949 133.412 478.129 133.077 478.201 132.712C478.274 132.348 478.236 131.97 478.093 131.626C477.95 131.283 477.707 130.99 477.397 130.783C477.086 130.576 476.721 130.466 476.347 130.466C475.845 130.467 475.363 130.666 475.008 131.02C474.653 131.374 474.454 131.854 474.454 132.354V132.355ZM474.454 117.768C474.455 118.015 474.504 118.26 474.599 118.488C474.695 118.716 474.834 118.923 475.01 119.098C475.186 119.272 475.394 119.411 475.624 119.505C475.854 119.599 476.1 119.648 476.348 119.648C476.596 119.647 476.842 119.598 477.072 119.503C477.301 119.409 477.509 119.27 477.685 119.095C477.86 118.92 477.999 118.712 478.094 118.484C478.189 118.256 478.237 118.011 478.237 117.764L478.24 117.788L478.237 117.717C478.237 117.469 478.188 117.225 478.092 116.997C477.997 116.769 477.857 116.561 477.681 116.387C477.506 116.212 477.297 116.074 477.067 115.98C476.838 115.885 476.592 115.837 476.343 115.837C476.095 115.838 475.849 115.887 475.62 115.981C475.39 116.076 475.182 116.215 475.007 116.39C474.831 116.565 474.692 116.773 474.597 117.001C474.503 117.229 474.454 117.474 474.454 117.721V117.768ZM430.523 103.133C430.524 103.505 430.636 103.869 430.845 104.177C431.054 104.486 431.35 104.727 431.696 104.868C432.042 105.01 432.422 105.046 432.789 104.973C433.156 104.899 433.493 104.719 433.757 104.456C434.021 104.192 434.2 103.856 434.273 103.491C434.345 103.126 434.307 102.748 434.164 102.404C434.021 102.061 433.778 101.767 433.467 101.56C433.156 101.354 432.79 101.243 432.416 101.243C431.913 101.245 431.432 101.445 431.077 101.799C430.722 102.153 430.523 102.633 430.523 103.133ZM430.523 88.5114C430.524 88.8835 430.636 89.247 430.845 89.5558C431.054 89.8646 431.35 90.1049 431.696 90.2465C432.042 90.388 432.422 90.4243 432.789 90.3509C433.156 90.2775 433.493 90.0977 433.757 89.834C434.021 89.5704 434.2 89.2348 434.273 88.8697C434.345 88.5046 434.307 88.1263 434.164 87.7826C434.021 87.4389 433.778 87.1452 433.467 86.9385C433.156 86.7319 432.79 86.6216 432.416 86.6216C431.913 86.6232 431.432 86.823 431.077 87.1773C430.722 87.5315 430.523 88.0113 430.523 88.5114ZM430.523 73.8897C430.524 74.2619 430.636 74.6254 430.845 74.9342C431.054 75.243 431.35 75.4833 431.696 75.6248C432.042 75.7664 432.422 75.8027 432.789 75.7293C433.156 75.6559 433.493 75.476 433.757 75.2124C434.021 74.9488 434.2 74.6132 434.273 74.2481C434.345 73.883 434.307 73.5047 434.164 73.161C434.021 72.8173 433.778 72.5235 433.467 72.3169C433.156 72.1103 432.79 72 432.416 72C431.913 72.0016 431.432 72.2014 431.077 72.5556C430.722 72.9099 430.523 73.3896 430.523 73.8897ZM445.167 103.133C445.168 103.505 445.28 103.869 445.489 104.177C445.698 104.486 445.994 104.727 446.34 104.868C446.686 105.01 447.066 105.046 447.433 104.973C447.8 104.899 448.136 104.719 448.401 104.456C448.665 104.192 448.844 103.856 448.917 103.491C448.989 103.126 448.951 102.748 448.808 102.404C448.664 102.061 448.422 101.767 448.111 101.56C447.8 101.354 447.434 101.243 447.06 101.243C446.557 101.245 446.075 101.445 445.721 101.799C445.366 102.153 445.167 102.633 445.167 103.133ZM445.167 88.5114C445.168 88.8835 445.28 89.247 445.489 89.5558C445.698 89.8646 445.994 90.1049 446.34 90.2465C446.686 90.388 447.066 90.4243 447.433 90.3509C447.8 90.2775 448.136 90.0977 448.401 89.834C448.665 89.5704 448.844 89.2348 448.917 88.8697C448.989 88.5046 448.951 88.1263 448.808 87.7826C448.664 87.4389 448.422 87.1452 448.111 86.9385C447.8 86.7319 447.434 86.6216 447.06 86.6216C446.557 86.6232 446.075 86.823 445.721 87.1773C445.366 87.5315 445.167 88.0113 445.167 88.5114ZM445.167 73.8897C445.168 74.2619 445.28 74.6254 445.489 74.9342C445.698 75.243 445.994 75.4833 446.34 75.6248C446.686 75.7664 447.066 75.8027 447.433 75.7293C447.8 75.6559 448.136 75.476 448.401 75.2124C448.665 74.9488 448.844 74.6132 448.917 74.2481C448.989 73.883 448.951 73.5047 448.808 73.161C448.664 72.8173 448.422 72.5235 448.111 72.3169C447.8 72.1103 447.434 72 447.06 72C446.557 72.0016 446.075 72.2014 445.721 72.5556C445.366 72.9099 445.167 73.3896 445.167 73.8897ZM459.811 103.133C459.812 103.505 459.924 103.869 460.133 104.177C460.342 104.486 460.638 104.727 460.984 104.868C461.33 105.01 461.71 105.046 462.077 104.973C462.444 104.899 462.78 104.719 463.044 104.456C463.308 104.192 463.488 103.856 463.561 103.491C463.633 103.126 463.595 102.748 463.452 102.404C463.308 102.061 463.066 101.767 462.754 101.56C462.443 101.354 462.078 101.243 461.703 101.243C461.201 101.245 460.719 101.445 460.364 101.799C460.01 102.153 459.81 102.633 459.811 103.133ZM459.811 88.5114C459.812 88.8835 459.924 89.247 460.133 89.5558C460.342 89.8646 460.638 90.1049 460.984 90.2465C461.33 90.388 461.71 90.4243 462.077 90.3509C462.444 90.2775 462.78 90.0977 463.044 89.834C463.308 89.5704 463.488 89.2348 463.561 88.8697C463.633 88.5046 463.595 88.1263 463.452 87.7826C463.308 87.4389 463.066 87.1452 462.754 86.9385C462.443 86.7319 462.078 86.6216 461.703 86.6216C461.201 86.6232 460.719 86.823 460.364 87.1773C460.01 87.5315 459.81 88.0113 459.811 88.5114ZM459.811 73.8897C459.812 74.2619 459.924 74.6254 460.133 74.9342C460.342 75.243 460.638 75.4833 460.984 75.6248C461.33 75.7664 461.71 75.8027 462.077 75.7293C462.444 75.6559 462.78 75.476 463.044 75.2124C463.308 74.9488 463.488 74.6132 463.561 74.2481C463.633 73.883 463.595 73.5047 463.452 73.161C463.308 72.8173 463.066 72.5235 462.754 72.3169C462.443 72.1103 462.078 72 461.703 72C461.201 72.0016 460.719 72.2014 460.364 72.5556C460.01 72.9099 459.81 73.3896 459.811 73.8897ZM474.454 103.133C474.456 103.505 474.568 103.868 474.777 104.176C474.986 104.484 475.282 104.724 475.627 104.865C475.973 105.007 476.353 105.043 476.719 104.969C477.085 104.896 477.422 104.716 477.685 104.453C477.949 104.19 478.129 103.855 478.201 103.49C478.274 103.125 478.236 102.747 478.093 102.404C477.95 102.061 477.707 101.767 477.397 101.561C477.086 101.354 476.721 101.244 476.347 101.243C476.098 101.244 475.852 101.293 475.622 101.388C475.392 101.483 475.183 101.623 475.007 101.798C474.832 101.974 474.692 102.182 474.597 102.411C474.503 102.64 474.454 102.885 474.454 103.133ZM474.454 88.5114C474.456 88.8831 474.568 89.246 474.777 89.5543C474.986 89.8626 475.282 90.1025 475.627 90.2437C475.973 90.3849 476.353 90.4211 476.719 90.3477C477.085 90.2743 477.422 90.0947 477.685 89.8313C477.949 89.568 478.129 89.2329 478.201 88.8682C478.274 88.5036 478.236 88.1257 478.093 87.7824C477.95 87.439 477.707 87.1455 477.397 86.9389C477.086 86.7323 476.721 86.6219 476.347 86.6216C476.098 86.622 475.852 86.6712 475.622 86.7664C475.392 86.8616 475.183 87.001 475.007 87.1764C474.832 87.3519 474.692 87.5601 474.597 87.7892C474.503 88.0182 474.454 88.2636 474.454 88.5114ZM474.454 73.8897C474.456 74.2615 474.568 74.6244 474.777 74.9327C474.986 75.241 475.282 75.4809 475.627 75.6221C475.973 75.7633 476.353 75.7995 476.719 75.7261C477.085 75.6527 477.422 75.473 477.685 75.2097C477.949 74.9464 478.129 74.6113 478.201 74.2466C478.274 73.882 478.236 73.5041 478.093 73.1607C477.95 72.8174 477.707 72.5239 477.397 72.3173C477.086 72.1107 476.721 72.0003 476.347 72C476.098 72.0004 475.852 72.0496 475.622 72.1448C475.392 72.24 475.183 72.3793 475.007 72.5548C474.832 72.7303 474.692 72.9385 474.597 73.1676C474.503 73.3966 474.454 73.642 474.454 73.8897Z" fill="#F5F5F5"/>
<path fill-rule="evenodd" clip-rule="evenodd" d="M114.306 491.492C150.375 491.492 179.612 520.579 179.612 556.463C179.612 592.346 150.375 621.433 114.306 621.433C78.2369 621.433 48.9997 592.346 48.9997 556.463C48.9997 520.579 78.2369 491.492 114.306 491.492ZM114.306 605.943C124.143 605.943 133.759 603.041 141.938 597.604C150.117 592.167 156.492 584.439 160.257 575.398C164.021 566.357 165.006 556.408 163.087 546.809C161.168 537.211 156.431 528.394 149.475 521.474C142.519 514.554 133.657 509.842 124.009 507.933C114.361 506.023 104.361 507.003 95.2727 510.748C86.1845 514.493 78.4168 520.835 72.9516 528.973C67.4865 537.11 64.5695 546.676 64.5695 556.463C64.5703 569.585 69.8107 582.17 79.138 591.45C88.4652 600.729 101.115 605.942 114.306 605.943Z" fill="#F5F5F5" fill-opacity="0.3"/>
<path fill-rule="evenodd" clip-rule="evenodd" d="M428.008 512.337L232.842 588.446C167.64 613.874 97.1477 566.065 97.1477 496.42V199.633C97.1477 145.039 141.654 100.781 196.551 100.781H307.148C327.289 100.779 346.956 106.864 363.543 118.23C380.13 129.596 392.855 145.707 400.032 164.429L484.605 385.104C504.024 435.773 478.772 492.541 428.008 512.337Z" fill="#F5F5F5" fill-opacity="0.3"/>
<path fill-rule="evenodd" clip-rule="evenodd" d="M428.008 512.337L232.842 588.446C167.64 613.874 97.1477 566.065 97.1477 496.42V199.633C97.1477 145.039 141.654 100.781 196.551 100.781H307.148C327.289 100.779 346.956 106.864 363.543 118.23C380.13 129.596 392.855 145.707 400.032 164.429L484.605 385.104C504.024 435.773 478.772 492.541 428.008 512.337Z" fill="#F5F5F5" fill-opacity="0.3"/>
<path fill-rule="evenodd" clip-rule="evenodd" d="M454.331 273.367C461.781 273.367 469.064 275.565 475.259 279.684C481.454 283.802 486.282 289.655 489.133 296.503C491.984 303.351 492.73 310.886 491.276 318.155C489.823 325.425 486.235 332.103 480.966 337.344C475.698 342.585 468.986 346.154 461.679 347.6C454.372 349.046 446.797 348.304 439.914 345.468C433.031 342.631 427.147 337.828 423.008 331.665C418.869 325.502 416.659 318.257 416.659 310.844C416.659 305.923 417.634 301.049 419.527 296.502C421.42 291.955 424.195 287.824 427.693 284.344C431.191 280.864 435.344 278.103 439.914 276.22C444.485 274.336 449.384 273.367 454.331 273.367ZM454.331 339.386C460.005 339.385 465.551 337.711 470.269 334.575C474.987 331.439 478.664 326.981 480.835 321.766C483.006 316.55 483.574 310.811 482.467 305.275C481.36 299.739 478.627 294.653 474.615 290.662C470.603 286.67 465.491 283.952 459.926 282.851C454.36 281.75 448.592 282.315 443.35 284.475C438.108 286.636 433.627 290.294 430.475 294.988C427.323 299.681 425.64 305.199 425.64 310.844C425.64 314.593 426.382 318.304 427.824 321.767C429.265 325.23 431.379 328.377 434.043 331.027C436.707 333.678 439.87 335.78 443.351 337.214C446.832 338.648 450.563 339.386 454.331 339.386Z" fill="#F5F5F5" fill-opacity="0.3"/>
<path fill-rule="evenodd" clip-rule="evenodd" d="M88.2388 126.672C94.3848 126.672 100.393 128.485 105.503 131.883C110.613 135.28 114.596 140.108 116.947 145.757C119.299 151.406 119.914 157.622 118.715 163.619C117.516 169.616 114.556 175.124 110.21 179.448C105.864 183.771 100.327 186.715 94.2995 187.908C88.2716 189.101 82.0235 188.489 76.3454 186.149C70.6672 183.809 65.814 179.846 62.3995 174.762C58.985 169.678 57.1625 163.701 57.1625 157.587C57.1623 153.527 57.9659 149.507 59.5276 145.756C61.0892 142.005 63.3783 138.597 66.264 135.726C69.1498 132.855 72.5758 130.578 76.3462 129.024C80.1167 127.471 84.1578 126.671 88.2388 126.672ZM88.2388 181.131C92.9195 181.131 97.495 179.75 101.387 177.163C105.279 174.576 108.312 170.899 110.103 166.597C111.894 162.294 112.363 157.56 111.45 152.993C110.537 148.426 108.283 144.231 104.973 140.938C101.663 137.646 97.4463 135.403 92.8556 134.495C88.2648 133.587 83.5064 134.053 79.182 135.835C74.8577 137.617 71.1616 140.635 68.5612 144.507C65.9608 148.378 64.5728 152.93 64.5729 157.587C64.573 163.831 67.0663 169.82 71.5046 174.235C75.9428 178.65 81.9623 181.131 88.2388 181.131Z" fill="#F5F5F5" fill-opacity="0.3"/>
<path fill-rule="evenodd" clip-rule="evenodd" d="M58.6768 286.002C58.6771 285.541 58.5398 285.09 58.2824 284.706C58.0249 284.322 57.6588 284.023 57.2303 283.846C56.8019 283.669 56.3304 283.623 55.8755 283.713C55.4206 283.802 55.0026 284.024 54.6745 284.351C54.3464 284.677 54.123 285.092 54.0324 285.545C53.9418 285.998 53.9881 286.467 54.1655 286.893C54.343 287.319 54.6434 287.684 55.0291 287.94C55.4147 288.197 55.8681 288.333 56.3319 288.333C56.9533 288.333 57.5492 288.087 57.9887 287.65C58.4283 287.213 58.6758 286.62 58.6768 286.002ZM58.6768 304.04C58.6771 303.578 58.5398 303.127 58.2824 302.743C58.0249 302.359 57.6588 302.06 57.2303 301.883C56.8019 301.707 56.3304 301.66 55.8755 301.75C55.4206 301.84 55.0026 302.062 54.6745 302.388C54.3464 302.714 54.123 303.13 54.0324 303.582C53.9418 304.035 53.9881 304.504 54.1655 304.93C54.343 305.357 54.6434 305.721 55.0291 305.978C55.4147 306.234 55.8681 306.371 56.3319 306.371C56.9533 306.37 57.5492 306.124 57.9887 305.687C58.4283 305.25 58.6758 304.658 58.6768 304.04ZM58.6768 322.077C58.677 321.615 58.5397 321.164 58.2822 320.78C58.0247 320.397 57.6585 320.097 57.2301 319.921C56.8017 319.744 56.3302 319.698 55.8753 319.787C55.4203 319.877 55.0025 320.099 54.6744 320.426C54.3464 320.752 54.1229 321.167 54.0323 321.62C53.9417 322.072 53.9881 322.542 54.1655 322.968C54.343 323.394 54.6435 323.759 55.0292 324.015C55.4148 324.271 55.8681 324.408 56.3319 324.408C56.9534 324.408 57.5493 324.162 57.9889 323.725C58.4285 323.288 58.6758 322.695 58.6768 322.077ZM58.6768 340.069C58.6757 339.45 58.4277 338.858 57.9872 338.421C57.5467 337.984 56.9499 337.739 56.328 337.74C55.7061 337.741 55.1102 337.988 54.6712 338.426C54.2322 338.865 53.9861 339.458 53.9872 340.077V340.135C53.9881 340.753 54.2361 341.346 54.6765 341.783C55.1169 342.22 55.7137 342.465 56.3356 342.464C56.9575 342.463 57.5535 342.216 57.9925 341.778C58.4316 341.34 58.6777 340.746 58.6768 340.127V340.069ZM58.6768 358.122C58.6768 357.661 58.5392 357.21 58.2816 356.826C58.0239 356.443 57.6577 356.144 57.2293 355.967C56.8008 355.791 56.3293 355.744 55.8745 355.834C55.4197 355.924 55.0019 356.147 54.674 356.473C54.346 356.799 54.1227 357.215 54.0322 357.667C53.9417 358.12 53.9882 358.589 54.1657 359.015C54.3432 359.441 54.6436 359.806 55.0292 360.062C55.4148 360.318 55.8682 360.455 56.3319 360.455C56.9536 360.454 57.5497 360.208 57.9893 359.771C58.4289 359.334 58.6761 358.741 58.6768 358.122ZM58.6768 376.162C58.6774 375.7 58.5404 375.249 58.2831 374.865C58.0259 374.481 57.6599 374.181 57.2315 374.004C56.8031 373.827 56.3315 373.78 55.8764 373.87C55.4214 373.96 55.0033 374.182 54.675 374.508C54.3468 374.834 54.1232 375.25 54.0325 375.702C53.9417 376.155 53.988 376.624 54.1654 377.05C54.3428 377.477 54.6433 377.841 55.0289 378.098C55.4146 378.354 55.868 378.491 56.3319 378.491C56.953 378.49 57.5485 378.245 57.988 377.808C58.4274 377.371 58.6751 376.779 58.6768 376.162ZM58.6768 394.198C58.6768 393.736 58.5392 393.285 58.2816 392.902C58.0239 392.518 57.6577 392.219 57.2293 392.043C56.8008 391.866 56.3293 391.82 55.8745 391.91C55.4197 392 55.0019 392.222 54.674 392.548C54.346 392.874 54.1227 393.29 54.0322 393.743C53.9417 394.195 53.9882 394.664 54.1657 395.09C54.3432 395.517 54.6436 395.881 55.0292 396.137C55.4148 396.394 55.8682 396.53 56.3319 396.53C56.9537 396.53 57.5501 396.284 57.9898 395.847C58.4295 395.41 58.6766 394.816 58.6768 394.198Z" fill="#F5F5F5" fill-opacity="0.3"/>
</g>
<g style="mix-blend-mode:soft-light">
<path fill-rule="evenodd" clip-rule="evenodd" d="M1851.86 446.307C1851.86 446.719 1851.99 447.122 1852.22 447.465C1852.45 447.807 1852.78 448.073 1853.16 448.23C1853.55 448.387 1853.97 448.427 1854.37 448.346C1854.78 448.264 1855.15 448.065 1855.45 447.773C1855.74 447.481 1855.94 447.109 1856.02 446.704C1856.1 446.299 1856.06 445.88 1855.9 445.499C1855.74 445.118 1855.47 444.793 1855.12 444.564C1854.78 444.335 1854.37 444.212 1853.96 444.212C1853.4 444.214 1852.87 444.436 1852.48 444.828C1852.08 445.221 1851.86 445.753 1851.86 446.307ZM1851.86 430.101C1851.86 430.514 1851.99 430.916 1852.22 431.259C1852.45 431.601 1852.78 431.867 1853.16 432.024C1853.55 432.181 1853.97 432.221 1854.37 432.14C1854.78 432.059 1855.15 431.859 1855.45 431.567C1855.74 431.275 1855.94 430.903 1856.02 430.498C1856.1 430.094 1856.06 429.674 1855.9 429.293C1855.74 428.912 1855.47 428.587 1855.12 428.358C1854.78 428.129 1854.37 428.007 1853.96 428.007C1853.4 428.008 1852.87 428.23 1852.48 428.622C1852.08 429.014 1851.86 429.545 1851.86 430.099V430.101ZM1851.86 413.895C1851.86 414.308 1851.99 414.71 1852.22 415.053C1852.45 415.395 1852.78 415.661 1853.16 415.818C1853.55 415.975 1853.97 416.015 1854.37 415.934C1854.78 415.853 1855.15 415.653 1855.45 415.361C1855.74 415.069 1855.94 414.697 1856.02 414.292C1856.1 413.888 1856.06 413.468 1855.9 413.087C1855.74 412.706 1855.47 412.381 1855.12 412.152C1854.78 411.923 1854.37 411.801 1853.96 411.801C1853.4 411.802 1852.87 412.024 1852.48 412.416C1852.08 412.808 1851.86 413.339 1851.86 413.893V413.895ZM1851.86 397.73C1851.86 398.283 1852.08 398.814 1852.48 399.204C1852.87 399.595 1853.41 399.814 1853.96 399.813C1854.52 399.812 1855.05 399.591 1855.45 399.199C1855.84 398.807 1856.06 398.276 1856.06 397.722V397.671C1856.06 397.117 1855.83 396.587 1855.44 396.196C1855.05 395.805 1854.51 395.586 1853.96 395.587C1853.4 395.588 1852.87 395.809 1852.47 396.201C1852.08 396.593 1851.86 397.124 1851.86 397.677V397.73ZM1868.09 446.307C1868.09 446.719 1868.22 447.122 1868.45 447.465C1868.68 447.807 1869.01 448.073 1869.39 448.23C1869.78 448.387 1870.2 448.427 1870.6 448.346C1871.01 448.264 1871.38 448.065 1871.68 447.773C1871.97 447.481 1872.17 447.109 1872.25 446.704C1872.33 446.299 1872.29 445.88 1872.13 445.499C1871.97 445.118 1871.7 444.793 1871.35 444.564C1871.01 444.335 1870.6 444.212 1870.19 444.212C1869.63 444.214 1869.1 444.436 1868.71 444.828C1868.31 445.221 1868.09 445.753 1868.09 446.307ZM1868.09 430.101C1868.09 430.514 1868.22 430.916 1868.45 431.259C1868.68 431.601 1869.01 431.867 1869.39 432.024C1869.78 432.181 1870.2 432.221 1870.6 432.14C1871.01 432.059 1871.38 431.859 1871.68 431.567C1871.97 431.275 1872.17 430.903 1872.25 430.498C1872.33 430.094 1872.29 429.674 1872.13 429.293C1871.97 428.912 1871.7 428.587 1871.35 428.358C1871.01 428.129 1870.6 428.007 1870.19 428.007C1869.63 428.008 1869.1 428.23 1868.71 428.622C1868.31 429.014 1868.09 429.545 1868.09 430.099V430.101ZM1868.09 413.895C1868.09 414.308 1868.22 414.71 1868.45 415.053C1868.68 415.395 1869.01 415.661 1869.39 415.818C1869.78 415.975 1870.2 416.015 1870.6 415.934C1871.01 415.853 1871.38 415.653 1871.68 415.361C1871.97 415.069 1872.17 414.697 1872.25 414.292C1872.33 413.888 1872.29 413.468 1872.13 413.087C1871.97 412.706 1871.7 412.381 1871.35 412.152C1871.01 411.923 1870.6 411.801 1870.19 411.801C1869.63 411.802 1869.1 412.024 1868.71 412.416C1868.31 412.808 1868.09 413.339 1868.09 413.893V413.895ZM1868.09 397.727C1868.09 398.281 1868.32 398.811 1868.71 399.202C1869.1 399.592 1869.64 399.811 1870.19 399.81C1870.75 399.809 1871.28 399.588 1871.68 399.196C1872.07 398.803 1872.29 398.272 1872.29 397.719V397.676C1872.29 397.123 1872.07 396.592 1871.67 396.2C1871.28 395.809 1870.75 395.589 1870.19 395.589C1869.63 395.589 1869.1 395.809 1868.71 396.2C1868.31 396.592 1868.09 397.123 1868.09 397.676V397.728V397.727ZM1884.32 446.307C1884.32 446.719 1884.45 447.122 1884.68 447.465C1884.91 447.807 1885.24 448.073 1885.62 448.23C1886.01 448.387 1886.43 448.427 1886.83 448.346C1887.24 448.264 1887.61 448.065 1887.91 447.773C1888.2 447.481 1888.4 447.109 1888.48 446.704C1888.56 446.299 1888.52 445.88 1888.36 445.499C1888.2 445.118 1887.93 444.793 1887.59 444.564C1887.24 444.335 1886.84 444.212 1886.42 444.212C1885.86 444.214 1885.33 444.436 1884.94 444.828C1884.54 445.221 1884.32 445.753 1884.32 446.307ZM1884.32 430.101C1884.32 430.514 1884.45 430.916 1884.68 431.259C1884.91 431.601 1885.24 431.867 1885.62 432.024C1886.01 432.181 1886.43 432.221 1886.83 432.14C1887.24 432.059 1887.61 431.859 1887.91 431.567C1888.2 431.275 1888.4 430.903 1888.48 430.498C1888.56 430.094 1888.52 429.674 1888.36 429.293C1888.2 428.912 1887.93 428.587 1887.59 428.358C1887.24 428.129 1886.84 428.007 1886.42 428.007C1885.86 428.008 1885.33 428.23 1884.94 428.622C1884.54 429.014 1884.32 429.545 1884.32 430.099V430.101ZM1884.32 413.895C1884.32 414.308 1884.45 414.71 1884.68 415.053C1884.91 415.395 1885.24 415.661 1885.62 415.818C1886.01 415.975 1886.43 416.015 1886.83 415.934C1887.24 415.853 1887.61 415.653 1887.91 415.361C1888.2 415.069 1888.4 414.697 1888.48 414.292C1888.56 413.888 1888.52 413.468 1888.36 413.087C1888.2 412.706 1887.93 412.381 1887.59 412.152C1887.24 411.923 1886.84 411.801 1886.42 411.801C1885.86 411.802 1885.33 412.024 1884.94 412.416C1884.54 412.808 1884.32 413.339 1884.32 413.893V413.895ZM1884.32 397.727C1884.32 398.281 1884.54 398.811 1884.94 399.202C1885.33 399.593 1885.87 399.813 1886.42 399.812C1886.98 399.811 1887.51 399.591 1887.91 399.199C1888.3 398.807 1888.52 398.276 1888.52 397.722V397.671C1888.52 397.117 1888.3 396.587 1887.9 396.196C1887.51 395.805 1886.97 395.586 1886.42 395.587C1885.86 395.588 1885.33 395.809 1884.93 396.201C1884.54 396.593 1884.32 397.124 1884.32 397.678V397.725V397.727ZM1900.55 446.307C1900.55 446.719 1900.68 447.121 1900.91 447.463C1901.14 447.805 1901.47 448.071 1901.85 448.227C1902.24 448.384 1902.66 448.424 1903.06 448.342C1903.47 448.261 1903.84 448.062 1904.13 447.77C1904.43 447.478 1904.63 447.107 1904.71 446.703C1904.79 446.298 1904.74 445.88 1904.59 445.499C1904.43 445.118 1904.16 444.793 1903.81 444.564C1903.47 444.335 1903.07 444.213 1902.65 444.212C1902.38 444.213 1902.1 444.267 1901.85 444.373C1901.59 444.478 1901.36 444.633 1901.17 444.827C1900.97 445.022 1900.82 445.253 1900.71 445.507C1900.61 445.76 1900.55 446.032 1900.55 446.307ZM1900.55 430.101C1900.55 430.513 1900.68 430.915 1900.91 431.257C1901.14 431.599 1901.47 431.865 1901.85 432.021C1902.24 432.178 1902.66 432.218 1903.06 432.136C1903.47 432.055 1903.84 431.856 1904.13 431.564C1904.43 431.272 1904.63 430.901 1904.71 430.497C1904.79 430.092 1904.74 429.674 1904.59 429.293C1904.43 428.912 1904.16 428.587 1903.81 428.358C1903.47 428.129 1903.07 428.007 1902.65 428.007C1902.09 428.007 1901.56 428.228 1901.17 428.621C1900.77 429.013 1900.55 429.545 1900.55 430.099V430.101ZM1900.55 413.895C1900.55 414.307 1900.68 414.709 1900.91 415.051C1901.14 415.393 1901.47 415.659 1901.85 415.815C1902.24 415.972 1902.66 416.012 1903.06 415.93C1903.47 415.849 1903.84 415.65 1904.13 415.358C1904.43 415.066 1904.63 414.695 1904.71 414.291C1904.79 413.887 1904.74 413.468 1904.59 413.087C1904.43 412.707 1904.16 412.381 1903.81 412.152C1903.47 411.923 1903.07 411.801 1902.65 411.801C1902.09 411.802 1901.56 412.023 1901.17 412.415C1900.77 412.807 1900.55 413.339 1900.55 413.893V413.895ZM1900.55 397.727C1900.55 398.001 1900.61 398.272 1900.71 398.525C1900.82 398.778 1900.97 399.008 1901.17 399.201C1901.36 399.395 1901.59 399.548 1901.85 399.652C1902.1 399.757 1902.38 399.811 1902.65 399.81C1902.93 399.81 1903.2 399.756 1903.45 399.651C1903.71 399.545 1903.94 399.392 1904.13 399.198C1904.33 399.004 1904.48 398.774 1904.59 398.521C1904.69 398.267 1904.75 397.996 1904.75 397.722L1904.75 397.749L1904.75 397.67C1904.75 397.396 1904.69 397.125 1904.58 396.872C1904.48 396.619 1904.32 396.39 1904.13 396.196C1903.93 396.003 1903.7 395.849 1903.45 395.745C1903.19 395.64 1902.92 395.587 1902.65 395.587C1902.37 395.588 1902.1 395.642 1901.84 395.747C1901.59 395.852 1901.36 396.006 1901.17 396.2C1900.97 396.394 1900.82 396.624 1900.71 396.877C1900.61 397.13 1900.55 397.401 1900.55 397.675V397.727ZM1851.86 381.506C1851.86 381.919 1851.99 382.322 1852.22 382.664C1852.45 383.006 1852.78 383.273 1853.16 383.429C1853.55 383.586 1853.97 383.627 1854.37 383.545C1854.78 383.464 1855.15 383.264 1855.45 382.972C1855.74 382.68 1855.94 382.308 1856.02 381.904C1856.1 381.499 1856.06 381.08 1855.9 380.699C1855.74 380.318 1855.47 379.992 1855.12 379.763C1854.78 379.534 1854.37 379.412 1853.96 379.412C1853.4 379.414 1852.87 379.635 1852.48 380.028C1852.08 380.42 1851.86 380.952 1851.86 381.506ZM1851.86 365.3C1851.86 365.713 1851.99 366.116 1852.22 366.458C1852.45 366.8 1852.78 367.067 1853.16 367.224C1853.55 367.38 1853.97 367.421 1854.37 367.339C1854.78 367.258 1855.15 367.059 1855.45 366.766C1855.74 366.474 1855.94 366.102 1856.02 365.698C1856.1 365.293 1856.06 364.874 1855.9 364.493C1855.74 364.112 1855.47 363.786 1855.12 363.557C1854.78 363.328 1854.37 363.206 1853.96 363.206C1853.4 363.208 1852.87 363.429 1852.48 363.822C1852.08 364.214 1851.86 364.746 1851.86 365.3ZM1851.86 349.095C1851.86 349.507 1851.99 349.91 1852.22 350.252C1852.45 350.594 1852.78 350.861 1853.16 351.018C1853.55 351.174 1853.97 351.215 1854.37 351.133C1854.78 351.052 1855.15 350.853 1855.45 350.56C1855.74 350.268 1855.94 349.896 1856.02 349.492C1856.1 349.087 1856.06 348.668 1855.9 348.287C1855.74 347.906 1855.47 347.58 1855.12 347.351C1854.78 347.122 1854.37 347 1853.96 347C1853.4 347.002 1852.87 347.223 1852.48 347.616C1852.08 348.008 1851.86 348.54 1851.86 349.095ZM1868.09 381.506C1868.09 381.919 1868.22 382.322 1868.45 382.664C1868.68 383.006 1869.01 383.273 1869.39 383.429C1869.78 383.586 1870.2 383.627 1870.6 383.545C1871.01 383.464 1871.38 383.264 1871.68 382.972C1871.97 382.68 1872.17 382.308 1872.25 381.904C1872.33 381.499 1872.29 381.08 1872.13 380.699C1871.97 380.318 1871.7 379.992 1871.35 379.763C1871.01 379.534 1870.6 379.412 1870.19 379.412C1869.63 379.414 1869.1 379.635 1868.71 380.028C1868.31 380.42 1868.09 380.952 1868.09 381.506ZM1868.09 365.3C1868.09 365.713 1868.22 366.116 1868.45 366.458C1868.68 366.8 1869.01 367.067 1869.39 367.224C1869.78 367.38 1870.2 367.421 1870.6 367.339C1871.01 367.258 1871.38 367.059 1871.68 366.766C1871.97 366.474 1872.17 366.102 1872.25 365.698C1872.33 365.293 1872.29 364.874 1872.13 364.493C1871.97 364.112 1871.7 363.786 1871.35 363.557C1871.01 363.328 1870.6 363.206 1870.19 363.206C1869.63 363.208 1869.1 363.429 1868.71 363.822C1868.31 364.214 1868.09 364.746 1868.09 365.3ZM1868.09 349.095C1868.09 349.507 1868.22 349.91 1868.45 350.252C1868.68 350.594 1869.01 350.861 1869.39 351.018C1869.78 351.174 1870.2 351.215 1870.6 351.133C1871.01 351.052 1871.38 350.853 1871.68 350.56C1871.97 350.268 1872.17 349.896 1872.25 349.492C1872.33 349.087 1872.29 348.668 1872.13 348.287C1871.97 347.906 1871.7 347.58 1871.35 347.351C1871.01 347.122 1870.6 347 1870.19 347C1869.63 347.002 1869.1 347.223 1868.71 347.616C1868.31 348.008 1868.09 348.54 1868.09 349.095ZM1884.32 381.506C1884.32 381.919 1884.45 382.322 1884.68 382.664C1884.91 383.006 1885.24 383.273 1885.62 383.429C1886.01 383.586 1886.43 383.627 1886.83 383.545C1887.24 383.464 1887.61 383.264 1887.91 382.972C1888.2 382.68 1888.4 382.308 1888.48 381.904C1888.56 381.499 1888.52 381.08 1888.36 380.699C1888.2 380.318 1887.93 379.992 1887.59 379.763C1887.24 379.534 1886.84 379.412 1886.42 379.412C1885.86 379.414 1885.33 379.635 1884.94 380.028C1884.54 380.42 1884.32 380.952 1884.32 381.506ZM1884.32 365.3C1884.32 365.713 1884.45 366.116 1884.68 366.458C1884.91 366.8 1885.24 367.067 1885.62 367.224C1886.01 367.38 1886.43 367.421 1886.83 367.339C1887.24 367.258 1887.61 367.059 1887.91 366.766C1888.2 366.474 1888.4 366.102 1888.48 365.698C1888.56 365.293 1888.52 364.874 1888.36 364.493C1888.2 364.112 1887.93 363.786 1887.59 363.557C1887.24 363.328 1886.84 363.206 1886.42 363.206C1885.86 363.208 1885.33 363.429 1884.94 363.822C1884.54 364.214 1884.32 364.746 1884.32 365.3ZM1884.32 349.095C1884.32 349.507 1884.45 349.91 1884.68 350.252C1884.91 350.594 1885.24 350.861 1885.62 351.018C1886.01 351.174 1886.43 351.215 1886.83 351.133C1887.24 351.052 1887.61 350.853 1887.91 350.56C1888.2 350.268 1888.4 349.896 1888.48 349.492C1888.56 349.087 1888.52 348.668 1888.36 348.287C1888.2 347.906 1887.93 347.58 1887.59 347.351C1887.24 347.122 1886.84 347 1886.42 347C1885.86 347.002 1885.33 347.223 1884.94 347.616C1884.54 348.008 1884.32 348.54 1884.32 349.095ZM1900.55 381.506C1900.55 381.918 1900.68 382.321 1900.91 382.662C1901.14 383.004 1901.47 383.27 1901.85 383.426C1902.24 383.583 1902.66 383.623 1903.06 383.542C1903.47 383.46 1903.84 383.261 1904.13 382.969C1904.43 382.677 1904.63 382.306 1904.71 381.902C1904.79 381.498 1904.74 381.079 1904.59 380.698C1904.43 380.318 1904.16 379.992 1903.81 379.764C1903.47 379.535 1903.07 379.412 1902.65 379.412C1902.38 379.412 1902.1 379.467 1901.85 379.572C1901.59 379.678 1901.36 379.832 1901.17 380.027C1900.97 380.221 1900.82 380.452 1900.71 380.706C1900.61 380.96 1900.55 381.232 1900.55 381.506ZM1900.55 365.3C1900.55 365.712 1900.68 366.115 1900.91 366.456C1901.14 366.798 1901.47 367.064 1901.85 367.22C1902.24 367.377 1902.66 367.417 1903.06 367.336C1903.47 367.254 1903.84 367.055 1904.13 366.763C1904.43 366.472 1904.63 366.1 1904.71 365.696C1904.79 365.292 1904.74 364.873 1904.59 364.492C1904.43 364.112 1904.16 363.787 1903.81 363.558C1903.47 363.329 1903.07 363.206 1902.65 363.206C1902.38 363.206 1902.1 363.261 1901.85 363.366C1901.59 363.472 1901.36 363.626 1901.17 363.821C1900.97 364.015 1900.82 364.246 1900.71 364.5C1900.61 364.754 1900.55 365.026 1900.55 365.3ZM1900.55 349.095C1900.55 349.507 1900.68 349.909 1900.91 350.25C1901.14 350.592 1901.47 350.858 1901.85 351.015C1902.24 351.171 1902.66 351.211 1903.06 351.13C1903.47 351.049 1903.84 350.849 1904.13 350.558C1904.43 350.266 1904.63 349.894 1904.71 349.49C1904.79 349.086 1904.74 348.667 1904.59 348.287C1904.43 347.906 1904.16 347.581 1903.81 347.352C1903.47 347.123 1903.07 347 1902.65 347C1902.38 347 1902.1 347.055 1901.85 347.161C1901.59 347.266 1901.36 347.42 1901.17 347.615C1900.97 347.809 1900.82 348.04 1900.71 348.294C1900.61 348.548 1900.55 348.82 1900.55 349.095Z" fill="#F5F5F5"/>
<path fill-rule="evenodd" clip-rule="evenodd" d="M1849.08 835.048L1632.76 919.403C1560.49 947.586 1482.36 894.597 1482.36 817.406V488.461C1482.36 427.951 1531.69 378.898 1592.54 378.898H1715.12C1737.44 378.896 1759.24 385.64 1777.62 398.238C1796.01 410.835 1810.11 428.692 1818.07 449.443L1911.8 694.028C1933.33 750.187 1905.34 813.106 1849.08 835.048Z" fill="#F5F5F5" fill-opacity="0.3"/>
<path fill-rule="evenodd" clip-rule="evenodd" d="M1849.08 835.048L1632.76 919.403C1560.49 947.586 1482.36 894.597 1482.36 817.406V488.461C1482.36 427.951 1531.69 378.898 1592.54 378.898H1715.12C1737.44 378.896 1759.24 385.64 1777.62 398.238C1796.01 410.835 1810.11 428.692 1818.07 449.443L1911.8 694.028C1933.33 750.187 1905.34 813.106 1849.08 835.048Z" fill="#F5F5F5" fill-opacity="0.3"/>
<path fill-rule="evenodd" clip-rule="evenodd" d="M1878.25 570.188C1886.51 570.188 1894.58 572.624 1901.44 577.188C1908.31 581.753 1913.66 588.24 1916.82 595.83C1919.98 603.42 1920.81 611.771 1919.2 619.829C1917.59 627.886 1913.61 635.287 1907.77 641.096C1901.93 646.905 1894.49 650.861 1886.39 652.464C1878.29 654.067 1869.9 653.244 1862.27 650.1C1854.64 646.957 1848.12 641.633 1843.53 634.802C1838.94 627.971 1836.5 619.941 1836.5 611.725C1836.5 606.271 1837.58 600.869 1839.67 595.829C1841.77 590.79 1844.85 586.211 1848.72 582.353C1852.6 578.496 1857.2 575.437 1862.27 573.349C1867.34 571.262 1872.77 570.187 1878.25 570.188ZM1878.25 643.359C1884.54 643.359 1890.69 641.503 1895.91 638.027C1901.14 634.551 1905.22 629.61 1907.63 623.83C1910.03 618.05 1910.66 611.689 1909.43 605.553C1908.21 599.416 1905.18 593.78 1900.73 589.356C1896.28 584.932 1890.62 581.919 1884.45 580.699C1878.28 579.478 1871.89 580.105 1866.08 582.499C1860.27 584.894 1855.3 588.948 1851.81 594.151C1848.31 599.353 1846.45 605.469 1846.45 611.725C1846.45 615.88 1847.27 619.994 1848.87 623.832C1850.47 627.67 1852.81 631.158 1855.76 634.095C1858.72 637.033 1862.22 639.363 1866.08 640.952C1869.94 642.542 1874.07 643.36 1878.25 643.359Z" fill="#F5F5F5" fill-opacity="0.3"/>
<path fill-rule="evenodd" clip-rule="evenodd" d="M1467.44 590C1474.26 590 1480.91 592.01 1486.58 595.775C1492.24 599.541 1496.66 604.892 1499.26 611.153C1501.87 617.414 1502.55 624.304 1501.22 630.95C1499.89 637.597 1496.61 643.702 1491.8 648.494C1486.98 653.286 1480.84 656.549 1474.16 657.871C1467.48 659.193 1460.55 658.515 1454.26 655.921C1447.97 653.328 1442.59 648.936 1438.8 643.301C1435.02 637.666 1433 631.042 1433 624.265C1433 619.765 1433.89 615.309 1435.62 611.152C1437.35 606.994 1439.89 603.217 1443.09 600.035C1446.29 596.853 1450.08 594.329 1454.26 592.607C1458.44 590.886 1462.92 590 1467.44 590ZM1467.44 650.36C1472.63 650.36 1477.7 648.829 1482.02 645.962C1486.33 643.094 1489.69 639.019 1491.68 634.251C1493.66 629.482 1494.18 624.235 1493.17 619.173C1492.16 614.111 1489.66 609.462 1485.99 605.812C1482.32 602.163 1477.65 599.678 1472.56 598.671C1467.47 597.664 1462.2 598.181 1457.41 600.156C1452.61 602.131 1448.52 605.476 1445.63 609.767C1442.75 614.058 1441.21 619.104 1441.21 624.265C1441.21 631.186 1443.98 637.823 1448.9 642.717C1453.81 647.61 1460.49 650.36 1467.44 650.36Z" fill="#F5F5F5" fill-opacity="0.3"/>
<path fill-rule="evenodd" clip-rule="evenodd" d="M1439.73 584.189C1439.73 583.677 1439.57 583.177 1439.29 582.752C1439 582.326 1438.6 581.995 1438.12 581.799C1437.65 581.603 1437.13 581.551 1436.62 581.651C1436.12 581.751 1435.65 581.997 1435.29 582.358C1434.93 582.72 1434.68 583.18 1434.58 583.682C1434.48 584.184 1434.53 584.704 1434.73 585.176C1434.92 585.649 1435.26 586.052 1435.68 586.337C1436.11 586.621 1436.61 586.773 1437.13 586.773C1437.82 586.772 1438.48 586.5 1438.96 586.015C1439.45 585.531 1439.72 584.874 1439.73 584.189ZM1439.73 604.181C1439.73 603.669 1439.57 603.169 1439.29 602.744C1439 602.318 1438.6 601.987 1438.12 601.791C1437.65 601.595 1437.13 601.543 1436.62 601.643C1436.12 601.742 1435.65 601.988 1435.29 602.35C1434.93 602.712 1434.68 603.172 1434.58 603.674C1434.48 604.175 1434.53 604.695 1434.73 605.168C1434.92 605.64 1435.26 606.044 1435.68 606.328C1436.11 606.613 1436.61 606.764 1437.13 606.764C1437.82 606.764 1438.48 606.491 1438.96 606.007C1439.45 605.523 1439.72 604.866 1439.73 604.181ZM1439.73 624.172C1439.73 623.661 1439.57 623.161 1439.29 622.735C1439 622.31 1438.6 621.978 1438.12 621.782C1437.65 621.586 1437.12 621.535 1436.62 621.635C1436.12 621.734 1435.65 621.98 1435.29 622.342C1434.93 622.703 1434.68 623.164 1434.58 623.666C1434.48 624.167 1434.53 624.687 1434.73 625.16C1434.92 625.632 1435.26 626.036 1435.68 626.32C1436.11 626.604 1436.61 626.756 1437.13 626.756C1437.82 626.755 1438.48 626.483 1438.96 625.999C1439.45 625.514 1439.72 624.857 1439.73 624.172ZM1439.73 644.114C1439.72 643.428 1439.45 642.771 1438.96 642.287C1438.47 641.803 1437.81 641.532 1437.12 641.533C1436.43 641.534 1435.77 641.808 1435.29 642.293C1434.8 642.779 1434.53 643.437 1434.53 644.123V644.186C1434.53 644.872 1434.8 645.529 1435.29 646.013C1435.78 646.498 1436.44 646.769 1437.13 646.768C1437.82 646.767 1438.48 646.493 1438.97 646.008C1439.45 645.522 1439.73 644.864 1439.73 644.178V644.114ZM1439.73 664.123C1439.73 663.612 1439.57 663.112 1439.29 662.687C1439 662.262 1438.6 661.93 1438.12 661.734C1437.65 661.539 1437.12 661.488 1436.62 661.587C1436.12 661.687 1435.65 661.933 1435.29 662.295C1434.93 662.657 1434.68 663.117 1434.58 663.619C1434.48 664.12 1434.53 664.64 1434.73 665.113C1434.92 665.585 1435.26 665.989 1435.68 666.273C1436.11 666.557 1436.61 666.709 1437.13 666.709C1437.82 666.708 1438.48 666.435 1438.96 665.951C1439.45 665.466 1439.72 664.809 1439.73 664.123ZM1439.73 684.117C1439.73 683.606 1439.57 683.105 1439.29 682.68C1439 682.254 1438.6 681.922 1438.12 681.726C1437.65 681.53 1437.13 681.478 1436.62 681.577C1436.12 681.677 1435.65 681.923 1435.29 682.284C1434.93 682.646 1434.68 683.106 1434.58 683.608C1434.48 684.11 1434.53 684.63 1434.73 685.102C1434.92 685.575 1435.26 685.979 1435.68 686.263C1436.11 686.547 1436.61 686.699 1437.13 686.699C1437.82 686.698 1438.48 686.426 1438.96 685.942C1439.45 685.458 1439.72 684.802 1439.73 684.117ZM1439.73 704.107C1439.73 703.596 1439.57 703.096 1439.29 702.671C1439 702.246 1438.6 701.914 1438.12 701.719C1437.65 701.523 1437.12 701.472 1436.62 701.572C1436.12 701.671 1435.65 701.918 1435.29 702.279C1434.93 702.641 1434.68 703.102 1434.58 703.603C1434.48 704.105 1434.53 704.624 1434.73 705.097C1434.92 705.569 1435.26 705.973 1435.68 706.257C1436.11 706.541 1436.61 706.693 1437.13 706.693C1437.82 706.693 1438.48 706.42 1438.96 705.935C1439.45 705.451 1439.73 704.793 1439.73 704.107Z" fill="#F5F5F5" fill-opacity="0.3"/>
</g>
</g>
<defs>
<linearGradient id="paint0_linear_467_862" x1="960.5" y1="0" x2="960.5" y2="1317.5" gradientUnits="userSpaceOnUse">
<stop stop-color="#0A437F"/>
<stop offset="1" stop-color="#1279E5"/>
</linearGradient>
<linearGradient id="paint1_linear_467_862" x1="1059.35" y1="726.363" x2="1059.35" y2="-26.07" gradientUnits="userSpaceOnUse">
<stop stop-color="#136CC9"/>
<stop offset="1" stop-color="#072740"/>
</linearGradient>
</defs>
</svg>
