<svg width="27" height="27" viewBox="0 0 27 27" fill="none" xmlns="http://www.w3.org/2000/svg">
<path d="M22.5217 8.52174H4.26087C1.9113 8.52174 0 6.61043 0 4.26087C0 1.9113 1.9113 0 4.26087 0H22.5217C24.8713 0 26.7826 1.9113 26.7826 4.26087C26.7826 6.61043 24.8713 8.52174 22.5217 8.52174ZM4.26087 1.82609C2.91809 1.82609 1.82609 2.91809 1.82609 4.26087C1.82609 5.60365 2.91809 6.69565 4.26087 6.69565H22.5217C23.8645 6.69565 24.9565 5.60365 24.9565 4.26087C24.9565 2.91809 23.8645 1.82609 22.5217 1.82609H4.26087Z" fill="#1276DF"/>
<path d="M6.08849 5.47385C6.76083 5.47385 7.30588 4.9288 7.30588 4.25645C7.30588 3.58411 6.76083 3.03906 6.08849 3.03906C5.41614 3.03906 4.87109 3.58411 4.87109 4.25645C4.87109 4.9288 5.41614 5.47385 6.08849 5.47385Z" fill="#1276DF"/>
<path d="M10.9557 5.47385C11.628 5.47385 12.1731 4.9288 12.1731 4.25645C12.1731 3.58411 11.628 3.03906 10.9557 3.03906C10.2833 3.03906 9.73828 3.58411 9.73828 4.25645C9.73828 4.9288 10.2833 5.47385 10.9557 5.47385Z" fill="#1276DF"/>
<path d="M12.0157 15.2171H4.26087C1.9113 15.2171 0 13.3057 0 10.9562C0 9.82523 0.458957 8.72714 1.25878 7.94192C2.03183 7.15427 3.12991 6.69531 4.26087 6.69531H22.5217C24.4489 6.69531 26.1386 7.99062 26.6304 9.84592C26.7595 10.3329 26.4697 10.8332 25.9828 10.9623C25.497 11.0974 24.9955 10.8016 24.8664 10.3146C24.5852 9.25792 23.621 8.5214 22.5217 8.5214H4.26087C3.60835 8.5214 3.00087 8.77462 2.55043 9.23357C2.0793 9.69618 1.82609 10.3037 1.82609 10.9562C1.82609 12.299 2.91809 13.391 4.26087 13.391H12.0157C12.5197 13.391 12.9287 13.8 12.9287 14.304C12.9287 14.808 12.5197 15.2171 12.0157 15.2171Z" fill="#1276DF"/>
<path d="M6.08849 12.177C6.76083 12.177 7.30588 11.6319 7.30588 10.9596C7.30588 10.2872 6.76083 9.74219 6.08849 9.74219C5.41614 9.74219 4.87109 10.2872 4.87109 10.9596C4.87109 11.6319 5.41614 12.177 6.08849 12.177Z" fill="#1276DF"/>
<path d="M10.9557 12.177C11.628 12.177 12.1731 11.6319 12.1731 10.9596C12.1731 10.2872 11.628 9.74219 10.9557 9.74219C10.2833 9.74219 9.73828 10.2872 9.73828 10.9596C9.73828 11.6319 10.2833 12.177 10.9557 12.177Z" fill="#1276DF"/>
<path d="M10.0435 21.9124H4.26087C1.9113 21.9124 0 20.0011 0 17.6515C0 16.5205 0.458957 15.4225 1.25878 14.6372C2.03183 13.8496 3.12991 13.3906 4.26087 13.3906C4.76487 13.3906 5.17391 13.7997 5.17391 14.3037C5.17391 14.8077 4.76487 15.2167 4.26087 15.2167C3.60835 15.2167 3.00087 15.4699 2.55043 15.9289C2.0793 16.3915 1.82609 16.999 1.82609 17.6515C1.82609 18.9943 2.91809 20.0863 4.26087 20.0863H10.0435C10.5475 20.0863 10.9565 20.4953 10.9565 20.9993C10.9565 21.5033 10.5475 21.9124 10.0435 21.9124Z" fill="#1276DF"/>
<path d="M6.08849 18.8723C6.76083 18.8723 7.30588 18.3272 7.30588 17.6549C7.30588 16.9825 6.76083 16.4375 6.08849 16.4375C5.41614 16.4375 4.87109 16.9825 4.87109 17.6549C4.87109 18.3272 5.41614 18.8723 6.08849 18.8723Z" fill="#1276DF"/>
<path fill-rule="evenodd" clip-rule="evenodd" d="M19.6588 13.0938C19.8699 12.9687 20.13 12.9687 20.3411 13.0938L25.6589 16.2438C25.87 16.3688 26 16.5999 26 16.85V23.15C26 23.4001 25.87 23.6312 25.6589 23.7562L20.3411 26.9062C20.13 27.0313 19.8699 27.0313 19.6588 26.9062L18.3294 26.1187C18.0031 25.9254 17.8913 25.4973 18.0797 25.1625C18.2681 24.8277 18.6854 24.7129 19.0117 24.9063L20 25.4917L24.6355 22.7459V17.2541L20 14.5083L15.3645 17.2541V22.7714L16.4334 23.4884C16.4376 23.4879 16.4418 23.4875 16.4461 23.487C16.5799 23.4733 16.7468 23.4467 16.9043 23.3983C17.0689 23.3476 17.1752 23.2875 17.2303 23.2367C17.2658 23.204 17.2709 23.1888 17.2709 23.15V17.9C17.2709 17.5134 17.5764 17.2 17.9532 17.2C18.33 17.2 18.6354 17.5134 18.6354 17.9V23.15C18.6354 23.6361 18.4274 24.0148 18.1431 24.2773C17.8783 24.5218 17.5582 24.6586 17.2964 24.7392C17.0275 24.822 16.7679 24.861 16.5819 24.8801C16.4872 24.8898 16.4076 24.8947 16.35 24.8973C16.3212 24.8986 16.2976 24.8992 16.2803 24.8996L16.259 24.8999L16.252 24.9H16.2494H16.2484C16.2482 24.9 16.2475 24.9 16.2475 24.2V24.9C16.1149 24.9 15.9851 24.8603 15.8741 24.7859L14.3089 23.7359C14.1162 23.6066 14 23.3862 14 23.15V16.85C14 16.5999 14.13 16.3688 14.3411 16.2438L19.6588 13.0938ZM19.9044 17.756C20.3156 17.4044 20.9124 17.2 21.7056 17.2C22.4989 17.2 23.0957 17.4044 23.5069 17.756C23.9134 18.1035 24.0935 18.5607 24.0935 18.95C24.0935 19.3366 23.7881 19.65 23.4113 19.65C23.0345 19.65 22.729 19.3366 22.729 18.95C22.729 18.9578 22.7294 18.9613 22.7292 18.9614C22.7283 18.9615 22.7178 18.9037 22.6334 18.8315C22.5329 18.7456 22.277 18.6 21.7056 18.6C21.1344 18.6 20.8784 18.7456 20.7779 18.8315C20.6972 18.9005 20.684 18.9564 20.6823 18.9611C20.6826 19.1365 20.6916 19.1542 20.6951 19.1612C20.6953 19.1615 20.6954 19.1617 20.6955 19.162C20.6958 19.1625 20.7039 19.1804 20.7411 19.2143C20.7816 19.2512 20.8559 19.3064 20.9874 19.3739C21.2518 19.5095 21.522 19.5813 21.8711 19.6709L21.8934 19.6766C22.2225 19.7609 22.6256 19.8643 23.0342 20.0739C23.5539 20.3405 23.8255 20.7525 23.9595 21.0963C24.0251 21.2645 24.0581 21.4161 24.075 21.5287C24.0835 21.5855 24.0881 21.6337 24.0906 21.6711C24.0919 21.6898 24.0926 21.7059 24.0931 21.7191L24.0935 21.7368L24.0935 21.744V21.7471V21.7486C24.0935 21.7489 24.0935 21.75 23.4113 21.75L24.0935 21.7486C24.0935 22.1379 23.9134 22.5965 23.5069 22.944C23.0957 23.2956 22.4989 23.5 21.7056 23.5C20.9124 23.5 20.3156 23.2956 19.9044 22.944C19.4979 22.5965 19.3177 22.1393 19.3177 21.75C19.3177 21.3634 19.6232 21.05 20 21.05C20.3768 21.05 20.6822 21.3634 20.6822 21.75C20.6822 21.7422 20.6819 21.7387 20.6821 21.7386C20.683 21.7384 20.6935 21.7963 20.7779 21.8685C20.8784 21.9544 21.1344 22.1 21.7056 22.1C22.277 22.1 22.5329 21.9544 22.6334 21.8685C22.7004 21.8112 22.7209 21.7629 22.7269 21.7455C22.7267 21.7443 22.7265 21.7429 22.7263 21.7416C22.7219 21.712 22.7122 21.6668 22.6926 21.6162C22.656 21.5225 22.5864 21.4094 22.4239 21.3261C22.1595 21.1905 21.8894 21.1187 21.5402 21.0291L21.5179 21.0234C21.1888 20.939 20.7857 20.8357 20.3771 20.6261C19.9588 20.4115 19.6493 20.1457 19.475 19.788C19.3162 19.4621 19.3172 19.1414 19.3177 18.9752C19.3177 18.9663 19.3177 18.9579 19.3177 18.95C19.3177 18.5607 19.4979 18.1035 19.9044 17.756Z" fill="#1276DF"/>
</svg>
