<svg width="55" height="55" viewBox="0 0 55 55" fill="none" xmlns="http://www.w3.org/2000/svg">
<g clip-path="url(#clip0_55_693)">
<mask id="mask0_55_693" style="mask-type:luminance" maskUnits="userSpaceOnUse" x="0" y="0" width="55" height="55">
<path d="M54.9525 5.2264L5.22644 0L4.03076e-05 49.7261L49.7261 54.9525L54.9525 5.2264Z" fill="white"/>
</mask>
<g mask="url(#mask0_55_693)">
<path fill-rule="evenodd" clip-rule="evenodd" d="M11.0666 11.5375L24.0193 4.09773C24.0193 4.09773 24.0476 4.08214 24.0655 4.07334L25.8319 3.05771C27.1456 2.30398 28.7774 2.31138 30.0863 3.07224L44.7727 11.6091C46.0816 12.37 46.8956 13.7843 46.8908 15.2989L46.8824 17.3364C46.8836 17.3563 46.884 17.3886 46.884 17.3886L46.8294 32.3258C46.8233 33.0841 46.6177 33.8226 46.245 34.4638C45.8723 35.1051 45.3323 35.6491 44.6764 36.0298L40.0415 38.6894L40.0414 38.7008L30.0502 44.4432C29.7132 44.6366 29.3569 44.7832 28.9908 44.8827C27.8635 45.203 26.6348 45.0636 25.5993 44.4617L11.0277 35.9915C9.99227 35.3896 9.26306 34.3908 8.98338 33.2528C8.88872 32.8854 8.83976 32.5033 8.84111 32.1147L8.88635 20.5909L8.89615 20.5853L8.91351 15.2414C8.91969 14.4831 9.12525 13.7447 9.498 13.1034C9.87075 12.4622 10.4107 11.9181 11.0666 11.5375ZM30.6133 41.5529L43.584 34.1044L43.5888 34.1072C44.2316 33.7381 44.6293 33.0538 44.6292 32.3175L44.6885 17.3829L44.688 17.3507C44.6861 17.3432 44.6821 17.328 44.6849 17.3232C44.6764 16.7549 44.2935 16.4683 44.1215 16.3683C43.9495 16.2683 43.5013 16.0718 42.9922 16.3649L30.1675 23.7382C29.4401 24.1541 28.9866 24.9341 28.9805 25.7693C28.9789 25.7939 28.9786 25.8385 28.9786 25.8385L28.9222 40.5699C28.9195 41.1574 29.3168 41.4523 29.4841 41.5495C29.6512 41.6468 30.0995 41.8433 30.6133 41.5529Z" fill="white"/>
<mask id="mask1_55_693" style="mask-type:luminance" maskUnits="userSpaceOnUse" x="8" y="2" width="39" height="44">
<path fill-rule="evenodd" clip-rule="evenodd" d="M11.0666 11.5375L24.0193 4.09773C24.0193 4.09773 24.0476 4.08214 24.0655 4.07334L25.8319 3.05771C27.1456 2.30398 28.7774 2.31138 30.0863 3.07224L44.7727 11.6091C46.0816 12.37 46.8956 13.7843 46.8908 15.2989L46.8824 17.3364C46.8836 17.3563 46.884 17.3886 46.884 17.3886L46.8294 32.3258C46.8233 33.0841 46.6177 33.8226 46.245 34.4638C45.8723 35.1051 45.3323 35.6491 44.6764 36.0298L40.0415 38.6894L40.0414 38.7008L30.0502 44.4432C29.7132 44.6366 29.3569 44.7832 28.9908 44.8827C27.8635 45.203 26.6348 45.0636 25.5993 44.4617L11.0277 35.9915C9.99227 35.3896 9.26306 34.3908 8.98338 33.2528C8.88872 32.8854 8.83976 32.5033 8.84111 32.1147L8.88635 20.5909L8.89615 20.5853L8.91351 15.2414C8.91969 14.4831 9.12525 13.7447 9.498 13.1034C9.87075 12.4622 10.4107 11.9181 11.0666 11.5375ZM30.6133 41.5529L43.584 34.1044L43.5888 34.1072C44.2316 33.7381 44.6293 33.0538 44.6292 32.3175L44.6885 17.3829L44.688 17.3507C44.6861 17.3432 44.6821 17.328 44.6849 17.3232C44.6764 16.7549 44.2935 16.4683 44.1215 16.3683C43.9495 16.2683 43.5013 16.0718 42.9922 16.3649L30.1675 23.7382C29.4401 24.1541 28.9866 24.9341 28.9805 25.7693C28.9789 25.7939 28.9786 25.8385 28.9786 25.8385L28.9222 40.5699C28.9195 41.1574 29.3168 41.4523 29.4841 41.5495C29.6512 41.6468 30.0995 41.8433 30.6133 41.5529Z" fill="white"/>
</mask>
<g mask="url(#mask1_55_693)">
<path d="M24.0194 4.0977L23.7777 3.65996L23.7704 3.66413L24.0194 4.0977ZM11.0666 11.5375L10.8176 11.1038L10.8156 11.105L11.0666 11.5375ZM24.0656 4.0733L24.2862 4.52198L24.3007 4.51483L24.3148 4.50676L24.0656 4.0733ZM46.8825 17.3364L46.3825 17.3343L46.3824 17.3505L46.3834 17.3667L46.8825 17.3364ZM46.8841 17.3885L47.3841 17.3903L47.3841 17.382L46.8841 17.3885ZM46.8295 32.3258L47.3295 32.3298L47.3295 32.3276L46.8295 32.3258ZM44.6764 36.0298L44.9254 36.4634L44.9275 36.4622L44.6764 36.0298ZM40.0415 38.6894L39.7927 38.2558L39.5431 38.399L39.5416 38.6869L40.0415 38.6894ZM40.0414 38.7007L40.2906 39.1343L40.5399 38.9909L40.5414 38.7033L40.0414 38.7007ZM28.9908 44.8827L28.8595 44.4002L28.8541 44.4018L28.9908 44.8827ZM8.98344 33.2528L9.46902 33.1335L9.46762 33.1281L8.98344 33.2528ZM8.88641 20.5909L8.63664 20.1577L8.38754 20.3013L8.3864 20.5889L8.88641 20.5909ZM8.89621 20.5853L9.14599 21.0183L9.39528 20.8746L9.39621 20.5868L8.89621 20.5853ZM8.91357 15.2414L8.41357 15.2373L8.41356 15.2398L8.91357 15.2414ZM43.5841 34.1044L43.8354 33.6721L43.5856 33.527L43.3351 33.6708L43.5841 34.1044ZM30.6134 41.5529L30.8593 41.9883L30.8624 41.9865L30.6134 41.5529ZM43.5888 34.1072L43.3376 34.5394L43.5874 34.6846L43.8379 34.5408L43.5888 34.1072ZM44.6292 32.3174L44.1292 32.3153L44.1293 32.3175L44.6292 32.3174ZM44.6885 17.3829L45.1886 17.3849L45.1885 17.3763L44.6885 17.3829ZM44.6881 17.3507L45.1881 17.3441L45.1872 17.2826L45.1716 17.2231L44.6881 17.3507ZM44.6849 17.3232L45.1171 17.5746L45.187 17.4546L45.1848 17.3158L44.6849 17.3232ZM30.1676 23.7382L30.4156 24.1723L30.4167 24.1717L30.1676 23.7382ZM28.9806 25.7692L29.4795 25.8011L29.4804 25.787L29.4805 25.7729L28.9806 25.7692ZM28.9786 25.8385L28.4786 25.8344L28.4786 25.8366L28.9786 25.8385ZM23.7704 3.66413L10.8176 11.1038L11.3156 11.971L24.2684 4.53126L23.7704 3.66413ZM23.8449 3.62461C23.8274 3.63327 23.8091 3.64299 23.799 3.64843C23.7932 3.65159 23.788 3.65437 23.7843 3.65637C23.7825 3.65738 23.7809 3.65821 23.7798 3.65884C23.7793 3.65915 23.778 3.65976 23.7777 3.65996C23.7775 3.66005 23.7778 3.65989 23.7777 3.65996C23.7777 3.65996 23.7777 3.66001 24.0194 4.0977C24.2611 4.53539 24.2611 4.5354 24.2611 4.5354C24.2617 4.53513 24.2628 4.53447 24.2639 4.53389C24.266 4.53268 24.2691 4.53102 24.2725 4.52917C24.2761 4.52729 24.2795 4.52548 24.2825 4.52393C24.2858 4.52222 24.2868 4.52165 24.2862 4.52198L23.8449 3.62461ZM25.5831 2.62398L23.8163 3.63984L24.3148 4.50676L26.0812 3.49113L25.5831 2.62398ZM30.3378 2.63994C28.8749 1.78963 27.0524 1.78099 25.5831 2.62398L26.0812 3.49113C27.2394 2.82666 28.6801 2.83306 29.8351 3.50448L30.3378 2.63994ZM45.024 11.1768L30.3378 2.63994L29.8351 3.50448L44.5213 12.0413L45.024 11.1768ZM47.3909 15.3009C47.3962 13.6069 46.4867 12.0271 45.024 11.1768L44.5213 12.0413C45.6765 12.7128 46.395 13.962 46.3909 15.2972L47.3909 15.3009ZM47.3824 17.3385L47.3909 15.3009L46.3909 15.2972L46.3825 17.3343L47.3824 17.3385ZM46.8841 17.3885C47.3841 17.382 47.3841 17.382 47.3841 17.382C47.3841 17.3818 47.3841 17.3822 47.3841 17.382C47.384 17.3816 47.384 17.3801 47.384 17.3795C47.384 17.3782 47.384 17.3765 47.3839 17.3744C47.3838 17.3702 47.3837 17.3644 47.3836 17.3578C47.3833 17.3463 47.3828 17.3256 47.3815 17.3061L46.3834 17.3667C46.3834 17.366 46.3834 17.3672 46.3836 17.3709C46.3837 17.3743 46.3838 17.3781 46.3839 17.3821C46.384 17.3859 46.384 17.3895 46.3841 17.392C46.3841 17.3932 46.3841 17.3941 46.3841 17.3947C46.3841 17.3946 46.3842 17.3949 46.3841 17.3947C46.3841 17.3947 46.3841 17.3951 46.8841 17.3885ZM47.3295 32.3276L47.3841 17.3903L46.3841 17.3867L46.3295 32.324L47.3295 32.3276ZM46.6773 34.715C47.0935 33.9991 47.3227 33.1756 47.3295 32.3298L46.3296 32.3217C46.3241 32.9927 46.1421 33.6459 45.8128 34.2125L46.6773 34.715ZM44.9275 36.4622C45.6589 36.0377 46.2612 35.431 46.6773 34.715L45.8128 34.2125C45.4835 34.7791 45.0058 35.2605 44.4255 35.5973L44.9275 36.4622ZM40.2904 39.1231L44.9254 36.4634L44.4276 35.5961L39.7927 38.2558L40.2904 39.1231ZM40.5414 38.7033L40.5415 38.692L39.5416 38.6869L39.5415 38.6982L40.5414 38.7033ZM30.2992 44.8767L40.2906 39.1343L39.7923 38.2672L29.8011 44.0096L30.2992 44.8767ZM29.122 45.3652C29.5288 45.2546 29.9247 45.0917 30.2992 44.8767L29.8011 44.0096C29.5015 44.1816 29.1851 44.3118 28.8595 44.4002L29.122 45.3652ZM25.3481 44.8939C26.5034 45.5655 27.8726 45.7201 29.1274 45.3637L28.8541 44.4018C27.8545 44.6856 26.7661 44.5615 25.8506 44.0294L25.3481 44.8939ZM10.7765 36.4238L25.3481 44.8939L25.8506 44.0294L11.279 35.5592L10.7765 36.4238ZM8.49788 33.3722C8.80922 34.6389 9.62111 35.7521 10.7765 36.4238L11.279 35.5592C10.3635 35.027 9.71704 34.1426 9.46902 33.1335L8.49788 33.3722ZM8.34116 32.1127C8.33966 32.5445 8.39407 32.9693 8.49925 33.3775L9.46762 33.1281C9.38348 32.8014 9.33997 32.4618 9.34115 32.1163L8.34116 32.1127ZM8.3864 20.5889L8.34116 32.1127L9.34115 32.1163L9.3864 20.5928L8.3864 20.5889ZM8.64644 20.1521L8.63664 20.1577L9.13617 21.024L9.14599 21.0183L8.64644 20.1521ZM8.41356 15.2398L8.39621 20.5836L9.39621 20.5868L9.41355 15.2431L8.41356 15.2398ZM9.06578 12.8521C8.6496 13.568 8.42045 14.3917 8.41357 15.2373L9.41355 15.2455C9.419 14.5746 9.60099 13.9212 9.93032 13.3546L9.06578 12.8521ZM10.8156 11.105C10.0842 11.5295 9.48194 12.1362 9.06578 12.8521L9.93032 13.3546C10.2597 12.7881 10.7373 12.3066 11.3176 11.9699L10.8156 11.105ZM43.3351 33.6708L30.3644 41.1193L30.8624 41.9865L43.833 34.538L43.3351 33.6708ZM43.8401 33.6749L43.8354 33.6721L43.3328 34.5367L43.3376 34.5394L43.8401 33.6749ZM44.1293 32.3175C44.1294 32.8733 43.8286 33.3929 43.3399 33.6736L43.8379 34.5408C44.6347 34.0833 45.1294 33.2342 45.1292 32.3173L44.1293 32.3175ZM44.1886 17.3809L44.1292 32.3153L45.1292 32.3194L45.1886 17.3849L44.1886 17.3809ZM44.1882 17.3573L44.1886 17.3895L45.1885 17.3763L45.1881 17.3441L44.1882 17.3573ZM44.2528 17.0718C44.1812 17.1946 44.1838 17.3114 44.184 17.3316C44.1842 17.3718 44.1892 17.404 44.1917 17.4192C44.197 17.4504 44.2045 17.4775 44.2047 17.4783L45.1716 17.2231C45.1698 17.2162 45.1742 17.2321 45.1777 17.2526C45.1794 17.2625 45.1837 17.2895 45.184 17.3253C45.1841 17.3437 45.1833 17.3739 45.1769 17.4107C45.171 17.445 45.1566 17.5067 45.1171 17.5746L44.2528 17.0718ZM43.8703 16.8005C43.9797 16.8641 44.1804 17.0207 44.185 17.3306L45.1848 17.3158C45.1727 16.489 44.6074 16.0723 44.3728 15.936L43.8703 16.8005ZM43.2415 16.7984C43.5219 16.637 43.7618 16.7375 43.8703 16.8005L44.3728 15.936C44.1372 15.7991 43.4806 15.5068 42.7428 15.9316L43.2415 16.7984ZM30.4167 24.1717L43.2415 16.7984L42.7428 15.9316L29.9183 23.3047L30.4167 24.1717ZM29.4805 25.7729C29.4853 25.1149 29.8436 24.4993 30.4156 24.1723L29.9194 23.3041C29.0366 23.8088 28.488 24.7533 28.4805 25.7655L29.4805 25.7729ZM28.9786 25.8385C29.4786 25.8426 29.4786 25.8426 29.4786 25.8427C29.4785 25.8426 29.4786 25.8422 29.4786 25.8417C29.4786 25.8409 29.4786 25.8395 29.4786 25.8377C29.4787 25.834 29.4788 25.8288 29.4788 25.8232C29.4789 25.8176 29.4791 25.812 29.4793 25.8072C29.4795 25.8018 29.4796 25.8001 29.4795 25.8011L28.4815 25.7375C28.48 25.7616 28.4794 25.7884 28.4791 25.8031C28.4789 25.8117 28.4788 25.8193 28.4787 25.8248C28.4787 25.8275 28.4787 25.8298 28.4786 25.8314C28.4786 25.8323 28.4787 25.8329 28.4786 25.8334C28.4786 25.8337 28.4786 25.8342 28.4786 25.8344C28.4786 25.8343 28.4786 25.8345 28.4786 25.8344C28.4786 25.8344 28.4786 25.8344 28.9786 25.8385ZM29.4223 40.5722L29.4785 25.8405L28.4786 25.8366L28.4223 40.5679L29.4223 40.5722ZM29.7354 41.1172C29.6307 41.0563 29.4208 40.8949 29.4223 40.5722L28.4223 40.5679C28.4184 41.4202 29.0032 41.8483 29.2329 41.9818L29.7354 41.1172ZM30.3674 41.1176C30.0798 41.2801 29.8369 41.1762 29.7354 41.1172L29.2329 41.9818C29.4657 42.1172 30.1193 42.4063 30.8593 41.9883L30.3674 41.1176Z" fill="#99A2AF"/>
</g>
</g>
</g>
<defs>
<clipPath id="clip0_55_693">
<rect width="50" height="50" fill="white" transform="translate(5.22644) rotate(5.99997)"/>
</clipPath>
</defs>
</svg>
