<svg width="27" height="27" viewBox="0 0 27 27" fill="none" xmlns="http://www.w3.org/2000/svg">
<g clip-path="url(#clip0_503_767)">
<path d="M23.0938 3H12.125C9.79878 3 7.90625 4.89253 7.90625 7.21875H6.21875C3.89253 7.21875 2 9.11128 2 11.4375V24.9375C2 25.2784 2.20587 25.5872 2.52059 25.7171C2.62522 25.761 2.73491 25.7812 2.84375 25.7812C3.06313 25.7812 3.27912 25.6952 3.44028 25.534L6.56806 22.4062H17.1875C19.5137 22.4062 21.4062 20.5137 21.4062 18.1875H22.7444L25.8722 21.3153C26.0334 21.4764 26.2494 21.5625 26.4688 21.5625C26.5776 21.5625 26.6873 21.5422 26.7919 21.4984C27.1066 21.3684 27.3125 21.0596 27.3125 20.7188V7.21875C27.3125 4.89253 25.42 3 23.0938 3ZM17.1875 20.7188H6.21875C5.99516 20.7188 5.78 20.8073 5.62222 20.966L3.6875 22.9007V11.4375C3.6875 10.0419 4.82319 8.90625 6.21875 8.90625H7.90625V13.9688C7.90625 16.295 9.79878 18.1875 12.125 18.1875H19.7188C19.7188 19.5831 18.5831 20.7188 17.1875 20.7188ZM25.625 18.6819L23.6903 16.7472C23.5325 16.5886 23.3173 16.5 23.0938 16.5H12.125C10.7294 16.5 9.59375 15.3643 9.59375 13.9688V7.21875C9.59375 5.82319 10.7294 4.6875 12.125 4.6875H23.0938C24.4893 4.6875 25.625 5.82319 25.625 7.21875V18.6819Z" fill="#1276DF"/>
<path d="M21.4062 10.5938C21.4062 8.26753 19.5137 6.375 17.1875 6.375C14.8613 6.375 12.9688 8.26753 12.9688 10.5938C12.9688 12.92 14.8613 14.8125 17.1875 14.8125C18.0464 14.8125 18.8429 14.5518 19.5103 14.1097L20.8097 15.409L22.0028 14.216L20.7034 12.9166C21.1455 12.2492 21.4062 11.4527 21.4062 10.5938ZM17.1875 13.125C15.7919 13.125 14.6562 11.9893 14.6562 10.5938C14.6562 9.19819 15.7919 8.0625 17.1875 8.0625C18.5831 8.0625 19.7188 9.19819 19.7188 10.5938C19.7188 11.9893 18.5831 13.125 17.1875 13.125Z" fill="#1276DF"/>
</g>
<defs>
<clipPath id="clip0_503_767">
<rect width="27" height="27" fill="white"/>
</clipPath>
</defs>
</svg>
