<svg width="86" height="88" viewBox="0 0 86 88" fill="none" xmlns="http://www.w3.org/2000/svg">
<path d="M85.3012 36.6898C80.8351 15.3866 36.4201 32.9065 45.025 16.6081C48.4568 10.1079 47.6143 2.48561 39.9806 0.553555C9.69415 -7.11191 -22.023 67.5323 20.9016 57.8178C30.0071 55.757 35.3947 47.5553 38.0687 52.7213C43.386 62.994 29.0222 74.797 34.6857 84.1008C45.6883 102.176 88.5999 52.4236 85.3012 36.6898Z" fill="url(#paint0_linear_168_1171)"/>
<path d="M63.2813 29.2109C62.8065 29.2109 62.4219 28.8263 62.4219 28.3516C62.4219 27.8304 61.9977 27.4063 61.4766 27.4063C61.0018 27.4063 60.6172 27.0216 60.6172 26.5469C60.6172 26.0722 61.0018 25.6875 61.4766 25.6875C61.9977 25.6875 62.4219 25.2633 62.4219 24.7422C62.4219 24.2675 62.8065 23.8828 63.2813 23.8828C63.756 23.8828 64.1406 24.2675 64.1406 24.7422C64.1406 25.2633 64.5648 25.6875 65.0859 25.6875C65.5607 25.6875 65.9453 26.0722 65.9453 26.5469C65.9453 27.0216 65.5607 27.4063 65.0859 27.4063C64.5648 27.4063 64.1406 27.8304 64.1406 28.3516C64.1406 28.8261 63.756 29.2109 63.2813 29.2109Z" fill="#0A488A"/>
<path d="M10.3828 86.3789C9.90827 86.3789 9.52344 85.9943 9.52344 85.5195C9.52344 84.9984 9.09942 84.5742 8.57813 84.5742C8.10358 84.5742 7.71875 84.1896 7.71875 83.7148C7.71875 83.2401 8.10358 82.8555 8.57813 82.8555C9.09942 82.8555 9.52344 82.4313 9.52344 81.9102C9.52344 81.4354 9.90827 81.0508 10.3828 81.0508C10.8574 81.0508 11.2422 81.4354 11.2422 81.9102C11.2422 82.4313 11.6662 82.8555 12.1875 82.8555C12.6621 82.8555 13.0469 83.2401 13.0469 83.7148C13.0469 84.1896 12.6621 84.5742 12.1875 84.5742C11.6662 84.5742 11.2422 84.9984 11.2422 85.5195C11.2422 85.9943 10.8574 86.3789 10.3828 86.3789Z" fill="#0A488A"/>
<path d="M2.66407 44.5117C2.18952 44.5117 1.80469 44.1271 1.80469 43.6524C1.80469 43.1312 1.38067 42.707 0.859376 42.707C0.384829 42.707 0 42.3224 0 41.8477C0 41.3729 0.384829 40.9883 0.859376 40.9883C1.38067 40.9883 1.80469 40.5641 1.80469 40.043C1.80469 39.5683 2.18952 39.1836 2.66407 39.1836C3.13861 39.1836 3.52344 39.5683 3.52344 40.043C3.52344 40.5641 3.94746 40.9883 4.46876 40.9883C4.94331 40.9883 5.32813 41.3729 5.32813 41.8477C5.32813 42.3224 4.94331 42.707 4.46876 42.707C3.94746 42.707 3.52344 43.1312 3.52344 43.6524C3.52344 44.1271 3.13861 44.5117 2.66407 44.5117Z" fill="#0A488A"/>
<path d="M58.6406 20.3281C58.4208 20.3281 58.2006 20.2442 58.033 20.0763L56.2283 18.2716C55.8926 17.9361 55.8926 17.3919 56.2283 17.0564L58.033 15.2518C58.3683 14.9161 58.9128 14.9161 59.2482 15.2518L61.0529 17.0564C61.3885 17.3919 61.3885 17.9361 61.0529 18.2716L59.2482 20.0763C59.0806 20.2442 58.8606 20.3281 58.6406 20.3281ZM58.0514 17.664L58.6408 18.2534L59.2301 17.664L58.6408 17.0747L58.0514 17.664Z" fill="#0A488A"/>
<path d="M20.4454 82.5664C20.2254 82.5664 20.0056 82.4825 19.8377 82.3146L18.033 80.5099C17.6973 80.1744 17.6973 79.6302 18.033 79.2947L19.8377 77.49C20.1734 77.1544 20.7174 77.1544 21.053 77.49L22.8577 79.2947C23.1934 79.6302 23.1934 80.1744 22.8577 80.5099L21.053 82.3146C20.8853 82.4825 20.6654 82.5664 20.4454 82.5664ZM19.8561 79.9023L20.4454 80.4917L21.0348 79.9023L20.4454 79.3129L19.8561 79.9023Z" fill="#0A488A"/>
<path d="M82.2813 15.2109C81.8065 15.2109 81.4219 14.8263 81.4219 14.3516C81.4219 13.8304 80.9977 13.4063 80.4766 13.4063C80.0018 13.4063 79.6172 13.0216 79.6172 12.5469C79.6172 12.0722 80.0018 11.6875 80.4766 11.6875C80.9977 11.6875 81.4219 11.2633 81.4219 10.7422C81.4219 10.2675 81.8065 9.88281 82.2813 9.88281C82.756 9.88281 83.1406 10.2675 83.1406 10.7422C83.1406 11.2633 83.5648 11.6875 84.0859 11.6875C84.5607 11.6875 84.9453 12.0722 84.9453 12.5469C84.9453 13.0216 84.5607 13.4063 84.0859 13.4063C83.5648 13.4063 83.1406 13.8304 83.1406 14.3516C83.1406 14.8261 82.756 15.2109 82.2813 15.2109Z" fill="#0A488A"/>
<path d="M21.6641 30.5117C21.1895 30.5117 20.8047 30.1271 20.8047 29.6524C20.8047 29.1312 20.3807 28.707 19.8594 28.707C19.3848 28.707 19 28.3224 19 27.8477C19 27.3729 19.3848 26.9883 19.8594 26.9883C20.3807 26.9883 20.8047 26.5641 20.8047 26.043C20.8047 25.5683 21.1895 25.1836 21.6641 25.1836C22.1386 25.1836 22.5234 25.5683 22.5234 26.043C22.5234 26.5641 22.9475 26.9883 23.4688 26.9883C23.9433 26.9883 24.3281 27.3729 24.3281 27.8477C24.3281 28.3224 23.9433 28.707 23.4688 28.707C22.9475 28.707 22.5234 29.1312 22.5234 29.6524C22.5234 30.1271 22.1386 30.5117 21.6641 30.5117Z" fill="#0A488A"/>
<path d="M77.6406 6.32809C77.4208 6.32809 77.2006 6.24422 77.033 6.07629L75.2283 4.2716C74.8926 3.9361 74.8926 3.39195 75.2283 3.05645L77.033 1.25175C77.3683 0.916082 77.9128 0.916082 78.2482 1.25175L80.0529 3.05645C80.3885 3.39195 80.3885 3.9361 80.0529 4.2716L78.2482 6.07629C78.0806 6.24422 77.8606 6.32809 77.6406 6.32809ZM77.0514 3.66402L77.6408 4.25338L78.2301 3.66402L77.6408 3.07466L77.0514 3.66402Z" fill="#0A488A"/>
<path d="M39.4454 68.5664C39.2254 68.5664 39.0056 68.4825 38.8377 68.3146L37.033 66.5099C36.6973 66.1744 36.6973 65.6302 37.033 65.2947L38.8377 63.49C39.1734 63.1544 39.7174 63.1544 40.053 63.49L41.8577 65.2947C42.1934 65.6302 42.1934 66.1744 41.8577 66.5099L40.053 68.3146C39.8853 68.4825 39.6654 68.5664 39.4454 68.5664ZM38.8561 65.9023L39.4454 66.4917L40.0348 65.9023L39.4454 65.3129L38.8561 65.9023Z" fill="#0A488A"/>
<path fill-rule="evenodd" clip-rule="evenodd" d="M38.6953 62.5117H53.3064V73.8671H38.6953V62.5117Z" fill="white"/>
<path fill-rule="evenodd" clip-rule="evenodd" d="M29.9294 72.4375H62.0677C63.0946 72.4375 63.9346 73.2777 63.9346 74.3044V76.1714H28.0625V74.3044C28.0625 73.2777 28.9025 72.4375 29.9294 72.4375Z" fill="white"/>
<path fill-rule="evenodd" clip-rule="evenodd" d="M78.1137 19.7501V57.9773C78.1137 61.2304 75.4555 63.8915 72.2064 63.8915H20.7432C17.4941 63.8915 14.8359 61.2304 14.8359 57.9773V19.7501C14.8359 16.497 17.4941 13.8359 20.7432 13.8359H72.2064C75.4554 13.8361 78.1137 16.4972 78.1137 19.7501Z" fill="white"/>
<path fill-rule="evenodd" clip-rule="evenodd" d="M20.3203 42.5664H28.23V45.9756H20.3203V42.5664Z" fill="#248EFF"/>
<path fill-rule="evenodd" clip-rule="evenodd" d="M20.3203 49.3867H33.9159V52.7959H20.3203V49.3867Z" fill="#248EFF"/>
<path fill-rule="evenodd" clip-rule="evenodd" d="M20.3203 56.2034H39.5553V59.6125H20.3203V56.2034Z" fill="#248EFF"/>
<path d="M69.1677 57.3046C72.6 53.8723 72.6 48.3074 69.1677 44.8751C65.7354 41.4428 60.1705 41.4428 56.7382 44.8751C53.3059 48.3074 53.3059 53.8723 56.7382 57.3046C60.1705 60.7369 65.7354 60.7369 69.1677 57.3046Z" fill="#248EFF"/>
<path fill-rule="evenodd" clip-rule="evenodd" d="M54.7109 27.3086H58.1202V35.2182H54.7109V27.3086Z" fill="#1276DF"/>
<path fill-rule="evenodd" clip-rule="evenodd" d="M61.5234 17.8086H64.9327V35.2187H61.5234V17.8086Z" fill="#1276DF"/>
<path fill-rule="evenodd" clip-rule="evenodd" d="M68.3438 21.8672H71.753V35.2186H68.3438V21.8672Z" fill="#1276DF"/>
<path fill-rule="evenodd" clip-rule="evenodd" d="M31.1807 20.6562C35.2025 20.6562 38.4629 23.9167 38.4629 27.9385C38.4629 31.9603 35.2025 35.2207 31.1807 35.2207C27.1589 35.2207 23.8984 31.9603 23.8984 27.9385H31.1807V20.6562Z" fill="#1276DF"/>
<path fill-rule="evenodd" clip-rule="evenodd" d="M20.3203 24.3604C20.3203 20.3385 23.5807 17.0781 27.6026 17.0781V24.3604H20.3203Z" fill="#1276DF"/>
<path fill-rule="evenodd" clip-rule="evenodd" d="M26.9415 17.7762V23.6975H21.0196C21.3319 20.5773 23.8181 18.0885 26.9415 17.7762ZM20.3199 25.0256H27.6037C27.9723 25.0256 28.2659 24.7277 28.2659 24.361V17.079C28.2659 16.7123 27.9724 16.415 27.6037 16.415C23.2246 16.415 19.6578 19.9794 19.6578 24.3609C19.6577 24.7277 19.9514 25.0256 20.3199 25.0256ZM31.1769 28.6006H24.5928C24.9301 31.9396 27.7537 34.5545 31.1769 34.5545C34.825 34.5545 37.7986 31.586 37.7986 27.9366C37.7986 24.5115 35.1811 21.6848 31.8454 21.3519V27.9366C31.8452 28.3033 31.5455 28.6006 31.1769 28.6006ZM23.2309 27.9366C23.2309 32.3181 26.7978 35.8825 31.1768 35.8825C35.562 35.8825 39.1227 32.3181 39.1227 27.9366C39.1227 23.5551 35.562 19.9907 31.1768 19.9907C30.8082 19.9907 30.5146 20.288 30.5146 20.6541V27.2725H23.8992C23.5308 27.2727 23.2309 27.5699 23.2309 27.9366ZM69.0075 22.5312H71.0878V34.5545H69.0075V22.5312ZM68.3391 35.8826H71.7498C72.1184 35.8826 72.412 35.5853 72.412 35.2186V21.8672C72.412 21.5005 72.1184 21.2031 71.7498 21.2031H68.3391C67.9768 21.2031 67.6769 21.5005 67.6769 21.8672V35.2186C67.677 35.5853 67.9769 35.8826 68.3391 35.8826ZM62.186 18.4721H64.2662V34.5545H62.186V18.4721ZM61.5239 35.8826H64.9347C65.297 35.8826 65.5969 35.5853 65.5969 35.2186V17.8087C65.5969 17.4415 65.297 17.1441 64.9347 17.1441H61.5239C61.1554 17.1441 60.8617 17.4415 60.8617 17.8087V35.2186C60.8617 35.5853 61.1554 35.8826 61.5239 35.8826ZM55.3707 27.9742H57.451V34.5546H55.3707V27.9742ZM54.7024 35.8826H58.1132C58.4817 35.8826 58.7754 35.5853 58.7754 35.2186V27.3094C58.7754 26.9421 58.4817 26.6454 58.1132 26.6454H54.7024C54.3401 26.6454 54.0402 26.9421 54.0402 27.3094V35.2186C54.0402 35.5853 54.3401 35.8826 54.7024 35.8826ZM68.208 47.5979C68.4703 47.8583 68.4703 48.2781 68.208 48.5374L62.1673 54.58C61.9062 54.8407 61.4917 54.8407 61.2303 54.58L57.707 51.0606C57.451 50.8007 57.451 50.381 57.707 50.1217C57.9693 49.8618 58.388 49.8618 58.6503 50.1217L61.6987 53.1714L67.2709 47.598C67.5333 47.3392 67.9518 47.3392 68.208 47.5979ZM62.9607 59.215C67.4397 59.215 71.0878 55.5706 71.0878 51.0898C71.0878 46.609 67.4397 42.9633 62.9607 42.9633C58.4817 42.9633 54.8336 46.6088 54.8336 51.0898C54.8335 55.5706 58.4817 59.215 62.9607 59.215ZM62.9607 41.6346C57.7509 41.6346 53.503 45.8768 53.503 51.0898C53.503 56.3027 57.7509 60.5436 62.9607 60.5436C68.1768 60.5436 72.4122 56.3027 72.4122 51.0898C72.412 45.8769 68.1768 41.6346 62.9607 41.6346ZM38.8916 58.9483H20.9821V56.8669H38.8917V58.9483H38.8916ZM39.5538 55.5394H20.3199C19.9514 55.5394 19.6577 55.8368 19.6577 56.2028V59.6124C19.6577 59.9791 19.9514 60.2764 20.3199 60.2764H39.5538C39.9224 60.2764 40.2223 59.9791 40.2223 59.6124V56.2028C40.2223 55.8368 39.9224 55.5394 39.5538 55.5394ZM20.9821 50.0485H33.2508V52.13H20.9821V50.0485ZM19.6577 52.7939C19.6577 53.1606 19.9514 53.458 20.3199 53.458H33.913C34.2816 53.458 34.5814 53.1606 34.5814 52.7939V49.3845C34.5814 49.0178 34.2816 48.7204 33.913 48.7204H20.3199C19.9514 48.7204 19.6577 49.0178 19.6577 49.3845V52.7939ZM20.9821 43.2301H27.5662V45.3115H20.9821V43.2301ZM20.3199 46.639H28.2284C28.5969 46.639 28.8968 46.3416 28.8968 45.9749V42.566C28.8968 42.1993 28.5969 41.902 28.2284 41.902H20.3199C19.9514 41.902 19.6577 42.1993 19.6577 42.566V45.9749C19.6577 46.3416 19.9514 46.639 20.3199 46.639ZM75.1294 39.0173C75.1294 38.6506 74.8295 38.3532 74.4609 38.3532H46.6627V17.2396C46.6627 16.8736 46.3628 16.5762 46.0005 16.5762C45.632 16.5762 45.3321 16.8736 45.3321 17.2396V38.3532H17.5338C17.1652 38.3532 16.8653 38.6506 16.8653 39.0173C16.8653 39.384 17.1652 39.6813 17.5338 39.6813H45.3321V60.7943C45.3321 61.161 45.632 61.4583 46.0005 61.4583C46.3628 61.4583 46.6627 61.161 46.6627 60.7943V39.6813H74.4611C74.8296 39.6813 75.1294 39.384 75.1294 39.0173ZM77.2096 58.2512V19.7832C77.2096 16.8679 74.8359 14.496 71.9185 14.496H20.0763C17.1591 14.496 14.7853 16.8679 14.7853 19.7832V58.251C14.7853 61.1664 17.1591 63.5383 20.0763 63.5383H71.9186C74.8359 63.5384 77.2096 61.1665 77.2096 58.2512ZM52.6409 71.7743H39.3539V64.8666H52.6409V71.7743ZM63.2729 74.3054V75.5072H28.7281V74.3054C28.7281 73.6414 29.2654 73.1023 29.9276 73.1023H62.0674C62.7295 73.1023 63.2729 73.6415 63.2729 74.3054ZM71.9185 13.168H20.0763C16.4282 13.168 13.4609 16.1353 13.4609 19.7834V58.2512C13.4609 61.8993 16.4282 64.8666 20.0763 64.8666H38.0297V71.7743H29.9276C28.5345 71.7743 27.3976 72.91 27.3976 74.3055V76.1714C27.3976 76.5381 27.6975 76.8355 28.0598 76.8355H63.9353C64.3038 76.8355 64.5975 76.5381 64.5975 76.1714V74.3054C64.5975 72.9098 63.4606 71.7741 62.0675 71.7741H53.9654V64.8664H71.9188C75.5731 64.8664 78.5404 61.8993 78.5404 58.251V19.7832C78.5401 16.1351 75.573 13.168 71.9185 13.168Z" fill="#0A456D"/>
<defs>
<linearGradient id="paint0_linear_168_1171" x1="3.85217e-05" y1="44" x2="85.4815" y2="44" gradientUnits="userSpaceOnUse">
<stop stop-color="#D1DDFF" stop-opacity="0"/>
<stop offset="1" stop-color="#248EFF" stop-opacity="0.26"/>
</linearGradient>
</defs>
</svg>
