<svg width="28" height="28" viewBox="0 0 28 28" fill="none" xmlns="http://www.w3.org/2000/svg">
<path d="M22.5217 8.52174H4.26087C1.9113 8.52174 0 6.61043 0 4.26087C0 1.9113 1.9113 0 4.26087 0H22.5217C24.8713 0 26.7826 1.9113 26.7826 4.26087C26.7826 6.61043 24.8713 8.52174 22.5217 8.52174ZM4.26087 1.82609C2.91809 1.82609 1.82609 2.91809 1.82609 4.26087C1.82609 5.60365 2.91809 6.69565 4.26087 6.69565H22.5217C23.8645 6.69565 24.9565 5.60365 24.9565 4.26087C24.9565 2.91809 23.8645 1.82609 22.5217 1.82609H4.26087Z" fill="#1276DF"/>
<path d="M6.08849 5.47385C6.76083 5.47385 7.30588 4.9288 7.30588 4.25645C7.30588 3.58411 6.76083 3.03906 6.08849 3.03906C5.41614 3.03906 4.87109 3.58411 4.87109 4.25645C4.87109 4.9288 5.41614 5.47385 6.08849 5.47385Z" fill="#1276DF"/>
<path d="M10.9557 5.47385C11.628 5.47385 12.1731 4.9288 12.1731 4.25645C12.1731 3.58411 11.628 3.03906 10.9557 3.03906C10.2833 3.03906 9.73828 3.58411 9.73828 4.25645C9.73828 4.9288 10.2833 5.47385 10.9557 5.47385Z" fill="#1276DF"/>
<path d="M12.0157 15.2171H4.26087C1.9113 15.2171 0 13.3057 0 10.9562C0 9.82523 0.458957 8.72714 1.25878 7.94192C2.03183 7.15427 3.12991 6.69531 4.26087 6.69531H22.5217C24.4489 6.69531 26.1386 7.99062 26.6304 9.84592C26.7595 10.3329 26.4697 10.8332 25.9828 10.9623C25.497 11.0974 24.9955 10.8016 24.8664 10.3146C24.5852 9.25792 23.621 8.5214 22.5217 8.5214H4.26087C3.60835 8.5214 3.00087 8.77462 2.55043 9.23357C2.0793 9.69618 1.82609 10.3037 1.82609 10.9562C1.82609 12.299 2.91809 13.391 4.26087 13.391H12.0157C12.5197 13.391 12.9287 13.8 12.9287 14.304C12.9287 14.808 12.5197 15.2171 12.0157 15.2171Z" fill="#1276DF"/>
<path d="M23.7412 13.8496L23.9727 13.8604C24.5106 13.9056 25.0265 14.1018 25.46 14.4287C25.8934 14.7556 26.2246 15.1975 26.416 15.7021L26.4893 15.9229L27.123 18.1436C27.1406 18.2052 27.1503 18.2689 27.1504 18.333V18.334C27.149 18.7388 27.0412 19.1363 26.8379 19.4863C26.6494 19.8108 26.3836 20.0824 26.0664 20.2812V24.292C26.0655 25.0496 25.7642 25.7758 25.2285 26.3115C24.6928 26.8472 23.9666 27.1494 23.209 27.1504H22.667C22.34 27.1501 22.0261 27.0193 21.7949 26.7881C21.5639 26.5569 21.434 26.2438 21.4336 25.917V24.292C21.4336 24.0445 21.3351 23.8069 21.1602 23.6318C20.9851 23.4568 20.7475 23.3584 20.5 23.3584C20.2525 23.3584 20.0149 23.4568 19.8398 23.6318C19.6649 23.8069 19.5664 24.0445 19.5664 24.292V25.917C19.566 26.2438 19.4361 26.5569 19.2051 26.7881C18.9739 27.0193 18.66 27.1501 18.333 27.1504H17.791C17.0334 27.1494 16.3072 26.8472 15.7715 26.3115C15.2358 25.7758 14.9345 25.0496 14.9336 24.292V20.2812C14.6164 20.0824 14.3506 19.8108 14.1621 19.4863C13.9588 19.1363 13.851 18.7388 13.8496 18.334V18.333C13.8497 18.2689 13.8594 18.2052 13.877 18.1436L14.5107 15.9229H14.5117C14.6842 15.3269 15.0447 14.8023 15.54 14.4287C16.0353 14.0551 16.6384 13.8517 17.2588 13.8496H23.7412ZM23.2051 19.9766C22.8613 20.3058 22.4262 20.5259 21.9541 20.6035C21.4567 20.6852 20.948 20.6039 20.5 20.376C20.051 20.6038 19.5412 20.6852 19.043 20.6035C18.5697 20.5259 18.1331 20.3062 17.7881 19.9766C17.5942 20.1703 17.3694 20.3305 17.1191 20.4443C16.8656 20.5596 16.5935 20.6249 16.3164 20.6426V24.291C16.3168 24.682 16.4726 25.0574 16.749 25.334C17.0256 25.6105 17.4009 25.7662 17.792 25.7666H18.1836V24.292C18.1836 23.6776 18.4278 23.0878 18.8623 22.6533C19.2967 22.2191 19.8857 21.9746 20.5 21.9746C21.1143 21.9746 21.7033 22.2191 22.1377 22.6533C22.5722 23.0878 22.8164 23.6776 22.8164 24.292V25.7666H23.208C23.5991 25.7662 23.9744 25.6105 24.251 25.334C24.5273 25.0576 24.683 24.6828 24.6836 24.292V20.6416C24.406 20.6235 24.1332 20.5593 23.8789 20.4443C23.6273 20.3306 23.4007 20.1703 23.2051 19.9766ZM17.1396 15.2383C16.862 15.2617 16.5958 15.3635 16.3721 15.5322C16.1162 15.7252 15.9298 15.9959 15.8408 16.3037L15.2383 18.4111C15.2532 18.5886 15.3165 18.7587 15.4248 18.9004C15.537 19.047 15.6905 19.1572 15.8652 19.2168C16.04 19.2764 16.2288 19.2829 16.4072 19.2354C16.5855 19.1878 16.7453 19.0878 16.8672 18.9492C16.9826 18.818 17.125 18.7127 17.2842 18.6406C17.4435 18.5685 17.6173 18.5314 17.792 18.5312L17.9229 18.5381C18.0525 18.5521 18.1796 18.5865 18.2988 18.6406C18.4567 18.7123 18.5972 18.8173 18.7119 18.9473L18.7783 19.0117C18.9389 19.1542 19.1433 19.2391 19.3594 19.252C19.5756 19.2647 19.7894 19.2047 19.9658 19.082L20.0391 19.0254C20.1659 18.9122 20.3299 18.8496 20.5 18.8496C20.6698 18.8496 20.8332 18.9125 20.96 19.0254H20.9609C21.1497 19.1856 21.3934 19.2666 21.6406 19.252C21.8876 19.2372 22.1196 19.1285 22.2881 18.9473C22.4028 18.8173 22.5433 18.7123 22.7012 18.6406C22.8604 18.5684 23.0342 18.5315 23.209 18.5312L23.3398 18.5381C23.4695 18.5521 23.5965 18.5866 23.7158 18.6406C23.8749 18.7127 24.0165 18.8181 24.1318 18.9492C24.2537 19.088 24.4143 19.1878 24.5928 19.2354C24.7712 19.2829 24.96 19.2764 25.1348 19.2168C25.3096 19.1572 25.463 19.0471 25.5752 18.9004C25.6835 18.7587 25.7468 18.5886 25.7617 18.4111L25.1592 16.3037L25.1211 16.1904C25.0223 15.9296 24.8519 15.7011 24.6279 15.5322C24.4042 15.3635 24.138 15.2617 23.8604 15.2383L23.7402 15.2334H17.2598L17.1396 15.2383Z" fill="#1276DF" stroke="#1276DF" stroke-width="0.3"/>
<path d="M6.08849 12.177C6.76083 12.177 7.30588 11.6319 7.30588 10.9596C7.30588 10.2872 6.76083 9.74219 6.08849 9.74219C5.41614 9.74219 4.87109 10.2872 4.87109 10.9596C4.87109 11.6319 5.41614 12.177 6.08849 12.177Z" fill="#1276DF"/>
<path d="M10.9557 12.177C11.628 12.177 12.1731 11.6319 12.1731 10.9596C12.1731 10.2872 11.628 9.74219 10.9557 9.74219C10.2833 9.74219 9.73828 10.2872 9.73828 10.9596C9.73828 11.6319 10.2833 12.177 10.9557 12.177Z" fill="#1276DF"/>
<path d="M10.0435 21.9124H4.26087C1.9113 21.9124 0 20.0011 0 17.6515C0 16.5205 0.458957 15.4225 1.25878 14.6372C2.03183 13.8496 3.12991 13.3906 4.26087 13.3906C4.76487 13.3906 5.17391 13.7997 5.17391 14.3037C5.17391 14.8077 4.76487 15.2167 4.26087 15.2167C3.60835 15.2167 3.00087 15.4699 2.55043 15.9289C2.0793 16.3915 1.82609 16.999 1.82609 17.6515C1.82609 18.9943 2.91809 20.0863 4.26087 20.0863H10.0435C10.5475 20.0863 10.9565 20.4953 10.9565 20.9993C10.9565 21.5033 10.5475 21.9124 10.0435 21.9124Z" fill="#1276DF"/>
<path d="M6.08849 18.8723C6.76083 18.8723 7.30588 18.3272 7.30588 17.6549C7.30588 16.9825 6.76083 16.4375 6.08849 16.4375C5.41614 16.4375 4.87109 16.9825 4.87109 17.6549C4.87109 18.3272 5.41614 18.8723 6.08849 18.8723Z" fill="#1276DF"/>
</svg>
