<svg width="30" height="30" viewBox="0 0 30 30" fill="none" xmlns="http://www.w3.org/2000/svg">
<g clip-path="url(#clip0_276_693)">
<path d="M27.3633 0H2.63672C1.18283 0 0 1.18283 0 2.63672V23.7305C0 25.1844 1.18283 26.3672 2.63672 26.3672H9.44209C10.4313 28.4439 12.5507 29.8828 15 29.8828C17.4493 29.8828 19.5687 28.4439 20.5579 26.3672H27.3633C28.8172 26.3672 30 25.1844 30 23.7305V2.63672C30 1.18283 28.8172 0 27.3633 0ZM2.63672 1.75781H27.3633C27.8479 1.75781 28.2422 2.15209 28.2422 2.63672V7.03125H1.75781V2.63672C1.75781 2.15209 2.15209 1.75781 2.63672 1.75781ZM15 28.125C12.5769 28.125 10.6055 26.1536 10.6055 23.7305C10.6055 21.3073 12.5769 19.3359 15 19.3359C17.4231 19.3359 19.3945 21.3073 19.3945 23.7305C19.3945 26.1536 17.4231 28.125 15 28.125ZM27.3633 24.6094H21.0893C21.6217 20.9037 18.7417 17.5781 15 17.5781C11.269 17.5781 8.37668 20.8924 8.9107 24.6094H2.63672C2.15209 24.6094 1.75781 24.2151 1.75781 23.7305V8.78906H28.2422V23.7305C28.2422 24.2151 27.8479 24.6094 27.3633 24.6094Z" fill="#455C82"/>
<path d="M16.6426 23.8496C16.9126 23.8496 17.1502 24.0566 17.1504 24.333C17.1504 24.6095 16.9127 24.8164 16.6426 24.8164H13.5996L14.1406 25.3213C14.3436 25.5107 14.3435 25.8222 14.1406 26.0117C13.9435 26.1956 13.6278 26.1956 13.4307 26.0117L12.002 24.6787C11.8548 24.5413 11.8076 24.3294 11.8896 24.1445C11.9708 23.9618 12.1583 23.8496 12.3574 23.8496H16.6426Z" fill="#455C82" stroke="#455C82" stroke-width="0.3"/>
<path d="M15.8594 20.9883C16.0565 20.8043 16.3722 20.8043 16.5693 20.9883L17.998 22.3213C18.1453 22.4588 18.1924 22.6706 18.1104 22.8555C18.0292 23.0382 17.8417 23.1504 17.6426 23.1504H13.3574C13.0874 23.1504 12.8498 22.9433 12.8496 22.667C12.8496 22.3905 13.0873 22.1836 13.3574 22.1836H16.4004L15.8594 21.6787C15.6564 21.4893 15.6565 21.1778 15.8594 20.9883Z" fill="#455C82" stroke="#455C82" stroke-width="0.3"/>
<path d="M9.93992 10.5656C9.46895 10.448 8.99182 10.7342 8.8741 11.2051L8.47707 12.7933L7.82135 11.8097C7.65834 11.5652 7.38389 11.4183 7.09004 11.4183C6.79619 11.4183 6.52174 11.5652 6.35873 11.8097L5.70301 12.7933L5.30598 11.2051C5.18826 10.7342 4.71096 10.4475 4.24016 10.5656C3.76924 10.6834 3.48295 11.1605 3.60066 11.6314L4.47957 15.147C4.56395 15.4846 4.83945 15.7405 5.18223 15.7999C5.52506 15.859 5.87053 15.7108 6.06354 15.4214L7.09004 13.8817L8.11654 15.4214C8.28131 15.6686 8.55723 15.8129 8.84773 15.8129C9.24992 15.8129 9.60248 15.5394 9.70057 15.1471L10.5795 11.6315C10.6972 11.1606 10.4108 10.6834 9.93992 10.5656Z" fill="#455C82"/>
<path d="M17.8501 10.5656C17.3791 10.448 16.902 10.7342 16.7843 11.2051L16.3872 12.7933L15.7315 11.8097C15.3838 11.2882 14.6163 11.2886 14.2689 11.8097L13.6132 12.7933L13.2161 11.2051C13.0984 10.7342 12.6212 10.4475 12.1503 10.5656C11.6794 10.6834 11.3931 11.1605 11.5108 11.6314L12.3897 15.147C12.4741 15.4846 12.7496 15.7405 13.0924 15.7999C13.4352 15.859 13.7807 15.7108 13.9737 15.4214L15.0002 13.8817L16.0267 15.4214C16.1915 15.6686 16.4674 15.8129 16.7579 15.8129C17.1601 15.8129 17.5126 15.5394 17.6107 15.1471L18.4896 11.6315C18.6073 11.1606 18.321 10.6834 17.8501 10.5656Z" fill="#455C82"/>
<path d="M25.7602 10.5656C25.2893 10.448 24.8121 10.7342 24.6944 11.2051L24.2974 12.7933L23.6417 11.8097C23.294 11.2882 22.5265 11.2886 22.179 11.8097L21.5233 12.7933L21.1263 11.2051C21.0086 10.7342 20.5313 10.4475 20.0605 10.5656C19.5896 10.6834 19.3033 11.1605 19.421 11.6314L20.2999 15.147C20.3843 15.4846 20.6598 15.7405 21.0025 15.7999C21.3453 15.859 21.6909 15.7108 21.8838 15.4214L22.9104 13.8817L23.9369 15.4214C24.1279 15.7079 24.4713 15.8597 24.8182 15.7999C25.1609 15.7405 25.4364 15.4846 25.5208 15.147L26.3997 11.6314C26.5175 11.1606 26.2312 10.6834 25.7602 10.5656Z" fill="#455C82"/>
<path d="M4.45312 5.27344C4.93853 5.27344 5.33203 4.87994 5.33203 4.39453C5.33203 3.90912 4.93853 3.51562 4.45312 3.51562C3.96772 3.51562 3.57422 3.90912 3.57422 4.39453C3.57422 4.87994 3.96772 5.27344 4.45312 5.27344Z" fill="#455C82"/>
<path d="M7.96875 5.27344C8.45416 5.27344 8.84766 4.87994 8.84766 4.39453C8.84766 3.90912 8.45416 3.51562 7.96875 3.51562C7.48334 3.51562 7.08984 3.90912 7.08984 4.39453C7.08984 4.87994 7.48334 5.27344 7.96875 5.27344Z" fill="#455C82"/>
<path d="M11.4844 5.27344C11.9698 5.27344 12.3633 4.87994 12.3633 4.39453C12.3633 3.90912 11.9698 3.51562 11.4844 3.51562C10.999 3.51562 10.6055 3.90912 10.6055 4.39453C10.6055 4.87994 10.999 5.27344 11.4844 5.27344Z" fill="#455C82"/>
<path d="M20.2734 5.27344H25.5469C26.0323 5.27344 26.4258 4.87992 26.4258 4.39453C26.4258 3.90914 26.0323 3.51562 25.5469 3.51562H20.2734C19.788 3.51562 19.3945 3.90914 19.3945 4.39453C19.3945 4.87992 19.788 5.27344 20.2734 5.27344Z" fill="#455C82"/>
</g>
<defs>
<clipPath id="clip0_276_693">
<rect width="30" height="30" fill="white"/>
</clipPath>
</defs>
</svg>
