<svg width="27" height="26" viewBox="0 0 27 26" fill="none" xmlns="http://www.w3.org/2000/svg">
<path fill-rule="evenodd" clip-rule="evenodd" d="M2.7 18.1134C1.1484 18.5139 0 19.9242 0 21.6C0 23.5872 1.6128 25.2 3.6 25.2H23.4C25.3872 25.2 27 23.5872 27 21.6C27 19.9242 25.8516 18.5139 24.3 18.1134V1.8C24.3 1.323 24.1101 0.8649 23.7726 0.5274C23.4351 0.1899 22.977 0 22.5 0H4.5C4.023 0 3.5649 0.1899 3.2274 0.5274C2.8899 0.8649 2.7 1.323 2.7 1.8V18.1134ZM25.2 21.6C25.2 22.5936 24.3936 23.4 23.4 23.4H3.6C2.6064 23.4 1.8 22.5936 1.8 21.6C1.8 20.6064 2.6064 19.8 3.6 19.8H23.4C24.3936 19.8 25.2 20.6064 25.2 21.6ZM4.5 18H22.5V1.8H4.5V18ZM7.2 16.2H19.8C20.2968 16.2 20.7 15.7968 20.7 15.3C20.7 14.8032 20.2968 14.4 19.8 14.4H7.2C6.7032 14.4 6.3 14.8032 6.3 15.3C6.3 15.7968 6.7032 16.2 7.2 16.2ZM12.6 12.6H19.8C20.2968 12.6 20.7 12.1968 20.7 11.7C20.7 11.2032 20.2968 10.8 19.8 10.8H12.6C12.1032 10.8 11.7 11.2032 11.7 11.7C11.7 12.1968 12.1032 12.6 12.6 12.6ZM7.6023 3.6954C7.3233 3.5559 6.9921 3.5703 6.7266 3.7341C6.4611 3.8988 6.3 4.1877 6.3 4.5V9.9C6.3 10.2123 6.4611 10.5012 6.7266 10.6659C6.9921 10.8297 7.3233 10.8441 7.6023 10.7046L13.0023 8.0046C13.3074 7.8525 13.5 7.5411 13.5 7.2C13.5 6.8589 13.3074 6.5475 13.0023 6.3954L7.6023 3.6954ZM16.2 9H19.8C20.2968 9 20.7 8.5968 20.7 8.1C20.7 7.6032 20.2968 7.2 19.8 7.2H16.2C15.7032 7.2 15.3 7.6032 15.3 8.1C15.3 8.5968 15.7032 9 16.2 9ZM8.1 5.9562L10.5876 7.2L8.1 8.4438V5.9562ZM16.2 5.4H19.8C20.2968 5.4 20.7 4.9968 20.7 4.5C20.7 4.0032 20.2968 3.6 19.8 3.6H16.2C15.7032 3.6 15.3 4.0032 15.3 4.5C15.3 4.9968 15.7032 5.4 16.2 5.4Z" fill="#1276DF"/>
</svg>
