<svg width="86" height="93" viewBox="0 0 86 93" fill="none" xmlns="http://www.w3.org/2000/svg">
<path d="M85.3012 41.6898C80.8351 20.3866 36.4201 37.9065 45.025 21.6081C48.4568 15.1079 47.6143 7.48561 39.9806 5.55356C9.69415 -2.11191 -22.023 72.5323 20.9016 62.8178C30.0071 60.757 35.3947 52.5553 38.0687 57.7213C43.386 67.994 29.0222 79.797 34.6857 89.1008C45.6883 107.176 88.5999 57.4236 85.3012 41.6898Z" fill="url(#paint0_linear_168_1254)"/>
<path d="M10.3828 91.3789C9.90827 91.3789 9.52344 90.9943 9.52344 90.5195C9.52344 89.9984 9.09942 89.5742 8.57813 89.5742C8.10358 89.5742 7.71875 89.1896 7.71875 88.7148C7.71875 88.2401 8.10358 87.8555 8.57813 87.8555C9.09942 87.8555 9.52344 87.4313 9.52344 86.9102C9.52344 86.4354 9.90827 86.0508 10.3828 86.0508C10.8574 86.0508 11.2422 86.4354 11.2422 86.9102C11.2422 87.4313 11.6662 87.8555 12.1875 87.8555C12.6621 87.8555 13.0469 88.2401 13.0469 88.7148C13.0469 89.1896 12.6621 89.5742 12.1875 89.5742C11.6662 89.5742 11.2422 89.9984 11.2422 90.5195C11.2422 90.9943 10.8574 91.3789 10.3828 91.3789Z" fill="#0A488A"/>
<path d="M7.66407 56.3281C7.18952 56.3281 6.80469 55.9435 6.80469 55.4688C6.80469 54.9476 6.38067 54.5234 5.85938 54.5234C5.38483 54.5234 5 54.1388 5 53.6641C5 53.1893 5.38483 52.8047 5.85938 52.8047C6.38067 52.8047 6.80469 52.3805 6.80469 51.8594C6.80469 51.3847 7.18952 51 7.66407 51C8.13861 51 8.52344 51.3847 8.52344 51.8594C8.52344 52.3805 8.94746 52.8047 9.46876 52.8047C9.94331 52.8047 10.3281 53.1893 10.3281 53.6641C10.3281 54.1388 9.94331 54.5234 9.46876 54.5234C8.94746 54.5234 8.52344 54.9476 8.52344 55.4688C8.52344 55.9435 8.13861 56.3281 7.66407 56.3281Z" fill="#0A488A"/>
<path d="M20.4454 87.5664C20.2254 87.5664 20.0056 87.4825 19.8377 87.3146L18.033 85.5099C17.6973 85.1744 17.6973 84.6302 18.033 84.2947L19.8377 82.49C20.1734 82.1544 20.7174 82.1544 21.053 82.49L22.8577 84.2947C23.1934 84.6302 23.1934 85.1744 22.8577 85.5099L21.053 87.3146C20.8853 87.4825 20.6654 87.5664 20.4454 87.5664ZM19.8561 84.9023L20.4454 85.4917L21.0348 84.9023L20.4454 84.3129L19.8561 84.9023Z" fill="#0A488A"/>
<path d="M82.2813 20.2109C81.8065 20.2109 81.4219 19.8263 81.4219 19.3516C81.4219 18.8304 80.9977 18.4063 80.4766 18.4063C80.0018 18.4063 79.6172 18.0216 79.6172 17.5469C79.6172 17.0722 80.0018 16.6875 80.4766 16.6875C80.9977 16.6875 81.4219 16.2633 81.4219 15.7422C81.4219 15.2675 81.8065 14.8828 82.2813 14.8828C82.756 14.8828 83.1406 15.2675 83.1406 15.7422C83.1406 16.2633 83.5648 16.6875 84.0859 16.6875C84.5607 16.6875 84.9453 17.0722 84.9453 17.5469C84.9453 18.0216 84.5607 18.4063 84.0859 18.4063C83.5648 18.4063 83.1406 18.8304 83.1406 19.3516C83.1406 19.8261 82.756 20.2109 82.2813 20.2109Z" fill="#0A488A"/>
<path d="M42.6641 5.32813C42.1895 5.32813 41.8047 4.94348 41.8047 4.46876C41.8047 3.94763 41.3807 3.52344 40.8594 3.52344C40.3848 3.52344 40 3.13879 40 2.66407C40 2.18935 40.3848 1.80469 40.8594 1.80469C41.3807 1.80469 41.8047 1.3805 41.8047 0.859376C41.8047 0.384657 42.1895 0 42.6641 0C43.1386 0 43.5234 0.384657 43.5234 0.859376C43.5234 1.3805 43.9475 1.80469 44.4688 1.80469C44.9433 1.80469 45.3281 2.18935 45.3281 2.66407C45.3281 3.13879 44.9433 3.52344 44.4688 3.52344C43.9475 3.52344 43.5234 3.94763 43.5234 4.46876C43.5234 4.94348 43.1386 5.32813 42.6641 5.32813Z" fill="#0A488A"/>
<path d="M77.6406 11.3281C77.4208 11.3281 77.2006 11.2442 77.033 11.0763L75.2283 9.2716C74.8926 8.9361 74.8926 8.39195 75.2283 8.05645L77.033 6.25175C77.3683 5.91608 77.9128 5.91608 78.2482 6.25175L80.0529 8.05645C80.3885 8.39195 80.3885 8.9361 80.0529 9.2716L78.2482 11.0763C78.0806 11.2442 77.8606 11.3281 77.6406 11.3281ZM77.0514 8.66402L77.6408 9.25338L78.2301 8.66402L77.6408 8.07466L77.0514 8.66402Z" fill="#0A488A"/>
<path d="M25.4219 31.582H68.5885V50.082H25.4219V31.582Z" fill="#EDF2FF"/>
<path d="M25.4167 31.5833C23.7812 31.5833 22.2126 30.9336 21.0562 29.7772C19.8997 28.6207 19.25 27.0522 19.25 25.4167C19.25 23.7812 19.8997 22.2126 21.0562 21.0562C22.2126 19.8997 23.7812 19.25 25.4167 19.25H68.5833C70.2188 19.25 71.7873 19.8997 72.9438 21.0562C74.1003 22.2126 74.75 23.7812 74.75 25.4167C74.75 27.0522 74.1003 28.6207 72.9438 29.7772C71.7873 30.9336 70.2188 31.5833 68.5833 31.5833H25.4167Z" fill="white"/>
<path d="M25.4167 47.0013C23.7812 47.0013 22.2126 46.3516 21.0562 45.1951C19.8997 44.0387 19.25 42.4701 19.25 40.8346C19.25 39.1991 19.8997 37.6306 21.0562 36.4741C22.2126 35.3177 23.7812 34.668 25.4167 34.668H68.5833C70.2188 34.668 71.7873 35.3177 72.9438 36.4741C74.1003 37.6306 74.75 39.1991 74.75 40.8346C74.75 42.4701 74.1003 44.0387 72.9438 45.1951C71.7873 46.3516 70.2188 47.0013 68.5833 47.0013H25.4167Z" fill="#248EFF"/>
<path d="M25.4167 62.4154C23.7812 62.4154 22.2126 61.7657 21.0562 60.6092C19.8997 59.4527 19.25 57.8842 19.25 56.2487C19.25 54.6132 19.8997 53.0447 21.0562 51.8882C22.2126 50.7317 23.7812 50.082 25.4167 50.082H68.5833C70.2188 50.082 71.7873 50.7317 72.9438 51.8882C74.1003 53.0447 74.75 54.6132 74.75 56.2487C74.75 57.8842 74.1003 59.4527 72.9438 60.6092C71.7873 61.7657 70.2188 62.4154 68.5833 62.4154H25.4167Z" fill="white"/>
<path d="M28.5026 26.9583C29.354 26.9583 30.0443 26.2681 30.0443 25.4167C30.0443 24.5652 29.354 23.875 28.5026 23.875C27.6512 23.875 26.9609 24.5652 26.9609 25.4167C26.9609 26.2681 27.6512 26.9583 28.5026 26.9583Z" fill="#248EFF"/>
<path d="M34.6667 26.9583C35.5181 26.9583 36.2083 26.2681 36.2083 25.4167C36.2083 24.5652 35.5181 23.875 34.6667 23.875C33.8152 23.875 33.125 24.5652 33.125 25.4167C33.125 26.2681 33.8152 26.9583 34.6667 26.9583Z" fill="#248EFF"/>
<path d="M40.8385 26.9583C41.69 26.9583 42.3802 26.2681 42.3802 25.4167C42.3802 24.5652 41.69 23.875 40.8385 23.875C39.9871 23.875 39.2969 24.5652 39.2969 25.4167C39.2969 26.2681 39.9871 26.9583 40.8385 26.9583Z" fill="#248EFF"/>
<path d="M34.6667 42.3763C35.5181 42.3763 36.2083 41.6861 36.2083 40.8346C36.2083 39.9832 35.5181 39.293 34.6667 39.293C33.8152 39.293 33.125 39.9832 33.125 40.8346C33.125 41.6861 33.8152 42.3763 34.6667 42.3763Z" fill="#248EFF"/>
<path d="M40.8385 42.3763C41.69 42.3763 42.3802 41.6861 42.3802 40.8346C42.3802 39.9832 41.69 39.293 40.8385 39.293C39.9871 39.293 39.2969 39.9832 39.2969 40.8346C39.2969 41.6861 39.9871 42.3763 40.8385 42.3763Z" fill="#248EFF"/>
<path d="M34.6667 57.7904C35.5181 57.7904 36.2083 57.1001 36.2083 56.2487C36.2083 55.3973 35.5181 54.707 34.6667 54.707C33.8152 54.707 33.125 55.3973 33.125 56.2487C33.125 57.1001 33.8152 57.7904 34.6667 57.7904Z" fill="#248EFF"/>
<path d="M40.8385 57.7904C41.69 57.7904 42.3802 57.1001 42.3802 56.2487C42.3802 55.3973 41.69 54.707 40.8385 54.707C39.9871 54.707 39.2969 55.3973 39.2969 56.2487C39.2969 57.1001 39.9871 57.7904 40.8385 57.7904Z" fill="#248EFF"/>
<path d="M28.5026 42.3763C29.354 42.3763 30.0443 41.6861 30.0443 40.8346C30.0443 39.9832 29.354 39.293 28.5026 39.293C27.6512 39.293 26.9609 39.9832 26.9609 40.8346C26.9609 41.6861 27.6512 42.3763 28.5026 42.3763Z" fill="#248EFF"/>
<path d="M28.5026 57.7904C29.354 57.7904 30.0443 57.1001 30.0443 56.2487C30.0443 55.3973 29.354 54.707 28.5026 54.707C27.6512 54.707 26.9609 55.3973 26.9609 56.2487C26.9609 57.1001 27.6512 57.7904 28.5026 57.7904Z" fill="#248EFF"/>
<path d="M42.375 71.6654C42.3761 70.8479 42.7013 70.0643 43.2793 69.4863C43.8573 68.9083 44.6409 68.5831 45.4583 68.582H48.5417C49.3591 68.5831 50.1427 68.9083 50.7207 69.4863C51.2987 70.0643 51.6239 70.8479 51.625 71.6654H42.375Z" fill="white"/>
<path d="M77.8333 74.7487C79.5362 74.7487 80.9167 73.3682 80.9167 71.6654C80.9167 69.9625 79.5362 68.582 77.8333 68.582C76.1305 68.582 74.75 69.9625 74.75 71.6654C74.75 73.3682 76.1305 74.7487 77.8333 74.7487Z" fill="white"/>
<path d="M16.1693 74.7487C17.8721 74.7487 19.2526 73.3682 19.2526 71.6654C19.2526 69.9625 17.8721 68.582 16.1693 68.582C14.4664 68.582 13.0859 69.9625 13.0859 71.6654C13.0859 73.3682 14.4664 74.7487 16.1693 74.7487Z" fill="white"/>
<path d="M26.1875 25.418C26.1875 25.8753 26.3231 26.3224 26.5772 26.7027C26.8313 27.083 27.1925 27.3794 27.615 27.5544C28.0376 27.7295 28.5026 27.7753 28.9511 27.686C29.3997 27.5968 29.8118 27.3766 30.1352 27.0532C30.4586 26.7297 30.6788 26.3177 30.7681 25.8691C30.8573 25.4205 30.8115 24.9556 30.6365 24.533C30.4614 24.1105 30.165 23.7493 29.7848 23.4952C29.4045 23.2411 28.9574 23.1055 28.5 23.1055C27.8869 23.1061 27.2991 23.35 26.8655 23.7835C26.432 24.217 26.1882 24.8049 26.1875 25.418ZM29.2708 25.418C29.2708 25.5704 29.2256 25.7195 29.1409 25.8462C29.0562 25.973 28.9358 26.0718 28.795 26.1301C28.6541 26.1885 28.4991 26.2037 28.3496 26.174C28.2001 26.1442 28.0627 26.0708 27.9549 25.963C27.8471 25.8552 27.7737 25.7179 27.744 25.5684C27.7142 25.4188 27.7295 25.2638 27.7878 25.123C27.8462 24.9821 27.945 24.8617 28.0717 24.777C28.1985 24.6923 28.3475 24.6471 28.5 24.6471C28.7044 24.6471 28.9005 24.7283 29.0451 24.8729C29.1896 25.0175 29.2708 25.2135 29.2708 25.418Z" fill="#0A488A"/>
<path d="M32.3516 25.418C32.3516 25.8753 32.4872 26.3224 32.7413 26.7027C32.9954 27.083 33.3566 27.3794 33.7791 27.5544C34.2017 27.7295 34.6666 27.7753 35.1152 27.686C35.5638 27.5968 35.9758 27.3766 36.2992 27.0532C36.6227 26.7297 36.8429 26.3177 36.9321 25.8691C37.0214 25.4205 36.9756 24.9556 36.8005 24.533C36.6255 24.1105 36.3291 23.7493 35.9488 23.4952C35.5685 23.2411 35.1214 23.1055 34.6641 23.1055C34.0509 23.1061 33.4631 23.35 33.0296 23.7835C32.5961 24.217 32.3522 24.8049 32.3516 25.418ZM35.4349 25.418C35.4349 25.5704 35.3897 25.7195 35.305 25.8462C35.2203 25.973 35.0999 26.0718 34.959 26.1301C34.8182 26.1885 34.6632 26.2037 34.5137 26.174C34.3642 26.1442 34.2268 26.0708 34.119 25.963C34.0112 25.8552 33.9378 25.7179 33.908 25.5684C33.8783 25.4188 33.8936 25.2638 33.9519 25.123C34.0102 24.9821 34.109 24.8617 34.2358 24.777C34.3626 24.6923 34.5116 24.6471 34.6641 24.6471C34.8685 24.6471 35.0646 24.7283 35.2091 24.8729C35.3537 25.0175 35.4349 25.2135 35.4349 25.418Z" fill="#0A488A"/>
<path d="M38.5234 25.418C38.5234 25.8753 38.6591 26.3224 38.9132 26.7027C39.1673 27.083 39.5284 27.3794 39.951 27.5544C40.3735 27.7295 40.8385 27.7753 41.2871 27.686C41.7357 27.5968 42.1477 27.3766 42.4711 27.0532C42.7945 26.7297 43.0148 26.3177 43.104 25.8691C43.1932 25.4205 43.1474 24.9556 42.9724 24.533C42.7974 24.1105 42.501 23.7493 42.1207 23.4952C41.7404 23.2411 41.2933 23.1055 40.8359 23.1055C40.2228 23.1061 39.635 23.35 39.2015 23.7835C38.7679 24.217 38.5241 24.8049 38.5234 25.418ZM41.6068 25.418C41.6068 25.5704 41.5616 25.7195 41.4769 25.8462C41.3922 25.973 41.2718 26.0718 41.1309 26.1301C40.9901 26.1885 40.8351 26.2037 40.6856 26.174C40.536 26.1442 40.3987 26.0708 40.2909 25.963C40.1831 25.8552 40.1097 25.7179 40.0799 25.5684C40.0502 25.4188 40.0654 25.2638 40.1238 25.123C40.1821 24.9821 40.2809 24.8617 40.4077 24.777C40.5344 24.6923 40.6835 24.6471 40.8359 24.6471C41.0404 24.6471 41.2364 24.7283 41.381 24.8729C41.5256 25.0175 41.6068 25.2135 41.6068 25.418Z" fill="#0A488A"/>
<path d="M34.6641 43.1484C35.1214 43.1484 35.5685 43.0128 35.9488 42.7587C36.3291 42.5046 36.6255 42.1434 36.8005 41.7209C36.9756 41.2983 37.0214 40.8334 36.9321 40.3848C36.8429 39.9362 36.6227 39.5242 36.2992 39.2008C35.9758 38.8773 35.5638 38.6571 35.1152 38.5679C34.6666 38.4786 34.2017 38.5244 33.7791 38.6995C33.3566 38.8745 32.9954 39.1709 32.7413 39.5512C32.4872 39.9315 32.3516 40.3786 32.3516 40.8359C32.3522 41.4491 32.5961 42.0369 33.0296 42.4704C33.4631 42.9039 34.0509 43.1478 34.6641 43.1484ZM34.6641 40.0651C34.8165 40.0651 34.9656 40.1103 35.0923 40.195C35.2191 40.2797 35.3179 40.4001 35.3762 40.541C35.4346 40.6818 35.4498 40.8368 35.4201 40.9863C35.3903 41.1358 35.3169 41.2732 35.2091 41.381C35.1013 41.4888 34.964 41.5622 34.8144 41.592C34.6649 41.6217 34.5099 41.6064 34.3691 41.5481C34.2282 41.4898 34.1078 41.391 34.0231 41.2642C33.9384 41.1374 33.8932 40.9884 33.8932 40.8359C33.8932 40.6315 33.9744 40.4354 34.119 40.2909C34.2636 40.1463 34.4596 40.0651 34.6641 40.0651Z" fill="#0A488A"/>
<path d="M40.8359 43.1484C41.2933 43.1484 41.7404 43.0128 42.1207 42.7587C42.501 42.5046 42.7974 42.1434 42.9724 41.7209C43.1474 41.2983 43.1932 40.8334 43.104 40.3848C43.0148 39.9362 42.7945 39.5242 42.4711 39.2008C42.1477 38.8773 41.7357 38.6571 41.2871 38.5679C40.8385 38.4786 40.3735 38.5244 39.951 38.6995C39.5284 38.8745 39.1673 39.1709 38.9132 39.5512C38.6591 39.9315 38.5234 40.3786 38.5234 40.8359C38.5241 41.4491 38.7679 42.0369 39.2015 42.4704C39.635 42.9039 40.2228 43.1478 40.8359 43.1484ZM40.8359 40.0651C40.9884 40.0651 41.1374 40.1103 41.2642 40.195C41.391 40.2797 41.4898 40.4001 41.5481 40.541C41.6064 40.6818 41.6217 40.8368 41.592 40.9863C41.5622 41.1358 41.4888 41.2732 41.381 41.381C41.2732 41.4888 41.1358 41.5622 40.9863 41.592C40.8368 41.6217 40.6818 41.6064 40.541 41.5481C40.4001 41.4898 40.2797 41.391 40.195 41.2642C40.1103 41.1374 40.0651 40.9884 40.0651 40.8359C40.0651 40.6315 40.1463 40.4354 40.2909 40.2909C40.4354 40.1463 40.6315 40.0651 40.8359 40.0651Z" fill="#0A488A"/>
<path d="M32.3516 56.25C32.3516 56.7074 32.4872 57.1545 32.7413 57.5348C32.9954 57.915 33.3566 58.2114 33.7791 58.3865C34.2017 58.5615 34.6666 58.6073 35.1152 58.5181C35.5638 58.4288 35.9758 58.2086 36.2992 57.8852C36.6227 57.5618 36.8429 57.1497 36.9321 56.7011C37.0214 56.2526 36.9756 55.7876 36.8005 55.365C36.6255 54.9425 36.3291 54.5813 35.9488 54.3272C35.5685 54.0731 35.1214 53.9375 34.6641 53.9375C34.0509 53.9382 33.4631 54.182 33.0296 54.6155C32.5961 55.0491 32.3522 55.6369 32.3516 56.25ZM35.4349 56.25C35.4349 56.4025 35.3897 56.5515 35.305 56.6783C35.2203 56.805 35.0999 56.9038 34.959 56.9622C34.8182 57.0205 34.6632 57.0358 34.5137 57.006C34.3642 56.9763 34.2268 56.9029 34.119 56.7951C34.0112 56.6873 33.9378 56.5499 33.908 56.4004C33.8783 56.2509 33.8936 56.0959 33.9519 55.955C34.0102 55.8142 34.109 55.6938 34.2358 55.6091C34.3626 55.5244 34.5116 55.4792 34.6641 55.4792C34.8685 55.4792 35.0646 55.5604 35.2091 55.7049C35.3537 55.8495 35.4349 56.0456 35.4349 56.25Z" fill="#0A488A"/>
<path d="M38.5234 56.25C38.5234 56.7074 38.6591 57.1545 38.9132 57.5348C39.1673 57.915 39.5284 58.2114 39.951 58.3865C40.3735 58.5615 40.8385 58.6073 41.2871 58.5181C41.7357 58.4288 42.1477 58.2086 42.4711 57.8852C42.7945 57.5618 43.0148 57.1497 43.104 56.7011C43.1932 56.2526 43.1474 55.7876 42.9724 55.365C42.7974 54.9425 42.501 54.5813 42.1207 54.3272C41.7404 54.0731 41.2933 53.9375 40.8359 53.9375C40.2228 53.9382 39.635 54.182 39.2015 54.6155C38.7679 55.0491 38.5241 55.6369 38.5234 56.25ZM41.6068 56.25C41.6068 56.4025 41.5616 56.5515 41.4769 56.6783C41.3922 56.805 41.2718 56.9038 41.1309 56.9622C40.9901 57.0205 40.8351 57.0358 40.6856 57.006C40.536 56.9763 40.3987 56.9029 40.2909 56.7951C40.1831 56.6873 40.1097 56.5499 40.0799 56.4004C40.0502 56.2509 40.0654 56.0959 40.1238 55.955C40.1821 55.8142 40.2809 55.6938 40.4077 55.6091C40.5344 55.5244 40.6835 55.4792 40.8359 55.4792C41.0404 55.4792 41.2364 55.5604 41.381 55.7049C41.5256 55.8495 41.6068 56.0456 41.6068 56.25Z" fill="#0A488A"/>
<path d="M28.5 43.1484C28.9574 43.1484 29.4045 43.0128 29.7848 42.7587C30.165 42.5046 30.4614 42.1434 30.6365 41.7209C30.8115 41.2983 30.8573 40.8334 30.7681 40.3848C30.6788 39.9362 30.4586 39.5242 30.1352 39.2008C29.8118 38.8773 29.3997 38.6571 28.9511 38.5679C28.5026 38.4786 28.0376 38.5244 27.615 38.6995C27.1925 38.8745 26.8313 39.1709 26.5772 39.5512C26.3231 39.9315 26.1875 40.3786 26.1875 40.8359C26.1882 41.4491 26.432 42.0369 26.8655 42.4704C27.2991 42.9039 27.8869 43.1478 28.5 43.1484ZM28.5 40.0651C28.6525 40.0651 28.8015 40.1103 28.9283 40.195C29.055 40.2797 29.1538 40.4001 29.2122 40.541C29.2705 40.6818 29.2858 40.8368 29.256 40.9863C29.2263 41.1358 29.1529 41.2732 29.0451 41.381C28.9373 41.4888 28.7999 41.5622 28.6504 41.592C28.5009 41.6217 28.3459 41.6064 28.205 41.5481C28.0642 41.4898 27.9438 41.391 27.8591 41.2642C27.7744 41.1374 27.7292 40.9884 27.7292 40.8359C27.7292 40.6315 27.8104 40.4354 27.9549 40.2909C28.0995 40.1463 28.2956 40.0651 28.5 40.0651Z" fill="#0A488A"/>
<path d="M26.1875 56.25C26.1875 56.7074 26.3231 57.1545 26.5772 57.5348C26.8313 57.915 27.1925 58.2114 27.615 58.3865C28.0376 58.5615 28.5026 58.6073 28.9511 58.5181C29.3997 58.4288 29.8118 58.2086 30.1352 57.8852C30.4586 57.5618 30.6788 57.1497 30.7681 56.7011C30.8573 56.2526 30.8115 55.7876 30.6365 55.365C30.4614 54.9425 30.165 54.5813 29.7848 54.3272C29.4045 54.0731 28.9574 53.9375 28.5 53.9375C27.8869 53.9382 27.2991 54.182 26.8655 54.6155C26.432 55.0491 26.1882 55.6369 26.1875 56.25ZM29.2708 56.25C29.2708 56.4025 29.2256 56.5515 29.1409 56.6783C29.0562 56.805 28.9358 56.9038 28.795 56.9622C28.6541 57.0205 28.4991 57.0358 28.3496 57.006C28.2001 56.9763 28.0627 56.9029 27.9549 56.7951C27.8471 56.6873 27.7737 56.5499 27.744 56.4004C27.7142 56.2509 27.7295 56.0959 27.7878 55.955C27.8462 55.8142 27.945 55.6938 28.0717 55.6091C28.1985 55.5244 28.3475 55.4792 28.5 55.4792C28.7044 55.4792 28.9005 55.5604 29.0451 55.7049C29.1896 55.8495 29.2708 56.0456 29.2708 56.25Z" fill="#0A488A"/>
<path d="M77.8333 67.8138C76.9558 67.8222 76.1082 68.1338 75.4342 68.6958C74.7602 69.2577 74.3013 70.0355 74.1352 70.8972H52.2417C52.0755 70.0352 51.6162 69.2572 50.9419 68.6953C50.2675 68.1333 49.4195 67.8219 48.5417 67.8138H47.7708V63.1888H68.5833C70.4226 63.1868 72.186 62.4552 73.4866 61.1546C74.7872 59.854 75.5188 58.0906 75.5208 56.2513C75.5208 56.0469 75.4396 55.8508 75.2951 55.7063C75.1505 55.5617 74.9544 55.4805 74.75 55.4805C74.5456 55.4805 74.3495 55.5617 74.2049 55.7063C74.0604 55.8508 73.9792 56.0469 73.9792 56.2513C73.9774 57.6818 73.4083 59.0532 72.3968 60.0648C71.3853 61.0763 70.0138 61.6454 68.5833 61.6472H25.4167C23.9856 61.6472 22.6132 61.0787 21.6012 60.0668C20.5893 59.0548 20.0208 57.6824 20.0208 56.2513C20.0208 54.8203 20.5893 53.4478 21.6012 52.4359C22.6132 51.424 23.9856 50.8555 25.4167 50.8555H68.5833C69.5303 50.8577 70.4602 51.1079 71.2803 51.5812C72.1005 52.0546 72.7824 52.7345 73.258 53.5534C73.3606 53.7303 73.5293 53.8592 73.7269 53.9117C73.9246 53.9642 74.135 53.936 74.3119 53.8334C74.4887 53.7308 74.6176 53.5621 74.6701 53.3644C74.7226 53.1668 74.6945 52.9564 74.5918 52.7795C74.0417 51.8492 73.2815 51.0605 72.372 50.4766C71.4625 49.8926 70.429 49.5296 69.3542 49.4165V47.6942C71.0475 47.5137 72.6143 46.7132 73.7529 45.4468C74.8915 44.1804 75.5214 42.5376 75.5214 40.8347C75.5214 39.1317 74.8915 37.4889 73.7529 36.2225C72.6143 34.9561 71.0475 34.1557 69.3542 33.9752V32.2775C71.1152 32.085 72.7352 31.2243 73.8806 29.8729C75.0259 28.5215 75.6093 26.7822 75.5104 25.0135C75.4116 23.2448 74.6382 21.5813 73.3494 20.3659C72.0607 19.1505 70.3548 18.4757 68.5833 18.4805H59.3333C59.1289 18.4805 58.9328 18.5617 58.7883 18.7063C58.6437 18.8508 58.5625 19.0469 58.5625 19.2513C58.5625 19.4558 58.6437 19.6518 58.7883 19.7964C58.9328 19.9409 59.1289 20.0222 59.3333 20.0222H68.5833C70.0144 20.0222 71.3868 20.5906 72.3988 21.6026C73.4107 22.6145 73.9792 23.9869 73.9792 25.418C73.9792 26.8491 73.4107 28.2215 72.3988 29.2334C71.3868 30.2453 70.0144 30.8138 68.5833 30.8138H25.4167C23.9856 30.8138 22.6132 30.2453 21.6012 29.2334C20.5893 28.2215 20.0208 26.8491 20.0208 25.418C20.0208 23.9869 20.5893 22.6145 21.6012 21.6026C22.6132 20.5906 23.9856 20.0222 25.4167 20.0222H56.25C56.4544 20.0222 56.6505 19.9409 56.7951 19.7964C56.9396 19.6518 57.0208 19.4558 57.0208 19.2513C57.0208 19.0469 56.9396 18.8508 56.7951 18.7063C56.6505 18.5617 56.4544 18.4805 56.25 18.4805H25.4167C23.6452 18.4757 21.9393 19.1505 20.6506 20.3659C19.3618 21.5813 18.5884 23.2448 18.4896 25.0135C18.3907 26.7822 18.9741 28.5215 20.1194 29.8729C21.2648 31.2243 22.8848 32.085 24.6458 32.2775V33.9752C22.9525 34.1557 21.3857 34.9561 20.2471 36.2225C19.1085 37.4889 18.4786 39.1317 18.4786 40.8347C18.4786 42.5376 19.1085 44.1804 20.2471 45.4468C21.3857 46.7132 22.9525 47.5137 24.6458 47.6942V49.3918C22.8848 49.5844 21.2648 50.445 20.1194 51.7964C18.9741 53.1478 18.3907 54.8871 18.4896 56.6558C18.5884 58.4245 19.3618 60.088 20.6506 61.3034C21.9393 62.5188 23.6452 63.1937 25.4167 63.1888H46.2292V67.8138H45.4583C44.5808 67.8222 43.7332 68.1338 43.0592 68.6958C42.3852 69.2577 41.9263 70.0355 41.7602 70.8972H19.8667C19.7005 70.0352 19.2412 69.2572 18.5669 68.6953C17.8925 68.1333 17.0445 67.8219 16.1667 67.8138C15.1445 67.8138 14.1642 68.2199 13.4414 68.9427C12.7186 69.6655 12.3125 70.6458 12.3125 71.668C12.3125 72.6902 12.7186 73.6705 13.4414 74.3933C14.1642 75.1161 15.1445 75.5222 16.1667 75.5222C17.0445 75.5141 17.8924 75.2026 18.5668 74.6407C19.2412 74.0787 19.7004 73.3008 19.8667 72.4388H74.1352C74.3013 73.3005 74.7603 74.0782 75.4343 74.6401C76.1083 75.2021 76.9558 75.5137 77.8333 75.5222C78.8555 75.5222 79.8358 75.1161 80.5586 74.3933C81.2814 73.6705 81.6875 72.6902 81.6875 71.668C81.6875 70.6458 81.2814 69.6655 80.5586 68.9427C79.8358 68.2199 78.8555 67.8138 77.8333 67.8138ZM26.1875 33.8972V32.3555H67.8125V33.8972H26.1875ZM20.0208 40.8347C20.0226 39.4041 20.5917 38.0327 21.6032 37.0212C22.6147 36.0097 23.9862 35.4406 25.4167 35.4388H68.5833C70.0144 35.4388 71.3868 36.0073 72.3988 37.0192C73.4107 38.0311 73.9792 39.4036 73.9792 40.8347C73.9792 42.2657 73.4107 43.6382 72.3988 44.6501C71.3868 45.662 70.0144 46.2305 68.5833 46.2305H37.75C37.5456 46.2305 37.3495 46.3117 37.2049 46.4563C37.0604 46.6008 36.9792 46.7969 36.9792 47.0013C36.9792 47.2058 37.0604 47.4018 37.2049 47.5464C37.3495 47.6909 37.5456 47.7722 37.75 47.7722H67.8125V49.3138H26.1875V47.7722H34.6667C34.8711 47.7722 35.0672 47.6909 35.2117 47.5464C35.3563 47.4018 35.4375 47.2058 35.4375 47.0013C35.4375 46.7969 35.3563 46.6008 35.2117 46.4563C35.0672 46.3117 34.8711 46.2305 34.6667 46.2305H25.4167C23.9862 46.2287 22.6147 45.6596 21.6032 44.6481C20.5917 43.6366 20.0226 42.2652 20.0208 40.8347ZM45.4583 69.3555H48.5417C49.0164 69.3581 49.4786 69.5077 49.8648 69.7838C50.251 70.0598 50.5421 70.4488 50.6982 70.8972H43.3018C43.4579 70.4488 43.749 70.0598 44.1352 69.7838C44.5214 69.5077 44.9836 69.3581 45.4583 69.3555ZM16.1667 73.9805C15.7093 73.9805 15.2622 73.8449 14.8819 73.5908C14.5016 73.3367 14.2052 72.9755 14.0302 72.5529C13.8552 72.1304 13.8094 71.6654 13.8986 71.2168C13.9878 70.7683 14.2081 70.3562 14.5315 70.0328C14.8549 69.7094 15.2669 69.4892 15.7155 69.3999C16.1641 69.3107 16.6291 69.3565 17.0516 69.5315C17.4742 69.7065 17.8353 70.0029 18.0894 70.3832C18.3435 70.7635 18.4792 71.2106 18.4792 71.668C18.4785 72.2811 18.2347 72.8689 17.8011 73.3025C17.3676 73.736 16.7798 73.9798 16.1667 73.9805ZM77.8333 73.9805C77.376 73.9805 76.9289 73.8449 76.5486 73.5908C76.1683 73.3367 75.8719 72.9755 75.6969 72.5529C75.5218 72.1304 75.476 71.6654 75.5653 71.2168C75.6545 70.7683 75.8747 70.3562 76.1981 70.0328C76.5216 69.7094 76.9336 69.4892 77.3822 69.3999C77.8308 69.3107 78.2957 69.3565 78.7183 69.5315C79.1408 69.7065 79.502 70.0029 79.7561 70.3832C80.0102 70.7635 80.1458 71.2106 80.1458 71.668C80.1452 72.2811 79.9013 72.8689 79.4678 73.3025C79.0343 73.736 78.4464 73.9798 77.8333 73.9805Z" fill="#0A488A"/>
<defs>
<linearGradient id="paint0_linear_168_1254" x1="3.85217e-05" y1="49" x2="85.4815" y2="49" gradientUnits="userSpaceOnUse">
<stop stop-color="#D1DDFF" stop-opacity="0"/>
<stop offset="1" stop-color="#248EFF" stop-opacity="0.26"/>
</linearGradient>
</defs>
</svg>
