<svg width="24" height="24" viewBox="0 0 24 24" fill="none" xmlns="http://www.w3.org/2000/svg">
<path fill-rule="evenodd" clip-rule="evenodd" d="M12 1.67442C6.29734 1.67442 1.67442 6.29734 1.67442 12C1.67442 17.7026 6.29734 22.3256 12 22.3256C12.3491 22.3256 12.6939 22.3083 13.0336 22.2746C13.4937 22.2289 13.9037 22.5648 13.9494 23.0249C13.9951 23.4851 13.6591 23.8951 13.199 23.9408C12.8044 23.98 12.4044 24 12 24C5.37258 24 0 18.6275 0 12C0 5.37258 5.37258 0 12 0C18.6275 0 24 5.37258 24 12C24 12.4044 23.98 12.8044 23.9408 13.199C23.8951 13.6591 23.4851 13.9951 23.0249 13.9494C22.5648 13.9037 22.2289 13.4937 22.2746 13.0336C22.3083 12.6939 22.3256 12.3491 22.3256 12C22.3256 6.29734 17.7026 1.67442 12 1.67442Z" fill="black"/>
<path d="M6.11355 15.0781C5.89811 15.0781 5.71345 15.0024 5.55957 14.8509C5.40569 14.6993 5.32993 14.5147 5.3323 14.2969C5.32993 14.0838 5.40569 13.9015 5.55957 13.75C5.71345 13.5985 5.89811 13.5227 6.11355 13.5227C6.32188 13.5227 6.50299 13.5985 6.65687 13.75C6.81312 13.9015 6.89243 14.0838 6.8948 14.2969C6.89243 14.4413 6.85455 14.5727 6.78116 14.6911C6.71014 14.8094 6.61544 14.9041 6.49707 14.9751C6.38107 15.0438 6.25323 15.0781 6.11355 15.0781ZM11.6986 12.706V9.54545H12.9841V15H11.7377V14.0305H11.6808C11.5577 14.3359 11.3553 14.5857 11.0736 14.7798C10.7942 14.974 10.4498 15.071 10.0402 15.071C9.68274 15.071 9.36668 14.9917 9.09206 14.8331C8.81981 14.6721 8.60674 14.4389 8.45286 14.1335C8.29898 13.8258 8.22203 13.4541 8.22203 13.0185V9.54545H9.50755V12.8196C9.50755 13.1652 9.60224 13.4399 9.79164 13.6435C9.98103 13.8471 10.2296 13.9489 10.5374 13.9489C10.7268 13.9489 10.9102 13.9027 11.0878 13.8104C11.2654 13.718 11.411 13.5807 11.5246 13.3984C11.6406 13.2138 11.6986 12.983 11.6986 12.706ZM15.4779 13.2884L15.4743 11.7365H15.6803L17.6405 9.54545H19.1427L16.7314 12.2301H16.4651L15.4779 13.2884ZM14.306 15V7.72727H15.5915V15H14.306ZM17.7293 15L15.9537 12.5178L16.8202 11.6122L19.267 15H17.7293Z" fill="black"/>
</svg>
