<svg width="68" height="80" viewBox="0 0 68 80" fill="none" xmlns="http://www.w3.org/2000/svg">
<path d="M63.6328 20.3281C63.1581 20.3281 62.7734 19.9435 62.7734 19.4688C62.7734 18.9476 62.3493 18.5234 61.8281 18.5234C61.3534 18.5234 60.9688 18.1388 60.9688 17.6641C60.9688 17.1893 61.3534 16.8047 61.8281 16.8047C62.3493 16.8047 62.7734 16.3805 62.7734 15.8594C62.7734 15.3847 63.1581 15 63.6328 15C64.1075 15 64.4922 15.3847 64.4922 15.8594C64.4922 16.3805 64.9164 16.8047 65.4375 16.8047C65.9122 16.8047 66.2969 17.1893 66.2969 17.6641C66.2969 18.1388 65.9122 18.5234 65.4375 18.5234C64.9164 18.5234 64.4922 18.9476 64.4922 19.4688C64.4922 19.9433 64.1075 20.3281 63.6328 20.3281Z" fill="#0A488A"/>
<path d="M8.63282 78.3281C8.15827 78.3281 7.77344 77.9435 7.77344 77.4688C7.77344 76.9476 7.34942 76.5234 6.82813 76.5234C6.35358 76.5234 5.96875 76.1388 5.96875 75.6641C5.96875 75.1893 6.35358 74.8047 6.82813 74.8047C7.34942 74.8047 7.77344 74.3805 7.77344 73.8594C7.77344 73.3847 8.15827 73 8.63282 73C9.10736 73 9.49219 73.3847 9.49219 73.8594C9.49219 74.3805 9.91621 74.8047 10.4375 74.8047C10.9121 74.8047 11.2969 75.1893 11.2969 75.6641C11.2969 76.1388 10.9121 76.5234 10.4375 76.5234C9.91621 76.5234 9.49219 76.9476 9.49219 77.4688C9.49219 77.9435 9.10736 78.3281 8.63282 78.3281Z" fill="#0A488A"/>
<path d="M3.63282 66.3281C3.15827 66.3281 2.77344 65.9435 2.77344 65.4688C2.77344 64.9476 2.34942 64.5234 1.82813 64.5234C1.35358 64.5234 0.96875 64.1388 0.96875 63.6641C0.96875 63.1893 1.35358 62.8047 1.82813 62.8047C2.34942 62.8047 2.77344 62.3805 2.77344 61.8594C2.77344 61.3847 3.15827 61 3.63282 61C4.10736 61 4.49219 61.3847 4.49219 61.8594C4.49219 62.3805 4.91621 62.8047 5.43751 62.8047C5.91206 62.8047 6.29688 63.1893 6.29688 63.6641C6.29688 64.1388 5.91206 64.5234 5.43751 64.5234C4.91621 64.5234 4.49219 64.9476 4.49219 65.4688C4.49219 65.9435 4.10736 66.3281 3.63282 66.3281Z" fill="#0A488A"/>
<path d="M55.6328 5.32809C55.4129 5.32809 55.1928 5.24422 55.0252 5.07629L53.2205 3.2716C52.8848 2.9361 52.8848 2.39195 53.2205 2.05645L55.0252 0.251754C55.3605 -0.0839181 55.905 -0.0839181 56.2403 0.251754L58.045 2.05645C58.3807 2.39195 58.3807 2.9361 58.045 3.2716L56.2403 5.07629C56.0728 5.24422 55.8528 5.32809 55.6328 5.32809ZM55.0436 2.66402L55.6329 3.25338L56.2223 2.66402L55.6329 2.07466L55.0436 2.66402Z" fill="#0A488A"/>
<path d="M61.9434 59.6039C55.9849 43.3379 72.0793 24.4683 63.2696 8.61171C57.6576 -1.48944 44.0759 0.180245 38.8511 12.2744C26.0614 41.8789 17.6559 27.1704 10.4124 39.1039C6.20318 46.0386 11.4748 59.3015 22.6296 55.0525C37.4275 49.4158 35.8324 73.1707 45.5611 78.6787C50.8804 81.6903 61.5659 79.3338 64.8211 73.84C67.5494 69.2359 63.5729 64.0516 61.9434 59.6039Z" fill="url(#paint0_linear_168_1203)"/>
<path d="M20.6642 79.3281C20.4442 79.3281 20.2244 79.2442 20.0564 79.0763L18.2518 77.2716C17.9161 76.9361 17.9161 76.3919 18.2518 76.0564L20.0564 74.2518C20.3921 73.9161 20.9361 73.9161 21.2718 74.2518L23.0765 76.0564C23.4121 76.3919 23.4121 76.9361 23.0765 77.2716L21.2718 79.0763C21.104 79.2442 20.8842 79.3281 20.6642 79.3281ZM20.0748 76.664L20.6642 77.2534L21.2536 76.664L20.6642 76.0747L20.0748 76.664Z" fill="#0A488A"/>
<path d="M58.5153 19.9487V68.7547C58.5153 70.3703 57.2055 71.68 55.59 71.68H18.3471C16.7315 71.68 15.4219 70.3702 15.4219 68.7547V19.9487C15.4219 18.3331 16.7316 17.0234 18.3471 17.0234H55.59C57.2056 17.0234 58.5153 18.3331 58.5153 19.9487Z" fill="white"/>
<path d="M21.0156 60.4846V28.2189C24.1071 28.2189 26.6134 25.7127 26.6134 22.6211H47.3165C47.3165 25.7126 49.8226 28.2189 52.9143 28.2189V60.4846C49.8227 60.4846 47.3165 62.9907 47.3165 66.0824H26.6134C26.6134 62.9907 24.1071 60.4846 21.0156 60.4846Z" fill="#248EFF"/>
<path d="M55.515 23.2086C55.8329 21.864 55.0005 20.5163 53.6559 20.1985C52.3113 19.8806 50.9636 20.713 50.6458 22.0576C50.328 23.4022 51.1603 24.7498 52.5049 25.0677C53.8495 25.3855 55.1972 24.5532 55.515 23.2086Z" fill="#0A488A"/>
<path d="M23.2884 23.2008C23.6063 21.8562 22.7739 20.5085 21.4293 20.1907C20.0848 19.8728 18.7371 20.7052 18.4192 22.0498C18.1014 23.3944 18.9338 24.742 20.2784 25.0599C21.6229 25.3777 22.9706 24.5454 23.2884 23.2008Z" fill="#0A488A"/>
<path d="M55.5072 66.6812C55.825 65.3366 54.9927 63.989 53.6481 63.6711C52.3035 63.3533 50.9558 64.1856 50.638 65.5302C50.3202 66.8748 51.1525 68.2225 52.4971 68.5403C53.8417 68.8582 55.1894 68.0258 55.5072 66.6812Z" fill="#0A488A"/>
<path d="M23.2806 66.6734C23.5985 65.3288 22.7661 63.9812 21.4215 63.6633C20.0769 63.3455 18.7293 64.1778 18.4114 65.5224C18.0936 66.867 18.9259 68.2147 20.2705 68.5325C21.6151 68.8504 22.9628 68.018 23.2806 66.6734Z" fill="#0A488A"/>
<path d="M31.8085 13.367V17.0224H20.8594V13.367C20.8594 12.7889 21.328 12.3203 21.9061 12.3203H30.7618C31.3399 12.3203 31.8085 12.7889 31.8085 13.367Z" fill="white"/>
<path d="M54.3758 13.367V17.0224H36.1719V13.367C36.1719 12.7889 36.6405 12.3203 37.2186 12.3203H53.3289C53.9071 12.3203 54.3758 12.7889 54.3758 13.367Z" fill="white"/>
<path d="M26.0198 22.6209C26.0198 25.3804 23.7747 27.6253 21.0155 27.6253C20.6874 27.6253 20.4219 27.8911 20.4219 28.2189V60.4844C20.4219 60.8122 20.6873 61.078 21.0155 61.078C23.7747 61.078 26.0198 63.3229 26.0198 66.0821C26.0198 66.4099 26.2852 66.6757 26.6134 66.6757H47.3159C47.644 66.6757 47.9095 66.4099 47.9095 66.0821C47.9095 63.3229 50.1546 61.078 52.9139 61.078C53.2419 61.078 53.5075 60.8122 53.5075 60.4844V28.2189C53.5075 27.8911 53.242 27.6253 52.9139 27.6253C50.1546 27.6253 47.9095 25.3804 47.9095 22.6209C47.9095 22.2931 47.6441 22.0273 47.3159 22.0273H26.6134C26.2852 22.0273 26.0198 22.2931 26.0198 22.6209ZM46.7507 23.2145C47.0319 26.1556 49.3789 28.5032 52.3201 28.7844V59.919C49.3789 60.2002 47.0317 62.5476 46.7507 65.4885H27.1785C26.8974 62.5475 24.5503 60.2001 21.6091 59.919V28.7844C24.5503 28.5032 26.8975 26.1556 27.1785 23.2145H46.7507Z" fill="#0A488A"/>
<path d="M53.0804 25.715C54.787 25.715 56.1759 24.3264 56.1759 22.6192C56.1759 20.912 54.787 19.5234 53.0804 19.5234C51.3732 19.5234 49.9844 20.912 49.9844 22.6192C49.9844 24.3264 51.3733 25.715 53.0804 25.715ZM53.0804 20.7106C54.1324 20.7106 54.9887 21.5668 54.9887 22.6192C54.9887 23.6716 54.1326 24.5278 53.0804 24.5278C52.0277 24.5278 51.1715 23.6716 51.1715 22.6192C51.1715 21.5668 52.0277 20.7106 53.0804 20.7106Z" fill="#0A488A"/>
<path d="M20.8611 25.715C22.5683 25.715 23.9571 24.3264 23.9571 22.6192C23.9571 20.912 22.5682 19.5234 20.8611 19.5234C19.1546 19.5234 17.7656 20.912 17.7656 22.6192C17.7656 24.3264 19.1546 25.715 20.8611 25.715ZM20.8611 20.7106C21.9138 20.7106 22.7701 21.5668 22.7701 22.6192C22.7701 23.6716 21.9139 24.5278 20.8611 24.5278C19.8091 24.5278 18.9528 23.6716 18.9528 22.6192C18.9528 21.5668 19.809 20.7106 20.8611 20.7106Z" fill="#0A488A"/>
<path d="M53.0804 62.9844C51.3732 62.9844 49.9844 64.373 49.9844 66.0801C49.9844 67.7873 51.3733 69.1759 53.0804 69.1759C54.787 69.1759 56.1759 67.7873 56.1759 66.0801C56.1759 64.373 54.787 62.9844 53.0804 62.9844ZM53.0804 67.9887C52.0277 67.9887 51.1715 67.1326 51.1715 66.0801C51.1715 65.0277 52.0276 64.1716 53.0804 64.1716C54.1324 64.1716 54.9887 65.0277 54.9887 66.0801C54.9887 67.1326 54.1326 67.9887 53.0804 67.9887Z" fill="#0A488A"/>
<path d="M20.8611 62.9844C19.1546 62.9844 17.7656 64.373 17.7656 66.0801C17.7656 67.7873 19.1546 69.1759 20.8611 69.1759C22.5683 69.1759 23.9571 67.7873 23.9571 66.0801C23.9571 64.373 22.5682 62.9844 20.8611 62.9844ZM20.8611 67.9887C19.8091 67.9887 18.9528 67.1326 18.9528 66.0801C18.9528 65.0277 19.809 64.1716 20.8611 64.1716C21.9138 64.1716 22.7701 65.0277 22.7701 66.0801C22.7699 67.1326 21.9138 67.9887 20.8611 67.9887Z" fill="#0A488A"/>
<path d="M30.1106 11.7266H21.2555C20.3512 11.7266 19.6151 12.4624 19.6151 13.3668V16.4286H18.3467C16.4066 16.4286 14.8281 18.0071 14.8281 19.9475V68.7535C14.8281 70.6939 16.4066 72.2723 18.3467 72.2723H55.5897C57.5299 72.2723 59.1084 70.6939 59.1084 68.7535V19.9475C59.1084 18.0071 57.5299 16.4286 55.5897 16.4286H54.3214V13.3668C54.3214 12.4624 53.5853 11.7266 52.6809 11.7266H36.5706C35.6663 11.7266 34.9308 12.4624 34.9308 13.3668V16.4286H31.7512V13.3668C31.7511 12.4624 31.015 11.7266 30.1106 11.7266ZM20.8022 13.3668C20.8022 13.117 21.0056 12.9138 21.2554 12.9138H22.2681V13.865C22.2681 14.1928 22.5336 14.4586 22.8617 14.4586C23.1898 14.4586 23.4553 14.1928 23.4553 13.865V12.9138H25.0895V13.865C25.0895 14.1928 25.3549 14.4586 25.6831 14.4586C26.0111 14.4586 26.2767 14.1928 26.2767 13.865V12.9138H27.9109V13.865C27.9109 14.1928 28.1763 14.4586 28.5045 14.4586C28.8325 14.4586 29.0981 14.1928 29.0981 13.865V12.9138H30.1108C30.3606 12.9138 30.564 13.117 30.564 13.3668V16.4286H20.8022V13.3668ZM36.1177 13.3668C36.1177 13.117 36.3206 12.9138 36.5705 12.9138H38.0092V13.865C38.0092 14.1928 38.2747 14.4586 38.6028 14.4586C38.9309 14.4586 39.1964 14.1928 39.1964 13.865V12.9138H41.0207V13.865C41.0207 14.1928 41.2861 14.4586 41.6143 14.4586C41.9425 14.4586 42.2079 14.1928 42.2079 13.865V12.9138H44.0322V13.865C44.0322 14.1928 44.2976 14.4586 44.6258 14.4586C44.9539 14.4586 45.2194 14.1928 45.2194 13.865V12.9138H47.0441V13.865C47.0441 14.1928 47.3096 14.4586 47.6377 14.4586C47.9658 14.4586 48.2314 14.1928 48.2314 13.865V12.9138H50.0556V13.865C50.0556 14.1928 50.3211 14.4586 50.6492 14.4586C50.9774 14.4586 51.2428 14.1928 51.2428 13.865V12.9138H52.6811C52.9309 12.9138 53.1343 13.117 53.1343 13.3668V16.4286H36.1177V13.3668ZM55.5896 17.6158C56.8754 17.6158 57.921 18.6618 57.921 19.9476V68.7536C57.921 70.0394 56.8753 71.0854 55.5896 71.0854H18.3467C17.061 71.0854 16.0153 70.0394 16.0153 68.7536V19.9475C16.0153 18.6617 17.0611 17.6157 18.3467 17.6157C23.379 17.6158 46.6502 17.6158 55.5896 17.6158Z" fill="#0A488A"/>
<path d="M43.4012 39.7852H42.3358C42.0077 39.7852 41.7422 40.051 41.7422 40.3788V48.3189C41.7422 48.6467 42.0076 48.9125 42.3358 48.9125H43.4012C45.9175 48.9125 47.965 46.865 47.965 44.3487C47.965 41.8324 45.9175 39.7852 43.4012 39.7852ZM43.4012 47.7253H42.9293V40.9724H43.4012C45.2631 40.9724 46.7777 42.487 46.7777 44.3487C46.7777 46.2105 45.2631 47.7253 43.4012 47.7253Z" fill="white"/>
<path d="M31.1335 46.3338C31.1335 44.9119 29.977 43.7551 28.555 43.7551C27.7881 43.7551 27.1638 43.1311 27.1638 42.3638C27.1638 41.5966 27.7881 40.9724 28.555 40.9724H30.5399C30.8679 40.9724 31.1335 40.7066 31.1335 40.3788C31.1335 40.051 30.868 39.7852 30.5399 39.7852H28.555C27.1331 39.7852 25.9766 40.9418 25.9766 42.3638C25.9766 43.7855 27.133 44.9423 28.555 44.9423C29.3219 44.9423 29.9463 45.5667 29.9463 46.3338C29.9463 47.101 29.3219 47.725 28.555 47.725H26.5702C26.2421 47.725 25.9766 47.9908 25.9766 48.3186C25.9766 48.6464 26.242 48.9122 26.5702 48.9122H28.555C29.977 48.9121 31.1335 47.7554 31.1335 46.3338Z" fill="white"/>
<path d="M36.0238 47.725H34.0389C33.7109 47.725 33.4453 47.9908 33.4453 48.3186C33.4453 48.6464 33.7107 48.9122 34.0389 48.9122H36.0238C37.4456 48.9122 38.6022 47.7555 38.6022 46.3338C38.6022 44.9119 37.4458 43.7551 36.0238 43.7551C35.2569 43.7551 34.6325 43.1311 34.6325 42.3638C34.6325 41.5966 35.2569 40.9724 36.0238 40.9724H38.0086C38.3367 40.9724 38.6022 40.7066 38.6022 40.3788C38.6022 40.051 38.3368 39.7852 38.0086 39.7852H36.0238C34.6018 39.7852 33.4453 40.9418 33.4453 42.3638C33.4453 43.7855 34.6018 44.9423 36.0238 44.9423C36.7906 44.9423 37.415 45.5667 37.415 46.3338C37.4149 47.101 36.7906 47.725 36.0238 47.725Z" fill="white"/>
<defs>
<linearGradient id="paint0_linear_168_1203" x1="8.96878" y1="41" x2="65.9687" y2="41" gradientUnits="userSpaceOnUse">
<stop stop-color="#D1DDFF" stop-opacity="0"/>
<stop offset="1" stop-color="#248EFF" stop-opacity="0.26"/>
</linearGradient>
</defs>
</svg>
