<svg width="29" height="29" viewBox="0 0 29 29" fill="none" xmlns="http://www.w3.org/2000/svg">
<g clip-path="url(#clip0_276_794)">
<path d="M7.25 3.625C5.24747 3.625 3.625 5.24747 3.625 7.25C3.625 9.25253 5.24747 10.875 7.25 10.875C9.25253 10.875 10.875 9.25253 10.875 7.25C10.875 5.24747 9.25253 3.625 7.25 3.625ZM7.25 8.45831C6.58215 8.45831 6.04169 7.91785 6.04169 7.25C6.04169 6.58215 6.58215 6.04169 7.25 6.04169C7.91785 6.04169 8.45831 6.58215 8.45831 7.25C8.45831 7.91785 7.91785 8.45831 7.25 8.45831Z" fill="#FFFFFF"/>
<path d="M24.1667 14.5C26.8362 14.5 29 12.3362 29 9.66669V4.83331C29 2.16379 26.8362 0 24.1667 0H4.83331C2.16379 0 0 2.16379 0 4.83331V9.66663C0 12.3362 2.16379 14.5 4.83331 14.5H13.2916V19.4856C11.5931 19.9227 10.256 21.2598 9.81888 22.9583H1.20831C0.540975 22.9583 0 23.4993 0 24.1667C0 24.834 0.540975 25.375 1.20831 25.375H9.81888C10.3554 27.4598 12.2476 29 14.4999 29C16.7523 29 18.6445 27.4598 19.181 25.375H27.7916C28.4589 25.375 28.9999 24.834 28.9999 24.1667C28.9999 23.4993 28.4589 22.9584 27.7916 22.9584H19.1811C18.744 21.2598 17.4069 19.9227 15.7083 19.4856V14.5H24.1667ZM16.9167 24.1667C16.9167 25.5015 15.8349 26.5834 14.5 26.5834C13.1651 26.5834 12.0833 25.5016 12.0833 24.1667C12.0833 22.8318 13.1652 21.75 14.5 21.75C15.8348 21.75 16.9167 22.8318 16.9167 24.1667ZM2.41669 9.66669V4.83331C2.41669 3.49846 3.49846 2.41663 4.83337 2.41663H24.1667C25.5015 2.41663 26.5834 3.49841 26.5834 4.83331V9.66663C26.5834 11.0015 25.5016 12.0833 24.1667 12.0833H4.83331C3.49846 12.0833 2.41669 11.0015 2.41669 9.66669Z" fill="#FFFFFF"/>
<path d="M21.7493 6.04169C22.4167 6.04169 22.9576 5.50071 22.9576 4.83337C22.9576 4.16597 22.4167 3.625 21.7493 3.625H14.4993C13.832 3.625 13.291 4.16597 13.291 4.83331C13.291 5.50065 13.832 6.04163 14.4993 6.04163L21.7493 6.04169Z" fill="#FFFFFF"/>
<path d="M15.709 9.66657C15.709 10.3339 16.25 10.8749 16.9173 10.8749H24.1673C24.8346 10.8749 25.3756 10.3339 25.3756 9.66657C25.3756 8.99923 24.8346 8.45825 24.1673 8.45825H16.9173C16.25 8.4582 15.709 8.99923 15.709 9.66657Z" fill="#FFFFFF"/>
</g>
<defs>
<clipPath id="clip0_276_794">
<rect width="29" height="29" fill="white"/>
</clipPath>
</defs>
</svg>
