<svg width="30" height="30" viewBox="0 0 30 30" fill="none" xmlns="http://www.w3.org/2000/svg">
<g clip-path="url(#clip0_276_821)">
<path d="M22.3542 8.45833H4.22917C1.89708 8.45833 0 6.56125 0 4.22917C0 1.89708 1.89708 0 4.22917 0H22.3542C24.6863 0 26.5833 1.89708 26.5833 4.22917C26.5833 6.56125 24.6863 8.45833 22.3542 8.45833ZM4.22917 1.8125C2.89637 1.8125 1.8125 2.89637 1.8125 4.22917C1.8125 5.56196 2.89637 6.64583 4.22917 6.64583H22.3542C23.687 6.64583 24.7708 5.56196 24.7708 4.22917C24.7708 2.89637 23.687 1.8125 22.3542 1.8125H4.22917Z" fill="#455C82"/>
<path d="M6.04036 5.43229C6.70771 5.43229 7.2487 4.8913 7.2487 4.22396C7.2487 3.55661 6.70771 3.01562 6.04036 3.01562C5.37302 3.01562 4.83203 3.55661 4.83203 4.22396C4.83203 4.8913 5.37302 5.43229 6.04036 5.43229Z" fill="#455C82"/>
<path d="M10.8763 5.43229C11.5436 5.43229 12.0846 4.8913 12.0846 4.22396C12.0846 3.55661 11.5436 3.01562 10.8763 3.01562C10.209 3.01562 9.66797 3.55661 9.66797 4.22396C9.66797 4.8913 10.209 5.43229 10.8763 5.43229Z" fill="#455C82"/>
<path d="M21.0938 15.099H4.22917C1.89708 15.099 0 13.2019 0 10.8698C0 9.74725 0.455542 8.65733 1.24942 7.87796C2.01671 7.09617 3.10663 6.64062 4.22917 6.64062H22.3542C24.267 6.64062 25.9441 7.92629 26.4323 9.76779C26.5604 10.2511 26.2728 10.7477 25.7895 10.8758C25.3073 11.01 24.8095 10.7163 24.6814 10.233C24.4023 9.18417 23.4453 8.45312 22.3542 8.45312H4.22917C3.5815 8.45312 2.97854 8.70446 2.53146 9.16C2.06383 9.61917 1.8125 10.2221 1.8125 10.8698C1.8125 12.2026 2.89638 13.2865 4.22917 13.2865H21.0938C21.594 13.2865 22 13.6925 22 14.1927C22 14.693 21.594 15.099 21.0938 15.099Z" fill="#455C82"/>
<path d="M6.04036 12.0807C6.70771 12.0807 7.2487 11.5397 7.2487 10.8724C7.2487 10.2051 6.70771 9.66406 6.04036 9.66406C5.37302 9.66406 4.83203 10.2051 4.83203 10.8724C4.83203 11.5397 5.37302 12.0807 6.04036 12.0807Z" fill="#455C82"/>
<path d="M10.8763 12.0807C11.5436 12.0807 12.0846 11.5397 12.0846 10.8724C12.0846 10.2051 11.5436 9.66406 10.8763 9.66406C10.209 9.66406 9.66797 10.2051 9.66797 10.8724C9.66797 11.5397 10.209 12.0807 10.8763 12.0807Z" fill="#455C82"/>
<path d="M7.59375 21.7474H4.22917C1.89708 21.7474 0 19.8503 0 17.5182C0 16.3957 0.455542 15.3058 1.24942 14.5264C2.01671 13.7446 3.10663 13.2891 4.22917 13.2891C4.72942 13.2891 5.13542 13.6951 5.13542 14.1953C5.13542 14.6956 4.72942 15.1016 4.22917 15.1016C3.5815 15.1016 2.97854 15.3529 2.53146 15.8084C2.06383 16.2676 1.8125 16.8706 1.8125 17.5182C1.8125 18.851 2.89638 19.9349 4.22917 19.9349H7.59375C8.094 19.9349 8.5 20.3409 8.5 20.8411C8.5 21.3414 8.094 21.7474 7.59375 21.7474Z" fill="#455C82"/>
<path d="M6.04036 18.7292C6.70771 18.7292 7.2487 18.1882 7.2487 17.5208C7.2487 16.8535 6.70771 16.3125 6.04036 16.3125C5.37302 16.3125 4.83203 16.8535 4.83203 17.5208C4.83203 18.1882 5.37302 18.7292 6.04036 18.7292Z" fill="#455C82"/>
<path d="M28.1358 17C29.1659 17.0001 30 17.834 30.0001 18.8643V25.0781C30.0001 26.1083 29.166 26.9423 28.1358 26.9424H22.2979L23.0987 28.9053L19.5743 26.9424H11.8643C10.8341 26.9424 10.0001 26.1084 10.0001 25.0781V18.8643C9.9919 17.8423 10.8255 17.0002 11.8555 17H28.1358ZM18.6182 18.1055C18.3825 18.1217 18.2031 18.2353 18.0811 18.4629C17.577 19.3816 17.2192 20.8696 17.0079 22.9346C16.699 22.1542 16.4387 21.2355 16.2354 20.1543C16.146 19.6748 15.9269 19.4465 15.5694 19.4707C15.3255 19.487 15.1216 19.65 14.959 19.959L13.1788 23.3486C12.8861 22.1699 12.6095 20.7311 12.3575 19.0322C12.3006 18.6095 12.065 18.4138 11.6504 18.4463C11.4231 18.4625 11.2526 18.5441 11.1387 18.6982C11.025 18.8445 10.9754 19.0319 11.0079 19.2432C11.4876 22.2919 11.935 24.349 12.3497 25.4141C12.5123 25.8043 12.6995 25.9909 12.919 25.9746C13.2604 25.95 13.667 25.4789 14.1465 24.5605C14.3986 24.0402 14.789 23.2594 15.3174 22.2188C15.7564 23.7554 16.3582 24.9103 17.1143 25.6826C17.3255 25.9018 17.5447 25.9996 17.7559 25.9834C17.9428 25.9671 18.089 25.8692 18.1866 25.6904C18.2678 25.5361 18.3004 25.3574 18.2842 25.1543C18.2355 24.4145 18.3086 23.3817 18.5118 22.0566C18.7231 20.6909 18.9838 19.7065 19.3008 19.1211C19.3657 18.9993 19.39 18.8776 19.3819 18.7314C19.3656 18.5445 19.2844 18.3895 19.1299 18.2676C18.9756 18.1458 18.805 18.0893 18.6182 18.1055ZM21.7803 18.9834C21.0001 18.9836 20.366 19.3903 19.8702 20.2031C19.4476 20.894 19.2364 21.658 19.2364 22.4951C19.2364 23.1211 19.3659 23.6583 19.626 24.1055C19.9187 24.6175 20.3499 24.9259 20.9268 25.0479C21.0813 25.0804 21.2281 25.0967 21.3663 25.0967C22.1548 25.0966 22.7886 24.6899 23.2764 23.877C23.699 23.178 23.9111 22.4142 23.9112 21.5771C23.9112 20.943 23.7807 20.4137 23.5206 19.9746C23.2279 19.4626 22.7887 19.1542 22.2198 19.0322C22.0653 18.9997 21.9185 18.9834 21.7803 18.9834ZM26.8702 18.9834C26.0897 18.9834 25.456 19.3901 24.96 20.2031C24.5374 20.8941 24.3253 21.6579 24.3253 22.4951C24.3253 23.1211 24.4557 23.6583 24.7159 24.1055C25.0086 24.6174 25.4396 24.9259 26.0167 25.0479C26.171 25.0803 26.3171 25.0966 26.4551 25.0967C27.2437 25.0967 27.8785 24.69 28.3663 23.877C28.7888 23.178 29 22.4141 29.0001 21.5771C29.0082 20.943 28.8706 20.4137 28.6104 19.9746C28.3178 19.4626 27.8865 19.1542 27.3096 19.0322C27.1552 18.9997 27.0084 18.9834 26.8702 18.9834ZM21.919 20.3574C22.1141 20.3981 22.2766 20.5687 22.3985 20.8857C22.496 21.1376 22.5449 21.3894 22.545 21.625C22.5531 21.8364 22.529 22.0405 22.4883 22.2275C22.3745 22.7639 22.1709 23.1624 21.8702 23.4307C21.6346 23.6418 21.4151 23.7309 21.212 23.6904C21.0168 23.6498 20.8534 23.4792 20.7315 23.1621C20.634 22.9101 20.586 22.6576 20.586 22.4219C20.586 22.2189 20.6021 22.0159 20.6426 21.8291C20.7158 21.4958 20.8539 21.1702 21.0733 20.8613C21.3416 20.463 21.6263 20.3005 21.919 20.3574ZM27.0167 20.3574C27.2117 20.3981 27.3742 20.5688 27.4962 20.8857C27.5936 21.1376 27.6426 21.3894 27.6426 21.625C27.6426 21.8364 27.6266 22.0405 27.586 22.2275C27.4722 22.7639 27.2686 23.1624 26.9678 23.4307C26.7323 23.6418 26.5127 23.7309 26.3096 23.6904C26.1145 23.6498 25.9511 23.4792 25.8292 23.1621C25.7316 22.9101 25.6837 22.6576 25.6837 22.4219C25.6837 22.2189 25.6997 22.0159 25.7403 21.8291C25.8135 21.4958 25.9515 21.1703 26.171 20.8613C26.4392 20.463 26.724 20.3005 27.0167 20.3574Z" fill="#455C82"/>
</g>
<defs>
<clipPath id="clip0_276_821">
<rect width="30" height="30" fill="white"/>
</clipPath>
</defs>
</svg>
