<svg width="30" height="30" viewBox="0 0 30 30" fill="none" xmlns="http://www.w3.org/2000/svg">
<path d="M22.3542 8.45833H4.22917C1.89708 8.45833 0 6.56125 0 4.22917C0 1.89708 1.89708 0 4.22917 0H22.3542C24.6863 0 26.5833 1.89708 26.5833 4.22917C26.5833 6.56125 24.6863 8.45833 22.3542 8.45833ZM4.22917 1.8125C2.89637 1.8125 1.8125 2.89637 1.8125 4.22917C1.8125 5.56196 2.89637 6.64583 4.22917 6.64583H22.3542C23.687 6.64583 24.7708 5.56196 24.7708 4.22917C24.7708 2.89637 23.687 1.8125 22.3542 1.8125H4.22917Z" fill="#1276DF"/>
<path d="M6.04036 5.43229C6.70771 5.43229 7.2487 4.8913 7.2487 4.22396C7.2487 3.55661 6.70771 3.01562 6.04036 3.01562C5.37302 3.01562 4.83203 3.55661 4.83203 4.22396C4.83203 4.8913 5.37302 5.43229 6.04036 5.43229Z" fill="#1276DF"/>
<path d="M10.8763 5.43229C11.5436 5.43229 12.0846 4.8913 12.0846 4.22396C12.0846 3.55661 11.5436 3.01562 10.8763 3.01562C10.209 3.01562 9.66797 3.55661 9.66797 4.22396C9.66797 4.8913 10.209 5.43229 10.8763 5.43229Z" fill="#1276DF"/>
<path d="M11.9263 15.099H4.22917C1.89708 15.099 0 13.2019 0 10.8698C0 9.74725 0.455542 8.65733 1.24942 7.87796C2.01671 7.09617 3.10663 6.64062 4.22917 6.64062H22.3542C24.267 6.64062 25.9441 7.92629 26.4323 9.76779C26.5604 10.2511 26.2728 10.7477 25.7895 10.8758C25.3073 11.01 24.8095 10.7163 24.6814 10.233C24.4023 9.18417 23.4453 8.45312 22.3542 8.45312H4.22917C3.5815 8.45312 2.97854 8.70446 2.53146 9.16C2.06383 9.61917 1.8125 10.2221 1.8125 10.8698C1.8125 12.2026 2.89637 13.2865 4.22917 13.2865H11.9263C12.4265 13.2865 12.8325 13.6925 12.8325 14.1927C12.8325 14.693 12.4265 15.099 11.9263 15.099Z" fill="#1276DF"/>
<path d="M6.04036 12.0807C6.70771 12.0807 7.2487 11.5397 7.2487 10.8724C7.2487 10.2051 6.70771 9.66406 6.04036 9.66406C5.37302 9.66406 4.83203 10.2051 4.83203 10.8724C4.83203 11.5397 5.37302 12.0807 6.04036 12.0807Z" fill="#1276DF"/>
<path d="M10.8763 12.0807C11.5436 12.0807 12.0846 11.5397 12.0846 10.8724C12.0846 10.2051 11.5436 9.66406 10.8763 9.66406C10.209 9.66406 9.66797 10.2051 9.66797 10.8724C9.66797 11.5397 10.209 12.0807 10.8763 12.0807Z" fill="#1276DF"/>
<path d="M9.96875 21.7474H4.22917C1.89708 21.7474 0 19.8503 0 17.5182C0 16.3957 0.455542 15.3058 1.24942 14.5264C2.01671 13.7446 3.10663 13.2891 4.22917 13.2891C4.72942 13.2891 5.13542 13.6951 5.13542 14.1953C5.13542 14.6956 4.72942 15.1016 4.22917 15.1016C3.5815 15.1016 2.97854 15.3529 2.53146 15.8084C2.06383 16.2676 1.8125 16.8706 1.8125 17.5182C1.8125 18.851 2.89637 19.9349 4.22917 19.9349H9.96875C10.469 19.9349 10.875 20.3409 10.875 20.8411C10.875 21.3414 10.469 21.7474 9.96875 21.7474Z" fill="#1276DF"/>
<path d="M6.04036 18.7292C6.70771 18.7292 7.2487 18.1882 7.2487 17.5208C7.2487 16.8535 6.70771 16.3125 6.04036 16.3125C5.37302 16.3125 4.83203 16.8535 4.83203 17.5208C4.83203 18.1882 5.37302 18.7292 6.04036 18.7292Z" fill="#1276DF"/>
<path d="M21.5 12C16.8056 12 13 15.8056 13 20.5C13 25.1944 16.8056 29 21.5 29C26.1944 29 30 25.1944 30 20.5C30 15.8056 26.1944 12 21.5 12ZM14.4166 20.5C14.4153 19.5486 14.6056 18.6067 14.9762 17.7304L18.2912 26.8113C15.9152 25.604 14.418 23.1651 14.4166 20.5ZM21.5 27.5834C20.8237 27.5824 20.1511 27.4846 19.5025 27.293L21.6275 21.1305C21.6275 21.1305 23.54 26.3651 23.8446 27.1797C23.0914 27.4454 22.2987 27.5819 21.5 27.5834ZM22.4917 17.1213C22.9237 17.1213 23.3133 17.0504 23.3133 17.0504C23.4776 17.0387 23.6013 16.896 23.5896 16.7317C23.5778 16.5674 23.4351 16.4437 23.2708 16.4554C23.2708 16.4554 22.1021 16.5475 21.3512 16.5475C20.6004 16.5475 19.4529 16.4554 19.4529 16.4554C19.2886 16.4437 19.1459 16.5674 19.1342 16.7317C19.1224 16.896 19.2461 17.0387 19.4104 17.0504C19.4104 17.0504 19.7788 17.1 20.1684 17.1213L21.2875 20.1955L19.715 24.9201L17.0941 17.1284C17.5262 17.1284 17.9158 17.0575 17.9158 17.0575C18.0801 17.0458 18.2038 16.9031 18.192 16.7388C18.1803 16.5745 18.0376 16.4508 17.8733 16.4626C17.8733 16.4626 16.7045 16.5547 15.9537 16.5547H15.6207C17.8067 13.3103 22.2088 12.4524 25.4531 14.6384C25.7081 14.8102 25.9516 14.9983 26.182 15.2018C25.5455 15.2756 25.075 15.8297 25.1054 16.4697C25.1596 17.0784 25.3829 17.6599 25.7499 18.1484C26.1282 18.7416 26.3342 19.4283 26.345 20.1318C26.2714 20.93 26.0878 21.7142 25.7996 22.4622L25.0912 24.8635L22.4917 17.1213ZM27.875 17.355C28.3511 18.3345 28.5936 19.411 28.5833 20.5C28.5805 22.9689 27.2922 25.2582 25.1833 26.5421L27.3083 20.3654C27.6638 19.5512 27.8563 18.6753 27.8749 17.7871C27.875 17.6313 27.875 17.4967 27.875 17.355Z" fill="#1276DF"/>
</svg>
