<svg width="41" height="41" viewBox="0 0 41 41" fill="none" xmlns="http://www.w3.org/2000/svg">
<path d="M20.669 40.9996C9.59936 40.9996 0.59375 31.994 0.59375 20.9243C0.59375 9.85474 9.59936 0.849121 20.669 0.849121C31.7386 0.849121 40.7442 9.85474 40.7442 20.9243C40.7442 31.994 31.7386 40.9996 20.669 40.9996ZM20.669 2.57301C10.5501 2.57301 2.31764 10.8054 2.31764 20.9243C2.31764 31.0433 10.5501 39.2757 20.669 39.2757C30.7879 39.2757 39.0203 31.0433 39.0203 20.9243C39.0203 10.8054 30.7879 2.57301 20.669 2.57301Z" fill="white"/>
<path d="M17.7287 11.5072C18.5815 9.40116 20.4143 8.34814 23.2269 8.34814H23.8466C25.5526 8.34814 26.4056 8.46788 26.4056 8.708V12.3666H23.9665C22.5002 12.5001 21.7673 13.1933 21.7673 14.4461V17.3852C21.7673 17.545 21.8471 17.6251 22.0072 17.6251H26.166V17.865C25.9127 20.5442 25.7061 21.8838 25.5463 21.8838H22.0074C21.8741 21.8838 21.794 21.9707 21.7675 22.1437V33.5001H17.4289L17.3688 32.7605V22.2639C17.2489 22.011 17.1289 21.8841 17.009 21.8841H14.9297V17.6253H17.009C17.2489 17.4922 17.3688 17.3652 17.3688 17.2455L17.2489 13.4665C17.4089 12.6003 17.5688 11.9471 17.7287 11.5072Z" fill="white"/>
</svg>
