<svg width="41" height="41" viewBox="0 0 41 41" fill="none" xmlns="http://www.w3.org/2000/svg">
<path d="M20.0987 40.9996C9.02905 40.9996 0.0234375 31.994 0.0234375 20.9243C0.0234375 9.85474 9.02905 0.849121 20.0987 0.849121C31.1683 0.849121 40.1741 9.85474 40.1741 20.9243C40.1741 31.994 31.1683 40.9996 20.0987 40.9996ZM20.0987 2.57301C9.97974 2.57301 1.74732 10.8054 1.74732 20.9243C1.74732 31.0433 9.97974 39.2757 20.0987 39.2757C30.2176 39.2757 38.4498 31.0433 38.4498 20.9243C38.4498 10.8054 30.2176 2.57301 20.0987 2.57301Z" fill="white"/>
<path d="M13.1639 11.3179C14.7101 11.5312 15.483 12.2645 15.483 13.5171V13.637C15.0833 14.8501 14.35 15.4563 13.2838 15.4563C11.9773 15.4563 11.2109 14.8501 10.9844 13.637V12.8974C11.4911 11.8446 12.2174 11.3179 13.1639 11.3179ZM11.4646 17.036H14.8636L15.1034 17.5158V28.5924C15.1034 28.7523 15.0234 28.8323 14.8636 28.8323H11.4646C11.3313 28.8323 11.2512 28.7523 11.2247 28.5924V17.2759C11.2247 17.1428 11.3045 17.0627 11.4646 17.036ZM24.2205 16.7963H25.44C25.6663 16.7963 26.2728 16.9961 27.2594 17.3961C28.5655 18.5425 29.2187 19.8021 29.2187 21.1748V28.8323H25.5599C25.4268 28.8323 25.3468 28.7523 25.3202 28.5924V22.3945C25.3202 20.6884 24.6337 19.8352 23.2607 19.8352C22.0744 19.8352 21.3814 20.6884 21.1816 22.3945V28.5924C21.1816 28.7523 21.1016 28.8323 20.9417 28.8323H17.5428C17.4095 28.8323 17.3294 28.7523 17.3029 28.5924V17.036H21.1816V18.2555H21.4415C22.3476 17.3228 23.2739 16.836 24.2205 16.7963Z" fill="white"/>
</svg>
