<svg width="41" height="41" viewBox="0 0 41 41" fill="none" xmlns="http://www.w3.org/2000/svg">
<path d="M20.5129 40.9996C9.44332 40.9996 0.4375 31.994 0.4375 20.9243C0.4375 9.85474 9.44332 0.849121 20.5129 0.849121C31.5825 0.849121 40.5884 9.85474 40.5884 20.9243C40.5884 31.994 31.5823 40.9996 20.5129 40.9996ZM20.5129 2.57301C10.394 2.57301 2.16181 10.8054 2.16181 20.9243C2.16181 31.0433 10.394 39.2757 20.5129 39.2757C30.6319 39.2757 38.864 31.0433 38.864 20.9243C38.864 10.8054 30.6319 2.57301 20.5129 2.57301Z" fill="white"/>
<path d="M28.9113 14.5166C26.7768 14.5166 25.0444 12.7842 25.0444 10.6497C25.0444 10.6121 25.0444 10.5769 25.0465 10.5393H25.0444H22.3951C22.393 10.5769 22.393 10.6121 22.393 10.6497V24.9017H22.3864C22.3288 26.9854 20.623 28.658 18.5261 28.658C16.3916 28.658 14.6592 26.9256 14.6592 24.7911C14.6592 22.6566 16.3916 20.9242 18.5261 20.9242C19.3968 20.9242 20.1988 21.2159 20.8461 21.7042V18.7036C20.1237 18.4295 19.3437 18.2726 18.5261 18.2726C14.9267 18.2726 12.0078 21.1915 12.0078 24.7909C12.0078 28.3902 14.9267 31.3092 18.5261 31.3092C20.285 31.3092 21.8826 30.6109 23.0558 29.4774C24.1495 28.4191 24.872 26.985 25.0157 25.3853C25.0334 25.2219 25.0444 25.0584 25.0444 24.8926V15.8974C26.1271 16.695 27.464 17.168 28.9113 17.168C28.9488 17.168 28.9841 17.1659 29.0217 17.1659V14.51C28.9841 14.5121 28.9488 14.5166 28.9113 14.5166Z" fill="white"/>
</svg>
