<svg width="41" height="41" viewBox="0 0 41 41" fill="none" xmlns="http://www.w3.org/2000/svg">
<path d="M20.3411 41C9.27146 41 0.265625 31.9942 0.265625 20.9246C0.265625 9.85496 9.27146 0.849121 20.3411 0.849121C31.4107 0.849121 40.4165 9.85496 40.4165 20.9246C40.4165 31.9942 31.4105 41 20.3411 41ZM20.3411 2.57344C10.2221 2.57344 1.98993 10.8056 1.98993 20.9246C1.98993 31.0435 10.2221 39.2759 20.3411 39.2759C30.46 39.2759 38.6922 31.0437 38.6922 20.9246C38.6922 10.8054 30.46 2.57344 20.3411 2.57344Z" fill="white"/>
<path d="M29.4271 28.9294C28.584 27.8345 27.7631 26.7225 26.933 25.6177C25.5199 23.7348 24.1091 21.8512 22.695 19.9692C22.357 19.5202 22.3528 19.414 22.6621 19.0858C24.2102 17.4432 25.7385 15.7832 27.2709 14.1273C27.79 13.5655 28.3558 13.0439 28.8191 12.4304C28.9178 12.2996 29.056 12.1869 28.9335 12.0002H27.2901C27.0975 12.1219 26.8582 12.1639 26.7052 12.3539C26.3269 12.8227 25.8761 13.2242 25.477 13.6725C24.2686 15.0281 23.002 16.3295 21.7821 17.6736C21.3872 18.1079 21.2811 18.0865 20.9331 17.6226C19.6952 15.9718 18.4572 14.3224 17.2208 12.6707C17.0234 12.4057 16.8185 12.1599 16.524 12.0002H10.8533C10.8212 12.3013 10.9677 12.5391 11.1346 12.7652C11.9472 13.8632 12.774 14.9517 13.5932 16.0456C14.9207 17.8167 16.2485 19.5885 17.5794 21.3578C17.8838 21.7625 17.8862 21.8752 17.6097 22.1754C16.6194 23.2497 15.6264 24.3207 14.6312 25.3901C13.4582 26.6495 12.295 27.9178 11.1137 29.1691C10.9394 29.3533 10.783 29.5474 10.8531 29.8295H12.4965C12.6453 29.7342 12.8098 29.6733 12.9432 29.5442C13.593 28.9166 14.1917 28.2388 14.8021 27.574C16.022 26.2431 17.2648 24.9345 18.4789 23.5985C18.8778 23.1601 18.9247 23.1764 19.2776 23.6477C20.6809 25.5207 22.0851 27.3929 23.4867 29.2667C23.6718 29.5134 23.8701 29.7257 24.166 29.8293C25.9468 29.8293 27.7278 29.831 29.5078 29.8236C29.6148 29.8236 29.7627 29.9166 29.8368 29.7471C29.6895 29.4805 29.6213 29.1812 29.4271 28.9294ZM24.9006 28.602C24.7115 28.602 24.6571 28.4432 24.5715 28.329C21.8957 24.764 19.2215 21.1965 16.5474 17.629C15.5793 16.3384 14.6118 15.0461 13.6446 13.7547C13.5336 13.6059 13.4257 13.4537 13.2703 13.2399C14.0936 13.2399 14.8193 13.2522 15.5439 13.2333C15.7939 13.2267 15.9411 13.3148 16.0844 13.5072C18.2354 16.3894 20.3913 19.2675 22.5481 22.1457C24.065 24.17 25.5834 26.192 27.1009 28.2154C27.1799 28.3207 27.2514 28.4326 27.3673 28.6012C26.5022 28.6012 25.7018 28.5995 24.9006 28.602Z" fill="white"/>
</svg>
