<svg width="41" height="41" viewBox="0 0 41 41" fill="none" xmlns="http://www.w3.org/2000/svg">
<path d="M20.0752 40.9996C9.00561 40.9996 0 31.994 0 20.9243C0 9.85474 9.00561 0.849121 20.0752 0.849121C31.1448 0.849121 40.1505 9.85474 40.1505 20.9243C40.1505 31.994 31.1448 40.9996 20.0752 40.9996ZM20.0752 2.57301C9.9563 2.57301 1.72389 10.8054 1.72389 20.9243C1.72389 31.0433 9.9563 39.2757 20.0752 39.2757C30.1941 39.2757 38.4266 31.0433 38.4266 20.9243C38.4266 10.8054 30.1941 2.57301 20.0752 2.57301Z" fill="white"/>
<path d="M10.0579 17.6954C12.1372 12.8437 15.3362 10.4177 19.6548 10.4177H20.7344C21.7472 10.4177 22.9268 10.6576 24.2732 11.1376C28.4719 13.3768 30.5713 16.576 30.5713 20.7345C30.5713 23.1736 29.7648 25.44 28.152 27.5324C25.8328 30.0516 23.2002 31.3112 20.2546 31.3112H19.7747C18.6283 31.3112 17.0488 30.9046 15.0364 30.0915H14.7965L9.69808 31.4311C9.69808 31.3511 9.65816 31.3112 9.57812 31.3112C9.97789 30.0849 10.4645 28.3389 11.0377 26.0728C10.1445 24.287 9.69808 22.7941 9.69808 21.5943V20.015C9.69808 19.7346 9.81802 18.9618 10.0579 17.6954ZM16.376 12.8369C13.0571 14.9296 11.3975 17.4022 11.3975 20.2545V21.7141C11.3975 22.6338 11.8841 23.9668 12.8571 25.7128C12.8571 25.9128 12.6102 26.9259 12.1175 28.7517L12.3574 28.8716H12.5973L14.9164 28.2719H15.2763C17.1558 29.165 18.7752 29.6115 20.1348 29.6115C21.3209 29.6115 22.7406 29.245 24.3936 28.5118C27.3792 26.3125 28.8721 23.8866 28.8721 21.2341C28.792 21.2341 28.7521 21.1876 28.7521 21.0942C28.8322 21.0942 28.8721 21.0542 28.8721 20.9742C28.8721 19.9346 28.7122 18.9283 28.3923 17.9553C26.6327 14.0634 23.9204 12.117 20.2548 12.117C19.0018 12.1172 17.7086 12.3571 16.376 12.8369ZM16.496 15.9959H16.8558C17.2687 15.9959 17.7556 16.8492 18.3154 18.5552C18.3154 18.8351 18.0286 19.3219 17.4556 20.0148V20.1348C18.3884 21.7476 19.6881 22.8807 21.3543 23.5337L22.6939 22.1941H22.9338C24.5063 22.7539 25.3131 23.1607 25.353 23.4138V24.0135C25.353 24.8801 24.6265 25.4865 23.1737 25.8329H22.434C22.0742 25.8329 21.1876 25.513 19.775 24.8731C16.4561 22.5939 14.7965 20.4479 14.7965 18.4353C14.7965 17.1025 15.3629 16.2891 16.496 15.9959Z" fill="white"/>
</svg>
