<svg width="41" height="41" viewBox="0 0 41 41" fill="none" xmlns="http://www.w3.org/2000/svg">
<path d="M20.2707 40.1507C9.20113 40.1507 0.195312 31.1448 0.195312 20.0752C0.195312 9.00561 9.20113 0 20.2707 0C31.3403 0 40.3462 9.00561 40.3462 20.0752C40.3462 31.1448 31.3401 40.1507 20.2707 40.1507ZM20.2707 1.72409C10.1518 1.72409 1.91963 9.95651 1.91963 20.0754C1.91963 30.1944 10.1518 38.4266 20.2707 38.4266C30.3897 38.4266 38.6219 30.1944 38.6219 20.0754C38.6219 9.95651 30.3897 1.72409 20.2707 1.72409Z" fill="white"/>
<path d="M30.7896 12.4678C31.7623 13.1344 32.2489 15.3669 32.2489 19.1657V20.8651C32.2489 23.5444 32.0093 25.4905 31.5292 26.7034C31.0758 27.8365 29.5765 28.4029 27.0308 28.4029H16.0743C12.9019 28.4029 10.8761 28.2029 9.99635 27.8029C8.86308 27.19 8.29688 24.591 8.29688 20.0055V19.8856C8.41683 15.8338 8.73655 13.6475 9.25669 13.3276C9.25669 12.2748 12.6622 11.748 19.4733 11.748C26.2843 11.748 30.0563 11.988 30.7896 12.4678ZM17.8937 23.1643H18.2736L23.9717 20.0055C23.825 19.8055 21.8392 18.7128 18.0137 16.7265H17.894V23.1643H17.8937Z" fill="white"/>
</svg>
