<svg width="88" height="88" viewBox="0 0 88 88" fill="none" xmlns="http://www.w3.org/2000/svg">
<g clip-path="url(#clip0_766_2656)">
<path d="M59.4675 68.391L44 78.7027L28.5325 68.3909C18.1832 61.4913 11.9668 49.876 11.9668 37.4377V12.3613C11.9668 10.3896 13.3086 8.67101 15.2216 8.19268L41.7074 1.57137C43.2126 1.19496 44.7875 1.19496 46.2928 1.57137L72.7786 8.19285C74.6914 8.67101 76.0334 10.3898 76.0334 12.3615V37.4381C76.0332 49.8762 69.8168 61.4915 59.4675 68.391Z" fill="#EAF6FF"/>
<path d="M72.9398 8.23633C73.0517 8.61995 73.1112 9.02403 73.1112 9.43928V34.5158C73.1112 46.9541 66.8948 58.5694 56.5455 65.469L41.078 75.7806L25.6104 65.4688C24.1347 64.485 22.743 63.4053 21.4414 62.241C23.5118 64.5556 25.887 66.6272 28.5323 68.3907L43.9998 78.7025L59.4674 68.3907C69.8167 61.4911 76.033 49.8758 76.033 37.4375V12.3612C76.033 10.4454 74.7661 8.76862 72.9398 8.23633Z" fill="#C4E2FF"/>
<path d="M31.493 63.9497C22.6088 58.0269 17.3047 48.1163 17.3047 37.4389V13.5115C17.3047 13.3143 17.4389 13.1424 17.6302 13.0947L43.8948 6.52852C43.9632 6.51133 44.0349 6.51133 44.1033 6.52852L70.3678 13.0947C70.5591 13.1424 70.6934 13.3143 70.6934 13.5115V37.4389C70.6934 48.1163 65.3893 58.0269 56.5051 63.9497L44.2373 72.1282C44.093 72.2245 43.9049 72.2245 43.7605 72.1282L31.493 63.9497Z" fill="white"/>
<path d="M70.3689 13.0945L67.2569 12.3164V34.0012C67.2569 44.6786 61.9529 54.5892 53.0686 60.512L39.7031 69.4226L43.7616 72.1282C43.906 72.2245 44.094 72.2245 44.2384 72.1282L56.5061 63.9497C65.3904 58.0269 70.6944 48.1162 70.6944 37.4389V13.5113C70.6942 13.3141 70.5602 13.1423 70.3689 13.0945Z" fill="white"/>
<path d="M44.0005 35.9913C48.4234 35.9913 52.0089 32.4058 52.0089 27.983C52.0089 23.5601 48.4234 19.9746 44.0005 19.9746C39.5776 19.9746 35.9922 23.5601 35.9922 27.983C35.9922 32.4058 39.5776 35.9913 44.0005 35.9913Z" fill="#0593FC"/>
<path d="M44 49.3396C38.1028 49.3396 33.3223 44.5591 33.3223 38.6619V26.752C33.3223 26.2774 33.7071 25.8926 34.1816 25.8926H53.8184C54.2929 25.8926 54.6777 26.2774 54.6777 26.752V38.6619C54.6777 44.5591 49.8972 49.3396 44 49.3396Z" fill="#1276DF"/>
<path d="M53.818 25.8926H51.2399V35.2244C51.2399 41.1216 46.4593 45.9021 40.5621 45.9021C38.494 45.9021 36.5633 45.3141 34.9277 44.2963C36.8123 47.3242 40.1706 49.3396 43.9996 49.3396C49.8968 49.3396 54.6774 44.5591 54.6774 38.6619V26.752C54.6774 26.2772 54.2925 25.8926 53.818 25.8926Z" fill="#0593FC"/>
<path d="M44.0009 86.7108C52.8466 86.7108 60.0174 79.5399 60.0174 70.6943C60.0174 61.8486 52.8466 54.6777 44.0009 54.6777C35.1552 54.6777 27.9844 61.8486 27.9844 70.6943C27.9844 79.5399 35.1552 86.7108 44.0009 86.7108Z" fill="#1276DF"/>
<path d="M53.6722 57.9277C55.7117 60.6153 56.9221 63.9667 56.9221 67.6009C56.9221 76.4466 49.7513 83.6175 40.9054 83.6175C37.2712 83.6175 33.92 82.4072 31.2324 80.3677C34.1574 84.2219 38.7877 86.7111 43.9993 86.7111C52.845 86.7111 60.016 79.5403 60.016 70.6944C60.016 65.4828 57.5267 60.8525 53.6722 57.9277Z" fill="#1276DF"/>
<path d="M36.291 25.8032C37.2403 22.4396 40.3318 19.9746 43.9991 19.9746C47.6703 19.9746 50.7648 22.4451 51.7103 25.8144" stroke="#0A488A" stroke-width="3" stroke-miterlimit="10" stroke-linecap="round" stroke-linejoin="round"/>
<path d="M39.8861 20.983L39.3357 19.332C38.9033 18.0346 37.9731 16.9621 36.75 16.3506L33.7598 14.8555" stroke="#0A488A" stroke-width="3" stroke-miterlimit="10" stroke-linecap="round" stroke-linejoin="round"/>
<path d="M48.0918 21.0483L48.664 19.332C49.0964 18.0346 50.0266 16.9621 51.2497 16.3506L54.2399 14.8555" stroke="#0A488A" stroke-width="3" stroke-miterlimit="10" stroke-linecap="round" stroke-linejoin="round"/>
<path d="M44 25.8926V49.3394" stroke="#0A488A" stroke-width="3" stroke-miterlimit="10" stroke-linecap="round" stroke-linejoin="round"/>
<path d="M44 49.3396C38.1028 49.3396 33.3223 44.5591 33.3223 38.6619V26.752C33.3223 26.2774 33.7071 25.8926 34.1816 25.8926H53.8184C54.2929 25.8926 54.6777 26.2774 54.6777 26.752V38.6619C54.6777 44.5591 49.8972 49.3396 44 49.3396Z" stroke="#0A488A" stroke-width="3" stroke-miterlimit="10" stroke-linecap="round" stroke-linejoin="round"/>
<path d="M54.8496 31.2315H59.4854C59.811 31.2315 60.1085 31.0476 60.254 30.7565L62.6859 25.8926" stroke="#0A488A" stroke-width="3" stroke-miterlimit="10" stroke-linecap="round" stroke-linejoin="round"/>
<path d="M54.582 41.9082H59.4849C59.8105 41.9082 60.108 42.0921 60.2536 42.3833L62.3965 46.6691" stroke="#0A488A" stroke-width="3" stroke-miterlimit="10" stroke-linecap="round" stroke-linejoin="round"/>
<path d="M33.418 41.9082H28.5151C28.1895 41.9082 27.892 42.0921 27.7465 42.3833L25.6035 46.6691" stroke="#0A488A" stroke-width="3" stroke-miterlimit="10" stroke-linecap="round" stroke-linejoin="round"/>
<path d="M54.6777 36.5703H62.6861" stroke="#0A488A" stroke-width="3" stroke-miterlimit="10" stroke-linecap="round" stroke-linejoin="round"/>
<path d="M33.1508 31.2315H28.5149C28.1894 31.2315 27.8919 31.0476 27.7463 30.7565L25.3145 25.8926" stroke="#0A488A" stroke-width="3" stroke-miterlimit="10" stroke-linecap="round" stroke-linejoin="round"/>
<path d="M33.3228 36.5703H25.3145" stroke="#0A488A" stroke-width="3" stroke-miterlimit="10" stroke-linecap="round" stroke-linejoin="round"/>
<path d="M38.7032 55.5746C40.3614 54.9936 42.1443 54.6777 44.0009 54.6777C52.8466 54.6777 60.0176 61.8485 60.0176 70.6944C60.0176 79.5401 52.8468 86.7109 44.0009 86.7109C35.155 86.7109 27.9844 79.5401 27.9844 70.6944C27.9844 65.8762 30.1118 61.5551 33.4785 58.619" stroke="#0A488A" stroke-width="3" stroke-miterlimit="10" stroke-linecap="round" stroke-linejoin="round"/>
<path d="M33.6191 69.4473L36.0867 71.9209L38.5604 69.4533" stroke="white" stroke-width="3" stroke-miterlimit="10" stroke-linecap="round" stroke-linejoin="round"/>
<path d="M54.3826 71.9406L51.915 69.4668L49.4414 71.9344" stroke="white" stroke-width="3" stroke-miterlimit="10" stroke-linecap="round" stroke-linejoin="round"/>
<path d="M49.3847 64.7657C47.9626 63.4732 46.0735 62.6855 44.0005 62.6855C39.5777 62.6855 35.9922 66.271 35.9922 70.6939C35.9922 71.0645 36.0173 71.4292 36.0661 71.7865" stroke="white" stroke-width="3" stroke-miterlimit="10" stroke-linecap="round" stroke-linejoin="round"/>
<path d="M38.6152 76.623C40.0373 77.9155 41.9264 78.7032 43.9994 78.7032C48.4223 78.7032 52.0077 75.1177 52.0077 70.6949C52.0077 70.3334 51.9838 69.9776 51.9374 69.6289" stroke="white" stroke-width="3" stroke-miterlimit="10" stroke-linecap="round" stroke-linejoin="round"/>
<path d="M30.2598 4.43326L41.7077 1.57137C43.213 1.19496 44.7878 1.19496 46.2931 1.57137L72.7789 8.19285C74.6917 8.67101 76.0337 10.3898 76.0337 12.3615V37.4381C76.0337 49.6548 70.0368 61.0776 60.0172 68.0181" stroke="#0A488A" stroke-width="3" stroke-miterlimit="10" stroke-linecap="round" stroke-linejoin="round"/>
<path d="M28.116 68.1099C18.0166 61.1787 11.9668 49.709 11.9668 37.4385V12.3619C11.9668 10.3902 13.3086 8.67161 15.2216 8.19328L24.276 5.92969" stroke="#0A488A" stroke-width="3" stroke-miterlimit="10" stroke-linecap="round" stroke-linejoin="round"/>
<path d="M70.6952 33.9727V37.4387C70.6952 47.4815 66.0028 56.846 58.0527 62.852" stroke="#0A488A" stroke-width="3" stroke-miterlimit="10" stroke-linecap="round" stroke-linejoin="round"/>
<path d="M29.9888 62.882C22.0145 56.8772 17.3066 47.4984 17.3066 37.4389V13.5115C17.3066 13.3143 17.4409 13.1424 17.6322 13.0947L43.8967 6.52852C43.9651 6.51133 44.0368 6.51133 44.1052 6.52852L70.3698 13.0947C70.5611 13.1424 70.6953 13.3143 70.6953 13.5115V27.9574" stroke="#0A488A" stroke-width="3" stroke-miterlimit="10" stroke-linecap="round" stroke-linejoin="round"/>
</g>
<defs>
<clipPath id="clip0_766_2656">
<rect width="88" height="88" fill="white"/>
</clipPath>
</defs>
</svg>
