<svg width="89" height="89" viewBox="0 0 89 89" fill="none" xmlns="http://www.w3.org/2000/svg">
<g clip-path="url(#clip0_766_2624)">
<path d="M61.6989 56.6357H11.0681C8.84938 56.6357 7.05078 54.8371 7.05078 52.6184V40.8904C7.05078 38.6716 8.84938 36.873 11.0681 36.873H61.6989C63.9176 36.873 65.7162 38.6716 65.7162 40.8904V52.6184C65.7162 54.8371 63.9176 56.6357 61.6989 56.6357Z" fill="white"/>
<path d="M61.6987 36.873H53.8711C56.0898 36.873 57.8884 38.6716 57.8884 40.8904V52.6184C57.8884 54.8371 56.0898 56.6357 53.8711 56.6357H61.6987C63.9175 56.6357 65.7161 54.8371 65.7161 52.6184V40.8904C65.7161 38.6718 63.9175 36.873 61.6987 36.873Z" fill="white"/>
<path d="M16.2512 49.4711C17.7523 49.4711 18.9692 48.2542 18.9692 46.7531C18.9692 45.252 17.7523 44.0352 16.2512 44.0352C14.7501 44.0352 13.5332 45.252 13.5332 46.7531C13.5332 48.2542 14.7501 49.4711 16.2512 49.4711Z" fill="#1276DF"/>
<path d="M61.6989 36.8721H11.0681C8.84938 36.8721 7.05078 35.0735 7.05078 32.8547V21.1267C7.05078 18.908 8.84938 17.1094 11.0681 17.1094H61.6989C63.9176 17.1094 65.7162 18.908 65.7162 21.1267V32.8547C65.7162 35.0735 63.9176 36.8721 61.6989 36.8721Z" fill="white"/>
<path d="M61.6989 36.8721H11.0681C8.84938 36.8721 7.05078 35.0735 7.05078 32.8547V21.1267C7.05078 18.908 8.84938 17.1094 11.0681 17.1094H61.6989C63.9176 17.1094 65.7162 18.908 65.7162 21.1267V32.8547C65.7162 35.0735 63.9176 36.8721 61.6989 36.8721Z" fill="white"/>
<path d="M61.6989 36.8721H11.0681C8.84938 36.8721 7.05078 35.0735 7.05078 32.8547V21.1267C7.05078 18.908 8.84938 17.1094 11.0681 17.1094H61.6989C63.9176 17.1094 65.7162 18.908 65.7162 21.1267V32.8547C65.7162 35.0735 63.9176 36.8721 61.6989 36.8721Z" fill="white"/>
<path d="M16.2512 29.7094C17.7523 29.7094 18.9692 28.4925 18.9692 26.9914C18.9692 25.4903 17.7523 24.2734 16.2512 24.2734C14.7501 24.2734 13.5332 25.4903 13.5332 26.9914C13.5332 28.4925 14.7501 29.7094 16.2512 29.7094Z" fill="white"/>
<path d="M61.6989 76.3975H11.0681C8.84938 76.3975 7.05078 74.5989 7.05078 72.3801V60.6521C7.05078 58.4334 8.84938 56.6348 11.0681 56.6348H61.6989C63.9176 56.6348 65.7162 58.4334 65.7162 60.6521V72.3801C65.7162 74.5989 63.9176 76.3975 61.6989 76.3975Z" fill="white"/>
<path d="M61.6987 56.6348H53.8711C56.0898 56.6348 57.8884 58.4334 57.8884 60.6521V72.3803C57.8884 74.599 56.0898 76.3976 53.8711 76.3976H61.6987C63.9175 76.3976 65.7161 74.599 65.7161 72.3803V60.6521C65.7161 58.4334 63.9175 56.6348 61.6987 56.6348Z" fill="white"/>
<path d="M16.2512 69.2348C17.7523 69.2348 18.9692 68.0179 18.9692 66.5168C18.9692 65.0157 17.7523 63.7988 16.2512 63.7988C14.7501 63.7988 13.5332 65.0157 13.5332 66.5168C13.5332 68.0179 14.7501 69.2348 16.2512 69.2348Z" fill="white"/>
<path d="M38.8517 82.7597V76.3984H33.9138V82.7597H28.6722C27.3087 82.7597 26.2031 83.8651 26.2031 85.2287C26.2031 86.5922 27.3085 87.6978 28.6722 87.6978H44.0935C45.457 87.6978 46.5626 86.5924 46.5626 85.2287C46.5626 83.8652 45.4572 82.7597 44.0935 82.7597H38.8517Z" fill="#60B7FF"/>
<path d="M46.5624 85.229C46.5624 86.5913 45.4572 87.6965 44.0932 87.6965H39.1738C40.5379 87.6965 41.6431 86.5913 41.6431 85.229C41.6431 84.5478 41.3668 83.9293 40.9201 83.4827C40.4735 83.0362 39.8549 82.7598 39.1738 82.7598H44.0932C44.7761 82.7598 45.3929 83.036 45.8394 83.4827C46.2862 83.9291 46.5624 84.5478 46.5624 85.229Z" fill="#26A6FE"/>
<path d="M62.0761 41.0467C73.0505 41.0467 81.9471 32.1501 81.9471 21.1757C81.9471 10.2012 73.0505 1.30469 62.0761 1.30469C51.1016 1.30469 42.2051 10.2012 42.2051 21.1757C42.2051 32.1501 51.1016 41.0467 62.0761 41.0467Z" fill="#1276DF"/>
<path d="M62.0757 1.30469C60.687 1.30469 59.3317 1.44775 58.0234 1.71875C67.0543 3.59001 73.842 11.5899 73.842 21.1757C73.842 30.7614 67.0543 38.7612 58.0234 40.6326C59.3318 40.9038 60.687 41.0467 62.0757 41.0467C73.0502 41.0467 81.9467 32.1501 81.9467 21.1757C81.9467 10.2012 73.0502 1.30469 62.0757 1.30469Z" fill="#1276DF"/>
<path d="M65.7112 40.7134C65.7146 40.7725 65.7164 40.8316 65.7164 40.8907V52.6182C65.7164 54.8373 63.918 56.6357 61.6989 56.6357H11.0683C8.84921 56.6357 7.05078 54.8373 7.05078 52.6182V40.8906C7.05078 38.6715 8.84921 36.873 11.0683 36.873H49.8912" stroke="#0A488A" stroke-width="3" stroke-miterlimit="10" stroke-linecap="round" stroke-linejoin="round"/>
<path d="M16.2531 49.4711C17.7542 49.4711 18.9711 48.2542 18.9711 46.7531C18.9711 45.252 17.7542 44.0352 16.2531 44.0352C14.752 44.0352 13.5352 45.252 13.5352 46.7531C13.5352 48.2542 14.752 49.4711 16.2531 49.4711Z" stroke="#0A488A" stroke-width="3" stroke-miterlimit="10" stroke-linecap="round" stroke-linejoin="round"/>
<path d="M24.2051 46.7539H46.5632" stroke="#0A488A" stroke-width="3" stroke-miterlimit="10" stroke-linecap="round" stroke-linejoin="round"/>
<path d="M42.6209 17.1113H11.0683C8.84921 17.1113 7.05078 18.9098 7.05078 21.1271V32.8563C7.05078 35.0754 8.84921 36.8738 11.0683 36.8738H49.8912" stroke="#0A488A" stroke-width="3" stroke-miterlimit="10" stroke-linecap="round" stroke-linejoin="round"/>
<path d="M16.2531 29.7094C17.7542 29.7094 18.9711 28.4925 18.9711 26.9914C18.9711 25.4903 17.7542 24.2734 16.2531 24.2734C14.752 24.2734 13.5352 25.4903 13.5352 26.9914C13.5352 28.4925 14.752 29.7094 16.2531 29.7094Z" stroke="#0A488A" stroke-width="3" stroke-miterlimit="10" stroke-linecap="round" stroke-linejoin="round"/>
<path d="M24.2051 26.9922H34.4416" stroke="#0A488A" stroke-width="3" stroke-miterlimit="10" stroke-linecap="round" stroke-linejoin="round"/>
<path d="M61.6989 76.3975H11.0681C8.84938 76.3975 7.05078 74.5989 7.05078 72.3801V60.6521C7.05078 58.4334 8.84938 56.6348 11.0681 56.6348H61.6989C63.9176 56.6348 65.7162 58.4334 65.7162 60.6521V72.3801C65.7162 74.5989 63.9176 76.3975 61.6989 76.3975Z" stroke="#0A488A" stroke-width="3" stroke-miterlimit="10" stroke-linecap="round" stroke-linejoin="round"/>
<path d="M16.2531 69.2348C17.7542 69.2348 18.9711 68.0179 18.9711 66.5168C18.9711 65.0157 17.7542 63.7988 16.2531 63.7988C14.752 63.7988 13.5352 65.0157 13.5352 66.5168C13.5352 68.0179 14.752 69.2348 16.2531 69.2348Z" stroke="#0A488A" stroke-width="3" stroke-miterlimit="10" stroke-linecap="round" stroke-linejoin="round"/>
<path d="M24.2051 66.5176H46.5632" stroke="#0A488A" stroke-width="3" stroke-miterlimit="10" stroke-linecap="round" stroke-linejoin="round"/>
<path d="M38.8537 82.7597V76.3984H33.9157V82.7597H28.6741C27.3106 82.7597 26.2051 83.8651 26.2051 85.2287C26.2051 86.5922 27.3105 87.6978 28.6741 87.6978H44.0955C45.459 87.6978 46.5645 86.5924 46.5645 85.2287C46.5645 83.8652 45.4592 82.7597 44.0955 82.7597H38.8537Z" stroke="#0A488A" stroke-width="3" stroke-miterlimit="10" stroke-linecap="round" stroke-linejoin="round"/>
<path d="M62.0761 41.0467C73.0505 41.0467 81.9471 32.1501 81.9471 21.1757C81.9471 10.2012 73.0505 1.30469 62.0761 1.30469C51.1016 1.30469 42.2051 10.2012 42.2051 21.1757C42.2051 32.1501 51.1016 41.0467 62.0761 41.0467Z" stroke="#0A488A" stroke-width="3" stroke-miterlimit="10" stroke-linecap="round" stroke-linejoin="round"/>
<path d="M51.7773 19.4393C52.6046 14.4981 56.9013 10.7324 62.0774 10.7324C67.8453 10.7324 72.5211 15.4082 72.5211 21.1762C72.5211 26.9442 67.8453 31.62 62.0774 31.62C57.5747 31.62 53.7374 28.7706 52.2707 24.7765" stroke="white" stroke-width="3" stroke-miterlimit="10" stroke-linecap="round" stroke-linejoin="round"/>
<path d="M51.0039 30.1888L52.2729 24.7598L57.7017 26.0285" stroke="white" stroke-width="3" stroke-miterlimit="10" stroke-linecap="round" stroke-linejoin="round"/>
</g>
<defs>
<clipPath id="clip0_766_2624">
<rect width="89" height="89" fill="white"/>
</clipPath>
</defs>
</svg>
