<svg width="88" height="88" viewBox="0 0 88 88" fill="none" xmlns="http://www.w3.org/2000/svg">
<g clip-path="url(#clip0_766_639)">
<path d="M32.0273 70.9199H59.1326V84.1563H32.0273V70.9199Z" fill="white"/>
<path d="M74.1662 8.59961H13.7897C6.89526 8.59961 1.30664 14.1882 1.30664 21.082V62.3448C1.30664 69.2393 6.89526 74.8279 13.7897 74.8279H74.1662C81.06 74.8279 86.6486 69.2393 86.6486 62.3448V21.082C86.6486 14.1882 81.06 8.59961 74.1662 8.59961Z" fill="#248EFF"/>
<path d="M61.4684 86.6949H29.691C27.2391 86.6949 26.4072 83.4226 28.5617 82.2517L32.0268 80.3691H59.132L62.597 82.2517C64.7522 83.4226 63.9203 86.6949 61.4684 86.6949Z" fill="white"/>
<path d="M6.5293 55.1964V20.5643C6.5293 16.8414 9.54718 13.8242 13.27 13.8242H74.6811C78.4039 13.8242 81.4218 16.8421 81.4218 20.5649V55.1964C81.4218 58.9193 78.4039 61.9371 74.6811 61.9371H13.27C9.54718 61.9371 6.5293 58.9193 6.5293 55.1964Z" fill="white"/>
<path d="M64.202 20.8047C63.5608 -5.19272 24.3941 -5.19272 23.7529 20.8047C23.7462 21.0954 23.7422 21.3861 23.7422 21.6782C23.7422 35.6954 32.0331 47.7737 43.9771 53.2831C55.9218 47.7737 64.2127 35.6954 64.2127 21.6782C64.2127 21.3861 64.2087 21.0954 64.202 20.8047Z" fill="#248EFF"/>
<path d="M58.597 21.3682C58.597 29.4423 52.0516 35.9876 43.9769 35.9876C35.9028 35.9876 29.3574 29.4423 29.3574 21.3682C29.3574 13.2941 35.9028 6.74805 43.9769 6.74805C52.0516 6.74805 58.597 13.2941 58.597 21.3682Z" fill="white"/>
<path d="M74.1661 7.2926H60.6484C60.0099 6.54669 59.3123 5.84442 58.5536 5.19116C54.6683 1.84363 49.4919 0 43.9778 0C43.9772 0 43.9778 0 43.9772 0C38.4637 0 33.286 1.84363 29.4007 5.19116C28.6427 5.84442 27.9451 6.54669 27.3066 7.2926H13.7889C6.18549 7.2926 0 13.4788 0 21.0815V62.3456C0 69.9491 6.18549 76.1346 13.7889 76.1346H30.7193V79.5916L27.9371 81.1028C26.4365 81.9186 25.7114 83.5782 26.1317 85.2332C26.5527 86.8882 27.9821 88 29.6901 88H61.4668C63.1748 88 64.6049 86.8882 65.0251 85.2332C65.4461 83.5782 64.7203 81.9186 63.2198 81.1028L60.4376 79.5916V76.1346H74.1661C81.7689 76.1346 87.955 69.9484 87.955 62.3456V21.0815C87.955 13.4788 81.7689 7.2926 74.1661 7.2926ZM62.4933 84.5894C62.4457 84.7767 62.2308 85.3876 61.4668 85.3876H29.6901C28.926 85.3876 28.7119 84.7767 28.6635 84.5894C28.6165 84.402 28.5131 83.7629 29.1845 83.3983L32.3575 81.6742H58.7994L61.9724 83.3983C62.6437 83.7629 62.541 84.4027 62.4933 84.5894ZM57.8252 78.9403H33.3317V76.1346H57.8252V78.9403ZM85.342 62.3456C85.342 68.5083 80.3287 73.5215 74.1661 73.5215H13.7889C7.62628 73.5215 2.61237 68.5083 2.61237 62.3456V21.0815C2.61237 14.9189 7.62628 9.90497 13.7889 9.90497H25.4261C24.9279 10.7368 24.4888 11.6076 24.1129 12.518H13.2713C8.83478 12.518 5.22473 16.1274 5.22473 20.5646V55.1974C5.22473 59.6346 8.83478 63.244 13.2713 63.244H74.6817C79.1189 63.244 82.7296 59.6339 82.7296 55.196V33.8446C82.7296 33.1235 82.1448 32.5381 81.4231 32.5381C80.702 32.5381 80.1172 33.1235 80.1172 33.8446V55.196C80.1172 58.1931 77.6788 60.6316 74.6817 60.6316H13.2713C10.2749 60.6316 7.83777 58.1945 7.83777 55.1981V20.5646C7.83777 17.5682 10.2749 15.1304 13.2713 15.1304H23.2327C22.7607 16.9022 22.4962 18.7888 22.4471 20.7734C22.4398 21.0728 22.4344 21.3763 22.4344 21.6777C22.4344 26.9454 23.5442 32.0225 25.7336 36.7678C26.035 37.4224 26.8112 37.7084 27.4664 37.4063C28.1217 37.1042 28.4077 36.3287 28.1056 35.6735C26.076 31.2739 25.0468 26.5648 25.0468 21.6771C25.0468 21.3971 25.0521 21.1151 25.0588 20.8372C25.1978 15.1848 27.2892 10.4589 31.106 7.17041C34.518 4.23108 39.0888 2.61237 43.9778 2.61237C48.8662 2.61237 53.437 4.23108 56.849 7.17041C60.6652 10.4589 62.7565 15.1848 62.8955 20.8365C62.9029 21.1151 62.9056 21.3971 62.9056 21.6771C62.9056 28.1996 61.0297 34.52 57.4801 39.9556C54.1312 45.085 49.4711 49.1824 43.9778 51.8371C38.5168 49.1979 33.8795 45.134 30.538 40.0522C30.1419 39.4493 29.3315 39.2815 28.7293 39.6783C28.1264 40.0744 27.9592 40.8841 28.3553 41.487C32.0755 47.1461 37.2888 51.635 43.4307 54.4676C43.6039 54.5482 43.7905 54.5878 43.9778 54.5878C44.1645 54.5878 44.3511 54.5482 44.525 54.4683C50.7031 51.6189 55.9393 47.0944 59.6682 41.3843C63.4957 35.5224 65.5186 28.7085 65.5186 21.6777C65.5186 21.3763 65.5153 21.0728 65.5079 20.7727C65.4589 18.7881 65.1943 16.9015 64.7224 15.1304H74.6817C77.6788 15.1304 80.1172 17.5682 80.1172 20.5646V28.6199C80.1172 29.3409 80.702 29.9257 81.4238 29.9257C82.1455 29.9257 82.7303 29.3409 82.7303 28.6199V20.5646C82.7303 16.1274 79.1196 12.518 74.6817 12.518H63.8422C63.4662 11.6083 63.0278 10.7368 62.5289 9.90564H74.1661C80.3287 9.90564 85.3427 14.9189 85.3427 21.0815V62.3456H85.342Z" fill="#0A488A"/>
<path d="M43.9761 37.2933C52.7578 37.2933 59.902 30.1491 59.902 21.3674C59.902 12.5856 52.7578 5.44141 43.9761 5.44141C35.195 5.44141 28.0508 12.5856 28.0508 21.3674C28.0508 30.1491 35.195 37.2933 43.9761 37.2933ZM43.9761 8.05377C51.3177 8.05377 57.2897 14.0258 57.2897 21.3674C57.2897 28.7083 51.3177 34.681 43.9761 34.681C36.6351 34.681 30.6631 28.7083 30.6631 21.3674C30.6631 14.0258 36.6351 8.05377 43.9761 8.05377Z" fill="#0A488A"/>
<path d="M38.8848 28.4577C39.1567 28.6007 39.4669 28.6732 39.8066 28.6732C40.1323 28.6732 40.4391 28.6007 40.7177 28.4577C41.0104 28.3073 41.1588 28.0851 41.1588 27.7957V14.9199C41.1588 14.6164 41.0098 14.3935 40.715 14.2565C40.4364 14.1276 40.1309 14.0625 39.806 14.0625C39.4683 14.0625 39.1588 14.1276 38.8868 14.2565C38.5995 14.3935 38.4531 14.6164 38.4531 14.9199V27.7957C38.4531 28.0851 38.5981 28.308 38.8848 28.4577Z" fill="#0A488A"/>
<path d="M43.836 28.4564C44.1079 28.5994 44.4181 28.6719 44.7571 28.6719C45.0834 28.6719 45.3903 28.5994 45.6689 28.4564C45.9616 28.306 46.11 28.0838 46.11 27.7944V23.2639H48.2638C48.9144 23.2639 49.5334 23.18 50.1041 23.0135C50.6774 22.847 51.1857 22.5798 51.614 22.2186C52.0424 21.8567 52.3821 21.382 52.6224 20.8073C52.8621 20.2339 52.9836 19.5256 52.9836 18.7018V18.583C52.9836 17.774 52.8655 17.0724 52.6325 16.4984C52.3982 15.9236 52.0692 15.449 51.6543 15.0871C51.2394 14.7259 50.7513 14.4614 50.2034 14.3009C49.6583 14.1418 49.0587 14.0605 48.4216 14.0605H44.4402C44.1207 14.0605 43.8662 14.1465 43.6829 14.3157C43.4976 14.4862 43.4043 14.689 43.4043 14.9186V27.7944C43.405 28.0838 43.55 28.3067 43.836 28.4564ZM46.1107 21.1128V16.45H48.2638C48.8895 16.45 49.387 16.6299 49.7429 16.9851C50.098 17.3409 50.278 17.9049 50.278 18.6622V18.8999C50.278 19.6579 50.098 20.2219 49.7429 20.5777C49.3877 20.9329 48.8902 21.1128 48.2638 21.1128H46.1107Z" fill="#0A488A"/>
</g>
<defs>
<clipPath id="clip0_766_639">
<rect width="88" height="88" fill="white"/>
</clipPath>
</defs>
</svg>
