<svg width="88" height="88" viewBox="0 0 88 88" fill="none" xmlns="http://www.w3.org/2000/svg">
<path d="M76.0547 12.8391V78.1172C76.0547 82.8633 72.2071 86.7109 67.4609 86.7109H20.5391C15.7929 86.7109 11.9453 82.8633 11.9453 78.1172V12.5469L76.0547 12.8391Z" fill="white"/>
<path d="M16.9502 2.07227V2.07393C16.9436 2.07559 16.9386 2.07891 16.9336 2.08057C16.9386 2.07725 16.9452 2.07393 16.9502 2.07227Z" fill="#9CD169"/>
<path d="M69.1797 56.2891C69.1797 58.1876 67.6407 59.7266 65.7422 59.7266H22.2578C20.3593 59.7266 18.8203 58.1876 18.8203 56.2891V31.0234C18.8203 29.1249 20.3593 27.5859 22.2578 27.5859H65.7422C67.6407 27.5859 69.1797 29.1249 69.1797 31.0234V56.2891Z" fill="#1276DF"/>
<path d="M58.4927 35.625H54.6738C54.3316 35.625 54.0033 35.7611 53.7613 36.0035C53.5197 36.2456 53.3841 36.5741 53.3848 36.9165V36.9278V36.9283V50.179C53.3848 50.2736 53.3956 50.3653 53.4148 50.454C53.4289 50.778 53.5633 51.0858 53.7949 51.3148C54.0362 51.5535 54.362 51.6872 54.7012 51.6872H54.711L58.627 51.6573C62.4512 51.5903 65.2268 48.2255 65.2268 43.6562C65.227 38.8525 62.5208 35.625 58.4927 35.625ZM58.5948 49.0792L55.9859 49.0991C55.9808 47.5155 55.9727 44.8915 55.9727 43.6412C55.9727 42.5921 55.9682 39.845 55.9653 38.2031H58.4927C61.5569 38.2031 62.6488 41.02 62.6488 43.656C62.6488 46.2338 61.3763 49.0306 58.5948 49.0792Z" fill="white"/>
<path d="M30.4907 42.5569C28.818 41.9397 27.2808 41.2799 26.6986 41.0253C26.6402 40.9997 26.6202 40.9867 26.6201 40.9867C26.1883 40.6618 25.9893 40.1388 26.0874 39.5878C26.2071 38.9156 26.7213 38.3956 27.4982 38.1617C29.6985 37.4988 31.6909 39.0924 31.7351 39.1283C32.2797 39.5819 33.0896 39.5104 33.5465 38.9671C34.0045 38.4221 33.9342 37.609 33.3892 37.1509C33.2656 37.0471 30.3217 34.6199 26.7545 35.6932C25.0393 36.2101 23.841 37.4969 23.5492 39.1359C23.2811 40.6407 23.8637 42.1394 25.0696 43.0467C25.2421 43.1767 25.431 43.2848 25.6646 43.3871C26.2688 43.6512 27.8613 44.3348 29.5985 44.9757C31.1096 45.5329 31.8779 46.4043 31.7062 47.366C31.5352 48.3238 30.4156 49.3149 28.8381 49.3149C27.3327 49.3149 25.8796 48.7032 24.9513 47.6786C24.4732 47.1508 23.658 47.1112 23.1305 47.5891C22.603 48.067 22.5628 48.8822 23.0409 49.4099C24.45 50.9649 26.6173 51.893 28.8381 51.893C31.5054 51.893 33.8295 50.1416 34.2441 47.819C34.5581 46.0601 33.7371 43.754 30.4907 42.5569Z" fill="white"/>
<path d="M45.8288 42.5571C44.1533 41.9389 42.6181 41.2797 42.0367 41.0255C41.9782 41.0001 41.9581 40.9868 41.958 40.9868C41.5262 40.662 41.3272 40.139 41.4253 39.5879C41.5449 38.9157 42.0592 38.3958 42.8361 38.1619C45.0373 37.4992 47.0298 39.0933 47.0731 39.1285C47.6178 39.5821 48.4278 39.5106 48.8845 38.9673C49.3426 38.4223 49.2721 37.6092 48.7273 37.1511C48.6035 37.0473 45.6603 34.6196 42.0924 35.6934C40.3772 36.2103 39.1789 37.4971 38.8871 39.1361C38.6189 40.6409 39.2016 42.1396 40.4075 43.0469C40.5799 43.1767 40.7688 43.2848 41.0025 43.3871C41.6058 43.6509 43.1967 44.3339 44.9364 44.9759C46.4475 45.5331 47.2158 46.4045 47.0441 47.3662C46.8731 48.324 45.7535 49.315 44.176 49.315C42.6706 49.315 41.2175 48.7033 40.2892 47.6788C39.8111 47.151 38.9959 47.1114 38.4684 47.5892C37.9409 48.0672 37.9007 48.8824 38.3788 49.4101C39.7879 50.965 41.9552 51.8932 44.176 51.8932C46.8433 51.8932 49.1674 50.1418 49.582 47.8192C49.8962 46.0602 49.075 43.7542 45.8288 42.5571Z" fill="white"/>
<path d="M26.1986 74.3352V86.7105H20.9599L20.9083 79.3457C20.8903 76.4958 23.2006 74.1831 26.0269 74.1621C26.1216 74.1614 26.1986 74.2403 26.1986 74.3352Z" fill="#1276DF"/>
<path d="M37.9847 74.3359V86.7109H28.7773V74.3359C28.7773 74.2411 28.9533 74.1641 29.1703 74.1641H37.5916C37.8087 74.1641 37.9847 74.2411 37.9847 74.3359Z" fill="#1276DF"/>
<path d="M39.4098 74.3359V86.7109H35.3828V74.3359C35.3828 74.2411 35.4598 74.1641 35.5547 74.1641H39.238C39.3328 74.1641 39.4098 74.2411 39.4098 74.3359Z" fill="#1276DF"/>
<path d="M46.0116 74.3359V86.7109H41.9863V74.3359C41.9863 74.2411 42.0633 74.1641 42.1582 74.1641H45.8398C45.9346 74.1641 46.0116 74.2411 46.0116 74.3359Z" fill="#1276DF"/>
<path d="M52.6169 74.3359V86.7109H48.5898V74.3359C48.5898 74.2411 48.6668 74.1641 48.7617 74.1641H52.445C52.5399 74.1641 52.6169 74.2411 52.6169 74.3359Z" fill="#1276DF"/>
<path d="M59.2223 74.3359V86.7109H55.1953V74.3359C55.1953 74.2411 55.2723 74.1641 55.3672 74.1641H59.0505C59.1453 74.1641 59.2223 74.2411 59.2223 74.3359Z" fill="#1276DF"/>
<path d="M67.0911 79.3457L67.0395 86.7105H61.8008V74.3352C61.8008 74.2405 61.8778 74.1614 61.9725 74.1621C64.7988 74.1831 67.1091 76.4958 67.0911 79.3457Z" fill="#1276DF"/>
<path d="M76.0547 9.88281V13.1484H11.9453V9.88281C11.9453 5.13734 15.7936 1.28906 20.5391 1.28906H67.4609C72.2064 1.28906 76.0547 5.13734 76.0547 9.88281Z" fill="#E6F7FE"/>
<path d="M16.9504 2.07422C15.9639 3.57469 15.3829 5.40516 15.3829 7.38344V13.1481H11.9454V9.8825C11.9332 7.55755 12.9227 5.25511 14.6129 3.66063C15.2978 3.00853 16.091 2.46627 16.9504 2.07422Z" fill="#D3EFFD"/>
<path d="M67.4609 0H30.5938C29.8817 0 29.3047 0.576984 29.3047 1.28906C29.3047 2.00114 29.8817 2.57812 30.5938 2.57812H67.4609C71.4888 2.57812 74.7656 5.85492 74.7656 9.88281V11.8594H53.2812C52.5692 11.8594 51.9922 12.4364 51.9922 13.1484C51.9922 13.8605 52.5692 14.4375 53.2812 14.4375H74.7656V78.1172C74.7656 81.8481 71.9536 84.9324 68.338 85.3674L68.381 79.3518C68.4702 75.8759 65.412 72.8026 61.9357 72.875H26.0642C22.5859 72.8033 19.5295 75.8758 19.6188 79.3547L19.6618 85.3672C16.0464 84.9324 13.2344 81.8481 13.2344 78.1172V14.4375H47.2656C47.9777 14.4375 48.5547 13.8605 48.5547 13.1484C48.5547 12.4364 47.9777 11.8594 47.2656 11.8594H13.2344V9.88281C13.2344 5.85492 16.5112 2.57812 20.5391 2.57812H24.5781C25.2902 2.57812 25.8672 2.00114 25.8672 1.28906C25.8672 0.576984 25.2902 0 24.5781 0H20.5391C15.0896 0 10.6562 4.43334 10.6562 9.88281V78.1172C10.6562 83.5667 15.0896 88 20.5391 88H67.4609C72.9104 88 77.3438 83.5667 77.3438 78.1172V9.88281C77.3438 4.43334 72.9104 0 67.4609 0ZM64.6771 76.5925C65.4082 77.3271 65.808 78.3026 65.803 79.3363L65.7594 85.4219H61.8013V75.4531C62.8815 75.422 63.9155 75.8235 64.6771 76.5925ZM34.0926 82.0703C33.3805 82.0703 32.8035 82.6473 32.8035 83.3594V85.4219H28.7767V75.4531H32.8035V77.3438C32.8035 78.0558 33.3805 78.6328 34.0926 78.6328C34.8047 78.6328 35.3817 78.0558 35.3817 77.3438V75.4531H39.4085V85.4219H35.3817V83.3594C35.3817 82.6473 34.8047 82.0703 34.0926 82.0703ZM41.9867 75.4531H46.0133V85.4219H41.9867V75.4531ZM48.5915 75.4531H52.6183V85.4219H48.5915V75.4531ZM55.1965 75.4531H59.2233V85.4219H55.1965V75.4531ZM23.3229 76.5925C24.0845 75.8235 25.1185 75.422 26.1986 75.4531V85.4219H22.2406L22.1971 79.3392C22.192 78.3026 22.5918 77.3271 23.3229 76.5925Z" fill="#0A488A"/>
<path d="M69.1797 48.7266C69.8918 48.7266 70.4688 48.1496 70.4688 47.4375V31.0234C70.4688 28.4173 68.3483 26.2969 65.7422 26.2969H22.2578C19.6517 26.2969 17.5312 28.4173 17.5312 31.0234V56.2891C17.5312 58.8952 19.6517 61.0156 22.2578 61.0156H65.7422C68.3483 61.0156 70.4688 58.8952 70.4688 56.2891V53.4531C70.4688 52.741 69.8918 52.1641 69.1797 52.1641C68.4676 52.1641 67.8906 52.741 67.8906 53.4531V56.2891C67.8906 57.4738 66.9269 58.4375 65.7422 58.4375H22.2578C21.0731 58.4375 20.1094 57.4738 20.1094 56.2891V31.0234C20.1094 29.8387 21.0731 28.875 22.2578 28.875H65.7422C66.9269 28.875 67.8906 29.8387 67.8906 31.0234V47.4375C67.8906 48.1496 68.4676 48.7266 69.1797 48.7266Z" fill="#0A488A"/>
<path d="M53.3844 50.1793C53.3495 50.9457 53.8947 51.7122 54.7106 51.6873L58.6266 51.6574C62.4508 51.5904 65.2264 48.2256 65.2264 43.6563C65.2264 38.8527 62.5202 35.6252 58.4922 35.6252H54.6733C53.9756 35.6113 53.3629 36.2307 53.3842 36.9284V50.1793H53.3844ZM58.4922 38.2035C61.5564 38.2035 62.6483 41.0204 62.6483 43.6564C62.6483 46.2342 61.3757 49.031 58.5943 49.0796L55.9854 49.0995C55.9704 45.1543 55.9727 42.2758 55.9648 38.2035H58.4922Z" fill="white"/>
<path d="M28.8381 49.3149C27.3327 49.3149 25.8796 48.7032 24.9513 47.6786C24.4732 47.1508 23.658 47.1112 23.1305 47.5891C22.603 48.067 22.5628 48.8822 23.0409 49.4099C24.45 50.9649 26.6173 51.893 28.8381 51.893C31.5054 51.893 33.8295 50.1416 34.2441 47.819C34.5581 46.0602 33.7371 43.7542 30.4907 42.5569C28.7451 41.9072 27.2883 41.2905 26.6199 40.9867C26.1881 40.6618 25.9891 40.1388 26.0873 39.5878C26.2069 38.9156 26.7211 38.3956 27.498 38.1617C29.6983 37.4988 31.6907 39.0924 31.7349 39.1283C32.2796 39.5819 33.0894 39.5104 33.5463 38.9671C34.0043 38.4221 33.934 37.609 33.389 37.1509C33.2654 37.0471 30.3216 34.6199 26.7543 35.6932C25.0392 36.2101 23.8408 37.4969 23.549 39.1359C23.2809 40.6407 23.8635 42.1394 25.0694 43.0467C26.2179 43.736 27.3825 44.099 29.5983 44.9759C31.1094 45.5331 31.8777 46.4045 31.706 47.3661C31.5352 48.3238 30.4156 49.3149 28.8381 49.3149Z" fill="white"/>
<path d="M44.176 49.315C42.6706 49.315 41.2175 48.7033 40.2892 47.6788C39.8111 47.151 38.9959 47.1114 38.4684 47.5892C37.9409 48.0672 37.9007 48.8824 38.3788 49.4101C39.7879 50.965 41.9552 51.8932 44.176 51.8932C46.8433 51.8932 49.1674 50.1418 49.582 47.8192C49.896 46.0604 49.075 43.7544 45.8286 42.5571C44.0801 41.9064 42.6257 41.2904 41.9578 40.9868C41.526 40.662 41.327 40.139 41.4251 39.5879C41.5448 38.9157 42.059 38.3958 42.8359 38.1619C45.0371 37.4992 47.0296 39.0933 47.073 39.1285C47.6176 39.5821 48.4277 39.5106 48.8843 38.9673C49.3424 38.4223 49.2719 37.6092 48.7271 37.1511C48.6033 37.0473 45.6601 34.6196 42.0922 35.6934C40.3771 36.2103 39.1787 37.4971 38.8869 39.1361C38.6188 40.6409 39.2014 42.1396 40.4073 43.0469C41.5559 43.7358 42.7173 44.0979 44.9362 44.9761C46.4473 45.5333 47.2156 46.4047 47.0439 47.3663C46.8731 48.324 45.7535 49.315 44.176 49.315Z" fill="white"/>
</svg>
