<svg width="88" height="88" viewBox="0 0 88 88" fill="none" xmlns="http://www.w3.org/2000/svg">
<path d="M86.7108 84.0897H1.28906V31.6985L43.9999 9.15234L86.7108 31.6985V84.0897Z" fill="white"/>
<path d="M68.0769 12.981C68.7116 13.2232 69.1311 13.8332 69.1311 14.5141V35.8134C69.1311 41.2874 67.0202 46.5528 63.2212 50.4813C59.3259 54.5106 53.2279 59.1082 44.1428 61.982C44.0503 62.0112 43.9498 62.0112 43.8575 61.982C34.7724 59.1082 28.6756 54.5107 24.7791 50.4813C20.9813 46.5528 18.8691 41.2874 18.8691 35.8134V14.514C18.8691 13.8332 19.2887 13.2232 19.9234 12.9808L43.418 4.01741C43.793 3.87441 44.2072 3.87441 44.5823 4.01741L68.0769 12.981Z" fill="white"/>
<path d="M68.0765 12.9816L63.9677 11.4141C63.9718 11.4692 63.9745 11.5247 63.9745 11.581V36.2683C63.9745 42.6131 61.8636 48.716 58.0646 53.2695C56.8134 54.7696 55.3334 56.3376 53.6016 57.8857C57.7224 55.5458 60.8727 52.911 63.2209 50.482C67.0198 46.5535 69.1308 41.2881 69.1308 35.8141V14.5145C69.1308 13.8337 68.7112 13.2237 68.0765 12.9816Z" fill="white"/>
<path d="M63.9748 17.1263V35.6073C63.9748 39.8563 62.3605 43.865 59.4292 46.8965C55.3274 51.1391 50.1404 54.3361 44 56.4077V9.50586L63.9748 17.1263Z" fill="#248EFF"/>
<path d="M44.0001 9.50586V56.4075C37.861 54.3361 32.674 51.1389 28.571 46.8963C25.6395 43.8638 24.0254 39.8551 24.0254 35.6071V17.1263L44.0001 9.50586Z" fill="#248EFF"/>
<path d="M86.7108 32.5273V84.0897H1.28906V32.5273L43.9999 57.7259L86.7108 32.5273Z" fill="#248EFF"/>
<path d="M41.5003 41.9336C40.8408 41.9336 40.1817 41.6811 39.6786 41.1756L31.3484 32.8092C30.3422 31.7988 30.3422 30.1605 31.3484 29.15C32.3543 28.1396 33.9858 28.1396 34.9918 29.15L41.5001 35.6868L53.008 24.1291C54.0142 23.1184 55.6454 23.1184 56.6514 24.1291C57.6576 25.1395 57.6576 26.7778 56.6514 27.7883L43.3218 41.1756C42.8191 41.6807 42.1596 41.9336 41.5003 41.9336Z" fill="white"/>
<path d="M87.3125 30.5455L70.4205 21.6195V14.4831C70.4205 13.2741 69.6629 12.1729 68.5355 11.7427L45.0413 2.77002C44.37 2.5141 43.6304 2.5141 42.9578 2.77037L19.4646 11.7427C18.337 12.1731 17.5793 13.2743 17.5793 14.4833V21.6197L0.687327 30.5455C0.264515 30.7689 0 31.2082 0 31.6867V32.516V34.208V41.0041C0 41.7167 0.577155 42.2945 1.28906 42.2945C2.00096 42.2945 2.57812 41.7168 2.57812 41.0041V34.7757L19.4292 44.7276C19.6556 45.1643 20.1007 45.4254 20.5706 45.4254C20.583 45.4254 20.5954 45.4238 20.6076 45.4235L41.5053 57.7654L2.57812 81.8185V46.624C2.57812 45.9114 2.00096 45.3336 1.28906 45.3336C0.577155 45.3336 0 45.9114 0 46.624V84.1312C0 84.1413 0.00120312 84.1511 0.00154687 84.1611C0.0020625 84.1867 0.00326562 84.2123 0.00549999 84.2379C0.00704686 84.2558 0.00893748 84.2737 0.011 84.2914C0.0139218 84.3151 0.0175312 84.3386 0.0218281 84.3624C0.0252656 84.3818 0.0292187 84.401 0.0336874 84.4203C0.0384999 84.4413 0.043828 84.4621 0.0498437 84.4828C0.0558593 84.5042 0.0623905 84.5253 0.0696092 84.5463C0.0757967 84.5643 0.082328 84.582 0.089203 84.5999C0.0981404 84.6229 0.107765 84.6456 0.118078 84.668C0.125297 84.6836 0.132687 84.6991 0.140422 84.7144C0.152453 84.7379 0.165172 84.7609 0.178406 84.7836C0.183218 84.7921 0.187172 84.8006 0.192328 84.8089C0.195422 84.8139 0.199203 84.818 0.202296 84.823C0.227734 84.863 0.255062 84.9019 0.284624 84.9388C0.287718 84.9426 0.290468 84.9469 0.293562 84.9507C0.324499 84.9882 0.357843 85.0236 0.392734 85.0573C0.405624 85.0698 0.418859 85.0813 0.432265 85.0932C0.456671 85.115 0.481593 85.1356 0.507546 85.1556C0.52164 85.1664 0.535562 85.1772 0.549999 85.1874C0.585749 85.2125 0.62253 85.2358 0.660686 85.2573C0.664639 85.2596 0.668421 85.2623 0.672374 85.2644C0.715858 85.2883 0.761233 85.3089 0.807467 85.3276C0.818123 85.3319 0.828952 85.3354 0.83978 85.3395C0.876045 85.3529 0.912826 85.3649 0.950467 85.3752C0.963701 85.3788 0.976936 85.3823 0.990514 85.3855C1.02695 85.3943 1.0639 85.401 1.10137 85.4065C1.11461 85.4084 1.1275 85.411 1.14073 85.4125C1.18714 85.4178 1.23423 85.4211 1.28201 85.4215C1.28494 85.4215 1.28769 85.422 1.29061 85.422C1.29147 85.422 1.29233 85.4218 1.29301 85.4218H86.7072C86.708 85.4218 86.7089 85.422 86.7096 85.422C86.7125 85.422 86.7152 85.4215 86.7182 85.4215C86.7661 85.4213 86.8132 85.4178 86.8596 85.4125C86.8727 85.411 86.8854 85.4086 86.8985 85.4065C86.9363 85.401 86.9734 85.3941 87.01 85.3854C87.0232 85.3823 87.0361 85.3788 87.0492 85.3752C87.0872 85.3649 87.1243 85.3529 87.1609 85.3393C87.1714 85.3353 87.1819 85.3319 87.1924 85.3278C87.2389 85.3091 87.2843 85.2883 87.328 85.2644C87.3316 85.2625 87.3349 85.2601 87.3385 85.258C87.3771 85.2364 87.4143 85.2126 87.4503 85.1874C87.4646 85.1774 87.4784 85.1666 87.4925 85.1559C87.5184 85.136 87.5437 85.1152 87.5679 85.0933C87.5811 85.0815 87.5946 85.0698 87.6074 85.0573C87.6422 85.0236 87.6755 84.9885 87.7063 84.951C87.7099 84.9466 87.713 84.9416 87.7166 84.9371C87.7456 84.9008 87.7723 84.8629 87.7972 84.8237C87.8005 84.8185 87.8044 84.814 87.8077 84.8089C87.813 84.8001 87.8171 84.791 87.8223 84.7823C87.8352 84.7603 87.8475 84.7381 87.8591 84.7152C87.8673 84.6991 87.875 84.6829 87.8824 84.6666C87.8924 84.6449 87.9017 84.6231 87.9105 84.6008C87.9177 84.5822 87.9246 84.5636 87.9309 84.5449C87.9378 84.5246 87.9441 84.5042 87.95 84.4834C87.956 84.4621 87.9615 84.4406 87.9665 84.4191C87.9708 84.4003 87.9746 84.3816 87.978 84.3627C87.9825 84.3386 87.9861 84.3146 87.989 84.2904C87.9911 84.273 87.993 84.2556 87.9945 84.2381C87.9967 84.212 87.9979 84.186 87.9985 84.1601C87.9986 84.1503 88 84.1406 88 84.1307V35.8996V32.5159V31.6866C87.9998 31.2081 87.7353 30.7688 87.3125 30.5455ZM72.0622 73.5637C71.4566 73.1891 70.6621 73.3775 70.2881 73.9839C69.9143 74.5904 70.1022 75.3854 70.708 75.7597L82.1681 82.8409H5.83171L43.9999 59.2568L65.5771 72.5893C66.1827 72.9635 66.9771 72.7753 67.351 72.1691C67.725 71.5625 67.5371 70.7676 66.9313 70.3932L46.4945 57.7653L85.4217 34.7753V35.8994V81.8181L72.0622 73.5637ZM43.0885 39.578L42.4084 40.2619C42.1655 40.5061 41.8431 40.6405 41.5002 40.6405C41.1573 40.6405 40.8348 40.506 40.592 40.2617L32.2617 31.8868C31.7566 31.3789 31.7566 30.5525 32.2617 30.0446C32.5046 29.8004 32.8272 29.666 33.1699 29.666C33.5128 29.666 33.8354 29.8004 34.0783 30.0446L40.5867 36.5881C40.8287 36.8313 41.1573 36.9679 41.5002 36.9679C41.8431 36.9679 42.1717 36.8313 42.4137 36.5881L53.9216 25.0185C54.1646 24.7743 54.4872 24.6397 54.8299 24.6397C55.1726 24.6397 55.4951 24.7743 55.7381 25.0185C56.2432 25.5264 56.2432 26.3526 55.7381 26.8605L43.0885 39.578ZM42.7109 11.3447V32.6315L41.5002 33.8487L35.9051 28.2238C35.1748 27.4897 34.2034 27.0853 33.1699 27.0853C32.1363 27.0853 31.165 27.4897 30.4349 28.2238C28.931 29.7358 28.931 32.196 30.4349 33.7078L38.765 42.0826C39.4953 42.8168 40.4667 43.2212 41.5003 43.2212C41.9183 43.2212 42.3252 43.152 42.711 43.0246V54.5842C37.5086 52.5827 33.0697 49.7011 29.4975 46.0023C26.7996 43.2099 25.3139 39.5153 25.3139 35.5991V17.9888L42.7109 11.3447ZM84.809 32.1408L69.817 40.9948C70.2182 39.3008 70.4205 37.5648 70.4205 35.8054V24.5376L84.809 32.1408ZM20.3831 14.1541L43.8758 5.18194C43.9545 5.15203 44.0448 5.15186 44.123 5.1816L67.6169 14.1541C67.7518 14.2055 67.8424 14.3377 67.8424 14.4831V22.4069C67.8424 22.4095 67.8424 22.412 67.8424 22.4146V35.8054C67.8424 38.2565 67.3979 40.656 66.5232 42.9401L62.2537 45.4615C64.2101 42.5805 65.2643 39.1683 65.2643 35.5988V30.1643C65.2643 29.4517 64.6871 28.8738 63.9752 28.8738C63.2633 28.8738 62.6861 29.4515 62.6861 30.1643V35.5988C62.6861 39.5165 61.2004 43.2111 58.5024 46.0022C54.9296 49.7014 50.4908 52.5831 45.289 54.584V41.0231L57.565 28.6813C59.069 27.1694 59.069 24.7093 57.5651 23.1975C56.8348 22.4633 55.8637 22.0588 54.8301 22.0587H54.8299C53.7964 22.0587 52.825 22.4631 52.0945 23.1973L45.289 30.0397V11.3447L62.6861 17.9888V24.5441C62.6861 25.2567 63.2633 25.8346 63.9752 25.8346C64.6871 25.8346 65.2643 25.2569 65.2643 24.5441V17.1001C65.2643 16.5649 64.9342 16.0852 64.4346 15.8944L44.4593 8.26572C44.4585 8.26537 44.4576 8.2652 44.4568 8.26486C44.4241 8.25248 44.3906 8.24337 44.3571 8.23357C44.3402 8.22876 44.3239 8.22223 44.3071 8.21811C44.2785 8.21106 44.2495 8.20728 44.2206 8.20229C44.1984 8.19851 44.1763 8.19284 44.1539 8.19026C44.135 8.18803 44.1159 8.1882 44.0969 8.18683C44.0644 8.18442 44.0319 8.18098 43.9996 8.18098C43.987 8.18098 43.9745 8.18287 43.9618 8.18322C43.9227 8.18442 43.8839 8.18562 43.8452 8.19026C43.8313 8.19198 43.8177 8.19559 43.804 8.19782C43.7667 8.2035 43.7292 8.20917 43.6924 8.21828C43.6771 8.22206 43.662 8.22808 43.6467 8.23237C43.612 8.24234 43.5771 8.25197 43.5431 8.26486C43.5422 8.2652 43.5412 8.26537 43.5401 8.26572L23.5649 15.8944C23.0654 16.0852 22.7352 16.5647 22.7352 17.1001V35.5989C22.7352 39.1676 23.7897 42.5802 25.7468 45.4621L21.4787 42.9414C20.6024 40.6615 20.1571 38.2649 20.1571 35.8055V22.4148C20.1571 22.4122 20.1571 22.4096 20.1571 22.407V14.4831C20.1575 14.3379 20.248 14.2057 20.3831 14.1541ZM18.1835 40.9951L3.19085 32.1408L17.5793 24.5378V35.8055C17.5793 37.569 17.7827 39.304 18.1835 40.9951Z" fill="#0A488A"/>
</svg>
