<svg width="85" height="85" viewBox="0 0 85 85" fill="none" xmlns="http://www.w3.org/2000/svg">
<path d="M71.5341 32.0387V6.89019C71.5341 5.41265 70.3363 4.21484 68.8587 4.21484H16.1421C14.6646 4.21484 13.4668 5.41265 13.4668 6.89019V32.0387H71.5341Z" fill="#EAF6FF"/>
<path d="M13.4668 58.9727V62.8996C13.4668 63.8553 13.9768 64.7385 14.8046 65.2165L41.1629 80.4345C41.9906 80.9124 43.0104 80.9124 43.8382 80.4345L70.1965 65.2165C71.0243 64.7385 71.5342 63.8553 71.5342 62.8996V58.9727H13.4668Z" fill="#EAF6FF"/>
<path d="M23.2672 32.0387V4.21484H16.1421C14.6646 4.21484 13.4668 5.41265 13.4668 6.89019V32.0387H23.2672Z" fill="#D8ECFE"/>
<path d="M43.123 74.0472C42.9304 74.1584 42.7154 74.214 42.5004 74.214C42.2854 74.214 42.0705 74.1584 41.8779 74.0472L27.2878 65.6236C26.7997 65.3418 26.5618 64.7674 26.7075 64.2229C26.7505 64.0629 26.8262 63.9196 26.9222 63.7936L24.605 62.4557C23.7772 61.9779 23.2672 61.0945 23.2672 60.1387V58.9727H13.4668V62.8996C13.4668 63.8553 13.9768 64.7385 14.8046 65.2165L41.1629 80.4345C41.9906 80.9124 43.0104 80.9124 43.8382 80.4345L49.7917 76.9971L43.9026 73.5971L43.123 74.0472Z" fill="#D8ECFE"/>
<path d="M27.9102 64.543H57.0904L42.5003 72.9666L27.9102 64.543Z" fill="#FEDF30"/>
<path d="M34.8881 64.543H27.9102L42.5003 72.9666L45.9893 70.9522L34.8881 64.543Z" fill="#FAC600"/>
<path d="M83.676 53.9715L79.8528 45.3948C79.7449 45.1526 79.7502 44.8748 79.8676 44.6371L83.6006 37.0716C83.8931 36.4789 83.4618 35.7852 82.8009 35.7852H73.1895V55.2262H82.8614C83.5073 55.2264 83.939 54.5614 83.676 53.9715Z" fill="#FAC600"/>
<path d="M11.809 35.7852H2.1975C1.5366 35.7852 1.10529 36.4789 1.39781 37.0716L5.13083 44.6371C5.24821 44.8748 5.25369 45.1526 5.14561 45.3948L1.32244 53.9715C1.05947 54.5614 1.49111 55.2264 2.13691 55.2264H11.8088L11.809 35.7852Z" fill="#FEDF30"/>
<path d="M72.465 58.9713H12.5364C12.0438 58.9713 11.6445 58.572 11.6445 58.0794V32.9309C11.6445 32.4383 12.0438 32.0391 12.5364 32.0391H72.465C72.9576 32.0391 73.3569 32.4383 73.3569 32.9309V58.0794C73.3567 58.572 72.9574 58.9713 72.465 58.9713Z" fill="#FEDF30"/>
<path d="M20.3003 58.0794V32.9309C20.3003 32.4383 20.6995 32.0391 21.1921 32.0391H12.5364C12.0438 32.0391 11.6445 32.4383 11.6445 32.9309V58.0794C11.6445 58.572 12.0438 58.9713 12.5364 58.9713H21.1919C20.6994 58.9713 20.3003 58.572 20.3003 58.0794Z" fill="#FAC600"/>
<path d="M57.0896 63.2969H48.144C47.4564 63.2969 46.8989 63.8542 46.8989 64.542C46.8989 65.2298 47.4564 65.7871 48.144 65.7871H52.4428L42.4995 71.5279L32.5561 65.7871H42.3334C43.0211 65.7871 43.5786 65.2298 43.5786 64.542C43.5786 63.8542 43.0211 63.2969 42.3334 63.2969H27.9093C27.3457 63.2969 26.8525 63.6754 26.7066 64.2198C26.5608 64.7641 26.7987 65.3385 27.2868 65.6204L41.8769 74.0441C42.0695 74.1553 42.2845 74.2109 42.4995 74.2109C42.7144 74.2109 42.9294 74.1553 43.122 74.0441L57.7121 65.6204C58.2002 65.3387 58.4381 64.7643 58.2924 64.2198C58.1463 63.6756 57.653 63.2969 57.0896 63.2969Z" fill="black"/>
<path d="M25.3086 15.8446V22.7497C25.3086 25.5806 27.6116 27.8836 30.4423 27.8836H31.444C34.2748 27.8836 36.5777 25.5806 36.5777 22.7497V15.8446C36.5777 13.0139 34.2748 10.7109 31.444 10.7109H30.4423C27.6116 10.7109 25.3086 13.0139 25.3086 15.8446ZM27.7988 15.8446C27.7988 14.387 28.9847 13.2012 30.4423 13.2012H31.444C32.9016 13.2012 34.0875 14.387 34.0875 15.8446V22.7497C34.0875 24.2073 32.9016 25.3934 31.444 25.3934H30.4423C28.9847 25.3934 27.7988 24.2073 27.7988 22.7497V15.8446Z" fill="black"/>
<path d="M44.1258 27.8834C46.9566 27.8834 49.2595 25.5805 49.2595 22.7496V15.8446C49.2595 13.0139 46.9566 10.7109 44.1258 10.7109H43.1239C40.2932 10.7109 37.9902 13.0139 37.9902 15.8446V22.7497C37.9902 25.5806 40.2932 27.8836 43.1239 27.8836H44.1258V27.8834ZM40.4805 22.7496V15.8446C40.4805 14.387 41.6663 13.2012 43.1239 13.2012H44.1258C45.5835 13.2012 46.7693 14.387 46.7693 15.8446V22.7497C46.7693 24.2073 45.5835 25.3934 44.1258 25.3934H43.1239C41.6663 25.3932 40.4805 24.2073 40.4805 22.7496Z" fill="black"/>
<path d="M22.4948 27.8834C23.1824 27.8834 23.7399 27.3261 23.7399 26.6383V11.9561C23.7399 11.2683 23.1824 10.7109 22.4948 10.7109H20.2295C19.5419 10.7109 18.9844 11.2683 18.9844 11.9561C18.9844 12.6439 19.5419 13.2012 20.2295 13.2012H21.2497V26.6383C21.2497 27.3261 21.8071 27.8834 22.4948 27.8834Z" fill="black"/>
<path d="M54.1154 10.7109C52.3535 10.7109 50.9199 12.1443 50.9199 13.9062C50.9199 15.6682 52.3533 17.1017 54.1154 17.1017C55.8775 17.1017 57.3109 15.6682 57.3109 13.9062C57.3109 12.1443 55.8773 10.7109 54.1154 10.7109ZM54.1154 14.6115C53.7266 14.6115 53.4102 14.2952 53.4102 13.9062C53.4102 13.5174 53.7264 13.2012 54.1154 13.2012C54.5044 13.2012 54.8206 13.5174 54.8206 13.9062C54.8205 14.2952 54.5042 14.6115 54.1154 14.6115Z" fill="black"/>
<path d="M59.625 24.6875C59.625 26.4494 61.0584 27.883 62.8205 27.883C64.5826 27.883 66.0159 26.4494 66.0159 24.6875C66.0159 22.9256 64.5826 21.4922 62.8205 21.4922C61.0584 21.4922 59.625 22.9256 59.625 24.6875ZM63.5255 24.6875C63.5255 25.0765 63.2093 25.3927 62.8203 25.3927C62.4313 25.3927 62.1151 25.0765 62.1151 24.6875C62.1151 24.2987 62.4313 23.9824 62.8203 23.9824C63.2093 23.9824 63.5255 24.2987 63.5255 24.6875Z" fill="black"/>
<path d="M63.2007 10.8653C62.5977 10.5339 61.841 10.7537 61.5097 11.3565L53.4375 26.0388C53.1061 26.6414 53.3261 27.3983 53.9287 27.7298C54.119 27.8344 54.3247 27.884 54.5274 27.884C54.9668 27.884 55.393 27.6509 55.6196 27.2386L63.6918 12.5563C64.0232 11.9537 63.8033 11.1966 63.2007 10.8653Z" fill="black"/>
<path d="M84.8138 53.4626L81.0582 45.0374L84.7178 37.6205C85.0469 36.9536 85.009 36.1783 84.6164 35.547C84.2238 34.9153 83.5453 34.5383 82.8015 34.5383H74.6012V32.9296C74.6012 31.8585 73.8081 30.9714 72.7787 30.8185V6.88921C72.7787 4.72752 71.0199 2.96875 68.8582 2.96875H32.8712C32.1835 2.96875 31.626 3.52606 31.626 4.21387C31.626 4.90167 32.1835 5.45898 32.8712 5.45898H68.8584C69.6469 5.45898 70.2886 6.10064 70.2886 6.88921V30.7926H14.7115V6.88921C14.7115 6.10064 15.3532 5.45898 16.1418 5.45898H27.0606C27.7482 5.45898 28.3057 4.90167 28.3057 4.21387C28.3057 3.52606 27.7482 2.96875 27.0606 2.96875H16.1418C13.9801 2.96875 12.2213 4.72752 12.2213 6.88921V30.8185C11.192 30.9714 10.3988 31.8585 10.3988 32.9296V34.5383H2.19844C1.45469 34.5383 0.776349 34.9153 0.383556 35.547C-0.0090711 36.1785 -0.0470887 36.9538 0.28212 37.6205L3.94177 45.0374L0.186163 53.4626C-0.109677 54.1263 -0.050243 54.8863 0.345372 55.4959C0.740987 56.1055 1.41103 56.4694 2.13784 56.4694H10.3986V58.0781C10.3986 59.1493 11.1917 60.0363 12.2211 60.1892V62.8969C12.2211 64.2929 12.9722 65.5938 14.1814 66.2919L40.5397 81.5099C41.1444 81.859 41.8221 82.0335 42.5001 82.0335C43.1779 82.0334 43.8559 81.8589 44.4604 81.5099L70.8188 66.2919C72.0279 65.5938 72.779 64.2929 72.779 62.8969V60.1892C73.8083 60.0363 74.6015 59.1493 74.6015 58.0781V56.4694H82.8623C83.5889 56.4694 84.2591 56.1055 84.6547 55.4959C85.0502 54.8863 85.1096 54.1263 84.8138 53.4626ZM2.68237 53.9792L6.28375 45.8999C6.54323 45.3177 6.53045 44.6561 6.24839 44.0842L2.76688 37.0284H10.3988V53.9792H2.68237ZM69.5734 64.1354L43.2151 79.3534C42.774 79.6079 42.226 79.6079 41.7849 79.3534L15.4266 64.1354C14.9855 63.8807 14.7114 63.4061 14.7114 62.8969V60.2151H70.2886V62.8969C70.2886 63.4062 70.0145 63.8807 69.5734 64.1354ZM74.6013 53.9792V47.3163C74.6013 46.6285 74.0439 46.0712 73.3562 46.0712C72.6686 46.0712 72.1111 46.6285 72.1111 47.3163V57.7249H12.889V33.2829H72.1111V41.5058C72.1111 42.1936 72.6686 42.7509 73.3562 42.7509C74.0439 42.7509 74.6013 42.1936 74.6013 41.5058V37.0284H82.2332L78.7516 44.0843C78.4697 44.6559 78.4569 45.3177 78.7164 45.8999L82.3179 53.9792H74.6013Z" fill="black"/>
<path d="M27.5824 39.9082C28.27 39.9082 28.8275 39.3509 28.8275 38.6631C28.8275 37.9753 28.27 37.418 27.5824 37.418H19.6455C18.9579 37.418 18.4004 37.9753 18.4004 38.6631V52.3419C18.4004 53.0297 18.9579 53.5871 19.6455 53.5871C20.3331 53.5871 20.8906 53.0297 20.8906 52.3419V46.7477H27.5824C28.27 46.7477 28.8275 46.1904 28.8275 45.5026C28.8275 44.8148 28.27 44.2575 27.5824 44.2575H20.8906V39.9084L27.5824 39.9082Z" fill="black"/>
<path d="M52.8363 39.9082C53.5239 39.9082 54.0814 39.3509 54.0814 38.6631C54.0814 37.9753 53.5239 37.418 52.8363 37.418H44.8994C44.2118 37.418 43.6543 37.9753 43.6543 38.6631V52.3419C43.6543 53.0297 44.2118 53.5871 44.8994 53.5871H52.8363C53.5239 53.5871 54.0814 53.0297 54.0814 52.3419C54.0814 51.6541 53.5239 51.0968 52.8363 51.0968H46.1445V46.7477H52.8363C53.5239 46.7477 54.0814 46.1904 54.0814 45.5026C54.0814 44.8148 53.5239 44.2575 52.8363 44.2575H46.1445V39.9084L52.8363 39.9082Z" fill="black"/>
<path d="M64.641 39.9082C65.3286 39.9082 65.8861 39.3509 65.8861 38.6631C65.8861 37.9753 65.3286 37.418 64.641 37.418H56.7041C56.0165 37.418 55.459 37.9753 55.459 38.6631V52.3419C55.459 53.0297 56.0165 53.5871 56.7041 53.5871H64.641C65.3286 53.5871 65.8861 53.0297 65.8861 52.3419C65.8861 51.6541 65.3286 51.0968 64.641 51.0968H57.9492V46.7477H64.641C65.3286 46.7477 65.8861 46.1904 65.8861 45.5026C65.8861 44.8148 65.3286 44.2575 64.641 44.2575H57.9492V39.9084L64.641 39.9082Z" fill="black"/>
<path d="M37.9245 37.418H32.0693C31.3817 37.418 30.8242 37.9753 30.8242 38.6631V52.3419C30.8242 53.0297 31.3817 53.5871 32.0693 53.5871C32.757 53.5871 33.3145 53.0297 33.3145 52.3419V46.7477H34.9582C34.9723 46.7736 34.9861 46.7997 35.0022 46.8249L38.9572 53.0125C39.1947 53.3842 39.5968 53.5872 40.0074 53.5872C40.2368 53.5872 40.4691 53.5238 40.6767 53.391C41.2561 53.0208 41.4256 52.2508 41.0553 51.6714L37.9081 46.7477H37.9244C39.7588 46.7477 41.2512 45.2554 41.2512 43.4209V40.7449C41.2513 38.9104 39.759 37.418 37.9245 37.418ZM38.7611 43.4209C38.7611 43.8821 38.3857 44.2575 37.9245 44.2575H33.3145V39.9084H37.9245C38.3857 39.9084 38.7611 40.2837 38.7611 40.7449V43.4209Z" fill="black"/>
</svg>
