<svg width="88" height="88" viewBox="0 0 88 88" fill="none" xmlns="http://www.w3.org/2000/svg">
<path d="M83.1963 77.878H4.80373C2.91019 77.878 1.375 76.343 1.375 74.4493V13.5498C1.375 11.6561 2.91019 10.1211 4.80373 10.1211H83.1963C85.0898 10.1211 86.625 11.6561 86.625 13.5498V74.4493C86.625 76.343 85.0898 77.878 83.1963 77.878Z" fill="white"/>
<path d="M83.1953 10.1211H80.1016C81.9953 10.1211 83.5303 11.6563 83.5303 13.5498V74.4493C83.5303 76.343 81.9951 77.878 80.1016 77.878H83.1953C85.089 77.878 86.624 76.3428 86.624 74.4493V13.5498C86.624 11.6561 85.0889 10.1211 83.1953 10.1211Z" fill="white"/>
<path d="M9.75586 31.6484H78.1173V39.1883H9.75586V31.6484Z" fill="#1276DF"/>
<path d="M75.0234 31.6484H78.1172V39.1883H75.0234V31.6484Z" fill="#1276DF"/>
<path d="M83.1963 10.1211H4.80373C2.91019 10.1211 1.375 11.6561 1.375 13.5498V22.9734H86.625V13.5498C86.625 11.6561 85.0898 10.1211 83.1963 10.1211Z" fill="white"/>
<path d="M83.1953 10.1211H80.1016C81.9953 10.1211 83.5303 11.6563 83.5303 13.5498V22.9734H86.624V13.5498C86.624 11.6561 85.0889 10.1211 83.1953 10.1211Z" fill="white"/>
<path d="M49.459 44.5176H55.481V50.5396H49.459V44.5176Z" fill="#1276DF"/>
<path d="M49.459 62.9492H55.481V68.9712H49.459V62.9492Z" fill="#1276DF"/>
<path d="M67.8906 44.5176H73.9126V50.5396H67.8906V44.5176Z" fill="#1276DF"/>
<path d="M78.1171 68.8568L74.0793 64.8189L76.2398 62.6584L63.6836 58.7441L67.5979 71.3003L69.7583 69.1398L73.7962 73.1777L78.1171 68.8568Z" fill="#1276DF"/>
<path d="M49.4588 70.2616H55.4808C56.1927 70.2616 56.7699 69.6846 56.7699 68.9725V67.2507H64.9855L66.3677 71.6847C66.6508 72.5924 67.8364 72.8863 68.51 72.2124L69.7588 70.9634L72.885 74.0899C73.3818 74.5863 74.2114 74.5865 74.7079 74.0899L79.029 69.769C79.5254 69.2726 79.5254 68.4425 79.0292 67.9459L75.9028 64.8195L77.1518 63.5705C77.8254 62.8969 77.5317 61.7115 76.624 61.4284L72.1901 60.0462V51.8306H73.912C74.6241 51.8306 75.201 51.2536 75.201 50.5415V44.5195C75.201 43.8075 74.6241 43.2305 73.912 43.2305H67.89C67.1779 43.2305 66.6009 43.8075 66.6009 44.5195V46.2414H56.77V44.5195C56.77 43.8075 56.1929 43.2305 55.481 43.2305H49.459C48.7469 43.2305 48.1699 43.8075 48.1699 44.5195V50.5415C48.1699 51.2536 48.7469 51.8306 49.459 51.8306H51.181V61.6615H49.459C48.7469 61.6615 48.1699 62.2385 48.1699 62.9505V68.9725C48.1698 69.6846 48.7467 70.2616 49.4588 70.2616ZM73.1681 65.7311L76.2945 68.8574L73.7965 71.3552L70.6703 68.2288C70.1739 67.7328 69.3434 67.7325 68.847 68.229L68.1942 68.8818L65.6458 60.7067L73.8211 63.2553L73.1681 63.9082C72.6647 64.4115 72.6647 65.2275 73.1681 65.7311ZM69.1789 45.8086H72.6228V49.2525H69.1789V45.8086ZM50.7479 45.8086H54.1917V49.2525H50.7479V45.8086ZM53.7588 51.8306H55.4808C56.1927 51.8306 56.7699 51.2536 56.7699 50.5415V48.8195H66.6008V50.5415C66.6008 51.2536 67.1778 51.8306 67.8898 51.8306H69.6118V59.2425L64.0678 57.5143C63.6101 57.372 63.1115 57.4947 62.7726 57.8335C62.4338 58.1724 62.3109 58.6712 62.4534 59.1287L64.1816 64.6727H56.7697V62.9507C56.7697 62.2386 56.1925 61.6617 55.4806 61.6617H53.7586L53.7588 51.8306ZM50.7479 64.2396H54.1917V67.6835H50.7479V64.2396Z" fill="#0A488A"/>
<path d="M36.9954 46.8594H10.0547C9.34261 46.8594 8.76562 47.4364 8.76562 48.1484C8.76562 48.8605 9.34261 49.4375 10.0547 49.4375H36.9954C37.7075 49.4375 38.2845 48.8605 38.2845 48.1484C38.2845 47.4364 37.7075 46.8594 36.9954 46.8594Z" fill="#0A488A"/>
<path d="M36.9954 53.2559H10.0547C9.34261 53.2559 8.76562 53.8328 8.76562 54.5449C8.76562 55.257 9.34261 55.834 10.0547 55.834H36.9954C37.7075 55.834 38.2845 55.257 38.2845 54.5449C38.2845 53.8328 37.7075 53.2559 36.9954 53.2559Z" fill="#0A488A"/>
<path d="M36.9954 59.6504H10.0547C9.34261 59.6504 8.76562 60.2274 8.76562 60.9395C8.76562 61.6515 9.34261 62.2285 10.0547 62.2285H36.9954C37.7075 62.2285 38.2845 61.6515 38.2845 60.9395C38.2845 60.2275 37.7075 59.6504 36.9954 59.6504Z" fill="#0A488A"/>
<path d="M36.9954 66.0469H10.0547C9.34261 66.0469 8.76562 66.6239 8.76562 67.3359C8.76562 68.0478 9.34261 68.625 10.0547 68.625H36.9954C37.7075 68.625 38.2845 68.0478 38.2845 67.3359C38.2845 66.6239 37.7075 66.0469 36.9954 66.0469Z" fill="#0A488A"/>
<path d="M9.52656 18.5546C10.7033 18.3639 11.5026 17.2553 11.3119 16.0786C11.1211 14.9018 10.0125 14.1025 8.83576 14.2933C7.65902 14.484 6.85972 15.5926 7.05048 16.7694C7.24124 17.9461 8.34982 18.7454 9.52656 18.5546Z" fill="#0A488A"/>
<path d="M17.1568 17.9481C17.9998 17.1052 17.9998 15.7386 17.1568 14.8956C16.3139 14.0527 14.9473 14.0527 14.1044 14.8956C13.2614 15.7386 13.2614 17.1052 14.1044 17.9481C14.9473 18.791 16.3139 18.791 17.1568 17.9481Z" fill="#0A488A"/>
<path d="M19.9258 16.4224C19.9258 17.6128 20.8941 18.5812 22.0844 18.5812C23.2746 18.5812 24.2429 17.6128 24.2429 16.4224C24.2429 15.232 23.2746 14.2637 22.0844 14.2637C20.8941 14.2637 19.9258 15.232 19.9258 16.4224Z" fill="#0A488A"/>
<path d="M79.4063 39.1883V31.6484C79.4063 30.9364 78.8293 30.3594 78.1172 30.3594H9.75586C9.04378 30.3594 8.4668 30.9364 8.4668 31.6484V39.1883C8.4668 39.9003 9.04378 40.4773 9.75586 40.4773H22.0009C22.713 40.4773 23.29 39.9003 23.29 39.1883C23.29 38.4762 22.713 37.8992 22.0009 37.8992H11.0449V32.9375H76.8282V37.8992H27.1441C26.432 37.8992 25.855 38.4762 25.855 39.1883C25.855 39.9003 26.432 40.4773 27.1441 40.4773H78.1172C78.8293 40.4773 79.4063 39.9002 79.4063 39.1883Z" fill="#0A488A"/>
<path d="M83.2729 8.76367H4.72708C2.12059 8.76367 0 10.8843 0 13.4907V74.5095C0 77.116 2.12059 79.2365 4.72708 79.2365H52.3645C53.0779 79.2365 53.6561 78.6584 53.6561 77.9449C53.6561 77.2315 53.0779 76.6533 52.3645 76.6533H4.72708C3.54492 76.6533 2.58328 75.6915 2.58328 74.5093V24.2243H65.9759C66.6894 24.2243 67.2676 23.6462 67.2676 22.9327C67.2676 22.2192 66.6894 21.6411 65.9759 21.6411H2.58311V13.4907C2.58311 12.3086 3.54492 11.3468 4.72691 11.3468H83.2728C84.4549 11.3468 85.4167 12.3086 85.4167 13.4907V21.6412H71.1291C70.4156 21.6412 69.8375 22.2194 69.8375 22.9329C69.8375 23.6463 70.4156 24.2245 71.1291 24.2245H85.4167V74.5096C85.4167 75.6918 84.4549 76.6536 83.2728 76.6536H57.5176C56.8042 76.6536 56.226 77.2318 56.226 77.9453C56.226 78.6587 56.8042 79.2369 57.5176 79.2369H83.2729C85.8794 79.2369 88 77.1165 88 74.5098V13.4907C88 10.8843 85.8794 8.76367 83.2729 8.76367Z" fill="#0A488A"/>
</svg>
