<svg width="88" height="88" viewBox="0 0 88 88" fill="none" xmlns="http://www.w3.org/2000/svg">
<path d="M83.9995 16.8359V66.7862C83.9995 67.735 83.2295 68.505 82.2807 68.505H5.7207C4.77195 68.505 4.00195 67.735 4.00195 66.7862V16.8359C4.00195 14.9367 5.54023 13.3984 7.43945 13.3984H80.562C82.4612 13.3984 83.9995 14.9367 83.9995 16.8359Z" fill="white"/>
<path d="M80.5616 13.3984H74.6113C76.5088 13.3984 78.0488 14.9367 78.0488 16.8359V66.7862C78.0488 67.735 77.2788 68.505 76.3301 68.505H82.2804C83.2291 68.505 83.9991 67.735 83.9991 66.7862V16.8359C83.9991 14.9367 82.4591 13.3984 80.5616 13.3984Z" fill="white"/>
<path d="M80.5625 13.3984H69.6494C74.596 14.0792 78.4073 18.3209 78.4073 23.4547C78.4073 29.0623 73.8609 33.6087 68.2533 33.6087C62.6457 33.6087 58.0991 29.0623 58.0991 23.4547C58.0991 18.3209 61.9104 14.0792 66.857 13.3984H50.5651C50.5651 13.3984 49.0978 15.9458 48.712 17.7785L41.8113 18.8814C41.2156 18.9766 40.7773 19.4905 40.7773 20.0938V26.8153C40.7773 27.4186 41.2156 27.9325 41.8113 28.0278L48.712 29.1307C49.1317 30.5796 49.7081 31.962 50.4219 33.2584L46.3222 38.9179C45.9683 39.4066 46.0218 40.0798 46.4484 40.5064L51.2012 45.2593C51.6278 45.6858 52.301 45.7393 52.7897 45.3854L58.4492 41.2857C59.7456 41.9993 61.128 42.5759 62.5769 42.9957L63.6799 49.8963C63.7751 50.492 64.289 50.9303 64.8923 50.9303H71.6138C72.2171 50.9303 72.731 50.492 72.8262 49.8963L73.9291 42.9957C75.378 42.5759 76.7604 41.9993 78.0569 41.2857L83.7164 45.3854C83.8052 45.4497 83.9013 45.4959 83.9998 45.5336V16.8359C84 14.9367 82.4617 13.3984 80.5625 13.3984Z" fill="#1276DF"/>
<path d="M78.0488 16.8359V20.7817C78.2809 21.6335 78.4065 22.5291 78.4065 23.4547C78.4065 24.3794 78.2805 25.2743 78.0488 26.1256V41.2896C78.0512 41.2882 78.0538 41.287 78.0562 41.2857L83.7157 45.3854C83.8046 45.4497 83.9007 45.4959 83.9991 45.5336V16.8359C83.9991 14.9367 82.4609 13.3984 80.5616 13.3984H74.6113C76.5088 13.3984 78.0488 14.9367 78.0488 16.8359Z" fill="#1276DF"/>
<path d="M49.1318 19.1423H38.8696C38.1101 19.1423 37.4407 18.6439 37.2231 17.9163L35.8711 13.3984H52.1301L50.7782 17.9163C50.5607 18.6439 49.8913 19.1423 49.1318 19.1423Z" fill="white"/>
<path d="M83.2734 74.6002H4.72656C2.82803 74.6002 1.28906 73.0612 1.28906 71.1627V67.1309C1.28906 66.1816 2.05855 65.4121 3.00781 65.4121H84.9922C85.9415 65.4121 86.7109 66.1816 86.7109 67.1309V71.1627C86.7109 73.0612 85.172 74.6002 83.2734 74.6002Z" fill="#1276DF"/>
<path d="M58.1024 69.841H29.8965C28.9472 69.841 28.1777 69.0715 28.1777 68.1222V65.4121H59.8211V68.1222C59.8211 69.0715 59.0516 69.841 58.1024 69.841Z" fill="white"/>
<path d="M15.3347 57.7847H31.2272C33.2642 57.7847 34.9154 56.1334 34.9154 54.0965C34.9154 52.0594 33.2641 50.4082 31.2272 50.4082H15.3347C13.2977 50.4082 11.6465 52.0596 11.6465 54.0965C11.6465 56.1335 13.2977 57.7847 15.3347 57.7847Z" fill="white"/>
<path d="M15.3347 57.7847C17.3717 57.7847 19.023 56.1334 19.023 54.0965C19.023 52.0595 17.3717 50.4082 15.3347 50.4082C13.2978 50.4082 11.6465 52.0595 11.6465 54.0965C11.6465 56.1334 13.2978 57.7847 15.3347 57.7847Z" fill="#1276DF"/>
<path d="M19.0235 54.0973C19.0235 56.1341 17.3711 57.7847 15.3343 57.7847C14.7422 57.7847 14.1812 57.6445 13.6855 57.3966C14.8952 56.7899 15.7242 55.5402 15.7242 54.0973C15.7242 52.6544 14.8952 51.4028 13.6855 50.798C14.1811 50.5485 14.7422 50.4082 15.3343 50.4082C17.3711 50.4082 19.0235 52.0606 19.0235 54.0973Z" fill="#1276DF"/>
<path d="M31.2272 44.4996H15.3347C13.2977 44.4996 11.6465 42.8482 11.6465 40.8113C11.6465 38.7742 13.2979 37.123 15.3347 37.123H31.2272C33.2642 37.123 34.9154 38.7744 34.9154 40.8113C34.9156 42.8484 33.2642 44.4996 31.2272 44.4996Z" fill="white"/>
<path d="M31.2273 44.4996C33.2643 44.4996 34.9156 42.8483 34.9156 40.8113C34.9156 38.7743 33.2643 37.123 31.2273 37.123C29.1904 37.123 27.5391 38.7743 27.5391 40.8113C27.5391 42.8483 29.1904 44.4996 31.2273 44.4996Z" fill="white"/>
<path d="M34.916 40.8122C34.916 42.8489 33.2636 44.4996 31.2269 44.4996C30.6348 44.4996 30.0738 44.3593 29.5781 44.1115C30.7878 43.5048 31.6167 42.2551 31.6167 40.8122C31.6167 39.3693 30.7878 38.1177 29.5781 37.5129C30.0736 37.2633 30.6348 37.123 31.2269 37.123C33.2636 37.123 34.916 38.7755 34.916 40.8122Z" fill="white"/>
<path d="M31.2272 31.2164H15.3347C13.2977 31.2164 11.6465 29.565 11.6465 27.5281C11.6465 25.491 13.2979 23.8398 15.3347 23.8398H31.2272C33.2642 23.8398 34.9154 25.4912 34.9154 27.5281C34.9156 29.5652 33.2642 31.2164 31.2272 31.2164Z" fill="white"/>
<path d="M31.2273 31.2164C33.2643 31.2164 34.9156 29.5651 34.9156 27.5281C34.9156 25.4911 33.2643 23.8398 31.2273 23.8398C29.1904 23.8398 27.5391 25.4911 27.5391 27.5281C27.5391 29.5651 29.1904 31.2164 31.2273 31.2164Z" fill="white"/>
<path d="M34.916 27.529C34.916 29.5657 33.2636 31.2164 31.2269 31.2164C30.6348 31.2164 30.0738 31.0761 29.5781 30.8283C30.7878 30.2216 31.6167 28.9719 31.6167 27.529C31.6167 26.0861 30.7878 24.8345 29.5781 24.2297C30.0736 23.9801 30.6348 23.8398 31.2269 23.8398C33.2636 23.8398 34.916 25.4922 34.916 27.529Z" fill="white"/>
<path d="M85.2878 64.1375V16.8359C85.2878 14.2296 83.1676 12.1094 80.5612 12.1094H7.43875C4.83244 12.1094 2.71219 14.2296 2.71219 16.8359V46.4053C2.71219 47.1174 3.28917 47.6944 4.00125 47.6944C4.71333 47.6944 5.29031 47.1174 5.29031 46.4053V16.8359C5.29031 15.6512 6.25402 14.6875 7.43875 14.6875H34.9106L35.9872 18.2859C36.3712 19.5693 37.5293 20.4314 38.8688 20.4314H39.4871V26.8155C39.4871 28.0594 40.3788 29.1045 41.6068 29.3008L47.7175 30.2776C48.044 31.2611 48.4425 32.2224 48.9077 33.1503L45.2774 38.1618C44.5478 39.1689 44.6564 40.5384 45.5359 41.4182L50.2884 46.1707C51.1679 47.05 52.5372 47.1592 53.5446 46.4295L58.5564 42.799C59.4844 43.2645 60.4457 43.6625 61.4292 43.9891L62.4059 50.1003C62.6025 51.3283 63.6477 52.2197 64.8912 52.2197H71.6127C72.8566 52.2197 73.9018 51.3282 74.0981 50.0999L75.0748 43.9891C76.0583 43.6627 77.0196 43.2643 77.9474 42.799L82.7097 46.2487V64.1225H75.7221C75.01 64.1225 74.433 64.6995 74.433 65.4116C74.433 66.1237 75.01 66.7007 75.7221 66.7007H84.9922C85.2292 66.7007 85.4219 66.8933 85.4219 67.1303V71.1622C85.4219 72.3469 84.4582 73.3106 83.2734 73.3106H4.72656C3.54183 73.3106 2.57812 72.3469 2.57812 71.1622V67.1303C2.57812 66.8933 2.7708 66.7007 3.00781 66.7007H26.8892V68.1219C26.8892 69.7803 28.2385 71.1297 29.897 71.1297H58.1029C59.7613 71.1297 61.1107 69.7803 61.1107 68.1219V66.7007H69.701C70.4131 66.7007 70.99 66.1237 70.99 65.4116C70.99 64.6995 70.4131 64.1225 69.701 64.1225H5.29031V52.4261C5.29031 51.714 4.71333 51.137 4.00125 51.137C3.28917 51.137 2.71219 51.714 2.71219 52.4261V64.1375C1.19195 64.2865 0 65.5716 0 67.1303V71.1622C0 73.7685 2.12025 75.8887 4.72656 75.8887H83.2734C85.8798 75.8887 88 73.7685 88 71.1622V67.1303C88 65.5716 86.808 64.2865 85.2878 64.1375ZM77.1171 23.4547C77.1171 28.3428 73.1402 32.3196 68.2521 32.3196C63.364 32.3196 59.3869 28.3428 59.3869 23.4547C59.3869 19.075 62.6361 15.3203 66.9567 14.6875H69.5473C73.8679 15.3202 77.1171 19.075 77.1171 23.4547ZM38.4574 17.5468L37.6018 14.6875H50.3982L49.5426 17.547C49.488 17.73 49.3225 17.8533 49.131 17.8533H38.8688C38.6775 17.8533 38.512 17.73 38.4574 17.5468ZM78.8119 40.2419C78.4078 39.9495 77.8714 39.916 77.434 40.1566C76.2092 40.8311 74.909 41.3697 73.5695 41.7575C73.09 41.8963 72.7341 42.2994 72.6552 42.7923L71.5605 49.6415H64.9435L63.849 42.7923C63.7703 42.2996 63.414 41.8963 62.9346 41.7575C61.5954 41.3695 60.2951 40.8309 59.07 40.1566C58.6326 39.916 58.096 39.9495 57.6921 40.2419L52.0747 44.3108L47.3957 39.6321L51.4649 34.0147C51.7576 33.6106 51.7908 33.0738 51.5501 32.6367C50.8757 31.4118 50.337 30.1116 49.9491 28.772C49.8101 28.2926 49.4072 27.9367 48.9143 27.8578L42.0652 26.7631V20.4314H49.131C50.4706 20.4314 51.6285 19.5691 52.0126 18.286L53.0894 14.6875H60.919C58.3981 16.805 56.8088 19.9764 56.8088 23.4547C56.8088 29.7644 61.9422 34.8978 68.2521 34.8978C74.5618 34.8978 79.6952 29.7644 79.6952 23.4547C79.6952 19.9766 78.1058 16.805 75.585 14.6875H80.5612C81.746 14.6875 82.7097 15.6512 82.7097 16.8359V43.0653L78.8119 40.2419ZM58.5327 68.1219C58.5327 68.3589 58.34 68.5516 58.103 68.5516H29.897C29.66 68.5516 29.4673 68.3589 29.4673 68.1219V66.7008H58.5325L58.5327 68.1219Z" fill="#0A488A"/>
<path d="M15.3348 59.0738H31.2273C33.9718 59.0738 36.2047 56.841 36.2047 54.0965C36.2047 51.352 33.9718 49.1191 31.2273 49.1191H15.3348C12.5902 49.1191 10.3574 51.352 10.3574 54.0965C10.3574 56.841 12.5902 59.0738 15.3348 59.0738ZM33.6264 54.0965C33.6264 55.4194 32.5501 56.4957 31.2272 56.4957H19.694C20.0874 55.7836 20.3121 54.966 20.3121 54.0965C20.3121 53.227 20.0874 52.4093 19.694 51.6973H31.2272C32.5503 51.6973 33.6264 52.7735 33.6264 54.0965ZM15.3348 51.6973C16.6577 51.6973 17.7341 52.7735 17.7341 54.0965C17.7341 55.4194 16.6577 56.4957 15.3348 56.4957C14.0118 56.4957 12.9355 55.4194 12.9355 54.0965C12.9355 52.7735 14.0117 51.6973 15.3348 51.6973Z" fill="#0A488A"/>
<path d="M15.3348 45.7906H31.2273C33.9713 45.7901 36.2042 43.5574 36.2042 40.8133C36.2042 38.0691 33.9718 35.8365 31.2279 35.8359H15.3348C12.5903 35.8359 10.3574 38.0688 10.3574 40.8133C10.3574 43.5578 12.5903 45.7906 15.3348 45.7906ZM33.626 40.8133C33.626 42.1362 32.5497 43.2125 31.2268 43.2125C29.9039 43.2125 28.8276 42.1362 28.8276 40.8133C28.8276 39.4903 29.9039 38.4141 31.2268 38.4141C32.5497 38.4141 33.626 39.4903 33.626 40.8133ZM15.3348 38.4141H26.8676C26.4741 39.1261 26.2495 39.9437 26.2495 40.8133C26.2495 41.6828 26.4741 42.5004 26.8676 43.2125H15.3348C14.0118 43.2125 12.9355 42.1362 12.9355 40.8133C12.9355 39.4903 14.0117 38.4141 15.3348 38.4141Z" fill="#0A488A"/>
<path d="M15.3348 25.1309H17.7511C18.4632 25.1309 19.0402 24.5539 19.0402 23.8418C19.0402 23.1297 18.4632 22.5527 17.7511 22.5527H15.3348C12.5902 22.5527 10.3574 24.7856 10.3574 27.5301C10.3574 30.2747 12.5902 32.5076 15.3348 32.5076H31.2273C31.2297 32.5076 31.2322 32.5072 31.2346 32.5072C33.9755 32.5031 36.2042 30.272 36.2042 27.5301C36.2042 24.7859 33.9718 22.5532 31.2279 22.5527C31.2277 22.5527 31.2275 22.5527 31.2273 22.5527H23.7717C23.0597 22.5527 22.4827 23.1297 22.4827 23.8418C22.4827 24.5539 23.0597 25.1309 23.7717 25.1309H26.8676C26.4741 25.8429 26.2495 26.6605 26.2495 27.5301C26.2495 28.3996 26.4741 29.2174 26.8677 29.9294H15.3348C14.0118 29.9294 12.9355 28.853 12.9355 27.5301C12.9355 26.2071 14.0117 25.1309 15.3348 25.1309ZM33.626 27.5301C33.626 28.853 32.5497 29.9293 31.2268 29.9293C29.9039 29.9293 28.8276 28.853 28.8276 27.5301C28.8276 26.2071 29.9039 25.1309 31.2268 25.1309C32.5497 25.1309 33.626 26.2071 33.626 27.5301Z" fill="#0A488A"/>
<path d="M54.0889 53.9238C54.8009 53.9238 55.3779 53.3468 55.3779 52.6348C55.3779 51.9227 54.8009 51.3457 54.0889 51.3457H51.0781C50.366 51.3457 49.7891 51.9227 49.7891 52.6348C49.7891 53.3468 50.366 53.9238 51.0781 53.9238H54.0889Z" fill="#0A488A"/>
<path d="M44.6992 57.8066C44.6992 58.5187 45.2762 59.0957 45.9883 59.0957H54.0893C54.8013 59.0957 55.3783 58.5187 55.3783 57.8066C55.3783 57.0946 54.8013 56.5176 54.0893 56.5176H45.9883C45.2764 56.5176 44.6992 57.0946 44.6992 57.8066Z" fill="#0A488A"/>
<path d="M64.8086 57.8071V57.7891C64.8086 57.077 64.2316 56.5 63.5195 56.5C62.8075 56.5 62.2305 57.077 62.2305 57.7891V57.8071C62.2305 58.5192 62.8075 59.0962 63.5195 59.0962C64.2316 59.0962 64.8086 58.5192 64.8086 57.8071Z" fill="#0A488A"/>
<path d="M69.541 57.8071V57.7891C69.541 57.077 68.964 56.5 68.252 56.5C67.5399 56.5 66.9629 57.077 66.9629 57.7891V57.8071C66.9629 58.5192 67.5399 59.0962 68.252 59.0962C68.964 59.0962 69.541 58.5192 69.541 57.8071Z" fill="#0A488A"/>
<path d="M74.2734 57.8071V57.7891C74.2734 57.077 73.6965 56.5 72.9844 56.5C72.2723 56.5 71.6953 57.077 71.6953 57.7891V57.8071C71.6953 58.5192 72.2723 59.0962 72.9844 59.0962C73.6965 59.0962 74.2734 58.5192 74.2734 57.8071Z" fill="#0A488A"/>
</svg>
