<svg width="88" height="88" viewBox="0 0 88 88" fill="none" xmlns="http://www.w3.org/2000/svg">
<g clip-path="url(#clip0_791_748)">
<path d="M81.9974 10.6855H5.99804C3.39743 10.6855 1.28906 12.7939 1.28906 15.3945V23.0225L6.73605 32.7972H78.1749L86.7065 23.0225V15.3945C86.7064 12.7939 84.598 10.6855 81.9974 10.6855Z" fill="#F8F7F8"/>
<path d="M86.7064 23.0234V72.6036C86.7064 75.206 84.598 77.3143 81.9974 77.3143H5.99804C3.39743 77.3143 1.28906 75.206 1.28906 72.6036V23.0234H86.7064Z" fill="#F8F7F8"/>
<path d="M12.6753 39.0039L25.9244 44.0003V64.1511C25.8435 64.1511 25.7609 64.1081 25.7179 64.0255L12.6856 39.195C12.6546 39.133 12.6529 39.0641 12.6753 39.0039Z" fill="#1276DF"/>
<path d="M25.9258 44.0003L39.1749 39.0039C39.1973 39.0641 39.1956 39.133 39.1629 39.195L26.1323 64.0255C26.0893 64.1081 26.0067 64.1511 25.9258 64.1511V44.0003Z" fill="#1276DF"/>
<path d="M12.81 38.8674L25.8423 33.9537C25.8957 33.9347 25.9542 33.9347 26.0058 33.9537L39.0381 38.8674C39.1035 38.8933 39.1517 38.9432 39.1741 39.0034L25.9249 43.9998L12.6758 39.0034C12.6982 38.9432 12.7446 38.8933 12.81 38.8674Z" fill="#1276DF"/>
<path d="M79.9831 38.548C80.4972 38.548 80.9141 38.1311 80.9141 37.617V34.4563C80.9141 33.9422 80.4972 33.5254 79.9831 33.5254H46.095C45.5809 33.5254 45.1641 33.9422 45.1641 34.4563V37.617C45.1641 38.1311 45.5809 38.548 46.095 38.548H79.9831Z" fill="#EFEDEE"/>
<path d="M79.9831 52.4034C80.4972 52.4034 80.9141 51.9866 80.9141 51.4725V48.3118C80.9141 47.7977 80.4972 47.3809 79.9831 47.3809H46.095C45.5809 47.3809 45.1641 47.7977 45.1641 48.3118V51.4725C45.1641 51.9866 45.5809 52.4034 46.095 52.4034H79.9831Z" fill="#EFEDEE"/>
<path d="M80.0144 66.2569C80.5285 66.2569 80.9453 65.8401 80.9453 65.326V62.1653C80.9453 61.6512 80.5285 61.2344 80.0144 61.2344H46.1263C45.6122 61.2344 45.1953 61.6512 45.1953 62.1653V65.326C45.1953 65.8401 45.6122 66.2569 46.1263 66.2569H80.0144Z" fill="#EFEDEE"/>
<path d="M69.9149 40.2791C72.2583 40.2791 74.158 38.3794 74.158 36.036C74.158 33.6927 72.2583 31.793 69.9149 31.793C67.5716 31.793 65.6719 33.6927 65.6719 36.036C65.6719 38.3794 67.5716 40.2791 69.9149 40.2791Z" fill="#1276DF"/>
<path d="M54.2899 54.1346C56.6333 54.1346 58.533 52.2349 58.533 49.8915C58.533 47.5481 56.6333 45.6484 54.2899 45.6484C51.9466 45.6484 50.0469 47.5481 50.0469 49.8915C50.0469 52.2349 51.9466 54.1346 54.2899 54.1346Z" fill="#1276DF"/>
<path d="M68.4462 67.9881C70.7896 67.9881 72.6893 66.0884 72.6893 63.745C72.6893 61.4016 70.7896 59.502 68.4462 59.502C66.1028 59.502 64.2031 61.4016 64.2031 63.745C64.2031 66.0884 66.1028 67.9881 68.4462 67.9881Z" fill="#1276DF"/>
<path d="M1.65625 23.0215H86.7056" stroke="#153F69" stroke-width="3" stroke-miterlimit="10" stroke-linecap="round" stroke-linejoin="round"/>
<path d="M9.09766 16.9922H9.70452" stroke="#153F69" stroke-width="3" stroke-miterlimit="10" stroke-linecap="round" stroke-linejoin="round"/>
<path d="M16.3789 16.9922H16.9858" stroke="#153F69" stroke-width="3" stroke-miterlimit="10" stroke-linecap="round" stroke-linejoin="round"/>
<path d="M23.6641 16.9922H24.2708" stroke="#153F69" stroke-width="3" stroke-miterlimit="10" stroke-linecap="round" stroke-linejoin="round"/>
<path d="M13.3594 39.2611L25.9211 43.9981L38.6524 39.1973" stroke="#153F69" stroke-width="3" stroke-miterlimit="10" stroke-linecap="round" stroke-linejoin="round"/>
<path d="M12.807 38.8686L25.8387 33.9544C25.8917 33.9345 25.95 33.9345 26.003 33.9544L39.0346 38.8686C39.1656 38.918 39.2236 39.0708 39.1587 39.1947L26.1271 64.0251C26.0399 64.1913 25.802 64.1913 25.7147 64.0251L12.6831 39.1945C12.6179 39.0708 12.6761 38.918 12.807 38.8686Z" stroke="#153F69" stroke-width="3" stroke-miterlimit="10" stroke-linecap="round" stroke-linejoin="round"/>
<path d="M25.9219 43.998V63.1126" stroke="#153F69" stroke-width="3" stroke-miterlimit="10" stroke-linecap="round" stroke-linejoin="round"/>
<path d="M66.497 33.5234H46.095C45.5809 33.5234 45.1641 33.9403 45.1641 34.4544V37.615C45.1641 38.1291 45.5809 38.546 46.095 38.546H66.497" stroke="#153F69" stroke-width="3" stroke-miterlimit="10" stroke-linecap="round" stroke-linejoin="round"/>
<path d="M73.3359 38.546H79.9829C80.497 38.546 80.9138 38.1291 80.9138 37.615V34.4544C80.9138 33.9403 80.497 33.5234 79.9829 33.5234H73.3359" stroke="#153F69" stroke-width="3" stroke-miterlimit="10" stroke-linecap="round" stroke-linejoin="round"/>
<path d="M69.9188 40.2791C72.2622 40.2791 74.1619 38.3794 74.1619 36.036C74.1619 33.6927 72.2622 31.793 69.9188 31.793C67.5755 31.793 65.6758 33.6927 65.6758 36.036C65.6758 38.3794 67.5755 40.2791 69.9188 40.2791Z" stroke="#153F69" stroke-width="3" stroke-miterlimit="10" stroke-linecap="round" stroke-linejoin="round"/>
<path d="M50.8673 47.3789H46.095C45.5809 47.3789 45.1641 47.7958 45.1641 48.3099V51.4705C45.1641 51.9846 45.5809 52.4015 46.095 52.4015H50.8673" stroke="#153F69" stroke-width="3" stroke-miterlimit="10" stroke-linecap="round" stroke-linejoin="round"/>
<path d="M57.707 52.4015H79.9834C80.4975 52.4015 80.9144 51.9848 80.9144 51.4705V48.3099C80.9144 47.7958 80.4975 47.3789 79.9834 47.3789H57.707" stroke="#153F69" stroke-width="3" stroke-miterlimit="10" stroke-linecap="round" stroke-linejoin="round"/>
<path d="M54.286 54.1326C56.6294 54.1326 58.5291 52.2329 58.5291 49.8896C58.5291 47.5462 56.6294 45.6465 54.286 45.6465C51.9427 45.6465 50.043 47.5462 50.043 49.8896C50.043 52.2329 51.9427 54.1326 54.286 54.1326Z" stroke="#153F69" stroke-width="3" stroke-miterlimit="10" stroke-linecap="round" stroke-linejoin="round"/>
<path d="M71.8633 66.2568H79.9823C80.4964 66.2568 80.9133 65.8399 80.9133 65.3258V62.1652C80.9133 61.6511 80.4964 61.2344 79.9823 61.2344H71.8633" stroke="#153F69" stroke-width="3" stroke-miterlimit="10" stroke-linecap="round" stroke-linejoin="round"/>
<path d="M65.0247 61.2344H46.095C45.5809 61.2344 45.1641 61.6511 45.1641 62.1652V65.3258C45.1641 65.8399 45.5809 66.2568 46.095 66.2568H65.0247" stroke="#153F69" stroke-width="3" stroke-miterlimit="10" stroke-linecap="round" stroke-linejoin="round"/>
<path d="M68.4462 67.9881C70.7896 67.9881 72.6893 66.0884 72.6893 63.745C72.6893 61.4016 70.7896 59.502 68.4462 59.502C66.1028 59.502 64.2031 61.4016 64.2031 63.745C64.2031 66.0884 66.1028 67.9881 68.4462 67.9881Z" stroke="#153F69" stroke-width="3" stroke-miterlimit="10" stroke-linecap="round" stroke-linejoin="round"/>
<path d="M86.7076 31.7642V15.3956C86.7076 12.7943 84.5989 10.6855 81.9976 10.6855H18.1602" stroke="#153F69" stroke-width="3" stroke-miterlimit="10" stroke-linecap="round" stroke-linejoin="round"/>
<path d="M18.3594 77.3141H81.9963C84.5976 77.3141 86.7063 75.2054 86.7063 72.6041V37.2656" stroke="#153F69" stroke-width="3" stroke-miterlimit="10" stroke-linecap="round" stroke-linejoin="round"/>
<path d="M12.6589 10.6855H5.99907C3.39777 10.6855 1.28906 12.7943 1.28906 15.3956V72.6036C1.28906 75.2049 3.39777 77.3136 5.99907 77.3136H12.8593" stroke="#153F69" stroke-width="3" stroke-miterlimit="10" stroke-linecap="round" stroke-linejoin="round"/>
</g>
<defs>
<clipPath id="clip0_791_748">
<rect width="88" height="88" fill="white"/>
</clipPath>
</defs>
</svg>
