<svg width="88" height="88" viewBox="0 0 88 88" fill="none" xmlns="http://www.w3.org/2000/svg">
<mask id="mask0_791_625" style="mask-type:luminance" maskUnits="userSpaceOnUse" x="0" y="0" width="88" height="88">
<path d="M0 7.62939e-06H88V88H0V7.62939e-06Z" fill="white"/>
</mask>
<g mask="url(#mask0_791_625)">
<path d="M19.6504 59.2965C20.3138 58.793 21.0443 58.3701 21.8332 58.0384L34.1034 52.7034C36.4476 51.6842 37.9637 49.3708 37.9637 46.8133V45.6273H50.0362V46.7531C50.0362 49.3209 51.5676 51.643 53.929 52.657L66.3437 57.9783C67.0879 58.3065 67.7788 58.719 68.4079 59.202L66.2875 66.5033L43.9999 77.2852L24.1992 68.3709L19.6504 59.2965Z" fill="#FD8087"/>
<path d="M43.9996 72.7982C28.1311 72.7982 15.2673 59.9048 15.2673 44C15.2673 28.0952 28.1311 15.2018 43.9996 15.2018C59.8682 15.2018 72.732 28.0952 72.732 44C72.732 59.9048 59.8682 72.7982 43.9996 72.7982ZM83.942 54.2704L81.0004 52.5681C79.9659 51.9695 79.4019 50.7959 79.5865 49.6129C79.8722 47.7838 80.0212 45.9095 80.0212 44C80.0212 42.0905 79.8722 40.2162 79.5865 38.3871C79.4019 37.2039 79.9659 36.0305 81.0004 35.4317L83.942 33.7296C85.3285 32.9273 85.8036 31.1505 85.0028 29.7607L76.8046 15.5282C76.0043 14.1386 74.2314 13.6625 72.8449 14.4648L69.9002 16.1688C68.8648 16.7681 67.567 16.6702 66.6373 15.9165C63.7417 13.5692 60.4761 11.6631 56.9417 10.2989C55.8274 9.8689 55.0966 8.79124 55.0966 7.59465V4.19445C55.0966 2.58982 53.7989 1.28907 52.1979 1.28907H35.8014C34.2004 1.28907 32.9027 2.58982 32.9027 4.19445V7.59465C32.9027 8.79124 32.1719 9.86907 31.0576 10.2989C27.5232 11.6631 24.2574 13.5692 21.362 15.9165C20.4323 16.6702 19.1345 16.7681 18.0991 16.1688L15.1544 14.4648C13.7679 13.6625 11.995 14.1386 11.1947 15.5282L2.99646 29.7607C2.1957 31.1505 2.67076 32.9273 4.05727 33.7296L6.99892 35.4319C8.03343 36.0305 8.59735 37.2039 8.41276 38.3871C8.1271 40.2162 7.97809 42.0905 7.97809 44C7.97809 45.9095 8.1271 47.7838 8.41276 49.6129C8.59735 50.7959 8.03343 51.9695 6.99892 52.5681L4.05727 54.2704C2.67076 55.0727 2.1957 56.8496 2.99646 58.2392L11.1947 72.4716C11.995 73.8614 13.7679 74.3375 15.1544 73.5352L18.0991 71.8312C19.1345 71.2319 20.4323 71.3298 21.362 72.0835C24.2574 74.4308 27.5232 76.3367 31.0576 77.7009C32.1719 78.1309 32.9027 79.2088 32.9027 80.4054V83.8054C32.9027 85.41 34.2004 86.7109 35.8014 86.7109H52.1979C53.7989 86.7109 55.0966 85.41 55.0966 83.8054V80.4054C55.0966 79.2086 55.8274 78.1309 56.9417 77.7009C60.4761 76.3367 63.7419 74.4308 66.6373 72.0835C67.567 71.3298 68.8648 71.2319 69.9002 71.8312L72.8449 73.5352C74.2314 74.3375 76.0043 73.8614 76.8046 72.4716L85.0028 58.2392C85.8036 56.8496 85.3285 55.0727 83.942 54.2704Z" fill="#B5ADB6"/>
<path d="M49.9397 4.19453V7.59473C49.9397 8.79132 50.6705 9.86898 51.7846 10.299C55.3192 11.6632 58.5848 13.5691 61.4804 15.9166C62.4101 16.6702 63.7077 16.7682 64.7433 16.1689L66.021 15.4295C63.281 13.3049 60.2273 11.5674 56.9408 10.299C55.8267 9.86898 55.0959 8.79132 55.0959 7.59473V4.19453C55.0959 2.5899 53.7981 1.28915 52.1973 1.28915H47.041C48.6419 1.28915 49.9397 2.5899 49.9397 4.19453Z" fill="#A79BA7"/>
<path d="M83.9427 54.2714L81.0012 52.5692C79.9665 51.9705 79.4026 50.797 79.5872 49.614C79.8729 47.7849 80.0219 45.9104 80.0219 44.001C80.0219 42.0915 79.8729 40.217 79.5872 38.3879C79.4026 37.2049 79.9665 36.0314 81.0012 35.4327L83.9427 33.7306C85.3292 32.9283 85.8043 31.1513 85.0037 29.7617L76.8054 15.5292C76.005 14.1396 74.2321 13.6635 72.8458 14.4659L71.4727 15.2603C71.5354 15.346 71.595 15.4351 71.6492 15.5292L79.8474 29.7617C80.648 31.1513 80.173 32.9283 78.7865 33.7306L75.845 35.4327C74.8103 36.0314 74.2464 37.2049 74.431 38.3879C74.7166 40.217 74.8656 42.0915 74.8656 44.001C74.8656 45.9104 74.7166 47.7849 74.431 49.614C74.2464 50.797 74.8103 51.9705 75.845 52.5692L78.7865 54.2714C80.173 55.0737 80.648 56.8506 79.8474 58.2402L71.6492 72.4726C71.595 72.5668 71.5354 72.6559 71.4727 72.7416L72.8458 73.536C74.2321 74.3383 76.005 73.8623 76.8054 72.4726L85.0037 58.2402C85.8043 56.8506 85.3292 55.0737 83.9427 54.2714Z" fill="#A79BA7"/>
<path d="M64.7433 71.8312C63.7079 71.2319 62.4101 71.3298 61.4804 72.0837C58.585 74.4308 55.3192 76.3369 51.7846 77.7011C50.6705 78.1309 49.9397 79.2088 49.9397 80.4054V83.8056C49.9397 85.4102 48.6419 86.7109 47.041 86.7109H52.1973C53.7981 86.7109 55.0959 85.4102 55.0959 83.8056V80.4054C55.0959 79.2088 55.8268 78.1309 56.9408 77.7011C60.2274 76.4325 63.2811 74.6952 66.0212 72.5706L64.7433 71.8312Z" fill="#A79BA7"/>
<path d="M45.7052 58.768L53.9279 52.7008L53.9512 52.6639L53.9284 52.6541C51.5668 51.64 50.0354 49.3182 50.0354 46.7503V45.6244H37.9629V46.8103C37.9629 49.368 36.4471 51.6814 34.1026 52.7005L34.1016 52.701L43.1338 58.8199C43.9153 59.3493 44.9458 59.3285 45.7052 58.768Z" fill="#FFCEBF"/>
<path d="M50.0362 46.7519V45.6261H37.9637V46.812C37.9637 47.5107 37.847 48.1896 37.6348 48.8303C39.8423 51.2665 43.0315 52.7969 46.5781 52.7969C48.5674 52.7969 50.4422 52.3125 52.0965 51.46C50.808 50.2652 50.0362 48.5715 50.0362 46.7519Z" fill="#FFB09E"/>
<path d="M56.0662 31.418H31.9336V20.0574C31.9336 15.5082 35.6213 11.8204 40.1705 11.8204H47.8293C52.3785 11.8204 56.0662 15.5082 56.0662 20.0574V31.418Z" fill="#C59191"/>
<path d="M56.0662 25.643V35.5743C56.0662 42.2383 50.6638 47.6406 43.9999 47.6406C37.3358 47.6406 31.9336 42.2383 31.9336 35.5743V29.4145C31.9336 26.5464 34.8359 24.5896 37.4944 25.6649L43.266 27.9991C46.5378 29.3222 50.2383 29.0532 53.2841 27.2709L56.0662 25.643Z" fill="#FFCEBF"/>
<path d="M47.4295 41.6133H44.7272C43.4972 41.6133 42.5 40.6162 42.5 39.3861C42.5 38.1562 43.4972 37.159 44.7272 37.159H47.4295C48.6595 37.159 49.6567 38.1562 49.6567 39.3861C49.6567 40.6162 48.6595 41.6133 47.4295 41.6133Z" fill="#685E68"/>
<path d="M61.0568 20.8226C68.1398 26.0666 72.7323 34.4949 72.7323 43.9994C72.7323 59.9047 59.8691 72.7969 43.9999 72.7969C28.1307 72.7969 15.2676 59.9047 15.2676 43.9994C15.2676 34.4438 19.9096 25.9759 27.0575 20.7382" stroke="black" stroke-width="3" stroke-miterlimit="10" stroke-linecap="round" stroke-linejoin="round"/>
<path d="M80.0212 44C80.0212 42.0905 79.8722 40.2162 79.5867 38.3871C79.4018 37.2039 79.9659 36.0305 81.0004 35.4317L83.942 33.7296C85.3284 32.9273 85.8036 31.1505 85.0028 29.7607L76.8047 15.5284C76.0042 14.1388 74.2313 13.6625 72.8449 14.4648L69.9002 16.1688C68.8646 16.7681 67.567 16.6702 66.6373 15.9165C63.7419 13.5692 60.4759 11.6631 56.9415 10.2989C55.8274 9.8689 55.0966 8.79124 55.0966 7.59465V4.19444C55.0966 2.58982 53.7989 1.28907 52.1979 1.28907H35.8014C34.2004 1.28907 32.9026 2.58982 32.9026 4.19444V7.59465C32.9026 8.79124 32.1719 9.8689 31.0576 10.2989C27.5232 11.6631 24.2574 13.5692 21.362 15.9163C20.4323 16.6702 19.1345 16.7681 18.0991 16.1688L15.1544 14.4648C13.7679 13.6625 11.9952 14.1388 11.1946 15.5284L2.99631 29.7607C2.19571 31.1505 2.67095 32.9273 4.05729 33.7296L6.99893 35.4317C8.03344 36.0305 8.59736 37.2039 8.41277 38.3871C8.12711 40.2162 7.9781 42.0905 7.9781 44C7.9781 45.9095 8.12711 47.7838 8.41277 49.6129C8.59736 50.7961 8.03344 51.9695 6.99893 52.5683L4.05729 54.2704C2.67095 55.0727 2.19571 56.8495 2.99631 58.2393L11.1946 72.4716C11.9952 73.8612 13.7679 74.3375 15.1544 73.5352L18.0991 71.8312C19.1345 71.2319 20.4323 71.3298 21.362 72.0837C24.2574 74.4308 27.5234 76.3369 31.0578 77.7011C32.1719 78.1311 32.9026 79.2088 32.9026 80.4054V83.8056C32.9026 85.4102 34.2004 86.7109 35.8014 86.7109H52.1979C53.7989 86.7109 55.0966 85.4102 55.0966 83.8056V80.4052C55.0966 79.2088 55.8274 78.1309 56.9417 77.7011C60.4761 76.3369 63.7419 74.4308 66.6373 72.0837C67.567 71.3298 68.8648 71.2319 69.9002 71.8312L72.8449 73.5352C74.2313 74.3375 76.0042 73.8612 76.8047 72.4716L85.0028 58.2393C85.8036 56.8495 85.3284 55.0727 83.942 54.2704L81.0004 52.5683C79.9659 51.9695 79.4018 50.7961 79.5867 49.6129C79.8722 47.7838 80.0212 45.9095 80.0212 44Z" stroke="black" stroke-width="3" stroke-miterlimit="10" stroke-linecap="round" stroke-linejoin="round"/>
<path d="M50.0352 46.0216V46.7503C50.0352 49.3181 51.5666 51.6402 53.928 52.6542L66.3427 57.9755C67.0869 58.3038 67.7776 58.7163 68.4069 59.1992" stroke="black" stroke-width="3" stroke-miterlimit="10" stroke-linecap="round" stroke-linejoin="round"/>
<path d="M37.9637 46.0247V46.8136C37.9637 49.3711 36.4477 51.6845 34.1034 52.7037L21.8332 58.0388C21.0445 58.3705 20.314 58.7933 19.6504 59.2969" stroke="black" stroke-width="3" stroke-miterlimit="10" stroke-linecap="round" stroke-linejoin="round"/>
<path d="M31.9336 28.8398V20.0574C31.9336 15.5082 35.6213 11.8204 40.1705 11.8204H47.8293C52.3785 11.8204 56.0662 15.5082 56.0662 20.0574V28.8398" stroke="black" stroke-width="3" stroke-miterlimit="10" stroke-linecap="round" stroke-linejoin="round"/>
<path d="M56.0662 25.643V35.5743C56.0662 42.2383 50.6638 47.6406 43.9999 47.6406C37.3358 47.6406 31.9336 42.2383 31.9336 35.5743V29.4145C31.9336 26.5464 34.8359 24.5896 37.4944 25.6649L43.266 27.9991C46.5378 29.3222 50.2383 29.0532 53.2841 27.2709L56.0662 25.643Z" stroke="black" stroke-width="3" stroke-miterlimit="10" stroke-linecap="round" stroke-linejoin="round"/>
<path d="M34.1016 52.7008L43.1343 58.8199C43.9158 59.3493 44.946 59.3285 45.7057 58.768L53.928 52.7008" stroke="black" stroke-width="3" stroke-miterlimit="10" stroke-linecap="round" stroke-linejoin="round"/>
<path d="M56.0656 33.4142C55.7136 34.3092 54.8852 36.0529 53.0852 37.5377C51.7911 38.605 50.4959 39.1256 49.6562 39.3867" stroke="black" stroke-width="3" stroke-miterlimit="10" stroke-linecap="round" stroke-linejoin="round"/>
<path d="M47.4295 41.6133H44.7272C43.4972 41.6133 42.5 40.6162 42.5 39.3861C42.5 38.1562 43.4972 37.159 44.7272 37.159H47.4295C48.6595 37.159 49.6567 38.1562 49.6567 39.3861C49.6567 40.6162 48.6595 41.6133 47.4295 41.6133Z" stroke="black" stroke-width="3" stroke-miterlimit="10" stroke-linecap="round" stroke-linejoin="round"/>
</g>
</svg>
