<svg width="88" height="88" viewBox="0 0 88 88" fill="none" xmlns="http://www.w3.org/2000/svg">
<g clip-path="url(#clip0_770_3411)">
<path d="M68.9316 72.3084H9.97569C8.03883 72.3084 6.46875 70.7383 6.46875 68.8014V37.6788C6.46875 35.742 8.03883 34.1719 9.97569 34.1719H68.9314C70.8683 34.1719 72.4383 35.742 72.4383 37.6788V68.8014C72.4385 70.7381 70.8684 72.3084 68.9316 72.3084Z" fill="#26A6FE"/>
<path d="M68.93 34.1719H61.1875C63.1244 34.1719 64.6944 35.742 64.6944 37.6788V68.8014C64.6944 70.7383 63.1244 72.3084 61.1875 72.3084H68.93C70.8668 72.3084 72.4369 70.7383 72.4369 68.8014V37.679C72.4369 35.7421 70.8668 34.1719 68.93 34.1719Z" fill="#0593FC"/>
<path d="M67.7969 67.6677V38.8125L11.1084 38.8125L11.1084 67.6677L67.7969 67.6677Z" fill="#F1FCFF"/>
<path d="M67.7969 67.6677V38.8125L11.1084 38.8125L11.1084 67.6677L67.7969 67.6677Z" fill="#F1FCFF"/>
<path d="M67.7971 38.8125H64.6953V67.6677H67.7971V38.8125Z" fill="#F1FCFF"/>
<path d="M36.3594 63.0279V50.9961L15.7486 50.9961L15.7486 63.0279H36.3594Z" fill="#1276DF"/>
<path d="M67.7969 46.1191V38.8125L11.1084 38.8125V46.1191L67.7969 46.1191Z" fill="#B3DAFE"/>
<path d="M67.0569 46.1197C77.9119 46.1197 86.7115 37.3201 86.7115 26.4651C86.7115 15.6102 77.9119 6.81055 67.0569 6.81055C56.202 6.81055 47.4023 15.6102 47.4023 26.4651C47.4023 37.3201 56.202 46.1197 67.0569 46.1197Z" fill="#1276DF"/>
<path d="M86.7128 26.4645C86.7128 37.3201 77.9128 46.1201 67.0589 46.1201C65.6856 46.1201 64.345 45.9791 63.0508 45.711C71.9831 43.8599 78.6966 35.9468 78.6966 26.4645C78.6966 16.9838 71.9831 9.0707 63.0508 7.21961C64.345 6.95148 65.6856 6.81055 67.0589 6.81055C77.9128 6.81055 86.7128 15.6105 86.7128 26.4645Z" fill="#1276DF"/>
<path d="M75.5846 72.3086H3.32011C2.19845 72.3086 1.28906 73.218 1.28906 74.3396V79.1571C1.28906 80.2788 2.19845 81.1882 3.32011 81.1882H75.5846C76.7063 81.1882 77.6157 80.2788 77.6157 79.1571V74.3396C77.6157 73.218 76.7063 72.3086 75.5846 72.3086Z" fill="#60B7FF"/>
<path d="M75.5862 72.3086H67.8438C68.9654 72.3086 69.8748 73.218 69.8748 74.3396V79.1571C69.8748 80.2788 68.9654 81.1882 67.8438 81.1882H75.5862C76.7079 81.1882 77.6173 80.2788 77.6173 79.1571V74.3396C77.6173 73.218 76.7079 72.3086 75.5862 72.3086Z" fill="#26A6FE"/>
<path d="M46.7649 72.3086H32.1406C32.1406 74.7606 34.1284 76.7483 36.5803 76.7483H42.3251C44.7772 76.7483 46.7649 74.7606 46.7649 72.3086Z" fill="#1276DF"/>
<path d="M72.4378 45.3747V68.803C72.4378 70.7383 70.8686 72.3092 68.9316 72.3092H9.975C8.03797 72.3092 6.46875 70.7383 6.46875 68.803V37.6798C6.46875 35.7428 8.03797 34.1719 9.975 34.1719H48.9717" stroke="#0A488A" stroke-width="3" stroke-miterlimit="10" stroke-linecap="round" stroke-linejoin="round"/>
<path d="M67.7972 46.1052V67.6686H11.1094V38.8125H51.7664" stroke="#0A488A" stroke-width="3" stroke-miterlimit="10" stroke-linecap="round" stroke-linejoin="round"/>
<path d="M36.3594 63.0279V50.9961L15.7486 50.9961L15.7486 63.0279H36.3594Z" stroke="#0A488A" stroke-width="3" stroke-miterlimit="10" stroke-linecap="round" stroke-linejoin="round"/>
<path d="M67.7972 46.1052V46.1206H67.0581H11.1094V38.8125H51.7664" stroke="#0A488A" stroke-width="3" stroke-miterlimit="10" stroke-linecap="round" stroke-linejoin="round"/>
<path d="M67.0569 46.1197C77.9119 46.1197 86.7115 37.3201 86.7115 26.4651C86.7115 15.6102 77.9119 6.81055 67.0569 6.81055C56.202 6.81055 47.4023 15.6102 47.4023 26.4651C47.4023 37.3201 56.202 46.1197 67.0569 46.1197Z" stroke="#0A488A" stroke-width="3" stroke-miterlimit="10" stroke-linecap="round" stroke-linejoin="round"/>
<path d="M56.8672 24.7467C57.6853 19.8593 61.9353 16.1348 67.0551 16.1348C72.7603 16.1348 77.3851 20.7598 77.3851 26.4648C77.3851 32.1698 72.7601 36.7948 67.0551 36.7948C62.6015 36.7948 58.8061 33.9764 57.3551 30.0259" stroke="white" stroke-width="3" stroke-miterlimit="10" stroke-linecap="round" stroke-linejoin="round"/>
<path d="M56.1055 35.3814L57.3605 30.0117L62.7304 31.2666" stroke="white" stroke-width="3" stroke-miterlimit="10" stroke-linecap="round" stroke-linejoin="round"/>
<path d="M75.5846 72.3086H3.32011C2.19845 72.3086 1.28906 73.218 1.28906 74.3396V79.1571C1.28906 80.2788 2.19845 81.1882 3.32011 81.1882H75.5846C76.7063 81.1882 77.6157 80.2788 77.6157 79.1571V74.3396C77.6157 73.218 76.7063 72.3086 75.5846 72.3086Z" stroke="#0A488A" stroke-width="3" stroke-miterlimit="10" stroke-linecap="round" stroke-linejoin="round"/>
<path d="M46.765 72.3086H32.1406C32.1406 74.7606 34.1284 76.7483 36.5803 76.7483H42.3251C44.7772 76.7483 46.765 74.7606 46.765 72.3086Z" stroke="#0A488A" stroke-width="3" stroke-miterlimit="10" stroke-linecap="round" stroke-linejoin="round"/>
<path d="M42.2773 50.9961H47.4021" stroke="#0A488A" stroke-width="3" stroke-miterlimit="10" stroke-linecap="round" stroke-linejoin="round"/>
<path d="M42.2773 55.3926H55.6081" stroke="#0A488A" stroke-width="3" stroke-miterlimit="10" stroke-linecap="round" stroke-linejoin="round"/>
<path d="M42.2773 59.7871H55.6081" stroke="#0A488A" stroke-width="3" stroke-miterlimit="10" stroke-linecap="round" stroke-linejoin="round"/>
</g>
<defs>
<clipPath id="clip0_770_3411">
<rect width="88" height="88" fill="white"/>
</clipPath>
</defs>
</svg>
