<svg width="88" height="88" viewBox="0 0 88 88" fill="none" xmlns="http://www.w3.org/2000/svg">
<g clip-path="url(#clip0_766_2549)">
<path fill-rule="evenodd" clip-rule="evenodd" d="M41.5279 2.44365C32.9211 10.507 22.2282 15.3841 8.90256 15.4377C7.26133 15.4475 5.86914 16.6362 5.86914 18.5315V34.5803C5.86914 54.5366 9.60106 71.7108 41.1322 85.801C43.8432 87.0141 44.1558 87.0141 46.867 85.801C78.398 71.7108 82.1301 54.5366 82.1301 34.5803V18.5315C82.1301 16.6362 80.7379 15.4474 79.0967 15.4377C65.776 15.3841 55.0783 10.5072 46.4713 2.44383C44.8251 0.90417 43.1741 0.90417 41.5279 2.44365Z" fill="#1276DF"/>
<path fill-rule="evenodd" clip-rule="evenodd" d="M44.0005 9.90234C35.0713 17.4006 24.7008 21.6393 13.0996 22.492V34.5798C13.0996 39.9342 13.3585 45.4543 14.6968 50.6627C18.468 65.3229 30.8849 73.3084 44.0005 79.1793C57.1161 73.3084 69.533 65.3229 73.3042 50.6627C74.6425 45.4543 74.9014 39.9342 74.9014 34.5798V22.492C63.3002 21.6393 52.9297 17.4006 44.0005 9.90234Z" fill="white"/>
<path fill-rule="evenodd" clip-rule="evenodd" d="M51.654 52.709H36.3451H36.0227C34.4302 52.709 33.1309 54.0099 33.1309 55.5932V58.7016C33.1309 64.6651 38.0205 69.5421 43.9994 69.5421C49.9782 69.5421 54.8679 64.6651 54.8679 58.7016V55.5932C54.8679 54.0097 53.5685 52.709 51.9761 52.709H51.654Z" fill="#1276DF"/>
<path fill-rule="evenodd" clip-rule="evenodd" d="M68.1839 47.2335C64.3298 62.23 51.6344 70.3908 38.2207 76.3981C38.1817 76.3787 38.1425 76.3641 38.1035 76.3445C40.033 77.3481 42.0113 78.2884 43.9993 79.1801C57.115 73.3092 69.5319 65.3237 73.303 50.6635C74.6414 45.4551 74.9002 39.935 74.9002 34.5806V22.4928C73.1808 22.3661 71.4858 22.1614 69.8201 21.8887V30.7901C69.8203 36.2664 69.5565 41.9131 68.1839 47.2335Z" fill="white"/>
<path fill-rule="evenodd" clip-rule="evenodd" d="M79.0971 15.4374C76.7134 15.4276 74.4127 15.262 72.195 14.9551V22.2292C73.0889 22.3364 73.9926 22.4241 74.9012 22.4923V34.5801C74.9012 39.9345 74.6423 45.4546 73.3039 50.663C69.5326 65.323 57.1157 73.3085 44.0001 79.1794C43.2478 78.8432 42.5005 78.5022 41.7532 78.1465C40.2194 78.9211 38.6123 79.6811 36.9271 80.4364C34.2161 81.6494 33.9035 81.6494 31.1923 80.4364C30.4742 80.1148 29.7709 79.7932 29.082 79.4668C32.5599 81.6446 36.5557 83.7542 41.1327 85.8006C43.8437 87.0137 44.1563 87.0137 46.8675 85.8006C78.3985 71.7104 82.1306 54.5362 82.1306 34.5799V18.5311C82.1306 16.6358 80.7384 15.447 79.0971 15.4374Z" fill="#1276DF"/>
<path fill-rule="evenodd" clip-rule="evenodd" d="M54.8688 55.5932C54.8688 54.0097 53.5694 52.709 51.977 52.709H51.6545H46.8479C48.4403 52.709 49.7397 54.0099 49.7397 55.5932V58.7016C49.7397 63.7832 46.1884 68.0756 41.4355 69.2351C42.2611 69.4348 43.116 69.5421 44.0001 69.5421C49.9791 69.5421 54.8686 64.6651 54.8686 58.7016L54.8688 55.5932Z" fill="#1276DF"/>
<path d="M36.3457 52.7097V49.5477C36.3457 45.3479 39.7894 41.918 44.0002 41.918C48.2109 41.918 51.6546 45.3479 51.6546 49.5477V52.7097" stroke="#0A488A" stroke-width="3" stroke-miterlimit="10" stroke-linecap="round" stroke-linejoin="round"/>
<path d="M36.0225 52.709H51.9761C53.5685 52.709 54.8679 54.0099 54.8679 55.5932V58.7016C54.8679 64.6651 49.9782 69.5421 43.9994 69.5421C38.0205 69.5421 33.1309 64.6651 33.1309 58.7016V55.5932C33.1307 54.0097 34.4299 52.709 36.0225 52.709Z" stroke="#0A488A" stroke-width="3" stroke-miterlimit="10" stroke-linecap="round" stroke-linejoin="round"/>
<path d="M44 60.082V62.177" stroke="#0A488A" stroke-width="3" stroke-miterlimit="10" stroke-linecap="round" stroke-linejoin="round"/>
<path d="M54.584 24.4062V36.0506C54.711 36.075 60.2552 36.0506 60.2552 36.0506" stroke="#0A488A" stroke-width="3" stroke-miterlimit="10" stroke-linecap="round" stroke-linejoin="round"/>
<path d="M47.3992 25.6057C47.3992 25.6057 45.3037 23.8469 42.832 24.5923C40.5607 25.2745 40.243 27.886 41.8843 28.953C41.8843 28.953 43.4963 29.6692 45.2841 30.3269C49.5875 31.9104 47.7315 36.0614 44.2682 36.0614C42.5341 36.0614 41.0785 35.3013 40.1992 34.3318" stroke="#0A488A" stroke-width="3" stroke-miterlimit="10" stroke-linecap="round" stroke-linejoin="round"/>
<path d="M34.7373 25.6057C34.7373 25.6057 32.6418 23.8469 30.1701 24.5923C27.8987 25.2745 27.5811 27.886 29.2223 28.953C29.2223 28.953 30.8344 29.6692 32.6222 30.3269C36.9256 31.9104 35.0743 36.0614 31.6111 36.0614C29.877 36.0614 28.4164 35.3013 27.5371 34.3318" stroke="#0A488A" stroke-width="3" stroke-miterlimit="10" stroke-linecap="round" stroke-linejoin="round"/>
<path d="M5.86914 28.6266V18.5315C5.86914 16.6362 7.26133 15.4474 8.90256 15.4377C22.2282 15.3841 32.9209 10.5071 41.5279 2.4438C43.1741 0.904148 44.8251 0.904148 46.4712 2.4438C55.0782 10.5071 65.7757 15.3843 79.0965 15.4377C80.7377 15.4475 82.1299 16.6362 82.1299 18.5315V34.5803C82.1299 54.5365 78.398 71.7108 46.8668 85.8009C44.1558 87.014 43.8432 87.014 41.132 85.8009C9.60123 71.7108 5.86914 54.5365 5.86914 34.5803" stroke="#0A488A" stroke-width="3" stroke-miterlimit="10" stroke-linecap="round" stroke-linejoin="round"/>
<path d="M74.9014 34.7211V22.492C63.3002 21.6393 52.9298 17.4006 44.0005 9.90234C35.0713 17.4006 24.7008 21.6393 13.0996 22.492V34.5798C13.0996 39.9342 13.3585 45.4543 14.6968 50.6627C18.468 65.3229 30.8849 73.3084 44.0005 79.1793C57.1161 73.3084 69.533 65.3229 73.3042 50.6627C74.1297 47.4569 74.5449 44.1292 74.7403 40.7965" stroke="#0A488A" stroke-width="3" stroke-miterlimit="10" stroke-linecap="round" stroke-linejoin="round"/>
</g>
<defs>
<clipPath id="clip0_766_2549">
<rect width="88" height="88" fill="white"/>
</clipPath>
</defs>
</svg>
