<svg width="88" height="88" viewBox="0 0 88 88" fill="none" xmlns="http://www.w3.org/2000/svg">
<mask id="mask0_770_3232" style="mask-type:luminance" maskUnits="userSpaceOnUse" x="0" y="0" width="88" height="88">
<path d="M0 7.62939e-06H88V88H0V7.62939e-06Z" fill="white"/>
</mask>
<g mask="url(#mask0_770_3232)">
<path d="M58.9487 78.1182C54.3325 79.9866 49.2864 81.0156 44.0002 81.0156C21.9842 81.0156 4.13672 63.1681 4.13672 41.152C4.13672 19.1362 21.9842 1.28849 44.0002 1.28849C66.0162 1.28849 83.8639 19.1362 83.8639 41.152C83.8639 49.1364 81.5164 56.5726 77.4741 62.808L58.9487 78.1182Z" fill="#EEF2F5"/>
<path d="M44 1.28849C43.3372 1.28849 42.6785 1.3055 42.0234 1.33748C63.1211 2.36787 79.9105 19.7989 79.9105 41.152C79.9105 49.1364 77.5631 56.5726 73.5207 62.808L54.9954 78.118C50.9602 79.7513 46.5969 80.743 42.0317 80.9668C42.684 80.9986 43.34 81.0156 44 81.0156C49.2862 81.0156 54.3321 79.9866 58.9485 78.118L77.4739 62.808C81.5162 56.5726 83.8637 49.1364 83.8637 41.152C83.8637 19.136 66.0162 1.28849 44 1.28849Z" fill="#D3E6F5"/>
<path d="M58.3534 72.1688C53.9895 74.1916 49.1269 75.3203 44.0008 75.3203C25.1299 75.3203 9.83203 60.0226 9.83203 41.1516C9.83203 22.2807 25.1299 6.98282 44.0008 6.98282C62.8716 6.98282 78.1695 22.2807 78.1695 41.1516C78.1695 48.5982 75.7875 55.4885 71.7436 61.1018" fill="#1276DF"/>
<path d="M58.3534 72.1688C53.9895 74.1916 49.1269 75.3203 44.0008 75.3203C25.1299 75.3203 9.83203 60.0226 9.83203 41.1516C9.83203 22.2807 25.1299 6.98282 44.0008 6.98282C62.8716 6.98282 78.1695 22.2807 78.1695 41.1516C78.1695 48.5982 75.7875 55.4885 71.7436 61.1018L58.3534 72.1688Z" fill="#5893D4"/>
<path d="M44.001 6.98477C43.3145 6.98477 42.6335 7.00746 41.957 7.04733C59.876 8.10488 74.082 22.9691 74.082 41.1535C74.082 41.3603 74.0801 41.5669 74.0763 41.7728C73.9144 50.8861 69.6623 59.4457 62.6365 65.2523L58.4249 68.7333C53.934 72.4449 48.4262 74.7606 42.6177 75.2152C42.4003 75.2322 42.182 75.2472 41.9636 75.26C42.6378 75.2998 43.3167 75.3223 44.001 75.3223C49.1271 75.3223 53.9897 74.1934 58.3536 72.1708L71.7438 61.1037C75.7875 55.4903 78.1697 48.6 78.1697 41.1535C78.1697 22.2827 62.8718 6.98477 44.001 6.98477Z" fill="#4876C7"/>
<path d="M52.5425 61.0865H35.4581L24.0685 61.0872C21.7239 61.0872 19.5456 61.7962 17.7344 63.0107C18.3947 63.8022 19.0948 64.5715 19.8376 65.3145C33.1815 78.6582 54.8159 78.6582 68.1596 65.3145C68.9029 64.571 69.6028 63.8005 70.2635 63.0083C68.4528 61.7952 66.2755 61.0867 63.9327 61.0867L52.5425 61.0865Z" fill="#1276DF"/>
<path d="M59.9805 61.0867C63.3826 61.0867 66.4342 62.5803 68.5209 64.9453C69.1259 64.3219 69.7079 63.676 70.2643 63.0081C68.4537 61.795 66.2766 61.0867 63.9336 61.0867H59.9805Z" fill="#FF9F0F"/>
<path d="M52.5453 61.0848C52.5453 65.8024 48.7209 69.627 44.0031 69.627C39.2855 69.627 35.4609 65.8024 35.4609 61.0848V48.515H52.5453V61.0848Z" fill="#FEB19D"/>
<path d="M61.0863 29.7641C62.6588 29.7641 63.9336 31.0389 63.9336 32.6116V38.307C63.9336 39.8795 62.6588 41.1543 61.0863 41.1543L26.9178 41.1541C25.3451 41.1541 24.0703 39.8793 24.0703 38.3067V32.6119C24.0703 31.0395 25.3451 29.7647 26.9178 29.7647L61.0863 29.7641Z" fill="#FEB19D"/>
<path d="M58.2396 19.7979C58.2396 15.8664 55.0526 12.6793 51.1209 12.6793H36.8843C32.9527 12.6793 29.7656 15.8664 29.7656 19.7979L29.7658 41.1537C29.7658 49.0166 36.14 55.3906 44.0027 55.3906C51.8655 55.3906 58.2395 49.0166 58.2395 41.1537L58.2396 19.7979Z" fill="#FED9CA"/>
<path d="M51.1209 12.6805H36.8843C32.9527 12.6805 29.7656 15.8676 29.7656 19.799V24.0703H34.0365C35.6092 24.0703 36.884 22.7955 36.884 21.2229V19.799H51.1211V21.2229C51.1211 22.7955 52.3959 24.0703 53.9685 24.0703H58.2396V19.799C58.2396 15.8676 55.0526 12.6805 51.1209 12.6805Z" fill="#A3816A"/>
<path d="M51.1221 12.6793H47.169C51.1005 12.6793 54.2877 15.8664 54.2877 19.7979L54.2875 41.1537C54.2875 48.3455 48.9541 54.2882 42.0273 55.2509C42.6736 55.3408 43.3327 55.3906 44.0039 55.3906C51.8667 55.3906 58.2407 49.0166 58.2407 41.1537L58.2408 19.7979C58.2408 15.8664 55.0538 12.6793 51.1221 12.6793Z" fill="#FEC1A8"/>
<path d="M54.2867 19.7992L54.2865 24.0703H58.2398V19.7992C58.2398 15.8676 55.0527 12.6807 51.1211 12.6807H47.168C51.0994 12.6807 54.2867 15.8676 54.2867 19.7992Z" fill="#806553"/>
<path d="M83.865 73.8977C83.865 80.9741 78.1282 86.7109 71.0516 86.7109C63.9751 86.7109 58.2383 80.9741 58.2383 73.8977C58.2383 66.821 63.9751 61.0844 71.0516 61.0844C78.1282 61.0844 83.865 66.821 83.865 73.8977Z" fill="#1276DF"/>
<path d="M71.0508 61.0844C70.3786 61.0844 69.7186 61.1368 69.0742 61.2365C75.2124 62.1871 79.9111 67.4934 79.9111 73.8977C79.9111 80.3021 75.2124 85.6084 69.0742 86.5588C69.7186 86.6585 70.3786 86.7109 71.0508 86.7109C78.1274 86.7109 83.8642 80.9743 83.8642 73.8977C83.8642 66.821 78.1274 61.0844 71.0508 61.0844Z" fill="#1276DF"/>
<path d="M83.865 73.8977C83.865 80.9741 78.1283 86.7109 71.0516 86.7109C63.9751 86.7109 58.2383 80.9741 58.2383 73.8977C58.2383 66.821 63.9751 61.0844 71.0516 61.0844C78.1283 61.0844 83.865 66.821 83.865 73.8977Z" stroke="#0C0A0B" stroke-width="3" stroke-miterlimit="10" stroke-linecap="round" stroke-linejoin="round"/>
<path d="M65.3555 73.8971C65.3555 70.7519 67.9051 68.2023 71.0502 68.2023C74.1955 68.2023 76.7451 70.7519 76.7451 73.8971C76.7451 77.0422 74.1955 79.5918 71.0502 79.5918" stroke="white" stroke-width="3" stroke-miterlimit="10" stroke-linecap="round" stroke-linejoin="round"/>
<path d="M63.3438 74.3148L65.3573 76.3281L67.3708 74.3148" stroke="white" stroke-width="3" stroke-miterlimit="10" stroke-linecap="round" stroke-linejoin="round"/>
<path d="M17.6719 11.2195C24.6942 5.03831 33.9091 1.2892 43.9995 1.2892C66.0155 1.2892 83.8632 19.1367 83.8632 41.1527C83.8632 49.1371 81.5157 56.5731 77.4734 62.8086" stroke="#0C0A0B" stroke-width="3" stroke-miterlimit="10" stroke-linecap="round" stroke-linejoin="round"/>
<path d="M58.9487 78.1182C54.3325 79.9866 49.2864 81.0156 44.0002 81.0156C21.9842 81.0156 4.13672 63.1681 4.13672 41.152C4.13672 31.0985 7.85833 21.9143 13.9991 14.9018" stroke="#0C0A0B" stroke-width="3" stroke-miterlimit="10" stroke-linecap="round" stroke-linejoin="round"/>
<path d="M58.3534 72.1688C53.9895 74.1916 49.127 75.3203 44.0008 75.3203C25.1299 75.3203 9.83203 60.0226 9.83203 41.1516C9.83203 22.2807 25.1299 6.98282 44.0008 6.98282C62.8716 6.98282 78.1695 22.2807 78.1695 41.1516C78.1695 48.5982 75.7875 55.4885 71.7436 61.1018" stroke="#0C0A0B" stroke-width="3" stroke-miterlimit="10" stroke-linecap="round" stroke-linejoin="round"/>
<path d="M17.7344 63.0078C19.5456 61.7932 21.7248 61.0847 24.0693 61.0847L35.459 61.084V52.542" stroke="#0C0A0B" stroke-width="3" stroke-miterlimit="10" stroke-linecap="round" stroke-linejoin="round"/>
<path d="M52.543 52.5443V61.0851L63.9331 61.0855C65.1307 61.0855 66.2856 61.2704 67.3701 61.6133" stroke="#0C0A0B" stroke-width="3" stroke-miterlimit="10" stroke-linecap="round" stroke-linejoin="round"/>
<path d="M29.765 29.7629H26.9176C25.3451 29.7629 24.0703 31.0377 24.0703 32.6103V38.3049C24.0703 39.8775 25.3451 41.1523 26.9176 41.1523H29.765" stroke="#0C0A0B" stroke-width="3" stroke-miterlimit="10" stroke-linecap="round" stroke-linejoin="round"/>
<path d="M58.2383 41.1523H61.0856C62.6582 41.1523 63.933 39.8775 63.933 38.3051V32.6096C63.933 31.037 62.6582 29.7622 61.0856 29.7622H58.2383" stroke="#0C0A0B" stroke-width="3" stroke-miterlimit="10" stroke-linecap="round" stroke-linejoin="round"/>
<path d="M58.2396 19.7979C58.2396 15.8663 55.0526 12.6793 51.1211 12.6793H36.8842C32.9527 12.6793 29.7656 15.8663 29.7656 19.7979L29.7658 41.1537C29.7658 49.0166 36.14 55.3906 44.0027 55.3906C51.8655 55.3906 58.2395 49.0166 58.2395 41.1537L58.2396 19.7979Z" stroke="#0C0A0B" stroke-width="3" stroke-miterlimit="10" stroke-linecap="round" stroke-linejoin="round"/>
<path d="M29.7656 24.0684H34.0367C35.6094 24.0684 36.8842 22.7936 36.8842 21.2211V19.7973" stroke="#0C0A0B" stroke-width="3" stroke-miterlimit="10" stroke-linecap="round" stroke-linejoin="round"/>
<path d="M58.24 24.0684H53.9685C52.3959 24.0684 51.1211 22.7936 51.1211 21.2211V19.7973" stroke="#0C0A0B" stroke-width="3" stroke-miterlimit="10" stroke-linecap="round" stroke-linejoin="round"/>
<path d="M35.4609 19.7969H52.5455" stroke="#0C0A0B" stroke-width="3" stroke-miterlimit="10" stroke-linecap="round" stroke-linejoin="round"/>
<path d="M35.4609 61.0848C35.4609 65.8026 39.2853 69.627 44.0031 69.627C48.7209 69.627 52.5453 65.8026 52.5453 61.0848" stroke="#0C0A0B" stroke-width="3" stroke-miterlimit="10" stroke-linecap="round" stroke-linejoin="round"/>
</g>
</svg>
