<svg width="89" height="89" viewBox="0 0 89 89" fill="none" xmlns="http://www.w3.org/2000/svg">
<g clip-path="url(#clip0_766_2689)">
<path d="M43.9572 1.59002L34.471 15.8816C34.1838 16.3146 34.4942 16.8931 35.0136 16.8931H39.9443C40.3041 16.8931 40.5957 17.1847 40.5957 17.5445V32.9606H44.4998H48.4039V17.5445C48.4039 17.1847 48.6956 16.8931 49.0553 16.8931H53.986C54.5057 16.8931 54.8161 16.3146 54.5286 15.8816L45.0424 1.59002C44.7849 1.20176 44.2148 1.20176 43.9572 1.59002Z" fill="#1276DF"/>
<path d="M45.6945 16.8926H49.0548C48.6944 16.8926 48.4033 17.1837 48.4033 17.5441V32.9593H45.043V17.5441C45.0428 17.1839 45.3339 16.8926 45.6945 16.8926Z" fill="#1276DF"/>
<path d="M53.9861 16.8924H50.6258C51.1456 16.8924 51.4558 16.3137 51.1682 15.8804L42.8203 3.30398L43.9571 1.59002C44.2154 1.20176 44.7854 1.20176 45.0437 1.59002L54.5285 15.8804C54.8161 16.3137 54.5059 16.8924 53.9861 16.8924Z" fill="#1276DF"/>
<path d="M77.4921 80.4829H11.5046C9.45587 80.4829 7.79492 78.8221 7.79492 76.7732V37.1296C7.79492 35.0809 9.4557 33.4199 11.5046 33.4199H77.4923C79.541 33.4199 81.2019 35.0807 81.2019 37.1296V76.7732C81.2018 78.8221 79.541 80.4829 77.4921 80.4829Z" fill="white"/>
<path d="M82.3243 87.7006H6.67378C3.76464 87.7006 1.40625 85.3422 1.40625 82.4331V81.7909C1.40625 81.0683 1.99211 80.4824 2.71475 80.4824H86.2833C87.006 80.4824 87.5918 81.0683 87.5918 81.7909V82.4331C87.5918 85.3422 85.2334 87.7006 82.3243 87.7006Z" fill="white"/>
<path d="M81.2019 37.1303V76.7729C81.2019 78.8212 79.5416 80.4832 77.4915 80.4832H74.041C76.0895 80.4832 77.7513 78.8212 77.7513 76.7729V37.1303C77.7513 35.0802 76.0894 33.4199 74.041 33.4199H77.4915C79.5416 33.4197 81.2019 35.08 81.2019 37.1303Z" fill="white"/>
<path d="M87.592 81.7909V82.432C87.592 85.3417 85.2334 87.7004 82.3236 87.7004H78.873C81.7827 87.7004 84.1414 85.3419 84.1414 82.432V81.7909C84.1414 81.0683 83.5558 80.4824 82.8329 80.4824H86.2835C87.0063 80.4826 87.592 81.0683 87.592 81.7909Z" fill="white"/>
<path d="M74.3253 74.9875H14.6732C14.0015 74.9875 13.457 74.443 13.457 73.7713V40.1303C13.457 39.4586 14.0015 38.9141 14.6732 38.9141H74.3251C74.9969 38.9141 75.5414 39.4586 75.5414 40.1303V73.7711C75.5415 74.4428 74.997 74.9875 74.3253 74.9875Z" fill="#D5E3F4"/>
<path d="M75.54 40.1326V73.772C75.54 74.4444 74.9958 74.9886 74.3234 74.9886H70.8574C71.5298 74.9886 72.074 74.4444 72.074 73.772V40.1326C72.074 39.4602 71.5298 38.916 70.8574 38.916H74.3234C74.9958 38.916 75.54 39.4603 75.54 40.1326Z" fill="#B3CEEC"/>
<path d="M44.5004 65.0634C56.6962 65.0634 66.5829 55.1767 66.5829 42.9809C66.5829 30.7851 56.6962 20.8984 44.5004 20.8984C32.3046 20.8984 22.418 30.7851 22.418 42.9809C22.418 55.1767 32.3046 65.0634 44.5004 65.0634Z" fill="#1276DF"/>
<path d="M66.5817 42.9816C66.5817 55.1767 56.6949 65.0635 44.4998 65.0635C40.9627 65.0635 37.6198 64.2317 34.6562 62.7552C36.6752 63.3617 38.8172 63.6893 41.0338 63.6893C53.2289 63.6893 63.1157 53.8025 63.1157 41.6074C63.1157 32.9476 58.1317 25.4522 50.8772 21.832C59.9635 24.5702 66.5817 33.003 66.5817 42.9816Z" fill="#1276DF"/>
<path d="M44.5008 45.775C46.0437 45.775 47.2945 44.5242 47.2945 42.9812C47.2945 41.4383 46.0437 40.1875 44.5008 40.1875C42.9578 40.1875 41.707 41.4383 41.707 42.9812C41.707 44.5242 42.9578 45.775 44.5008 45.775Z" fill="white"/>
<path d="M47.2927 42.9811C47.2927 44.5235 46.0415 45.7746 44.4991 45.7746C43.6101 45.7746 42.818 45.3587 42.3086 44.7124C43.8232 44.6813 45.0432 43.4439 45.0432 41.9206C45.0432 41.2654 44.8197 40.6658 44.4419 40.1892C44.461 40.1875 44.48 40.1875 44.4991 40.1875C46.0415 40.1875 47.2927 41.4371 47.2927 42.9811Z" fill="white"/>
<path d="M86.2841 79.1824H81.8837C82.278 78.4669 82.5031 77.6457 82.5031 76.7725V37.1289C82.5031 34.3668 80.2559 32.1196 77.4938 32.1196H65.2017C62.0642 26.1638 56.432 21.7177 49.7038 20.1825V18.1938H53.9861C54.7061 18.1938 55.3649 17.7997 55.7052 17.1651C56.0457 16.5306 56.0099 15.7638 55.6115 15.1637L46.1253 0.871925C45.7628 0.325864 45.1549 0 44.4995 0C43.8441 0 43.2365 0.326212 42.8742 0.872273L42.8743 0.872099L33.3881 15.1635C32.99 15.7637 32.954 16.5304 33.2945 17.165C33.6349 17.7995 34.2938 18.1936 35.0138 18.1936H39.2961V20.1824C32.5678 21.7175 26.9357 26.1635 23.7982 32.1194H11.5061C8.74395 32.1194 6.49679 34.3666 6.49679 37.1287V76.7725C6.49679 77.6455 6.72185 78.4669 7.11619 79.1824H2.71572C1.27758 79.1824 0.107422 80.3523 0.107422 81.7907V82.4328C0.107422 86.054 3.05341 89 6.67458 89H63.7083C64.4262 89 65.0081 88.4181 65.0081 87.7002C65.0081 86.9824 64.4262 86.4004 63.7083 86.4004H6.67458C4.48669 86.4004 2.70686 84.6206 2.70686 82.4327L2.71555 81.7818L86.293 81.7905V82.4327C86.293 84.6206 84.5132 86.4004 82.3251 86.4004H69.749C69.0311 86.4004 68.4492 86.9822 68.4492 87.7002C68.4492 88.418 69.0311 89 69.749 89H82.3251C85.9463 89 88.8924 86.054 88.8924 82.4328V81.7907C88.8924 80.3525 87.7223 79.1824 86.2841 79.1824ZM36.2224 15.5942L44.4998 3.1236L52.7773 15.5942H49.0553C47.9795 15.5942 47.1042 16.4694 47.1042 17.5452V19.7437C46.2487 19.6485 45.3801 19.5979 44.4998 19.5979C43.6194 19.5979 42.7508 19.6485 41.8954 19.7437V17.5452C41.8954 16.4694 41.0201 15.5942 39.9443 15.5942H36.2224ZM25.138 53.6868C25.7853 53.3764 26.0584 52.6 25.7481 51.9528C24.4004 49.1417 23.7172 46.1229 23.7172 42.9802C23.7172 31.5205 33.0404 22.1973 44.5 22.1973C55.9597 22.1973 65.2827 31.5205 65.2827 42.9802C65.2827 54.4398 55.9595 63.763 44.4998 63.763C38.55 63.763 32.8746 61.2053 28.9289 56.7455C28.4534 56.208 27.6319 56.1579 27.0942 56.6333C26.5566 57.1089 26.5064 57.9305 26.9819 58.468C31.4208 63.4851 37.8056 66.3624 44.4998 66.3624C57.3928 66.3624 67.8821 55.8731 67.8821 42.9802C67.8821 42.0441 67.826 41.1211 67.7184 40.2135H74.2423V73.6875H14.7574V40.2137H21.2813C21.1737 41.1213 21.1176 42.0443 21.1176 42.9803C21.1176 46.5151 21.8868 49.9119 23.404 53.0767C23.7144 53.7238 24.4902 53.997 25.138 53.6868ZM79.9035 76.7727C79.9035 78.1015 78.8223 79.1825 77.4936 79.1825H11.5061C10.1772 79.1825 9.09623 78.1015 9.09623 76.7727V37.1289C9.09623 35.8 10.1772 34.719 11.5061 34.719H22.6256C22.2702 35.657 21.974 36.6236 21.7405 37.6143H14.674C13.2866 37.6143 12.158 38.7431 12.158 40.1303V73.7711C12.158 75.1585 13.2868 76.2871 14.674 76.2871H74.3259C75.7131 76.2871 76.8417 75.1585 76.8417 73.7711V40.1303C76.8417 38.7429 75.7131 37.6143 74.3259 37.6143H67.2592C67.0255 36.6236 66.7295 35.657 66.3739 34.719H77.4936C78.8223 34.719 79.9035 35.8 79.9035 37.1289V76.7727Z" fill="#0A488A"/>
<path d="M44.499 29.2796C45.2168 29.2796 45.7988 28.6977 45.7988 27.9798V26.1572C45.7988 25.4395 45.2168 24.8574 44.499 24.8574C43.7813 24.8574 43.1992 25.4393 43.1992 26.1572V27.9798C43.1994 28.6976 43.7813 29.2796 44.499 29.2796Z" fill="#0A488A"/>
<path d="M44.499 56.6797C43.7813 56.6797 43.1992 57.2616 43.1992 57.9795V59.8021C43.1992 60.5198 43.7811 61.1019 44.499 61.1019C45.217 61.1019 45.7988 60.52 45.7988 59.8021V57.9795C45.7988 57.2616 45.217 56.6797 44.499 56.6797Z" fill="#0A488A"/>
<path d="M32.9741 33.2925C33.2278 33.5462 33.5605 33.6733 33.8931 33.6733C34.2258 33.6733 34.5584 33.5464 34.8122 33.2925C35.3198 32.785 35.3198 31.9619 34.8122 31.4545L33.5235 30.1658C33.016 29.6583 32.1929 29.6583 31.6854 30.1658C31.1778 30.6732 31.1778 31.4963 31.6854 32.0038L32.9741 33.2925Z" fill="#0A488A"/>
<path d="M56.0253 52.6677C55.518 52.1602 54.6949 52.1602 54.1872 52.6677C53.6798 53.1754 53.6797 53.9983 54.1874 54.5059L55.4761 55.7944C55.7298 56.0484 56.0625 56.1752 56.3951 56.1752C56.7278 56.1752 57.0604 56.0484 57.3143 55.7944C57.8218 55.2868 57.8218 54.4639 57.3141 53.9562L56.0253 52.6677Z" fill="#0A488A"/>
<path d="M27.6768 44.2793H29.4993C30.2171 44.2793 30.7991 43.6974 30.7991 42.9795C30.7991 42.2617 30.2173 41.6797 29.4993 41.6797H27.6768C26.959 41.6797 26.377 42.2615 26.377 42.9795C26.3771 43.6974 26.959 44.2793 27.6768 44.2793Z" fill="#0A488A"/>
<path d="M59.499 44.2793H61.3216C62.0395 44.2793 62.6214 43.6974 62.6214 42.9795C62.6214 42.2617 62.0395 41.6797 61.3216 41.6797H59.499C58.7811 41.6797 58.1992 42.2615 58.1992 42.9795C58.1992 43.6974 58.7811 44.2793 59.499 44.2793Z" fill="#0A488A"/>
<path d="M32.974 52.6676L31.6854 53.9563C31.1779 54.464 31.1777 55.2869 31.6854 55.7945C31.9393 56.0483 32.2719 56.1753 32.6046 56.1753C32.9372 56.1753 33.2698 56.0484 33.5236 55.7945L34.8123 54.506C35.3197 53.9984 35.3199 53.1755 34.8123 52.6678C34.3044 52.1602 33.4815 52.1603 32.974 52.6676Z" fill="#0A488A"/>
<path d="M55.1061 33.6733C55.4387 33.6733 55.7714 33.5464 56.0253 33.2925L57.3142 32.0038C57.8216 31.4963 57.8216 30.6732 57.3142 30.1658C56.8065 29.6583 55.9836 29.6583 55.4759 30.1658L54.1872 31.4544C53.6798 31.9619 53.6798 32.785 54.1872 33.2925C54.4408 33.5464 54.7736 33.6733 55.1061 33.6733Z" fill="#0A488A"/>
<path d="M44.4998 47.0733C46.757 47.0733 48.5933 45.237 48.5933 42.9798C48.5933 42.1758 48.3594 41.4259 47.9576 40.7928L52.4936 36.7616C53.0301 36.2847 53.0785 35.4634 52.6017 34.9267C52.1248 34.39 51.3031 34.3415 50.7666 34.8186L45.9084 39.136C45.469 38.9745 44.9946 38.8863 44.4998 38.8863C42.2426 38.8863 40.4062 40.7226 40.4062 42.9798C40.4062 45.237 42.2426 47.0733 44.4998 47.0733ZM44.4998 41.4857C45.3236 41.4857 45.9937 42.1558 45.9937 42.9798C45.9937 43.8038 45.3236 44.4739 44.4998 44.4739C43.676 44.4739 43.0057 43.8038 43.0057 42.9798C43.0057 42.1558 43.676 41.4857 44.4998 41.4857Z" fill="#0A488A"/>
<path d="M19.4668 65.0635C19.4668 65.7812 20.0487 66.3633 20.7666 66.3633H28.384C29.1018 66.3633 29.6838 65.7814 29.6838 65.0635C29.6838 64.3457 29.1019 63.7637 28.384 63.7637H20.7666C20.0488 63.7637 19.4668 64.3457 19.4668 65.0635Z" fill="#0A488A"/>
<path d="M21.4883 70.2705C21.4883 70.9883 22.0701 71.5703 22.7881 71.5703H30.4055C31.1233 71.5703 31.7053 70.9885 31.7053 70.2705C31.7053 69.5527 31.1234 68.9707 30.4055 68.9707H22.7881C22.0703 68.9707 21.4883 69.5527 21.4883 70.2705Z" fill="#0A488A"/>
</g>
<defs>
<clipPath id="clip0_766_2689">
<rect width="89" height="89" fill="white"/>
</clipPath>
</defs>
</svg>
