<svg width="88" height="88" viewBox="0 0 88 88" fill="none" xmlns="http://www.w3.org/2000/svg">
<g clip-path="url(#clip0_770_3440)">
<path d="M44.0015 82.1964C65.097 82.1964 82.1983 65.0951 82.1983 43.9996C82.1983 22.904 65.097 5.80273 44.0015 5.80273C22.906 5.80273 5.80469 22.904 5.80469 43.9996C5.80469 65.0951 22.906 82.1964 44.0015 82.1964Z" fill="white"/>
<path d="M65.6172 12.5078C69.8446 18.6549 72.321 26.0999 72.321 34.1242C72.321 55.2196 55.2198 72.321 34.1242 72.321C26.0999 72.321 18.6549 69.8446 12.5078 65.6172C19.394 75.6305 30.9297 82.1976 44.0008 82.1976C65.0962 82.1976 82.1976 65.0964 82.1976 44.0008C82.1976 30.9297 75.6305 19.394 65.6172 12.5078Z" fill="white"/>
<path d="M44.0003 76.6413C62.0274 76.6413 76.6413 62.0274 76.6413 44.0003C76.6413 25.9732 62.0274 11.3594 44.0003 11.3594C25.9732 11.3594 11.3594 25.9732 11.3594 44.0003C11.3594 62.0274 25.9732 76.6413 44.0003 76.6413Z" fill="#DFF6FD"/>
<path d="M63.1151 17.5586C67.0129 22.9352 69.3148 29.5402 69.3148 36.6738C69.3148 54.6721 54.6721 69.3148 36.6738 69.3148C29.5402 69.3148 22.9352 67.0129 17.5586 63.1151C23.495 71.3037 33.1351 76.6408 43.9997 76.6408C61.9979 76.6408 76.6406 61.9981 76.6406 43.9998C76.6408 33.1351 71.3037 23.495 63.1151 17.5586Z" fill="#C8EFFE"/>
<path d="M84.2803 56.1546H3.71972C2.3772 56.1546 1.28906 55.0663 1.28906 53.7239V34.2783C1.28906 32.9358 2.37738 31.8477 3.71972 31.8477H84.2801C85.6226 31.8477 86.7108 32.936 86.7108 34.2783V53.7239C86.7109 55.0664 85.6226 56.1546 84.2803 56.1546Z" fill="#1276DF"/>
<path d="M84.2785 31.8477H78.7227C80.0652 31.8477 81.1533 32.936 81.1533 34.2783V53.7239C81.1533 55.0664 80.065 56.1546 78.7227 56.1546H84.2785C85.621 56.1546 86.7092 55.0663 86.7092 53.7239V34.2783C86.7092 32.9358 85.6209 31.8477 84.2785 31.8477Z" fill="#1276DF"/>
<path d="M84.2806 30.5579H81.1372C75.4904 14.9412 60.6841 4.51367 44 4.51367C34.964 4.51367 26.4605 7.48505 19.409 13.1067C18.8523 13.5505 18.7608 14.3616 19.2046 14.9183C19.6482 15.4748 20.4593 15.5664 21.0162 15.1227C27.6062 9.86878 35.5539 7.0918 44 7.0918C59.2805 7.0918 72.875 16.4494 78.3826 30.5579H75.1506C72.6148 24.6966 68.5001 19.6906 63.2058 16.0425C57.5358 12.1355 50.8944 10.0702 44 10.0702C37.1056 10.0702 30.4643 12.1355 24.7942 16.0425C19.4999 19.6906 15.3852 24.6964 12.8494 30.5579H9.61692C11.2681 26.3274 13.6678 22.4758 16.7683 19.0895C17.249 18.5645 17.2131 17.7491 16.688 17.2683C16.163 16.7876 15.3476 16.8235 14.8668 17.3486C11.3221 21.2201 8.63311 25.6605 6.86263 30.5581H3.71937C1.66856 30.5579 0 32.2265 0 34.2773V53.7232C0 55.774 1.66856 57.4426 3.71937 57.4426H6.86263C12.5091 73.059 27.3152 83.4861 44 83.4861C60.6848 83.4861 75.4909 73.059 81.1374 57.4426H84.2808C86.3318 57.4426 88.0002 55.774 88.0002 53.7232V34.2773C88 32.2265 86.3316 30.5579 84.2806 30.5579ZM26.257 18.1655C31.4951 14.5562 37.6303 12.6483 44 12.6483C50.3697 12.6483 56.5051 14.5562 61.743 18.1655C66.3255 21.3232 69.9488 25.5823 72.3161 30.5579H15.6839C18.0512 25.5823 21.6745 21.3232 26.257 18.1655ZM85.4219 53.7232C85.4219 54.3524 84.9099 54.8645 84.2806 54.8645H29.8512C29.1393 54.8645 28.5622 55.4416 28.5622 56.1535C28.5622 56.8654 29.1393 57.4426 29.8512 57.4426H72.3157C70.6841 60.8562 68.4152 64.0032 65.677 66.6267C65.163 67.1191 65.1454 67.9352 65.6379 68.4493C65.8912 68.7136 66.2296 68.8467 66.5689 68.8467C66.8895 68.8467 67.2107 68.7277 67.4606 68.4885C70.7169 65.3686 73.3631 61.5643 75.1508 57.4428H78.3827C72.8755 71.5508 59.2811 80.908 44 80.908C28.7189 80.908 15.1243 71.5508 9.61744 57.4426H12.8499C15.3857 63.3037 19.5002 68.3094 24.7943 71.9576C30.4645 75.8648 37.1056 77.9303 44 77.9303C50.6263 77.9303 57.0512 76.0099 62.5797 72.3766C63.1745 71.9856 63.3401 71.1864 62.9489 70.5915C62.558 69.9965 61.7586 69.8312 61.1636 70.2222C56.0567 73.5784 50.1217 75.3523 44 75.3523C37.6305 75.3523 31.4952 73.4445 26.2573 69.8349C21.6748 66.6772 18.0517 62.4182 15.6846 57.4429H23.8358C24.5477 57.4429 25.1249 56.8658 25.1249 56.1539C25.1249 55.442 24.5477 54.8648 23.8358 54.8648H3.71937C3.08997 54.8648 2.57812 54.3528 2.57812 53.7235V34.2776C2.57812 33.6484 3.09014 33.1364 3.71937 33.1364H84.2806C84.9099 33.1364 85.4219 33.6484 85.4219 34.2776V53.7232Z" fill="#0A488A"/>
<path d="M23.2049 37.1545C22.493 37.1545 21.9158 37.7316 21.9158 38.4435V45.4306L16.5676 37.7095C16.2465 37.2461 15.6618 37.0448 15.1233 37.2131C14.5852 37.3812 14.2188 37.8796 14.2188 38.4434V49.5551C14.2188 50.267 14.7959 50.8442 15.5078 50.8442C16.2197 50.8442 16.7969 50.267 16.7969 49.5551V42.568L22.1451 50.2892C22.3905 50.6434 22.79 50.8443 23.2051 50.8443C23.3331 50.8443 23.4625 50.8252 23.5894 50.7855C24.1275 50.6175 24.494 50.119 24.494 49.5553V38.4435C24.494 37.7316 23.9168 37.1545 23.2049 37.1545Z" fill="white"/>
<path d="M52.7107 39.7344C53.4227 39.7344 53.9997 39.1572 53.9997 38.4453C53.9997 37.7334 53.4227 37.1562 52.7107 37.1562H48.207C47.495 37.1562 46.918 37.7334 46.918 38.4453V49.557C46.918 50.2689 47.495 50.8461 48.207 50.8461C48.9191 50.8461 49.4961 50.2689 49.4961 49.557V45.185H52.353C53.0651 45.185 53.6421 44.6079 53.6421 43.896C53.6421 43.1841 53.0651 42.6069 52.353 42.6069H49.4961V39.7344H52.7107Z" fill="white"/>
<path d="M62.6 39.7344C63.3121 39.7344 63.8891 39.1572 63.8891 38.4453C63.8891 37.7334 63.3121 37.1562 62.6 37.1562H57.918C57.2059 37.1562 56.6289 37.7334 56.6289 38.4453V49.557C56.6289 50.2689 57.2059 50.8461 57.918 50.8461H62.6C63.3121 50.8461 63.8891 50.2689 63.8891 49.557C63.8891 48.8451 63.3121 48.268 62.6 48.268H59.207V45.2902H62.2547C62.9668 45.2902 63.5438 44.7131 63.5438 44.0012C63.5438 43.2893 62.9668 42.7121 62.2547 42.7121H59.207V39.7344H62.6Z" fill="white"/>
<path d="M72.4906 39.7344C73.2027 39.7344 73.7797 39.1572 73.7797 38.4453C73.7797 37.7334 73.2027 37.1562 72.4906 37.1562H67.8086C67.0965 37.1562 66.5195 37.7334 66.5195 38.4453V49.557C66.5195 50.2689 67.0965 50.8461 67.8086 50.8461H72.4906C73.2027 50.8461 73.7797 50.2689 73.7797 49.557C73.7797 48.8451 73.2027 48.268 72.4906 48.268H69.0977V45.2902H72.1453C72.8574 45.2902 73.4344 44.7131 73.4344 44.0012C73.4344 43.2893 72.8574 42.7121 72.1453 42.7121H69.0977V39.7344H72.4906Z" fill="white"/>
<path d="M33.9699 37.1562C30.1957 37.1562 27.125 40.2268 27.125 44.0012C27.125 47.7755 30.1957 50.8461 33.9699 50.8461C37.7441 50.8461 40.8148 47.7755 40.8148 44.0012C40.8148 40.2268 37.7441 37.1562 33.9699 37.1562ZM33.9699 48.268C31.6173 48.268 29.7031 46.354 29.7031 44.0012C29.7031 41.6484 31.6173 39.7344 33.9699 39.7344C36.3225 39.7344 38.2367 41.6484 38.2367 44.0012C38.2367 46.354 36.3225 48.268 33.9699 48.268Z" fill="white"/>
</g>
<defs>
<clipPath id="clip0_770_3440">
<rect width="88" height="88" fill="white"/>
</clipPath>
</defs>
</svg>
