<svg width="88" height="88" viewBox="0 0 88 88" fill="none" xmlns="http://www.w3.org/2000/svg">
<g clip-path="url(#clip0_768_2973)">
<path d="M62.6421 86.7817H25.3603C22.5077 86.7817 20.1953 84.4693 20.1953 81.6167V6.38377C20.1953 3.53116 22.5077 1.21875 25.3603 1.21875H62.6422C65.4947 1.21875 67.8071 3.53116 67.8071 6.38359V81.6165C67.8071 84.4693 65.4947 86.7817 62.6421 86.7817Z" fill="#F2FBFF"/>
<path d="M62.6408 1.21875H55.7658C58.6182 1.21875 60.9306 3.53116 60.9306 6.38359V81.6165C60.9306 84.469 58.6182 86.7816 55.7656 86.7816H62.6406C65.4932 86.7816 67.8056 84.4692 67.8056 81.6165V6.38359C67.8056 3.53116 65.4932 1.21875 62.6408 1.21875Z" fill="white"/>
<path d="M37.1427 6.78597H50.6743C52.5761 6.78597 54.1176 5.24442 54.1176 3.3428V1.375H33.6992V3.3428C33.6992 5.24442 35.2409 6.78597 37.1427 6.78597Z" fill="#1276DF"/>
<path d="M43.9449 69.0414C48.2228 69.0414 51.6907 65.5811 51.6907 61.3127C51.6907 57.0442 48.2228 53.584 43.9449 53.584C39.6671 53.584 36.1992 57.0442 36.1992 61.3127C36.1992 65.5811 39.6671 69.0414 43.9449 69.0414Z" fill="#1276DF"/>
<path d="M56.2578 55.3479V43.8957C56.2578 37.1101 50.7449 31.6094 43.9443 31.6094C37.1437 31.6094 31.6308 37.1102 31.6308 43.8957V55.3479C28.7737 56.2341 26.6992 58.8928 26.6992 62.035H61.1892C61.1894 58.8928 59.1148 56.2341 56.2578 55.3479Z" fill="#1276DF"/>
<path d="M56.2588 55.3479V43.8957C56.2588 37.1101 50.7459 31.6094 43.9453 31.6094C42.7518 31.6094 41.5992 31.7821 40.5078 32.0982C45.6348 33.5832 49.3838 38.301 49.3838 43.8957V55.3479C52.2409 56.2341 54.3154 58.8928 54.3154 62.035H61.1904C61.1904 58.8928 59.1159 56.2341 56.2588 55.3479Z" fill="#1276DF"/>
<path d="M53.5147 41.7814C58.5581 41.7814 62.6466 37.6929 62.6466 32.6495C62.6466 27.6061 58.5581 23.5176 53.5147 23.5176C48.4713 23.5176 44.3828 27.6061 44.3828 32.6495C44.3828 37.6929 48.4713 41.7814 53.5147 41.7814Z" fill="#1276DF"/>
<path d="M62.6421 0H25.36C21.8402 0 18.9766 2.86361 18.9766 6.38361V81.6166C18.9766 85.1364 21.8402 88.0002 25.36 88.0002H29.2279C30.839 87.9501 30.8378 85.6125 29.2279 85.563H25.36C23.1839 85.563 21.4138 83.7927 21.4138 81.6166V6.38361C21.4138 4.2075 23.1841 2.43719 25.36 2.43719H32.3247V3.34314C32.3247 5.99998 34.4862 8.16131 37.1431 8.16131H50.6746C53.3315 8.16131 55.493 5.99998 55.493 3.34314V2.43719H62.6417C64.8179 2.43719 66.588 4.2075 66.588 6.38344V81.6164C66.588 83.7925 64.8177 85.5628 62.6417 85.5628H34.2153C32.6042 85.6128 32.6054 87.9505 34.2153 88H62.6419C66.1618 88 69.0254 85.1364 69.0254 81.6164V6.38344C69.0255 2.86361 66.1619 0 62.6421 0ZM52.7431 3.34314C52.7431 4.48353 51.8153 5.41131 50.6748 5.41131H37.1432C36.0027 5.41131 35.0749 4.48353 35.0749 3.34314V2.59359H52.7433V3.34314H52.7431Z" fill="#0A488A"/>
<path d="M30.3416 43.8954V54.4556C27.3561 55.7716 25.4102 58.7079 25.4102 62.0348C25.4102 62.7467 25.9873 63.3238 26.6992 63.3238H35.047C37.3065 72.7243 50.5749 72.7142 52.8412 63.3238H61.1894C61.9013 63.3238 62.4784 62.7467 62.4784 62.0348C62.4784 58.7079 60.5323 55.7716 57.547 54.4556C57.5137 53.3683 57.6364 43.0847 57.4533 42.2968C63.6798 39.8839 66.0445 31.551 61.7181 26.2239C61.2786 25.6636 60.4684 25.5655 59.9082 26.0049C59.3481 26.4443 59.2499 27.2545 59.6893 27.8148C63.722 32.8586 59.9761 40.5469 53.5131 40.4921C49.1885 40.4921 45.6703 36.9738 45.6703 32.6493C45.5611 27.1907 51.4791 23.2384 56.4788 25.3862C57.1379 25.6559 57.8904 25.3398 58.1599 24.6808C58.4292 24.0219 58.1135 23.2692 57.4545 22.9997C53.8232 21.4396 49.2155 22.3363 46.4595 24.9849C42.3022 22.7668 37.1659 26.9269 38.5036 31.4536C33.7033 33.5521 30.3416 38.3394 30.3416 43.8954ZM43.9441 67.6668C41.1666 67.6668 38.7494 65.8672 37.8988 63.3238H49.989C49.1365 65.8645 46.7125 67.6668 43.9441 67.6668ZM40.8933 30.0114C40.8648 28.0496 42.8269 26.5517 44.7164 27.0673C44.087 28.0556 43.6195 29.1566 43.3515 30.3328C42.5341 30.3678 41.7352 30.4754 40.9609 30.6488C40.9162 30.4404 40.8933 30.2267 40.8933 30.0114ZM43.0957 32.9303C43.2083 39.0501 48.8481 43.8533 54.9304 42.974C55.0048 42.8239 54.9551 53.7824 54.9687 54.0584H46.6714C44.9984 54.034 44.9993 56.6611 46.6714 56.6365H56.0524C57.9461 57.2901 59.3216 58.8509 59.7552 60.7455H28.1332C28.5802 58.7927 30.0278 57.1942 32.0126 56.5786C32.5521 56.4112 32.9197 55.9122 32.9197 55.3473V43.8951C32.9197 38.1161 37.4117 33.3639 43.0957 32.9303Z" fill="#0A488A"/>
<path d="M53.7586 37.8406C54.4705 37.8406 55.0477 37.2634 55.0477 36.5515V29.3125C55.0477 28.6006 54.4705 28.0234 53.7586 28.0234H52.2114C50.5071 28.0762 50.5083 30.5493 52.2114 30.6016H52.4695V36.5515C52.4695 37.2634 53.0467 37.8406 53.7586 37.8406Z" fill="white"/>
<path d="M75.6879 36.4255C74.5223 35.2253 72.665 37.0836 73.865 38.2484C78.6206 42.8126 78.6205 51.0052 73.865 55.5691C72.6648 56.735 74.523 58.5919 75.6879 57.3921C81.4439 51.8687 81.4435 41.9491 75.6879 36.4255Z" fill="#0A488A"/>
<path d="M80.0434 31.8611C78.8777 30.6609 77.0205 32.5192 78.2205 33.684C85.5126 40.9761 85.5126 52.8413 78.2205 60.1337C77.0203 61.2995 78.8784 63.1564 80.0434 61.9566C88.3407 53.6595 88.3407 40.1585 80.0434 31.8611Z" fill="#0A488A"/>
<path d="M14.1359 36.4264C13.6325 35.923 12.8162 35.923 12.313 36.4264C6.55705 41.9499 6.55722 51.8697 12.313 57.3931C13.4785 58.5935 15.3359 56.735 14.1359 55.5702C9.38027 51.006 9.38044 42.8134 14.1359 38.2495C14.6395 37.746 14.6395 36.9298 14.1359 36.4264Z" fill="#0A488A"/>
<path d="M9.78036 33.684C10.9807 32.5183 9.12225 30.6612 7.95745 31.861C-0.339984 40.1583 -0.339984 53.6593 7.95745 61.9567C9.12294 63.1571 10.9804 61.2986 9.78036 60.1338C2.48822 52.8413 2.48822 40.9761 9.78036 33.684Z" fill="#0A488A"/>
</g>
<defs>
<clipPath id="clip0_768_2973">
<rect width="88" height="88" fill="white"/>
</clipPath>
</defs>
</svg>
