<svg width="88" height="88" viewBox="0 0 88 88" fill="none" xmlns="http://www.w3.org/2000/svg">
<path d="M68.303 9.08222C54.756 5.58937 43.9997 1.28906 43.9997 1.28906C43.9997 1.28906 33.2436 5.58937 19.6966 9.08222C18.6218 9.35928 17.8197 10.2456 17.6571 11.3434C16.6829 17.9242 11.7399 24.2828 5.43488 25.7654C3.92461 26.1205 2.95541 27.5902 3.32477 29.0969C5.69733 38.7723 15.2496 69.4609 43.9997 86.7109C72.7499 69.4609 82.3022 38.7723 84.6748 29.0971C85.0443 27.5902 84.0749 26.1207 82.5646 25.7656C76.2596 24.2828 71.3166 17.9242 70.3424 11.3436C70.1798 10.2456 69.3777 9.35928 68.303 9.08222Z" fill="white"/>
<path d="M44.0003 1.28906C44.0003 1.28906 33.2453 5.58903 19.6993 9.0817C18.6232 9.35911 17.8203 10.2465 17.6574 11.3456C16.6824 17.9264 11.7387 24.2847 5.43297 25.7663C3.92408 26.1207 2.95556 27.5892 3.32475 29.0947C5.69628 38.7666 15.2477 69.4592 44.0003 86.7109L44.0414 1.38927L44.0003 1.28906Z" fill="white"/>
<path d="M64.4593 13.767C55.5544 11.3561 48.1603 8.74259 44.4712 7.36983C44.1606 7.25433 43.8415 7.25433 43.5309 7.36983C39.8416 8.74259 32.4477 11.3561 23.5429 13.767C23.0664 13.8961 22.7012 14.2744 22.5749 14.7517C20.8085 21.4256 16.228 27.0664 10.4448 29.8117C9.81624 30.1101 9.48005 30.7947 9.67754 31.4617C12.8835 42.2861 21.8458 65.0592 43.2095 79.6611C43.6818 79.9841 44.3205 79.9841 44.793 79.6611C66.1565 65.0592 75.1189 42.2861 78.3249 31.4617C78.5226 30.7947 78.1862 30.1101 77.5577 29.8117C71.7743 27.0664 67.1938 21.4256 65.4276 14.7517C65.3009 14.2744 64.9359 13.8961 64.4593 13.767Z" fill="#248EFF"/>
<path d="M43.531 7.36788C39.8418 8.74064 32.448 11.3542 23.5429 13.7651C23.0665 13.8941 22.7011 14.2724 22.5749 14.7497C20.8086 21.4236 16.2281 27.0644 10.4449 29.8098C9.81615 30.1081 9.47996 30.7927 9.67762 31.4598C12.8836 42.2841 21.8458 65.0572 43.2094 79.6592C43.4457 79.8206 43.7233 79.9014 44.0012 79.9014V7.28125C43.8438 7.28125 43.6865 7.31013 43.531 7.36788Z" fill="#248EFF"/>
<path d="M56.4009 53.7332H31.601C28.5573 53.7332 26.0898 52.5549 26.0898 49.5113V32.978C26.0898 29.9342 28.5573 27.4668 31.601 27.4668H56.4009C59.4446 27.4668 61.912 29.9342 61.912 32.978V49.5113C61.9119 52.5549 59.4444 53.7332 56.4009 53.7332Z" fill="white"/>
<path d="M30.2231 50.8895V27.6621C27.8504 28.2767 26.0898 30.4133 26.0898 32.9784V49.5117C26.0898 52.5553 28.5571 55.0229 31.601 55.0229H56.4009C58.9659 55.0229 61.1025 53.2624 61.7171 50.8896H30.2231V50.8895Z" fill="white"/>
<path d="M42.053 37.5847C43.1267 38.6584 44.8758 38.6584 45.9495 37.5847L56.067 27.4668H31.9355L42.053 37.5847Z" fill="white"/>
<path d="M85.4543 26.3741C84.8756 25.4297 83.9543 24.768 82.86 24.5107C80.1449 23.8722 77.5128 22.1441 75.4486 19.6452C73.4265 17.1972 72.0659 14.1818 71.6178 11.1546C71.3794 9.54465 70.2047 8.24132 68.6251 7.83398C55.3217 4.40387 44.5855 0.134664 44.4786 0.0920391C44.1715 -0.0306797 43.8287 -0.0306797 43.5216 0.0920391C43.4147 0.134664 32.6881 4.40146 19.375 7.83381C17.7955 8.24115 16.6208 9.54465 16.3824 11.1546C15.9343 14.1818 14.5737 17.1972 12.5516 19.6452C10.4874 22.1443 7.8553 23.8722 5.14019 24.5107C4.04586 24.768 3.12461 25.4297 2.54591 26.3741C1.98611 27.2878 1.81819 28.3639 2.07325 29.4039C3.31299 34.4597 6.33575 44.5987 12.6508 55.7007C20.5029 69.505 30.8271 80.3102 43.3372 87.8162C43.5414 87.9386 43.7708 87.9999 44.0004 87.9999C44.2301 87.9999 44.4595 87.9387 44.6637 87.8162C57.1736 80.3102 67.498 69.505 75.3501 55.7007C81.665 44.5987 84.6877 34.4598 85.9276 29.4039C86.1822 28.3639 86.0143 27.2878 85.4543 26.3741ZM83.4232 28.79C82.2155 33.7154 79.2694 43.5955 73.1088 54.4259C65.6184 67.5946 55.8272 77.9457 44.0001 85.203C32.1729 77.9456 22.3818 67.5944 14.8915 54.4259C8.731 43.5955 5.78489 33.7154 4.57713 28.79C4.46197 28.3201 4.60445 27.9492 4.74436 27.7209C4.96075 27.3677 5.31086 27.1189 5.73041 27.0202C12.2799 25.48 17.8323 18.9663 18.9326 11.532C19.0189 10.9499 19.4452 10.4781 20.0187 10.3303C31.8939 7.26868 41.7559 3.54277 44.0001 2.67326C46.2443 3.54277 56.1063 7.26868 67.9815 10.3305C68.555 10.4783 68.9813 10.9501 69.0676 11.5322C70.1681 18.9665 75.7205 25.4802 82.2698 27.0204C82.6892 27.119 83.0394 27.3677 83.2558 27.7211C83.3959 27.9494 83.5384 28.3201 83.4232 28.79Z" fill="#0A488A"/>
<path d="M79.1404 29.0978C75.4619 27.6248 72.1222 24.8329 69.7367 21.2364C69.3432 20.6431 68.5431 20.4813 67.9499 20.8747C67.3566 21.2683 67.1947 22.0682 67.5883 22.6616C70.0286 26.3404 73.3781 29.2748 77.109 31.0248C74.128 41.1094 65.594 63.2247 45.2896 77.738V56.3121H56.4004C60.1501 56.3121 63.2005 53.2615 63.2005 49.512V32.9789C63.2005 29.2292 60.1499 26.1788 56.4004 26.1788H45.2896V9.04493C49.4091 10.5459 56.1731 12.8612 64.1654 15.0231C64.3553 15.7475 64.5786 16.4675 64.8318 17.1715C65.0724 17.8413 65.8109 18.1892 66.4809 17.9486C67.1509 17.7078 67.4988 16.9694 67.258 16.2994C66.9513 15.4462 66.6935 14.5676 66.4919 13.6876C66.385 13.2218 66.0294 12.8533 65.5677 12.7301C56.1003 10.2047 48.2824 7.42415 44.4608 5.98968C44.4115 5.97077 44.3609 5.95496 44.3096 5.94224C44.2078 5.91715 44.1052 5.90477 44.0038 5.9046C44.0028 5.9046 44.0019 5.90391 44.0009 5.9046C44 5.90409 43.999 5.9046 43.9979 5.9046C43.8938 5.90477 43.7883 5.91784 43.6838 5.94431C43.6829 5.94465 43.6822 5.94482 43.681 5.94499C43.6343 5.95702 43.5882 5.97163 43.543 5.98882C39.722 7.42312 31.9028 10.2042 22.4336 12.7301C21.9718 12.8533 21.6162 13.2218 21.5095 13.6876C19.8993 20.7132 15.0528 26.6179 8.86085 29.0976C8.24932 29.3425 7.92086 30.009 8.0991 30.6431C10.9313 40.7162 20.0295 65.8137 43.2872 81.268C43.5033 81.4115 43.752 81.4834 44.0007 81.4834C44.2494 81.4834 44.4981 81.4115 44.7141 81.268C67.9716 65.8137 77.0701 40.7162 79.9023 30.6431C80.0804 30.0092 79.7519 29.3427 79.1404 29.0978ZM60.1535 31.0485C60.4524 31.6274 60.6224 32.2835 60.6224 32.9787V49.5119C60.6224 50.2071 60.4524 50.863 60.1535 51.442L49.9569 41.2454L60.1535 31.0485ZM58.3306 29.2256L47.9602 39.5961C45.7768 41.7794 42.2242 41.7794 40.0409 39.5961L29.6704 29.2256C30.2493 28.9267 30.9054 28.7568 31.6006 28.7568H56.4004C57.0957 28.7568 57.7516 28.9267 58.3306 29.2256ZM27.8475 51.442C27.5486 50.8631 27.3787 50.2071 27.3787 49.5119V32.9787C27.3787 32.2835 27.5486 31.6276 27.8475 31.0485L38.0442 41.2452L27.8475 51.442ZM10.8924 31.0257C17.1186 28.1155 21.9768 22.1222 23.836 15.0231C31.8275 12.8614 38.592 10.5459 42.7115 9.04493V26.1786H31.6006C27.851 26.1786 24.8005 29.2292 24.8005 32.9787V49.5119C24.8005 53.2615 27.8511 56.3119 31.6006 56.3119H32.9782C33.6901 56.3119 34.2672 55.7348 34.2672 55.0229C34.2672 54.311 33.6901 53.7338 32.9782 53.7338H31.6006C30.9054 53.7338 30.2495 53.5638 29.6704 53.2649L40.1081 42.8273C41.3181 43.4815 42.6589 43.8104 44.0003 43.8104C45.3418 43.8104 46.6826 43.4816 47.8926 42.8273L58.3303 53.2649C57.7514 53.5638 57.0953 53.7338 56.4001 53.7338H38.49C37.7781 53.7338 37.201 54.311 37.201 55.0229C37.201 55.7348 37.7781 56.3119 38.49 56.3119H42.7115V77.7379C22.4082 63.2254 13.8739 41.1111 10.8924 31.0257Z" fill="#0A488A"/>
</svg>
