<svg width="88" height="88" viewBox="0 0 88 88" fill="none" xmlns="http://www.w3.org/2000/svg">
<mask id="mask0_770_3300" style="mask-type:luminance" maskUnits="userSpaceOnUse" x="0" y="0" width="88" height="88">
<path d="M0 7.62939e-06H88V88H0V7.62939e-06Z" fill="white"/>
</mask>
<g mask="url(#mask0_770_3300)">
<path d="M21.2215 63.9316H15.5271C13.9547 63.9316 12.6797 62.6568 12.6797 61.0842V4.13633C12.6797 2.56367 13.9547 1.2887 15.5271 1.2887H72.4745C74.0471 1.2887 75.3221 2.56367 75.3221 4.13633V61.0842C75.3221 62.6568 74.0471 63.9316 72.4745 63.9316H66.7799H21.2215Z" fill="#EFEFEF"/>
<path d="M72.4727 1.2887H68.5195C70.092 1.2887 71.367 2.5635 71.367 4.13615V61.084C71.367 62.6567 70.092 63.9316 68.5195 63.9316H72.4727C74.0451 63.9316 75.3201 62.6567 75.3201 61.084V4.13615C75.3201 2.5635 74.0451 1.2887 72.4727 1.2887Z" fill="#DADADA"/>
<path d="M60.0558 21.2207H27.9492C27.3798 21.2207 26.918 20.759 26.918 20.1895V16.5569C26.918 15.9873 27.3798 15.5256 27.9492 15.5256H60.0558C60.6252 15.5256 61.0871 15.9873 61.0871 16.5569V20.1895C61.0871 20.759 60.6252 21.2207 60.0558 21.2207Z" fill="#C0E3F0"/>
<path d="M40.1236 38.3047H22.2539C21.6845 38.3047 21.2227 37.8429 21.2227 37.2734V27.9461C21.2227 27.3765 21.6845 26.9149 22.2539 26.9149H40.1236C40.693 26.9149 41.1548 27.3765 41.1548 27.9461V37.2734C41.1548 37.8429 40.693 38.3047 40.1236 38.3047Z" fill="#4DBBEB"/>
<path d="M31.5816 58.2363H22.2539C21.6845 58.2363 21.2227 57.7747 21.2227 57.2051V47.8778C21.2227 47.3082 21.6845 46.8465 22.2539 46.8465H31.5816C32.151 46.8465 32.6128 47.3082 32.6128 47.8778V57.2051C32.6128 57.7747 32.151 58.2363 31.5816 58.2363Z" fill="#DADADA"/>
<path d="M65.7495 58.2363H56.4219C55.8525 58.2363 55.3906 57.7747 55.3906 57.2051V47.8778C55.3906 47.3082 55.8525 46.8465 56.4219 46.8465H65.7495C66.319 46.8465 66.7808 47.3082 66.7808 47.8778V57.2051C66.7808 57.7747 66.319 58.2363 65.7495 58.2363Z" fill="#DADADA"/>
<path d="M48.6634 58.2363H39.3359C38.7663 58.2363 38.3047 57.7747 38.3047 57.2051V47.8778C38.3047 47.3082 38.7663 46.8465 39.3359 46.8465H48.6634C49.2328 46.8465 49.6947 47.3082 49.6947 47.8778V57.2051C49.6947 57.7747 49.2328 58.2363 48.6634 58.2363Z" fill="#DADADA"/>
<path d="M75.3221 9.83203V4.13713C75.3221 2.56447 74.0471 1.2895 72.4747 1.2895H15.5273C13.9547 1.2895 12.6797 2.56447 12.6797 4.13713V9.83203H75.3221Z" fill="#4DBBEB"/>
<path d="M72.4727 1.2895H68.5195C70.092 1.2895 71.367 2.5643 71.367 4.13695V9.83203H75.3201V4.13695C75.3201 2.5643 74.0451 1.2895 72.4727 1.2895Z" fill="#47A1EB"/>
<path d="M32.4348 56.8133H29.7654C28.1928 56.8133 26.918 58.0881 26.918 59.6607V83.8635C26.918 85.436 28.1928 86.7109 29.7654 86.7109H58.2393C59.8117 86.7109 61.0865 85.436 61.0865 83.8635V59.6607C61.0865 58.0881 59.8117 56.8133 58.2393 56.8133H55.5697" fill="#1276DF"/>
<path d="M58.2383 56.8133H55.5687H54.2852C55.8576 56.8133 57.1324 58.0881 57.1324 59.6607V83.8635C57.1324 85.436 55.8576 86.7109 54.2852 86.7109H58.2383C59.8108 86.7109 61.0856 85.436 61.0856 83.8635V59.6607C61.0856 58.0881 59.8108 56.8133 58.2383 56.8133Z" fill="#1276DF"/>
<path d="M32.4348 56.8135H29.7654C28.1928 56.8135 26.918 58.0883 26.918 59.6609V63.932C26.918 65.5045 28.1928 66.7793 29.7654 66.7793H58.2393C59.8117 66.7793 61.0865 65.5045 61.0865 63.932V59.6609C61.0865 58.0883 59.8117 56.8135 58.2393 56.8135H55.5699H32.4348Z" fill="#1276DF"/>
<path d="M48.2724 75.3207C48.2724 72.8703 46.2086 70.9018 43.7245 71.0586C41.6545 71.189 39.949 72.834 39.7508 74.8984C39.5992 76.4771 40.3082 77.8995 41.4632 78.7545C41.7203 78.9449 41.8659 79.251 41.8659 79.571V81.4082C41.8659 81.9776 42.3275 82.4395 42.8971 82.4395H45.1057C45.6753 82.4395 46.137 81.9776 46.137 81.4082V79.571C46.137 79.25 46.2841 78.944 46.5421 78.7527C47.5916 77.9748 48.2724 76.7277 48.2724 75.3207Z" fill="#57555C"/>
<path d="M55.3022 52.5423C55.3022 46.252 50.203 41.1528 43.9127 41.1528C37.6228 41.1528 32.5234 46.252 32.5234 52.5423V61.7969H38.2182L38.2183 52.5423C38.2183 49.3973 40.7679 46.8477 43.9127 46.8477C47.0579 46.8477 49.6075 49.3973 49.6075 52.5423V61.7969H55.3022V52.5423Z" fill="#C0E3F0"/>
<path d="M40.0463 46.8477C36.9013 46.8477 34.3517 49.3973 34.3517 52.5423L34.3516 61.7969H38.3047L38.3049 52.5423C38.3049 50.0924 39.8523 48.0041 42.0229 47.2006C41.4072 46.9727 40.7415 46.8477 40.0463 46.8477Z" fill="#9DD0E3"/>
<path d="M43.9998 41.153C43.3254 41.153 42.6656 41.215 42.0234 41.3274C47.3708 42.2636 51.4362 46.9268 51.4362 52.5424V61.7969H55.3893V52.5424C55.3893 46.2522 50.2903 41.153 43.9998 41.153Z" fill="#9DD0E3"/>
<path d="M26.9166 63.9316H15.5271C13.9545 63.9316 12.6797 62.6568 12.6797 61.0842V4.13633C12.6797 2.56367 13.9545 1.28871 15.5271 1.28871H72.4743C74.0471 1.28871 75.3219 2.56367 75.3219 4.13633V61.0842C75.3219 62.6568 74.0471 63.9316 72.4743 63.9316H61.085" stroke="#0A488A" stroke-width="3" stroke-miterlimit="10" stroke-linecap="round" stroke-linejoin="round"/>
<path d="M69.4531 9.83203H75.3209" stroke="#0A488A" stroke-width="3" stroke-miterlimit="10" stroke-linecap="round" stroke-linejoin="round"/>
<path d="M12.6797 9.83203H64.1061" stroke="#0A488A" stroke-width="3" stroke-miterlimit="10" stroke-linecap="round" stroke-linejoin="round"/>
<path d="M16.9492 5.56055H19.7965" stroke="#0A488A" stroke-width="3" stroke-miterlimit="10" stroke-linecap="round" stroke-linejoin="round"/>
<path d="M24.0703 5.56055H26.9178" stroke="#0A488A" stroke-width="3" stroke-miterlimit="10" stroke-linecap="round" stroke-linejoin="round"/>
<path d="M31.1875 5.56055H34.0348" stroke="#0A488A" stroke-width="3" stroke-miterlimit="10" stroke-linecap="round" stroke-linejoin="round"/>
<path d="M61.0872 21.2207H26.918V15.5256H61.0872V21.2207Z" stroke="#0A488A" stroke-width="3" stroke-miterlimit="10" stroke-linecap="round" stroke-linejoin="round"/>
<path d="M41.1547 38.3047H21.2227V26.9149H41.1547V38.3047Z" stroke="#0A488A" stroke-width="3" stroke-miterlimit="10" stroke-linecap="round" stroke-linejoin="round"/>
<path d="M26.9179 58.2363H21.2227V46.8465H32.6126V56.8125" stroke="#0A488A" stroke-width="3" stroke-miterlimit="10" stroke-linecap="round" stroke-linejoin="round"/>
<path d="M55.3906 56.8125V46.8465H66.7806V58.2363H61.0855" stroke="#0A488A" stroke-width="3" stroke-miterlimit="10" stroke-linecap="round" stroke-linejoin="round"/>
<path d="M46.8477 26.916H52.5422" stroke="#0A488A" stroke-width="3" stroke-miterlimit="10" stroke-linecap="round" stroke-linejoin="round"/>
<path d="M46.8477 32.6113H58.2371" stroke="#0A488A" stroke-width="3" stroke-miterlimit="10" stroke-linecap="round" stroke-linejoin="round"/>
<path d="M62.5078 32.6113H66.7786" stroke="#0A488A" stroke-width="3" stroke-miterlimit="10" stroke-linecap="round" stroke-linejoin="round"/>
<path d="M46.8477 38.3047H51.1186" stroke="#0A488A" stroke-width="3" stroke-miterlimit="10" stroke-linecap="round" stroke-linejoin="round"/>
<path d="M32.4348 56.8133H29.7654C28.1928 56.8133 26.918 58.0881 26.918 59.6607V83.8635C26.918 85.436 28.1928 86.7109 29.7654 86.7109H58.2393C59.8118 86.7109 61.0865 85.436 61.0865 83.8635V59.6607C61.0865 58.0881 59.8118 56.8133 58.2393 56.8133H55.5697" stroke="#153F69" stroke-width="3" stroke-miterlimit="10" stroke-linecap="round" stroke-linejoin="round"/>
<path d="M49.34 56.8125H38.4844" stroke="#153F69" stroke-width="3" stroke-miterlimit="10" stroke-linecap="round" stroke-linejoin="round"/>
<path d="M32.4348 56.8135H29.7654C28.1928 56.8135 26.918 58.0883 26.918 59.6609V63.932C26.918 65.5045 28.1928 66.7793 29.7654 66.7793H58.2393C59.8118 66.7793 61.0865 65.5045 61.0865 63.932V59.6609C61.0865 58.0883 59.8118 56.8135 58.2393 56.8135H55.5699" stroke="#153F69" stroke-width="3" stroke-miterlimit="10" stroke-linecap="round" stroke-linejoin="round"/>
<path d="M49.5181 56.8125H38.4844" stroke="#153F69" stroke-width="3" stroke-miterlimit="10" stroke-linecap="round" stroke-linejoin="round"/>
<path d="M48.2723 75.3207C48.2723 72.9619 46.3602 71.0498 44.0014 71.0498C41.6426 71.0498 39.7305 72.9619 39.7305 75.3207C39.7305 76.9013 40.5897 78.2803 41.8658 79.0188V82.4395H46.1369V79.0188C47.4131 78.2803 48.2723 76.9013 48.2723 75.3207Z" stroke="#153F69" stroke-width="3" stroke-miterlimit="10" stroke-linecap="round" stroke-linejoin="round"/>
<path d="M55.392 52.5423C55.392 46.252 50.2927 41.1528 44.0026 41.1528C37.7125 41.1528 32.6133 46.252 32.6133 52.5423V61.7969H38.3078L38.308 52.5423C38.308 49.3973 40.8576 46.8477 44.0026 46.8477C47.1475 46.8477 49.6971 49.3973 49.6971 52.5423V61.7969H55.392V52.5423Z" stroke="#153F69" stroke-width="3" stroke-miterlimit="10" stroke-linecap="round" stroke-linejoin="round"/>
<path d="M31.7227 61.7969H39.1968" stroke="#153F69" stroke-width="3" stroke-miterlimit="10" stroke-linecap="round" stroke-linejoin="round"/>
<path d="M48.8047 61.7969H56.2788" stroke="#153F69" stroke-width="3" stroke-miterlimit="10" stroke-linecap="round" stroke-linejoin="round"/>
</g>
</svg>
