<svg width="89" height="89" viewBox="0 0 89 89" fill="none" xmlns="http://www.w3.org/2000/svg">
<g clip-path="url(#clip0_769_3000)">
<path d="M58.9372 23.1123C60.1204 22.5006 59.9833 20.7665 58.7175 20.349L5.16072 2.35962C3.16811 1.70191 1.27613 3.59389 1.93384 5.5865L1.93732 6.18095L19.882 60.5837C20.2995 61.8494 22.0337 61.9866 22.6453 60.8034L34.4011 38.0491C35.2096 36.4844 36.4843 35.2095 38.0492 34.4011L57.4894 24.3579L58.9372 23.1123Z" fill="white"/>
<path d="M60.8056 22.6453L57.4912 24.3577L1.93903 6.18078L1.43775 4.66268C0.780033 2.67006 2.67201 0.77808 4.66463 1.4358L60.5858 19.8819C61.8516 20.2994 61.9887 22.0338 60.8056 22.6453Z" fill="white"/>
<path d="M85.7796 61.6172C85.7796 76.0166 76.0185 85.7579 61.6192 85.7579C52.5947 85.7579 45.0144 82.7137 40.3341 75.7461C39.6957 74.7957 38.2341 73.1585 38.2341 73.1585C36.5136 69.6795 35.5469 65.7611 35.5469 61.6172C35.5469 47.2178 47.2198 35.5449 61.6192 35.5449C68.427 35.5449 74.6252 38.1546 79.2687 42.4277C79.2687 42.4277 80.5031 44.2936 81.2154 45.1383C85.0418 49.6756 85.7796 55.2173 85.7796 61.6172Z" fill="#1276DF"/>
<path d="M87.6918 61.6173C87.6918 76.0161 76.0183 87.6896 61.6195 87.6896C51.3644 87.6896 42.4928 81.7694 38.2344 73.1586C42.877 77.4327 50.8089 80.77 57.6172 80.77C72.0161 80.77 82.6798 68.8782 82.6798 54.4794C82.6798 50.3356 80.99 45.9058 79.2692 42.4277C84.447 47.192 87.6918 54.0268 87.6918 61.6173Z" fill="#248EFF"/>
<path d="M74.3253 69.3926L66.6716 61.7388C66.6036 61.6708 66.6036 61.5608 66.6716 61.493L74.3253 53.8392C74.3933 53.7713 74.3933 53.6612 74.3253 53.5935L69.6422 48.9103C69.5743 48.8424 69.4643 48.8424 69.3965 48.9103L61.7427 56.5641C61.6747 56.6321 61.5647 56.6321 61.4969 56.5641L53.8431 48.9103C53.7752 48.8424 53.6651 48.8424 53.5974 48.9103L48.9143 53.5935C48.8463 53.6614 48.8463 53.7714 48.9143 53.8392L56.568 61.493C56.636 61.561 56.636 61.671 56.568 61.7388L48.9143 69.3926C48.8463 69.4605 48.8463 69.5706 48.9143 69.6383L53.5974 74.3214C53.6653 74.3894 53.7753 74.3894 53.8431 74.3214L61.4969 66.6677C61.5649 66.5997 61.6749 66.5997 61.7427 66.6677L69.3965 74.3214C69.4644 74.3894 69.5745 74.3894 69.6422 74.3214L74.3253 69.6383C74.3931 69.5706 74.3931 69.4605 74.3253 69.3926Z" fill="#F2FBFF"/>
<path d="M11.0014 33.658L1.43808 4.66214C0.779322 2.67022 2.67217 0.777369 4.66409 1.43613L60.5857 19.8814C61.851 20.2986 61.9884 22.0332 60.8047 22.6451L38.0505 34.4002C36.4844 35.2084 35.2104 36.4825 34.4021 38.0486L22.647 60.8027C22.0352 61.9864 20.3005 61.8491 19.8834 60.5837L12.9081 39.4356" stroke="#0A488A" stroke-width="3" stroke-miterlimit="10" stroke-linecap="round" stroke-linejoin="round"/>
<path d="M49.1419 38.7232C55.2998 35.3691 62.7848 34.4939 69.953 36.9122C83.5968 41.5152 90.9257 56.3072 86.3227 69.951C81.7197 83.5948 66.9277 90.9237 53.2839 86.3207C39.6401 81.7178 32.3112 66.9257 36.9142 53.2819C38.3527 49.0183 40.7861 45.3713 43.8685 42.5124" stroke="#0A488A" stroke-width="3" stroke-miterlimit="10" stroke-linecap="round" stroke-linejoin="round"/>
<path d="M74.4461 69.5153L66.5466 61.6157L74.4461 53.716L69.5172 48.7871L61.6175 56.6867L53.7179 48.7871L48.7891 53.7162L56.6886 61.6157L48.7891 69.5153L53.7179 74.4442L61.6175 66.5446L69.5171 74.4442L74.4461 69.5153Z" stroke="#0A488A" stroke-width="3" stroke-miterlimit="10" stroke-linecap="round" stroke-linejoin="round"/>
</g>
<defs>
<clipPath id="clip0_769_3000">
<rect width="89" height="89" fill="white"/>
</clipPath>
</defs>
</svg>
