<svg width="88" height="88" viewBox="0 0 88 88" fill="none" xmlns="http://www.w3.org/2000/svg">
<g clip-path="url(#clip0_768_2837)">
<path d="M68.7531 26.1948H4.04267C2.52175 26.1948 1.28906 24.9621 1.28906 23.4412V4.16572C1.28906 2.6448 2.52175 1.41211 4.04267 1.41211H68.7531C70.274 1.41211 71.5067 2.6448 71.5067 4.16572V23.4412C71.5067 24.9619 70.274 26.1948 68.7531 26.1948Z" fill="white"/>
<path d="M6.79645 22.0644C6.03608 22.0644 5.41956 21.4479 5.41956 20.6875V1.41211H4.04267C2.52175 1.41211 1.28906 2.64497 1.28906 4.16572V23.4412C1.28906 24.9619 2.52175 26.1948 4.04267 26.1948H68.7531C70.274 26.1948 71.5067 24.9619 71.5067 23.4412V22.0643L6.79645 22.0644Z" fill="white"/>
<path d="M66.0007 6.91992H32.957V20.6881H66.0007V6.91992Z" fill="white"/>
<path d="M59.9766 20.6876H66.0001V14.6641L59.9766 20.6876Z" fill="#D3D2D2"/>
<path d="M32.957 6.91992V20.6881H37.6038L51.3721 6.91992H32.957Z" fill="#D3D2D2"/>
<path d="M59.4596 6.91992L45.6914 20.6881H57.5664L65.9995 12.2551V6.91992H59.4596Z" fill="#D3D2D2"/>
<path d="M23.318 17.9348C25.5992 17.9348 27.4485 16.0855 27.4485 13.8043C27.4485 11.5231 25.5992 9.67383 23.318 9.67383C21.0368 9.67383 19.1875 11.5231 19.1875 13.8043C19.1875 16.0855 21.0368 17.9348 23.318 17.9348Z" fill="#1276DF"/>
<path d="M23.3183 15.1815C24.0787 15.1815 24.6952 14.5651 24.6952 13.8046C24.6952 13.0442 24.0787 12.4277 23.3183 12.4277C22.5579 12.4277 21.9414 13.0442 21.9414 13.8046C21.9414 14.5651 22.5579 15.1815 23.3183 15.1815Z" fill="#1276DF"/>
<path d="M10.9274 17.9348C13.2086 17.9348 15.0579 16.0855 15.0579 13.8043C15.0579 11.5231 13.2086 9.67383 10.9274 9.67383C8.64616 9.67383 6.79688 11.5231 6.79688 13.8043C6.79688 16.0855 8.64616 17.9348 10.9274 17.9348Z" fill="#1276DF"/>
<path d="M10.9277 15.1815C11.6881 15.1815 12.3046 14.5651 12.3046 13.8046C12.3046 13.0442 11.6881 12.4277 10.9277 12.4277C10.1672 12.4277 9.55078 13.0442 9.55078 13.8046C9.55078 14.5651 10.1672 15.1815 10.9277 15.1815Z" fill="#1276DF"/>
<path d="M68.7531 50.9781H4.04267C2.52175 50.9781 1.28906 49.7455 1.28906 48.2245V28.9489C1.28906 27.428 2.52175 26.1953 4.04267 26.1953H68.7531C70.274 26.1953 71.5067 27.428 71.5067 28.9489V48.2245C71.5067 49.7451 70.274 50.9781 68.7531 50.9781Z" fill="white"/>
<path d="M6.79645 46.8476C6.03608 46.8476 5.41956 46.2311 5.41956 45.4708V26.1953H4.04267C2.52175 26.1953 1.28906 27.4282 1.28906 28.9489V48.2245C1.28906 49.7453 2.52175 50.9781 4.04267 50.9781H68.7531C70.274 50.9781 71.5067 49.7453 71.5067 48.2245V46.8476H6.79645Z" fill="white"/>
<path d="M66.0007 31.7031H32.957V45.4713H66.0007V31.7031Z" fill="white"/>
<path d="M59.9766 45.4708H66.0001V39.4473L59.9766 45.4708Z" fill="#D3D2D2"/>
<path d="M32.957 31.7031V45.4712H37.6038L51.3721 31.7031H32.957Z" fill="#D3D2D2"/>
<path d="M59.4596 31.7031L45.6914 45.4712H57.5664L65.9995 37.0383V31.7031H59.4596Z" fill="#D3D2D2"/>
<path d="M23.318 42.718C25.5992 42.718 27.4485 40.8687 27.4485 38.5875C27.4485 36.3063 25.5992 34.457 23.318 34.457C21.0368 34.457 19.1875 36.3063 19.1875 38.5875C19.1875 40.8687 21.0368 42.718 23.318 42.718Z" fill="#1276DF"/>
<path d="M23.3183 39.9647C24.0787 39.9647 24.6952 39.3483 24.6952 38.5878C24.6952 37.8274 24.0787 37.2109 23.3183 37.2109C22.5579 37.2109 21.9414 37.8274 21.9414 38.5878C21.9414 39.3483 22.5579 39.9647 23.3183 39.9647Z" fill="#1276DF"/>
<path d="M10.9274 42.718C13.2086 42.718 15.0579 40.8687 15.0579 38.5875C15.0579 36.3063 13.2086 34.457 10.9274 34.457C8.64616 34.457 6.79688 36.3063 6.79688 38.5875C6.79688 40.8687 8.64616 42.718 10.9274 42.718Z" fill="#1276DF"/>
<path d="M10.9277 39.9647C11.6881 39.9647 12.3046 39.3483 12.3046 38.5878C12.3046 37.8274 11.6881 37.2109 10.9277 37.2109C10.1672 37.2109 9.55078 37.8274 9.55078 38.5878C9.55078 39.3483 10.1672 39.9647 10.9277 39.9647Z" fill="#1276DF"/>
<path d="M68.7531 75.7612H4.04267C2.52175 75.7612 1.28906 74.5285 1.28906 73.0076V53.7321C1.28906 52.2112 2.52175 50.9785 4.04267 50.9785H68.7531C70.274 50.9785 71.5067 52.2112 71.5067 53.7321V73.0076C71.5067 74.5283 70.274 75.7612 68.7531 75.7612Z" fill="white"/>
<path d="M6.79645 71.6307C6.03608 71.6307 5.41956 71.0142 5.41956 70.2538V50.9785H4.04267C2.52175 50.9785 1.28906 52.2114 1.28906 53.7321V73.0076C1.28906 74.5283 2.52175 75.7612 4.04267 75.7612H68.7531C70.274 75.7612 71.5067 74.5283 71.5067 73.0076V71.6307H6.79645Z" fill="white"/>
<path d="M66.0007 56.4863H32.957V70.2545H66.0007V56.4863Z" fill="white"/>
<path d="M59.9766 70.2542H66.0001V64.2305L59.9766 70.2542Z" fill="#D3D2D2"/>
<path d="M32.957 56.4863V70.2545H37.6038L51.3721 56.4863H32.957Z" fill="#D3D2D2"/>
<path d="M59.4596 56.4863L45.6914 70.2545H57.5664L65.9995 61.8215V56.4863H59.4596Z" fill="#D3D2D2"/>
<path d="M23.318 67.5012C25.5992 67.5012 27.4485 65.6519 27.4485 63.3707C27.4485 61.0895 25.5992 59.2402 23.318 59.2402C21.0368 59.2402 19.1875 61.0895 19.1875 63.3707C19.1875 65.6519 21.0368 67.5012 23.318 67.5012Z" fill="#1276DF"/>
<path d="M23.3183 64.746C24.0787 64.746 24.6952 64.1295 24.6952 63.3691C24.6952 62.6086 24.0787 61.9922 23.3183 61.9922C22.5579 61.9922 21.9414 62.6086 21.9414 63.3691C21.9414 64.1295 22.5579 64.746 23.3183 64.746Z" fill="#1276DF"/>
<path d="M10.9274 67.5012C13.2086 67.5012 15.0579 65.6519 15.0579 63.3707C15.0579 61.0895 13.2086 59.2402 10.9274 59.2402C8.64616 59.2402 6.79688 61.0895 6.79688 63.3707C6.79688 65.6519 8.64616 67.5012 10.9274 67.5012Z" fill="#1276DF"/>
<path d="M10.9277 64.746C11.6881 64.746 12.3046 64.1295 12.3046 63.3691C12.3046 62.6086 11.6881 61.9922 10.9277 61.9922C10.1672 61.9922 9.55078 62.6086 9.55078 63.3691C9.55078 64.1295 10.1672 64.746 10.9277 64.746Z" fill="#1276DF"/>
<path d="M56.3617 70.2546C65.4864 70.2546 72.8835 62.8575 72.8835 53.7328C72.8835 44.608 65.4864 37.2109 56.3617 37.2109C47.2369 37.2109 39.8398 44.608 39.8398 53.7328C39.8398 62.8575 47.2369 70.2546 56.3617 70.2546Z" fill="#1276DF"/>
<path d="M56.3633 65.6075C62.9217 65.6075 68.2383 60.2908 68.2383 53.7324C68.2383 47.174 62.9217 41.8574 56.3633 41.8574C49.8049 41.8574 44.4883 47.174 44.4883 53.7324C44.4883 60.2908 49.8049 65.6075 56.3633 65.6075Z" fill="#D3D2D2"/>
<path d="M56.3643 63.3692C61.687 63.3692 66.002 59.0542 66.002 53.7315C66.002 48.4087 61.687 44.0938 56.3643 44.0938C51.0415 44.0938 46.7266 48.4087 46.7266 53.7315C46.7266 59.0542 51.0415 63.3692 56.3643 63.3692Z" fill="white"/>
<path d="M85.987 81.9896L76.1195 71.2249C75.0915 70.1038 73.3499 70.0283 72.2289 71.0558C71.1078 72.0836 71.0321 73.8254 72.0598 74.9464L81.9273 85.7111C82.4704 86.3035 83.2131 86.604 83.958 86.604C84.6226 86.604 85.2893 86.3645 85.818 85.8802C86.9387 84.8526 87.0144 83.1106 85.987 81.9896Z" fill="#1276DF"/>
<path d="M84.6232 84.5051L74.7556 73.7404C73.8834 72.7889 73.8091 71.3912 74.4915 70.3615C73.6998 70.2452 72.8645 70.4722 72.2289 71.0549C71.1078 72.0827 71.0321 73.8245 72.0598 74.9455L81.9273 85.7102C82.4704 86.3026 83.2131 86.603 83.958 86.603C84.6226 86.603 85.2893 86.3636 85.818 85.8793C85.9882 85.7234 86.1312 85.5493 86.2529 85.3652C85.648 85.2769 85.0683 84.9909 84.6232 84.5051Z" fill="#1276DF"/>
<path d="M48.7031 53.7321C48.7031 53.7321 52.1319 49.6016 56.3617 49.6016C60.5914 49.6016 64.0203 53.7321 64.0203 53.7321C64.0203 53.7321 60.5916 57.8626 56.3617 57.8626C52.1319 57.8626 48.7031 53.7321 48.7031 53.7321Z" fill="white"/>
<path d="M56.363 56.4857C57.8838 56.4857 59.1166 55.2529 59.1166 53.7321C59.1166 52.2113 57.8838 50.9785 56.363 50.9785C54.8422 50.9785 53.6094 52.2113 53.6094 53.7321C53.6094 55.2529 54.8422 56.4857 56.363 56.4857Z" fill="#1276DF"/>
<path d="M66.0024 37.4683C66.7153 37.4683 67.2932 36.8906 67.2932 36.1775V31.7029C67.2932 30.99 66.7155 30.4121 66.0024 30.4121H32.9588C32.246 30.4121 31.668 30.9898 31.668 31.7029V45.4711C31.668 46.184 32.2458 46.7619 32.9588 46.7619H37.6056C38.3183 46.7619 38.8963 46.1842 38.8963 45.4711C38.8963 44.7582 38.3185 44.1803 37.6056 44.1803H34.2495V32.9937H64.7116V36.1775C64.7116 36.8903 65.2895 37.4683 66.0024 37.4683Z" fill="#0A488A"/>
<path d="M17.8984 38.5873C17.8984 41.5765 20.3305 44.0086 23.3197 44.0086C26.309 44.0086 28.741 41.5765 28.741 38.5873C28.741 35.598 26.309 33.166 23.3197 33.166C20.3305 33.166 17.8984 35.598 17.8984 38.5873ZM26.1594 38.5873C26.1594 40.1531 24.8855 41.427 23.3197 41.427C21.7539 41.427 20.48 40.1531 20.48 38.5873C20.48 37.0215 21.7539 35.7476 23.3197 35.7476C24.8855 35.7478 26.1594 37.0215 26.1594 38.5873Z" fill="#0A488A"/>
<path d="M5.50781 38.5873C5.50781 41.5765 7.93984 44.0086 10.9291 44.0086C13.9183 44.0086 16.3504 41.5765 16.3504 38.5873C16.3504 35.598 13.9183 33.166 10.9291 33.166C7.93984 33.166 5.50781 35.598 5.50781 38.5873ZM13.7688 38.5873C13.7688 40.1531 12.4949 41.427 10.9291 41.427C9.36331 41.427 8.08938 40.1531 8.08938 38.5873C8.08938 37.0215 9.36331 35.7476 10.9291 35.7476C12.4949 35.7476 13.7688 37.0215 13.7688 38.5873Z" fill="#0A488A"/>
<path d="M32.9588 21.9787H66.0024C66.7153 21.9787 67.2932 21.401 67.2932 20.6879V6.91969C67.2932 6.20675 66.7155 5.62891 66.0024 5.62891H32.9588C32.246 5.62891 31.668 6.20658 31.668 6.91969V20.6879C31.668 21.4007 32.246 21.9787 32.9588 21.9787ZM34.2495 8.21047H64.7116V19.3971H34.2495V8.21047Z" fill="#0A488A"/>
<path d="M23.3197 19.2254C26.309 19.2254 28.741 16.7933 28.741 13.8041C28.741 10.8148 26.309 8.38281 23.3197 8.38281C20.3305 8.38281 17.8984 10.8147 17.8984 13.8041C17.8984 16.7935 20.3305 19.2254 23.3197 19.2254ZM23.3197 10.9644C24.8855 10.9644 26.1594 12.2383 26.1594 13.8041C26.1594 15.3699 24.8855 16.6438 23.3197 16.6438C21.7539 16.6438 20.48 15.3699 20.48 13.8041C20.48 12.2383 21.7539 10.9644 23.3197 10.9644Z" fill="#0A488A"/>
<path d="M10.9291 19.2254C13.9183 19.2254 16.3504 16.7933 16.3504 13.8041C16.3504 10.8148 13.9183 8.38281 10.9291 8.38281C7.93984 8.38281 5.50781 10.8147 5.50781 13.8041C5.50781 16.7935 7.93984 19.2254 10.9291 19.2254ZM10.9291 10.9644C12.4949 10.9644 13.7688 12.2383 13.7688 13.8041C13.7688 15.3699 12.4949 16.6438 10.9291 16.6438C9.36331 16.6438 8.08938 15.3697 8.08938 13.8041C8.08938 12.2385 9.36331 10.9644 10.9291 10.9644Z" fill="#0A488A"/>
<path d="M67.1199 74.4692H4.04439C3.23778 74.4692 2.58156 73.813 2.58156 73.0064V53.731C2.58156 52.9244 3.23778 52.2681 4.04439 52.2681H35.7112C36.4239 52.2681 37.0019 51.6905 37.0019 50.9774C37.0019 50.2644 36.4241 49.6866 35.7112 49.6866H4.04439C3.23778 49.6866 2.58156 49.0304 2.58156 48.2237V28.9481C2.58156 28.1415 3.23778 27.4853 4.04439 27.4853H68.7548C69.5614 27.4853 70.2176 28.1415 70.2176 28.9481V40.3068C70.2176 41.0198 70.7953 41.5976 71.5084 41.5976C72.2214 41.5976 72.7992 41.02 72.7992 40.3068V28.9481C72.7992 27.8851 72.3864 26.9171 71.7133 26.1945C72.3864 25.4718 72.7992 24.504 72.7992 23.4409V4.16548C72.7992 1.93541 70.9849 0.121094 68.7548 0.121094H4.04439C1.81431 0.121094 0 1.93541 0 4.16548V23.4409C0 24.504 0.412844 25.472 1.08591 26.1945C0.412844 26.9173 0 27.8851 0 28.9481V48.2236C0 49.2866 0.412844 50.2546 1.08591 50.9772C0.412844 51.6999 0 52.6679 0 53.731V73.0064C0 75.2365 1.81431 77.0508 4.04439 77.0508H67.1199C67.8329 77.0508 68.4107 76.4731 68.4107 75.76C68.4107 75.0471 67.8329 74.4692 67.1199 74.4692ZM2.58156 4.16548C2.58156 3.35888 3.23778 2.70266 4.04439 2.70266H68.7548C69.5614 2.70266 70.2176 3.35888 70.2176 4.16548V23.4409C70.2176 24.2475 69.5614 24.9037 68.7548 24.9037H4.04439C3.23778 24.9037 2.58156 24.2475 2.58156 23.4409V4.16548Z" fill="#0A488A"/>
<path d="M35.8844 57.7769C36.5972 57.7769 37.1752 57.1992 37.1752 56.4861C37.1752 55.7732 36.5973 55.1953 35.8844 55.1953H32.9587C32.246 55.1953 31.668 55.773 31.668 56.4861V70.2543C31.668 70.9672 32.2458 71.5451 32.9587 71.5451H44.9199C45.6328 71.5451 46.2107 70.9674 46.2107 70.2543C46.2107 69.5414 45.633 68.9635 44.9199 68.9635H34.2495V57.7769H35.8844Z" fill="#0A488A"/>
<path d="M17.8984 63.3705C17.8984 66.3598 20.3305 68.7918 23.3197 68.7918C26.309 68.7918 28.741 66.3598 28.741 63.3705C28.741 60.3813 26.309 57.9492 23.3197 57.9492C20.3305 57.9492 17.8984 60.3811 17.8984 63.3705ZM26.1594 63.3705C26.1594 64.9363 24.8855 66.2102 23.3197 66.2102C21.7539 66.2102 20.48 64.9363 20.48 63.3705C20.48 61.8047 21.7539 60.5308 23.3197 60.5308C24.8855 60.5308 26.1594 61.8047 26.1594 63.3705Z" fill="#0A488A"/>
<path d="M5.50781 63.3705C5.50781 66.3598 7.93984 68.7918 10.9291 68.7918C13.9183 68.7918 16.3504 66.3598 16.3504 63.3705C16.3504 60.3813 13.9183 57.9492 10.9291 57.9492C7.93984 57.9492 5.50781 60.3811 5.50781 63.3705ZM13.7688 63.3705C13.7688 64.9363 12.4949 66.2102 10.9291 66.2102C9.36331 66.2102 8.08938 64.9363 8.08938 63.3705C8.08938 61.8047 9.36331 60.5308 10.9291 60.5308C12.4949 60.5308 13.7688 61.8047 13.7688 63.3705Z" fill="#0A488A"/>
<path d="M67.8892 47.3613C67.5438 46.7376 66.7581 46.5121 66.1349 46.8575C65.5113 47.203 65.2857 47.9883 65.6311 48.6119C66.4936 50.1692 66.9494 51.9399 66.9494 53.7322C66.9494 59.5684 62.2014 64.3164 56.3652 64.3164C50.529 64.3164 45.781 59.5684 45.781 53.7322C45.781 47.896 50.529 43.148 56.3652 43.148C58.1584 43.148 59.9292 43.6041 61.4865 44.4669C62.1101 44.8124 62.8957 44.5869 63.241 43.9633C63.5865 43.3398 63.361 42.5541 62.7375 42.2088C60.7982 41.1345 58.5948 40.5664 56.365 40.5664C49.1052 40.5664 43.1992 46.4724 43.1992 53.7322C43.1992 60.992 49.1052 66.898 56.365 66.898C63.6248 66.898 69.5308 60.992 69.5308 53.7322C69.531 51.5035 68.9633 49.3006 67.8892 47.3613Z" fill="#0A488A"/>
<path d="M86.9387 81.1179C86.9387 81.1177 86.9387 81.1177 86.9387 81.1179L77.0712 70.353C75.8721 69.0452 74.0052 68.7113 72.4641 69.3869L69.3135 65.9498C72.3261 62.7582 74.176 58.4574 74.176 53.7325C74.176 43.9107 66.1854 35.9199 56.3634 35.9199C46.5414 35.9199 38.5508 43.9104 38.5508 53.7325C38.5508 63.5547 46.5414 71.5451 56.3634 71.5451C60.5334 71.5451 64.3729 70.1041 67.4113 67.6948L70.5558 71.1253C69.7366 72.6051 69.904 74.505 71.1084 75.8188L80.9759 86.5835C82.4647 88.2071 85.0662 88.3201 86.6902 86.8319C88.3344 85.3249 88.4456 82.7615 86.9387 81.1179ZM41.1323 53.7325C41.1323 45.334 47.9649 38.5015 56.3634 38.5015C64.7619 38.5015 71.5944 45.334 71.5944 53.7325C71.5944 62.131 64.7619 68.9636 56.3634 68.9636C47.9649 68.9636 41.1323 62.1307 41.1323 53.7325ZM84.946 84.9289C84.3574 85.468 83.4179 85.4266 82.8789 84.839L73.0114 74.0745C72.4676 73.481 72.5162 72.5252 73.1195 71.9915C73.7032 71.475 74.6413 71.5225 75.1684 72.0975L85.0359 82.8621C85.5808 83.4566 85.5404 84.3839 84.946 84.9289Z" fill="#0A488A"/>
<path d="M47.7117 52.9073C47.3148 53.3853 47.3148 54.0782 47.7117 54.5561C47.8674 54.7438 51.5825 59.1529 56.3634 59.1529C61.1444 59.1529 64.8592 54.7438 65.015 54.5561C65.4119 54.0782 65.4119 53.3853 65.015 52.9073C64.8593 52.7197 61.1443 48.3105 56.3634 48.3105C51.5823 48.3105 47.8676 52.7197 47.7117 52.9073ZM56.3634 55.1947C55.5568 55.1947 54.9005 54.5384 54.9005 53.7318C54.9005 52.9252 55.5568 52.269 56.3634 52.269C57.17 52.269 57.8262 52.9252 57.8262 53.7318C57.8262 54.5384 57.17 55.1947 56.3634 55.1947ZM52.6868 52.0497C52.4513 52.5624 52.319 53.1316 52.319 53.7318C52.319 54.332 52.4513 54.9013 52.6868 55.414C51.7812 54.8678 51.0229 54.2286 50.4968 53.7318C51.0229 53.2351 51.7812 52.5959 52.6868 52.0497ZM60.04 55.414C60.2754 54.9013 60.4078 54.332 60.4078 53.7318C60.4078 53.1316 60.2754 52.5624 60.04 52.0497C60.9459 52.5961 61.7042 53.2355 62.2302 53.7318C61.704 54.2284 60.9456 54.8676 60.04 55.414Z" fill="#0A488A"/>
</g>
<defs>
<clipPath id="clip0_768_2837">
<rect width="88" height="88" fill="white"/>
</clipPath>
</defs>
</svg>
