<svg width="88" height="88" viewBox="0 0 88 88" fill="none" xmlns="http://www.w3.org/2000/svg">
<mask id="mask0_769_3016" style="mask-type:luminance" maskUnits="userSpaceOnUse" x="0" y="0" width="88" height="88">
<path d="M0 7.62939e-06H88V88H0V7.62939e-06Z" fill="white"/>
</mask>
<g mask="url(#mask0_769_3016)">
<path d="M86.6991 12.9004V66.4395C86.6991 67.579 85.7761 68.502 84.6366 68.502H3.36719C2.22766 68.502 1.30469 67.579 1.30469 66.4395V12.9004L6.3487 9.51377L79.1639 7.88509L86.6991 12.9004Z" fill="#F2FBFF"/>
<path d="M7.66406 68.502H3.36719C2.22766 68.502 1.30469 67.5792 1.30469 66.4395V12.9004L3.68103 9.51376L5.60156 12.9004V66.4395C5.60156 67.5792 6.52453 68.502 7.66406 68.502Z" fill="#D8ECFE"/>
<path d="M86.6991 4.93244V12.9004H1.30469V4.93244C1.30469 3.79463 2.22766 2.86994 3.36719 2.86994H84.6366C85.7761 2.86994 86.6991 3.79463 86.6991 4.93244Z" fill="#B3DAFE"/>
<path d="M7.66406 2.86994C6.52453 2.86994 5.60156 3.79463 5.60156 4.93244V12.9004H1.30469V4.93244C1.30469 3.79463 2.22766 2.86994 3.36719 2.86994H7.66406Z" fill="#8AC9FE"/>
<path d="M34.1797 41.6973H12.828C12.6237 41.6973 12.4281 41.6081 12.2988 41.4501C10.2606 38.9583 9.03906 35.7722 9.03906 32.3029C9.03889 24.3785 15.3596 17.9576 23.283 17.8393C31.373 17.7185 37.9689 24.2404 37.9689 32.3028C37.9689 35.772 36.7474 38.9581 34.7093 41.4501C34.5799 41.6081 34.3841 41.6973 34.1797 41.6973Z" fill="#B6C4CF"/>
<path d="M13.3359 32.3047C13.3359 35.7731 14.558 38.9597 16.5964 41.4519C16.7253 41.61 16.9212 41.6992 17.1258 41.6992H12.8289C12.6244 41.6992 12.4284 41.61 12.2995 41.4519C10.2611 38.9597 9.03906 35.7731 9.03906 32.3047C9.03906 24.3795 15.3589 17.9581 23.2823 17.8414C24.0884 17.8292 24.8791 17.8827 25.6491 17.9978C18.6537 19.0308 13.3359 25.0342 13.3359 32.3047Z" fill="#9FACBA"/>
<path d="M29.4548 41.6992V37.7822C29.4548 36.1391 28.788 34.6506 27.712 33.5747C26.6344 32.497 25.1477 31.8302 23.5028 31.8302C20.2148 31.8302 17.5508 34.4959 17.5508 37.7822V41.6992H29.4548Z" fill="#1276DF"/>
<path d="M25.6512 32.2289C23.4255 33.0917 21.8477 35.2539 21.8477 37.7822V41.6992H17.5508V37.7822C17.5508 34.4959 20.2148 31.8302 23.5028 31.8302C24.2608 31.8302 24.9844 31.9711 25.6512 32.2289Z" fill="#1276DF"/>
<path d="M27.5064 28.1277C27.5064 30.3375 25.715 32.1289 23.5052 32.1289C21.2954 32.1289 19.5039 30.3375 19.5039 28.1277C19.5039 25.918 21.2954 24.1266 23.5052 24.1266C25.715 24.1266 27.5064 25.918 27.5064 28.1277Z" fill="#F2FBFF"/>
<path d="M77.5889 41.6989H47.4609C46.7014 41.6989 46.0859 42.3145 46.0859 43.0739V80.4082C46.0859 81.1675 46.7014 81.7832 47.4609 81.7832H54.7469C55.1266 81.7832 55.4344 81.4754 55.4344 81.0957V77.7964C55.4344 77.4165 55.7422 77.1089 56.1219 77.1089H68.9278C69.3075 77.1089 69.6153 77.4165 69.6153 77.7964V81.0957C69.6153 81.4754 69.9231 81.7832 70.3028 81.7832H77.5889C78.3482 81.7832 78.9639 81.1675 78.9639 80.4082V43.0739C78.9639 42.3145 78.3482 41.6989 77.5889 41.6989Z" fill="#1276DF"/>
<path d="M50.3828 43.0733V80.4082C50.3828 81.1679 50.9981 81.7832 51.7578 81.7832H47.4609C46.7012 81.7832 46.0859 81.1679 46.0859 80.4082V43.0733C46.0859 42.3137 46.7012 41.6983 47.4609 41.6983H51.7578C50.9981 41.6983 50.3828 42.3137 50.3828 43.0733Z" fill="#1276DF"/>
<path d="M33.9336 76.6509C31.5318 83.3145 24.1828 86.7693 17.5192 84.3676C10.8556 81.9658 7.40056 74.6167 9.80234 67.9533C12.2041 61.2896 19.5532 57.8345 26.2169 60.2363C32.8805 62.6383 36.3354 69.9871 33.9336 76.6509Z" fill="#B3DAFE"/>
<path d="M24.0161 84.9492C21.9072 85.3084 19.6762 85.1451 17.5192 84.3682C10.8556 81.9654 7.40093 74.6161 9.80203 67.9523C11.9402 62.0176 18.0056 58.6281 24.0144 59.6561C19.6092 60.4089 15.7231 63.4459 14.0989 67.9523C11.6978 74.6161 15.1525 81.9654 21.8161 84.3682C22.5448 84.631 23.2805 84.822 24.0161 84.9492Z" fill="#8AC9FE"/>
<path d="M33.7127 54.5234H13.2969C12.9172 54.5234 12.6094 54.2156 12.6094 53.8359V48.1491C12.6094 47.7694 12.9172 47.4616 13.2969 47.4616H33.7127C34.0924 47.4616 34.4002 47.7694 34.4002 48.1491V53.8359C34.4002 54.2156 34.0924 54.5234 33.7127 54.5234Z" fill="white"/>
<path d="M17.5937 54.5215H13.2969C12.917 54.5215 12.6094 54.2138 12.6094 53.834V48.1484C12.6094 47.7685 12.917 47.4609 13.2969 47.4609H17.5937C17.2139 47.4609 16.9062 47.7685 16.9062 48.1484V53.834C16.9062 54.2138 17.2139 54.5215 17.5937 54.5215Z" fill="white"/>
<path d="M53.8203 53.457V48.3083C53.8203 47.9287 54.1281 47.6208 54.5078 47.6208H70.542C70.9219 47.6208 71.2295 47.9287 71.2295 48.3083V53.457C71.2295 53.8367 70.9219 54.1445 70.542 54.1445H54.5078C54.1281 54.1445 53.8203 53.8367 53.8203 53.457Z" fill="#F2FBFF"/>
<path d="M58.8047 54.1426H54.5078C54.128 54.1426 53.8203 53.8349 53.8203 53.4551V48.3074C53.8203 47.9276 54.128 47.6199 54.5078 47.6199H58.8047C58.4248 47.6199 58.1172 47.9276 58.1172 48.3074V53.4551C58.1172 53.8349 58.4248 54.1426 58.8047 54.1426Z" fill="#D8ECFE"/>
<path d="M22.1219 71.2075L33.7657 62.4766C33.9141 62.3654 34.1263 62.3905 34.2415 62.5362C38.0056 67.2953 38.7396 73.6187 36.1013 78.7753C35.4823 79.9855 34.6928 81.1011 33.7551 82.092C33.6263 82.2279 33.411 82.2322 33.2737 82.1049L22.0944 71.7344C21.9371 71.5887 21.9504 71.336 22.1219 71.2075Z" fill="white"/>
<path d="M26.3904 71.7337L35.3606 80.0542C34.8897 80.7795 34.3517 81.4603 33.7553 82.0911C33.6264 82.2286 33.4115 82.2319 33.274 82.1048L22.0936 71.7337C21.9372 71.5876 21.9509 71.3352 22.1211 71.2078L33.7656 62.4767C33.9134 62.3648 34.1265 62.3908 34.2417 62.535C34.7126 63.1297 35.1372 63.7503 35.5119 64.3897L26.4179 71.2078C26.2478 71.3352 26.234 71.5876 26.3904 71.7337Z" fill="white"/>
<path d="M61.1839 21.0409C61.1839 22.3493 60.1231 23.4102 58.8146 23.4102C57.5061 23.4102 56.4453 22.3493 56.4453 21.0409C56.4453 19.7324 57.5061 18.6716 58.8146 18.6716C60.1231 18.6716 61.1839 19.7324 61.1839 21.0409Z" fill="#1276DF"/>
<path d="M67.7505 28.4294C67.7505 29.738 66.6897 30.7988 65.381 30.7988C64.0725 30.7988 63.0117 29.738 63.0117 28.4294C63.0117 27.1209 64.0725 26.0601 65.381 26.0601C66.6897 26.0601 67.7505 27.1209 67.7505 28.4294Z" fill="#1276DF"/>
<path d="M76.3675 21.6307C76.3675 22.9392 75.3067 24 73.9982 24C72.6897 24 71.6289 22.9392 71.6289 21.6307C71.6289 20.3222 72.6897 19.2612 73.9982 19.2612C75.3067 19.2612 76.3675 20.3222 76.3675 21.6307Z" fill="#1276DF"/>
<path d="M34.1797 41.6973H12.828C12.6237 41.6973 12.4281 41.6081 12.2988 41.4501C10.2606 38.9583 9.03906 35.772 9.03906 32.3028C9.03889 24.3783 15.3596 17.9574 23.283 17.8391C31.373 17.7185 37.9689 24.2403 37.9689 32.3026C37.9689 35.7719 36.7474 38.9581 34.7093 41.4499C34.5799 41.6079 34.3841 41.6973 34.1797 41.6973Z" stroke="#0A488A" stroke-width="3" stroke-miterlimit="10" stroke-linecap="round" stroke-linejoin="round"/>
<path d="M24.6953 31.9487C25.8623 32.1861 26.9039 32.7634 27.7152 33.5747C28.7911 34.6508 29.458 36.1392 29.458 37.7822V41.6992" stroke="#0A488A" stroke-width="3" stroke-miterlimit="10" stroke-linecap="round" stroke-linejoin="round"/>
<path d="M17.5508 41.6992V37.7822C17.5508 34.9033 19.5961 32.5003 22.3134 31.9487" stroke="#0A488A" stroke-width="3" stroke-miterlimit="10" stroke-linecap="round" stroke-linejoin="round"/>
<path d="M27.5064 28.1278C27.5064 30.3375 25.715 32.1289 23.5052 32.1289C21.2954 32.1289 19.5039 30.3375 19.5039 28.1278C19.5039 25.918 21.2954 24.1266 23.5052 24.1266C25.715 24.1266 27.5064 25.918 27.5064 28.1278Z" stroke="#0A488A" stroke-width="3" stroke-miterlimit="10" stroke-linecap="round" stroke-linejoin="round"/>
<path d="M46.0878 68.502H37.207" stroke="#0A488A" stroke-width="3" stroke-miterlimit="10" stroke-linecap="round" stroke-linejoin="round"/>
<path d="M1.30469 17.1698V4.93399C1.30469 3.79446 2.22766 2.87149 3.36719 2.87149H84.6366C85.7761 2.87149 86.6991 3.79446 86.6991 4.93399V66.4395C86.6991 67.579 85.7761 68.502 84.6366 68.502H78.9647" stroke="#0A488A" stroke-width="3" stroke-miterlimit="10" stroke-linecap="round" stroke-linejoin="round"/>
<path d="M1.30469 23.1854V66.4395C1.30469 67.579 2.22766 68.502 3.36719 68.502H9.61828" stroke="#0A488A" stroke-width="3" stroke-miterlimit="10" stroke-linecap="round" stroke-linejoin="round"/>
<path d="M86.6991 12.9004H1.30469" stroke="#0A488A" stroke-width="3" stroke-miterlimit="10" stroke-linecap="round" stroke-linejoin="round"/>
<path d="M8.69531 7.88477H53.8761" stroke="#0A488A" stroke-width="3" stroke-miterlimit="10" stroke-linecap="round" stroke-linejoin="round"/>
<path d="M78.7266 7.88477H79.3096" stroke="#0A488A" stroke-width="3" stroke-miterlimit="10" stroke-linecap="round" stroke-linejoin="round"/>
<path d="M73.8477 7.88477H74.4307" stroke="#0A488A" stroke-width="3" stroke-miterlimit="10" stroke-linecap="round" stroke-linejoin="round"/>
<path d="M68.9688 7.88477H69.5516" stroke="#0A488A" stroke-width="3" stroke-miterlimit="10" stroke-linecap="round" stroke-linejoin="round"/>
<path d="M33.7127 54.5215H13.2969C12.9172 54.5215 12.6094 54.2137 12.6094 53.834V48.1472C12.6094 47.7675 12.9172 47.4597 13.2969 47.4597H33.7127C34.0924 47.4597 34.4002 47.7675 34.4002 48.1472V53.834C34.4002 54.2137 34.0924 54.5215 33.7127 54.5215Z" stroke="#0A488A" stroke-width="3" stroke-miterlimit="10" stroke-linecap="round" stroke-linejoin="round"/>
<path d="M53.8203 53.457V48.3082C53.8203 47.9285 54.128 47.6207 54.5078 47.6207H70.5419C70.9217 47.6207 71.2294 47.9285 71.2294 48.3082V53.457C71.2294 53.8367 70.9217 54.1445 70.5419 54.1445H54.5078C54.128 54.1445 53.8203 53.8367 53.8203 53.457Z" stroke="#0A488A" stroke-width="3" stroke-miterlimit="10" stroke-linecap="round" stroke-linejoin="round"/>
<path d="M22.1219 71.2075L33.7657 62.4766C33.9141 62.3653 34.1263 62.3906 34.2415 62.5362C38.0056 67.2952 38.7396 73.6187 36.1013 78.7753C35.4823 79.9855 34.6928 81.1011 33.7551 82.0921C33.6263 82.2279 33.411 82.2322 33.2737 82.1048L22.0944 71.7344C21.9371 71.5887 21.9504 71.336 22.1219 71.2075Z" stroke="#0A488A" stroke-width="3" stroke-miterlimit="10" stroke-linecap="round" stroke-linejoin="round"/>
<path d="M31.6508 80.6C28.2889 84.5634 22.6961 86.2341 17.5192 84.3675C10.8556 81.9664 7.40093 74.6169 9.80203 67.9535C12.2031 61.2897 19.5525 57.8352 26.2161 60.2363C28.4195 61.0303 30.2723 62.3675 31.68 64.0397" stroke="#0A488A" stroke-width="3" stroke-miterlimit="10" stroke-linecap="round" stroke-linejoin="round"/>
<path d="M53.8203 60.2617H56.2714" stroke="#0A488A" stroke-width="3" stroke-miterlimit="10" stroke-linecap="round" stroke-linejoin="round"/>
<path d="M60.9805 60.2617H71.232" stroke="#0A488A" stroke-width="3" stroke-miterlimit="10" stroke-linecap="round" stroke-linejoin="round"/>
<path d="M53.8203 65.7617H56.2714" stroke="#0A488A" stroke-width="3" stroke-miterlimit="10" stroke-linecap="round" stroke-linejoin="round"/>
<path d="M60.9805 65.7617H71.232" stroke="#0A488A" stroke-width="3" stroke-miterlimit="10" stroke-linecap="round" stroke-linejoin="round"/>
<path d="M53.8203 71.2617H56.2714" stroke="#0A488A" stroke-width="3" stroke-miterlimit="10" stroke-linecap="round" stroke-linejoin="round"/>
<path d="M60.9805 71.2617H71.232" stroke="#0A488A" stroke-width="3" stroke-miterlimit="10" stroke-linecap="round" stroke-linejoin="round"/>
<path d="M48.957 17.8374V35.3418C48.957 35.5315 49.111 35.6855 49.3008 35.6855H73.848" stroke="#0A488A" stroke-width="3" stroke-miterlimit="10" stroke-linecap="round" stroke-linejoin="round"/>
<path d="M56.9148 22.4578L48.957 28.25" stroke="#0A488A" stroke-width="3" stroke-miterlimit="10" stroke-linecap="round" stroke-linejoin="round"/>
<path d="M72.1875 23.152L67.2734 27.002" stroke="#0A488A" stroke-width="3" stroke-miterlimit="10" stroke-linecap="round" stroke-linejoin="round"/>
<path d="M63.8341 26.6387L60.3828 22.8145" stroke="#0A488A" stroke-width="3" stroke-miterlimit="10" stroke-linecap="round" stroke-linejoin="round"/>
<path d="M61.1839 21.0407C61.1839 22.3493 60.1231 23.4102 58.8146 23.4102C57.5061 23.4102 56.4453 22.3493 56.4453 21.0407C56.4453 19.7322 57.5061 18.6714 58.8146 18.6714C60.1231 18.6714 61.1839 19.7322 61.1839 21.0407Z" stroke="#0A488A" stroke-width="3" stroke-miterlimit="10" stroke-linecap="round" stroke-linejoin="round"/>
<path d="M67.7505 28.4295C67.7505 29.738 66.6897 30.7988 65.381 30.7988C64.0725 30.7988 63.0117 29.738 63.0117 28.4295C63.0117 27.121 64.0725 26.0602 65.381 26.0602C66.6897 26.0602 67.7505 27.121 67.7505 28.4295Z" stroke="#0A488A" stroke-width="3" stroke-miterlimit="10" stroke-linecap="round" stroke-linejoin="round"/>
<path d="M76.3675 21.6307C76.3675 22.9392 75.3067 24 73.9982 24C72.6897 24 71.6289 22.9392 71.6289 21.6307C71.6289 20.3222 72.6897 19.2614 73.9982 19.2614C75.3067 19.2614 76.3675 20.3222 76.3675 21.6307Z" stroke="#0A488A" stroke-width="3" stroke-miterlimit="10" stroke-linecap="round" stroke-linejoin="round"/>
<path d="M78.9639 64.0747V80.4062C78.9639 81.1658 78.3486 81.7812 77.5889 81.7812H70.3031C69.9233 81.7812 69.6156 81.4734 69.6156 81.0938V77.7953C69.6156 77.4155 69.308 77.1078 68.9281 77.1078H56.1217C55.7419 77.1078 55.4342 77.4155 55.4342 77.7953V81.0938C55.4342 81.4734 55.1267 81.7812 54.7467 81.7812H47.4609C46.7012 81.7812 46.0859 81.1658 46.0859 80.4062V43.0733C46.0859 42.3136 46.7012 41.6983 47.4609 41.6983H77.5889C78.3486 41.6983 78.9639 42.3136 78.9639 43.0733V58.0591" stroke="#0A488A" stroke-width="3" stroke-miterlimit="10" stroke-linecap="round" stroke-linejoin="round"/>
</g>
</svg>
