<svg width="88" height="88" viewBox="0 0 88 88" fill="none" xmlns="http://www.w3.org/2000/svg">
<path d="M62.6773 54.6468V70.8125C62.6773 72.7162 61.1339 74.2596 59.2301 74.2596H4.73623C2.83245 74.2596 1.28906 72.7162 1.28906 70.8125V36.7987C1.28906 34.895 2.83245 33.3516 4.73623 33.3516H30.595H62.6773V54.6468Z" fill="#E5EEF8"/>
<path d="M25.0987 67.4348C16.3966 67.4348 9.34231 60.3803 9.34231 51.6784V33.3516H4.73623C2.83245 33.3516 1.28906 34.895 1.28906 36.7987V70.8125C1.28906 72.7162 2.83245 74.2596 4.73623 74.2596H59.2301C61.1339 74.2596 62.6773 72.7162 62.6773 70.8125V67.4348H25.0987Z" fill="#D5E2F3"/>
<path d="M27.5 33.3516V51.1996C27.5 54.8078 30.4354 57.7432 34.0436 57.7432H62.6787V54.6468V33.3516H30.5964H27.5Z" fill="#C5E1FF"/>
<path d="M4.73623 33.3516C2.83245 33.3516 1.28906 34.895 1.28906 36.7987V40.9935H62.6773V33.3517H30.595H4.73623V33.3516Z" fill="#34D0E0"/>
<path d="M9.34231 33.3516H4.73623C2.83245 33.3516 1.28906 34.895 1.28906 36.7987V40.9935H9.34214L9.34231 33.3516Z" fill="#16C6DB"/>
<path d="M30.5964 33.3516H27.5V40.9935H62.6787V33.3516H30.5964Z" fill="#16C6DB"/>
<path d="M36.2049 54.6462H84.3948C85.6731 54.6462 86.7096 53.6099 86.7096 52.3314V16.053C86.7096 14.7747 85.6733 13.7383 84.3948 13.7383H32.9104C31.6321 13.7383 30.5957 14.7745 30.5957 16.053V51.1992V52.3316C30.5957 53.6099 31.632 54.6463 32.9104 54.6463H36.2049V54.6462Z" fill="#E5EEF8"/>
<path d="M61.7444 49.4832C48.6726 49.4832 38.0756 38.8863 38.0756 25.8145V13.7383H32.9104C31.632 13.7383 30.5957 14.7745 30.5957 16.053V51.1992V52.3316C30.5957 53.6099 31.632 54.6463 32.9104 54.6463H36.2049H84.3948C85.6731 54.6463 86.7096 53.6101 86.7096 52.3316V49.4834H61.7444V49.4832Z" fill="#D5E2F3"/>
<path d="M84.3948 13.7383H32.9104C31.632 13.7383 30.5957 14.7745 30.5957 16.053V21.1071H86.7096V16.053C86.7096 14.7747 85.6731 13.7383 84.3948 13.7383Z" fill="#FD6773"/>
<path d="M38.0758 13.7383H32.9106C32.2714 13.7383 31.6927 13.9973 31.2738 14.4162C31.0643 14.6257 30.8949 14.875 30.7777 15.152C30.7485 15.2211 30.7223 15.2922 30.6998 15.3646C30.6322 15.582 30.5957 15.8132 30.5957 16.0528V21.1069H38.0756V13.7383H38.0758Z" fill="#FC4D5A"/>
<path d="M43.9866 43.4199C43.9682 43.0836 43.6995 42.8149 43.3632 42.7965L36.4094 42.4151C35.847 42.3843 35.6224 43.0454 36.05 43.473L37.1785 44.6015C37.4365 44.8595 37.4365 45.2777 37.1785 45.5358L24.6979 58.0164C24.4398 58.2744 24.0217 58.2744 23.7636 58.0164L22.6352 56.8879C22.2075 56.4603 21.5464 56.6849 21.5772 57.2473L21.9586 64.2011C21.977 64.5374 22.2457 64.8061 22.582 64.8245L29.5358 65.2059C30.0982 65.2367 30.3229 64.5756 29.8952 64.1479L28.7667 63.0195C28.5087 62.7614 28.5087 62.3433 28.7667 62.0852L41.2473 49.6046C41.5054 49.3466 41.9236 49.3466 42.1816 49.6046L43.3101 50.7331C43.7377 51.1607 44.3988 50.9361 44.368 50.3737L43.9866 43.4199Z" fill="#05F2A7"/>
<path d="M36.2967 18.8474C37.0183 18.8474 37.6033 18.2625 37.6033 17.5409C37.6033 16.8193 37.0183 16.2344 36.2967 16.2344C35.5752 16.2344 34.9902 16.8193 34.9902 17.5409C34.9902 18.2625 35.5752 18.8474 36.2967 18.8474Z" fill="black"/>
<path d="M6.86706 38.3005C7.58863 38.3005 8.17357 37.7156 8.17357 36.994C8.17357 36.2724 7.58863 35.6875 6.86706 35.6875C6.14549 35.6875 5.56055 36.2724 5.56055 36.994C5.56055 37.7156 6.14549 38.3005 6.86706 38.3005Z" fill="black"/>
<path d="M11.5135 38.3005C12.2351 38.3005 12.8201 37.7156 12.8201 36.994C12.8201 36.2724 12.2351 35.6875 11.5135 35.6875C10.792 35.6875 10.207 36.2724 10.207 36.994C10.207 37.7156 10.792 38.3005 11.5135 38.3005Z" fill="black"/>
<path d="M16.162 38.3005C16.8835 38.3005 17.4685 37.7156 17.4685 36.994C17.4685 36.2724 16.8835 35.6875 16.162 35.6875C15.4404 35.6875 14.8555 36.2724 14.8555 36.994C14.8555 37.7156 15.4404 38.3005 16.162 38.3005Z" fill="black"/>
<path d="M41.5878 18.8474C42.3093 18.8474 42.8943 18.2625 42.8943 17.5409C42.8943 16.8193 42.3093 16.2344 41.5878 16.2344C40.8662 16.2344 40.2812 16.8193 40.2812 17.5409C40.2812 18.2625 40.8662 18.8474 41.5878 18.8474Z" fill="black"/>
<path d="M46.8807 18.8474C47.6023 18.8474 48.1872 18.2625 48.1872 17.5409C48.1872 16.8193 47.6023 16.2344 46.8807 16.2344C46.1592 16.2344 45.5742 16.8193 45.5742 17.5409C45.5742 18.2625 46.1592 18.8474 46.8807 18.8474Z" fill="black"/>
<path d="M83.2627 12.4492H34.0431C31.4308 12.4492 29.3058 14.5744 29.3058 17.1866V32.0621H4.73716C2.12517 32.0619 0 34.1871 0 36.7992V70.813C0 73.4251 2.12517 75.5503 4.73716 75.5503H59.2311C61.8434 75.5503 63.9684 73.4251 63.9684 70.813V55.9375H83.2627C85.8748 55.9375 87.9998 53.8123 87.9998 51.2001V17.1866C88 14.5744 85.8748 12.4492 83.2627 12.4492ZM34.0431 15.0296H83.2627C84.4519 15.0296 85.4195 15.9972 85.4195 17.1866V19.818H31.8862V17.1866C31.8862 15.9972 32.8538 15.0296 34.0431 15.0296ZM38.5579 44.1568L38.2075 43.8064L42.7293 44.0543L42.9772 48.5763L42.6267 48.2258C42.3847 47.9838 42.0567 47.8479 41.7143 47.8479C41.372 47.8479 41.0441 47.9838 40.8019 48.2258L35.2927 53.735L27.3872 61.6405C26.8834 62.1444 26.8834 62.9613 27.3872 63.465L27.7378 63.8156L23.2159 63.5677L22.9678 59.0456L23.3184 59.3961C23.5604 59.6382 23.8885 59.7741 24.2308 59.7741C24.5731 59.7741 24.901 59.6382 25.1432 59.3961L38.5579 45.9813C39.0616 45.4776 39.0616 44.6607 38.5579 44.1568ZM83.2627 53.3571H53.347C52.6343 53.3571 52.0569 53.9348 52.0569 54.6473C52.0569 55.3598 52.6343 55.9375 53.347 55.9375H61.3881V70.813C61.3881 72.0023 60.4204 72.97 59.2311 72.97H4.73716C3.54797 72.97 2.58034 72.0023 2.58034 70.813V41.8557H19.7303C20.443 41.8557 21.0205 41.278 21.0205 40.5655C21.0205 39.853 20.443 39.2753 19.7303 39.2753H2.58034V36.7991C2.58034 35.6097 3.54797 34.6421 4.73716 34.6421H29.3058V39.2752H24.891C24.1783 39.2752 23.6008 39.8528 23.6008 40.5653C23.6008 41.2778 24.1783 41.8555 24.891 41.8555H29.3058V51.5839L24.2306 56.6591L23.5472 55.9756C22.9527 55.3813 22.0939 55.2095 21.3596 55.5373C20.6668 55.8468 20.2464 56.5456 20.2887 57.3179L20.7024 64.8629C20.7384 65.5198 21.2631 66.0445 21.9198 66.0804L29.4649 66.4942C29.5005 66.496 29.536 66.4971 29.5714 66.4971C30.3006 66.4971 30.9502 66.0842 31.2452 65.4235C31.5734 64.6888 31.4014 63.8302 30.8071 63.2357L30.1236 62.5524L36.7389 55.9369H48.1858C48.8985 55.9369 49.476 55.3593 49.476 54.6468C49.476 53.9342 48.8985 53.3566 48.1858 53.3566H39.3193L41.7138 50.962L42.3971 51.6453C42.9913 52.24 43.8502 52.412 44.5849 52.0836C45.2778 51.7742 45.698 51.0752 45.6555 50.303L45.242 42.7581C45.2061 42.1011 44.6814 41.5765 44.0244 41.5405L36.4799 41.1268C35.707 41.0848 35.0085 41.5046 34.6991 42.1973C34.3708 42.932 34.5429 43.7907 35.1372 44.3851L35.8207 45.0684L31.8862 49.0039V22.3983H85.4197V51.2003C85.4197 52.3897 84.452 53.3571 83.2627 53.3571Z" fill="black"/>
</svg>
