<svg width="87" height="87" viewBox="0 0 87 87" fill="none" xmlns="http://www.w3.org/2000/svg">
<mask id="mask0_766_2480" style="mask-type:luminance" maskUnits="userSpaceOnUse" x="0" y="0" width="87" height="87">
<path d="M0 7.62939e-06H87V87H0V7.62939e-06Z" fill="white"/>
</mask>
<g mask="url(#mask0_766_2480)">
<path d="M73.9452 35.3901L68.3377 32.7563L67.0829 33.1367L50.6371 48.1639C46.9953 51.4914 41.417 51.4914 37.7754 48.1639L13.9246 26.3708C13.8478 26.661 13.8027 26.9643 13.8027 27.2788V69.3294C13.8027 71.2878 15.3901 72.875 17.3483 72.875H71.0641C73.0222 72.875 74.6096 71.2878 74.6096 69.3294V36.1923L73.9452 35.3901Z" fill="#1276DF"/>
<path d="M64.4154 24.3033L63.7614 23.7339H17.3483C15.3901 23.7339 13.8027 25.3213 13.8027 27.2797L37.7754 49.1841C41.417 52.5115 46.9953 52.5115 50.6371 49.1841L67.6453 33.6432L68.0404 33.1393L64.4154 24.3033Z" fill="white"/>
<path d="M85.7367 25.1581C85.7367 31.2527 80.796 36.1934 74.7014 36.1934C68.6067 36.1934 63.666 31.2527 63.666 25.1581C63.666 19.0635 68.6067 14.1229 74.7014 14.1229C80.796 14.1229 85.7367 19.0635 85.7367 25.1581Z" fill="#1276DF"/>
<path d="M69.3768 25.1581C69.3768 20.0513 72.8466 15.7565 77.5568 14.4981C76.6457 14.2546 75.689 14.1229 74.7013 14.1229C68.6067 14.1229 63.666 19.0635 63.666 25.1581C63.666 31.2527 68.6067 36.1934 74.7013 36.1934C75.689 36.1934 76.6457 36.0618 77.5568 35.8183C72.8466 34.5597 69.3768 30.2651 69.3768 25.1581Z" fill="#1276DF"/>
<path d="M73.8067 29.7266C73.2263 29.7266 72.6696 29.496 72.2592 29.0856L69.5278 26.3541C68.673 25.4994 68.673 24.1139 69.5278 23.259C70.3828 22.4043 71.7685 22.4043 72.6229 23.259L73.8067 24.4428L76.6759 21.5739C77.5306 20.719 78.9165 20.719 79.771 21.5739C80.6257 22.4286 80.6257 23.8143 79.771 24.6688L75.3542 29.0856C74.9439 29.496 74.3872 29.7266 73.8067 29.7266Z" fill="white"/>
<path d="M75.1664 28.914L72.4351 26.1827C71.5813 25.329 71.5804 23.9458 72.4322 23.0908C71.5733 22.4099 70.3218 22.4653 69.5278 23.2592C68.673 24.1137 68.673 25.4994 69.5278 26.3543L72.2592 29.0856C72.6696 29.496 73.2263 29.7266 73.8067 29.7266C74.3872 29.7266 74.9439 29.496 75.3542 29.0856L75.3576 29.0822C75.2912 29.0297 75.2268 28.9743 75.1664 28.914Z" fill="white"/>
<path d="M8.03779 28.4473H1.27539" stroke="#0A488A" stroke-width="3" stroke-miterlimit="10" stroke-linecap="round" stroke-linejoin="round"/>
<path d="M8.03779 35.0664H1.27539" stroke="#0A488A" stroke-width="3" stroke-miterlimit="10" stroke-linecap="round" stroke-linejoin="round"/>
<path d="M8.03779 41.6855H1.27539" stroke="#0A488A" stroke-width="3" stroke-miterlimit="10" stroke-linecap="round" stroke-linejoin="round"/>
<path d="M8.03779 48.3047H1.27539" stroke="#0A488A" stroke-width="3" stroke-miterlimit="10" stroke-linecap="round" stroke-linejoin="round"/>
<path d="M8.03779 54.9238H1.27539" stroke="#0A488A" stroke-width="3" stroke-miterlimit="10" stroke-linecap="round" stroke-linejoin="round"/>
<path d="M8.03779 68.1602H1.27539" stroke="#0A488A" stroke-width="3" stroke-miterlimit="10" stroke-linecap="round" stroke-linejoin="round"/>
<path d="M8.03779 61.541H1.27539" stroke="#0A488A" stroke-width="3" stroke-miterlimit="10" stroke-linecap="round" stroke-linejoin="round"/>
<path d="M73.797 29.7266C73.2165 29.7266 72.6598 29.496 72.2495 29.0856L69.518 26.3541C68.6633 25.4994 68.6633 24.1139 69.518 23.259C70.3729 22.4043 71.7587 22.4043 72.6131 23.259L73.797 24.4428L76.6661 21.5739C77.5208 20.719 78.9065 20.719 79.7612 21.5739C80.6159 22.4286 80.6159 23.8143 79.7612 24.6688L75.3444 29.0856C74.9341 29.496 74.3774 29.7266 73.797 29.7266Z" stroke="#0A488A" stroke-width="2" stroke-miterlimit="10" stroke-linecap="round" stroke-linejoin="round"/>
<path d="M63.6549 25.1599C63.6549 24.6763 63.6894 24.201 63.7497 23.7339H17.3366C15.3784 23.7339 13.791 25.3213 13.791 27.2797L37.7635 49.1841C41.4052 52.5115 46.9838 52.5115 50.6254 49.1841L67.6336 33.6432C65.2027 31.619 63.6549 28.5706 63.6549 25.1599Z" stroke="#0A488A" stroke-width="3" stroke-miterlimit="10" stroke-linecap="round" stroke-linejoin="round"/>
<path d="M50.6273 49.1833C46.9856 52.5107 41.407 52.5107 37.7654 49.1833L36.8033 48.304L13.793 69.3294C13.793 71.2876 15.3802 72.875 17.3384 72.875H71.0542C73.0124 72.875 74.5998 71.2876 74.5998 69.3294L51.5894 48.304L50.6273 49.1833Z" stroke="#0A488A" stroke-width="3" stroke-miterlimit="10" stroke-linecap="round" stroke-linejoin="round"/>
<path d="M71.7179 14.5316C67.0683 15.8303 63.6562 20.0943 63.6562 25.1581C63.6562 31.2527 68.5969 36.1934 74.6915 36.1934C80.7861 36.1934 85.7268 31.2527 85.7268 25.1581C85.7268 20.0943 82.3147 15.8303 77.6651 14.5316" stroke="#0A488A" stroke-width="3" stroke-miterlimit="10" stroke-linecap="round" stroke-linejoin="round"/>
<path d="M74.598 45.7319V36.1923C68.5461 36.1425 63.655 31.2231 63.655 25.1594C63.655 24.6758 63.6895 24.2005 63.7497 23.7334H17.3366C15.3786 23.7334 13.791 25.3208 13.791 27.2788V69.3296C13.791 71.2878 15.3786 72.875 17.3366 72.875H71.0524C73.0106 72.875 74.598 71.2878 74.598 69.3296V51.6791" stroke="#0A488A" stroke-width="3" stroke-miterlimit="10" stroke-linecap="round" stroke-linejoin="round"/>
</g>
</svg>
