<svg width="88" height="88" viewBox="0 0 88 88" fill="none" xmlns="http://www.w3.org/2000/svg">
<g clip-path="url(#clip0_791_713)">
<path d="M69.2311 18.569L69.4749 17.3016C75.4615 19.6844 79.1349 26.0544 77.8985 32.6189C77.4605 34.9445 78.9907 37.1848 81.3163 37.6228C83.6419 38.0608 85.8822 36.5306 86.3202 34.205C88.4309 22.9984 81.7281 12.138 71.1112 8.79152L71.4018 7.28038C71.9952 4.19433 69.0252 1.62311 66.0559 2.65259L55.1956 6.41764C52.2268 7.44695 51.4853 11.304 53.8607 13.3607L62.55 20.8844C64.926 22.9413 68.6377 21.655 69.2311 18.569Z" fill="#1276DF"/>
<path d="M34.1364 74.638L25.447 67.1143C23.0712 65.0572 19.3595 66.3435 18.7661 69.4296L18.5224 70.697C12.5357 68.3142 8.86231 61.9442 10.0988 55.3797C10.5367 53.0541 9.00653 50.8137 6.68095 50.3756C4.35536 49.9376 2.11504 51.4678 1.67705 53.7934C-0.433664 65.0002 6.26891 75.8607 16.8859 79.2072L16.5952 80.7185C16.0018 83.8046 18.9719 86.3758 21.9412 85.3463L32.8014 81.5813C35.7702 80.552 36.5118 76.695 34.1364 74.638Z" fill="#1276DF"/>
<path d="M85.346 66.0578L81.5809 55.1976C80.5516 52.2288 76.6946 51.4872 74.6379 53.8626L67.1141 62.552C65.0571 64.9278 66.3434 68.6395 69.4294 69.2329L70.6968 69.4766C68.314 75.4633 61.944 79.1367 55.3795 77.9003C53.0539 77.4623 50.8136 78.9925 50.3756 81.3181C49.9376 83.6436 51.4678 85.884 53.7934 86.322C65 88.4327 75.8604 81.7299 79.2069 71.1129L80.7182 71.4036C83.8042 71.9972 86.3753 69.0271 85.346 66.0578Z" fill="#1276DF"/>
<path d="M13.3607 34.1364L20.8844 25.447C22.9415 23.0712 21.6552 19.3595 18.5691 18.7661L17.3018 18.5223C19.6846 12.5357 26.0545 8.8623 32.6191 10.0987C34.9447 10.5367 37.185 9.00652 37.623 6.68094C38.061 4.35535 36.5307 2.11503 34.2052 1.67704C22.9986 -0.433671 12.138 6.26907 8.79152 16.8861L7.28038 16.5954C4.19433 16.002 1.62311 18.972 2.65259 21.9414L6.41764 32.8016C7.44678 35.7704 11.3038 36.512 13.3607 34.1364Z" fill="#1276DF"/>
<path d="M58.336 14.2036C55.9606 12.1468 56.7021 8.28967 59.6709 7.26053L70.2493 3.59312C69.2057 2.57361 67.6308 2.10656 66.0559 2.65251L55.1956 6.41755C52.2268 7.44686 51.4853 11.3039 53.8607 13.3606L62.55 20.8843C63.8197 21.9838 65.4707 22.1275 66.8235 21.5525L58.336 14.2036Z" fill="#1276DF"/>
<path d="M82.3739 33.4619C83.6102 26.8975 79.9369 20.5275 73.9501 18.1445L73.7064 19.4119C73.6761 19.5694 73.6357 19.721 73.5898 19.869C77.025 22.976 78.8169 27.743 77.8986 32.6189C77.4606 34.9445 78.9908 37.1848 81.3164 37.6228C82.1389 37.7777 82.9503 37.6853 83.6753 37.3998C82.6307 36.4319 82.0908 34.9651 82.3739 33.4619Z" fill="#1276DF"/>
<path d="M21.0705 81.561L21.3612 80.0497C10.7442 76.7032 4.04165 65.8428 6.15219 54.6362C6.43531 53.1331 7.47184 51.9632 8.79716 51.4413C8.2256 50.9116 7.5033 50.5305 6.68095 50.3756C4.35536 49.9376 2.11504 51.4678 1.67705 53.7934C-0.433664 64.9998 6.26891 75.8604 16.8859 79.2069L16.5952 80.7182C16.0018 83.8042 18.9719 86.3754 21.9412 85.346L22.2229 85.2483C21.2992 84.3457 20.7919 83.0101 21.0705 81.561Z" fill="#1276DF"/>
<path d="M54.8507 82.1604C55.2887 79.8349 57.529 78.3046 59.8546 78.7426C66.419 79.9789 72.7889 76.3057 75.1719 70.319L73.9046 70.0753C70.8185 69.4819 69.5322 65.7701 71.5893 63.3944L79.113 54.705C79.5412 54.2106 80.0478 53.8531 80.5899 53.6207C78.9984 52.0551 76.259 51.9894 74.6377 53.862L67.114 62.5514C65.0569 64.9272 66.3432 68.6389 69.4292 69.2323L70.6968 69.476C68.314 75.4627 61.944 79.1361 55.3795 77.8996C53.0539 77.4617 50.8136 78.9919 50.3756 81.3175C49.9376 83.643 51.4678 85.8834 53.7934 86.3214C54.8543 86.5211 55.912 86.6416 56.9608 86.6877C55.4034 85.8119 54.5018 84.0136 54.8507 82.1604Z" fill="#1276DF"/>
<path d="M10.8928 33.6444L7.12774 22.7842C6.09825 19.8148 8.66948 16.8448 11.7555 17.4382L13.2667 17.7289C16.2963 8.11696 25.4847 1.71366 35.5128 2.15354C35.1159 1.93024 34.6772 1.76591 34.2048 1.67704C22.9986 -0.433671 12.138 6.26907 8.79152 16.8861L7.28038 16.5954C4.19433 16.002 1.62311 18.972 2.65259 21.9414L6.41764 32.8016C7.2326 35.1526 9.82032 36.1049 11.8838 35.2207C11.4563 34.8002 11.1107 34.2729 10.8928 33.6444Z" fill="#1276DF"/>
<path d="M65.6129 47.1991L65.0652 46.9719C63.8618 46.4742 63.0908 45.2959 63.0918 43.9932V43.9503C63.0908 42.6476 63.8618 41.4691 65.0652 40.9706L65.6129 40.7444C68.3113 39.6261 69.5917 36.5342 68.4754 33.8359C67.6325 31.8003 65.6629 30.5719 63.5874 30.5719C62.9146 30.5719 62.2277 30.701 61.5659 30.9754L61.0172 31.2026C59.8148 31.7003 58.4371 31.4118 57.5179 30.4908C57.5069 30.4808 57.497 30.4698 57.4868 30.4597C56.5637 29.5385 56.2713 28.1599 56.7709 26.9544L56.9971 26.4067C58.1154 23.7074 56.834 20.6155 54.1366 19.4972C53.4748 19.2239 52.7899 19.0938 52.1161 19.0938C50.0415 19.0938 48.0721 20.3244 47.2291 22.3598L47.0008 22.9095C46.5021 24.114 45.3207 24.8829 44.017 24.881H43.9741C42.6725 24.882 41.4939 24.1129 40.9954 22.9095L40.7672 22.3598C39.6498 19.6624 36.5569 18.3809 33.8597 19.4972C31.8232 20.3402 30.5937 22.3098 30.5937 24.3842C30.5937 25.0591 30.7238 25.7439 30.9971 26.4067L31.2243 26.9544C31.723 28.1578 31.4356 29.5356 30.5144 30.4557C30.5044 30.4657 30.4943 30.4759 30.4843 30.4858C29.5631 31.4099 28.1835 31.7023 26.979 31.2037L26.4283 30.9754C23.7309 29.857 20.6381 31.1385 19.5217 33.8359C19.2473 34.4977 19.1172 35.1825 19.1172 35.8574C19.1172 37.9331 20.3468 39.9014 22.3832 40.7444L22.9309 40.9717C24.1314 41.4683 24.8993 42.6447 24.9034 43.9434V43.9864C24.9054 45.2911 24.1364 46.4734 22.9309 46.972L22.3832 47.1993C20.3468 48.0423 19.1172 50.0098 19.1172 52.0863C19.1172 52.7612 19.2473 53.446 19.5217 54.1068C20.6381 56.805 23.7309 58.0856 26.4283 56.9683L26.979 56.74C28.1835 56.2414 29.5631 56.5338 30.4843 57.4579C30.4943 57.4678 30.5043 57.478 30.5144 57.488C31.4356 58.4081 31.7228 59.7859 31.2243 60.9883C30.8575 61.7924 30.573 62.7009 30.5935 63.5595C30.5935 65.6341 31.8231 67.6035 33.8595 68.4465C36.5569 69.563 39.6497 68.2813 40.767 65.5839L40.9953 65.0332C41.4939 63.8308 42.6723 63.0617 43.9739 63.0627H44.0169C45.3205 63.0607 46.502 63.8297 47.0006 65.0342L47.2289 65.5839C48.0719 67.6195 50.0415 68.8489 52.1159 68.8489C52.7898 68.8489 53.4746 68.7198 54.1364 68.4463C56.8338 67.328 58.1153 64.2361 56.9969 61.5368C56.2815 60.2007 56.3781 58.525 57.5176 57.4527C58.4367 56.5315 59.8145 56.2433 61.0169 56.7409C61.82 57.1081 62.7302 57.3919 63.5871 57.3707C65.6627 57.3707 67.6321 56.1432 68.4751 54.1068C69.5919 51.4092 68.3113 48.3175 65.6129 47.1991ZM43.9981 54.4516C38.2119 54.4516 33.5188 49.7609 33.5188 43.9749C33.5188 38.1863 38.2119 33.4956 43.9981 33.4956C49.7843 33.4956 54.4774 38.1863 54.4774 43.9749C54.4774 49.7609 49.7843 54.4516 43.9981 54.4516Z" fill="#F8F7F8"/>
<path d="M58.4482 43.9759C58.4482 49.7619 53.7556 54.4523 47.9694 54.4523C47.2911 54.4523 46.6264 54.3877 45.9844 54.2641C50.8222 53.3374 54.4781 49.0836 54.4781 43.9759C54.4781 38.867 50.8222 34.6122 45.9844 33.6843C46.6264 33.5607 47.2911 33.4961 47.9694 33.4961C53.7555 33.4959 58.4482 38.1875 58.4482 43.9759Z" fill="#F8F7F8"/>
<path d="M31.1368 31.0331L31.6876 31.2613C32.892 31.76 34.2717 31.4676 35.1929 30.5435C35.2028 30.5335 35.2128 30.5234 35.223 30.5134C36.1441 29.5932 36.4314 28.2155 35.9329 27.0121L35.7056 26.4644C35.4323 25.8016 35.3022 25.1167 35.3022 24.4419C35.3022 22.4833 36.3986 20.6189 38.2347 19.7072C36.9142 19.0515 35.3287 18.947 33.8598 19.5549C31.8234 20.3978 30.5938 22.3674 30.5938 24.4419C30.5938 25.1167 30.7239 25.8016 30.9972 26.4644L31.2245 27.0121C31.7232 28.2155 31.4357 29.5932 30.5145 30.5134C30.5046 30.5234 30.4946 30.5335 30.4845 30.5435C30.4095 30.6186 30.3306 30.6881 30.25 30.7547C30.5481 30.8208 30.8448 30.912 31.1368 31.0331Z" fill="#F8F7F8"/>
<path d="M48.6816 24.9376H48.7246C50.0283 24.9397 51.2097 24.1706 51.7084 22.9661L51.9366 22.4164C52.4449 21.1889 53.3632 20.2548 54.467 19.7061C54.3588 19.6525 54.249 19.6008 54.1359 19.5538C53.4741 19.2805 52.7892 19.1504 52.1154 19.1504C50.0408 19.1504 48.0714 20.381 47.2284 22.4164L47.0001 22.9661C46.8447 23.3417 46.6228 23.6749 46.3516 23.9556C46.9491 24.5746 47.7862 24.9383 48.6816 24.9376Z" fill="#F8F7F8"/>
<path d="M24.2301 54.1628C23.9557 53.502 23.8256 52.8172 23.8256 52.1423C23.8256 50.0658 25.0552 48.0983 27.0916 47.2553L27.6393 47.0281C28.8448 46.5294 29.6137 45.3469 29.6118 44.0424V43.9995C29.6078 42.7008 28.8398 41.5243 27.6393 41.0277L27.0916 40.8005C25.0552 39.9575 23.8256 37.9889 23.8256 35.9135C23.8256 35.2386 23.9557 34.5538 24.2301 33.892C24.7406 32.6586 25.6649 31.7225 26.7752 31.1751L26.4283 31.0313C23.7309 29.9129 20.6381 31.1944 19.5217 33.8918C19.2473 34.5536 19.1172 35.2384 19.1172 35.9133C19.1172 37.9889 20.3468 39.9573 22.3832 40.8003L22.9309 41.0275C24.1314 41.5241 24.8993 42.7006 24.9034 43.9993V44.0423C24.9054 45.3469 24.1364 46.5293 22.9309 47.0279L22.3832 47.2552C20.3468 48.0981 19.1172 50.0657 19.1172 52.1422C19.1172 52.817 19.2473 53.5019 19.5217 54.1626C20.6381 56.8609 23.7309 58.1415 26.4283 57.0242L26.7757 56.8801C25.6652 56.3332 24.7406 55.3969 24.2301 54.1628Z" fill="#F8F7F8"/>
<path d="M51.937 65.6403L51.7087 65.0906C51.21 63.8861 50.0286 63.1173 48.7249 63.1191H48.682C47.7864 63.1185 46.9492 63.4824 46.3516 64.101C46.6228 64.3817 46.8449 64.7149 47.0003 65.0906L47.2286 65.6403C48.0716 67.6759 50.041 68.9053 52.1156 68.9053C52.7894 68.9053 53.4742 68.7762 54.136 68.5028C54.2495 68.4557 54.3595 68.4039 54.4678 68.3501C53.3639 67.8018 52.4453 66.868 51.937 65.6403Z" fill="#F8F7F8"/>
<path d="M35.3025 63.6171C35.3025 62.9422 35.4327 62.2574 35.706 61.5946L35.9332 61.0459C36.4319 59.8435 36.1445 58.4657 35.2233 57.5456C35.2133 57.5356 35.2032 57.5256 35.1932 57.5155C34.272 56.5914 32.8924 56.299 31.6879 56.7976L31.1372 57.0259C30.8451 57.1469 30.5484 57.238 30.25 57.3041C30.3416 57.3793 30.4308 57.4598 30.5147 57.5456C31.4359 58.4657 31.7231 59.8435 31.2247 61.0459C30.8578 61.85 30.5733 62.7585 30.5938 63.6171C30.5938 65.6917 31.8234 67.6611 33.8598 68.5041C35.3287 69.1121 36.9142 69.0076 38.2347 68.3518C36.3989 67.4401 35.3025 65.5757 35.3025 63.6171Z" fill="#F8F7F8"/>
<path d="M80.5979 12.9183C80.0813 12.4285 79.2651 12.4502 78.7752 12.9671C78.2853 13.484 78.3072 14.3 78.8241 14.7897C84.0533 19.7456 86.3827 26.9144 85.0551 33.9661C84.907 34.7525 84.4614 35.4342 83.8008 35.8855C83.14 36.3367 82.3431 36.5036 81.5567 36.3553C80.7703 36.2071 80.0887 35.7615 79.6375 35.1009C79.1862 34.4403 79.0193 33.6434 79.1677 32.8568C80.4958 25.8039 76.6204 18.7579 69.9532 16.1028C69.5963 15.9606 69.1943 15.9852 68.8572 16.1697C68.5201 16.3543 68.2829 16.6795 68.2102 17.057L67.9661 18.3258C67.7756 19.3167 67.0925 20.1059 66.1388 20.4366C65.1851 20.7675 64.1593 20.5706 63.396 19.91L54.7069 12.3862C53.943 11.7246 53.6009 10.7374 53.792 9.74523C53.9827 8.75459 54.6656 7.9661 55.6191 7.63589L66.4793 3.86982C67.4339 3.53874 68.4589 3.73608 69.2219 4.39651C69.9857 5.05762 70.3279 6.04499 70.1371 7.03735L69.8466 8.54831C69.723 9.19121 70.1009 9.82481 70.7254 10.0215C72.198 10.4852 73.6189 11.1132 74.9483 11.8877C75.563 12.246 76.3527 12.038 76.7113 11.4228C77.0697 10.8075 76.8615 10.0182 76.2463 9.65979C75.0826 8.98184 73.857 8.40392 72.5901 7.93533L72.6691 7.52416C73.0358 5.61611 72.3778 3.71803 70.9093 2.44703C69.4416 1.17655 67.4695 0.797688 65.6346 1.4337L54.7749 5.19943C52.941 5.83442 51.6272 7.35157 51.2602 9.25756C50.8928 11.1651 51.5503 13.0632 53.019 14.3352L61.7085 21.8593C63.177 23.1301 65.149 23.5086 66.9837 22.8726C68.7021 22.2768 69.9638 20.9071 70.4177 19.1691C75.0607 21.7369 77.6364 27.0559 76.6341 32.3793C76.3584 33.8425 76.6688 35.3254 77.5085 36.5548C78.3481 37.7842 79.6163 38.6131 81.0795 38.8888C81.4276 38.9545 81.7769 38.9868 82.1236 38.9868C83.2341 38.9868 84.3182 38.6542 85.255 38.0144C86.4844 37.1749 87.3133 35.9066 87.5891 34.4431C89.0796 26.5262 86.466 18.4796 80.5979 12.9183Z" fill="#153F69"/>
<path d="M34.9804 73.6631L26.2909 66.1393C24.8227 64.8682 22.8509 64.489 21.0161 65.1248C19.2975 65.7204 18.0354 67.0901 17.5813 68.8281C12.9384 66.2612 10.3632 60.9424 11.3659 55.6181C11.9348 52.5975 9.94015 49.6774 6.91976 49.1086C3.90023 48.5399 0.9792 50.5341 0.410224 53.5546C-1.72885 64.9123 4.67858 76.1009 15.4087 80.0636L15.3296 80.4746C14.9628 82.3816 15.6203 84.2789 17.0884 85.5499C18.0877 86.4148 19.32 86.8669 20.584 86.8667C21.1772 86.8667 21.7776 86.767 22.3638 86.5639L33.224 82.7988C35.0585 82.1628 36.3724 80.6448 36.7391 78.738C37.1058 76.8313 36.4484 74.9341 34.9804 73.6631ZM34.2072 78.2511C34.0166 79.2426 33.3333 80.032 32.3793 80.3627L21.5191 84.1278C20.565 84.4585 19.5395 84.2613 18.7761 83.6004C18.0127 82.9396 17.6708 81.9531 17.8616 80.9614L18.1521 79.4501C18.2757 78.8072 17.8979 78.174 17.2738 77.9771C7.13532 74.7816 0.974903 64.4872 2.94397 54.0318C3.21471 52.595 4.47505 51.5902 5.88684 51.5902C6.06991 51.5902 6.2559 51.6072 6.4424 51.6423C8.06562 51.9481 9.13774 53.5175 8.83193 55.1407C7.50335 62.1947 11.3782 69.2405 18.0457 71.8944C18.4024 72.0364 18.8045 72.0122 19.1417 71.8274C19.4788 71.6428 19.7159 71.3174 19.7886 70.9401L20.0323 69.6725C20.223 68.6808 20.9064 67.8915 21.8606 67.5609C22.8147 67.2304 23.8398 67.4275 24.6032 68.0885L33.2928 75.6122C34.056 76.2733 34.3977 77.2596 34.2072 78.2511Z" fill="#153F69"/>
<path d="M86.564 65.6354L82.7989 54.7753C82.1631 52.9407 80.6449 51.6265 78.738 51.2599C76.8305 50.8932 74.934 51.5509 73.6633 53.0187L66.1394 61.7082C64.8683 63.1764 64.4891 65.1482 65.1251 66.983C65.7207 68.7016 67.0904 69.9637 68.8284 70.418C66.2615 75.0609 60.9416 77.6361 55.6182 76.6334C52.5987 76.0648 49.6776 78.059 49.1086 81.0795C48.5397 84.1001 50.5344 87.0201 53.5549 87.5891C55.0234 87.8656 56.4883 87.9994 57.936 87.9994C67.6843 87.999 76.6134 81.9333 80.0637 72.5908L80.4749 72.6699C82.3822 73.0369 84.2791 72.379 85.5501 70.9107C86.8209 69.4423 87.2001 67.4703 86.564 65.6354ZM83.6006 69.2228C82.9397 69.9862 81.9537 70.3281 80.9615 70.1375L79.4502 69.847C78.807 69.7229 78.1739 70.101 77.9772 70.7254C74.7817 80.8638 64.4877 87.0239 54.0319 85.055C52.4087 84.7492 51.3366 83.1799 51.6424 81.5567C51.9131 80.1198 53.1735 79.1151 54.5853 79.1151C54.7683 79.1151 54.9543 79.1321 55.1408 79.1672C56.0697 79.3422 56.998 79.4269 57.9168 79.4267C63.9737 79.4264 69.5902 75.7425 71.8945 69.9532C72.0365 69.5962 72.0121 69.1943 71.8273 68.8572C71.6429 68.5201 71.3173 68.2829 70.94 68.2104L69.6724 67.9666C68.6809 67.776 67.8916 67.0925 67.561 66.1385C67.2303 65.1845 67.4276 64.1591 68.0884 63.3957L75.6123 54.7062C76.2732 53.943 77.2599 53.6014 78.2511 53.7917C79.2427 53.9823 80.0319 54.6656 80.3626 55.6196L84.1277 66.4799C84.4586 67.4341 84.2614 68.4594 83.6006 69.2228Z" fill="#153F69"/>
<path d="M5.20083 33.2242C5.83668 35.0588 7.35469 36.373 9.26154 36.7394C9.60945 36.8063 9.9572 36.8391 10.3008 36.8391C11.84 36.8391 13.2977 36.1806 14.3368 34.9806L21.8605 26.2911C23.1317 24.8231 23.5109 22.8511 22.875 21.0163C22.2792 19.2977 20.9097 18.0356 19.1715 17.5813C21.7383 12.9384 27.0578 10.363 32.3817 11.3659C33.8454 11.6416 35.328 11.3308 36.5574 10.4909C37.7868 9.65119 38.6159 8.38277 38.8913 6.91959C39.4602 3.89921 37.4656 0.979033 34.445 0.410057C23.088 -1.7285 11.8989 4.67875 7.93605 15.4089L7.52504 15.33C5.61837 14.9631 3.72064 15.6208 2.44964 17.0891C1.17864 18.5575 0.799434 20.5293 1.43579 22.3643L5.20083 33.2242ZM4.39911 18.7765C4.93955 18.1523 5.69744 17.8099 6.49779 17.8099C6.67656 17.8099 6.8574 17.8269 7.0384 17.8618L8.54954 18.1523C9.19158 18.2761 9.8257 17.8983 10.0225 17.2739C13.2181 7.13532 23.5128 0.975251 33.9678 2.94432C35.591 3.25012 36.6632 4.81936 36.3573 6.44275C36.2093 7.229 35.7638 7.91075 35.1029 8.36197C34.4421 8.8132 33.6453 8.98028 32.8587 8.83211C25.8065 7.5037 18.7588 11.3784 16.1049 18.0459C15.9629 18.4029 15.9873 18.8048 16.1721 19.1419C16.3567 19.479 16.6821 19.7162 17.0594 19.7888L18.327 20.0325C19.3185 20.2232 20.1078 20.9066 20.4384 21.8606C20.7691 22.8147 20.5718 23.84 19.911 24.6034L12.3873 33.2928C11.7264 34.056 10.7397 34.3979 9.74835 34.2072C8.75668 34.0166 7.9675 33.3333 7.63677 32.3793L3.87173 21.5194C3.54118 20.5654 3.73817 19.54 4.39911 18.7765Z" fill="#153F69"/>
<path d="M55.7665 43.9768C55.7665 37.4868 50.4874 32.207 43.9985 32.207C37.5096 32.207 32.2305 37.487 32.2305 43.9768C32.2305 45.5555 32.538 47.0867 33.1443 48.5282C33.4202 49.1845 34.1767 49.4926 34.8325 49.2167C35.4888 48.9406 35.797 48.1848 35.5209 47.5283C35.0484 46.405 34.8087 45.2101 34.8087 43.9766C34.8087 38.9084 38.9312 34.7853 43.9983 34.7853C49.0655 34.7853 53.1879 38.9086 53.1879 43.9766C53.1879 49.0419 49.0655 53.1627 43.9983 53.1627C41.8898 53.1627 39.8326 52.4323 38.2049 51.1062C37.6528 50.6563 36.8407 50.7393 36.391 51.2911C35.9414 51.8431 36.024 52.6551 36.5762 53.105C38.6625 54.805 41.2983 55.7412 43.9983 55.7412C50.4874 55.7413 55.7665 50.4638 55.7665 43.9768Z" fill="#153F69"/>
<path d="M54.6309 69.6377C57.9805 68.2488 59.5765 64.3935 58.189 61.045C57.7192 60.181 57.6353 59.0842 58.4309 58.3639C58.9874 57.8059 59.8095 57.6368 60.5242 57.9325C61.488 58.3696 62.5228 58.6764 63.5876 58.6604C66.2597 58.6604 68.646 57.0668 69.6668 54.6003C71.0528 51.2512 69.4559 47.3973 66.1074 46.0089L65.5582 45.781C64.8426 45.4851 64.3805 44.784 64.3812 43.9938V43.9497C64.3805 43.1604 64.8429 42.4587 65.5577 42.1627L66.1069 41.9358C69.4556 40.5477 71.0527 36.6933 69.6668 33.3429C68.6454 30.8765 66.2592 29.2831 63.5876 29.2831C62.7219 29.2831 61.8757 29.4519 61.0726 29.7846L60.5245 30.0117C59.8089 30.3076 58.9873 30.1384 58.4307 29.5804C58.4254 29.5751 58.42 29.5698 58.4145 29.5646C58.4082 29.5581 58.4009 29.5507 58.3975 29.5474C57.8363 28.9876 57.6654 28.1635 57.9624 27.447L58.1881 26.9006C59.5762 23.5507 57.9801 19.6955 54.6287 18.3058C53.8235 17.9733 52.9781 17.8047 52.1161 17.8047C49.4458 17.8047 47.0599 19.399 46.0385 21.8654L45.8097 22.4165C45.5141 23.1307 44.8127 23.5917 44.0205 23.5917C44.0194 23.5917 44.0182 23.5917 44.0172 23.5917H43.973C43.9725 23.5917 43.972 23.5917 43.9715 23.5917C43.1828 23.5917 42.4823 23.1304 42.186 22.4151L41.958 21.8666C40.5708 18.5172 36.7169 16.9199 33.3663 18.3063C30.8988 19.3279 29.3043 21.7138 29.3043 24.3845C29.3043 25.2466 29.4727 26.0923 29.8064 26.9013L30.0333 27.4481C30.33 28.164 30.161 28.9867 29.6066 29.5406L29.5846 29.5626L29.5712 29.576C29.0117 30.1374 28.188 30.3089 27.4729 30.0129L26.9223 29.7846C25.2998 29.1118 23.5122 29.1113 21.889 29.7838C20.2663 30.4561 19.0025 31.72 18.3309 33.3424C17.9974 34.147 17.8283 34.9933 17.8283 35.8576C17.8283 38.5285 19.4228 40.9142 21.8893 41.9353L22.4382 42.1632C23.1504 42.4577 23.6117 43.1582 23.6143 43.9436V43.9886C23.6155 44.7814 23.1538 45.485 22.4368 45.7816L21.8904 46.0085C19.4226 47.0301 17.8281 49.4159 17.8281 52.0868C17.8281 52.9516 17.9973 53.7977 18.3304 54.6003C19.0022 56.2236 20.266 57.4878 21.8888 58.1601C23.5114 58.8322 25.2989 58.8322 26.9218 58.1599L27.4722 57.9318C28.1871 57.6358 29.0113 57.807 29.571 58.3686C30.1512 58.9233 30.3368 59.7663 30.0331 60.4954C29.5958 61.4598 29.2879 62.5025 29.3041 63.56C29.3041 66.2307 30.8984 68.6167 33.3663 69.6382C34.1863 69.9776 35.0358 70.1381 35.8726 70.1381C38.4546 70.1379 40.9102 68.6077 41.9577 66.0783L42.186 65.5277C42.4822 64.8138 43.1826 64.3528 43.9723 64.3528H43.9739H44.0191H44.0222C44.8126 64.3528 45.5141 64.8138 45.8101 65.5294L46.0378 66.0779C47.0596 68.5448 49.4453 70.139 52.1159 70.139C52.9802 70.1386 53.8256 69.9703 54.6309 69.6377ZM48.4201 65.0897L48.1924 64.5415C47.4962 62.8595 45.8603 61.774 44.0246 61.774C44.0223 61.774 44.0198 61.774 44.0175 61.774H43.9754C43.974 61.774 43.9732 61.774 43.9718 61.774C42.137 61.774 40.5016 62.8595 39.8049 64.54L39.5764 65.0911C38.7329 67.1277 36.3893 68.0987 34.353 67.2558C32.8525 66.6345 31.883 65.1839 31.883 63.56C31.8633 62.8478 32.1261 62.1298 32.4156 61.4826C33.1135 59.7998 32.725 57.874 31.4146 56.565L31.3979 56.5484C30.0981 55.2444 28.1703 54.8521 26.486 55.5496L25.9354 55.7777C24.9489 56.1863 23.8625 56.1865 22.876 55.7779C21.8897 55.3693 21.1217 54.6009 20.7129 53.6131C20.5099 53.124 20.4071 52.6106 20.4071 52.0868C20.4071 50.4627 21.3766 49.0121 22.8781 48.3905L23.4242 48.1638C25.1091 47.4669 26.196 45.8265 26.1931 43.9867V43.9396C26.1874 42.1065 25.1007 40.474 23.4256 39.7813L22.8769 39.5535C21.3764 38.9324 20.4071 37.4816 20.4071 35.8577C20.4071 35.3341 20.5102 34.82 20.7134 34.3292C21.1217 33.3429 21.8899 32.5747 22.876 32.1661C23.8625 31.7573 24.9489 31.7577 25.9351 32.1666L26.4864 32.3951C28.1708 33.0923 30.0984 32.7 31.3945 31.3994L31.4261 31.368C32.7248 30.0707 33.1133 28.1446 32.4156 26.4603L32.1895 25.9154C31.9864 25.4226 31.8834 24.9074 31.8834 24.3844C31.8834 22.7603 32.8529 21.3096 34.3532 20.6886C36.3908 19.8456 38.7333 20.817 39.5771 22.8545L39.805 23.403C40.5016 25.0845 42.1368 26.1704 43.9711 26.1702H43.9747H44.0158H44.023C45.8603 26.1702 47.4965 25.0845 48.1922 23.404L48.421 22.8531C49.0424 21.3526 50.4932 20.383 52.1168 20.383C52.6395 20.383 53.1538 20.4859 53.6435 20.6881C55.6803 21.5326 56.6507 23.8766 55.8063 25.9144L55.5806 26.4609C54.8829 28.1444 55.2742 30.0722 56.5711 31.3663C56.5868 31.3824 56.6029 31.3987 56.6194 31.4146C57.9157 32.7034 59.8337 33.0878 61.5116 32.3937L62.0603 32.1663C62.549 31.9638 63.0629 31.861 63.5881 31.861C65.213 31.861 66.6642 32.8298 67.2849 34.3285C68.1275 36.3655 67.1565 38.7091 65.1216 39.5526L64.5725 39.7795C62.889 40.4771 61.8021 42.1146 61.8035 43.9503V43.9924C61.8021 45.8298 62.8893 47.4671 64.572 48.1627L65.1197 48.39C65.1199 48.39 65.12 48.3902 65.1202 48.3902C67.1568 49.2342 68.1279 51.5775 67.2852 53.6136C66.6647 55.1127 65.2135 56.0815 63.5882 56.0815C62.8701 56.1014 62.1595 55.8393 61.5112 55.5496C59.8354 54.8564 57.9205 55.2394 56.6242 56.5243C55.1021 57.9694 54.8674 60.2134 55.807 62.0305C56.6509 64.0671 55.6805 66.4111 53.6456 67.2549C53.1555 67.4572 52.6412 67.5599 52.1169 67.5599C50.4925 67.5602 49.0419 66.5909 48.4201 65.0897Z" fill="#153F69"/>
</g>
<defs>
<clipPath id="clip0_791_713">
<rect width="88" height="88" fill="white"/>
</clipPath>
</defs>
</svg>
