<svg width="88" height="88" viewBox="0 0 88 88" fill="none" xmlns="http://www.w3.org/2000/svg">
<path d="M59.2379 23.7676C55.6627 23.7676 51.6277 25.9738 46.9005 30.513C45.7087 31.657 44.6379 32.7964 43.7577 33.782C42.8775 32.7964 41.806 31.657 40.6149 30.513C35.8877 25.9738 31.852 23.7676 28.2775 23.7676C20.0765 23.7676 13.4043 30.4398 13.4043 38.6408C13.4043 46.8418 20.0765 53.514 28.2775 53.514C31.852 53.514 35.8877 51.3079 40.6149 46.7686C41.806 45.6246 42.8775 44.4852 43.7577 43.4996C44.6379 44.4852 45.7087 45.6246 46.9005 46.7686C51.6277 51.3079 55.6627 53.514 59.2379 53.514C67.4388 53.514 74.1111 46.8418 74.1111 38.6408C74.1111 30.4398 67.4388 23.7676 59.2379 23.7676ZM28.2775 47.2661C23.5214 47.2661 19.6522 43.3969 19.6522 38.6408C19.6522 33.8847 23.5214 30.0155 28.2775 30.0155C31.0772 30.0155 35.973 34.3721 39.4118 38.2809C39.5938 38.4877 39.5938 38.7979 39.4118 39.0047C35.979 42.9122 31.0866 47.2661 28.2775 47.2661ZM59.2379 47.2661C56.4382 47.2661 51.5424 42.9095 48.1036 39.0013C47.9216 38.7946 47.921 38.4837 48.1036 38.2769C51.5364 34.3694 56.4288 30.0155 59.2379 30.0155C63.994 30.0155 67.8632 33.8847 67.8632 38.6408C67.8632 43.3969 63.994 47.2661 59.2379 47.2661Z" fill="#248EFF"/>
<path d="M82.772 59.7526C82.772 70.3115 74.2119 78.8716 63.653 78.8716C53.0934 78.8716 44.5332 70.3115 44.5332 59.7526C44.5332 49.193 53.0934 40.6328 63.653 40.6328C74.2119 40.6328 82.772 49.193 82.772 59.7526Z" fill="#248EFF"/>
<path d="M58.4263 63.1472C57.7341 62.0851 57.3554 60.8001 57.4266 59.4244C57.5884 56.3051 60.0947 53.7505 63.2112 53.535C66.8475 53.2832 69.8868 56.1702 69.8868 59.7541C69.8868 61.0048 69.5162 62.1697 68.8791 63.1466C68.728 63.3789 68.7737 63.6864 68.9932 63.8549L72.8658 66.8298C73.1028 67.0111 73.4438 66.9587 73.615 66.7143C75.1404 64.5384 75.9736 61.8448 75.787 58.9517C75.3915 52.8421 70.426 47.9356 64.3123 47.6114C57.3091 47.2387 51.4922 52.83 51.4922 59.7534C51.4922 62.3416 52.3066 64.7411 53.6903 66.7143C53.8615 66.9587 54.2019 67.0111 54.4389 66.8291L58.3121 63.8549C58.5317 63.6864 58.5773 63.3789 58.4263 63.1472Z" fill="white"/>
<path d="M57.4279 59.4246C57.495 58.1309 57.967 56.9351 58.7162 55.9623L54.0152 52.3516C52.4354 54.4033 51.4941 56.9707 51.4941 59.7543C51.4941 62.3418 52.3085 64.742 53.6916 66.7152C53.8628 66.9589 54.2039 67.012 54.4402 66.83L58.3134 63.8551C58.533 63.6866 58.5786 63.3791 58.4276 63.1475C57.7354 62.0853 57.3567 60.8003 57.4279 59.4246Z" fill="white"/>
<path d="M73.2914 52.3516L68.5957 55.9576C69.4054 57.0096 69.8888 58.3256 69.8888 59.7529C69.8888 61.0037 69.5175 62.1686 68.8804 63.1461C68.7293 63.3777 68.775 63.6852 68.9945 63.8544L72.8677 66.8287C73.1041 67.0106 73.4451 66.9576 73.6163 66.7139C75.1417 64.5379 75.9749 61.8436 75.7883 58.9513C75.6285 56.4799 74.7201 54.2059 73.2914 52.3516Z" fill="white"/>
<path d="M65.9996 59.754C65.9996 61.0491 64.9495 62.0992 63.6544 62.0992C62.3586 62.0992 61.3086 61.0491 61.3086 59.754C61.3086 58.4583 62.3586 57.4082 63.6544 57.4082C64.9495 57.4082 65.9996 58.4583 65.9996 59.754Z" fill="white"/>
<path d="M72.4749 61.0597H63.6529C62.9305 61.0597 62.3457 60.4742 62.3457 59.7525C62.3457 59.0301 62.9305 58.4453 63.6529 58.4453H72.4749C73.1967 58.4453 73.7814 59.0301 73.7814 59.7525C73.7814 60.4742 73.1967 61.0597 72.4749 61.0597Z" fill="white"/>
<path d="M11.3387 14.905C11.3387 16.3539 10.1638 17.5281 8.7149 17.5281C7.26605 17.5281 6.0918 16.3539 6.0918 14.905C6.0918 13.4555 7.26605 12.2812 8.7149 12.2812C10.1638 12.2812 11.3387 13.4555 11.3387 14.905Z" fill="white"/>
<path d="M18.8042 14.905C18.8042 16.3539 17.6293 17.5281 16.1804 17.5281C14.7316 17.5281 13.5566 16.3539 13.5566 14.905C13.5566 13.4555 14.7316 12.2812 16.1804 12.2812C17.6293 12.2812 18.8042 13.4555 18.8042 14.905Z" fill="white"/>
<path d="M26.5125 14.905C26.5125 16.3539 25.3383 17.5281 23.8894 17.5281C22.4406 17.5281 21.2656 16.3539 21.2656 14.905C21.2656 13.4555 22.4406 12.2812 23.8894 12.2812C25.3383 12.2812 26.5125 13.4555 26.5125 14.905Z" fill="white"/>
<path d="M88 10.7818C88 9.19666 86.7096 7.90625 85.1245 7.90625H67.5952C66.8728 7.90625 66.288 8.4917 66.288 9.21344C66.288 9.93518 66.8728 10.5206 67.5952 10.5206H85.1245C85.2688 10.5206 85.3856 10.6381 85.3856 10.7818V19.1674H2.61438V10.7818C2.61438 10.6381 2.7312 10.5206 2.87555 10.5206H61.3077C62.0294 10.5206 62.6149 9.93518 62.6149 9.21344C62.6149 8.4917 62.0294 7.90625 61.3077 7.90625H2.87555C1.29041 7.90625 0 9.19666 0 10.7818V63.3615C0 64.9473 1.29041 66.2377 2.87555 66.2377H44.282C46.9991 74.3319 54.6556 80.1797 63.6528 80.1797C72.6508 80.1797 80.3073 74.3319 83.0244 66.2377H85.1245C86.7096 66.2377 88 64.9473 88 63.3615V10.7818ZM63.6535 77.5653C53.8318 77.5653 45.8409 69.5751 45.8409 59.7534C45.8409 49.9317 53.8318 41.9415 63.6535 41.9415C73.4745 41.9415 81.4654 49.9317 81.4654 59.7534C81.4654 69.5751 73.4745 77.5653 63.6535 77.5653ZM49.5322 38.639C53.3806 34.3703 57.4062 31.3235 59.2385 31.3235C63.2735 31.3235 66.5566 34.6066 66.5566 38.6417C66.5566 38.9384 66.5358 39.2338 66.5002 39.5266C65.5696 39.3956 64.6196 39.3271 63.6528 39.3271C59.8118 39.3271 56.2152 40.3933 53.1423 42.245C51.9519 41.1808 50.7018 39.9334 49.5322 38.639ZM85.1245 63.6233H83.7105C83.9515 62.3698 84.0798 61.076 84.0798 59.7534C84.0798 52.6414 80.4261 46.3687 74.8979 42.7089C75.2416 41.3856 75.4189 40.022 75.4189 38.6417C75.4189 29.7196 68.1605 22.4612 59.2385 22.4612C55.3102 22.4612 50.9784 24.7869 45.996 29.5706C45.2548 30.2829 44.5056 31.0443 43.7583 31.8439C43.0117 31.0443 42.2625 30.2829 41.5212 29.5706C36.5389 24.7869 32.2071 22.4612 28.2788 22.4612C19.3568 22.4612 12.0984 29.7196 12.0984 38.6417C12.0984 47.5637 19.3568 54.8221 28.2788 54.8221C32.2071 54.8221 36.5389 52.4964 41.5212 47.7128C42.2779 46.9857 43.0419 46.2082 43.804 45.3904C44.2827 45.6543 44.8956 45.5972 45.3199 45.2065C45.8503 44.7177 45.8846 43.8906 45.3951 43.3595C45.1642 43.1091 44.9433 42.8647 44.7338 42.6297C44.4854 42.3524 44.1309 42.1933 43.759 42.1933C43.3864 42.1933 43.0319 42.3524 42.7834 42.6297C41.7616 43.7744 40.7277 44.8506 39.7105 45.8268C35.2384 50.121 31.4995 52.2084 28.2788 52.2084C20.7982 52.2084 14.7128 46.1223 14.7128 38.6417C14.7128 31.1617 20.7982 25.0756 28.2788 25.0756C31.4995 25.0756 35.2384 27.163 39.7105 31.4572C40.7277 32.4333 41.7616 33.5096 42.7834 34.6536C43.0319 34.9316 43.3864 35.0907 43.759 35.0907C44.1309 35.0907 44.4854 34.9316 44.7338 34.6536C45.7563 33.5089 46.7903 32.4333 47.8068 31.4572C52.2789 27.163 56.0178 25.0756 59.2385 25.0756C66.7191 25.0756 72.8052 31.1617 72.8052 38.6417C72.8052 39.5601 72.7119 40.4685 72.5299 41.3588C71.4282 40.825 70.2707 40.3879 69.0696 40.0576C69.136 39.5903 69.171 39.117 69.171 38.6423C69.171 33.1658 64.7156 28.7098 59.2385 28.7098C55.094 28.7098 48.9166 35.3734 47.1219 37.4157C46.5083 38.1146 46.509 39.168 47.1233 39.8656C48.027 40.8928 49.361 42.3282 50.9401 43.7784C46.2431 47.5241 43.2272 53.2927 43.2272 59.7534C43.2272 61.0767 43.3548 62.3705 43.5965 63.624H2.87555C2.7312 63.624 2.61438 63.5065 2.61438 63.3621V21.7818H85.3856V63.3615C85.3856 63.5058 85.2681 63.6233 85.1245 63.6233Z" fill="#0A488A"/>
<path d="M28.2782 28.709C22.8017 28.709 18.3457 33.165 18.3457 38.6415C18.3457 44.118 22.8017 48.574 28.2782 48.574C32.4233 48.574 38.6001 41.9105 40.3947 39.8681C41.0084 39.1699 41.0084 38.1158 40.394 37.4175C38.5967 35.3752 32.4099 28.709 28.2782 28.709ZM28.2782 45.9596C24.2432 45.9596 20.9601 42.6765 20.9601 38.6415C20.9601 34.6064 24.2432 31.3234 28.2782 31.3234C30.103 31.3234 34.1293 34.3728 37.9851 38.6442C34.136 42.9128 30.1104 45.9596 28.2782 45.9596Z" fill="#0A488A"/>
<path d="M77.0914 58.8664C76.6516 52.0666 71.1879 46.666 64.382 46.3048C60.6498 46.1067 57.1022 47.4126 54.3918 49.9826C51.6794 52.5547 50.1855 56.0245 50.1855 59.7527C50.1855 62.5255 51.0275 65.1922 52.62 67.4642C52.9053 67.8711 53.3505 68.1477 53.8419 68.2229C53.9339 68.237 54.0252 68.2437 54.1172 68.2437C54.518 68.2437 54.9148 68.1114 55.235 67.865L59.1083 64.8908C59.8616 64.3127 60.0428 63.2325 59.5212 62.4322C58.9505 61.5567 58.6779 60.5395 58.7323 59.4908C58.8585 57.0503 60.866 55.006 63.3011 54.8374C64.6841 54.7421 66.0007 55.208 67.0112 56.1507C67.6933 56.7878 68.1673 57.5767 68.405 58.4455H67.0595C66.5318 57.0758 65.2058 56.1003 63.6529 56.1003C61.6387 56.1003 59.9999 57.7385 59.9999 59.7527C59.9999 61.7668 61.6387 63.405 63.6529 63.405C65.2058 63.405 66.5318 62.4295 67.0595 61.0599H72.4749C73.1967 61.0599 73.7814 60.4744 73.7814 59.7527C73.7814 59.0309 73.1967 58.4455 72.4749 58.4455H71.0764C70.9415 57.6855 70.6897 56.9516 70.3345 56.2695L72.9973 54.2245C73.8405 55.6491 74.3696 57.284 74.4824 59.0356C74.626 61.2539 74.1118 63.3949 72.9905 65.2755L70.824 63.6125C70.252 63.1727 69.4315 63.2801 68.9911 63.8528C68.552 64.4255 68.6594 65.246 69.2321 65.6857L72.0701 67.8657C72.4642 68.1678 72.9717 68.2981 73.4632 68.2236C73.9546 68.1477 74.4004 67.8711 74.6858 67.4642C76.4596 64.9331 77.2914 61.9602 77.0914 58.8664ZM54.3152 65.2748C53.3216 63.6044 52.7993 61.7118 52.7993 59.7527C52.7993 57.7707 53.327 55.8808 54.3119 54.2272L56.9652 56.2648C56.4778 57.198 56.1783 58.2447 56.1213 59.3559C56.0508 60.7181 56.3415 62.0475 56.9666 63.2385L54.3152 65.2748ZM68.744 54.1943C67.2045 52.783 65.2112 52.0848 63.1212 52.2298C61.3648 52.3513 59.777 53.0744 58.5577 54.1916L55.9111 52.1586C56.0031 52.0646 56.0951 51.9706 56.1911 51.8793C58.3751 49.8081 61.2352 48.7567 64.243 48.9151C67.0454 49.0642 69.5624 50.2747 71.4041 52.1519L68.744 54.1943Z" fill="#0A488A"/>
<path d="M20.035 14.1369C19.6772 12.3356 18.0853 10.9727 16.1799 10.9727C14.4424 10.9727 12.9653 12.1066 12.4477 13.673C11.9301 12.1066 10.453 10.9727 8.71545 10.9727C6.54822 10.9727 4.78516 12.7364 4.78516 14.9036C4.78516 17.0702 6.54822 18.8339 8.71545 18.8339C10.453 18.8339 11.9301 17.7 12.4477 16.1336C12.9653 17.7 14.4424 18.8339 16.1799 18.8339C18.0853 18.8339 19.6772 17.471 20.035 15.6697C20.3922 17.471 21.9847 18.8339 23.8901 18.8339C26.0574 18.8339 27.8204 17.0709 27.8204 14.9036C27.8204 12.7357 26.0574 10.9727 23.8901 10.9727C21.9847 10.9727 20.3929 12.3356 20.035 14.1369ZM8.71545 16.2195C7.98969 16.2195 7.39954 15.6294 7.39954 14.9036C7.39954 14.1772 7.98969 13.587 8.71545 13.587C9.44122 13.587 10.032 14.1772 10.032 14.9036C10.032 15.6294 9.44122 16.2195 8.71545 16.2195ZM16.1799 16.2195C15.4542 16.2195 14.8633 15.6294 14.8633 14.9036C14.8633 14.1772 15.4542 13.587 16.1799 13.587C16.9057 13.587 17.4965 14.1772 17.4965 14.9036C17.4965 15.6294 16.9057 16.2195 16.1799 16.2195ZM25.2061 14.9036C25.2061 15.6294 24.6159 16.2195 23.8901 16.2195C23.1644 16.2195 22.5735 15.6294 22.5735 14.9036C22.5735 14.1772 23.1644 13.587 23.8901 13.587C24.6159 13.587 25.2061 14.1772 25.2061 14.9036Z" fill="#0A488A"/>
</svg>
