<svg width="88" height="88" viewBox="0 0 88 88" fill="none" xmlns="http://www.w3.org/2000/svg">
<g clip-path="url(#clip0_791_566)">
<path d="M71.5532 21.9584C68.3108 21.9584 65.3065 22.9772 62.8422 24.7115C63.1327 23.3805 63.287 21.9988 63.287 20.5806C63.287 9.92831 54.6517 1.29297 43.9994 1.29297C33.3471 1.29297 24.7117 9.92831 24.7117 20.5806C24.7117 21.9986 24.8663 23.3805 25.1565 24.7115C22.6922 22.9772 19.688 21.9584 16.4456 21.9584C8.07595 21.9584 1.29102 28.7433 1.29102 37.1129C1.29102 45.4825 8.07595 52.2675 16.4456 52.2675H71.5532C79.9228 52.2675 86.7077 45.4825 86.7077 37.1129C86.7077 28.7433 79.9228 21.9584 71.5532 21.9584Z" fill="#C4DF64"/>
<path d="M74.3085 46.7564H19.2009C10.8313 46.7564 4.04634 39.9715 4.04634 31.6018C4.04634 30.2622 4.22097 28.9635 4.54736 27.7266C2.50841 30.3076 1.29102 33.5679 1.29102 37.1127C1.29102 45.4823 8.07595 52.2672 16.4456 52.2672H71.5532C78.5832 52.2672 84.4945 47.4802 86.2069 40.9879C83.4314 44.5012 79.1335 46.7564 74.3085 46.7564Z" fill="#8AC451"/>
<path d="M43.9996 34.3587C51.6085 34.3587 57.7766 28.1905 57.7766 20.5817C57.7766 12.9729 51.6085 6.80469 43.9996 6.80469C36.3908 6.80469 30.2227 12.9729 30.2227 20.5817C30.2227 28.1905 36.3908 34.3587 43.9996 34.3587Z" fill="#D9DCDF"/>
<path d="M44 31.6016C50.087 31.6016 55.0215 26.6671 55.0215 20.5801C55.0215 14.4931 50.087 9.55859 44 9.55859C37.913 9.55859 32.9785 14.4931 32.9785 20.5801C32.9785 26.6671 37.913 31.6016 44 31.6016Z" fill="#ECEDEF"/>
<path d="M56.3986 67.4244V48.1367H31.6001V67.4244H23.334L43.9994 86.7122L64.6648 67.4244H56.3986Z" fill="#FFC44F"/>
<path d="M37.111 72.9352V48.1367H31.6001V67.4244H23.334L43.9994 86.7122L46.9943 83.9168L37.111 72.9352Z" fill="#F79F4D"/>
<path d="M71.5538 20.6693C69.0901 20.6693 66.6982 21.2098 64.5121 22.2483C64.5566 21.6945 64.5793 21.1387 64.5793 20.5832C64.5793 15.8312 62.9212 11.1954 59.9105 7.52997C59.4574 6.97859 58.6439 6.89902 58.0924 7.35156C57.5413 7.80428 57.4614 8.61811 57.9141 9.16948C60.5464 12.3743 61.996 16.4278 61.996 20.5834C61.996 21.8796 61.8561 23.1766 61.5807 24.4387C61.3351 25.5629 62.6424 26.4347 63.586 25.7704C65.9268 24.1233 68.6819 23.2526 71.554 23.2526C79.1981 23.2526 85.4171 29.4715 85.4171 37.1157C85.4171 44.7598 79.1981 50.9788 71.554 50.9788H57.6907V48.137C57.6907 47.4237 57.1125 46.8453 56.3991 46.8453H31.6008C30.8873 46.8453 30.3091 47.4237 30.3091 48.137V50.9784H16.4462C8.80206 50.9784 2.58311 44.7595 2.58311 37.1153C2.58311 29.4712 8.80206 23.2522 16.4462 23.2522C19.3182 23.2522 22.0734 24.123 24.4142 25.7702C25.3576 26.4342 26.665 25.5626 26.4194 24.4383C26.1439 23.1764 26.0042 21.8793 26.0042 20.583C26.0042 10.6598 34.0773 2.58702 44.0002 2.58702C47.2419 2.58702 50.419 3.45808 53.1883 5.10602C53.801 5.47056 54.5939 5.26947 54.9586 4.65656C55.3233 4.04348 55.122 3.2508 54.5091 2.88608C51.3404 1.00078 47.7063 0.00390625 44 0.00390625C32.6525 0.00390625 23.4207 9.23566 23.4207 20.5832C23.4207 21.1389 23.4432 21.6945 23.4879 22.2483C21.302 21.2097 18.9099 20.6693 16.4462 20.6693C7.37773 20.6693 0 28.047 0 37.1155C0 46.184 7.37773 53.5617 16.4462 53.5617H30.3093V66.1332H23.3348C22.1889 66.1332 21.6136 67.585 22.4536 68.3689L43.119 87.6565C43.6086 88.1136 44.3917 88.1136 44.8814 87.6565L65.5468 68.3689C66.3866 67.585 65.8116 66.1332 64.6656 66.1332H57.691V53.5617H71.5541C80.6226 53.5617 88.0003 46.184 88.0003 37.1155C88.0003 28.047 80.6223 20.6693 71.5538 20.6693ZM61.3888 68.7163L44 84.9457L26.6112 68.7164H31.6008C32.3142 68.7164 32.8924 68.1381 32.8924 67.4248V49.4286H55.1076V67.4246C55.1076 68.1379 55.6858 68.7163 56.3992 68.7163H61.3888Z" fill="black"/>
<path d="M44.0001 5.51172C35.6913 5.51172 28.9316 12.2714 28.9316 20.5802C28.9316 28.889 35.6913 35.6486 44.0001 35.6486C52.3089 35.6486 59.0685 28.889 59.0685 20.5802C59.0685 12.2714 52.3089 5.51172 44.0001 5.51172ZM45.2917 32.9988V30.2239C45.2917 29.5106 44.7135 28.9323 44.0001 28.9323C43.2866 28.9323 42.7085 29.5106 42.7085 30.2239V32.9988C36.8532 32.3943 32.1859 27.7269 31.5814 21.8718H34.3564C35.0698 21.8718 35.648 21.2935 35.648 20.5802C35.648 19.8669 35.0698 19.2885 34.3564 19.2885H31.5814C32.1859 13.4333 36.8534 8.766 42.7085 8.16152V10.9364C42.7085 11.6497 43.2866 12.2281 44.0001 12.2281C44.7135 12.2281 45.2917 11.6497 45.2917 10.9364V8.16169C51.147 8.76617 55.8143 13.4336 56.4188 19.2887H53.644C52.9305 19.2887 52.3524 19.8671 52.3524 20.5803C52.3524 21.2936 52.9305 21.872 53.644 21.872H56.4189C55.8141 27.7269 51.1468 32.3942 45.2917 32.9988Z" fill="black"/>
<path d="M42.4437 13.2119C42.1825 12.5587 41.4181 12.2311 40.7648 12.4925C40.1115 12.7541 39.7838 13.5179 40.0452 14.1714L42.4844 20.269L40.3312 22.422C39.8611 22.8921 39.8297 23.669 40.2626 24.1745C40.7456 24.7386 41.6326 24.7738 42.158 24.2486L44.9134 21.4932C45.2786 21.1278 45.391 20.5801 45.1992 20.1002L42.4437 13.2119Z" fill="black"/>
<path d="M56.3987 41.332H31.6002C30.8868 41.332 30.3086 41.9104 30.3086 42.6237C30.3086 43.337 30.8868 43.9153 31.6002 43.9153H56.3987C57.1122 43.9153 57.6903 43.337 57.6903 42.6237C57.6903 41.9104 57.1122 41.332 56.3987 41.332Z" fill="black"/>
<path d="M56.3987 37.1992H31.6002C30.8868 37.1992 30.3086 37.7776 30.3086 38.4909C30.3086 39.2041 30.8868 39.7825 31.6002 39.7825H56.3987C57.1122 39.7825 57.6903 39.2041 57.6903 38.4909C57.6903 37.7776 57.1122 37.1992 56.3987 37.1992Z" fill="black"/>
</g>
<defs>
<clipPath id="clip0_791_566">
<rect width="88" height="88" fill="white"/>
</clipPath>
</defs>
</svg>
