<svg width="201" height="201" viewBox="0 0 201 201" fill="none" xmlns="http://www.w3.org/2000/svg">
<path fill-rule="evenodd" clip-rule="evenodd" d="M76.9863 53.9976C78.8 31.7879 98.1525 15.1756 120.381 16.7475C142.609 18.319 159.431 37.4893 158.102 59.7332C179.328 59.7332 196.694 77.0997 196.694 98.3256C196.694 119.552 179.328 136.918 158.102 136.918H32.0863C16.7224 136.797 4.33105 124.308 4.33105 108.943C4.33105 93.5786 16.7224 81.0895 32.0863 80.9686C28.3494 66.1546 38.0437 50.6289 51.8821 47.3611C60.2566 45.3837 69.9729 47.6316 76.9863 53.9976Z" fill="#2A93FC"/>
<path fill-rule="evenodd" clip-rule="evenodd" d="M158.102 59.7336C179.328 59.7336 196.694 77.1001 196.694 98.326C196.694 119.552 179.328 136.918 158.102 136.918H45.4828C30.1189 136.797 17.7275 124.308 17.7275 108.944C17.7275 93.5789 30.1189 81.0898 45.4828 80.9689C41.1264 52.9707 73.178 47.2037 83.4636 63.1255C89.0276 12.073 154.993 14.9538 158.102 59.7336Z" fill="#5CAEFF"/>
<path fill-rule="evenodd" clip-rule="evenodd" d="M79.2417 141.067L58.6662 129.187C57.1639 128.32 55.3309 128.561 54.1045 129.788L44.7651 139.127C41.2181 142.674 46.7083 148.164 50.2553 144.617L57.4324 137.44L75.3595 147.791L79.2417 141.066V141.067ZM121.83 118.222H145.588C147.323 118.222 148.79 117.097 149.238 115.421L154.409 96.1227C155.708 91.2779 148.208 89.2679 146.909 94.1131L142.53 110.458H121.829V118.222H121.83ZM121.83 157.306H145.588C147.323 157.306 148.79 158.431 149.238 160.107L154.409 179.405C155.708 184.251 148.208 186.26 146.909 181.415L142.53 165.07H121.829V157.306H121.83ZM121.842 141.067L142.418 129.188C143.92 128.32 145.753 128.562 146.979 129.788L156.319 139.128C159.866 142.674 154.376 148.165 150.829 144.618L143.652 137.441L125.724 147.791L121.842 141.067ZM79.2542 157.306H55.4958C53.7614 157.306 52.2943 158.431 51.8456 160.107L46.6746 179.405C45.3763 184.251 52.8761 186.26 54.1744 181.415L58.554 165.07H79.2546V157.306H79.2542ZM79.2542 118.222H55.4958C53.7614 118.222 52.2943 117.097 51.8456 115.421L46.6746 96.1227C45.3763 91.2779 52.8761 89.2679 54.1744 94.1131L58.554 110.458H79.2546V118.222L79.2542 118.222Z" fill="white"/>
<path fill-rule="evenodd" clip-rule="evenodd" d="M123.312 143.167L144.807 130.757C145.998 130.069 147.453 130.261 148.426 131.234L156.318 139.126C159.865 142.673 154.375 148.163 150.828 144.616L143.651 137.439L125.724 147.789L123.312 143.167Z" fill="white"/>
<path fill-rule="evenodd" clip-rule="evenodd" d="M58.943 118.223C57.2085 118.223 55.7415 117.097 55.2928 115.422L50.1217 96.1232C49.5466 93.9762 50.6988 92.387 52.2735 91.7031C53.1379 92.1204 53.8496 92.9032 54.1739 94.1136L58.5535 110.458H79.2542V118.223H58.9433L58.943 118.223Z" fill="white"/>
<path fill-rule="evenodd" clip-rule="evenodd" d="M58.9432 157.305C57.2088 157.305 55.7417 158.43 55.293 160.106L50.122 179.404C49.5468 181.551 50.6991 183.141 52.2737 183.825C53.1382 183.407 53.8499 182.624 54.1742 181.414L58.5538 165.069H79.2544V157.305H58.9432Z" fill="white"/>
<path fill-rule="evenodd" clip-rule="evenodd" d="M152.258 183.825C151.393 183.407 150.682 182.624 150.357 181.414L145.978 165.069H125.277V157.305H145.588C147.323 157.305 148.79 158.43 149.238 160.106L154.409 179.404C154.985 181.551 153.832 183.141 152.257 183.825H152.258Z" fill="white"/>
<path fill-rule="evenodd" clip-rule="evenodd" d="M152.258 91.7031C151.393 92.1204 150.682 92.9032 150.357 94.1136L145.978 110.459H125.277V118.223H145.588C147.323 118.223 148.79 117.097 149.238 115.422L154.409 96.1232C154.985 93.9762 153.832 92.387 152.257 91.7031H152.258Z" fill="white"/>
<path fill-rule="evenodd" clip-rule="evenodd" d="M79.242 141.065L60.3335 130.148C59.1416 129.46 57.6871 129.651 56.7139 130.625L48.213 139.126C46.0382 141.3 47.2618 144.206 49.3515 145.31C49.662 145.135 49.9655 144.906 50.2556 144.616L57.4327 137.439L75.3598 147.789L79.242 141.065V141.065Z" fill="white"/>
<path d="M119.124 97.2342C119.124 86.9717 110.804 78.6523 100.542 78.6523C90.2794 78.6523 81.96 86.9717 81.96 97.2342V104.07C81.96 114.332 90.2794 122.652 100.542 122.652C110.804 122.652 119.124 114.332 119.124 104.07V97.2342Z" fill="#6A75AD"/>
<path fill-rule="evenodd" clip-rule="evenodd" d="M104.027 78.9844C112.596 80.6277 119.124 88.2052 119.124 97.2345V104.071C119.124 113.1 112.596 120.678 104.027 122.321C95.4581 120.677 88.9307 113.1 88.9307 104.071V97.2345C88.9307 88.2052 95.4581 80.6273 104.027 78.9844Z" fill="#7986BF"/>
<path d="M100.541 96.7109C118.855 96.7109 133.724 111.579 133.724 129.893V145.633C133.724 163.947 118.855 178.815 100.542 178.815H100.541C82.2275 178.815 67.3594 163.947 67.3594 145.633V129.894C67.3594 111.58 82.2279 96.7113 100.542 96.7113L100.541 96.7109Z" fill="#E3353D"/>
<path fill-rule="evenodd" clip-rule="evenodd" d="M100.542 96.7113C118.792 96.7113 133.724 111.643 133.724 129.894V145.633C133.724 163.883 118.792 178.815 100.542 178.815C100.254 178.815 99.9681 178.812 99.6827 178.804C85.8981 174.773 75.7539 161.987 75.7539 146.945V128.581C75.7539 113.539 85.8981 100.753 99.6827 96.7219C99.9681 96.7145 100.255 96.7113 100.542 96.7113Z" fill="#F0414A"/>
<path fill-rule="evenodd" clip-rule="evenodd" d="M100.542 96.7109C118.792 96.7109 133.724 111.643 133.724 129.893V145.633C133.724 163.883 118.792 178.815 100.542 178.815V96.7109Z" fill="#FB545C"/>
<path fill-rule="evenodd" clip-rule="evenodd" d="M102.982 123.163L118.214 149.546C118.732 150.442 118.732 151.468 118.214 152.364C117.697 153.26 116.809 153.773 115.774 153.773H85.3094C84.2749 153.773 83.3865 153.26 82.8695 152.364C82.3521 151.468 82.3521 150.442 82.8695 149.546L98.1019 123.163C98.619 122.267 99.5074 121.754 100.542 121.754C101.577 121.754 102.465 122.267 102.982 123.163H102.982Z" fill="#CFCFFF"/>
<path fill-rule="evenodd" clip-rule="evenodd" d="M102.982 123.165L118.214 149.548C118.732 150.444 118.732 151.47 118.214 152.366C117.697 153.262 116.809 153.775 115.774 153.775H89.5061C88.4716 153.775 87.5832 153.262 87.0658 152.366C86.5484 151.47 86.5484 150.444 87.0658 149.548L102.298 123.165C102.399 122.991 102.513 122.832 102.64 122.688C102.767 122.832 102.881 122.991 102.982 123.165Z" fill="#E9E9FF"/>
<path fill-rule="evenodd" clip-rule="evenodd" d="M102.855 147.315V147.54C102.855 148.84 101.8 149.894 100.499 149.894C99.1988 149.894 98.1443 148.84 98.1443 147.54V147.315C98.1443 146.012 99.1992 144.961 100.499 144.961C101.8 144.961 102.855 146.012 102.855 147.315ZM102.855 132.276V141.14C102.855 142.44 101.8 143.495 100.499 143.495C99.1988 143.495 98.1443 142.44 98.1443 141.14V132.276C98.1443 130.977 99.1992 129.92 100.499 129.92C101.8 129.92 102.855 130.977 102.855 132.276ZM148.849 53.2021C149.025 54.4905 148.122 55.678 146.833 55.8535C146.725 55.8684 146.618 55.8739 146.512 55.8739C145.353 55.8759 144.342 55.0193 144.182 53.8376C143.157 46.3202 139.272 39.7771 133.241 35.4159C126.906 30.8341 118.758 29.172 110.298 30.7391C109.017 30.9766 107.789 30.1295 107.553 28.8504C107.316 27.5714 108.161 26.3426 109.44 26.1071C119.18 24.3044 128.613 26.2547 136.002 31.5993C143.086 36.7232 147.649 44.3942 148.849 53.2021H148.849ZM158.089 134.573C178.069 134.573 194.325 118.316 194.325 98.3332C194.325 78.3502 178.069 62.0975 158.089 62.0975C157.44 62.0975 156.819 61.8301 156.374 61.3571C155.929 60.884 155.699 60.2481 155.737 59.6011C156.984 38.7446 141.042 20.5792 120.201 19.1055C99.3625 17.6302 81.0213 33.3737 79.3206 54.1984C79.2476 55.0923 78.6729 55.8665 77.8378 56.1974C77.0036 56.5264 76.054 56.3525 75.3901 55.7507C69.1803 50.1144 60.3752 47.7805 52.4102 49.6618C46.4076 51.0794 40.9642 55.1877 37.4737 60.9323C33.8687 66.8677 32.733 73.9628 34.3567 80.401C34.5333 81.1022 34.3787 81.8446 33.9366 82.4169C33.4946 82.9893 32.8146 83.3258 32.0915 83.3312C18.0757 83.4435 6.67285 94.9347 6.67285 108.952C6.67285 122.97 18.0757 134.461 32.0915 134.572H45.9342L52.323 128.18C54.3157 126.19 57.2938 125.797 59.7349 127.205L64.9095 130.194V129.955C64.9095 126.723 65.3444 123.594 66.1535 120.62H55.382C52.5637 120.62 50.1803 118.79 49.4505 116.07L44.2716 96.7394C43.3679 93.3679 45.2798 90.1287 48.718 89.2089C52.1554 88.2872 55.4303 90.1346 56.334 93.5061L60.2523 108.132H72.4046C74.4472 105.51 76.8482 103.178 79.5326 101.214V97.2442C79.5326 90.6505 82.5947 84.7618 87.3677 80.9153L81.8005 75.3482C81.3593 74.9069 81.1108 74.3086 81.1108 73.684V64.8538C81.1108 63.5524 82.1656 62.4995 83.4666 62.4995C84.7676 62.4995 85.8217 63.5524 85.8217 64.8538V72.7081L91.4477 78.3349C94.1895 77.0166 97.2595 76.2778 100.499 76.2778C103.738 76.2778 106.809 77.0166 109.55 78.3349L115.176 72.7081V64.8538C115.176 63.5524 116.231 62.4995 117.531 62.4995C118.831 62.4995 119.886 63.5524 119.886 64.8538V73.684C119.886 74.3086 119.638 74.9069 119.196 75.3482L113.63 80.9153C118.403 84.7622 121.465 90.6509 121.465 97.2442V101.214C124.15 103.178 126.551 105.51 128.593 108.132H140.745L144.664 93.5061C145.567 90.1346 148.841 88.2868 152.28 89.2089C155.718 90.1291 157.63 93.3679 156.726 96.7394L151.547 116.07C150.817 118.791 148.434 120.62 145.616 120.62H134.844C135.654 123.595 136.088 126.723 136.088 129.955V130.194L141.262 127.205C143.703 125.797 146.682 126.19 148.675 128.18L155.064 134.572H158.088L158.089 134.573ZM155.114 142.122C154.953 142.719 154.381 143.291 153.782 143.448C153.326 143.575 152.94 143.444 152.531 143.036L145.342 135.848C144.588 135.094 143.422 134.941 142.499 135.47L136.089 139.173V135.633L143.618 131.287C144.197 130.952 144.874 131.042 145.344 131.514L154.699 140.869C155.108 141.279 155.236 141.662 155.114 142.122H155.114ZM145.616 159.763C146.283 159.763 146.825 160.18 146.998 160.824L152.177 180.154C152.506 181.383 151.506 181.794 151.062 181.914C150.617 182.034 149.545 182.176 149.216 180.947L144.829 164.577C144.553 163.544 143.62 162.83 142.554 162.83H131.697C132.244 161.837 132.745 160.812 133.198 159.763H145.616ZM131.697 112.843H142.554C143.62 112.843 144.553 112.128 144.829 111.096L149.216 94.7278C149.545 93.4955 150.618 93.6396 151.062 93.7589C151.506 93.8786 152.506 94.2881 152.177 95.5204L146.998 114.849C146.825 115.492 146.283 115.909 145.616 115.909H133.198C132.745 114.86 132.244 113.835 131.697 112.843ZM102.855 176.498C118.785 175.29 131.378 161.951 131.378 145.717V129.955C131.378 113.721 118.785 100.382 102.855 99.1741V120.006C103.728 120.45 104.468 121.141 104.983 122.037L120.239 148.46C121.175 150.082 121.175 152.017 120.239 153.638C119.304 155.256 117.628 156.226 115.756 156.226H102.854V176.498L102.855 176.498ZM85.243 151.517H115.756C115.949 151.517 116.063 151.449 116.16 151.279C116.257 151.115 116.257 150.982 116.16 150.817L100.903 124.392C100.806 124.223 100.693 124.156 100.499 124.156C100.305 124.156 100.192 124.223 100.095 124.392L84.8391 150.817C84.7417 150.982 84.7417 151.115 84.8391 151.285C84.9353 151.449 85.0495 151.517 85.243 151.517V151.517ZM100.499 80.9883C109.463 80.9883 116.755 88.2797 116.755 97.2442V98.2991C111.879 95.7858 106.352 94.3647 100.499 94.3647C94.6457 94.3647 89.1194 95.7858 84.2435 98.2991V97.2442C84.2435 88.2793 91.5361 80.9883 100.499 80.9883ZM69.6208 145.717C69.6208 161.951 82.2143 175.29 98.1439 176.498V156.227H85.243C83.3716 156.227 81.6949 155.257 80.7594 153.639C79.8235 152.018 79.8235 150.083 80.7594 148.461L96.0154 122.038C96.5301 121.142 97.2712 120.45 98.1439 120.007V99.1749C82.2143 100.383 69.6208 113.722 69.6208 129.956V145.718V145.717ZM58.4445 162.83C57.3786 162.83 56.4459 163.544 56.1699 164.576L51.7832 180.947C51.4531 182.175 50.3821 182.031 49.9373 181.914C49.4917 181.794 48.4922 181.382 48.822 180.154L54.0009 160.823C54.174 160.18 54.7154 159.763 55.3824 159.763H67.8004C68.2527 160.812 68.7536 161.837 69.3016 162.83H58.4445ZM67.8012 115.909H55.3824C54.7154 115.909 54.174 115.492 54.0009 114.849L48.822 95.52C48.4926 94.2877 49.4917 93.8783 49.9373 93.7585C50.3821 93.6388 51.4531 93.4951 51.7832 94.7274L56.1699 111.096C56.4463 112.128 57.379 112.842 58.4445 112.842H69.3016C68.7544 113.835 68.253 114.86 67.8012 115.909ZM58.4998 135.47C57.5765 134.94 56.4105 135.093 55.6568 135.847L48.4679 143.036C47.5665 143.935 46.7111 143.275 46.3853 142.95C46.0594 142.623 45.3983 141.768 46.2997 140.868L55.6533 131.513C56.1244 131.042 56.8015 130.952 57.3794 131.286L64.9091 135.632V139.172L58.4991 135.469L58.4998 135.47ZM199.037 98.3328C199.037 76.5711 181.969 58.7182 160.517 57.456C160.564 46.9483 156.817 36.9026 149.832 28.9439C142.311 20.3735 131.906 15.2103 120.533 14.4063C109.155 13.6023 98.1318 17.249 89.4798 24.6765C81.9085 31.1749 76.9227 39.9117 75.1742 49.6096C68.204 44.903 59.4083 43.1674 51.3266 45.0784C44.1052 46.7822 37.588 51.6702 33.4475 58.4865C29.7011 64.654 28.2195 71.9057 29.2351 78.7746C13.9591 80.321 1.96191 93.3102 1.96191 108.953C1.96191 125.546 15.4611 139.15 32.073 139.283H41.732C40.6375 141.564 41.0776 144.304 43.0535 146.283C44.3274 147.554 45.9197 148.194 47.5022 148.194C49.0458 148.194 50.5796 147.586 51.7989 146.365L57.7092 140.457L64.9095 144.614V145.718C64.9095 148.947 65.3444 152.078 66.1535 155.053H55.382C52.5637 155.053 50.1803 156.882 49.4505 159.603L44.2716 178.933C43.3679 182.305 45.2798 185.544 48.718 186.462C49.3123 186.624 49.9028 186.699 50.4771 186.699C53.2185 186.699 55.5865 184.956 56.334 182.165L60.2523 167.541H72.4046C78.9229 175.915 89.0927 181.309 100.499 181.309C111.905 181.309 122.076 175.915 128.594 167.541H140.746L144.664 182.165C145.412 184.957 147.78 186.699 150.521 186.699C151.095 186.699 151.686 186.624 152.28 186.462C155.719 185.544 157.631 182.305 156.727 178.933L151.548 159.603C150.818 156.882 148.435 155.053 145.616 155.053H134.845C135.654 152.078 136.089 148.947 136.089 145.718V144.614L143.289 140.457L149.2 146.365C150.404 147.571 151.903 148.207 153.462 148.207C153.972 148.207 154.488 148.14 155.003 148.003C157.236 147.403 159.065 145.572 159.664 143.337C160.039 141.937 159.892 140.523 159.273 139.264C181.306 138.636 199.037 120.517 199.037 98.3332L199.037 98.3328Z" fill="#3E3E3E"/>
</svg>
