<svg xmlns="http://www.w3.org/2000/svg" fill="none" viewBox="0 0 1917.7981651376147 838.962" style="max-height: 500px" width="1917.7981651376147" height="838.962">
<rect fill="#001F40" height="836" width="1922" x="-1"/>
<rect fill="url(#paint0_linear_673_1338)" height="836" width="1922" x="-1"/>
<path fill-opacity="0.05" fill="white" d="M1882.49 447.265C1943.06 458.821 1992.26 493.629 2045.44 524.845C2105.76 560.246 2179 580.78 2213.57 641.585C2251.54 708.369 2275.37 797.411 2238.85 865.005C2202.59 932.15 2102.9 922.942 2039.03 964.705C1980.23 1003.16 1951.61 1085.47 1882.49 1098.04C1810.16 1111.19 1733.3 1079.07 1678.3 1030.3C1625.79 983.745 1614.96 909.911 1594.57 842.757C1574.65 777.124 1548.76 712.234 1561.29 644.8C1575 571.113 1603.27 491.929 1667.11 452.671C1729.82 414.103 1810.17 433.47 1882.49 447.265Z" clip-rule="evenodd" fill-rule="evenodd"/>
<path fill-opacity="0.05" fill="white" d="M340.487 79.2653C401.062 90.8208 450.257 125.629 503.443 156.845C563.76 192.246 636.999 212.78 671.572 273.585C709.545 340.369 733.367 429.411 696.855 497.005C660.585 564.15 560.898 554.942 497.034 596.705C438.228 635.158 409.612 717.471 340.487 730.04C268.164 743.191 191.303 711.072 136.295 662.299C83.7907 615.745 72.9557 541.911 52.5741 474.757C32.6542 409.124 6.75561 344.234 19.2943 276.8C32.9958 203.113 61.2737 123.929 125.107 84.6713C187.818 46.1033 268.173 65.4702 340.487 79.2653Z" clip-rule="evenodd" fill-rule="evenodd"/>
<defs>
<linearGradient gradientUnits="userSpaceOnUse" y2="836" x2="960" y1="0" x1="960" id="paint0_linear_673_1338">
<stop stop-color="#0A437F"/>
<stop stop-color="#1279E5" offset="1"/>
</linearGradient>
</defs>
</svg>