<svg width="101" height="101" viewBox="0 0 101 101" fill="none" xmlns="http://www.w3.org/2000/svg">
<path fill-rule="evenodd" clip-rule="evenodd" d="M50.697 20.4407C60.3019 20.4407 68.084 28.2248 68.084 37.8277C68.084 45.1521 64.6871 47.7837 61.2527 51.8079C59.4753 53.8831 58.6093 56.2325 58.6093 58.9627V62.0657C58.6093 65.7546 55.5931 68.7767 51.8984 68.7767H50.697H49.4937C45.8048 68.7767 42.7827 65.7546 42.7827 62.0657V58.9627C42.7827 56.2325 41.9167 53.8811 40.1453 51.8079C36.7109 47.7837 33.314 45.1502 33.314 37.8277C33.314 28.2248 41.0981 20.4407 50.697 20.4407Z" fill="#FFD400"/>
<path fill-rule="evenodd" clip-rule="evenodd" d="M50.697 20.4407C51.06 20.4407 51.417 20.4565 51.7741 20.4782C42.6801 21.0364 35.4701 28.5877 35.4701 37.8277C35.4701 45.1521 38.867 47.7837 42.3014 51.8079C43.6388 53.3742 44.4575 55.0963 44.783 57.0196H42.6269C42.3014 55.0963 41.4788 53.3742 40.1453 51.8079C36.7109 47.7837 33.314 45.1502 33.314 37.8277C33.314 28.2248 41.0981 20.4407 50.697 20.4407Z" fill="#E6BF00"/>
<path fill-rule="evenodd" clip-rule="evenodd" d="M50.6973 96.0329L92.559 88.6827V77.8331C92.559 76.2077 91.8548 74.811 90.5548 73.8405C89.2548 72.866 87.7161 72.5898 86.1617 73.0494L54.2717 82.457C52.1215 83.0903 50.6973 84.9919 50.6973 87.2348V96.0329Z" fill="#C4F0F6"/>
<path fill-rule="evenodd" clip-rule="evenodd" d="M50.6971 96.0329L8.84131 88.6827V77.8331C8.84131 76.2077 9.53963 74.811 10.8396 73.8405C12.1396 72.866 13.6783 72.5898 15.2327 73.0494L47.1227 82.457C49.2788 83.0903 50.6971 84.9919 50.6971 87.2348V96.0329Z" fill="#C4F0F6"/>
<path d="M7.86674 92.3815C6.03612 92.0994 4.78546 90.3872 5.06557 88.5565C5.34766 86.7318 7.05993 85.4752 8.89055 85.7613L50.6971 92.3598L92.5036 85.7613C94.3342 85.4733 96.0465 86.7318 96.3285 88.5565C96.6106 90.3872 95.358 92.0994 93.5333 92.3815L51.2869 99.0491C50.9357 99.1142 50.5609 99.1201 50.1881 99.0609L7.86674 92.3815Z" fill="#2F5274"/>
<path fill-rule="evenodd" clip-rule="evenodd" d="M8.84131 85.7514V77.8312C8.84131 76.2057 9.53963 74.8091 10.8396 73.8385C12.1396 72.864 13.6783 72.5879 15.2327 73.0475L15.8561 73.2309C15.499 73.3888 15.1518 73.588 14.8224 73.8385C13.5165 74.8091 12.8182 76.2057 12.8182 77.8312V86.3787L8.89062 85.7613C8.87484 85.7573 8.85709 85.7573 8.84131 85.7514Z" fill="#B0D8DD"/>
<path fill-rule="evenodd" clip-rule="evenodd" d="M58.7732 57.0216C58.6647 57.645 58.6114 58.294 58.6114 58.9666V62.0696C58.6114 65.7585 55.5952 68.7806 51.9004 68.7806H50.6971H49.4938C45.8049 68.7806 42.7828 65.7585 42.7828 62.0696V58.9666C42.7828 58.2959 42.7296 57.645 42.625 57.0216H58.7732Z" fill="#2F5274"/>
<path fill-rule="evenodd" clip-rule="evenodd" d="M58.562 62.8981C58.1457 66.2023 55.311 68.7806 51.8983 68.7806H50.697H49.4937C46.0869 68.7806 43.2482 66.2023 42.8359 62.8981H58.562Z" fill="#F1F1F1"/>
<path fill-rule="evenodd" clip-rule="evenodd" d="M44.7811 57.0216C44.8896 57.645 44.9389 58.294 44.9389 58.9666V62.0696C44.9389 62.3517 44.9606 62.6279 44.9922 62.8982H42.8361C42.7986 62.6279 42.7828 62.3517 42.7828 62.0696V58.9666C42.7828 58.2959 42.7296 57.645 42.625 57.0216H44.7811Z" fill="#2A4A68"/>
<path fill-rule="evenodd" clip-rule="evenodd" d="M44.994 62.8981C45.4063 66.2023 48.245 68.7806 51.6577 68.7806H50.697H49.4937C46.0869 68.7806 43.2482 66.2023 42.8359 62.8981H44.994Z" fill="#D9D9D9"/>
<path d="M37.1884 50.7959C37.6461 51.3068 38.1195 51.8375 38.585 52.3819C40.1336 54.1948 40.8852 56.2365 40.8852 58.6274V61.7757C40.8852 66.4036 44.6529 70.1694 49.2847 70.1694H51.7229C55.9563 70.1694 59.4656 67.0171 60.0337 62.9376C60.0475 62.8705 60.0554 62.7995 60.0594 62.7305C60.0949 62.4168 60.1146 62.0992 60.1146 61.7757V58.6274C60.1146 56.2365 60.8662 54.1948 62.4147 52.3819C62.8803 51.8375 63.3537 51.3068 63.8114 50.7959C66.8532 47.3951 69.7274 44.1836 69.7274 37.1609C69.7274 26.5579 61.1029 17.9315 50.5019 17.9315C39.8988 17.9315 31.2724 26.5579 31.2724 37.1609C31.2724 44.1816 34.1466 47.3951 37.1884 50.7959ZM45.5268 37.9815H44.2919C43.6193 37.9815 43.0511 37.4134 43.0511 36.7407C43.0511 36.0681 43.6193 35.4999 44.2919 35.4999C44.9725 35.4999 45.5268 36.0562 45.5268 36.7407V37.9815ZM48.6791 41.1358H52.3187V55.0707H48.6791V41.1358ZM56.9682 58.2249C56.9643 58.3591 56.9603 58.4913 56.9603 58.6274V61.0439H44.0375V58.6274C44.0375 58.4913 44.0335 58.3591 44.0296 58.2249H56.9682ZM51.721 67.0151H49.2828C47.2647 67.0151 45.511 65.871 44.6332 64.1962H56.3646C55.4907 65.869 53.737 67.0151 51.721 67.0151ZM50.5019 21.0838C59.363 21.0838 66.5731 28.2958 66.5731 37.1609C66.5731 42.9783 64.3164 45.5013 61.46 48.6931C60.9905 49.2178 60.5052 49.7603 60.016 50.3343C58.7732 51.7901 57.919 53.3584 57.4357 55.0707H55.4729V41.1358H56.7138C59.1342 41.1358 61.1029 39.1632 61.1029 36.7407C61.1029 34.3163 59.1342 32.3457 56.7138 32.3457C54.2894 32.3457 52.3187 34.3183 52.3187 36.7407V37.9815H48.6791V36.7407C48.6791 34.3163 46.7104 32.3457 44.29 32.3457C41.8656 32.3457 39.8949 34.3183 39.8949 36.7407C39.8949 39.1651 41.8656 41.1358 44.29 41.1358H45.5248V55.0707H43.5621C43.0788 53.3584 42.2246 51.7901 40.9818 50.3343C40.4926 49.7622 40.0073 49.2178 39.5378 48.6931C36.6814 45.4993 34.4247 42.9783 34.4247 37.1609C34.4267 28.2958 41.6387 21.0838 50.5019 21.0838ZM55.4729 37.9815V36.7407C55.4729 36.0681 56.0411 35.4999 56.7138 35.4999C57.3943 35.4999 57.9486 36.0562 57.9486 36.7407C57.9486 37.4253 57.3943 37.9815 56.7138 37.9815H55.4729ZM48.9257 10.6879V1.58012C48.9257 0.708206 49.6319 0.00396729 50.5019 0.00396729C51.3738 0.00396729 52.078 0.710178 52.078 1.58012V10.6898C52.078 11.5618 51.3718 12.266 50.5019 12.266C49.6319 12.266 48.9257 11.5598 48.9257 10.6879ZM76.9749 35.5828H86.0846C86.9566 35.5828 87.6608 36.289 87.6608 37.1589C87.6608 38.0289 86.9546 38.7351 86.0846 38.7351H76.9749C76.103 38.7351 75.3988 38.0289 75.3988 37.1589C75.3988 36.289 76.103 35.5828 76.9749 35.5828ZM68.1039 19.5589C67.4884 18.9434 67.4864 17.9453 68.1039 17.3278L74.5446 10.8812C75.1601 10.2657 76.1582 10.2657 76.7737 10.8812C77.3892 11.4967 77.3911 12.4948 76.7737 13.1123L70.333 19.5589C70.0252 19.8666 69.6208 20.0205 69.2184 20.0205C68.816 20.0205 68.4116 19.8666 68.1039 19.5589ZM24.2241 13.1123C23.6086 12.4968 23.6086 11.4986 24.2241 10.8812C24.8396 10.2657 25.8377 10.2657 26.4532 10.8812L32.8939 17.3278C33.5094 17.9433 33.5094 18.9415 32.8939 19.5589C32.5862 19.8666 32.1818 20.0205 31.7794 20.0205C31.375 20.0205 30.9726 19.8666 30.6648 19.5589L24.2241 13.1123ZM13.339 37.1589C13.339 36.287 14.0452 35.5828 14.9151 35.5828H24.0288C24.9007 35.5828 25.605 36.289 25.605 37.1589C25.605 38.0289 24.8988 38.7351 24.0288 38.7351H14.9151C14.0452 38.7371 13.339 38.0309 13.339 37.1589ZM98.4275 88.4658C98.2263 87.15 97.5221 85.994 96.449 85.2069C95.8927 84.7986 95.2693 84.5185 94.6164 84.3686V77.8055C94.6164 75.6632 93.6695 73.7734 91.9493 72.4833C90.2312 71.1952 88.148 70.8223 86.0886 71.4319L53.6818 80.9894C52.3996 81.3701 51.3087 82.1 50.494 83.0567C49.6832 82.0961 48.5982 81.3701 47.3121 80.9894L14.9132 71.4358C12.8557 70.8243 10.7745 71.1971 9.05043 72.4853C7.33422 73.7715 6.38932 75.6613 6.38932 77.8055V84.3705C4.46006 84.8124 2.89772 86.3886 2.57223 88.4658C2.156 91.1821 4.02213 93.7288 6.73256 94.149L49.7306 100.937C49.9831 100.978 50.2395 100.998 50.4999 100.998C50.784 100.998 51.07 100.974 51.356 100.925L94.2672 94.151C96.9776 93.7328 98.8438 91.1841 98.4275 88.4658ZM54.5774 84.0154L86.9842 74.4579C88.081 74.1324 89.1442 74.3218 90.0576 75.0083C90.9906 75.7066 91.4621 76.6496 91.4621 77.8075V84.5086L52.1549 90.7126L52.08 87.3571C52.082 85.777 53.0624 84.4652 54.5774 84.0154ZM10.9402 75.0103C11.8713 74.3139 12.907 74.1305 14.0176 74.4599L46.4204 84.0154C47.9256 84.4613 48.8863 85.7593 48.9277 87.3986L49.0026 90.7363L9.5436 84.5086V77.8055C9.5436 76.6456 10.0131 75.7047 10.9402 75.0103ZM93.7839 91.0342L50.855 97.8102C50.8471 97.8102 50.8412 97.8122 50.8333 97.8142C50.6222 97.8497 50.421 97.8536 50.2277 97.8221L7.22178 91.0342L7.21586 91.0322C6.22165 90.8803 5.53516 89.9413 5.68705 88.9491C5.82909 88.0456 6.60829 87.4005 7.48809 87.4005C7.5808 87.4005 7.67549 87.4084 7.76821 87.4222L50.2553 94.1273C50.3519 94.1431 50.4486 94.145 50.5453 94.1431C50.5689 94.145 50.5926 94.147 50.6182 94.147H50.6538C50.8076 94.1431 50.9536 94.1174 51.0937 94.074L93.2256 87.4242C93.7089 87.3473 94.1922 87.4656 94.5868 87.7536C94.9793 88.0416 95.2378 88.4638 95.3107 88.9451C95.4646 89.9433 94.7821 90.8803 93.7839 91.0342Z" fill="#3E3E3E"/>
</svg>
