<svg width="101" height="101" viewBox="0 0 101 101" fill="none" xmlns="http://www.w3.org/2000/svg">
<g clip-path="url(#clip0_673_1508)">
<path fill-rule="evenodd" clip-rule="evenodd" d="M41.0049 94.058H50.4999H59.9949L55.2417 66.1376H50.4999H45.758L41.0049 94.058Z" fill="#4B6E7D"/>
<path fill-rule="evenodd" clip-rule="evenodd" d="M99.6191 75.1687C99.616 76.2636 99.1796 77.3128 98.4053 78.0871C97.631 78.8613 96.5818 79.2977 95.4868 79.3008H5.51338C4.41866 79.2968 3.36993 78.8602 2.59581 78.0861C1.82169 77.3121 1.38497 76.2634 1.38086 75.1687V17.4156C1.38491 16.3208 1.82161 15.2721 2.59574 14.498C3.36986 13.7239 4.41863 13.2873 5.51338 13.2833H95.4862C96.5813 13.2862 97.6307 13.7225 98.4052 14.4968C99.1796 15.2711 99.616 16.3205 99.6191 17.4156V75.1687Z" fill="#3D5966"/>
<path fill-rule="evenodd" clip-rule="evenodd" d="M92.7019 71.7911V20.7932C92.7006 20.6366 92.6378 20.4868 92.5271 20.3761C92.4164 20.2654 92.2667 20.2027 92.1101 20.2014H8.89063C8.73391 20.2024 8.58388 20.2651 8.47296 20.3758C8.36204 20.4865 8.29914 20.6365 8.29785 20.7932V71.7911C8.29914 71.9478 8.36204 72.0977 8.47296 72.2085C8.58388 72.3192 8.73391 72.3818 8.89063 72.3829H92.1091C92.2657 72.3816 92.4154 72.3188 92.5261 72.2081C92.6369 72.0974 92.6996 71.9476 92.7009 71.7911H92.7019Z" fill="#EAF6FF"/>
<path fill-rule="evenodd" clip-rule="evenodd" d="M31.8398 97.62H69.1601V94.058C69.1601 91.7764 67.6447 89.9087 65.7938 89.9087H35.2062C33.3552 89.9087 31.8398 91.7764 31.8398 94.058V97.62Z" fill="#3D5966"/>
<path fill-rule="evenodd" clip-rule="evenodd" d="M20.164 3.37994H63.0817C63.7856 3.38177 64.4602 3.66223 64.958 4.16C65.4557 4.65778 65.7361 5.33239 65.7379 6.03632V27.5762C65.736 28.28 65.4555 28.9545 64.9578 29.4522C64.4601 29.9499 63.7856 30.2303 63.0817 30.2321H36.5927L23.9998 37.5018C23.9108 37.5564 23.8084 37.5854 23.7039 37.5854C23.5995 37.5854 23.497 37.5564 23.408 37.5018C23.3165 37.4511 23.2406 37.3764 23.1885 37.2857C23.1363 37.1951 23.1099 37.0919 23.1121 36.9873V30.2321H20.164C19.4603 30.2296 18.7862 29.949 18.2886 29.4515C17.791 28.9539 17.5104 28.2798 17.5078 27.5762V6.03632C17.5103 5.33263 17.791 4.65847 18.2885 4.16088C18.7861 3.66328 19.4603 3.38244 20.164 3.37994Z" fill="#E6404D"/>
<path fill-rule="evenodd" clip-rule="evenodd" d="M35.1112 8.42955L48.7274 16.2916C48.818 16.3435 48.8932 16.4185 48.9455 16.5088C48.9978 16.5991 49.0253 16.7017 49.0253 16.806C49.0253 16.9104 48.9978 17.013 48.9455 17.1033C48.8932 17.1936 48.818 17.2685 48.7274 17.3205L35.1112 25.1772C35.0229 25.2376 34.9194 25.272 34.8126 25.2763C34.7057 25.2806 34.5998 25.2547 34.507 25.2016C34.4142 25.1485 34.3382 25.0702 34.2878 24.9759C34.2374 24.8816 34.2146 24.7749 34.2221 24.6683V8.94382C34.2216 8.83958 34.2487 8.73708 34.3006 8.64667C34.3525 8.55627 34.4273 8.48117 34.5176 8.42898C34.6078 8.37679 34.7102 8.34936 34.8144 8.34946C34.9187 8.34956 35.021 8.37718 35.1112 8.42955Z" fill="#EAF6FF"/>
<path fill-rule="evenodd" clip-rule="evenodd" d="M25.3657 45.2801H75.6118C75.8334 45.2837 76.0446 45.375 76.199 45.534C76.3534 45.693 76.4385 45.9068 76.4356 46.1284V49.8676C76.4373 50.0883 76.3517 50.3007 76.1973 50.4586C76.043 50.6164 75.8325 50.7067 75.6118 50.7099H25.3657C25.145 50.7067 24.9345 50.6164 24.7802 50.4585C24.6259 50.3007 24.5403 50.0883 24.5421 49.8676V46.128C24.5391 45.9064 24.6241 45.6926 24.7785 45.5336C24.9329 45.3746 25.144 45.2833 25.3657 45.2798V45.2801Z" fill="#FFBB33"/>
<path fill-rule="evenodd" clip-rule="evenodd" d="M26.5442 30.2321H23.5974C22.8937 30.2296 22.2196 29.949 21.722 29.4515C21.2244 28.9539 20.9438 28.2798 20.9412 27.5761V6.03631C20.9437 5.33261 21.2244 4.65845 21.722 4.16086C22.2195 3.66327 22.8937 3.38262 23.5974 3.38013H20.165C19.4611 3.38236 18.7867 3.6629 18.2889 4.16051C17.7911 4.65813 17.5103 5.33244 17.5078 6.03631V27.5761C17.5104 28.2798 17.791 28.9539 18.2886 29.4515C18.7862 29.949 19.4603 30.2296 20.164 30.2321H23.1109V36.9873C23.1087 37.0919 23.1351 37.195 23.1873 37.2857C23.2394 37.3764 23.3153 37.4511 23.4068 37.5018C23.4959 37.5564 23.5983 37.5853 23.7027 37.5853C23.8072 37.5853 23.9096 37.5564 23.9986 37.5018L26.5434 36.0309L26.5442 30.2321Z" fill="#CF3A45"/>
<path fill-rule="evenodd" clip-rule="evenodd" d="M11.4413 72.3838V20.2H8.89063C8.73391 20.201 8.58388 20.2637 8.47296 20.3744C8.36204 20.4851 8.29914 20.6351 8.29785 20.7918V71.7911C8.29914 71.9478 8.36204 72.0977 8.47296 72.2084C8.58388 72.3192 8.73391 72.3818 8.89063 72.3829L11.4413 72.3838Z" fill="#D3DDE6"/>
<path fill-rule="evenodd" clip-rule="evenodd" d="M8.29798 71.7911V20.7932C8.29927 20.6364 8.36217 20.4865 8.47309 20.3758C8.58401 20.2651 8.73403 20.2024 8.89076 20.2014H11.4414V13.2833H5.51338C4.41863 13.2873 3.36986 13.7239 2.59574 14.498C1.82161 15.2721 1.38491 16.3208 1.38086 17.4156V75.1687C1.38497 76.2634 1.82169 77.3121 2.59581 78.0861C3.36993 78.8602 4.41866 79.2968 5.51338 79.3008H11.4414V72.3839H8.89076C8.73403 72.3828 8.58401 72.3202 8.47309 72.2094C8.36217 72.0987 8.29927 71.9488 8.29798 71.7921V71.7911Z" fill="#37505C"/>
<path d="M33.2351 26.8873C33.445 27.0085 33.6832 27.0723 33.9255 27.0723C34.1679 27.0723 34.4061 27.0085 34.616 26.8873L50.01 18.0019C50.22 17.8807 50.3945 17.7064 50.5157 17.4964C50.637 17.2864 50.7009 17.0482 50.7009 16.8057C50.7009 16.5633 50.637 16.3251 50.5157 16.1151C50.3945 15.9051 50.22 15.7308 50.01 15.6096L42.3156 11.1652L34.6156 6.72458C34.4056 6.60336 34.1674 6.53956 33.925 6.53958C33.6826 6.53961 33.4444 6.60346 33.2345 6.72472C33.0245 6.84598 32.8502 7.02038 32.7291 7.23037C32.6079 7.44037 32.5442 7.67856 32.5443 7.921V25.6919C32.5444 25.9342 32.6083 26.1723 32.7296 26.3821C32.8508 26.592 33.0252 26.7662 33.2351 26.8873ZM35.3064 10.3109L46.5573 16.8049L35.3064 23.2988V10.3109ZM24.4029 52.1693H76.5971C76.9633 52.1693 77.3145 52.0238 77.5735 51.7648C77.8324 51.5058 77.9779 51.1546 77.9779 50.7884V45.2016C77.9779 44.8354 77.8324 44.4842 77.5735 44.2252C77.3145 43.9663 76.9633 43.8208 76.5971 43.8208H24.4029C24.0367 43.8208 23.6855 43.9663 23.4265 44.2252C23.1676 44.4842 23.0221 44.8354 23.0221 45.2016V50.788C23.022 50.9694 23.0577 51.149 23.1271 51.3166C23.1965 51.4841 23.2982 51.6364 23.4264 51.7647C23.5546 51.8929 23.7069 51.9947 23.8744 52.0641C24.042 52.1335 24.2216 52.1693 24.4029 52.1693ZM25.7838 46.5829H75.2158V49.4067H25.7842L25.7838 46.5829ZM23.0221 59.6287C23.0221 59.2624 23.1676 58.9112 23.4265 58.6522C23.6855 58.3933 24.0367 58.2478 24.4029 58.2478H76.5971C76.9633 58.2478 77.3145 58.3933 77.5735 58.6522C77.8324 58.9112 77.9779 59.2624 77.9779 59.6287C77.9779 59.9949 77.8324 60.3461 77.5735 60.6051C77.3145 60.864 76.9633 61.0095 76.5971 61.0095H24.4029C24.2215 61.0097 24.0418 60.9741 23.8741 60.9047C23.7065 60.8354 23.5541 60.7337 23.4258 60.6055C23.2974 60.4773 23.1956 60.325 23.1261 60.1574C23.0567 59.9898 23.0209 59.8101 23.0209 59.6287H23.0221ZM95.4864 11.9022H67.1196V6.03632C67.1184 4.96581 66.6926 3.9395 65.9355 3.18261C65.1785 2.42572 64.1521 2.00008 63.0816 1.99908H20.1643C19.0939 2.00029 18.0677 2.42602 17.3109 3.18289C16.554 3.93976 16.1283 4.96595 16.1271 6.03632V11.9022H5.51357C4.05181 11.9039 2.65041 12.4854 1.61679 13.519C0.583169 14.5526 0.00172282 15.954 0 17.4158L0 75.1685C0.00177512 76.6302 0.58325 78.0315 1.61687 79.065C2.6505 80.0986 4.05186 80.68 5.51357 80.6816H41.8805L40.5428 88.5269H35.2062C32.5885 88.5269 30.4588 91.0081 30.4588 94.0574V97.6195C30.4588 97.9857 30.6043 98.3369 30.8632 98.5959C31.1222 98.8548 31.4734 99.0003 31.8397 99.0003H69.1599C69.5262 99.0003 69.8774 98.8548 70.1364 98.5959C70.3953 98.3369 70.5408 97.9857 70.5408 97.6195V94.0576C70.5408 91.0083 68.4103 88.5271 65.7934 88.5271H60.4556L59.1231 80.6816H95.4864C96.9481 80.68 98.3495 80.0986 99.3831 79.065C100.417 78.0315 100.998 76.6302 101 75.1685V17.4158C100.998 15.954 100.417 14.5526 99.3832 13.519C98.3496 12.4854 96.9482 11.9039 95.4864 11.9022ZM20.1643 31.6136H21.7298V38.0162C21.7297 38.2587 21.7935 38.4968 21.9147 38.7068C22.0358 38.9168 22.2101 39.0911 22.4201 39.2124C22.63 39.3336 22.8681 39.3974 23.1106 39.3975C23.353 39.3975 23.5911 39.3337 23.8011 39.2125L36.9626 31.6136H63.0806C64.151 31.6124 65.1772 31.1866 65.9341 30.4298C66.6909 29.6729 67.1167 28.6467 67.1179 27.5763V21.5874H91.3204V71.0024H9.67963V21.5874H16.1271V27.5763C16.1283 28.6467 16.554 29.6729 17.3109 30.4298C18.0677 31.1866 19.0939 31.6124 20.1643 31.6136ZM18.8896 6.03632C18.8939 5.69957 19.0296 5.37784 19.2677 5.13968C19.5058 4.90153 19.8275 4.76579 20.1643 4.76139H63.0816C63.4183 4.76579 63.7401 4.90153 63.9782 5.13968C64.2163 5.37784 64.352 5.69957 64.3563 6.03632V27.5763C64.3519 27.9131 64.2162 28.2347 63.9781 28.4729C63.74 28.711 63.4183 28.8467 63.0816 28.8511H36.5928C36.3504 28.8511 36.1123 28.9149 35.9023 29.0361L24.4921 35.6248V30.2323C24.4921 29.8661 24.3466 29.5149 24.0877 29.2559C23.8287 28.997 23.4775 28.8515 23.1112 28.8515H20.1643C19.8276 28.8471 19.5059 28.7114 19.2678 28.4733C19.0297 28.2351 18.894 27.9135 18.8896 27.5767V6.03632ZM67.7787 94.0576V96.2384H33.2213V94.0576C33.2213 92.5572 34.1301 91.2896 35.2062 91.2896H65.7938C66.8699 91.2896 67.7787 92.557 67.7787 94.0576ZM57.6538 88.5271H43.3452L44.6828 80.6816H56.3215L57.6538 88.5271ZM98.2383 75.1685C98.2376 75.898 97.9474 76.5976 97.4315 77.1134C96.9156 77.6293 96.216 77.9193 95.4864 77.9199H5.51357C4.78398 77.9193 4.08443 77.6293 3.56849 77.1134C3.05256 76.5976 2.7624 75.898 2.76172 75.1685V17.4158C2.76255 16.6863 3.05277 15.9869 3.56869 15.4711C4.0846 14.9554 4.78407 14.6653 5.51357 14.6647H16.1265V18.8249H8.29837C7.93215 18.8249 7.58092 18.9703 7.32196 19.2293C7.063 19.4883 6.91751 19.8395 6.91751 20.2057V72.3825C6.91751 72.7487 7.063 73.0999 7.32196 73.3589C7.58092 73.6179 7.93215 73.7633 8.29837 73.7633H92.7016C93.0679 73.7633 93.4191 73.6179 93.678 73.3589C93.937 73.0999 94.0825 72.7487 94.0825 72.3825V20.2057C94.0825 19.8395 93.937 19.4883 93.678 19.2293C93.4191 18.9703 93.0679 18.8249 92.7016 18.8249H67.1188V14.6647H95.4856C96.2153 14.6651 96.9149 14.9551 97.431 15.4709C97.9471 15.9866 98.2374 16.6861 98.2383 17.4158V75.1685Z" fill="#3E3E3E"/>
</g>
<defs>
<clipPath id="clip0_673_1508">
<rect width="101" height="101" fill="white"/>
</clipPath>
</defs>
</svg>
