<svg width="152" height="152" viewBox="0 0 152 152" fill="none" xmlns="http://www.w3.org/2000/svg">
<g clip-path="url(#clip0_467_839)">
<path d="M141.645 15.5156H85.7911C81.1455 15.5156 77.3789 19.2811 77.3789 23.9279V55.5219C77.3789 60.1675 81.1455 63.9341 85.7911 63.9341H105.659L102.449 76.8945C102.03 78.5842 103.974 79.8552 105.354 78.7952L124.7 63.9341H141.647C146.292 63.9341 150.059 60.1675 150.059 55.5219V23.9279C150.058 19.2811 146.291 15.5156 141.645 15.5156Z" fill="#88DBFD"/>
<path d="M104.931 66.8726L102.448 76.8979C102.03 78.5876 103.973 79.8586 105.353 78.7986L124.7 63.9375H108.752L104.931 66.8726Z" fill="#5ABFE9"/>
<path d="M141.646 15.5156H125.699C130.345 15.5156 134.111 19.2811 134.111 23.9279V55.5219C134.111 60.1675 130.345 63.9341 125.699 63.9341H141.646C146.291 63.9341 150.058 60.1675 150.058 55.5219V23.9279C150.058 19.2811 146.291 15.5156 141.646 15.5156Z" fill="#5ABFE9"/>
<path d="M95.5241 58.1179L93.5666 31.049C93.2767 16.8685 81.6985 2.22656 67.5158 2.22656H51.7919C37.6091 2.22656 26.031 16.8685 25.7411 31.049L23.7836 58.1179C22.7909 71.8438 33.6581 83.5262 47.4199 83.5262H71.8878C85.6495 83.5262 96.5168 71.8438 95.5241 58.1179Z" fill="#FED066"/>
<path d="M95.5242 58.1179L93.5667 31.049C93.2768 16.8685 81.6987 2.22656 67.5159 2.22656H51.792C51.7549 2.22656 51.7178 2.22772 51.6807 2.22888C65.8124 2.30542 77.3314 16.9056 77.6201 31.049L79.5776 58.1179C80.5703 71.8438 69.7031 83.5262 55.9413 83.5262H71.8879C85.6497 83.5262 96.5169 71.8438 95.5242 58.1179Z" fill="#F5B556"/>
<path d="M36.534 54.5988H29.162C26.86 54.5988 24.9941 52.7329 24.9941 50.4309V42.4686C24.9941 40.1667 26.86 38.3008 29.162 38.3008H36.534V54.5988Z" fill="#E5483C"/>
<path d="M82.7734 54.5988H90.1454C92.4474 54.5988 94.3133 52.7329 94.3133 50.4309V42.4686C94.3133 40.1667 92.4474 38.3008 90.1454 38.3008H82.7734V54.5988Z" fill="#E5483C"/>
<path d="M116.277 112.942C115.858 105.803 111.326 99.9865 104.582 96.8275C96.3259 92.9623 75.6236 87.1141 75.6236 87.1141C73.4515 86.7106 71.8755 84.8145 71.8755 82.6053V69.7539H47.4332V82.6053C47.4332 84.8145 45.8572 86.7106 43.684 87.1141C43.684 87.1141 22.9827 92.9623 14.7271 96.8275C7.98244 99.9865 3.45046 105.803 3.03182 112.942L2.52388 143.582C2.48329 146.988 5.23402 149.772 8.64113 149.772H110.668C114.076 149.772 116.825 146.988 116.785 143.582L116.277 112.942Z" fill="#FFE8C2"/>
<path d="M116.277 112.942C115.858 105.803 111.326 99.9865 104.581 96.8275C96.3257 92.9623 75.6234 87.1141 75.6234 87.1141C73.4513 86.7106 71.8753 84.8145 71.8753 82.6053V69.7539H55.9287V90.9144C55.9287 93.1247 57.5047 95.0196 59.6768 95.4232C59.6768 95.4232 80.3792 101.273 88.6348 105.138C95.3795 108.295 99.9114 114.114 100.33 121.251L100.802 149.772H110.667C114.074 149.772 116.825 146.988 116.785 143.582L116.277 112.942Z" fill="#EFD5AF"/>
<path d="M39.0055 30.3471C36.5853 29.4438 34.0062 31.2262 34.005 33.8099C34.0004 39.505 33.998 50.3027 33.998 50.3027C34.143 57.5413 38.2505 65.8805 42.5923 70.184C46.5862 74.1443 52.0042 78.9987 59.6534 79.0903C67.3037 78.9987 72.7217 74.1443 76.7156 70.184C81.0562 65.8805 85.1649 57.5413 85.3099 50.3027L85.2994 38.9751C85.2983 37.3272 83.6539 36.2127 82.1092 36.7856C70.5102 41.081 48.7838 34.0012 39.0055 30.3471Z" fill="#FFE8C2"/>
<path d="M85.3002 38.9738C85.2979 37.3271 83.6535 36.2127 82.1088 36.7844C78.5962 38.0855 74.1547 38.3418 69.3977 37.9672L69.4058 50.3015C69.2609 57.5401 65.1533 65.8793 60.8115 70.184C58.3693 72.6054 55.3936 75.3596 51.7012 77.1559C54.0472 78.297 56.6819 79.0531 59.653 79.0891C67.3033 78.9974 72.7213 74.1442 76.7152 70.184C81.0559 65.8793 85.1646 57.5401 85.3095 50.3015L85.3002 38.9738Z" fill="#EFD5AF"/>
<path d="M104.582 96.8283C99.7771 94.5797 90.7595 91.6585 84.0578 89.6094C68.5971 95.7197 51.405 95.8055 35.8829 89.8529L35.2497 89.6094C28.5492 91.6585 19.5316 94.5797 14.7271 96.8283C7.98244 99.9872 3.45046 105.804 3.03182 112.943L2.52388 143.583C2.48329 146.989 5.23402 149.773 8.64113 149.773H110.668C114.076 149.773 116.825 146.989 116.785 143.583L116.277 112.943C115.858 105.804 111.326 99.9872 104.582 96.8283Z" fill="#E5483C"/>
<path d="M97.1404 142.095H21.0499C18.7364 142.095 16.8148 140.307 16.6501 137.998L13.5387 94.335C13.3567 91.7814 15.3791 89.6094 17.9385 89.6094H100.253C102.812 89.6094 104.835 91.7814 104.653 94.335L101.54 137.998C101.375 140.307 99.4551 142.095 97.1404 142.095Z" fill="#F2F2F2"/>
<path d="M100.254 89.6094H84.3223C86.8828 89.6094 88.9053 91.7814 88.7232 94.335L85.3184 142.095H97.1412C99.4559 142.095 101.376 140.307 101.541 137.998L104.654 94.335C104.836 91.7814 102.813 89.6094 100.254 89.6094Z" fill="#CDD6DF"/>
<path d="M102.598 149.772H16.7108C14.5897 149.772 12.8711 148.053 12.8711 145.933C12.8711 143.812 14.5897 142.094 16.7108 142.094H102.598C104.718 142.094 106.437 143.812 106.437 145.933C106.437 148.053 104.718 149.772 102.598 149.772Z" fill="#CDD6DF"/>
<path d="M65.7976 119.835C65.7976 123.229 63.0469 125.979 59.6537 125.979C56.2605 125.979 53.5098 123.229 53.5098 119.835C53.5098 116.442 56.2605 113.691 59.6537 113.691C63.0469 113.691 65.7976 116.442 65.7976 119.835Z" fill="white"/>
<path d="M64.6102 70.9548C62.8266 70.9548 61.2866 69.6166 61.0767 67.8017C60.8505 65.8476 62.2514 64.0803 64.2055 63.853L72.1411 62.9345C74.094 62.7061 75.8624 64.1081 76.0886 66.0622C76.3159 68.0162 74.915 69.7847 72.961 70.0108L65.0253 70.9305C64.8862 70.9467 64.747 70.9548 64.6102 70.9548Z" fill="#E5483C"/>
<path d="M137.879 27.8828H104.047C102.816 27.8828 101.82 28.879 101.82 30.1094C101.82 31.3398 102.816 32.3359 104.047 32.3359H137.879C139.108 32.3359 140.106 31.3398 140.106 30.1094C140.106 28.879 139.108 27.8828 137.879 27.8828Z" fill="#3E3E3E"/>
<path d="M137.879 40.9336H104.047C102.816 40.9336 101.82 41.9309 101.82 43.1602C101.82 44.3906 102.816 45.3867 104.047 45.3867H137.879C139.108 45.3867 140.106 44.3906 140.106 43.1602C140.106 41.9309 139.108 40.9336 137.879 40.9336Z" fill="#3E3E3E"/>
<path d="M59.6547 111.465C55.0392 111.465 51.2842 115.22 51.2842 119.835C51.2842 124.451 55.0392 128.206 59.6547 128.206C64.2701 128.206 68.0251 124.451 68.0251 119.835C68.0251 115.22 64.269 111.465 59.6547 111.465ZM59.6547 123.753C57.4942 123.753 55.7373 121.996 55.7373 119.835C55.7373 117.675 57.4942 115.918 59.6547 115.918C61.814 115.918 63.572 117.675 63.572 119.835C63.572 121.996 61.814 123.753 59.6547 123.753Z" fill="#3E3E3E"/>
<path d="M141.646 13.291H90.0452C89.2485 12.0977 88.3776 10.9507 87.4348 9.86298C81.9287 3.50336 74.8547 0 67.5163 0H51.7924C44.454 0 37.3801 3.50336 31.874 9.86298C26.7285 15.8063 23.6844 23.4868 23.5174 30.9446L21.5633 57.9579C21.0392 65.2023 23.4698 72.1255 28.4077 77.4519C32.1546 81.4922 36.9243 84.1641 42.1788 85.2298C40.8486 85.6125 38.1594 86.3953 34.9181 87.3833H17.9394C16.1036 87.3833 14.3328 88.1545 13.0815 89.4974C11.8302 90.8403 11.1878 92.6621 11.3188 94.4932L11.4302 96.0646C5.06127 99.8694 1.21465 105.902 0.808764 112.812C0.807605 112.844 0.806445 112.875 0.805286 112.906L0.29851 143.555C0.270678 145.803 1.12535 147.921 2.70482 149.521C4.28545 151.12 6.39257 152 8.64116 152H110.668C112.916 152 115.023 151.12 116.603 149.521C118.183 147.921 119.038 145.804 119.01 143.546L118.503 112.906C118.502 112.875 118.501 112.844 118.5 112.812C118.074 105.57 113.735 99.1725 106.806 95.4546L106.874 94.4932C107.004 92.6621 106.362 90.8414 105.112 89.4974C103.86 88.1545 102.09 87.3833 100.254 87.3833H84.3907C81.1494 86.3953 78.4613 85.6136 77.13 85.2298C82.3845 84.1641 87.1542 81.4922 90.8999 77.4519C93.9243 74.1898 96.0082 70.3292 97.0485 66.1625H102.813L100.287 76.3618C99.8653 78.0619 100.541 79.7817 102.007 80.7407C102.696 81.1918 103.468 81.4145 104.237 81.4145C105.107 81.4145 105.972 81.1292 106.71 80.5633L125.457 66.1625H141.646C147.513 66.1625 152.285 61.3893 152.285 55.5237V23.9297C152.285 18.063 147.513 13.291 141.646 13.291ZM27.9682 31.0942C28.0992 24.6395 30.7502 17.9633 35.2405 12.7772C39.8873 7.40912 45.7656 4.45312 51.7924 4.45312H67.5163C73.5431 4.45312 79.4215 7.40912 84.0683 12.7772C85.0923 13.9601 86.0212 15.2206 86.8457 16.538C86.8979 16.6389 86.957 16.7352 87.0231 16.8268C89.7043 21.2173 91.2408 26.2189 91.3406 31.0942C91.3417 31.1324 91.3429 31.1707 91.3464 31.209L91.7117 36.2675C91.2107 36.1411 90.6865 36.0738 90.1461 36.0738H86.4862C86.2241 35.7549 85.9168 35.4708 85.5712 35.2296C84.3362 34.3714 82.7544 34.1719 81.3361 34.6961C77.6635 36.0564 66.2616 38.1531 39.7852 28.2611C37.9634 27.5792 35.9235 27.8344 34.3267 28.9418C32.7321 30.047 31.78 31.8665 31.7789 33.8078C31.7777 34.4978 31.7777 35.262 31.7765 36.0738H29.1626C28.6222 36.0738 28.0981 36.1411 27.5971 36.2675L27.9624 31.209C27.9647 31.1707 27.967 31.1324 27.9682 31.0942ZM72.7047 67.7988L64.7668 68.7184C64.7158 68.7242 64.6624 68.7277 64.6114 68.7277C63.9353 68.7277 63.3671 68.2186 63.2882 67.5449C63.2476 67.1912 63.3473 66.8421 63.5688 66.5626C63.7903 66.282 64.1069 66.1057 64.4618 66.0651L72.3986 65.1455C72.4519 65.1385 72.5041 65.1362 72.5551 65.1362C72.8543 65.1362 73.1419 65.236 73.3796 65.425C73.6591 65.6465 73.8365 65.9631 73.8771 66.3191C73.9189 66.6728 73.8191 67.0219 73.5976 67.3013C73.375 67.5808 73.0584 67.7571 72.7047 67.7988ZM77.6066 63.6461C77.2413 62.9932 76.7485 62.4122 76.1454 61.9344C74.9324 60.9742 73.4202 60.5428 71.8848 60.7214L63.9492 61.641C62.4127 61.8196 61.0384 62.585 60.0782 63.7968C59.118 65.0087 58.6866 66.5209 58.8641 68.0574C59.2027 70.9786 61.6728 73.1808 64.6102 73.1808C64.834 73.1808 65.0602 73.1681 65.2805 73.1414L70.8237 72.5001C70.7646 72.5453 70.7054 72.5917 70.6463 72.6381C70.5651 72.6915 70.4874 72.7506 70.4144 72.8144C67.4097 75.0792 63.9144 76.8048 59.6538 76.8628C55.3943 76.8048 51.8991 75.0792 48.8944 72.8156C48.8213 72.7506 48.7425 72.6915 48.6613 72.637C47.0308 71.3834 45.5453 69.9767 44.1595 68.6036C41.142 65.6117 37.9239 60.0337 36.7167 54.3455C36.7017 54.2145 36.675 54.0858 36.6379 53.9617C36.3967 52.7289 36.2505 51.4927 36.225 50.2797C36.225 49.7266 36.2273 39.3533 36.232 33.8113C36.232 33.1155 36.6738 32.7339 36.8652 32.6017C37.0554 32.4695 37.5702 32.1877 38.2266 32.4336C43.4057 34.3691 51.2868 37.0305 59.4207 38.7271C69.5492 40.8377 77.442 40.8876 82.8831 38.8732C82.9075 38.864 82.9643 38.8419 83.0292 38.8871C83.042 38.8964 83.0524 38.9057 83.0582 38.915C83.064 38.9324 83.0687 38.9498 83.0745 38.9672V38.9776L83.0837 50.2809C83.0582 51.4927 82.9133 52.7278 82.6709 53.9605C82.6338 54.0846 82.6071 54.2145 82.592 54.3478C81.9055 57.581 80.5696 60.7782 78.989 63.4849L77.6055 63.6461C77.6055 63.6449 77.6055 63.6461 77.6066 63.6461ZM78.0577 64.6828C78.0577 64.6828 78.0577 64.6816 78.0577 64.6805V64.6828ZM27.2214 42.4682C27.2214 41.3978 28.0923 40.5269 29.1626 40.5269H31.7754C31.7731 45.4439 31.7719 50.3018 31.7719 50.3018C31.7719 50.3168 31.7719 50.3319 31.7731 50.3458C31.7858 51.0184 31.8299 51.6945 31.9006 52.3718H29.1626C28.0923 52.3718 27.2214 51.5009 27.2214 50.4305V42.4682ZM86.572 56.8249H86.7297V62.5873L84.3408 62.8644C85.2465 60.9521 86.0154 58.9123 86.572 56.8249ZM90.1461 52.3718H87.4081C87.4789 51.6945 87.5229 51.0184 87.5357 50.3458C87.5369 50.3307 87.5369 50.3157 87.5369 50.3006L87.5287 40.5269H90.1461C91.2177 40.5269 92.0886 41.3978 92.0886 42.4682V50.4305C92.0886 51.502 91.2177 52.3718 90.1461 52.3718ZM31.6745 74.424C27.5843 70.0126 25.5712 64.2792 26.0049 58.278L26.1637 56.0781C27.059 56.5547 28.0795 56.8249 29.1626 56.8249H32.7367C34.3464 62.8517 37.7233 68.4911 41.0249 71.7649C42.3562 73.0834 43.7397 74.3776 45.2067 75.5663V81.1872C40.0183 80.6653 35.2741 78.3089 31.6745 74.424ZM102.599 144.322C103.487 144.322 104.211 145.045 104.211 145.935C104.211 146.823 103.487 147.547 102.599 147.547H16.7101C15.8218 147.547 15.0982 146.823 15.0982 145.935C15.0982 145.045 15.8218 144.322 16.7101 144.322H102.599ZM5.87303 146.391C5.13665 145.645 4.73772 144.657 4.75048 143.619L5.25725 113.028C5.54369 108.367 7.88042 104.194 11.7955 101.189L14.4302 138.156C14.4801 138.856 14.639 139.525 14.8895 140.148C12.4321 140.923 10.6451 143.224 10.6451 145.934C10.6451 146.492 10.7204 147.033 10.8631 147.547H8.64C7.59282 147.547 6.60942 147.136 5.87303 146.391ZM114.052 113.028L114.558 143.61C114.571 144.658 114.172 145.645 113.436 146.391C112.699 147.136 111.716 147.547 110.668 147.547H108.447C108.588 147.033 108.664 146.493 108.664 145.935C108.664 142.858 106.362 140.309 103.39 139.921C103.59 139.364 103.719 138.772 103.763 138.157L106.452 100.423C111.013 103.453 113.737 107.915 114.052 113.028ZM101.852 92.5322C102.269 92.981 102.476 93.5643 102.432 94.1766L102.261 96.5853C102.258 96.6096 102.257 96.6351 102.255 96.6595L99.3203 137.839C99.2391 138.978 98.2823 139.869 97.1412 139.869H21.0508C19.9108 139.869 18.9529 138.978 18.8718 137.839L15.9749 97.1987C15.9737 97.1697 15.9714 97.1419 15.9691 97.1129L15.7604 94.1766C15.7163 93.5643 15.9227 92.981 16.3402 92.5322C16.7577 92.0834 17.3259 91.8364 17.9394 91.8364H35.1999C35.2173 91.8364 35.2335 91.8376 35.2497 91.8376C35.266 91.8376 35.2811 91.8364 35.2973 91.8364H84.0103C84.0266 91.8364 84.0428 91.8376 84.059 91.8376C84.0753 91.8376 84.0915 91.8364 84.1077 91.8364H100.254C100.867 91.8364 101.434 92.0834 101.852 92.5322ZM47.7034 87.3833C48.9222 86.1448 49.6598 84.4493 49.6598 82.6066V78.6104C52.5763 80.2224 55.8431 81.2707 59.6283 81.3159H59.655H59.6816C63.4668 81.2707 66.7336 80.2224 69.649 78.6104V82.6066C69.649 84.4493 70.3877 86.1448 71.6053 87.3833H47.7034ZM87.6354 74.424C84.0347 78.3089 79.2905 80.6653 74.1021 81.1884V75.5663C75.5702 74.3776 76.9537 73.0846 78.2839 71.7649C79.4111 70.647 80.5475 69.2531 81.6191 67.662L89.2126 66.783C90.3363 66.6531 91.1829 65.701 91.1829 64.5715V56.7414C91.881 56.6266 92.542 56.3993 93.145 56.0781L93.3039 58.278C93.4291 60.007 93.3514 61.7117 93.0789 63.3712C93.0476 63.4895 93.0267 63.6113 93.0151 63.7365C92.295 67.6979 90.4604 71.3764 87.6354 74.424ZM147.831 55.5237C147.831 58.9343 145.056 61.7094 141.646 61.7094H124.701C124.21 61.7094 123.732 61.8706 123.344 62.1698L104.876 76.356L107.821 64.4706C107.985 63.8061 107.835 63.1033 107.412 62.5629C106.991 62.0248 106.344 61.7094 105.659 61.7094H97.7524C97.8382 60.472 97.837 59.2196 97.7466 57.9567L95.7925 30.9446C95.6917 26.4845 94.5633 21.9444 92.571 17.7441H141.647C145.058 17.7441 147.833 20.518 147.833 23.9297V55.5237H147.831Z" fill="#3E3E3E"/>
</g>
<defs>
<clipPath id="clip0_467_839">
<rect width="152" height="152" fill="white"/>
</clipPath>
</defs>
</svg>
