<svg width="58" height="58" viewBox="0 0 58 58" fill="none" xmlns="http://www.w3.org/2000/svg">
<circle cx="29.4449" cy="28.5621" r="28.5621" fill="#63ADF4" fill-opacity="0.35"/>
<path d="M42.9628 32.8789C42.5518 32.4009 41.9983 32.0672 41.3836 31.9269C40.769 31.7866 40.1255 31.8471 39.5478 32.0995L36.1447 33.5571C36.3708 33.9746 36.4843 34.4438 36.4739 34.9185C36.4635 35.3932 36.3295 35.857 36.0852 36.2642L42.9628 32.8789Z" fill="white"/>
<path d="M30.4332 39.0369L33.4258 37.5674H28.0415L29.3326 38.8585C29.4744 38.9994 29.6569 39.0924 29.8542 39.1244C30.0516 39.1564 30.2541 39.1258 30.4332 39.0369Z" fill="white"/>
<path d="M44.7238 33.3373L30.9567 40.1078C30.5538 40.3058 30.099 40.3727 29.6562 40.2991C29.2134 40.2255 28.8047 40.015 28.4876 39.6973L26.3577 37.5674H22.3477C22.1918 37.5646 22.0431 37.5007 21.9338 37.3894C21.8244 37.2782 21.7632 37.1284 21.7632 36.9724C21.7632 36.8164 21.8244 36.6666 21.9338 36.5554C22.0431 36.4441 22.1918 36.3802 22.3477 36.3775H33.7588C34.133 36.3728 34.4926 36.2313 34.7696 35.9796C35.0466 35.7279 35.2218 35.3834 35.2621 35.0113C35.3024 34.6392 35.205 34.2653 34.9883 33.9601C34.7717 33.6549 34.4507 33.4397 34.0862 33.355C31.7209 33.2646 21.6349 31.8355 19.4563 32.4568L13.2866 33.5098V41.5059C15.0279 41.2013 16.8202 41.4101 18.4449 42.1068L24.4657 44.6889C25.1255 44.9727 25.8405 45.1051 26.5581 45.0763C27.2757 45.0474 27.9778 44.8582 28.6126 44.5224L45.9494 35.485C46.0943 35.4066 46.2221 35.3001 46.3252 35.1716C46.4283 35.0431 46.5047 34.8953 46.55 34.7369C46.5952 34.5785 46.6083 34.4126 46.5886 34.2491C46.5688 34.0855 46.5166 33.9275 46.4349 33.7845C46.3533 33.6414 46.2438 33.516 46.1131 33.4158C45.9823 33.3156 45.8329 33.2425 45.6735 33.2008C45.5141 33.1592 45.348 33.1498 45.1849 33.1732C45.0218 33.1966 44.8651 33.2524 44.7238 33.3373Z" fill="white"/>
<path d="M15.6117 26.9761L15.0167 29.5941C14.9767 29.7633 14.9875 29.9404 15.0478 30.1034C15.1081 30.2664 15.2152 30.408 15.3557 30.5103C15.4961 30.6127 15.6637 30.6712 15.8374 30.6787C16.011 30.6861 16.183 30.6421 16.3317 30.5521L18.6403 29.1776L20.9489 30.5521C21.098 30.6407 21.2697 30.684 21.443 30.6766C21.6163 30.6692 21.7837 30.6114 21.9248 30.5104C22.0656 30.4084 22.1731 30.2669 22.2334 30.1038C22.2938 29.9406 22.3044 29.7633 22.2639 29.5941L21.6689 26.9761L23.6919 25.203C23.8227 25.089 23.9171 24.9392 23.9637 24.7721C24.0102 24.605 24.0068 24.428 23.9537 24.2628C23.8983 24.0994 23.797 23.9552 23.662 23.8477C23.527 23.7401 23.3639 23.6735 23.1922 23.6559L20.5146 23.412L19.4554 20.9427C19.3866 20.7837 19.2728 20.6482 19.1279 20.5531C18.9831 20.4579 18.8136 20.4072 18.6403 20.4072C18.467 20.4072 18.2975 20.4579 18.1526 20.5531C18.0078 20.6482 17.8939 20.7837 17.8251 20.9427L16.766 23.412L14.0885 23.6559C13.9167 23.6735 13.7537 23.7401 13.6186 23.8477C13.4836 23.9553 13.3824 24.0994 13.3269 24.2629C13.2739 24.428 13.2704 24.6051 13.317 24.7722C13.3635 24.9393 13.458 25.089 13.5887 25.203L15.6117 26.9761Z" fill="white"/>
<path d="M36.1988 25.2032L38.2218 26.9763L37.6268 29.5944C37.5867 29.7635 37.5976 29.9407 37.6579 30.1037C37.7182 30.2667 37.8253 30.4082 37.9658 30.5105C38.1062 30.6129 38.2738 30.6714 38.4475 30.6789C38.6211 30.6863 38.7931 30.6423 38.9418 30.5523L41.2504 29.1778L43.559 30.5523C43.7081 30.6409 43.8798 30.6842 44.0531 30.6768C44.2264 30.6694 44.3938 30.6117 44.5349 30.5106C44.6757 30.4086 44.7832 30.2671 44.8435 30.104C44.9039 29.9409 44.9145 29.7635 44.874 29.5943L44.279 26.9763L46.302 25.2032C46.4299 25.0882 46.5217 24.9387 46.5664 24.7726C46.6111 24.6066 46.6068 24.4312 46.5539 24.2675C46.5011 24.1039 46.402 23.9591 46.2686 23.8506C46.1352 23.7421 45.9732 23.6746 45.8022 23.6561L43.1247 23.4122L42.0656 20.9429C41.995 20.7858 41.8805 20.6525 41.7359 20.5589C41.5912 20.4653 41.4227 20.4155 41.2504 20.4155C41.0782 20.4155 40.9096 20.4653 40.765 20.5589C40.6204 20.6524 40.5059 20.7858 40.4353 20.9429L39.3761 23.4122L36.6986 23.6562C36.5276 23.6746 36.3657 23.7421 36.2323 23.8506C36.0989 23.9591 35.9998 24.104 35.9469 24.2676C35.8941 24.4312 35.8897 24.6066 35.9344 24.7727C35.9791 24.9387 36.0709 25.0882 36.1988 25.2032Z" fill="white"/>
<path d="M23.7275 21.4366L26.3217 23.7095L25.5601 27.0713C25.518 27.254 25.5305 27.445 25.5961 27.6206C25.6617 27.7962 25.7774 27.9486 25.929 28.059C26.0805 28.1693 26.2611 28.2326 26.4484 28.2411C26.6357 28.2496 26.8213 28.2028 26.9822 28.1066L29.9453 26.3394L32.9084 28.1066C33.0696 28.1997 33.2545 28.2441 33.4404 28.2343C33.6264 28.2245 33.8055 28.161 33.9561 28.0514C34.1067 27.9418 34.2222 27.7908 34.2886 27.6169C34.3551 27.4429 34.3696 27.2534 34.3305 27.0713L33.5689 23.7095L36.1631 21.4366C36.3048 21.3147 36.4071 21.1535 36.4569 20.9733C36.5067 20.7932 36.5018 20.6024 36.4428 20.425C36.386 20.2464 36.2779 20.0885 36.1318 19.971C35.9858 19.8535 35.8083 19.7817 35.6217 19.7646L32.1825 19.4493L30.8259 16.2838C30.7526 16.1109 30.63 15.9634 30.4734 15.8597C30.3168 15.756 30.1331 15.7007 29.9453 15.7007C29.7575 15.7007 29.5738 15.756 29.4172 15.8597C29.2606 15.9634 29.138 16.1109 29.0647 16.2838L27.7081 19.4493L24.269 19.7646C24.0843 19.7846 23.9094 19.8577 23.7652 19.9749C23.6211 20.0921 23.514 20.2485 23.4568 20.4252C23.3995 20.6019 23.3946 20.7914 23.4427 20.9709C23.4907 21.1503 23.5896 21.312 23.7275 21.4366Z" fill="white"/>
<path d="M23.1366 15.412C23.1974 15.5576 23.3134 15.6731 23.4594 15.7332C23.6053 15.7932 23.769 15.7928 23.9147 15.7321C24.0603 15.6714 24.1759 15.5553 24.2359 15.4094C24.2959 15.2635 24.2956 15.0997 24.2349 14.9541L23.5922 13.4131C23.5293 13.2708 23.4131 13.1587 23.2686 13.101C23.124 13.0433 22.9626 13.0445 22.819 13.1044C22.6753 13.1643 22.5608 13.2781 22.5001 13.4214C22.4393 13.5647 22.4371 13.7261 22.494 13.871L23.1366 15.412Z" fill="white"/>
<path d="M17.9578 19.1559C18.013 19.2111 18.0786 19.2549 18.1508 19.2848C18.223 19.3147 18.3004 19.3301 18.3785 19.3301C18.4566 19.3301 18.534 19.3147 18.6062 19.2848C18.6784 19.2549 18.7439 19.2111 18.7992 19.1559C18.8544 19.1006 18.8983 19.035 18.9282 18.9629C18.9581 18.8907 18.9734 18.8133 18.9734 18.7352C18.9734 18.6571 18.9581 18.5797 18.9282 18.5075C18.8983 18.4353 18.8544 18.3697 18.7992 18.3145L16.9011 16.4164C16.7896 16.3049 16.6382 16.2422 16.4805 16.2422C16.3227 16.2422 16.1713 16.3049 16.0598 16.4164C15.9482 16.528 15.8855 16.6793 15.8855 16.8371C15.8855 16.9949 15.9482 17.1463 16.0598 17.2578L17.9578 19.1559Z" fill="white"/>
<path d="M41.5123 19.3302C41.5905 19.3303 41.6679 19.3149 41.7401 19.285C41.8123 19.2551 41.8779 19.2112 41.933 19.1559L43.8311 17.2578C43.9427 17.1463 44.0053 16.9949 44.0053 16.8371C44.0053 16.6793 43.9427 16.528 43.8311 16.4164C43.7195 16.3049 43.5682 16.2422 43.4104 16.2422C43.2526 16.2422 43.1013 16.3049 42.9897 16.4164L41.0917 18.3145C41.0104 18.3984 40.9554 18.5043 40.9335 18.6191C40.9116 18.7338 40.9237 18.8525 40.9684 18.9605C41.0131 19.0685 41.0885 19.161 41.1851 19.2267C41.2818 19.2924 41.3955 19.3284 41.5123 19.3302Z" fill="white"/>
<path d="M36.2044 15.7781C36.322 15.7781 36.4368 15.7433 36.5346 15.6781C36.6324 15.6129 36.7087 15.5202 36.7538 15.4117L37.3965 13.8707C37.4572 13.7251 37.4576 13.5613 37.3975 13.4154C37.3375 13.2695 37.2219 13.1534 37.0763 13.0927C36.9307 13.032 36.7669 13.0316 36.621 13.0916C36.4751 13.1517 36.359 13.2672 36.2983 13.4129L35.6556 14.9538C35.6187 15.0443 35.6046 15.1424 35.6143 15.2396C35.6241 15.3368 35.6575 15.4301 35.7116 15.5114C35.7658 15.5927 35.839 15.6595 35.9249 15.706C36.0108 15.7525 36.1068 15.7772 36.2044 15.7781Z" fill="white"/>
</svg>
