<svg width="27" height="27" viewBox="0 0 27 27" fill="none" xmlns="http://www.w3.org/2000/svg">
<path d="M22.5217 8.52174H4.26087C1.9113 8.52174 0 6.61043 0 4.26087C0 1.9113 1.9113 0 4.26087 0H22.5217C24.8713 0 26.7826 1.9113 26.7826 4.26087C26.7826 6.61043 24.8713 8.52174 22.5217 8.52174ZM4.26087 1.82609C2.91809 1.82609 1.82609 2.91809 1.82609 4.26087C1.82609 5.60365 2.91809 6.69565 4.26087 6.69565H22.5217C23.8645 6.69565 24.9565 5.60365 24.9565 4.26087C24.9565 2.91809 23.8645 1.82609 22.5217 1.82609H4.26087Z" fill="#FFFFFF"/>
<path d="M6.08849 5.47385C6.76083 5.47385 7.30588 4.9288 7.30588 4.25645C7.30588 3.58411 6.76083 3.03906 6.08849 3.03906C5.41614 3.03906 4.87109 3.58411 4.87109 4.25645C4.87109 4.9288 5.41614 5.47385 6.08849 5.47385Z" fill="#FFFFFF"/>
<path d="M10.9557 5.47385C11.628 5.47385 12.1731 4.9288 12.1731 4.25645C12.1731 3.58411 11.628 3.03906 10.9557 3.03906C10.2833 3.03906 9.73828 3.58411 9.73828 4.25645C9.73828 4.9288 10.2833 5.47385 10.9557 5.47385Z" fill="#FFFFFF"/>
<path d="M12.0157 15.2171H4.26087C1.9113 15.2171 0 13.3057 0 10.9562C0 9.82523 0.458957 8.72714 1.25878 7.94192C2.03183 7.15427 3.12991 6.69531 4.26087 6.69531H22.5217C24.4489 6.69531 26.1386 7.99062 26.6304 9.84592C26.7595 10.3329 26.4697 10.8332 25.9828 10.9623C25.497 11.0974 24.9955 10.8016 24.8664 10.3146C24.5852 9.25792 23.621 8.5214 22.5217 8.5214H4.26087C3.60835 8.5214 3.00087 8.77462 2.55043 9.23357C2.0793 9.69618 1.82609 10.3037 1.82609 10.9562C1.82609 12.299 2.91809 13.391 4.26087 13.391H12.0157C12.5197 13.391 12.9287 13.8 12.9287 14.304C12.9287 14.808 12.5197 15.2171 12.0157 15.2171Z" fill="#FFFFFF"/>
<path d="M6.08849 12.177C6.76083 12.177 7.30588 11.6319 7.30588 10.9596C7.30588 10.2872 6.76083 9.74219 6.08849 9.74219C5.41614 9.74219 4.87109 10.2872 4.87109 10.9596C4.87109 11.6319 5.41614 12.177 6.08849 12.177Z" fill="#FFFFFF"/>
<path d="M10.9557 12.177C11.628 12.177 12.1731 11.6319 12.1731 10.9596C12.1731 10.2872 11.628 9.74219 10.9557 9.74219C10.2833 9.74219 9.73828 10.2872 9.73828 10.9596C9.73828 11.6319 10.2833 12.177 10.9557 12.177Z" fill="#FFFFFF"/>
<path d="M10.0435 21.9124H4.26087C1.9113 21.9124 0 20.0011 0 17.6515C0 16.5205 0.458957 15.4225 1.25878 14.6372C2.03183 13.8496 3.12991 13.3906 4.26087 13.3906C4.76487 13.3906 5.17391 13.7997 5.17391 14.3037C5.17391 14.8077 4.76487 15.2167 4.26087 15.2167C3.60835 15.2167 3.00087 15.4699 2.55043 15.9289C2.0793 16.3915 1.82609 16.999 1.82609 17.6515C1.82609 18.9943 2.91809 20.0863 4.26087 20.0863H10.0435C10.5475 20.0863 10.9565 20.4953 10.9565 20.9993C10.9565 21.5033 10.5475 21.9124 10.0435 21.9124Z" fill="#FFFFFF"/>
<path d="M6.08849 18.8723C6.76083 18.8723 7.30588 18.3272 7.30588 17.6549C7.30588 16.9825 6.76083 16.4375 6.08849 16.4375C5.41614 16.4375 4.87109 16.9825 4.87109 17.6549C4.87109 18.3272 5.41614 18.8723 6.08849 18.8723Z" fill="#FFFFFF"/>
<path d="M16.5996 16.7002H24.4004C25.4224 16.7004 26.2499 17.5277 26.25 18.5498V21.75H14.75V18.5498C14.7501 17.5278 15.5776 16.7004 16.5996 16.7002Z" stroke="#FFFFFF" stroke-width="1.5"/>
<path d="M19.1572 21.8984C19.4706 22.2904 19.9508 22.5488 20.5 22.5488C21.0492 22.5488 21.5294 22.2904 21.8428 21.8984H26.25V24.3984C26.25 25.4206 25.4225 26.2478 24.4004 26.248H16.5996C15.5775 26.2478 14.75 25.4206 14.75 24.3984V21.8984H19.1572Z" stroke="#FFFFFF" stroke-width="1.5"/>
</svg>
