<svg width="60" height="61" viewBox="0 0 60 61" fill="none" xmlns="http://www.w3.org/2000/svg">
<circle opacity="0.1" cx="30" cy="30.5" r="30" fill="#1265A6"/>
<path fill-rule="evenodd" clip-rule="evenodd" d="M31.8951 16.6483L33.8005 18.092C34.3216 18.4868 34.8701 18.6889 35.5201 18.7255L37.8964 18.8593C39.3193 18.9394 40.475 19.9209 40.8 21.3254L41.3429 23.671C41.4913 24.3125 41.7832 24.8242 42.2578 25.275L43.9933 26.9237C45.0324 27.9109 45.2943 29.4147 44.6515 30.7021L43.5778 32.852C43.2842 33.4401 43.1828 34.0219 43.26 34.6761L43.5425 37.0682C43.7117 38.5005 42.9573 39.8228 41.6473 40.3908L39.4595 41.3392C38.8611 41.5986 38.414 41.9783 38.0577 42.5297L36.755 44.5459C35.975 45.7531 34.5574 46.2754 33.1933 45.8581L30.915 45.1612C30.2919 44.9706 29.7082 44.9706 29.0851 45.1612L26.8069 45.8581C25.4427 46.2754 24.0251 45.7531 23.2451 44.5459L21.9424 42.5297C21.5861 41.9783 21.139 41.5986 20.5407 41.3392L18.3527 40.3906C17.0427 39.8227 16.2883 38.5004 16.4575 37.068L16.74 34.676C16.8172 34.0218 16.7158 33.4399 16.4222 32.8519L15.3485 30.7019C14.7056 29.4146 14.9676 27.9108 16.0067 26.9236L17.7422 25.2749C18.2168 24.824 18.5086 24.3124 18.657 23.6709L19.1999 21.3253C19.5249 19.9208 20.6806 18.9393 22.1035 18.8592L24.4799 18.7254C25.1298 18.6888 25.6783 18.4867 26.1994 18.0918L28.1048 16.6482C29.2456 15.7839 30.7543 15.7839 31.8951 16.6483ZM28.7845 31.8262L26.7167 29.7332C26.1808 29.1907 25.3115 29.1907 24.7756 29.7332C24.2397 30.2757 24.2397 31.1555 24.7756 31.698L27.8169 34.7763C28.3529 35.3188 29.2222 35.3188 29.7581 34.7763C31.5912 32.9208 33.4036 31.0444 35.2283 29.1804C35.7603 28.6369 35.7586 27.7598 35.2223 27.22C34.6859 26.68 33.8169 26.6816 33.2843 27.226L28.7845 31.8262ZM29.9999 20.6537C27.1774 20.6537 24.6219 21.8117 22.7722 23.6841C20.9224 25.5564 19.7783 28.143 19.7783 31C19.7783 33.857 20.9224 36.4436 22.7722 38.3159C24.6219 40.1882 27.1774 41.3463 29.9999 41.3463C32.8225 41.3463 35.378 40.1882 37.2277 38.3159C39.0775 36.4436 40.2216 33.857 40.2216 31C40.2216 28.143 39.0775 25.5564 37.2277 23.6841C35.378 21.8117 32.8225 20.6537 29.9999 20.6537ZM36.5206 24.3997C34.8519 22.7106 32.5464 21.6659 29.9999 21.6659C27.4534 21.6659 25.148 22.7106 23.4792 24.3997C21.8105 26.0888 20.7783 28.4224 20.7783 31C20.7783 33.5775 21.8105 35.9111 23.4792 37.6002C25.148 39.2893 27.4534 40.3341 29.9999 40.3341C32.5464 40.3341 34.8519 39.2893 36.5206 37.6003C38.1894 35.9111 39.2215 33.5776 39.2215 31C39.2216 28.4224 38.1894 26.0888 36.5206 24.3997Z" fill="#1265A6"/>
</svg>
