<svg width="60" height="61" viewBox="0 0 60 61" fill="none" xmlns="http://www.w3.org/2000/svg">
<circle opacity="0.1" cx="30" cy="30.5" r="30" fill="#1265A6"/>
<path d="M20.3457 29.6802C21.6412 29.6813 22.6903 28.6313 22.691 27.3466V22.8323C22.5956 19.7502 18.1002 19.7471 18.0003 22.8323C18.0003 22.8323 18.0003 27.3013 18.0003 27.3013C17.9789 28.5892 19.0321 29.6847 20.3457 29.6802Z" fill="#1265A6"/>
<path d="M25.9363 30.1133C27.1053 30.1162 28.042 29.1613 28.0425 28.0176C28.0426 28.0176 28.0426 19.2892 28.0369 19.2552C27.8328 16.5674 23.9076 16.6554 23.8301 19.3628C23.8301 19.3628 23.8301 28.0176 23.8301 28.0176C23.8301 29.173 24.775 30.1133 25.9363 30.1133Z" fill="#1265A6"/>
<path d="M36.8937 25.5576C37.6945 25.6173 38.4755 25.7941 39.2106 26.107V19.8935C39.2374 18.6756 38.1553 17.6233 36.9393 17.6449C35.6869 17.6448 34.668 18.653 34.668 19.8935V25.535C35.0877 25.5311 36.5011 25.5233 36.8937 25.5576Z" fill="#1265A6"/>
<path d="M41.038 28.9223C39.9656 27.4765 38.1961 26.6598 36.3473 26.668C36.3473 26.668 31.4517 26.668 31.4517 26.668C30.8426 26.668 30.2677 26.9003 29.8407 27.3251C28.4155 28.6994 29.4593 31.1972 31.4518 31.1653C31.4517 31.1653 36.1253 31.1653 36.1253 31.1653C36.8695 31.1751 36.8769 32.2835 36.1253 32.2982H31.4517C30.0343 32.2982 28.816 31.4372 28.298 30.2194C26.8886 31.8449 23.9846 31.4321 23.0609 29.5113C21.9513 31.0391 19.3597 31.2502 18.0059 29.9078V34.9263C18.0059 36.2064 18.9281 37.3506 19.4745 37.9226C20.0097 38.4664 20.317 39.2254 20.317 40.007V45.555C20.317 45.8006 20.5171 45.9997 20.764 45.9997H36.9876C37.2345 45.9997 37.4346 45.8006 37.4346 45.555V40.7037C37.4346 39.6672 37.9469 38.7269 38.8008 38.1775C40.9638 37.0595 43.3859 31.8731 41.038 28.9223Z" fill="#1265A6"/>
<path d="M31.452 25.5355H33.5298V18.1268C33.4353 15.2899 29.2669 15.2923 29.175 18.1269C29.1798 18.6255 29.1714 25.6812 29.175 26.4021C29.7917 25.845 30.6022 25.5351 31.452 25.5355Z" fill="#1265A6"/>
</svg>
