<svg width="166" height="166" viewBox="0 0 166 166" fill="none" xmlns="http://www.w3.org/2000/svg">
<path fill-rule="evenodd" clip-rule="evenodd" d="M65.6125 139.829C98.5577 139.829 125.421 112.958 125.421 80.0198C125.421 47.0815 98.5577 20.2109 65.6125 20.2109C32.6742 20.2109 5.81055 47.0815 5.81055 80.0198C5.81055 112.958 32.6742 139.829 65.6125 139.829Z" fill="#8AC9FE"/>
<path fill-rule="evenodd" clip-rule="evenodd" d="M65.6125 20.2109C98.6426 20.2109 125.421 46.9897 125.421 80.0198C125.421 113.05 98.6426 139.829 65.6125 139.829C64.9554 139.829 64.2917 139.815 63.6345 139.793C95.7464 138.748 121.466 112.386 121.466 80.0198C121.466 47.6537 95.7464 21.2919 63.6345 20.2464C64.2917 20.2253 64.9554 20.2109 65.6125 20.2109Z" fill="#60B7FF"/>
<path fill-rule="evenodd" clip-rule="evenodd" d="M65.6128 33.4414C91.3389 33.4414 112.191 54.2936 112.191 80.0197C112.191 105.746 91.3389 126.598 65.6128 126.598C39.8935 126.598 19.0342 105.746 19.0342 80.0197C19.0342 54.2936 39.8935 33.4414 65.6128 33.4414Z" fill="#ECEFF1"/>
<path fill-rule="evenodd" clip-rule="evenodd" d="M65.6128 33.4414C66.2768 33.4414 66.9408 33.4554 67.5976 33.4837C42.7898 34.522 22.997 54.9576 22.997 80.0197C22.997 105.082 42.7898 125.517 67.5976 126.556C66.9408 126.584 66.2768 126.598 65.6128 126.598C39.8935 126.598 19.0342 105.746 19.0342 80.0197C19.0342 54.2936 39.8935 33.4414 65.6128 33.4414Z" fill="#D1D1D6"/>
<path fill-rule="evenodd" clip-rule="evenodd" d="M112.801 80.0513H100.321C99.7077 80.0513 99.1465 79.7063 98.8692 79.1591C98.5919 78.612 98.6459 77.9555 99.0089 77.4611L125.477 41.3841C125.951 40.7389 126.694 40.3474 127.493 40.3217C128.293 40.2959 129.06 40.6397 129.574 41.2529L159.81 77.3794C160.216 77.864 160.304 78.5397 160.037 79.1126C159.769 79.6851 159.194 80.0513 158.562 80.0513H146.96C146.96 135.389 107.948 155.06 78.1375 141.8C77.5246 141.525 77.1444 140.9 77.1812 140.23C77.2183 139.559 77.6648 138.98 78.3041 138.774C110.646 128.373 112.801 99.5967 112.801 80.0513Z" fill="#2FB1D4"/>
<path fill-rule="evenodd" clip-rule="evenodd" d="M125.161 41.8147L125.477 41.3841C125.951 40.7389 126.694 40.3474 127.493 40.3217C128.293 40.2959 129.06 40.6397 129.574 41.2529L159.81 77.3794C160.216 77.864 160.304 78.5397 160.037 79.1126C159.769 79.6851 159.194 80.0513 158.562 80.0513H153.679C154.311 80.0513 154.887 79.6851 155.154 79.1126C155.422 78.5397 155.333 77.864 154.928 77.3794L125.161 41.8147ZM146.96 80.0513C146.96 125.767 120.335 147.141 94.2683 145.715C118.673 144.377 142.077 122.913 142.077 80.0513H146.96Z" fill="#3E3E3E"/>
<path fill-rule="evenodd" clip-rule="evenodd" d="M71.8978 142.022C69.5347 142.296 67.1319 142.436 64.6979 142.436C30.3177 142.436 2.27832 114.397 2.27832 80.0169C2.27832 45.6367 30.3177 17.5977 64.6979 17.5977C86.8371 17.5977 106.349 29.2229 117.434 46.6838L124.414 37.17C124.887 36.5249 125.63 36.1333 126.43 36.1076C127.229 36.0822 127.997 36.4256 128.51 37.0392L163.114 78.3843C163.763 79.1599 163.905 80.2412 163.477 81.1574C163.049 82.0737 162.129 82.6592 161.118 82.6592H148.606C148.108 105.228 141.128 121.813 131.076 132.655C115.101 149.888 91.3038 152.826 72.1695 142.196C72.0745 142.144 71.9837 142.085 71.8978 142.022ZM114.104 51.2228C104.159 34.2488 85.7229 22.8055 64.6979 22.8055C33.1859 22.8055 7.48616 48.5052 7.48616 80.0169C7.48616 111.529 33.1859 137.229 64.6979 137.229C69.7908 137.229 74.7321 136.557 79.4377 135.298C95.3952 129.222 102.849 118.065 106.311 106.248C97.6001 120.041 82.2213 129.198 64.6979 129.198C37.5292 129.198 15.5163 107.186 15.5163 80.0169C15.5163 52.8482 37.5292 30.8357 64.6979 30.8357C84.0932 30.8357 100.861 42.055 108.868 58.3594L114.104 51.2228ZM108.593 82.6592H96.1796C95.1983 82.6592 94.3003 82.1075 93.8569 81.2323C93.4133 80.3567 93.4995 79.3064 94.0802 78.5151L105.334 63.1764C98.7263 47.2446 83.0237 36.0435 64.6979 36.0435C40.4059 36.0435 20.7242 55.7253 20.7242 80.0169C20.7242 104.309 40.4059 123.991 64.6979 123.991C88.1023 123.991 107.227 105.72 108.593 82.6592ZM114.476 80.0553C114.476 99.9662 112.126 128.911 80.6684 140.408C96.5107 146.364 114.624 142.742 127.257 129.115C136.976 118.63 143.427 102.32 143.427 80.0553C143.427 78.6173 144.593 77.4514 146.031 77.4514H155.543L126.648 42.9286C120.388 51.4607 101.319 77.4514 101.32 77.4514H111.872C113.311 77.4514 114.476 78.6173 114.476 80.0553ZM92.7711 104.408C93.7873 105.424 93.7873 107.074 92.7711 108.09C91.7549 109.107 90.1047 109.107 89.0885 108.09L86.2401 105.242C85.224 104.226 85.224 102.576 86.2401 101.559C87.2563 100.543 88.9066 100.543 89.9227 101.559L92.7711 104.408ZM89.0885 51.9437C90.1047 50.9275 91.7549 50.9275 92.7711 51.9437C93.7873 52.9599 93.7873 54.6101 92.7711 55.6263L89.9227 58.4747C88.9066 59.4909 87.2563 59.4909 86.2401 58.4747C85.224 57.4585 85.224 55.8083 86.2401 54.7921L89.0885 51.9437ZM40.307 108.09C39.2908 109.107 37.6406 109.107 36.6244 108.09C35.6082 107.074 35.6082 105.424 36.6244 104.408L39.4727 101.559C40.4889 100.543 42.1392 100.543 43.1553 101.559C44.1715 102.576 44.1715 104.226 43.1553 105.242L40.307 108.09ZM62.094 42.9341C62.094 41.4971 63.2605 40.3302 64.6979 40.3302C66.1349 40.3302 67.3018 41.4971 67.3018 42.9341V46.9491C67.3018 48.3861 66.1349 49.553 64.6979 49.553C63.2605 49.553 62.094 48.3861 62.094 46.9491V42.9341ZM62.094 62.3978C62.094 60.9608 63.2605 59.7939 64.6979 59.7939C66.1349 59.7939 67.3018 60.9608 67.3018 62.3978V78.5135L77.7725 84.5572C79.0172 85.2755 79.4446 86.8695 78.7262 88.1141C78.0078 89.3588 76.4139 89.7862 75.1693 89.0675L63.3959 82.2722C62.5904 81.8071 62.094 80.9475 62.094 80.0169V62.3978ZM36.6244 55.6263C35.6082 54.6101 35.6082 52.9599 36.6244 51.9437C37.6406 50.9275 39.2908 50.9275 40.307 51.9437L43.1553 54.7921C44.1715 55.8083 44.1715 57.4585 43.1553 58.4747C42.1392 59.4909 40.4889 59.4909 39.4727 58.4747L36.6244 55.6263ZM67.3018 117.1C67.3018 118.537 66.1349 119.704 64.6979 119.704C63.2605 119.704 62.094 118.537 62.094 117.1V113.085C62.094 111.648 63.2605 110.481 64.6979 110.481C66.1349 110.481 67.3018 111.648 67.3018 113.085V117.1ZM27.6148 82.6208C26.1778 82.6208 25.0109 81.4543 25.0109 80.0169C25.0109 78.5799 26.1778 77.413 27.6148 77.413H31.6297C33.0668 77.413 34.2336 78.5799 34.2336 80.0169C34.2336 81.4543 33.0668 82.6208 31.6297 82.6208H27.6148Z" fill="#3E3E3E"/>
</svg>
