<svg width="58" height="58" viewBox="0 0 58 58" fill="none" xmlns="http://www.w3.org/2000/svg">
<circle cx="29.4449" cy="28.5621" r="28.5621" fill="#63ADF4" fill-opacity="0.35"/>
<path d="M43.7634 28.3496C45.2729 28.3496 46.5006 27.1219 46.5006 25.6186V16.0165C46.5006 14.507 45.2729 13.2793 43.7634 13.2793H16.1283C14.6188 13.2793 13.3911 14.507 13.3911 16.0165V25.6186C13.3911 27.1219 14.6188 28.3496 16.1283 28.3496H23.9829V39.4174L23.4192 38.8599C22.9055 38.34 22.2165 38.0519 21.4837 38.0519C20.7509 38.0519 20.0619 38.34 19.5482 38.8536C19.0346 39.3673 18.7528 40.0563 18.7528 40.7891C18.7528 41.5282 19.0346 42.2172 19.5482 42.7308L24.7909 47.9735C26.6387 49.8087 29.1817 50.861 31.7748 50.861H32.6643C33.679 50.861 34.6686 50.6668 35.6144 50.2722C36.5414 49.8964 37.387 49.3327 38.1261 48.5998C39.6795 47.0465 40.5689 44.8918 40.5689 42.6995V33.6799C40.5689 33.0097 40.2934 32.3583 39.8236 31.8822C39.3413 31.4062 38.7024 31.1431 38.0197 31.1431C37.4434 31.1431 36.911 31.3373 36.4851 31.6567C36.3661 31.3999 36.1969 31.1682 35.984 30.9615C35.5079 30.4917 34.8565 30.2224 34.1926 30.2224C33.6602 30.2224 33.1654 30.3852 32.752 30.6671C32.6267 30.3101 32.4262 29.9844 32.1569 29.715C31.6871 29.2327 31.0483 28.9697 30.3593 28.9697C29.8895 28.9697 29.4448 29.0949 29.0689 29.3204V28.3496H43.7634ZM28.1545 20.1881C28.499 20.1881 28.7808 20.4699 28.7808 20.8144C28.7808 21.1589 28.499 21.4408 28.1545 21.4408H25.6991V23.6456H29.0251C29.3759 23.6456 29.6515 23.9274 29.6515 24.2719C29.6515 24.6164 29.3759 24.8983 29.0251 24.8983H25.0728C24.7283 24.8983 24.4464 24.6164 24.4464 24.2719V17.3569C24.4464 17.0124 24.7283 16.7305 25.0728 16.7305H29.0251C29.3759 16.7305 29.6515 17.0124 29.6515 17.3569C29.6515 17.7077 29.3759 17.9833 29.0251 17.9833H25.6991V20.1881H28.1545ZM35.4015 23.6456C35.746 23.6456 36.0278 23.9274 36.0278 24.2719C36.0278 24.6164 35.746 24.8983 35.4015 24.8983H31.4429C31.0984 24.8983 30.8165 24.6164 30.8165 24.2719V17.3569C30.8165 17.0124 31.0984 16.7305 31.4429 16.7305C31.7874 16.7305 32.0692 17.0124 32.0692 17.3569V23.6456H35.4015ZM41.283 20.7581C40.8508 21.1902 40.2432 21.4408 39.6294 21.4408H38.0259V24.2782C38.0259 24.6227 37.7441 24.9046 37.3996 24.9046C37.0488 24.9046 36.7732 24.6227 36.7732 24.2782V17.3569C36.7732 17.0124 37.0488 16.7305 37.3996 16.7305H39.6294C40.926 16.7305 41.9845 17.7891 41.9845 19.0857C41.9845 19.7246 41.734 20.3196 41.283 20.7581ZM17.9072 17.3569C17.9072 17.0124 18.189 16.7305 18.5335 16.7305C18.878 16.7305 19.1599 17.0124 19.1599 17.3569V20.1881H22.3606V17.3569C22.3606 17.0124 22.6425 16.7305 22.987 16.7305C23.3377 16.7305 23.6133 17.0124 23.6133 17.3569V24.2719C23.6133 24.6164 23.3377 24.8983 22.987 24.8983C22.6425 24.8983 22.3606 24.6164 22.3606 24.2719V21.4408H19.1599V24.2719C19.1599 24.6164 18.878 24.8983 18.5335 24.8983C18.189 24.8983 17.9072 24.6164 17.9072 24.2719V17.3569ZM30.3593 30.2224C30.71 30.2224 31.0295 30.3539 31.2675 30.5982C31.5055 30.8362 31.6433 31.1682 31.6433 31.5064V32.7591C31.6433 32.7623 31.6452 32.7648 31.6452 32.7679V38.6745C31.6452 39.0203 31.9252 39.3009 32.2715 39.3009C32.6179 39.3009 32.8979 39.0203 32.8979 38.6745V32.7623C32.8979 32.7623 32.8966 32.7579 32.8966 32.7554C32.8991 32.0495 33.4804 31.4751 34.1926 31.4751C34.5308 31.4751 34.8628 31.6129 35.1071 31.8509C35.3514 32.0889 35.4829 32.4146 35.4829 32.7591V33.668C35.4829 33.6724 35.4804 33.6761 35.4804 33.6805V38.6745C35.4804 39.0203 35.7604 39.3009 36.1067 39.3009C36.4531 39.3009 36.7331 39.0203 36.7331 38.6745V33.6924C36.7331 33.688 36.7356 33.6843 36.7356 33.6799C36.7356 32.9721 37.3119 32.3959 38.0197 32.3959C38.3704 32.3959 38.6961 32.5274 38.9341 32.7717C39.1784 33.0097 39.3162 33.3417 39.3162 33.6799V42.6995C39.3162 44.5661 38.5583 46.395 37.243 47.7104C36.6229 48.3242 35.9151 48.8003 35.1384 49.1197C34.3429 49.4454 33.5161 49.6083 32.6643 49.6083H31.7748C29.5074 49.6083 27.2838 48.6875 25.6803 47.084L20.4377 41.8414C20.1558 41.5658 20.0055 41.19 20.0055 40.7891C20.0055 40.3882 20.1558 40.0187 20.4377 39.7368C20.7133 39.4612 21.0891 39.3046 21.4837 39.3046C21.8783 39.3046 22.2541 39.4612 22.536 39.7431L24.1708 41.3654C24.3462 41.5407 24.6155 41.5971 24.8535 41.4969C25.0853 41.4029 25.2356 41.1712 25.2356 40.9206V27.6543C25.2356 27.2597 25.4047 26.8776 25.6929 26.602C25.9434 26.3577 26.2628 26.2387 26.5948 26.2512C26.9143 26.2638 27.2149 26.4016 27.4404 26.6208C27.6784 26.8651 27.8162 27.2033 27.8162 27.5416V31.5064C27.8162 31.5064 27.8162 31.5077 27.8162 31.5083V38.6745C27.8162 39.0203 28.0962 39.3009 28.4426 39.3009C28.789 39.3009 29.0689 39.0203 29.0689 38.6745V31.507V31.5058C29.0689 30.7986 29.6452 30.2224 30.3593 30.2224Z" fill="white"/>
<path d="M39.6294 17.9829H38.0259V20.1877H39.6294C39.9175 20.1877 40.1994 20.0687 40.4061 19.8683C40.619 19.6616 40.7318 19.386 40.7318 19.0853C40.7318 18.4777 40.2369 17.9829 39.6294 17.9829Z" fill="white"/>
<path d="M33.5125 48.8046C33.5551 48.8046 33.5983 48.8003 33.6416 48.7915C33.7368 48.7714 33.8313 48.7502 33.9228 48.727C34.2585 48.643 34.4627 48.3029 34.3788 47.9672C34.2949 47.6321 33.9541 47.4266 33.6196 47.5112C33.5426 47.5306 33.4643 47.5488 33.3847 47.5651C33.0459 47.6359 32.8292 47.9685 32.9006 48.3067C32.9626 48.6023 33.2225 48.8046 33.5125 48.8046Z" fill="white"/>
<path d="M35.4536 48.0376C35.5676 48.0376 35.6822 48.0069 35.7855 47.9418C37.9077 46.6108 38.4031 44.4705 38.4231 44.3797C38.4977 44.0427 38.2853 43.7107 37.949 43.6349C37.6139 43.5579 37.2788 43.7708 37.2005 44.1059C37.1967 44.1228 36.7846 45.8366 35.1203 46.8807C34.8272 47.0642 34.7389 47.4513 34.923 47.7438C35.0414 47.9336 35.245 48.0376 35.4536 48.0376Z" fill="white"/>
</svg>
