<svg width="60" height="61" viewBox="0 0 60 61" fill="none" xmlns="http://www.w3.org/2000/svg">
<circle opacity="0.1" cx="30" cy="30.5" r="30" fill="#1265A6"/>
<path d="M44.7422 39.4694L42.6202 37.4061L42.6175 37.3314C42.5191 34.4651 41.4804 31.749 39.6677 29.5625V31.0006C39.6677 32.4544 38.4848 33.6373 37.0309 33.6373C36.3915 33.6373 35.7906 33.4656 35.2731 33.1651V33.345C36.8307 34.7927 36.9989 37.6732 35.2026 39.4694L33.7479 40.926C33.1594 41.514 32.5243 42.0427 31.8555 42.5172C33.2482 43.0718 34.7204 43.4082 36.2351 43.451L38.4686 45.7431C38.6402 45.9147 38.865 46.0006 39.09 46.0006C39.3147 46.0006 39.5397 45.9147 39.7114 45.7431L44.742 40.7122C45.0855 40.3689 45.0855 39.8127 44.7422 39.4694Z" fill="#1265A6"/>
<path d="M33.6248 38.5605C33.1682 38.7942 32.6713 38.9089 32.1973 38.9089C31.3371 38.9089 30.5587 38.5543 30 37.9837C29.4413 38.5543 28.6627 38.9089 27.8027 38.9089C26.1067 38.9089 24.7266 37.5287 24.7266 35.8327V35.0964C24.3265 35.2868 23.8795 35.3932 23.4082 35.3932C21.7122 35.3932 20.332 34.0131 20.332 32.3171V29.6142C20.332 29.5952 20.3339 29.5776 20.3339 29.5586C18.52 31.7453 17.4804 34.4624 17.382 37.3296L15.2575 39.4676C14.9142 39.8109 14.9142 40.3671 15.2575 40.7104L20.2883 45.7412C20.6314 46.0845 21.1878 46.0845 21.5311 45.7412L23.7644 43.4492C27.0662 43.3565 30.1579 42.0272 32.5044 39.6814L33.6248 38.5605Z" fill="#1265A6"/>
<path d="M23.4082 33.6367C24.1363 33.6367 24.7266 33.0464 24.7266 32.3184V29.1461C24.7266 28.6682 25.1138 28.2809 25.5917 28.2809H25.6192C26.0971 28.2809 26.4844 28.6682 26.4844 29.1461V35.834C26.4844 36.5621 27.0747 37.1523 27.8027 37.1523C28.5308 37.1523 29.1211 36.5621 29.1211 35.834V29.1598C29.1211 28.0962 30.8789 28.0918 30.8789 29.1598V35.834C30.8789 36.5621 31.4692 37.1523 32.1973 37.1523C32.9739 37.1523 33.5156 36.6795 33.5156 35.3945C33.5156 32.3618 33.5156 30.2216 33.5156 27.402C33.5156 26.3384 35.2734 26.334 35.2734 27.402V30.1211C35.2734 31.0918 36.0601 31.8787 37.0313 31.8789C37.5172 31.8789 37.9102 31.4857 37.9102 31V28.6997C37.9102 25.4254 36.6802 22.3046 34.446 19.9098L34.3945 16.8789C34.3945 16.3932 34.0013 16 33.5156 16H26.4844C25.9985 16 25.6055 16.3932 25.6055 16.8789V20.0961C22.9585 22.8953 22.0898 26.0509 22.0898 29.616V32.3184C22.0898 33.0464 22.6801 33.6367 23.4082 33.6367Z" fill="#1265A6"/>
</svg>
