<svg width="60" height="61" viewBox="0 0 60 61" fill="none" xmlns="http://www.w3.org/2000/svg">
<circle opacity="0.1" cx="30" cy="30.5" r="30" fill="#1265A6"/>
<path d="M30.0009 25.4609C32.8394 25.4609 35.1404 23.2311 35.1404 20.4805C35.1404 17.7298 32.8394 15.5 30.0009 15.5C27.1624 15.5 24.8613 17.7298 24.8613 20.4805C24.8613 23.2311 27.1624 25.4609 30.0009 25.4609Z" fill="#1265A6"/>
<path d="M33.7768 26.1367C32.6886 26.8215 31.3916 27.2198 30.0002 27.2198C28.6089 27.2198 27.3118 26.8215 26.2236 26.1367C25.0207 26.5822 23.9053 27.2395 22.9355 28.083L30.0002 30.6503L37.0649 28.083C36.0951 27.2395 34.9798 26.5821 33.7768 26.1367Z" fill="#1265A6"/>
<path d="M40.8827 33.6641H40.2781C39.7772 33.6641 39.3711 34.0576 39.3711 34.543V36.8867C39.3711 37.3721 39.7772 37.7656 40.2781 37.7656H40.8827C42.0515 37.7656 42.999 36.8475 42.999 35.7148C42.999 34.5822 42.0515 33.6641 40.8827 33.6641Z" fill="#1265A6"/>
<path d="M19.8083 29.2269C19.5638 29.3911 19.418 29.661 19.418 29.9493V31.906H19.7203C21.2206 31.906 22.4412 33.0889 22.4412 34.5428V36.8865C22.4412 38.3404 21.2206 39.5232 19.7203 39.5232H19.418V41.3751C19.418 41.7415 19.6525 42.0694 20.0065 42.198L29.0924 45.4998V32.1967L20.6434 29.1263C20.3649 29.025 20.0528 29.0626 19.8083 29.2269Z" fill="#1265A6"/>
<path d="M37.5574 36.8865V34.5428C37.5574 33.0889 38.778 31.906 40.2783 31.906H40.5807V29.9493C40.5807 29.661 40.4348 29.3911 40.1903 29.2269C39.9458 29.0626 39.6337 29.025 39.3552 29.1263L30.9062 32.1967V45.4998L39.9922 42.198C40.3461 42.0694 40.5807 41.7415 40.5807 41.3751V39.5232H40.2783C38.778 39.5232 37.5574 38.3404 37.5574 36.8865Z" fill="#1265A6"/>
<path d="M20.6279 36.8867V34.543C20.6279 34.0576 20.2218 33.6641 19.7209 33.6641H19.1163C17.9475 33.6641 17 34.5822 17 35.7148C17 36.8475 17.9475 37.7656 19.1163 37.7656H19.7209C20.2218 37.7656 20.6279 37.3721 20.6279 36.8867Z" fill="#1265A6"/>
</svg>
