<svg width="1920" height="1194" viewBox="0 0 1920 1194" fill="none" xmlns="http://www.w3.org/2000/svg">
<mask id="mask0_2_120" style="mask-type:alpha" maskUnits="userSpaceOnUse" x="0" y="0" width="1920" height="1194">
<rect width="1920" height="1194" fill="#D9D9D9"/>
</mask>
<g mask="url(#mask0_2_120)">
<g filter="url(#filter0_f_2_120)">
<ellipse cx="955.116" cy="615.323" rx="287.29" ry="292.916" fill="#007CFF" fill-opacity="0.29"/>
</g>
<g style="mix-blend-mode:plus-darker">
<path d="M961.432 199.345C1165.53 199.345 1331.07 368.054 1331.07 576.27C1331.07 784.485 1165.53 953.194 961.432 953.194C757.332 953.194 591.793 784.485 591.793 576.27C591.793 368.054 757.332 199.345 961.432 199.345Z" stroke="#F1F2FD" stroke-width="5"/>
</g>
<g style="mix-blend-mode:plus-darker">
<path d="M961.432 66.5C1237.49 66.5002 1461.36 294.686 1461.36 576.27C1461.36 857.853 1237.49 1086.04 961.432 1086.04C685.373 1086.04 461.5 857.853 461.5 576.27C461.5 294.686 685.373 66.5 961.432 66.5Z" stroke="#F1F2FD" stroke-width="5"/>
</g>
</g>
<defs>
<filter id="filter0_f_2_120" x="233.826" y="-111.593" width="1442.58" height="1453.83" filterUnits="userSpaceOnUse" color-interpolation-filters="sRGB">
<feFlood flood-opacity="0" result="BackgroundImageFix"/>
<feBlend mode="normal" in="SourceGraphic" in2="BackgroundImageFix" result="shape"/>
<feGaussianBlur stdDeviation="217" result="effect1_foregroundBlur_2_120"/>
</filter>
</defs>
</svg>
