<svg width="58" height="58" viewBox="0 0 58 58" fill="none" xmlns="http://www.w3.org/2000/svg">
<circle cx="29.4449" cy="28.5621" r="28.5621" fill="#63ADF4" fill-opacity="0.35"/>
<path d="M42.2433 24.3833H38.938V29.0005C38.9357 30.293 38.4212 31.5319 37.5073 32.4458C36.5933 33.3598 35.3544 33.8742 34.0619 33.8765H25.9927V36.3361C25.9972 37.0587 26.2875 37.7501 26.8 38.2595C27.3126 38.7688 28.0059 39.0546 28.7284 39.0546H35.9951L40.0513 43.1195C40.1319 43.1994 40.2275 43.2627 40.3327 43.3057C40.4378 43.3486 40.5504 43.3704 40.664 43.3697C40.7772 43.3726 40.8895 43.349 40.992 43.3007C41.1496 43.2359 41.2845 43.126 41.3797 42.9847C41.4749 42.8434 41.5262 42.6771 41.527 42.5067V39.0546H42.2433C42.9674 39.0546 43.662 38.7676 44.1748 38.2564C44.6876 37.7452 44.9768 37.0516 44.9791 36.3275V27.1104C44.9768 26.3864 44.6876 25.6927 44.1748 25.1815C43.662 24.6703 42.9674 24.3833 42.2433 24.3833Z" fill="white"/>
<path d="M37.2122 17.1702C37.2076 16.337 36.874 15.5393 36.284 14.9509C35.694 14.3625 34.8954 14.0311 34.0622 14.0288H17.0607C16.2274 14.0311 15.4288 14.3625 14.8388 14.9509C14.2488 15.5393 13.9152 16.337 13.9106 17.1702V28.9936C13.9106 29.8298 14.2422 30.6319 14.8327 31.224C15.4232 31.8161 16.2244 32.1499 17.0607 32.1522H17.3627V36.4673C17.3623 36.6324 17.4093 36.7941 17.498 36.9333C17.5867 37.0725 17.7135 37.1833 17.8633 37.2527C17.9775 37.303 18.1009 37.3295 18.2257 37.3303C18.4314 37.3304 18.6304 37.2569 18.7867 37.1232L24.5862 32.1522H34.0794C34.9126 32.1454 35.7094 31.8096 36.2962 31.218C36.883 30.6263 37.2122 29.8268 37.2122 28.9936V17.1702ZM25.7772 17.0494C25.9905 17.0494 26.1991 17.1126 26.3765 17.2312C26.5539 17.3497 26.6922 17.5182 26.7738 17.7153C26.8555 17.9124 26.8768 18.1293 26.8352 18.3386C26.7936 18.5479 26.6908 18.7401 26.54 18.891C26.3891 19.0418 26.1969 19.1446 25.9876 19.1862C25.7784 19.2278 25.5615 19.2065 25.3643 19.1248C25.1672 19.0432 24.9987 18.9049 24.8802 18.7275C24.7617 18.5501 24.6984 18.3415 24.6984 18.1282C24.6984 17.842 24.812 17.5677 25.0144 17.3653C25.2167 17.163 25.4911 17.0494 25.7772 17.0494ZM27.719 28.7001H24.2669C24.038 28.7001 23.8185 28.6092 23.6566 28.4474C23.4948 28.2855 23.4039 28.066 23.4039 27.8371C23.4039 27.6082 23.4948 27.3887 23.6566 27.2269C23.8185 27.065 24.038 26.9741 24.2669 26.9741H25.1299V21.796H24.2669C24.038 21.796 23.8185 21.7051 23.6566 21.5432C23.4948 21.3814 23.4039 21.1619 23.4039 20.933C23.4039 20.7041 23.4948 20.4846 23.6566 20.3227C23.8185 20.1609 24.038 20.0699 24.2669 20.0699H25.9929C26.1065 20.0693 26.2191 20.0911 26.3242 20.134C26.4294 20.177 26.525 20.2402 26.6057 20.3202C26.6856 20.4009 26.7489 20.4965 26.7919 20.6016C26.8348 20.7068 26.8566 20.8194 26.8559 20.933V26.9741H27.719C27.9478 26.9741 28.1674 27.065 28.3292 27.2269C28.4911 27.3887 28.582 27.6082 28.582 27.8371C28.582 28.066 28.4911 28.2855 28.3292 28.4474C28.1674 28.6092 27.9478 28.7001 27.719 28.7001Z" fill="white"/>
</svg>
