<svg width="28" height="29" viewBox="0 0 28 29" fill="none" xmlns="http://www.w3.org/2000/svg">
<path d="M3.52555 1.98792H21.8094C22.1125 1.98792 22.4032 2.10831 22.6175 2.32262C22.8318 2.53692 22.9522 2.82758 22.9522 3.13066V7.70162C22.9522 8.0047 22.8318 8.29536 22.6175 8.50966C22.4032 8.72397 22.1125 8.84437 21.8094 8.84437H3.52555C3.22248 8.84437 2.93182 8.72397 2.71751 8.50966C2.50321 8.29536 2.38281 8.0047 2.38281 7.70162V3.13066C2.38281 2.82758 2.50321 2.53692 2.71751 2.32262C2.93182 2.10831 3.22248 1.98792 3.52555 1.98792ZM3.52555 11.1299H21.8094C22.1125 11.1299 22.4032 11.2502 22.6175 11.4646C22.8318 11.6789 22.9522 11.9695 22.9522 12.2726V13.0382L20.0953 11.7698L12.6675 15.0609V17.9863H3.52555C3.22248 17.9863 2.93182 17.8659 2.71751 17.6516C2.50321 17.4373 2.38281 17.1466 2.38281 16.8436V12.2726C2.38281 11.9695 2.50321 11.6789 2.71751 11.4646C2.93182 11.2502 3.22248 11.1299 3.52555 11.1299ZM3.52555 20.2718H12.6675C12.7361 22.843 13.8102 25.2999 15.4786 27.1282H3.52555C3.22248 27.1282 2.93182 27.0078 2.71751 26.7935C2.50321 26.5792 2.38281 26.2886 2.38281 25.9855V21.4145C2.38281 21.1115 2.50321 20.8208 2.71751 20.6065C2.93182 20.3922 3.22248 20.2718 3.52555 20.2718ZM9.23926 6.55888H10.382V4.2734H9.23926V6.55888ZM9.23926 15.7008H10.382V13.4153H9.23926V15.7008ZM9.23926 24.8428H10.382V22.5573H9.23926V24.8428ZM4.6683 4.2734V6.55888H6.95378V4.2734H4.6683ZM4.6683 13.4153V15.7008H6.95378V13.4153H4.6683ZM4.6683 22.5573V24.8428H6.95378V22.5573H4.6683ZM20.0953 14.5581L25.2377 16.8436V20.2718C25.2377 23.4486 23.0436 26.4083 20.0953 27.1282C17.147 26.4083 14.953 23.4486 14.953 20.2718V16.8436L20.0953 14.5581ZM20.0953 16.775L17.2385 18.0549V21.0946C17.2385 22.8544 18.4612 24.4999 20.0953 24.9113V16.775Z" fill="white"/>
</svg>
